<?xml version="1.0" encoding="UTF-8"?>
<svg id="Layer_1" data-name="Layer 1" xmlns="http://www.w3.org/2000/svg" width="1165.53" height="479.21" viewBox="0 0 1165.53 479.21">
  <g>
    <path d="M68.38,309.44c3.4-3.06,5.95-5.61,7.65-7.65,1.7-2.04,3.23-4.25,4.59-6.63,2.38-5.27,3.57-10.97,3.57-17.1v-120.94c0-3.91-.17-7.02-.51-9.31-.34-2.3-1.02-4.72-2.04-7.27-1.02-2.55-2.21-4.8-3.57-6.76-1.36-1.95-3.57-4.72-6.63-8.29h74.5c-2.89,3.41-5.06,6.17-6.51,8.29-1.45,2.13-2.68,4.3-3.7,6.51-1.87,5.1-2.81,10.72-2.81,16.84v39.29h72.21v-39.29c0-6.12-.94-11.74-2.81-16.84-1.02-2.21-2.26-4.38-3.7-6.51-1.45-2.12-3.62-4.89-6.51-8.29h74.5c-5.27,6.12-8.59,11.06-9.95,14.8-1.19,2.38-1.96,4.68-2.3,6.89-.34,2.21-.51,5.53-.51,9.95v120.94c0,6.12,1.19,11.83,3.57,17.1,1.7,3.06,3.57,5.7,5.61,7.91,1.53,1.7,3.74,3.83,6.63,6.38h-80.12c3.34-3.06,5.84-5.57,7.51-7.53,1.67-1.95,3.12-4.21,4.36-6.76,2.46-5.1,3.69-10.72,3.69-16.84v-51.54h-72.21v51.54c0,2.89.34,5.79,1.04,8.68.69,2.89,1.77,5.96,3.25,9.19,1.47,3.23,5.23,7.65,11.28,13.27h-80.12Z" style="fill: #1f3a6e;"/>
    <path d="M280.92,309.44c4.08-3.23,6.47-5.19,7.14-5.87,2.38-2.04,4.93-4.85,7.65-8.42,3.74-5.1,6.89-10.72,9.44-16.84l50.01-120.94c2.55-5.95,3.83-11.48,3.83-16.58,0-2.38-.38-4.68-1.15-6.89-.77-2.21-2.09-5.01-3.96-8.42h57.92l58.94,152.84c2.38,6.3,5.27,11.91,8.68,16.84,2.04,2.72,3.91,4.94,5.61,6.63,1.7,1.7,4.68,4.25,8.93,7.65h-85.48c3.57-3.57,6.08-6.8,7.53-9.7,1.44-2.89,2.17-6.21,2.17-9.95s-.68-7.4-2.04-11.48l-6.89-19.39h-59.71l-7.14,19.39c-1.02,2.89-1.75,5.27-2.17,7.14-.43,1.87-.64,3.92-.64,6.12,0,3.23.55,6,1.66,8.29,1.1,2.3,3.53,5.49,7.27,9.57h-67.62ZM380.43,173.96l-20.41,55.37h39.8l-19.39-55.37Z" style="fill: #1f3a6e;"/>
    <path d="M503.92,309.44c3.97-3.57,6.61-6.12,7.91-7.65,1.29-1.53,2.81-3.74,4.54-6.63,2.42-5.27,3.63-10.88,3.63-16.84v-121.2c0-6.46-.94-12.08-2.81-16.84-1.02-2.38-2.13-4.63-3.32-6.76-1.19-2.12-3.15-4.8-5.87-8.04h96.19c11.74,0,22.88,1.96,33.42,5.87,10.54,3.92,19.47,9.53,26.79,16.84,16.16,15.14,24.24,37.51,24.24,67.1s-7.91,51.2-23.73,68.38c-15.82,17.18-36.83,25.77-63.02,25.77h-97.98ZM569.24,154.31v125.02c4.25.85,7.74,1.36,10.46,1.53,2.72.17,4.85.25,6.38.25,16.5,0,29.34-5.7,38.53-17.09,9.19-11.39,13.78-27.56,13.78-48.48s-4.51-35.98-13.52-46.69c-9.02-10.72-22.11-16.07-39.29-16.07-4.59,0-10.04.51-16.33,1.53Z" style="fill: #1f3a6e;"/>
    <path d="M676.92,309.44c4.08-3.23,6.47-5.19,7.14-5.87,2.38-2.04,4.93-4.85,7.65-8.42,3.74-5.1,6.89-10.72,9.44-16.84l50.01-120.94c2.55-5.95,3.83-11.48,3.83-16.58,0-2.38-.38-4.68-1.15-6.89-.77-2.21-2.08-5.01-3.95-8.42h57.92l58.94,152.84c2.38,6.3,5.27,11.91,8.67,16.84,2.04,2.72,3.91,4.94,5.61,6.63,1.7,1.7,4.68,4.25,8.93,7.65h-85.48c3.57-3.57,6.08-6.8,7.53-9.7,1.44-2.89,2.17-6.21,2.17-9.95s-.68-7.4-2.04-11.48l-6.89-19.39h-59.71l-7.14,19.39c-1.02,2.89-1.75,5.27-2.17,7.14-.43,1.87-.64,3.92-.64,6.12,0,3.23.55,6,1.66,8.29,1.1,2.3,3.53,5.49,7.27,9.57h-67.62ZM776.43,173.96l-20.41,55.37h39.8l-19.39-55.37Z" style="fill: #1f3a6e;"/>
    <path d="M900.68,309.44c6.29-5.44,10.54-10.29,12.76-14.54,2.21-4.25,3.32-9.78,3.32-16.58v-120.94c0-6.63-.85-12.25-2.55-16.84-.85-2.21-1.96-4.34-3.32-6.38-1.36-2.04-3.49-4.93-6.38-8.68h83.43c46.95,0,70.42,15.05,70.42,45.16,0,21.6-12.93,36.15-38.78,43.63l14.29,22.45,8.93,12.25,21.69,28.58c5.1,5.96,9.99,11.19,14.67,15.69,4.68,4.51,11.1,9.91,19.27,16.2h-51.03c-4.59,0-8.8-1.1-12.63-3.32-3.83-2.22-8.04-6.14-12.63-11.76-8.51-10.39-17.27-22.41-26.28-36.04-5.79-9.37-10.33-17.16-13.65-23.38-3.32-6.22-7.36-14.61-12.12-25.18,6.29-.51,11.44-1.32,15.44-2.42,4-1.11,7.53-2.68,10.59-4.73,10.54-6.98,15.82-15.42,15.82-25.3,0-16.35-11.38-24.53-34.12-24.53h-4.36c-1.54,0-3.93.25-7.18.77v124.72c0,6.82,1,12.27,3.01,16.36,2.01,4.09,6.02,9.03,12.04,14.82h-80.63Z" style="fill: #1f3a6e;"/>
  </g>
  <g>
    <path d="M102.14,379.21c-1.7,0-3.05-.46-4.06-1.39-1.01-.93-1.51-2.06-1.51-3.39,0-1.14.32-2.01.97-2.6.65-.59,1.38-.88,2.18-.88s1.53.29,2.09.86c.56.57.83,1.26.83,2.06,0,.65-.14,1.18-.42,1.6-.28.42-.42.84-.42,1.28,0,.31.11.54.32.7.22.15.48.23.79.23.56,0,1.07-.26,1.55-.79.48-.53.87-1.46,1.16-2.81s.44-3.24.44-5.68v-29.18h6.22v29.18c0,1.46-.28,2.83-.83,4.13-.56,1.3-1.32,2.45-2.27,3.46-.96,1-2.05,1.79-3.27,2.37-1.22.57-2.48.86-3.78.86ZM100.05,340.38v-1.16h16.42v1.16h-16.42Z" style="fill: #1f3a6e;"/>
    <path d="M157.96,348.73c-.03-1.51-.34-2.9-.93-4.15s-1.42-2.27-2.48-3.04c-1.07-.77-2.37-1.16-3.92-1.16h-18.93v-1.16h27.88v9.51h-1.62ZM131.7,374.2v-1.16h20.32c1.55,0,2.85-.45,3.92-1.34,1.07-.9,1.89-2.09,2.48-3.57.59-1.48.9-3.09.93-4.82h1.62v10.9h-29.28ZM137.17,373.5v-33.82h6.22v33.82h-6.22ZM150.58,364.18c-.03-1.73-.26-3.09-.7-4.08-.43-.99-1.17-1.69-2.2-2.11-1.04-.42-2.51-.63-4.43-.63v-1.16c1.92,0,3.41-.19,4.48-.56,1.07-.37,1.81-1.02,2.23-1.95.42-.93.63-2.23.63-3.9h1.62v14.38h-1.62Z" style="fill: #1f3a6e;"/>
    <path d="M188.2,374.76l-11.74-34.38h-3.53v-1.16h32.43v1.16h-2.64l-3.85,10.67,4.78,14.24h.19l8.68-24.91h-4.78v-1.16h9.65v1.16h-3.34l-11.92,34.38h-1.39l-5.47-16.01-5.66,16.01h-1.39ZM191.22,365.29h.19l3.11-8.77-5.52-16.14h-6.31l8.54,24.91ZM198.13,348.92l2.97-8.54h-5.89l2.92,8.54Z" style="fill: #1f3a6e;"/>
    <path d="M228.89,340.38v-1.16h16.42v1.16h-16.42ZM228.89,374.2v-1.16h16.42v1.16h-16.42ZM234,373.5v-34.29h6.22v34.29h-6.22Z" style="fill: #1f3a6e;"/>
    <path d="M271.06,374.76c-1.67,0-3.1-.23-4.29-.7-1.19-.46-2.36-1.14-3.5-2.04l-1.67,2.18h-1.16v-9.74h1.21c.37,1.49.94,2.9,1.72,4.25.77,1.35,1.82,2.45,3.13,3.32,1.31.87,2.96,1.3,4.94,1.3,1.76,0,3.22-.33,4.38-1s2.03-1.52,2.6-2.55.86-2.11.86-3.22c0-.99-.21-1.86-.63-2.6s-1.03-1.38-1.83-1.93c-.8-.54-1.75-1.01-2.83-1.42-1.08-.4-2.3-.76-3.67-1.07-2.23-.53-4.04-1.27-5.45-2.23-1.41-.96-2.45-2.13-3.13-3.5-.68-1.38-1.02-2.98-1.02-4.8,0-2.26.49-4.15,1.48-5.68.99-1.53,2.29-2.69,3.9-3.48,1.61-.79,3.32-1.18,5.15-1.18,1.48,0,2.78.21,3.88.63,1.1.42,2.22,1.08,3.36,1.97l1.21-2.04h1.16v9.46l-1.16.05c-.74-2.94-1.84-5.12-3.29-6.54-1.46-1.42-3.23-2.13-5.34-2.13-1.27,0-2.45.26-3.55.79s-1.97,1.23-2.62,2.11c-.65.88-.97,1.9-.97,3.04,0,.96.2,1.76.6,2.39.4.63.97,1.17,1.72,1.6.74.43,1.62.8,2.62,1.11,1,.31,2.11.63,3.32.97,2.23.59,4.08,1.35,5.57,2.3,1.48.94,2.61,2.15,3.36,3.62.76,1.47,1.14,3.29,1.14,5.45,0,3.5-.97,6.26-2.9,8.28-1.93,2.03-4.69,3.04-8.28,3.04Z" style="fill: #1f3a6e;"/>
    <path d="M297.23,374.2v-1.16h5.1v-32.66h-5.1v-1.16h16.42v1.16h-5.1v15.26h13.36v-15.26h-5.1v-1.16h16.42v1.16h-5.1v32.66h5.1v1.16h-16.42v-1.16h5.1v-16.24h-13.36v16.24h5.1v1.16h-16.42Z" style="fill: #1f3a6e;"/>
    <path d="M385.71,374.76c-2.26,0-4.37-.49-6.33-1.46-1.96-.97-3.67-2.3-5.13-3.99-1.46-1.69-2.59-3.61-3.41-5.78-.82-2.16-1.23-4.44-1.23-6.82s.42-4.65,1.25-6.82c.83-2.17,1.99-4.09,3.46-5.78,1.47-1.69,3.19-3.02,5.17-3.99,1.98-.97,4.1-1.46,6.36-1.46,1.45,0,2.82.23,4.11.7,1.28.46,2.51,1.19,3.69,2.18l1.81-2.32h1.16v10.49h-1.16c-.34-1.73-.88-3.33-1.62-4.8s-1.76-2.64-3.04-3.53-2.95-1.32-4.99-1.32c-1.33,0-2.53.24-3.59.72-1.07.48-1.99,1.33-2.76,2.55-.77,1.22-1.37,2.92-1.79,5.08-.42,2.17-.63,4.93-.63,8.3s.2,6.14.6,8.3c.4,2.17.98,3.86,1.74,5.08.76,1.22,1.67,2.07,2.74,2.55,1.07.48,2.27.72,3.6.72,2.13,0,3.88-.4,5.24-1.21s2.43-1.89,3.2-3.25c.77-1.36,1.35-2.88,1.72-4.55h1.16v9.84h-1.16l-1.58-2.13c-1.24.93-2.6,1.61-4.08,2.04s-2.98.65-4.5.65Z" style="fill: #1f3a6e;"/>
    <path d="M412.01,340.38v-1.16h17.3v1.16h-17.3ZM412.01,374.2v-1.16h19.62c1.54,0,2.85-.45,3.92-1.34,1.07-.9,1.89-2.09,2.48-3.57.59-1.48.9-3.09.93-4.82h1.62v10.9h-28.58ZM417.49,373.5v-34.29h6.22v34.29h-6.22Z" style="fill: #1f3a6e;"/>
    <path d="M455.11,374.2v-1.16h11.13v1.16h-11.13ZM459.1,373.5l12.11-34.84h1.39l-2.83,7.98-9.14,26.86h-1.53ZM464.16,363.25v-1.16h15.03v1.16h-15.03ZM478.03,373.5l-8.54-25.52h-.19l-.32-1.35,2.23-7.98h1.39l11.64,34.84h-6.22ZM472.46,374.2v-1.16h15.91v1.16h-15.91Z" style="fill: #1f3a6e;"/>
    <path d="M512.87,374.76c-1.67,0-3.1-.23-4.29-.7-1.19-.46-2.36-1.14-3.5-2.04l-1.67,2.18h-1.16v-9.74h1.21c.37,1.49.94,2.9,1.72,4.25.77,1.35,1.82,2.45,3.13,3.32,1.31.87,2.96,1.3,4.94,1.3,1.76,0,3.22-.33,4.38-1s2.03-1.52,2.6-2.55.86-2.11.86-3.22c0-.99-.21-1.86-.63-2.6s-1.03-1.38-1.83-1.93c-.8-.54-1.75-1.01-2.83-1.42-1.08-.4-2.3-.76-3.67-1.07-2.23-.53-4.04-1.27-5.45-2.23-1.41-.96-2.45-2.13-3.13-3.5-.68-1.38-1.02-2.98-1.02-4.8,0-2.26.49-4.15,1.48-5.68.99-1.53,2.29-2.69,3.9-3.48,1.61-.79,3.33-1.18,5.15-1.18,1.48,0,2.78.21,3.88.63,1.1.42,2.22,1.08,3.36,1.97l1.21-2.04h1.16v9.46l-1.16.05c-.74-2.94-1.84-5.12-3.29-6.54-1.46-1.42-3.23-2.13-5.34-2.13-1.27,0-2.45.26-3.55.79s-1.97,1.23-2.62,2.11c-.65.88-.97,1.9-.97,3.04,0,.96.2,1.76.6,2.39.4.63.97,1.17,1.72,1.6.74.43,1.62.8,2.62,1.11,1,.31,2.11.63,3.32.97,2.23.59,4.08,1.35,5.57,2.3,1.48.94,2.61,2.15,3.36,3.62.76,1.47,1.14,3.29,1.14,5.45,0,3.5-.97,6.26-2.9,8.28-1.93,2.03-4.69,3.04-8.28,3.04Z" style="fill: #1f3a6e;"/>
    <path d="M551.94,374.76c-1.67,0-3.1-.23-4.29-.7-1.19-.46-2.36-1.14-3.5-2.04l-1.67,2.18h-1.16v-9.74h1.21c.37,1.49.94,2.9,1.71,4.25.77,1.35,1.82,2.45,3.13,3.32,1.31.87,2.96,1.3,4.94,1.3,1.76,0,3.22-.33,4.38-1,1.16-.67,2.03-1.52,2.6-2.55.57-1.04.86-2.11.86-3.22,0-.99-.21-1.86-.63-2.6-.42-.74-1.03-1.38-1.83-1.93-.8-.54-1.75-1.01-2.83-1.42-1.08-.4-2.3-.76-3.66-1.07-2.23-.53-4.04-1.27-5.45-2.23-1.41-.96-2.45-2.13-3.13-3.5-.68-1.38-1.02-2.98-1.02-4.8,0-2.26.5-4.15,1.49-5.68.99-1.53,2.29-2.69,3.9-3.48,1.61-.79,3.32-1.18,5.15-1.18,1.48,0,2.78.21,3.87.63,1.1.42,2.22,1.08,3.36,1.97l1.21-2.04h1.16v9.46l-1.16.05c-.74-2.94-1.84-5.12-3.29-6.54-1.45-1.42-3.23-2.13-5.33-2.13-1.27,0-2.45.26-3.55.79s-1.97,1.23-2.62,2.11c-.65.88-.97,1.9-.97,3.04,0,.96.2,1.76.6,2.39s.97,1.17,1.72,1.6c.74.43,1.62.8,2.62,1.11,1.01.31,2.11.63,3.32.97,2.23.59,4.08,1.35,5.57,2.3,1.48.94,2.61,2.15,3.36,3.62.76,1.47,1.14,3.29,1.14,5.45,0,3.5-.97,6.26-2.9,8.28-1.93,2.03-4.69,3.04-8.28,3.04Z" style="fill: #1f3a6e;"/>
    <path d="M578.1,340.38v-1.16h16.42v1.16h-16.42ZM578.1,374.2v-1.16h16.42v1.16h-16.42ZM583.2,373.5v-34.29h6.22v34.29h-6.22Z" style="fill: #1f3a6e;"/>
    <path d="M625.38,374.76c-2.26,0-4.37-.49-6.33-1.46-1.96-.97-3.67-2.3-5.13-3.99-1.46-1.69-2.59-3.61-3.41-5.78-.82-2.16-1.23-4.44-1.23-6.82s.42-4.65,1.25-6.82c.83-2.17,1.99-4.09,3.46-5.78,1.47-1.69,3.19-3.02,5.17-3.99,1.98-.97,4.1-1.46,6.36-1.46,1.46,0,2.82.23,4.11.7,1.28.46,2.51,1.19,3.69,2.18l1.81-2.32h1.16v10.49h-1.16c-.34-1.73-.88-3.33-1.62-4.8s-1.76-2.64-3.04-3.53-2.95-1.32-4.99-1.32c-1.33,0-2.53.24-3.6.72-1.07.48-1.99,1.33-2.76,2.55-.77,1.22-1.37,2.92-1.79,5.08-.42,2.17-.63,4.93-.63,8.3s.2,6.14.6,8.3c.4,2.17.98,3.86,1.74,5.08.76,1.22,1.67,2.07,2.74,2.55,1.07.48,2.27.72,3.6.72,2.13,0,3.88-.4,5.24-1.21s2.43-1.89,3.2-3.25c.77-1.36,1.35-2.88,1.72-4.55h1.16v9.84h-1.16l-1.58-2.13c-1.24.93-2.6,1.61-4.08,2.04s-2.98.65-4.5.65Z" style="fill: #1f3a6e;"/>
    <path d="M651.64,374.2v-1.16h11.13v1.16h-11.13ZM655.63,373.5l12.11-34.84h1.39l-2.83,7.98-9.14,26.86h-1.53ZM660.68,363.25v-1.16h15.03v1.16h-15.03ZM674.55,373.5l-8.54-25.52h-.19l-.32-1.35,2.23-7.98h1.39l11.64,34.84h-6.22ZM668.99,374.2v-1.16h15.91v1.16h-15.91Z" style="fill: #1f3a6e;"/>
    <path d="M696.87,340.38v-1.16h17.3v1.16h-17.3ZM696.87,374.2v-1.16h19.62c1.54,0,2.85-.45,3.92-1.34,1.07-.9,1.89-2.09,2.48-3.57.59-1.48.9-3.09.93-4.82h1.62v10.9h-28.58ZM702.35,373.5v-34.29h6.22v34.29h-6.22Z" style="fill: #1f3a6e;"/>
    <path d="M759.92,374.2v-1.16h11.13v1.16h-11.13ZM763.91,373.5l12.11-34.84h1.39l-2.83,7.98-9.14,26.86h-1.53ZM768.97,363.25v-1.16h15.03v1.16h-15.03ZM782.84,373.5l-8.54-25.52h-.19l-.32-1.35,2.23-7.98h1.39l11.65,34.84h-6.22ZM777.27,374.2v-1.16h15.91v1.16h-15.91Z" style="fill: #1f3a6e;"/>
    <path d="M820.37,374.76c-2.26,0-4.37-.49-6.33-1.46-1.96-.97-3.67-2.3-5.13-3.99-1.45-1.69-2.59-3.61-3.41-5.78-.82-2.16-1.23-4.44-1.23-6.82s.42-4.65,1.25-6.82c.84-2.17,1.99-4.09,3.46-5.78,1.47-1.69,3.19-3.02,5.17-3.99,1.98-.97,4.1-1.46,6.36-1.46,1.45,0,2.82.23,4.11.7s2.51,1.19,3.69,2.18l1.81-2.32h1.16v10.49h-1.16c-.34-1.73-.88-3.33-1.62-4.8-.74-1.47-1.76-2.64-3.04-3.53-1.29-.88-2.95-1.32-4.99-1.32-1.33,0-2.53.24-3.6.72-1.07.48-1.99,1.33-2.76,2.55-.77,1.22-1.37,2.92-1.79,5.08-.42,2.17-.62,4.93-.62,8.3s.2,6.14.6,8.3c.4,2.17.98,3.86,1.74,5.08s1.67,2.07,2.74,2.55c1.07.48,2.27.72,3.6.72,2.13,0,3.88-.4,5.24-1.21,1.36-.8,2.43-1.89,3.2-3.25.77-1.36,1.35-2.88,1.72-4.55h1.16v9.84h-1.16l-1.58-2.13c-1.24.93-2.6,1.61-4.08,2.04s-2.99.65-4.5.65Z" style="fill: #1f3a6e;"/>
    <path d="M846.63,374.2v-1.16h11.13v1.16h-11.13ZM850.62,373.5l12.11-34.84h1.39l-2.83,7.98-9.14,26.86h-1.53ZM855.68,363.25v-1.16h15.03v1.16h-15.03ZM869.55,373.5l-8.54-25.52h-.19l-.32-1.35,2.23-7.98h1.39l11.65,34.84h-6.22ZM863.98,374.2v-1.16h15.91v1.16h-15.91Z" style="fill: #1f3a6e;"/>
    <path d="M891.77,374.2v-1.16h15.54c1.92,0,3.54-.23,4.87-.7s2.41-1.29,3.25-2.48c.84-1.19,1.45-2.85,1.83-4.99.39-2.13.58-4.86.58-8.17s-.19-6.03-.58-8.17-1-3.8-1.86-4.99c-.85-1.19-1.94-2.02-3.27-2.48-1.33-.46-2.96-.7-4.87-.7h-15.49v-1.16h16.98c2.32,0,4.48.47,6.47,1.42,2,.94,3.75,2.23,5.27,3.87s2.69,3.51,3.53,5.61c.83,2.1,1.25,4.3,1.25,6.59s-.43,4.49-1.28,6.59c-.85,2.1-2.03,3.97-3.53,5.61-1.5,1.64-3.25,2.93-5.27,3.87-2.01.94-4.18,1.42-6.49,1.42h-16.93ZM896.87,373.5v-34.29h6.22v34.29h-6.22Z" style="fill: #1f3a6e;"/>
    <path d="M966,348.73c-.03-1.51-.34-2.9-.93-4.15s-1.42-2.27-2.48-3.04c-1.07-.77-2.37-1.16-3.92-1.16h-18.93v-1.16h27.88v9.51h-1.62ZM939.74,374.2v-1.16h20.32c1.54,0,2.85-.45,3.92-1.34,1.07-.9,1.89-2.09,2.48-3.57.59-1.48.9-3.09.93-4.82h1.62v10.9h-29.28ZM945.22,373.5v-33.82h6.22v33.82h-6.22ZM958.63,364.18c-.03-1.73-.26-3.09-.7-4.08-.43-.99-1.17-1.69-2.2-2.11-1.04-.42-2.51-.63-4.43-.63v-1.16c1.92,0,3.41-.19,4.48-.56,1.07-.37,1.81-1.02,2.23-1.95.42-.93.62-2.23.62-3.9h1.62v14.38h-1.62Z" style="fill: #1f3a6e;"/>
    <path d="M1001.08,374.62l-9.93-31.27h-.19v29.69h5.1v1.16h-12.02v-1.16h5.1v-32.66h-5.1v-1.16h12.57l7.38,24.5h.19l7.56-24.5h12.2v1.16h-5.1v32.66h5.1v1.16h-16.42v-1.16h5.1v-29.69h-.19l-9.7,31.27h-1.67Z" style="fill: #1f3a6e;"/>
    <path d="M1043.58,374.2v-1.16h5.57v-14.75l-10.39-17.91h-4.13v-1.16h16.1v1.16h-5.01l8.77,15.17h.19l8.3-15.17h-6.31v-1.16h12.29v1.16h-4.45l-9.14,17.03v15.63h5.57v1.16h-17.35Z" style="fill: #1f3a6e;"/>
  </g>
</svg>