<?xml version="1.0" encoding="UTF-8"?>
<svg id="Layer_1" xmlns="http://www.w3.org/2000/svg" version="1.1" viewBox="0 0 1080 1080">
  <!-- Generator: Adobe Illustrator 29.5.1, SVG Export Plug-In . SVG Version: 2.1.0 Build 141)  -->
  <defs>
    <style>
      .st0 {
        fill: #163478;
      }
    </style>
  </defs>
  <path class="st0" d="M527.06,992.13l5.51-16.95,3.72-11.44,3.72,11.44,5.51,16.95,1.21,3.73h197.28V392.52h-408v603.34h189.85l1.21-3.73ZM339.73,992.13V396.25h400.54v595.88h-190.84l-5.51-16.95h178.87V413.21h-.06l-13.69,13.47v535.28h-169.42l-1.21-3.73h166.9V430.16h-330.62v528.07h159.47l-1.21,3.73h-161.98v-.24l-13.69,13.47h171.38l-5.51,16.95h-183.41ZM378.42,433.89h323.17v520.61h-323.17V433.89Z"/>
  <path class="st0" d="M730.36,377.61h-409.28v633.17h187.59l13.14,9.55-7.08,21.78-1.86,5.74,4.88-3.55,18.52-13.46,18.52,13.46,4.88,3.55-1.86-5.74-7.07-21.78,13.14-9.55h195.02V377.61h-28.55ZM524.34,1017.55l-9.57-6.95,6.75,2.19,8.73,2.84h0l-5.92,1.92h0ZM534.42,1027.58l-9.57,6.95,5.61-7.72,3.96-5.45v6.22ZM534.42,1009.89h0s-3.66-5.03-3.66-5.03l3.66-11.25v16.28ZM545.12,1024.62l-3.96-5.45,5.91,1.92,3.66,11.25-5.61-7.72ZM552.13,1008.52l-10.97,3.56.68-.94,2.97-4.09h11.83l-4.51,1.47ZM751.46,1003.32h-206.23l-2.42-7.46-1.21-3.73-3.44-10.59-1.86-5.74-1.86,5.74-7.08,21.78h-198.8V385.07h422.91v618.25Z"/>
  <polygon class="st0" points="524.85 1034.53 524.85 1034.53 534.42 1027.58 534.42 1021.37 530.46 1026.81 524.85 1034.53"/>
  <polygon class="st0" points="530.25 1015.63 521.51 1012.79 514.77 1010.6 524.34 1017.55 530.25 1015.63 530.25 1015.63"/>
  <polygon class="st0" points="534.42 1009.89 534.42 1009.89 534.42 993.61 530.76 1004.86 534.42 1009.89"/>
  <polygon class="st0" points="541.85 1011.14 541.16 1012.08 552.13 1008.52 556.65 1007.05 544.82 1007.05 541.85 1011.14"/>
  <polygon class="st0" points="541.16 1019.17 541.16 1019.17 545.12 1024.62 550.73 1032.34 547.08 1021.09 541.16 1019.17"/>
  <path class="st0" d="M517.04,535.15c0-2.06,1.67-3.73,3.73-3.73h27.76c4.12,0,7.46-3.34,7.46-7.46v-41.18c0-2.06,1.67-3.73,3.73-3.73h11.12c.83,0,1.25-1,.66-1.59l-10.01-10.01h-42.9l-13.15,13.15v56.32l10.01,10.01c.59.59,1.59.17,1.59-.66v-11.12Z"/>
  <path class="st0" d="M610.43,535.15c0-2.06,1.67-3.73,3.73-3.73h27.76c4.12,0,7.46-3.34,7.46-7.46v-41.18c0-2.06,1.67-3.73,3.73-3.73h11.12c.83,0,1.25-1,.66-1.59l-10.01-10.01h-42.9l-13.15,13.15v56.32l10.01,10.01c.59.59,1.59.17,1.59-.66v-11.12Z"/>
  <path class="st0" d="M610.43,906.03c0-2.06,1.67-3.73,3.73-3.73h27.76c4.12,0,7.46-3.34,7.46-7.46v-41.18c0-2.06,1.67-3.73,3.73-3.73h11.12c.83,0,1.25-1,.66-1.59l-10.01-10.01h-42.9l-13.15,13.15v56.32l10.01,10.01c.59.59,1.59.17,1.59-.66v-11.12Z"/>
  <path class="st0" d="M610.43,658.77c0-2.06,1.67-3.73,3.73-3.73h27.76c4.12,0,7.46-3.34,7.46-7.46v-41.18c0-2.06,1.67-3.73,3.73-3.73h11.12c.83,0,1.25-1,.66-1.59l-10.01-10.01h-42.9l-13.15,13.15v56.32l10.01,10.01c.59.59,1.59.17,1.59-.66v-11.12Z"/>
  <path class="st0" d="M517.04,658.77c0-2.06,1.67-3.73,3.73-3.73h27.76c4.12,0,7.46-3.34,7.46-7.46v-41.18c0-2.06,1.67-3.73,3.73-3.73h11.12c.83,0,1.25-1,.66-1.59l-10.01-10.01h-42.9l-13.15,13.15v56.32l10.01,10.01c.59.59,1.59.17,1.59-.66v-11.12Z"/>
  <path class="st0" d="M610.43,782.4c0-2.06,1.67-3.73,3.73-3.73h27.76c4.12,0,7.46-3.34,7.46-7.46v-41.18c0-2.06,1.67-3.73,3.73-3.73h11.12c.83,0,1.25-1,.66-1.59l-10.01-10.01h-42.9l-13.15,13.15v56.32l10.01,10.01c.59.59,1.59.17,1.59-.66v-11.12Z"/>
  <path class="st0" d="M423.58,906.03c0-2.06,1.67-3.73,3.73-3.73h27.76c4.12,0,7.46-3.34,7.46-7.46v-41.18c0-2.06,1.67-3.73,3.73-3.73h11.12c.83,0,1.25-1,.66-1.59l-10.01-10.01h-42.9l-13.15,13.15v56.32l10.01,10.01c.59.59,1.59.17,1.59-.66v-11.12Z"/>
  <path class="st0" d="M423.58,658.77c0-2.06,1.67-3.73,3.73-3.73h27.76c4.12,0,7.46-3.34,7.46-7.46v-41.18c0-2.06,1.67-3.73,3.73-3.73h11.12c.83,0,1.25-1,.66-1.59l-10.01-10.01h-42.9l-13.15,13.15v56.32l10.01,10.01c.59.59,1.59.17,1.59-.66v-11.12Z"/>
  <path class="st0" d="M423.58,535.15c0-2.06,1.67-3.73,3.73-3.73h27.76c4.12,0,7.46-3.34,7.46-7.46v-41.18c0-2.06,1.67-3.73,3.73-3.73h11.12c.83,0,1.25-1,.66-1.59l-10.01-10.01h-42.9l-13.15,13.15v56.32l10.01,10.01c.59.59,1.59.17,1.59-.66v-11.12Z"/>
  <path class="st0" d="M385.87,947.04h308.25v-505.69h-308.25v505.69ZM595.1,479.05l15.33-15.33h45.99l15.33,15.33v59.41l-15.33,15.33h-45.99l-15.33-15.33v-59.41ZM595.1,602.68l15.33-15.33h45.99l15.33,15.33v59.41l-15.33,15.33h-45.99l-15.33-15.33v-59.41ZM595.1,726.3l15.33-15.33h45.99l15.33,15.33v59.41l-15.33,15.33h-45.99l-15.33-15.33v-59.41ZM595.1,849.93l15.33-15.33h45.99l15.33,15.33v59.41l-15.33,15.33h-45.99l-15.33-15.33v-59.41ZM501.71,479.05l15.33-15.33h45.99l15.33,15.33v59.41l-15.33,15.33h-45.99l-15.33-15.33v-59.41ZM501.71,602.68l15.33-15.33h45.99l15.33,15.33v59.41l-15.33,15.33h-45.99l-15.33-15.33v-59.41ZM501.71,726.3l15.33-15.33h45.99l15.33,15.33v59.41l-15.33,15.33h-45.99l-15.33-15.33v-59.41ZM501.71,849.93l15.33-15.33h45.99l15.33,15.33v59.41l-15.33,15.33h-45.99l-15.33-15.33v-59.41ZM408.25,479.05l15.33-15.33h45.99l15.33,15.33v59.41l-15.33,15.33h-45.99l-15.33-15.33v-59.41ZM408.25,602.68l15.33-15.33h45.99l15.33,15.33v59.41l-15.33,15.33h-45.99l-15.33-15.33v-59.41ZM408.25,726.3l15.33-15.33h45.99l15.33,15.33v59.41l-15.33,15.33h-45.99l-15.33-15.33v-59.41ZM408.25,849.93l15.33-15.33h45.99l15.33,15.33v59.41l-15.33,15.33h-45.99l-15.33-15.33v-59.41Z"/>
  <path class="st0" d="M423.58,782.4c0-2.06,1.67-3.73,3.73-3.73h27.76c4.12,0,7.46-3.34,7.46-7.46v-41.18c0-2.06,1.67-3.73,3.73-3.73h11.12c.83,0,1.25-1,.66-1.59l-10.01-10.01h-42.9l-13.15,13.15v56.32l10.01,10.01c.59.59,1.59.17,1.59-.66v-11.12Z"/>
  <path class="st0" d="M517.04,906.03c0-2.06,1.67-3.73,3.73-3.73h27.76c4.12,0,7.46-3.34,7.46-7.46v-41.18c0-2.06,1.67-3.73,3.73-3.73h11.12c.83,0,1.25-1,.66-1.59l-10.01-10.01h-42.9l-13.15,13.15v56.32l10.01,10.01c.59.59,1.59.17,1.59-.66v-11.12Z"/>
  <path class="st0" d="M517.04,782.4c0-2.06,1.67-3.73,3.73-3.73h27.76c4.12,0,7.46-3.34,7.46-7.46v-41.18c0-2.06,1.67-3.73,3.73-3.73h11.12c.83,0,1.25-1,.66-1.59l-10.01-10.01h-42.9l-13.15,13.15v56.32l10.01,10.01c.59.59,1.59.17,1.59-.66v-11.12Z"/>
  <polygon class="st0" points="343.83 399.98 343.46 399.98 343.46 988.41 343.83 988.41 357.27 975.18 357.21 975.18 357.21 413.21 357.27 413.21 722.73 413.21 736.17 399.98 343.83 399.98"/>
  <path class="st0" d="M619.07,49.54c1-.79,1.88-1.4,3.07-1.87.31-.51.49-1.02.6-1.54.33-1.48.88-2.74,1.6-4.21-2.09.86-3.75,2.15-5.43,3.57.22,1.36.23,2.57.16,4.05"/>
  <path class="st0" d="M529.49,41.19l2.85,2.28c.28-2.56,1.83-3.33.28-4.78-1.42-1.62-3.08-2.89-5.04-4.01l1,4.87c.13.66.36,1.23.91,1.63"/>
  <path class="st0" d="M545.59,42.07c.61-.51,1.47-1.04,1.9-1.74l1.04-5.61c-1.92,1-3.27,2.41-4.65,3.92-.42.46-.83.91-.98,1.54.62,1.01.87,2.04,1.18,3.15l1.51-1.26Z"/>
  <path class="st0" d="M608.63,47.15c.69-1.06,1.14-1.76,1.98-2.33.4-.33.48-.8.37-1.32-.56-2.1-1.27-4.08-2.3-6.16l-1.55,4.63c-.17.44-.27.9-.15,1.36l1.65,3.82Z"/>
  <path class="st0" d="M451.9,49.32c.59,1.19,2.56,1.23,4.3,2.24-.33-1.42-.34-2.65-.43-4-1.93-1.17-3.9-1.99-6.15-2.66l.86,1.54,1.42,2.87Z"/>
  <path class="st0" d="M467.04,47.27c.4-1.5,1.1-2.46,1.68-3.66.2-.47-.16-1.26-.32-1.73l-1.27-3.89c-.99,1.57-2.84,6.3-2.34,6.84l2.24,2.44Z"/>
  <path class="st0" d="M662.78,74.54c2.09-1.83,4.53-3.04,7.42-3.58-.52-.78-1.66-.8-2.54-1.14l-.28-.04c-4.9-.91-7.03,1.12-7.16,1.03-.13-.09-.09-.28-.06-.45l.43-2.13c.41-2.09.6-4.06.5-6.23-.02-.21-.04-.39-.24-.3l-.48.24c-3.06,1.44-5.82,3.23-8.45,5.28-.21-.17-.15-.32-.15-.41l.02-.34-.02-.32-.02-.26-.32-2.37-.07-.24c-.58-1.83-1.17-3.58-2.55-4.9-1.12-1.06-2.5-2.09-2.27-1.36.86,2.76.84,5.63.21,8.46-.43,1.92-1.01,3.77-2.18,5.31-1.01,1.34-2.48,2.24-4.18,2.24l-2.63-.26c-2.09-.22-4.12-.28-6.21.19-.19.04-.3.13-.22.28l.17.41c2.68,6.34,1.86,14.91-.52,21.36-1.79,4.87-4.79,9.06-8.37,12.77-1.98,2.05-4.19,3.6-6.66,5-.3.17-.21.41-.04.63l2.95,4.05c1.17,1.6,1.6,3.39,1.21,5.33-.35,1.85-.82,3.62-1.75,5.24l-4.23,6.47s-.02.04-.04.06l-.07.09h.02c-.48.76-.82,1.64-1.01,2.57-.48,2.55.56,5.2,1.66,4.66.58-.28,2.16-1.85,2.31-.63.52,4.34-2.63,8.24-6.99,8.74-.8.07-1.53.15-2.35.06-5.89-.62-8.33-8.97-6.54-11.84l.11-.21.13-.19.21-.37c.13-.21.45-.15.47.02l.09.62c.56,2.33,3.11,3.41,5.24,2.37,1.86-.89,3.13-2.5,3.75-4.49.97-3.13.06-6.58-2.52-8.61-1.51-1.19-3.43-1.49-5.24-.93-.26.09-.52.32-.58.06-.04-.09.15-.3.19-.39l.11-.24.09-.22.11-.22c.63-1.47,1.04-2.96.99-4.59l-.06-.28c-.24-1.47-.88-2.65-2.16-3.37l-.19-.15-.21-.09c-1.9-.95-3.86-1.21-6-1.03l-.28.02-.91.21c-1.21.28.82-1.6,4.08-1.66l6.56-.11c5.41-.45,10.35-2.59,14.36-6.21l1.99-1.99,1.58-1.77c5.72-7.61,8.8-16.98,7.12-26.49-.45-2.46-1.36-4.72-2.52-6.88-.84-1.62-2.01-2.93-3.21-4.29l-3.43-3.88c-1.51-2.22-.62-5.22.75-7.53,2.07-3.54,4.98-6.25,8.87-8.37-2.52-.71-5.28-.02-7.7,1.06l-.22.13-.21.13c-1.77.95-3.32,2.26-4.59,3.86l-.19.21s-.11.17-.17.15c-.09-.04-.02-.32-.02-.41l.32-1.81c.37-2.22.28-4.46,0-6.69l-.45-3.6-.07-.3c-.02-.09-.13-.07-.19.04l-3.23,3c-2.46,2.27-4.74,4.62-6.28,7.59-.15-1.83-.22-3.47-.84-5.15-.73-1.99-1.86-3.84-3.37-5.37-1.1-1.14-2.57-1.73-3.99-2.18-.04,0-.07-.02-.09-.04-.13-.13-.28.06-.13.15.04.02.06.06.02.09,3.41,4.08,3.65,8.63,2.59,13.81-.56,2.76-3.3,3.93-6.06,4.14-5.52.43-10.09,2.05-14.28,5.67-4.47,3.84-7.44,8.99-9.08,14.63-2.5,8.71-1.72,17.99,3.54,25.45,1.85,2.61,4.12,4.66,6.53,6.69,2.44,2.09,3.69,5.15,2.91,8.24l-1.42,5.59c-4.34-1.85-8.99-.06-11.04,3.93-1.58,3.11-1.04,6.67,1.85,8.84l1.32-1.86c.52-.73,1.75-1.34,2.54-.67,1.38,1.17,1.57,3.23,1.03,4.87-.54,1.7-1.55,3.02-2.83,4.21-2.27,2.14-5.11,3.28-8.26,3.69-5.56.71-11.13-.84-15.21-4.66-2.18-2.05-3.32-4.79-3.43-7.76-.02-.63.11-1.31.48-1.77.22-.3.62-.02.78.19,2.89,3.52,7.9,3.56,11.2.62,3-2.7,3.91-7.01,2.52-10.79-1.51-4.1-5.69-7.1-9.97-7.27-3.69-.15-7.1,1.21-9.94,3.58-1.23,1.01-2.01,2.26-3.02,3.62.02-3.52.89-8,3.95-9.38l3.95-1.79c2.72-1.21,5.41-2.35,7.79-4.14,4.31-3.23,7.29-7.61,9-12.7,1.66-4.96,2.26-10.09,1.79-15.31-.5-5.65-2.44-10.94-6.11-15.27-2.65-3.13-6.06-5.28-9.75-6.95-2.31-1.06-4.27-2.48-4.08-5.16.3-4.08,2.98-7.87,5.87-10.66l1.7-1.66c-2.85.02-5.35,1.1-7.64,2.7-2.27,1.6-3.86,3.62-5.02,6.26-.35-2.44-.82-4.49-1.66-6.64-1.1-2.72-2.27-5.31-3.73-7.92l-1.88,3.8c-1.01,2.07-1.92,4.12-2.63,6.32l-.89,4.38c-2.16-5.01-7.18-8.11-12.06-9.55-.04-.02-.07-.04-.09-.04-.13-.17-.34.04-.13.17,0,0,.02.02.02.04l4.03,5.52c1.83,2.52,4.05,6.8,2.72,9.47-.65,1.34-1.92,2.2-3.24,2.81-7.1,3.3-12.32,7.66-14.84,15.27-1.21,3.65-1.64,7.4-1.42,11.26.41,7.05,2.22,13.91,6.58,19.46.84,1.06,1.73,1.85,2.7,2.74,2.03,1.9,4.33,3.3,6.86,4.46l5.69,2.57c1.96.89,3.34,2.37,4.08,4.4.63,1.75,1.03,3.62.86,5.59-.88-1.45-1.55-2.59-2.74-3.6-2.31-1.92-5.16-3.15-8.2-3.52-3.37-.41-6.66.73-9.19,2.95-3.09,2.68-4.16,6.77-3.02,10.66.84,2.91,2.85,5.09,5.72,6.08,2.93.99,6,.17,8.07-2.14.26-.28.56-.54,1.03-.56.69,1.53.65,3.11.3,4.75-.56,2.61-1.98,4.81-4.08,6.43-1.32,1.03-2.67,1.9-4.31,2.41-6.43,2.01-14.11,1.27-19.2-3.37-1.88-1.7-3.47-4.36-2.14-6.49.3-.5.67-.75,1.14-.76.52-.02.95.17,1.27.63l.95,1.42c.22.34.69.52,1.08.22,1.53-1.25,2.8-2.98,3.04-5.03.37-3.09-1.04-6.1-3.52-7.87-2.18-1.58-4.79-2.05-7.4-1.06-.95-2.55-1.77-5.05-2.13-7.72-.37-2.7.62-5.07,2.63-6.88l3.93-3.52c1.42-1.51,2.61-2.98,3.69-4.79,3.06-5.09,4.31-11,3.64-16.95-.47-4.25-1.51-8.3-3.23-12.17-2.18-4.9-5.59-9.04-10.18-11.78-2.37-1.42-4.88-2.35-7.55-2.98-3.6-.86-7.21.17-9.41-1.6-.99-.78-1.53-2.03-1.62-3.34-.34-4.57.71-9,2.98-13.14-4.72,1.86-7.64,6.73-8.13,11.58-.07.6-.04,1.14-.32,1.79-1.92-4.18-6.02-7.61-9.86-10.57-1.29,4.77-1.19,9.56.09,14.39-3.93-4.05-9.9-5.59-15.29-3.36,3.56,1.04,6.77,2.67,9.41,5.15,2.13,1.98,3.9,4.7,2.29,7.18-.56.86-1.19,1.6-1.92,2.39-3.09,3.19-5.29,6.97-6.25,11.41-2.37,11,2.29,23.1,10.66,30.48,1.29,1.12,2.55,2.11,4.05,2.96,5.07,2.87,10.81,3.95,16.61,3.15,1.99-.28,3.8.21,5.07,1.79.26.32.71.54.65,1.17-2.5-1.4-5.97-.97-8.45.35-3.52,1.9-3.26,6.54-1.14,10.14-2.14-.65-4.05-.43-5.63.95-3.17,2.78-3.65,7.07-1.08,10.66,1.3,1.86,3.65,2.87,5.84,2.05,2.07-.78,2.11-3.64,2.27-3.71.95-.5,3.36,4.85.24,9.86-1.32,2.14-3.43,3.26-5.89,3.39-2.18.13-4.14-.37-5.93-1.62-2.29-1.62-3.93-4.12-4.05-6.99-.02-.37.11-.8.3-.99.78-.67,1.81.62,2.67,1.27.75.07,1.06-1.04,1.19-1.62.48-2.07.09-4.06-1.03-5.72,0,0-3.97-6.47-4.23-6.9-1.1-1.85-1.75-3.99-2.03-6.1-.26-1.86.17-3.58,1.25-5.03l2.41-3.21c.21-.02.62-.86.35-1.01-8.2-4.75-14.08-12.55-16.37-21.76-1.51-6.1-1.38-12.12,1.16-17.92-2.13-.43-4.08-.5-6.13-.21l-4.29.62c-2.13.3-3.97-.86-4.87-2.76-.41-.86-.82-1.68-1.03-2.63-.45-2.01-1.06-3.9-1.6-5.87-.48-1.75-.24-3.47-.02-5.39-2.13,1.73-3.32,4.31-3.64,7.03.06.37-.32.22-.28-.07-1.21-1.57-2.16-3.11-3.26-4.87-.63,2.39-.69,4.66-.54,7.2-2.41-1.36-4.72-2.26-7.31-3.13-.06,3.39.62,6.62,2.09,9.84-4.25-1.19-7.27-.82-10.57,1.86-.13.17.06.37.26.26,1.94.09,3.88.21,5.63,1.08l4.42,2.72c3.11,1.92,4.66,4.77,2.95,8.05-2.61,4.94-3.67,9.25-2.87,14.86,1.17,8.2,5.95,15.49,13.07,19.71,5.61,3.32,10.83,3.54,17.11,2.67,3.08-.45,6.06,1.25,6.92,4.42-1.94-1.55-3.88-2.8-6.25-2.74-3.36.09-5.16,2.89-4.49,4.1.15.26.47.43.86.52l2.48.58c2.61.6,3.78,4.62,4.27,7.33.91,5.03,2.68,9.68,5.52,13.91.99,1.47,1.66,2.96,2.27,4.6.35,1.03.78,1.99.76,3.11-1.88,1.1-3.52,2.44-4.83,4.14-1.1,1.45-1.45,3.24-1.04,5.01.58,2.54,2.33,4.46,4.68,5.52.63.28,1.23.5,1.75.95l-.02,2.68c0,.99-2.46,2.63-3.95,5.57-1.44,2.85-1.04,5.89.86,8.41l3.73,3.62c.93,1.16-.26,3.19-1.25,4.01l-3.17,2.63c-1.96,1.98-2.72,4.66-1.96,7.36,1.03,3.69,4.03,5.29,7.61,6.45l-.52,13.89c-.11,2.91.19,5.61.95,8.41-.75.43-1.42.75-1.9,1.38-1.77,2.29-1.12,5.59,1.29,7.18.09.78.13,1.47,0,2.18-3.08,1.27-4.7,4.68-3.52,7.79l-1.19,1.4c-.5.6-.11,1.38.22,2.01l-.19.24c-3.15,2.57-3.95,6.94-4.38,10.89l-1.01,9.04-.06.28-.06.26c-.48,2.29-1.17,4.49-2.46,6.45l-1.64,2.52-.09.21c-.26.5-.41.97-.13,1.21l.17.17.41.22.21.09.22.11,3.58,1.03c2.48.73,5.01,1.12,7.62,1.17l.34.02c.09,0,.19,0,.34-.04.19.06.15.26.06.35-1.29,1.1-1.68,2.46-1.49,4.1.47,4.34.95,8.59,1.98,12.83l1.49,6.15c.39,1.68,1.17,3.58,2.26,2.82,1.25-.89,3.06-9.88,3.49-12.7l1.38-8.82c.48-3.15-2.09-4.62-1.23-4.64,3.3-.09,9.23-1.03,12.01-2.29.47-.21.73-.73.48-1.21l-2.74-5.07c-1.17-2.67-1.79-5.43-2.03-8.31l-.5-6.34c-.19-2.41-.65-4.68-1.53-6.92-.56-1.4-1.38-2.59-2.55-3.52-.35-.28.91-1.7-.52-2.96-.43-.39-.62-.69-.47-1.25.86-2.95-.58-5.91-3.36-7.21l-.24-2.31c2.01-1.21,2.93-3.62,2.16-5.82-.22-.62-.65-1.32-1.14-1.7l-1.73-1.29c.86-1.88,1.23-3.8,1.16-5.89l-.48-14.75c10.68,3.09,21.72,4.08,32.83,5.18l.11,10.38c-1.03.82-1.81,1.94-1.79,3.26.04,1.36.86,2.42,1.88,3.32-.21,1.23-.6,2.74-.13,4.18-2.85,1.38-3.86,4.51-2.82,7.42.19.52-1.17.71-.88,2.63-2.11,2.37-3.1,5.97-3.49,9.12l-.43,7.36c-.24,4.31-1.38,8.31-3.8,11.86-.28.41-.43.97.04,1.25.89.54,1.86.89,2.91,1.06l7.03,1.08c.2-.04.34.07.24.22l-.28.41c-1.32,1.98-1.21,4.33-.84,6.73.76,4.98,1.79,9.81,3.06,14.65.15.58.37,1.1.78,1.49.22.21.6.15.78-.02,1.01-.99,2.44-8.76,2.93-11.5.45-2.63.97-5.13,1.03-7.79.04-1.49-.67-2.82-1.38-4.12,2.93-.15,5.69-.56,8.48-1.14,1.03-.22,1.86-.75,1.53-1.36l-1.19-2.16c-2.33-4.23-2.52-8.2-2.74-12.9l-.32-6.54c-.32-2.61-1.1-5.09-2.67-7.16-.24-.32-.6-.41-.35-.93.54-1.21-1.08-2.09-1.06-2.18l.2-.48c1.01-2.68-.07-5.46-2.54-6.86.15-1.21.3-2.31-.17-3.36-.13-.34-.47-.84-.09-1.12,1.17-.86,1.73-2.05,1.73-3.43-.02-1.34-1.03-2.37-1.98-3.21l.24-7.57.04-1.94c0-.17.11-.32.19-.35.13-.04.2,0,.45.02,11.52.86,22.93,1.19,34.6,1.23l-.21,8.04c-.06,1.92.26,3.73,1.03,5.48.17.35,0,.67-.3.84-1.51.8-2.39,2.22-2.44,3.8-.06,1.68.71,3.13,2.13,4.14l-.09,2.96c-3.32,1.47-4.03,4.81-3.15,8.26.19.75-2.07,1.04-1.34,2.78.07.19.37.6.13.82-3.65,3.11-4.23,7.94-4.55,12.66l-.76,6.26c-.52,4.19-2.14,7.98-4.42,11.5-.28.41-.28.86.09,1.16l.19.15c2.41,1.1,4.94,1.55,7.57,1.96l3.75.39.26.02.3.02h.32l.34.02c.17.02.19.17.04.26-.65.89-1.58,1.86-1.51,3.13.34,6.11,1.4,12.02,2.93,17.93l1.47,4.94c.11.37.48.58.82.58,1.03.02,1.32-1.21,1.62-2.46l1.25-5c1.16-4.66,1.98-9.32,2.39-14.11.34-1.85-.13-3.41-1.36-4.79-.07-.11-.19-.3-.15-.37.06-.15.3-.11.47-.13,3.99-.13,7.79-.78,11.54-2.11.48-.17,1.66-.78,1.29-1.44-2.52-3.65-4.19-7.64-4.83-12.06l-.67-6.17c-.41-3.95-1.14-10.38-4.42-12.47-.34-.21-.09-.41.02-.65.69-1.68-1.49-2.18-1.21-3.13.91-3.04-.07-6.34-2.8-7.83-.71-.37-.09-1.45-.39-3.06,1.42-1.01,2.22-2.67,2.01-4.44-.21-1.6-1.27-2.98-2.87-3.71-.5-.22,1.06-2.54.99-5.39l-.26-8.07c0-.21-.07-.41,0-.54.09-.15.22-.17.52-.17,11.65-.06,23.14-.37,34.97-1.29l.21,10.23c-.58.52-1.12.97-1.44,1.64-.8,1.75-.07,3.65,1.51,4.7.13.09.3.35.2.5-.56.91-.6,1.85-.52,2.93l.07.82c0,.11-.02.41-.15.47-2.8,1.38-3.24,4.19-2.44,7.21.11.45-1.38,1.1-.82,2.09.17.3.09.47-.15.67-.78.65-1.19,1.57-1.62,2.52-1.34,3-1.72,6.23-1.92,9.51l-.47,7.7c-.37,3.06-1.6,5.82-3.15,8.46-.19.32-.39.69-.24,1.04.5,1.16,7.07,2.03,9.53,2.26l.37-.02c.19,0,.26.22.13.43-.97,1.49-1.25,3.06-1.04,4.83.63,5.46,1.7,10.78,3,16.11.32,1.25.88,2.44,1.73,2.18.21-.07.47-.34.56-.67l.78-3.04,2.07-9.71.63-5.54c.26-2.24-1.12-4.31-1.12-4.38.02-.24.17-.17.37-.19,2.7-.22,8.04-.99,9.75-2.26.17-.13.17-.54.02-.73-2.13-2.59-3.49-5.56-4.01-8.89l-.48-6.82c-.34-4.53-.17-9.49-3.52-13.01.67-2.01-1.23-2.22-.84-3.11.3-.71.34-1.44.34-2.2,0-1.88-.97-3.5-2.61-4.38-.67-.35.28-2.35-.63-3.95-.11-.17-.28-.71-.06-.86,1.14-.69,1.75-1.77,1.83-3.04.07-1.21-.52-2.4-1.57-3.17-.43-.32-.56-.52-.54-1.04l.43-9.55,13.7-1.38,14.73-2.5.26-.06,3.5-.97c.11-.04.3-.13.37-.09.15.13.09.35.09.56l-.35,13.05c-.06,2.31.32,4.42.99,6.56.13.43-1.42.73-2.2,1.94-1.51,2.31-.84,5.39,1.42,6.95.19.71.17,1.44.06,2.18-3.15,1.17-4.46,4.53-3.37,7.51.34.91-1.57,1.36-1.14,2.89l.32.45c.11.15-.06.34-.24.48-3.04,2.5-3.65,7.36-4.01,11.26l-.58,6.6c-.32,3.6-2.26,8.52-4.44,11.5-.26.34-.41.86-.06,1.14.45.35.97.56,1.51.75,3.45,1.16,6.99,1.7,10.65,1.94.15,0,.39-.04.52.02.41.19-1.85,1.86-1.72,3.78.26,4.21.88,8.24,1.79,12.3l1.27,5.61c.32,1.38.91,3.86,1.55,4.19.43.24.95.24,1.36-.02.35-.22.62-.63.75-1.1l1.29-4.92,1.17-5.54,1.34-9.49c.11-.89.06-1.72-.34-2.52l-.11-.21-.8-1.29-.15-.17-.13-.19c-.07-.09-.15-.21-.15-.26-.02-.15.09-.21.34-.21,3.99-.28,9.3-1.06,12.7-2.95.52-.3.04-1.1-.22-1.42-1.4-1.77-2.5-3.62-3.19-5.76-.71-2.2-1.25-4.34-1.47-6.66l-.48-5.07c-.34-3.65-1.01-7.61-3.23-10.48-.71-.93-1.45-1.06-1.23-1.44.52-.89.04-2.01-.75-2.65-.45-.39-.34-.82-.22-1.34.54-2.68-.69-5.2-3.06-6.54-.26-.15-.47-.3-.45-.65l.06-2.11c1.49-1.16,2.18-2.91,1.98-4.74-.32-3.06-2.96-3.37-2.82-3.9l.19-.67c.69-2.44.76-4.85.71-7.4l-.3-13.05c0-.43.3-.43.6-.54,1.75-.63,3.47-1.38,4.77-2.74,3.17-3.32,3.09-8.65-.6-11.67l-2.55-2.07c-1.06-.86-1.75-2.37-1.45-3.75.28-.67,1.08-1.12,1.62-1.57,1.58-1.32,2.95-2.78,3.71-4.72.82-2.07.56-4.34-.47-6.28-.84-1.57-1.98-2.85-3.19-4.14-.52-.54-.88-1.06-.78-1.92.06-.54-.17-1.47.19-1.96.54-.54,1.38-.76,2.07-1.14,2.61-1.4,4.4-4.01,4.23-7.08-.11-1.81-1.1-3.39-2.31-4.68-.97-1.04-2.16-1.75-3.34-2.57-.24-.17-.19-.47-.15-.73.5-3.28,2.03-6.04,3.84-8.76,1.51-2.27,2.52-4.72,3.39-7.29l1.53-6.26c.35-1.42.67-2.76,1.42-4.03,1.86-3.19,3.93-2.14,5.11-3.02.47-.34.48-1.53,0-2.24l-.13-.19-.17-.19c-1.81-2.11-4.81-2.13-7.18-.69l-.19.11-.21.11-.19.13-.19.13c-.52.37-1.01.78-1.49,1.31-.17.24-.39,0-.21-.28.75-2.03,2.61-3.67,4.77-3.97,1.14-.17,2.22.07,3.37.22,5.8.84,11.8-.17,16.74-3.41,2.11-1.4,3.86-3.11,5.5-5,3.13-3.64,5.26-7.85,6.26-12.51,1.06-4.98.48-9.96-1.64-14.56l-1.49-2.98c-.76-1.51-1.32-3.32-.71-4.96.89-2.46,2.59-4.33,4.53-6ZM496.13,220.12l-15.38-1.7c-4.27-.47-8.3-1.45-12.43-2.52-1.73-.45-3.34-.97-4.94-1.68l.09-2.91c2.31,1.16,4.49,1.85,6.92,2.4,6.86,1.55,13.72,2.65,20.73,3.26l5.03.43-.02,2.7ZM500.4,220.45l-.04-2.68,11.86.78,23.25.58.04,2.63c-11.71,0-23.32-.41-35.1-1.31ZM576.14,220.42l-22.6,1.16-12.88.21v-2.67l19.89-.43,15.59-.89v2.63ZM612.93,214.3l-2.52.95c-9.55,2.91-19.93,4.01-29.96,4.88l.02-2.74c8.54-.73,16.83-1.79,25.13-3.56,2.61-.56,4.98-1.25,7.35-2.39l-.02,2.85ZM619.3,212.2c-.48.32-.21-.91-1.66-2.05-1.04-.84-2.22-1.47-3.52-1.9l-6.6-2.14c-5.07-1.32-10.09-2.24-15.29-2.87l-11.88-1.47c-16.13-1.66-32.16-2.31-48.3-2.03-11.89.19-23.7.8-35.48,2.07-6.58.71-12.98,1.45-19.46,2.68-5.35.99-12.81,2.52-17.24,5.22-1.04.63-1.77,1.53-2.03,2.74-.99-.41-1.27-1.44-.8-2.26,2.13-3.65,14.41-6.34,19.26-7.31l13.59-2.22c13.14-1.73,26.32-2.63,39.62-2.91,14.78-.32,29.47.06,44.13,1.4l9.73,1.01c7.27.75,14.3,1.98,21.42,3.6l8.2,2.31,4.1,1.77c1.04.45,1.92,1.14,2.61,2.01.6.76.41,1.85-.39,2.35ZM620.94,203.49l-.11.26c-1.75-1.16-3.65-1.98-5.69-2.74-3.62-1.21-7.16-2.24-10.92-2.93l-13.68-2.55-23.77-2.39c-25.43-1.83-54.59-1.14-79.81,2.39l-17.77,3.39-8.46,2.54c-2.16.63-4.03,1.72-5.93,2.91.58-1.45,1.81-2.05,2.91-2.93,3.04-1.66,6.28-2.78,9.66-3.67l5.31-1.4c9.06-2.05,18.23-3.39,27.54-4.34,16.54-1.68,33.05-2.18,49.67-1.75,9.27.26,18.38.89,27.55,1.77l15.6,2.07c6.25,1.06,12.32,2.24,18.36,4.12,3.3,1.01,7.57,2.61,9.55,5.26ZM620.63,163.03c.95.76,1.77,1.77,1.94,3.08-1.66-1.64-3.49-2.7-5.61-3.56-4.21-1.7-8.46-2.93-12.94-3.95-11.3-2.59-22.76-4.18-34.38-5.15-20.64-1.73-41.33-1.75-62.06-.02-11.47.95-22.74,2.5-33.86,4.94-4.33.95-8.37,2.16-12.49,3.62l-3.8,1.6c-1.47.63-2.67,1.6-3.86,2.72,0-1.21.71-2.09,1.57-2.82,4.6-4.05,14.6-6.3,20.94-7.72,13.24-2.98,27.39-4.29,40.92-5.24l10.46-.43c6.47-.26,12.77-.21,19.28-.06,13.33.28,26.55,1.29,39.77,3.13,8,1.14,15.83,2.7,23.55,4.96,3.6,1.04,7.74,2.59,10.59,4.88Z"/>
</svg>