<?xml version="1.0" encoding="UTF-8"?>
<svg id="Layer_1" data-name="Layer 1" xmlns="http://www.w3.org/2000/svg" width="707.33" height="979.63" viewBox="186.75 31.41 707.33 979.63">
  <g>
    <path d="M202.77,995.04c2.23-2.01,3.9-3.68,5.02-5.02,1.11-1.34,2.12-2.79,3.01-4.35,1.56-3.46,2.34-7.19,2.34-11.21v-79.29c0-2.56-.11-4.6-.33-6.11-.22-1.51-.67-3.09-1.34-4.77-.67-1.67-1.45-3.15-2.34-4.43-.89-1.28-2.34-3.09-4.35-5.44h48.84c-1.9,2.23-3.32,4.04-4.27,5.44-.95,1.4-1.76,2.82-2.43,4.27-1.23,3.34-1.84,7.03-1.84,11.04v25.76h47.34v-25.76c0-4.01-.61-7.7-1.84-11.04-.67-1.45-1.48-2.87-2.43-4.27-.95-1.39-2.37-3.21-4.27-5.44h48.84c-3.46,4.01-5.63,7.25-6.52,9.7-.78,1.56-1.28,3.07-1.51,4.52-.22,1.45-.33,3.63-.33,6.52v79.29c0,4.01.78,7.75,2.34,11.21,1.11,2.01,2.34,3.74,3.68,5.19,1,1.12,2.45,2.51,4.35,4.18h-52.53c2.19-2.01,3.83-3.65,4.93-4.93,1.1-1.28,2.05-2.76,2.86-4.43,1.61-3.35,2.42-7.03,2.42-11.04v-33.79h-47.34v33.79c0,1.9.22,3.79.68,5.69.46,1.9,1.16,3.91,2.13,6.02.96,2.12,3.43,5.02,7.4,8.7h-52.53Z" style="fill: #1f3a6e;"/>
    <path d="M342.11,995.04c2.68-2.12,4.24-3.4,4.68-3.85,1.56-1.34,3.23-3.18,5.02-5.52,2.45-3.35,4.52-7.03,6.19-11.04l32.79-79.29c1.67-3.9,2.51-7.53,2.51-10.87,0-1.56-.25-3.07-.75-4.52-.5-1.45-1.37-3.29-2.59-5.52h37.97l38.64,100.2c1.56,4.13,3.46,7.81,5.69,11.04,1.34,1.79,2.56,3.24,3.68,4.35,1.11,1.12,3.07,2.79,5.86,5.02h-56.04c2.34-2.34,3.99-4.46,4.93-6.36.95-1.9,1.42-4.07,1.42-6.52s-.45-4.85-1.34-7.53l-4.52-12.71h-39.14l-4.68,12.71c-.67,1.9-1.14,3.46-1.42,4.68-.28,1.23-.42,2.57-.42,4.01,0,2.12.36,3.93,1.09,5.44.72,1.5,2.31,3.6,4.77,6.27h-44.33ZM407.35,906.22l-13.38,36.3h26.1l-12.71-36.3Z" style="fill: #1f3a6e;"/>
    <path d="M488.31,995.04c2.61-2.34,4.33-4.01,5.18-5.02s1.84-2.45,2.98-4.35c1.58-3.46,2.38-7.14,2.38-11.04v-79.46c0-4.24-.61-7.92-1.84-11.04-.67-1.56-1.4-3.04-2.17-4.43-.78-1.39-2.07-3.15-3.85-5.27h63.06c7.7,0,15,1.28,21.91,3.85,6.91,2.57,12.77,6.25,17.56,11.04,10.59,9.93,15.89,24.59,15.89,43.99s-5.19,33.57-15.56,44.83c-10.37,11.26-24.15,16.89-41.32,16.89h-64.23ZM531.13,893.34v81.97c2.79.56,5.07.89,6.86,1,1.78.11,3.18.17,4.18.17,10.82,0,19.24-3.74,25.26-11.21,6.02-7.47,9.03-18.07,9.03-31.78s-2.96-23.59-8.87-30.61c-5.91-7.03-14.5-10.54-25.76-10.54-3.01,0-6.58.33-10.71,1Z" style="fill: #1f3a6e;"/>
    <path d="M601.72,995.04c2.68-2.12,4.24-3.4,4.68-3.85,1.56-1.34,3.23-3.18,5.02-5.52,2.45-3.35,4.52-7.03,6.19-11.04l32.79-79.29c1.67-3.9,2.51-7.53,2.51-10.87,0-1.56-.25-3.07-.75-4.52-.5-1.45-1.37-3.29-2.59-5.52h37.97l38.64,100.2c1.56,4.13,3.46,7.81,5.69,11.04,1.34,1.79,2.56,3.24,3.68,4.35,1.11,1.12,3.07,2.79,5.86,5.02h-56.04c2.34-2.34,3.99-4.46,4.94-6.36.95-1.9,1.42-4.07,1.42-6.52s-.45-4.85-1.34-7.53l-4.52-12.71h-39.14l-4.68,12.71c-.67,1.9-1.14,3.46-1.42,4.68-.28,1.23-.42,2.57-.42,4.01,0,2.12.36,3.93,1.09,5.44.72,1.5,2.31,3.6,4.77,6.27h-44.33ZM666.96,906.22l-13.38,36.3h26.1l-12.71-36.3Z" style="fill: #1f3a6e;"/>
    <path d="M748.43,995.04c4.12-3.57,6.91-6.75,8.37-9.54,1.45-2.79,2.17-6.41,2.17-10.87v-79.29c0-4.35-.56-8.03-1.67-11.04-.56-1.45-1.28-2.84-2.18-4.18-.89-1.34-2.29-3.23-4.18-5.69h54.7c30.78,0,46.17,9.87,46.17,29.61,0,14.16-8.47,23.7-25.43,28.6l9.37,14.72,5.86,8.03,14.22,18.74c3.35,3.9,6.55,7.33,9.62,10.29,3.06,2.96,7.28,6.5,12.63,10.62h-33.46c-3.01,0-5.77-.72-8.28-2.18-2.51-1.45-5.27-4.02-8.28-7.71-5.58-6.81-11.32-14.69-17.23-23.63-3.79-6.14-6.77-11.25-8.95-15.33-2.17-4.08-4.82-9.58-7.95-16.51,4.12-.33,7.5-.86,10.12-1.59,2.62-.73,4.93-1.76,6.94-3.1,6.91-4.58,10.37-10.11,10.37-16.59,0-10.72-7.46-16.08-22.37-16.08h-2.86c-1.01,0-2.58.17-4.71.5v81.76c0,4.47.66,8.04,1.97,10.72,1.31,2.68,3.95,5.92,7.89,9.72h-52.86Z" style="fill: #1f3a6e;"/>
  </g>
  <g>
    <path d="M310.56,236.19c-.14-.07-.31,0-.38.14-.06.13-.02.27.09.35,16.58,11.45,33.98,21.61,51.65,31.25,5.9,3.19,11.86,6.29,17.95,9.15.14.07.31,0,.38-.14.06-.13.02-.27-.09-.35-16.57-11.46-33.98-21.6-51.65-31.24-5.9-3.19-11.86-6.29-17.95-9.15Z" style="fill: #1f3a6e;"/>
    <path d="M308.69,207.52c3.37,2.29,7.55,4.28,10.36,5.51.36.16.4.65.08.88l-2.59,1.78c-.12.08-.12.26,0,.34l43.88,31.61c.17.12.36-.11.22-.25l-10.13-10.44c-.07-.07.02-.18.1-.13,7.71,4.4,14.69,7.51,16.97,8.49.17.07.31-.14.18-.27-1.75-1.75-7.22-7.08-14.15-12.61-.08-.06,0-.18.08-.14l13.46,5.55c.19.08.33-.19.15-.3l-45.63-29.09c-.12-.08-.29-.01-.32.13l-.69,3.07c-.09.39-.56.53-.84.25-2.18-2.16-5.58-5.3-8.95-7.59-3.75-2.55-8.83-4.94-11.78-6.25-.26-.11-.5,0-.62.18-.13.19-.14.45.06.65,2.31,2.26,6.41,6.08,10.16,8.63Z" style="fill: #1f3a6e;"/>
    <path d="M282.81,252.57c3.65,1.81,8.06,3.21,11.01,4.05.38.11.49.59.2.86l-2.32,2.11c-.11.1-.09.27.04.34l97.61,51.78c.23.12.43-.19.23-.35l-14.45-11.31c-.1-.08,0-.22.11-.18,10.39,4.17,19.65,6.86,22.66,7.7.22.06.37-.23.18-.37-2.49-1.89-10.23-7.61-19.85-13.33-.1-.06-.04-.22.08-.19l17.78,4.63c.25.06.37-.29.14-.4l-100.42-46.19c-.13-.06-.29.03-.3.17l-.27,3.13c-.03.4-.48.6-.8.37-2.46-1.84-6.25-4.49-9.9-6.3-4.07-2.01-9.42-3.69-12.52-4.59-.27-.08-.49.06-.59.26-.1.2-.07.46.15.63,2.59,1.92,7.18,5.16,11.24,7.17Z" style="fill: #1f3a6e;"/>
    <path d="M384.35,231.42c.09-.11.11-.26.03-.33-3.45-3.48-7.08-6.74-10.77-9.92-11.12-9.48-22.61-18.52-35.03-26.32-.08-.05-.21-.02-.31.09,0,0,0,.02-.01.02,0,0-.01,0-.02.02-.08.11-.08.25-.01.32,10.45,10.29,21.88,19.4,33.66,28.04,3.94,2.86,7.95,5.64,12.13,8.2.09.06.23,0,.32-.11Z" style="fill: #1f3a6e;"/>
    <path d="M444.71,178.86c3.7,5.59,7.49,11.14,11.52,16.53.09.12.27.15.4.06.11-.08.14-.23.08-.35-9.21-17.92-19.79-35.07-30.83-51.9-3.71-5.59-7.49-11.14-11.52-16.53-.09-.13-.27-.15-.4-.06-.11.08-.14.23-.08.35,9.22,17.91,19.78,35.07,30.83,51.9Z" style="fill: #1f3a6e;"/>
    <path d="M459.62,73.07c1.18.06,2.35.12,3.4.65l2.67,1.65c1.87,1.16,2.81,2.88,1.77,4.87-1.57,2.98-2.21,5.57-1.73,8.97.71,4.96,3.59,9.35,7.89,11.9,3.38,2,6.53,2.14,10.33,1.6,1.86-.26,3.66.76,4.18,2.67-1.17-.94-2.33-1.69-3.77-1.65-2.03.05-3.11,1.74-2.71,2.47.09.16.28.26.52.32l1.49.35c1.58.37,2.28,2.8,2.58,4.43.55,3.03,1.62,5.84,3.33,8.39.6.89,1.01,1.79,1.37,2.78.22.61.48,1.2.47,1.88-1.14.66-2.13,1.47-2.91,2.5-.67.88-.88,1.95-.63,3.02.35,1.53,1.41,2.69,2.83,3.33.37.17.74.31,1.06.58v1.62c-.02.6-1.51,1.59-2.4,3.36-.87,1.72-.63,3.56.52,5.08l2.25,2.19c.56.7-.16,1.93-.76,2.43l-1.91,1.58c-1.18,1.19-1.64,2.82-1.18,4.45.63,2.23,2.44,3.2,4.6,3.9l-.32,8.38c-.07,1.75.11,3.39.57,5.07-.45.26-.86.45-1.15.83-1.06,1.39-.67,3.38.78,4.34.05.48.08.89,0,1.31-1.85.77-2.83,2.83-2.13,4.72l-.71.84c-.3.36-.07.82.13,1.21l-.11.15c-1.9,1.55-2.38,4.18-2.65,6.57l-.6,5.46-.03.17-.03.16c-.3,1.39-.72,2.71-1.49,3.9l-.99,1.52-.07.12c-.16.3-.24.58-.08.73l.1.09.12.07.13.07.13.06.13.06,2.15.63c1.51.44,3.03.67,4.61.71h.2c.07,0,.12,0,.21-.02.11.03.1.16.03.21-.77.67-1.01,1.49-.9,2.48.28,2.61.57,5.18,1.19,7.73l.9,3.72c.25,1.01.71,2.17,1.36,1.7.76-.54,1.85-5.97,2.11-7.68l.83-5.32c.3-1.9-1.27-2.79-.74-2.8,1.99-.05,5.58-.61,7.25-1.38.28-.13.45-.45.29-.74l-1.65-3.06c-.71-1.61-1.08-3.28-1.22-5.03l-.31-3.82c-.12-1.45-.4-2.83-.93-4.18-.34-.85-.82-1.57-1.54-2.13-.21-.17.55-1.02-.32-1.79-.26-.23-.37-.41-.27-.75.51-1.78-.36-3.57-2.03-4.35l-.15-1.39c1.21-.74,1.77-2.18,1.3-3.52-.13-.37-.38-.79-.69-1.02l-1.04-.78c.51-1.13.74-2.29.69-3.55l-.29-8.9c6.45,1.87,13.11,2.46,19.82,3.13l.07,6.27c-.62.5-1.1,1.17-1.08,1.97.02.83.51,1.47,1.13,2.01-.13.74-.36,1.65-.08,2.51-1.72.84-2.33,2.72-1.7,4.48.11.32-.71.43-.53,1.58-1.27,1.43-1.87,3.61-2.11,5.5l-.25,4.45c-.15,2.6-.84,5.02-2.3,7.17-.17.25-.26.58.02.75.54.33,1.13.54,1.76.64l4.24.65c.13-.02.21.05.15.13l-.17.25c-.8,1.19-.73,2.61-.51,4.06.47,3.01,1.08,5.92,1.85,8.86.09.34.22.66.47.89.13.12.36.1.47-.01.61-.6,1.48-5.29,1.77-6.94.28-1.59.59-3.1.62-4.71.02-.9-.4-1.7-.83-2.49,1.76-.08,3.43-.33,5.12-.69.63-.13,1.13-.45.92-.82l-.72-1.3c-1.41-2.56-1.52-4.96-1.66-7.79l-.19-3.95c-.19-1.57-.66-3.07-1.61-4.32-.14-.19-.36-.24-.22-.56.33-.73-.65-1.26-.63-1.31l.11-.3c.62-1.62-.04-3.29-1.53-4.14.09-.73.18-1.39-.1-2.03-.08-.19-.29-.5-.06-.67.71-.52,1.05-1.24,1.04-2.07,0-.81-.61-1.43-1.19-1.93l.15-4.57.02-1.17c0-.1.07-.19.12-.21.08-.03.12,0,.27,0,6.95.52,13.84.73,20.89.75l-.13,4.84c-.03,1.17.16,2.26.63,3.31.1.22,0,.4-.19.5-.92.49-1.44,1.35-1.47,2.3-.03,1,.42,1.89,1.28,2.5l-.06,1.78c-2,.9-2.43,2.91-1.9,5,.11.45-1.25.62-.82,1.67.04.11.23.36.08.5-2.2,1.88-2.55,4.8-2.74,7.64l-.47,3.79c-.31,2.53-1.3,4.82-2.67,6.95-.16.25-.16.51.06.69l.11.09c1.45.66,2.98.94,4.56,1.19l2.27.23h.16s.18.02.18.02h.19s.2,0,.2,0c.1.02.11.1.02.16-.4.53-.96,1.13-.92,1.88.2,3.7.85,7.27,1.77,10.83l.89,2.98c.07.23.29.35.49.35.62,0,.8-.73.99-1.48l.75-3.02c.7-2.81,1.19-5.63,1.44-8.52.2-1.11-.08-2.06-.82-2.9-.05-.06-.11-.17-.09-.22.03-.09.18-.07.28-.07,2.4-.09,4.7-.48,6.96-1.28.29-.1,1.01-.47.78-.86-1.52-2.2-2.53-4.62-2.92-7.28l-.4-3.73c-.25-2.38-.69-6.27-2.67-7.53-.2-.13-.05-.25,0-.39.41-1.01-.9-1.32-.73-1.89.56-1.84-.05-3.83-1.69-4.72-.43-.23-.06-.88-.24-1.86.86-.61,1.34-1.6,1.22-2.67-.12-.97-.76-1.8-1.73-2.25-.3-.14.64-1.53.59-3.25l-.15-4.88c0-.12-.04-.25,0-.33.05-.09.13-.09.31-.09,7.03-.03,13.97-.23,21.12-.78l.12,6.18c-.34.31-.68.58-.86.99-.48,1.06-.05,2.2.91,2.84.08.05.18.21.13.3-.34.55-.36,1.12-.31,1.76l.04.5c0,.06-.01.25-.09.28-1.69.84-1.96,2.54-1.48,4.36.07.26-.82.66-.49,1.26.1.18.06.28-.09.4-.47.4-.73.95-.99,1.52-.81,1.81-1.03,3.76-1.16,5.74l-.29,4.64c-.23,1.86-.96,3.51-1.9,5.12-.11.19-.23.42-.14.63.3.7,4.27,1.23,5.75,1.36h.23c.11,0,.16.12.08.25-.59.9-.75,1.85-.63,2.92.38,3.3,1.02,6.51,1.81,9.72.19.76.53,1.48,1.04,1.31.13-.04.29-.2.34-.4l.47-1.84,1.25-5.86.39-3.34c.16-1.36-.68-2.6-.68-2.65.01-.14.1-.1.22-.11,1.63-.14,4.85-.6,5.88-1.37.1-.07.1-.33.01-.43-1.29-1.57-2.1-3.36-2.42-5.38l-.3-4.11c-.2-2.73-.1-5.73-2.13-7.86.41-1.21-.74-1.34-.51-1.89.18-.42.2-.86.21-1.32,0-1.13-.59-2.12-1.58-2.64-.41-.21.17-1.42-.38-2.39-.06-.11-.17-.44-.04-.52.69-.42,1.06-1.07,1.11-1.84.04-.74-.32-1.46-.95-1.92-.25-.18-.34-.31-.32-.63l.26-5.76,8.28-.84,8.89-1.5.16-.04,2.12-.58c.07-.02.18-.08.22-.05.09.07.06.21.06.34l-.21,7.88c-.04,1.39.19,2.66.59,3.96.08.26-.85.44-1.33,1.17-.9,1.39-.51,3.25.86,4.2.11.43.1.86.03,1.31-1.9.71-2.69,2.74-2.04,4.54.2.55-.95.82-.69,1.74l.2.27c.07.09-.03.2-.15.3-1.84,1.51-2.21,4.44-2.42,6.79l-.35,3.99c-.19,2.17-1.37,5.14-2.69,6.94-.15.21-.25.52-.03.69.27.21.58.34.92.45,2.08.7,4.22,1.03,6.43,1.16.09,0,.24-.02.31.01.24.11-1.12,1.12-1.04,2.29.16,2.54.53,4.97,1.08,7.43l.77,3.39c.19.84.55,2.32.93,2.53.27.14.57.15.82-.01.21-.13.38-.38.45-.67l.78-2.97.7-3.34.81-5.74c.07-.53.03-1.03-.2-1.52l-.06-.13-.49-.77-.09-.1-.08-.11c-.04-.05-.09-.12-.09-.16,0-.09.06-.11.2-.12,2.41-.17,5.63-.64,7.67-1.77.32-.18.03-.66-.13-.86-.85-1.07-1.51-2.18-1.93-3.48-.43-1.33-.76-2.62-.89-4.01l-.29-3.07c-.21-2.2-.61-4.59-1.95-6.33-.43-.56-.88-.64-.74-.86.32-.54.02-1.21-.45-1.6-.27-.23-.21-.49-.14-.81.33-1.62-.42-3.14-1.84-3.94-.16-.09-.28-.19-.27-.4l.04-1.27c.9-.7,1.31-1.75,1.2-2.85-.19-1.84-1.8-2.04-1.71-2.36l.11-.4c.41-1.47.46-2.92.42-4.47l-.17-7.88c0-.26.17-.26.36-.33,1.06-.38,2.09-.83,2.88-1.65,1.92-2,1.87-5.23-.36-7.04l-1.54-1.25c-.64-.52-1.06-1.43-.88-2.27.17-.4.65-.68.98-.94.96-.79,1.78-1.68,2.25-2.85.49-1.24.34-2.62-.29-3.79-.5-.95-1.19-1.71-1.92-2.49-.31-.33-.52-.65-.47-1.16.04-.33-.11-.89.11-1.19.33-.33.83-.46,1.25-.68,1.57-.84,2.66-2.43,2.55-4.28-.06-1.09-.66-2.05-1.39-2.83-.59-.63-1.31-1.06-2.01-1.54-.16-.11-.12-.28-.09-.45.3-1.98,1.23-3.65,2.32-5.29.91-1.37,1.52-2.85,2.05-4.4l.92-3.78c.21-.86.41-1.66.85-2.43,1.12-1.93,2.38-1.3,3.09-1.83.28-.21.29-.92,0-1.35l-.08-.11-.1-.11c-1.1-1.27-2.91-1.29-4.33-.42l-.12.06-.12.07-.11.08-.11.08c-.32.22-.62.47-.9.79-.11.14-.24,0-.13-.17.45-1.23,1.57-2.22,2.88-2.4.69-.1,1.34.04,2.04.14,3.5.51,7.12-.11,10.11-2.07,1.27-.84,2.33-1.87,3.32-3.02,1.89-2.19,3.18-4.73,3.78-7.55.65-3.01.3-6.01-.98-8.79l-.9-1.8c-.46-.92-.8-2-.43-3,.54-1.48,1.57-2.61,2.74-3.62,1.26-1.1,2.74-1.83,4.48-2.16-.31-.47-.99-.48-1.53-.68l-.17-.03c-2.95-.55-4.24.68-4.32.62-.07-.05-.05-.16-.03-.27l.25-1.28c.25-1.26.36-2.46.3-3.76,0-.12-.01-.24-.14-.18l-.3.14c-1.84.87-3.51,1.95-5.09,3.19-.12-.1-.1-.19-.09-.25v-.2s0-.19,0-.19v-.17s-.21-1.43-.21-1.43l-.05-.14c-.35-1.1-.71-2.16-1.54-2.96-.68-.65-1.51-1.26-1.37-.82.52,1.67.51,3.4.12,5.11-.26,1.15-.61,2.27-1.31,3.2-.61.81-1.5,1.36-2.52,1.35l-1.59-.16c-1.27-.13-2.49-.17-3.75.11-.12.03-.18.08-.15.17l.1.24c1.63,3.83,1.13,9.01-.31,12.91-1.08,2.94-2.89,5.47-5.06,7.71-1.2,1.24-2.54,2.17-4.02,3.02-.17.1-.12.25-.02.38l1.78,2.45c.7.97.96,2.05.73,3.22-.21,1.11-.5,2.18-1.06,3.17l-2.55,3.9s-.02.02-.02.04l-.04.06h0c-.29.46-.5.98-.6,1.55-.29,1.54.33,3.14.99,2.81.35-.17,1.31-1.12,1.4-.38.32,2.62-1.58,4.98-4.22,5.27-.49.05-.93.1-1.42.04-3.56-.38-5.03-5.42-3.96-7.15l.08-.12.07-.12.13-.22c.08-.13.27-.1.28,0l.05.37c.34,1.41,1.87,2.06,3.16,1.44,1.12-.55,1.89-1.51,2.27-2.72.58-1.89.03-3.97-1.52-5.2-.92-.72-2.08-.9-3.16-.56-.16.05-.32.19-.36.03-.01-.06.1-.18.12-.24l.06-.14.06-.14.06-.14c.39-.88.63-1.79.6-2.76l-.03-.17c-.15-.89-.54-1.6-1.31-2.04l-.1-.09-.13-.06c-1.15-.57-2.34-.73-3.63-.62l-.17.02-.55.13c-.73.17.5-.98,2.46-1.01l3.97-.07c3.26-.27,6.25-1.56,8.67-3.74l1.21-1.21.95-1.07c3.45-4.59,5.32-10.25,4.3-15.99-.26-1.49-.82-2.85-1.51-4.16-.51-.98-1.22-1.76-1.94-2.58l-2.07-2.34c-.91-1.34-.37-3.15.45-4.55,1.25-2.13,3.01-3.76,5.36-5.05-1.52-.43-3.19,0-4.65.65l-.13.08-.13.07c-1.07.58-2,1.37-2.76,2.34l-.11.12s-.07.11-.1.1c-.06-.02-.02-.19-.01-.25l.18-1.09c.22-1.35.17-2.69,0-4.05l-.27-2.18-.04-.18c-.01-.06-.08-.04-.12.02l-1.95,1.81c-1.48,1.38-2.85,2.79-3.79,4.59-.1-1.11-.14-2.1-.51-3.11-.44-1.21-1.13-2.32-2.03-3.24-.67-.68-1.56-1.05-2.41-1.32-.03,0-.05,0-.06-.02-.08-.09-.17.03-.08.09.02,0,.03.03.01.05,2.06,2.47,2.2,5.21,1.57,8.35-.34,1.66-2,2.37-3.67,2.49-3.32.25-6.08,1.24-8.62,3.42-2.7,2.32-4.49,5.44-5.48,8.85-1.52,5.25-1.04,10.86,2.14,15.36,1.11,1.57,2.48,2.82,3.93,4.05,1.48,1.25,2.23,3.1,1.76,4.97l-.86,3.37c-2.61-1.11-5.42-.03-6.66,2.38-.96,1.88-.63,4.03,1.12,5.34l.8-1.13c.31-.44,1.05-.81,1.53-.4.83.71.94,1.95.62,2.94-.33,1.02-.93,1.82-1.71,2.55-1.38,1.29-3.09,1.98-4.99,2.22-3.35.43-6.72-.5-9.18-2.82-1.32-1.24-2-2.89-2.07-4.68-.01-.39.07-.79.29-1.08.13-.17.37-.01.48.12,1.74,2.12,4.77,2.15,6.76.37,1.81-1.63,2.36-4.24,1.52-6.52-.91-2.47-3.43-4.29-6.02-4.39-2.23-.08-4.29.73-6,2.16-.74.62-1.21,1.37-1.82,2.19.01-2.12.54-4.83,2.39-5.66l2.39-1.08c1.64-.74,3.26-1.42,4.7-2.51,2.6-1.94,4.4-4.58,5.43-7.66,1-2.99,1.36-6.09,1.09-9.24-.3-3.41-1.47-6.61-3.69-9.22-1.6-1.88-3.66-3.17-5.89-4.2-1.39-.64-2.58-1.5-2.46-3.11.18-2.47,1.8-4.75,3.54-6.44l1.03-1c-1.72,0-3.23.67-4.61,1.64-1.37.96-2.33,2.18-3.03,3.78-.22-1.48-.49-2.72-1.01-4.01-.66-1.65-1.37-3.21-2.24-4.79l-1.14,2.3c-.62,1.25-1.16,2.49-1.59,3.81l-.55,2.64c-1.31-3.03-4.33-4.9-7.28-5.76-.02,0-.04-.02-.05-.02-.08-.1-.2.03-.09.1,0,0,.01.02.02.03l2.42,3.33c1.11,1.52,2.44,4.11,1.65,5.72-.4.8-1.16,1.32-1.96,1.69-4.29,2-7.43,4.62-8.96,9.22-.73,2.2-.99,4.47-.85,6.79.25,4.26,1.33,8.4,3.97,11.75.51.64,1.05,1.11,1.64,1.66,1.23,1.15,2.61,1.99,4.14,2.69l3.44,1.55c1.18.53,2.01,1.42,2.46,2.66.38,1.06.63,2.18.52,3.37-.53-.88-.94-1.56-1.66-2.17-1.39-1.17-3.11-1.91-4.94-2.13-2.04-.25-4.02.44-5.55,1.78-1.87,1.62-2.51,4.08-1.83,6.44.51,1.76,1.72,3.08,3.46,3.67,1.76.6,3.62.11,4.88-1.29.16-.17.33-.33.61-.34.42.93.4,1.89.19,2.88-.34,1.57-1.2,2.91-2.47,3.88-.8.61-1.61,1.14-2.6,1.45-3.89,1.22-8.53.77-11.6-2.03-1.13-1.03-2.1-2.64-1.29-3.93.18-.3.41-.44.69-.45.31-.01.57.1.76.38l.58.86c.13.19.42.31.64.13.93-.75,1.69-1.8,1.84-3.04.22-1.87-.63-3.68-2.12-4.76-1.32-.96-2.9-1.23-4.47-.64-.58-1.53-1.06-3.05-1.28-4.66-.22-1.63.37-3.06,1.59-4.15l2.38-2.13c.85-.92,1.57-1.8,2.23-2.89,1.85-3.07,2.59-6.64,2.19-10.24-.28-2.56-.92-5-1.95-7.34-1.31-2.96-3.37-5.46-6.15-7.12-1.43-.85-2.94-1.42-4.55-1.8-2.18-.52-4.35.1-5.69-.97-.6-.48-.92-1.23-.98-2.02-.2-2.75.43-5.44,1.81-7.93-2.85,1.12-4.62,4.06-4.92,6.99-.04.36-.01.68-.19,1.08-1.16-2.52-3.64-4.6-5.96-6.39-.77,2.88-.71,5.78.06,8.68-2.38-2.44-5.98-3.37-9.22-2.02,2.14.64,4.08,1.61,5.68,3.1,1.28,1.19,2.36,2.84,1.39,4.34-.34.52-.72.97-1.17,1.44-1.87,1.93-3.19,4.22-3.77,6.9-1.42,6.64,1.39,13.94,6.45,18.4.77.68,1.54,1.27,2.44,1.79,3.06,1.74,6.53,2.39,10.02,1.9,1.2-.17,2.3.12,3.06,1.08.15.19.43.33.39.7-1.51-.84-3.61-.59-5.1.22-2.13,1.15-1.97,3.95-.69,6.12-1.29-.39-2.45-.26-3.4.58-1.92,1.67-2.2,4.27-.65,6.44.8,1.12,2.21,1.73,3.53,1.23,1.24-.47,1.27-2.18,1.37-2.24.57-.3,2.03,2.93.15,5.96-.8,1.29-2.07,1.97-3.56,2.05-1.31.07-2.49-.23-3.57-.99-1.39-.98-2.38-2.49-2.45-4.23,0-.22.06-.48.19-.59.46-.4,1.08.37,1.61.77.44.04.64-.64.72-.99.29-1.25.05-2.46-.62-3.46,0,0-2.4-3.9-2.56-4.16-.66-1.12-1.05-2.4-1.23-3.69-.15-1.12.11-2.15.75-3.04l1.45-1.93c.12-.01.38-.52.22-.61-4.95-2.87-8.49-7.57-9.88-13.13-.92-3.68-.83-7.32.7-10.82-1.29-.26-2.47-.3-3.71-.12l-2.59.37c-1.29.18-2.4-.51-2.94-1.67-.25-.52-.49-1.01-.62-1.59-.26-1.21-.64-2.35-.97-3.54-.29-1.05-.15-2.09-.01-3.24-1.28,1.04-2,2.6-2.19,4.24.03.22-.19.14-.17-.04-.74-.95-1.3-1.89-1.98-2.94-.38,1.44-.41,2.82-.33,4.34-1.45-.82-2.84-1.36-4.41-1.89-.03,2.05.38,4,1.26,5.95-2.57-.72-4.39-.5-6.38,1.12-.07.1.03.22.16.16ZM490.76,140.88c-.3-2.18,1.71-3.28,2.11-3.43l3.8-1.4.65,5.75-4.25,1.35s-2.06-.48-2.31-2.28ZM580.64,143.4c2.07.53,4.06,1.13,6.07,1.91v1.52s-5.3-1.45-5.3-1.45c-5.35-1.11-10.7-2.03-16.17-2.58-7.54-.76-15-1.15-22.64-1.19l-12.93.26-10.41.71c-6.1.57-12.08,1.47-18.06,2.72-2.16.45-4.17.98-6.25,1.67l-.02-1.59,5.26-1.66-.38-3.71-.8-6.93-4.42,1.47-.14-1.94c2.25-1,4.48-1.71,6.84-2.33,8.54-2.23,17.4-3.26,26.22-3.9,6.27-.45,12.49-.53,18.8-.42,5.96.1,11.83.6,17.74,1.28,4.9.56,9.69,1.31,14.48,2.46l5.61,1.62,3.14,1.28-.15,1.79c-1.88-.75-3.68-1.33-5.61-1.8l-1.12,10.47c-.02.16.13.28.25.31ZM493.62,216.65c-.65-2.52-1.12-5.05-1.4-7.64.87-.03,1.56.5,1.74,1.33.2.72.2,1.45.19,2.26l-.53,4.05ZM495.79,200.56c.88.02,1.69.16,2.52.42,1.43.4,2.78.95,4.01,2.04-1,.44-2,.54-3.06.72-4.41.72-8.87.57-13.27-.71.75-1.11,1.34-2.17,1.67-3.42.45-1.7.71-3.36.86-5.11l.51-4.3c.12-1.05.48-2.01,1.08-2.89.67-.99,1.78-1.57,3.01-1.65.54.82.84,1.68,1.07,2.62.95,3.81.55,8.41-.44,12.24l2.04.05ZM515.47,160.92l-9.29-1.02c-2.58-.28-5.01-.88-7.51-1.52-1.05-.27-2.02-.58-2.98-1.02l.05-1.75c1.4.7,2.71,1.12,4.18,1.45,4.14.94,8.28,1.61,12.51,1.97l3.04.26v1.63ZM518.05,161.13l-.03-1.63,7.16.47,14.03.35.02,1.59c-7.07,0-14.09-.24-21.19-.78ZM540.82,214.04l-.46,3.63c-.66-2.67-1.1-5.23-1.42-7.91.94-.02,1.59.48,1.78,1.35.2.95.24,1.9.1,2.94ZM549.21,203.56c-1.36.6-2.8.89-4.29,1.06-3.76.45-8.52.42-12.16-.94,1.14-1.86,1.86-3.8,2.11-5.93l.7-6.02c.11-.97.25-1.88.59-2.78.59-1.58,2-2.7,3.69-2.82.61.87.91,1.78,1.14,2.78.91,3.93.53,8.31-.43,12.33,3.1-.2,6.07.45,8.65,2.33ZM563.77,161.11l-13.64.69-7.77.13v-1.61s12.01-.26,12.01-.26l9.41-.53v1.59ZM585.99,157.41l-1.53.58c-5.76,1.75-12.04,2.42-18.09,2.94v-1.64c5.17-.45,10.18-1.08,15.19-2.15,1.57-.34,3.01-.75,4.43-1.44v1.72ZM587.72,211.83l-.57,4.42c-.64-2.55-1.05-5.09-1.35-7.78.76-.09,1.42.36,1.66,1.12.23.69.36,1.45.26,2.25ZM594.9,201.73c.34.19.65.38.87.74-4.07,1.23-8.29,1.47-12.51.88-1.24-.17-2.28-.38-3.49-.83,1.02-1.59,1.68-3.24,2.02-5.07l.52-4.6.37-3.27c.12-1.05.51-2.04,1.17-2.88.68-.87,1.73-1.35,2.83-1.48.69,1.27,1.07,2.54,1.29,3.95.58,3.63.37,7.2-.65,10.86,2.68-.16,5.26.4,7.59,1.71ZM589.84,156.14c-.3.19-.12-.55-1-1.24-.64-.51-1.34-.89-2.13-1.15l-3.99-1.3c-3.06-.79-6.09-1.35-9.23-1.74l-7.17-.88c-9.74-1-19.42-1.39-29.17-1.23-7.18.12-14.31.49-21.42,1.25-3.98.43-7.84.88-11.76,1.61-3.23.61-7.74,1.53-10.41,3.15-.63.38-1.07.93-1.22,1.66-.6-.24-.77-.86-.48-1.36,1.28-2.21,8.69-3.83,11.63-4.42l8.2-1.34c7.94-1.05,15.9-1.58,23.93-1.76,8.92-.19,17.79.03,26.65.85l5.88.61c4.38.45,8.63,1.2,12.92,2.17l4.96,1.4,2.47,1.07c.62.27,1.16.69,1.57,1.22.36.47.26,1.11-.23,1.42ZM590.89,150.97c.07.04.05.15-.05.14l.05-.14ZM590.82,150.88l-.06.15c-1.06-.69-2.21-1.18-3.44-1.65-2.18-.73-4.32-1.35-6.6-1.77l-8.27-1.54-14.34-1.44c-15.36-1.1-32.96-.68-48.2,1.44l-10.72,2.05-5.11,1.52c-1.3.39-2.43,1.04-3.58,1.76.35-.88,1.09-1.24,1.75-1.77,1.83-1,3.8-1.68,5.83-2.21l3.21-.85c5.47-1.24,11.01-2.05,16.62-2.62,9.98-1.01,19.96-1.32,30-1.05,5.59.15,11.09.54,16.64,1.07l9.42,1.25c3.77.64,7.44,1.35,11.09,2.48,1.99.62,4.57,1.58,5.76,3.18ZM589.8,140.32c-.25,1.79-2.31,2.28-2.31,2.28l-4.25-1.35.65-5.75,3.8,1.4c.4.15,2.41,1.25,2.11,3.43ZM573.72,109.8c-.35,4.33.56,7.95,3.99,10.72-.62.06-1.13-.22-1.71-.29-.43-.06-.75-.18-1.05-.55-1.27-1.53-2-3.3-2.37-5.32-.92,1.17-1.88,2.09-3.08,2.89-.85.57-1.75,1.25-2.8,1.37-.85.1-1.69-.17-2.61-.24,4.53-1.52,7.43-4.08,9.64-8.58ZM534.07,116.64c3.47-2.4,5.73-5.18,6.32-9.44h.67c.47,2.43,1.53,4.64,3.11,6.58,1.31,1.47,2.83,2.6,4.65,3.5l-3.1-.06c-2.17-1.57-3.88-3.66-4.91-6.22-.73,2.15-3.28,5.57-5.09,6.2-.84.29-1.82.01-2.73.04l1.08-.59ZM507.96,109.81c1.01,1.82,1.87,3.4,3.23,4.81,1.78,1.83,3.95,3.09,6.5,3.77l-2.75.38c-2.33-.86-4.24-2.29-5.75-4.39-.37,2.18-1.18,4.14-2.61,5.72l-2.37.36c3.19-2.84,4.19-6.34,3.75-10.65ZM503.35,122.07c8-1.8,16.54-2.58,24.72-3.16l6.31-.26c3.91-.16,7.71-.12,11.64-.04,8.05.17,16.03.78,24.01,1.9,4.83.68,9.56,1.63,14.22,2.99,2.18.63,4.67,1.57,6.4,2.95.58.46,1.07,1.08,1.17,1.86-1.01-1-2.11-1.63-3.39-2.15-2.54-1.02-5.11-1.77-7.81-2.39-6.82-1.57-13.75-2.52-20.76-3.11-12.46-1.04-24.95-1.06-37.47-.02-6.93.58-13.74,1.51-20.45,2.99-2.61.58-5.05,1.3-7.54,2.18l-2.3.98c-.89.38-1.61.97-2.33,1.64,0-.73.43-1.26.94-1.7,2.79-2.44,8.82-3.8,12.64-4.66Z" style="fill: #1f3a6e;"/>
    <path d="M427.99,99.92c1.78,3.66,4.41,7.47,6.23,9.95.24.32.02.77-.37.8l-3.14.25c-.15.01-.24.16-.18.3l34.5,76.44h0s3,6.65,3,6.65c.1.22.43.1.37-.13l-1.83-7.26-2.34-9.27c-.03-.11.12-.17.18-.07,1.69,2.88,3.37,5.58,4.94,7.99,3.32,5.11,6.13,8.95,7.3,10.53.13.17.4.04.34-.17-.51-1.9-1.8-6.48-3.76-12.25-.93-2.73-2.01-5.73-3.23-8.84-.04-.11.1-.19.16-.1l5.85,7.59,4.56,5.9c.15.19.44,0,.33-.21l-3.36-6.44h0s-38.77-74.36-38.77-74.36c-.07-.13-.24-.15-.34-.05l-2.13,2.31c-.27.29-.75.18-.86-.2-.82-2.96-2.19-7.38-3.97-11.04-1.98-4.08-5.18-8.69-7.09-11.29-.17-.23-.43-.25-.63-.16-.2.1-.34.32-.27.59.87,3.11,2.51,8.47,4.5,12.55Z" style="fill: #1f3a6e;"/>
    <path d="M341.3,165.93c2.99,2.77,6.82,5.37,9.41,7.02.34.21.3.71-.06.88l-2.83,1.37c-.13.06-.16.24-.06.34l38.59,37.89c.15.14.37-.05.25-.22l-8.43-11.86c-.06-.08.05-.17.12-.11,6.96,5.51,13.39,9.64,15.49,10.96.16.1.33-.09.22-.24-1.47-2-6.06-8.09-12.08-14.61-.07-.07.02-.18.1-.13l12.47,7.52c.17.11.35-.13.2-.27l-40.7-35.66c-.11-.1-.28-.05-.34.08l-1.15,2.93c-.15.37-.64.44-.87.12-1.83-2.46-4.71-6.09-7.7-8.85-3.33-3.09-7.98-6.22-10.7-7.96-.24-.15-.49-.08-.64.08-.15.16-.2.42-.03.65,1.94,2.58,5.41,6.98,8.74,10.07Z" style="fill: #1f3a6e;"/>
    <path d="M381.04,129.33c2.46,3.24,5.79,6.47,8.06,8.53.29.27.17.75-.21.86l-3.02.86c-.14.04-.2.21-.11.33l28.91,40.37s0,0,0,0l35.42,49.46c.15.21.47.02.36-.21l-7.9-16.56c-.05-.11.09-.2.17-.11,7.44,8.36,14.54,14.89,16.86,16.98.17.15.43-.04.33-.25-1.39-2.8-5.77-11.37-11.84-20.78-.07-.1.06-.22.15-.14l13.86,12.06c.19.17.46-.09.3-.29l-69.35-86.07c-.09-.11-.27-.1-.34.02l-1.64,2.69c-.21.34-.7.32-.88-.03-1.38-2.74-3.6-6.81-6.06-10.05-2.75-3.61-6.79-7.5-9.17-9.68-.21-.19-.47-.16-.65-.03-.18.14-.27.38-.15.63,1.47,2.88,4.13,7.81,6.87,11.42Z" style="fill: #1f3a6e;"/>
    <path d="M412.65,203.5c4.67,4.82,9.42,9.57,14.37,14.13.11.11.29.1.4-.02.09-.1.1-.26.02-.36-12.35-15.92-25.9-30.83-39.86-45.34-4.67-4.82-9.42-9.57-14.36-14.13-.11-.11-.29-.1-.4.02-.09.1-.1.26-.02.36,12.36,15.91,25.9,30.83,39.86,45.34Z" style="fill: #1f3a6e;"/>
    <path d="M545.22,53.42c.37-.31.89-.63,1.14-1.05l.63-3.39c-1.16.61-1.98,1.46-2.81,2.37-.25.28-.5.55-.59.93.38.61.52,1.23.71,1.9l.91-.76Z" style="fill: #1f3a6e;"/>
    <path d="M736.36,305.26c18.78-7.27,37.34-15.08,55.27-24.29.12-.06.18-.2.14-.34-.05-.15-.21-.23-.35-.18-6.41,2.05-12.72,4.35-18.99,6.75-18.78,7.27-37.35,15.06-55.27,24.28-.12.06-.18.2-.14.34.05.15.21.23.35.18,6.41-2.05,12.72-4.35,18.99-6.74Z" style="fill: #1f3a6e;"/>
    <path d="M741.75,194.97s-.01,0-.02-.02c0,0,0-.02-.01-.02-.09-.1-.22-.14-.31-.09-12.41,7.8-23.91,16.84-35.03,26.32-3.69,3.18-7.31,6.44-10.77,9.92-.08.08-.06.22.03.33.09.11.23.16.32.11,4.18-2.56,8.19-5.34,12.13-8.2,11.78-8.64,23.22-17.75,33.66-28.04.07-.07.07-.2-.01-.32Z" style="fill: #1f3a6e;"/>
    <path d="M578.34,131.8c-3.69-.87-7.39-1.48-11.14-2.02l-.88,11.06,5.82.84,5.62.94,1.08-10.2c.02-.37-.15-.54-.5-.63ZM575.76,139.53l-6.45-1,.49-5.98,6.52,1.16-.56,5.82Z" style="fill: #1f3a6e;"/>
    <path d="M699.74,276.94c.07.14.23.2.38.14,6.09-2.86,12.05-5.96,17.95-9.15,17.68-9.64,35.07-19.79,51.65-31.25.11-.08.15-.23.09-.35-.07-.14-.23-.2-.38-.14-6.09,2.86-12.05,5.97-17.95,9.15-17.68,9.64-35.08,19.78-51.65,31.24-.11.08-.15.22-.09.35Z" style="fill: #1f3a6e;"/>
    <path d="M685.51,204.74l12.47-7.52c.08-.05.17.06.1.13-6.02,6.52-10.61,12.61-12.08,14.61-.11.15.07.34.22.24,2.1-1.32,8.53-5.44,15.49-10.96.08-.06.18.03.12.11l-8.43,11.86c-.12.17.11.36.25.22l38.59-37.89c.1-.1.08-.28-.06-.34l-2.83-1.37c-.36-.17-.39-.67-.06-.88,2.59-1.64,6.42-4.25,9.41-7.02,3.33-3.08,6.8-7.49,8.74-10.07.17-.22.12-.48-.03-.65-.15-.16-.41-.23-.64-.08-2.72,1.74-7.37,4.87-10.7,7.96-2.99,2.77-5.87,6.39-7.7,8.85-.24.32-.73.25-.87-.12l-1.15-2.93c-.05-.14-.23-.18-.34-.08l-40.7,35.66c-.15.13.02.37.2.27Z" style="fill: #1f3a6e;"/>
    <path d="M712.85,237.82l13.46-5.55c.09-.04.16.08.08.14-6.94,5.53-12.4,10.86-14.15,12.61-.13.13.01.34.18.27,2.28-.98,9.26-4.09,16.97-8.49.08-.05.17.06.1.13l-10.13,10.44c-.14.15.05.37.22.25l43.88-31.61c.12-.09.12-.26,0-.34l-2.59-1.78c-.33-.22-.29-.72.08-.88,2.81-1.23,6.99-3.23,10.36-5.51,3.75-2.55,7.86-6.37,10.16-8.63.2-.2.19-.46.06-.65-.13-.19-.37-.29-.62-.18-2.95,1.31-8.03,3.7-11.78,6.25-3.37,2.29-6.77,5.43-8.95,7.59-.28.28-.76.13-.84-.25l-.69-3.07c-.03-.14-.2-.21-.32-.13l-45.63,29.09c-.17.11-.03.37.15.3Z" style="fill: #1f3a6e;"/>
    <path d="M803.23,422.66c-20.13.53-40.24,1.63-60.22,4.28-.13.02-.24.13-.24.27,0,.16.12.29.27.29,6.73.23,13.44.18,20.15.03,20.13-.53,40.24-1.64,60.22-4.29.13-.02.24-.13.24-.27,0-.16-.12-.29-.27-.29-6.73-.23-13.44-.18-20.15-.03Z" style="fill: #1f3a6e;"/>
    <path d="M804.13,300.84l.12-3.14c0-.15-.13-.25-.27-.21l-105.38,33.34c-.25.08-.16.44.09.41l18.21-2.38c.12-.02.16.15.05.2-10.25,4.48-18.65,9.2-21.35,10.76-.2.12-.09.42.13.39,3.09-.46,12.61-1.97,23.44-4.82.12-.03.19.13.08.19l-15.74,9.43c-.22.13-.06.47.18.38l56.87-21.61s0,0,0,0l46.42-17.64c.14-.05.18-.22.09-.33l-2.04-2.39c-.26-.3-.09-.77.3-.83,3.03-.46,7.59-1.31,11.43-2.65,4.28-1.49,9.23-4.13,12.05-5.71.25-.14.3-.4.23-.61-.07-.21-.28-.38-.56-.33-3.19.5-8.71,1.5-12.99,2.99-3.85,1.34-7.94,3.5-10.61,5.02-.35.2-.77-.07-.75-.46Z" style="fill: #1f3a6e;"/>
    <path d="M692.43,171.91c-13.96,14.51-27.51,29.42-39.86,45.34-.08.11-.08.26.02.36.11.11.28.12.4.02,4.95-4.56,9.7-9.31,14.37-14.13,13.96-14.51,27.49-29.43,39.86-45.34.08-.11.08-.26-.02-.36-.11-.11-.28-.12-.4-.02-4.95,4.56-9.69,9.31-14.36,14.13Z" style="fill: #1f3a6e;"/>
    <path d="M837.93,395.01c-4.05.43-8.53,1.62-11.47,2.49-.38.11-.73-.24-.63-.62l.83-3.03c.04-.14-.07-.28-.22-.27l-110.19,8.67c-.26.02-.26.39,0,.42l18.28,1.8c.12.01.12.18,0,.21-11,2.05-20.24,4.75-23.23,5.66-.22.07-.19.39.04.41,3.12.26,12.73.93,23.92.6.12,0,.16.17.04.2l-17.47,5.63c-.24.08-.16.44.09.41l60.28-8.2h0l49.2-6.69c.14-.02.23-.18.16-.31l-1.45-2.78c-.18-.35.08-.77.48-.74,3.06.23,7.69.44,11.73,0,4.51-.48,9.93-1.94,13.03-2.85.27-.08.38-.32.36-.54-.02-.22-.19-.43-.47-.45-3.22-.23-8.82-.5-13.33-.02Z" style="fill: #1f3a6e;"/>
    <path d="M758.85,385.71c19.95-2.71,39.82-6.01,59.39-10.81.13-.03.22-.16.21-.3-.01-.16-.15-.27-.3-.26-6.71.51-13.38,1.29-20.03,2.16-19.95,2.71-39.83,5.99-59.39,10.8-.13.03-.22.16-.21.29.01.16.15.27.3.26,6.71-.5,13.38-1.28,20.03-2.16Z" style="fill: #1f3a6e;"/>
    <path d="M749.93,344.75c19.51-4.96,38.89-10.49,57.78-17.48.13-.05.2-.18.18-.32-.03-.15-.18-.25-.33-.22-6.61,1.26-13.15,2.8-19.66,4.42-19.51,4.96-38.89,10.47-57.78,17.47-.13.05-.2.18-.18.32.03.15.18.25.33.22,6.61-1.26,13.15-2.79,19.66-4.42Z" style="fill: #1f3a6e;"/>
    <path d="M817.76,348.37l.49-3.11c.02-.14-.1-.27-.25-.24l-108.55,20.83c-.25.05-.21.42.04.42l18.37-.24c.12,0,.14.17.03.21-10.71,3.26-19.59,6.96-22.46,8.2-.21.09-.14.41.09.4,3.13-.09,12.76-.49,23.84-2.05.12-.02.17.15.06.2l-16.73,7.53c-.23.11-.11.46.14.4l59-14.83s0,0,0,0l48.16-12.11c.14-.04.2-.2.12-.32l-1.75-2.61c-.22-.33,0-.77.4-.79,3.07-.11,7.69-.42,11.66-1.3,4.43-.98,9.65-3.02,12.63-4.27.26-.11.35-.36.3-.58-.05-.22-.23-.41-.51-.4-3.23.13-8.82.48-13.25,1.46-3.98.88-8.29,2.55-11.12,3.75-.37.15-.75-.15-.69-.55Z" style="fill: #1f3a6e;"/>
    <path d="M683.93,298.3l17.78-4.63c.12-.03.18.13.08.19-9.62,5.73-17.36,11.45-19.85,13.33-.18.14-.04.43.18.37,3.01-.84,12.27-3.52,22.66-7.7.11-.05.2.1.11.18l-14.45,11.31c-.2.16,0,.47.23.35l97.61-51.78c.13-.07.15-.24.04-.34l-2.32-2.11c-.29-.27-.19-.75.2-.86,2.95-.84,7.36-2.24,11.01-4.05,4.07-2.01,8.65-5.25,11.24-7.17.23-.17.25-.43.15-.63-.1-.2-.32-.34-.59-.26-3.1.89-8.45,2.57-12.52,4.59-3.65,1.81-7.44,4.46-9.9,6.3-.32.24-.77.03-.8-.37l-.27-3.13c-.01-.15-.17-.23-.3-.17l-100.42,46.19c-.23.11-.11.46.14.4Z" style="fill: #1f3a6e;"/>
    <path d="M519.75,129.24l-2.41.3c-.41,0-.68.34-.58.77l.81,10.28,12.25-.95-.49-11.24-9.58.84ZM519.78,137.7l-.49-6.04,7.35-.69.28,6.09-7.14.64Z" style="fill: #1f3a6e;"/>
    <path d="M513.27,130.08c-3.96.59-7.71,1.31-11.49,2.24-.12.19-.16.37-.13.6l1.25,10.1,11.39-1.92-.46-5.07-.56-5.94ZM504.87,139.91l-.72-5.84,6.52-1.18.55,5.86-6.35,1.15Z" style="fill: #1f3a6e;"/>
    <path d="M497.8,56.56c.24-.91.66-1.48,1.02-2.21.12-.28-.1-.76-.19-1.04l-.77-2.35c-.6.95-1.71,3.8-1.41,4.13l1.36,1.47Z" style="fill: #1f3a6e;"/>
    <path d="M488.66,57.8c.35.72,1.55.74,2.59,1.35-.2-.86-.2-1.6-.26-2.41-1.17-.71-2.36-1.2-3.71-1.6l.52.93.86,1.73Z" style="fill: #1f3a6e;"/>
    <path d="M563.4,129.35l-4.01-.42-8.24-.66-.49,11.25,9.28.67,3.09.14.71-10.53c.02-.27-.19-.4-.34-.45ZM560.8,137.53l-7.21-.57.23-6.12,7.41.64-.43,6.05Z" style="fill: #1f3a6e;"/>
    <path d="M545.67,128.14l-10.52.03c-.46,0-.84.11-1.11.4-.26.28-.34.63-.33,1.06l.19,8.83c.01.5.37.93.89.93l10.98-.02c.44,0,.92-.3.92-.7l.11-9.33c0-.65-.49-1.21-1.13-1.21ZM536.36,136.63l-.02-6.11,7.72-.03.02,6.11-7.72.03Z" style="fill: #1f3a6e;"/>
    <path d="M583.29,56.49c.42-.64.69-1.07,1.19-1.41.24-.2.29-.48.22-.8-.34-1.27-.77-2.46-1.39-3.72l-.94,2.79c-.1.27-.16.54-.09.82l1,2.31Z" style="fill: #1f3a6e;"/>
    <path d="M602.45,181.57l-3.36,6.44c-.11.21.18.4.33.21l4.56-5.9,5.85-7.59c.07-.09.21,0,.16.1-1.22,3.11-2.3,6.11-3.23,8.84-1.96,5.77-3.25,10.35-3.76,12.25-.06.21.22.34.34.17,1.18-1.58,3.98-5.42,7.3-10.53,1.57-2.42,3.26-5.11,4.94-7.99.06-.1.21-.04.18.07l-2.34,9.27-1.83,7.26c-.06.23.27.35.37.13l3-6.65h0s34.5-76.44,34.5-76.44c.06-.13-.03-.29-.18-.3l-3.14-.25c-.4-.03-.61-.48-.37-.8,1.82-2.47,4.45-6.28,6.23-9.95,1.98-4.08,3.62-9.44,4.5-12.55.08-.27-.06-.49-.27-.59-.2-.1-.46-.07-.63.16-1.9,2.61-5.11,7.21-7.09,11.29-1.78,3.66-3.15,8.08-3.97,11.04-.11.38-.59.49-.86.2l-2.13-2.31c-.1-.11-.27-.08-.34.05l-38.77,74.36h0Z" style="fill: #1f3a6e;"/>
    <path d="M535.5,52.89l1.72,1.38c.17-1.55,1.1-2.01.17-2.89-.86-.98-1.86-1.75-3.05-2.42l.6,2.94c.08.4.22.74.55.98Z" style="fill: #1f3a6e;"/>
    <path d="M589.59,57.93c.6-.48,1.13-.84,1.85-1.13.19-.31.29-.62.37-.93.2-.89.53-1.65.96-2.54-1.26.52-2.27,1.3-3.28,2.16.13.82.14,1.55.1,2.45Z" style="fill: #1f3a6e;"/>
    <path d="M623.29,195.1c-.06.12-.03.27.08.35.13.09.3.07.4-.06,4.03-5.39,7.82-10.94,11.52-16.53,11.05-16.83,21.61-33.99,30.83-51.9.06-.12.03-.27-.08-.35-.13-.09-.3-.07-.4.06-4.02,5.4-7.81,10.94-11.52,16.53-11.05,16.83-21.62,33.98-30.83,51.9Z" style="fill: #1f3a6e;"/>
    <path d="M617.91,220.71l13.86-12.06c.09-.08.22.04.15.14-6.06,9.41-10.45,17.98-11.84,20.78-.1.21.15.4.33.25,2.33-2.09,9.42-8.62,16.86-16.98.08-.09.23,0,.17.11l-7.9,16.56c-.11.23.21.42.36.21l35.42-49.46s0,0,0,0l28.91-40.37c.08-.12.03-.29-.11-.33l-3.02-.86c-.38-.11-.5-.59-.21-.86,2.27-2.07,5.59-5.29,8.06-8.53,2.74-3.61,5.41-8.55,6.87-11.42.13-.25.03-.5-.15-.63-.18-.14-.44-.16-.65.03-2.38,2.18-6.42,6.07-9.17,9.68-2.46,3.24-4.68,7.31-6.06,10.05-.18.35-.67.37-.88.03l-1.64-2.69c-.08-.12-.25-.14-.34-.02l-69.35,86.07c-.16.2.11.46.3.29Z" style="fill: #1f3a6e;"/>
    <path d="M288.59,280.45c-.15-.05-.31.03-.35.18-.04.13.02.27.14.34,17.92,9.21,36.49,17.02,55.27,24.29,6.27,2.4,12.57,4.7,18.99,6.74.15.05.31-.03.35-.18.04-.13-.02-.27-.14-.34-17.92-9.22-36.49-17.02-55.27-24.28-6.27-2.39-12.57-4.7-18.99-6.75Z" style="fill: #1f3a6e;"/>
    <path d="M276.77,422.66c-6.71-.15-13.42-.2-20.15.03-.16,0-.28.14-.27.29,0,.14.11.25.24.27,19.97,2.65,40.09,3.76,60.22,4.29,6.71.15,13.42.2,20.15-.03.16,0,.28-.14.27-.29,0-.14-.11-.25-.24-.27-19.97-2.66-40.09-3.75-60.22-4.28Z" style="fill: #1f3a6e;"/>
    <path d="M546.01,629.3h119.11v-364.28h-246.34v364.28h114.62l.73-2.25,3.33-10.24,2.24-6.91,2.24,6.91,3.33,10.24.73,2.25ZM444.39,604.32v-314.33h195.12v314.33h-195.12ZM544.32,616.81h108v-339.3h-.04l-8.27,8.13v323.19h-102.29l-.73-2.25h100.77v-318.83h-199.62v318.83h96.28l-.73,2.25h-97.8v-.15l-8.27,8.13h103.47l-3.33,10.24h-110.74v-359.78h241.84v359.78h-115.23l-3.33-10.24Z" style="fill: #1f3a6e;"/>
    <path d="M560.21,638.3h96.68c-4.14,2-6.76,4.98-7.28,9.45-.69,5.95,1.36,11.21,5.97,15.24,5.66,4.95,13.44,6.93,21.3,5.03,12.71-3.09,20.67-16.26,16.33-28.79-2.6-7.5-10.94-11.24-19.08-11.99v-360.17c.51-.05,1.02-.11,1.53-.18.51-.07,1.02-.15,1.52-.25.51-.09,1.01-.2,1.51-.32,1-.24,1.99-.52,2.95-.86.48-.17.95-.35,1.42-.54s.92-.4,1.37-.62c1.35-.66,2.61-1.43,3.75-2.33.76-.6,1.46-1.25,2.1-1.96.64-.71,1.21-1.47,1.7-2.29s.91-1.7,1.23-2.64c.2-.59.38-1.18.53-1.77.45-1.77.67-3.54.66-5.28,0-1.55-.17-3.08-.5-4.56-.16-.74-.36-1.47-.6-2.19-.48-1.44-1.1-2.82-1.86-4.13-.38-.66-.79-1.29-1.24-1.91-.89-1.23-1.9-2.38-3.03-3.42-.84-.78-1.75-1.51-2.71-2.16-.64-.44-1.31-.84-2-1.22-1.73-.93-3.6-1.66-5.58-2.15-.98-.24-1.96-.42-2.94-.54-1.46-.18-2.92-.22-4.34-.14-.95.05-1.89.17-2.82.33-.46.08-.92.18-1.38.29-1.82.44-3.57,1.09-5.21,1.94-.41.21-.82.44-1.22.68-1.2.71-2.33,1.54-3.39,2.46-3.46,3.02-5.48,6.74-5.98,10.92-.17,1.39-.17,2.84,0,4.32.06.56.16,1.09.29,1.61.52,2.05,1.54,3.75,3,5.15.36.35.76.68,1.17,1,.84.63,1.78,1.19,2.81,1.69h-112.3l1.83-4.63c3.03.04,6.02.83,8.92,1.91,5.82,2.16,13.03-.55,14.57-6.19.82-3.02.08-6.59-2.4-8.69-2.04-1.73-4.78-2.76-7.43-2.74l-13.96.15c-1.28.01-2.49-.12-3.21-1.53,2.33-1,3.45-3.44,2.2-5.42-.39-.63-.9-1.05-1.5-1.39-1.67-.93-3.75-.93-5.42,0-.6.34-1.11.77-1.5,1.39-1.25,1.99-.13,4.43,2.2,5.42-.72,1.41-1.92,1.55-3.21,1.53l-13.96-.15c-2.65-.03-5.39,1.01-7.43,2.74-2.48,2.1-3.23,5.67-2.4,8.69,1.54,5.65,8.75,8.35,14.57,6.19,2.9-1.08,5.89-1.87,8.92-1.91l1.83,4.63h-110.19c4.14-2,6.76-4.98,7.28-9.45.69-5.95-1.36-11.21-5.97-15.24-5.66-4.95-13.44-6.93-21.3-5.03-12.71,3.09-20.67,16.26-16.33,28.79,2.6,7.5,10.94,11.24,19.08,11.99v360.17c-8.14.75-16.48,4.48-19.08,11.99-4.34,12.53,3.62,25.7,16.33,28.79,7.86,1.91,15.64-.08,21.3-5.03,4.61-4.03,6.67-9.3,5.97-15.24-.52-4.47-3.14-7.45-7.28-9.45h96.02l7.93,5.77-4.27,13.15-1.13,3.46,2.95-2.14,11.18-8.13,11.18,8.13,2.95,2.14-1.13-3.46-4.27-13.15,7.93-5.77h3.83ZM560,240.29c1.24-1.49,3.31-.56,4.16.15,1.2,1,1.67,2,1.69,3.96.02,2.1-2.52,5.58-5.03,4.21-2.21-1.2-2.41-6.42-.82-8.33ZM557.29,237.16c-2.35,2.88-3.02,5.92-3.15,9.54l-7.29-.26c.15-3.3-.41-5.77-.93-8.65l11.36-.63ZM662.69,662.27c-6.85-2.42-11.66-9.34-9.67-16.73,1.23-4.57,7.35-6.54,11.24-4.1,2.8,1.76,4.02,5.55,3.05,8.42-.79,2.34-2.8,3.76-4.87,3.81-2.3.06-4.48-1.6-4.9-4.09-.29-1.74,1.48-3.55,3.35-3.02,1.96.55,2.35,2.56,2.63,4.34,2.53-1.93,1.08-5.22-.74-6.32-2.53-1.54-5.53-.47-6.78,2.16-1.17,2.46-.17,5.44,1.79,7.07,2.14,1.78,5.19,2.04,8,.24,1.73,2.59,4.2,3.66,7.72,4.53-1.97,4.11-6.64,5.16-10.81,3.69ZM670.43,652.84c-1.09-.83-.18-2.04.33-2.51.82-.74,2.35-1.19,3.08-.15.68.96.54,2.46.56,3.41-1.34-.06-2.89.07-3.98-.76ZM680.03,661.98c3.8-5.93,3.59-13.13-2.26-17.53,2.56-1.07,4.63.54,5.64,2.87,2.14,4.92.93,11.23-3.38,14.66ZM681.01,640.26c5.09,1.88,8.39,6.82,7.1,12.31-.57,2.42-1.7,4.69-3.49,6.5,2.2-4.7,2.67-9.6-.09-13.87-1.94-3-6.05-4.42-8.72-1.67-1.04,1.07-1.44,2.72-3.17,4-.62.45-1.63-.94-1.89-1.62-.38-1.01.18-2.38.85-3.34,2.16-3.11,5.96-3.6,9.41-2.32ZM680.47,247.12c1.42-1.99,2.1-4.27,2.1-6.61,0-1.17-.16-2.37-.48-3.55-.11-.39-.23-.79-.37-1.18-.3-.84-.71-1.67-1.16-2.48-.18-.32-.34-.65-.55-.96,2.36,1.88,3.79,4.61,4.25,7.51.07.41.11.83.14,1.25.02.34.03.67.03,1.01s-.02.67-.05,1.01c-.12,1.34-.45,2.65-.98,3.88-1.01,2.33-3.09,3.94-5.64,2.87,1.1-.83,2-1.75,2.71-2.74ZM675.81,250.78c.5.52,1.05.89,1.63,1.12.39.16.78.26,1.19.31s.81.05,1.22,0c.41-.05.81-.15,1.2-.29.59-.21,1.16-.52,1.68-.9.7-.51,1.32-1.16,1.8-1.91.17-.27.33-.54.48-.81.15-.27.28-.55.41-.82.25-.55.45-1.11.6-1.68s.26-1.14.33-1.72c.07-.58.1-1.16.08-1.75-.02-.88-.12-1.77-.3-2.66-.24-1.19-.62-2.37-1.12-3.56-.12-.29-.25-.59-.39-.88.45.45.86.93,1.22,1.44.55.76,1.01,1.57,1.39,2.42.38.85.67,1.74.88,2.64.08.34.14.68.19,1.02.05.34.07.67.08,1.01.03,1-.08,1.96-.33,2.88-.65,2.45-2.24,4.57-4.39,6.04-.27.18-.55.36-.84.52-.43.24-.89.46-1.35.65-.16.06-.31.14-.47.19-3.45,1.28-7.25.79-9.41-2.32-.12-.18-.25-.37-.36-.58-.11-.2-.21-.42-.3-.63-.12-.29-.21-.59-.26-.88-.03-.15-.04-.29-.05-.43,0-.29.03-.56.12-.81.1-.25.3-.61.55-.93.41-.53.96-.97,1.34-.69.43.32.78.66,1.08,1.01s.54.71.77,1.07c.45.71.81,1.39,1.33,1.92ZM674.41,240.71c0,.36,0,.79,0,1.25s-.06.93-.18,1.36c-.08.29-.2.56-.37.8-.74,1.05-2.27.59-3.08-.15-.52-.47-1.43-1.67-.33-2.51.27-.21.57-.35.89-.46.32-.11.66-.17,1-.21.69-.08,1.42-.06,2.08-.09ZM656.09,252.73c-.49-.3-.94-.64-1.34-1.04-.4-.39-.76-.84-1.05-1.32-.29-.49-.52-1.02-.68-1.59-.25-.92-.39-1.84-.44-2.74-.14-2.7.6-5.27,1.96-7.49.23-.37.47-.73.73-1.08,1.82-2.44,4.42-4.37,7.42-5.42,1.56-.55,3.2-.75,4.73-.56.51.06,1.01.17,1.5.31s.95.34,1.39.58c.44.24.86.52,1.25.84.78.65,1.44,1.49,1.93,2.52-.88.22-1.69.45-2.45.71-1.13.39-2.12.86-3,1.48-.29.2-.57.43-.83.66-.53.48-1.01,1.03-1.44,1.68-.35-.23-.71-.42-1.06-.58-.36-.16-.71-.29-1.07-.39-2.14-.6-4.26-.13-5.86,1.21-.74.61-1.34,1.42-1.74,2.31-.27.59-.45,1.23-.52,1.88-.04.32-.04.65-.02.97s.07.65.15.97c.08.32.19.64.34.94,1.25,2.63,4.25,3.7,6.78,2.16.23-.14.45-.31.66-.51.31-.3.6-.66.83-1.06.85-1.46.99-3.43-.75-4.75-.28,1.78-.67,3.79-2.63,4.34-1.17.33-2.3-.25-2.92-1.16-.24-.36-.41-.78-.45-1.21-.02-.22-.02-.43.02-.65.1-.62.32-1.19.62-1.7.6-1.01,1.54-1.75,2.61-2.13.53-.19,1.1-.28,1.68-.26,2.07.05,4.08,1.48,4.87,3.81.73,2.15.23,4.82-1.25,6.76-.49.65-1.09,1.21-1.8,1.66-.97.61-2.08.95-3.23,1.03-1.14.09-2.31-.07-3.39-.45-.54-.19-1.06-.43-1.55-.73ZM538.49,230.35c0-1.33,1.08-2.41,2.41-2.41s2.41,1.08,2.41,2.41-1.08,2.41-2.41,2.41-2.41-1.08-2.41-2.41ZM540.11,247.94c-.41-.11-.45-1.78.24-1.77.79,0,.76,1.59-.24,1.77ZM539.98,243.41c.15,1.19-1.25,1.19-1.1,0,.09-.74,1-.74,1.1,0ZM520.98,248.62c-2.52,1.37-5.05-2.11-5.03-4.21.02-1.96.49-2.97,1.69-3.96.86-.71,2.92-1.64,4.16-.15,1.59,1.91,1.39,7.13-.82,8.33ZM534.95,246.44l-7.29.26c-.13-3.62-.79-6.66-3.15-9.54l11.36.63c-.53,2.88-1.08,5.34-.93,8.65ZM538.36,237.59c-.11,3.55-1.08,6.56-.47,10.6.07.46,1.43,1.42-.14,2.01-1.28-4.14-1.76-8.55.62-12.61ZM421.22,232.04c6.84,2.42,11.66,9.34,9.67,16.73-1.23,4.57-7.35,6.54-11.24,4.1-2.8-1.76-4.02-5.55-3.05-8.42.79-2.34,2.8-3.76,4.87-3.81,2.3-.06,4.48,1.6,4.9,4.09.29,1.74-1.48,3.55-3.35,3.02-1.96-.55-2.35-2.56-2.63-4.34-2.53,1.93-1.08,5.22.74,6.32,2.53,1.54,5.53.47,6.78-2.16,1.17-2.46.17-5.43-1.79-7.07-2.14-1.78-5.19-2.04-8-.24-1.73-2.59-4.2-3.66-7.72-4.53,1.97-4.11,6.64-5.16,10.81-3.69ZM413.48,241.47c1.09.83.18,2.04-.33,2.51-.82.74-2.35,1.19-3.08.15-.68-.96-.54-2.46-.56-3.41,1.34.06,2.89-.07,3.98.76ZM403.88,232.33c-3.8,5.93-3.59,13.13,2.26,17.53-2.56,1.07-4.63-.54-5.64-2.87-2.14-4.92-.93-11.23,3.38-14.66ZM402.9,254.06c-5.09-1.88-8.39-6.82-7.1-12.31.57-2.42,1.7-4.69,3.49-6.5-2.2,4.7-2.67,9.6.09,13.87,1.94,3,6.05,4.42,8.72,1.67,1.04-1.07,1.44-2.72,3.17-4,.62-.45,1.63.94,1.89,1.62.38,1.01-.19,2.38-.85,3.34-2.16,3.11-5.96,3.6-9.41,2.32ZM403.88,661.98c-4.31-3.43-5.52-9.74-3.38-14.66,1.01-2.33,3.09-3.94,5.64-2.87-5.85,4.4-6.07,11.6-2.26,17.53ZM399.38,645.2c-2.75,4.27-2.29,9.17-.09,13.87-1.79-1.81-2.93-4.08-3.49-6.5-1.28-5.49,2.02-10.42,7.1-12.31,3.45-1.28,7.25-.79,9.41,2.32.66.95,1.23,2.33.85,3.34-.26.68-1.27,2.07-1.89,1.62-1.73-1.28-2.14-2.94-3.17-4-2.67-2.75-6.79-1.33-8.72,1.67ZM410.06,650.19c.74-1.05,2.27-.59,3.08.15.52.47,1.43,1.67.33,2.51-1.08.83-2.64.7-3.98.76.02-.96-.12-2.45.56-3.41ZM430.89,645.53c1.99,7.39-2.83,14.31-9.67,16.73-4.17,1.47-8.84.42-10.81-3.69,3.52-.87,5.99-1.94,7.72-4.53,2.81,1.8,5.86,1.55,8-.24,1.97-1.64,2.96-4.61,1.79-7.07-1.25-2.63-4.25-3.7-6.78-2.16-1.81,1.1-3.27,4.39-.74,6.32.28-1.78.67-3.79,2.63-4.34,1.88-.53,3.64,1.28,3.35,3.02-.42,2.49-2.6,4.14-4.9,4.09-2.07-.05-4.08-1.48-4.87-3.81-.97-2.87.25-6.66,3.05-8.42,3.89-2.44,10.01-.47,11.24,4.1ZM532.5,642.39l-5.78-4.2,4.07,1.32,5.27,1.71h0s-3.57,1.16-3.57,1.16h0ZM538.58,648.45l-5.78,4.2h0s3.39-4.66,3.39-4.66l2.39-3.29v3.75ZM538.58,637.76h0s-2.21-3.04-2.21-3.04l2.21-6.79v9.83ZM539.71,617.19l-1.13,3.46-4.27,13.15h-120.03v-373.28h255.34v373.28h-124.52l-1.46-4.5-.73-2.25-2.08-6.39-1.13-3.46ZM545.05,646.66l-2.39-3.29h0s3.57,1.16,3.57,1.16l2.21,6.79-3.39-4.66ZM549.28,636.93l-6.62,2.15.41-.57,1.79-2.47h7.14l-2.73.89Z" style="fill: #1f3a6e;"/>
    <path d="M557.66,722.63c-.03-.13-.15-.23-.28-.23-.16,0-.28.13-.27.29.19,6.73.67,13.43,1.24,20.11,1.8,20.05,4.17,40.06,8.07,59.83.03.13.15.23.28.23.16,0,.28-.13.27-.29-.2-6.73-.67-13.43-1.24-20.11-1.79-20.05-4.16-40.06-8.07-59.83Z" style="fill: #1f3a6e;"/>
    <path d="M652.01,794.39c-1.78-3.66-4.41-7.48-6.23-9.95-.24-.32-.02-.77.37-.8l3.14-.25c.15-.01.24-.16.18-.3l-20.42-45.26h0s-4.66-10.34-4.66-10.34h0s-20.37-45.15-20.37-45.15c-.11-.23-.46-.11-.4.14l4.5,17.81c.03.12-.13.18-.19.07-5.65-9.66-11.32-17.44-13.19-19.95-.14-.18-.43-.04-.37.18.81,3.02,3.43,12.3,7.53,22.72.04.11-.1.2-.18.11l-11.21-14.53c-.16-.2-.47,0-.35.23l28.12,53.95s0,0,0,0l22.95,44.03c.07.13.24.15.34.05l2.13-2.31c.27-.29.75-.18.86.2.82,2.96,2.19,7.38,3.97,11.04,1.98,4.08,5.18,8.69,7.09,11.29.17.23.43.25.63.16.2-.1.34-.32.27-.59-.87-3.11-2.51-8.47-4.49-12.55Z" style="fill: #1f3a6e;"/>
    <path d="M594.89,802.79c-.16-.36.14-.75.54-.7l3.11.44c.14.02.27-.11.24-.25l-10.02-48.63s0,0,0,0l-2.29-11.11-10-48.51c-.05-.25-.42-.21-.42.05l.49,18.36c0,.12-.17.15-.2.03-3.4-10.66-7.23-19.5-8.5-22.35-.09-.21-.41-.14-.4.09.13,3.12.66,12.75,2.38,23.81.02.12-.15.17-.2.06l-7.76-16.63c-.11-.23-.46-.11-.39.14l15.63,58.79s0,0,0,0l12.76,47.99c.04.14.2.2.32.12l2.58-1.79c.33-.23.77-.01.79.39.15,3.07.52,7.68,1.46,11.64,1.04,4.42,3.16,9.61,4.44,12.57.11.26.36.34.58.29.22-.05.4-.24.39-.52-.17-3.22-.6-8.82-1.64-13.23-.93-3.96-2.66-8.26-3.9-11.07Z" style="fill: #1f3a6e;"/>
    <path d="M656.46,749.67c-10.14-17.4-20.76-34.51-32.69-50.75-.08-.11-.23-.15-.35-.08-.14.07-.2.24-.13.38,3.03,6.01,6.3,11.87,9.65,17.69,10.14,17.4,20.78,34.5,32.7,50.75.08.11.23.15.35.08.14-.07.2-.24.12-.38-3.03-6.01-6.3-11.87-9.66-17.68Z" style="fill: #1f3a6e;"/>
    <path d="M591.68,714.55c-.06-.12-.19-.19-.33-.16-.15.04-.24.19-.2.35,1.71,6.51,3.69,12.93,5.76,19.31,6.29,19.13,13.13,38.07,21.4,56.45.06.12.19.19.33.16.15-.04.24-.19.2-.35-1.72-6.51-3.69-12.93-5.76-19.31-6.29-19.13-13.12-38.08-21.4-56.45Z" style="fill: #1f3a6e;"/>
    <path d="M528.09,308l-9.26,9.26v35.87l9.26,9.26h27.77l9.26-9.26v-35.87l-9.26-9.26h-27.77ZM560.57,317.26h-6.71c-1.24,0-2.25,1.01-2.25,2.25v24.86c0,2.49-2.02,4.5-4.5,4.5h-16.76c-1.24,0-2.25,1.01-2.25,2.25v6.71c0,.5-.61.75-.96.4l-6.04-6.04v-34l7.94-7.94h25.9l6.04,6.04c.35.35.1.96-.4.96Z" style="fill: #1f3a6e;"/>
    <path d="M584.48,531.93l-9.26,9.26v35.87l9.26,9.26h27.77l9.26-9.26v-35.87l-9.26-9.26h-27.77ZM616.96,541.18h-6.71c-1.24,0-2.25,1.01-2.25,2.25v24.86c0,2.49-2.02,4.5-4.5,4.5h-16.76c-1.24,0-2.25,1.01-2.25,2.25v6.71c0,.5-.61.75-.96.4l-6.04-6.04v-34l7.94-7.94h25.9l6.04,6.04c.35.35.1.96-.4.96Z" style="fill: #1f3a6e;"/>
    <path d="M528.09,382.64l-9.26,9.26v35.87l9.26,9.26h27.77l9.26-9.26v-35.87l-9.26-9.26h-27.77ZM560.57,391.9h-6.71c-1.24,0-2.25,1.01-2.25,2.25v24.86c0,2.49-2.02,4.5-4.5,4.5h-16.76c-1.24,0-2.25,1.01-2.25,2.25v6.71c0,.5-.61.75-.96.4l-6.04-6.04v-34l7.94-7.94h25.9l6.04,6.04c.35.35.1.96-.4.96Z" style="fill: #1f3a6e;"/>
    <path d="M584.48,382.64l-9.26,9.26v35.87l9.26,9.26h27.77l9.26-9.26v-35.87l-9.26-9.26h-27.77ZM616.96,391.9h-6.71c-1.24,0-2.25,1.01-2.25,2.25v24.86c0,2.49-2.02,4.5-4.5,4.5h-16.76c-1.24,0-2.25,1.01-2.25,2.25v6.71c0,.5-.61.75-.96.4l-6.04-6.04v-34l7.94-7.94h25.9l6.04,6.04c.35.35.1.96-.4.96Z" style="fill: #1f3a6e;"/>
    <path d="M584.48,308l-9.26,9.26v35.87l9.26,9.26h27.77l9.26-9.26v-35.87l-9.26-9.26h-27.77ZM616.96,317.26h-6.71c-1.24,0-2.25,1.01-2.25,2.25v24.86c0,2.49-2.02,4.5-4.5,4.5h-16.76c-1.24,0-2.25,1.01-2.25,2.25v6.71c0,.5-.61.75-.96.4l-6.04-6.04v-34l7.94-7.94h25.9l6.04,6.04c.35.35.1.96-.4.96Z" style="fill: #1f3a6e;"/>
    <path d="M448.9,599.82h186.11v-305.32h-186.11v305.32ZM453.4,299h177.11v296.32h-177.11v-296.32Z" style="fill: #1f3a6e;"/>
    <path d="M584.48,457.29l-9.26,9.26v35.87l9.26,9.26h27.77l9.26-9.26v-35.87l-9.26-9.26h-27.77ZM616.96,466.54h-6.71c-1.24,0-2.25,1.01-2.25,2.25v24.86c0,2.49-2.02,4.5-4.5,4.5h-16.76c-1.24,0-2.25,1.01-2.25,2.25v6.71c0,.5-.61.75-.96.4l-6.04-6.04v-34l7.94-7.94h25.9l6.04,6.04c.35.35.1.96-.4.96Z" style="fill: #1f3a6e;"/>
    <path d="M797.19,641.75c-3.65-1.81-8.06-3.21-11.01-4.05-.38-.11-.49-.59-.2-.86l2.33-2.12c.11-.1.09-.27-.04-.34l-53.89-28.59-43.75-23.21c-.23-.12-.43.19-.23.35l14.46,11.32c.1.08,0,.22-.11.18-10.39-4.17-19.63-6.86-22.64-7.69-.22-.06-.37.23-.18.37,2.49,1.89,10.25,7.62,19.87,13.34.1.06.04.22-.08.19l-17.76-4.62c-.25-.06-.37.29-.14.4l55.27,25.42s0,0,0,0l45.11,20.75c.13.06.29-.03.3-.17l.27-3.13c.03-.4.48-.6.8-.37,2.46,1.84,6.25,4.49,9.9,6.3,4.07,2.01,9.42,3.69,12.52,4.59.27.08.49-.06.59-.26.1-.2.07-.46-.15-.63-2.59-1.92-7.18-5.16-11.24-7.17Z" style="fill: #1f3a6e;"/>
    <path d="M843.03,549.63c-2.98-1.25-8.2-3.29-12.63-4.27-3.98-.88-8.6-1.19-11.66-1.3-.4-.01-.62-.46-.4-.79l1.75-2.61c.08-.12.02-.29-.12-.32l-48.16-12.11h0l-59.04-14.84c-.25-.06-.37.29-.14.4l16.75,7.54c.11.05.06.21-.06.2-11.08-1.57-20.7-1.96-23.82-2.05-.23,0-.3.31-.09.4,2.87,1.24,11.77,4.95,22.48,8.21.12.04.09.21-.03.21l-18.35-.24c-.26,0-.3.37-.04.42l59.74,11.47s0,0,0,0l48.77,9.36c.14.03.27-.1.25-.24l-.49-3.1c-.06-.39.33-.7.69-.55,2.83,1.2,7.14,2.87,11.12,3.75,4.43.98,10.03,1.33,13.25,1.46.28.01.46-.18.51-.4.05-.22-.04-.47-.3-.58Z" style="fill: #1f3a6e;"/>
    <path d="M758.41,511.32c19.78,3.77,39.67,6.97,59.75,8.64.13.01.26-.08.3-.21.04-.15-.05-.3-.2-.34-6.52-1.66-13.09-3.04-19.68-4.32-19.78-3.77-39.66-6.99-59.75-8.65-.13-.01-.26.08-.29.21-.04.15.05.3.2.34,6.52,1.66,13.09,3.04,19.68,4.33Z" style="fill: #1f3a6e;"/>
    <path d="M749.18,552.22c19.22,5.99,38.62,11.42,58.38,15.36.13.03.27-.05.32-.18.06-.15-.02-.31-.16-.36-6.3-2.38-12.67-4.5-19.06-6.53-19.22-5.99-38.62-11.44-58.38-15.37-.13-.03-.27.05-.32.18-.06.15.02.31.16.36,6.29,2.39,12.66,4.51,19.06,6.53Z" style="fill: #1f3a6e;"/>
    <path d="M854.07,446.66c-3.18-.58-8.72-1.44-13.26-1.44-4.07,0-8.65.7-11.67,1.26-.39.07-.7-.31-.56-.68l1.15-2.93c.05-.14-.04-.28-.19-.29l-60.97-1.73h0l-49.51-1.4c-.26,0-.3.36-.05.42l17.98,3.74c.12.02.1.2-.02.21-11.16.87-20.63,2.56-23.7,3.15-.23.04-.23.37,0,.41,3.07.59,12.56,2.28,23.72,3.15.12,0,.14.18.02.21l-17.97,3.73c-.25.05-.21.42.05.42l60.81-1.72s0,0,0,0l49.64-1.41c.15,0,.24-.15.19-.29l-1.14-2.92c-.14-.37.17-.76.56-.68,3.02.56,7.6,1.25,11.67,1.25,4.54,0,10.08-.87,13.26-1.44.28-.05.42-.27.42-.5,0-.22-.14-.45-.42-.5Z" style="fill: #1f3a6e;"/>
    <path d="M828.81,600.09c-2.81-1.59-7.76-4.23-12.05-5.72-3.85-1.34-8.4-2.18-11.43-2.65-.39-.06-.56-.53-.3-.83l2.05-2.39c.09-.11.05-.28-.09-.33l-103.32-39.26c-.24-.09-.4.25-.18.38l15.76,9.44c.1.06.03.22-.08.19-10.82-2.85-20.33-4.36-23.42-4.82-.23-.03-.34.27-.14.39,2.71,1.56,11.11,6.28,21.37,10.77.11.05.07.22-.05.2l-18.2-2.38c-.26-.03-.34.33-.09.41l58,18.35s0,0,0,0l47.34,14.98c.14.04.28-.06.27-.21l-.12-3.14c-.02-.4.41-.66.75-.46,2.67,1.52,6.76,3.68,10.61,5.02,4.28,1.49,9.8,2.49,12.99,3,.28.04.48-.12.56-.33.07-.21.02-.47-.23-.61Z" style="fill: #1f3a6e;"/>
    <path d="M851.37,498.3c-3.1-.91-8.52-2.36-13.03-2.85-4.05-.43-8.67-.23-11.73,0-.4.03-.66-.39-.48-.74l1.45-2.79c.07-.13-.01-.29-.16-.31l-109.52-14.9c-.25-.03-.34.33-.09.41l17.48,5.63c.12.04.08.21-.04.2-11.19-.33-20.79.34-23.9.6-.23.02-.27.34-.04.41,2.99.91,12.24,3.61,23.25,5.66.12.02.12.19,0,.21l-18.26,1.8c-.26.03-.25.4,0,.42l60.65,4.77h0l49.5,3.9c.15.01.26-.12.22-.27l-.83-3.03c-.1-.38.25-.73.63-.62,2.94.88,7.42,2.06,11.47,2.49,4.51.48,10.11.21,13.33-.02.28-.02.44-.23.47-.45.02-.22-.09-.46-.36-.54Z" style="fill: #1f3a6e;"/>
    <path d="M763.05,469.53c20.07,1.6,40.19,2.62,60.33,2.1.13,0,.25-.1.27-.24.02-.15-.09-.3-.24-.32-6.67-.94-13.35-1.59-20.03-2.16-20.07-1.6-40.19-2.63-60.33-2.1-.13,0-.25.1-.27.24-.02.15.09.3.24.32,6.67.94,13.35,1.6,20.03,2.16Z" style="fill: #1f3a6e;"/>
    <path d="M695.65,662.87c-.09.11-.11.26-.03.33,3.45,3.48,7.08,6.74,10.77,9.92,11.12,9.48,22.61,18.52,35.03,26.32.08.05.21.02.31-.09,0,0,0-.02.01-.02,0,0,.01,0,.02-.02.08-.11.08-.25.01-.32-10.45-10.29-21.88-19.4-33.66-28.04-3.94-2.86-7.95-5.64-12.13-8.2-.09-.06-.23,0-.32.11Z" style="fill: #1f3a6e;"/>
    <path d="M738.71,728.39c-2.99-2.77-6.82-5.37-9.41-7.02-.33-.21-.3-.71.06-.88l2.83-1.37c.13-.06.16-.24.06-.34l-38.59-37.89c-.15-.14-.37.05-.25.22l8.43,11.86c.06.08-.05.17-.12.11-6.96-5.51-13.39-9.64-15.49-10.96-.15-.1-.33.09-.22.24,1.47,2,6.06,8.09,12.08,14.61.07.07-.02.18-.1.13l-12.47-7.52c-.17-.11-.35.13-.2.27l40.7,35.66c.11.1.28.05.33-.08l1.15-2.93c.15-.37.64-.44.87-.12,1.83,2.46,4.71,6.09,7.7,8.85,3.33,3.09,7.98,6.22,10.7,7.96.24.15.49.08.64-.08.15-.16.2-.42.03-.65-1.94-2.58-5.41-6.98-8.74-10.07Z" style="fill: #1f3a6e;"/>
    <path d="M694.46,720.54c-13.16-15.23-26.76-30.1-41.48-43.86-.1-.09-.25-.1-.36-.02-.12.09-.15.27-.05.4,4.09,5.35,8.38,10.51,12.74,15.61,13.17,15.23,26.77,30.09,41.48,43.86.1.09.25.1.36.02.12-.09.15-.27.05-.4-4.09-5.35-8.38-10.51-12.75-15.6Z" style="fill: #1f3a6e;"/>
    <path d="M698.96,764.98c-2.46-3.24-5.79-6.46-8.06-8.53-.29-.27-.17-.75.21-.86l3.03-.86c.14-.04.2-.21.11-.33l-28.91-40.37h0s-6.6-9.22-6.6-9.22h0s-28.84-40.27-28.84-40.27c-.15-.21-.47-.02-.36.21l7.91,16.58c.05.11-.09.2-.17.11-7.44-8.36-14.52-14.88-16.85-16.97-.17-.15-.43.04-.33.25,1.39,2.8,5.78,11.38,11.85,20.79.07.1-.06.22-.15.14l-13.84-12.05c-.19-.17-.46.09-.3.29l31.05,38.54,7.12,8.83s0,0,0,0l31.15,38.67c.09.11.27.1.34-.02l1.63-2.68c.21-.34.7-.32.88.03,1.38,2.74,3.6,6.81,6.06,10.05,2.74,3.61,6.79,7.5,9.17,9.68.21.19.47.16.65.03.18-.14.27-.38.15-.63-1.46-2.88-4.13-7.81-6.87-11.43Z" style="fill: #1f3a6e;"/>
    <path d="M528.09,457.29l-9.26,9.26v35.87l9.26,9.26h27.77l9.26-9.26v-35.87l-9.26-9.26h-27.77ZM560.57,466.54h-6.71c-1.24,0-2.25,1.01-2.25,2.25v24.86c0,2.49-2.02,4.5-4.5,4.5h-16.76c-1.24,0-2.25,1.01-2.25,2.25v6.71c0,.5-.61.75-.96.4l-6.04-6.04v-34l7.94-7.94h25.9l6.04,6.04c.35.35.1.96-.4.96Z" style="fill: #1f3a6e;"/>
    <path d="M791.41,613.86c.13.04.27-.01.34-.14.07-.14.02-.31-.12-.38-5.96-3.12-12.03-5.99-18.14-8.77-18.36-8.25-36.96-15.99-56.11-22.26-.13-.04-.27.01-.34.14-.07.14-.02.31.12.38,5.96,3.13,12.03,5.99,18.14,8.77,18.36,8.25,36.97,15.98,56.11,22.26Z" style="fill: #1f3a6e;"/>
    <path d="M771.31,686.8c-3.37-2.29-7.55-4.28-10.36-5.51-.36-.16-.4-.65-.08-.88l2.59-1.78c.12-.08.12-.26,0-.34l-43.88-31.61c-.17-.12-.36.11-.22.25l10.13,10.44c.07.07-.02.18-.1.13-7.71-4.4-14.69-7.51-16.97-8.49-.17-.07-.31.14-.18.27,1.75,1.75,7.22,7.08,14.15,12.61.08.06,0,.18-.08.14l-13.46-5.55c-.19-.08-.33.19-.15.3l45.63,29.09c.12.08.29.01.32-.13l.69-3.07c.09-.39.56-.53.84-.25,2.18,2.16,5.58,5.3,8.95,7.59,3.75,2.55,8.83,4.94,11.78,6.25.26.11.5,0,.62-.18.13-.19.14-.45-.06-.65-2.31-2.26-6.41-6.08-10.16-8.63Z" style="fill: #1f3a6e;"/>
    <path d="M769.44,658.12c.12.06.27.02.35-.09.09-.13.06-.3-.07-.39-5.51-3.87-11.16-7.5-16.85-11.05-17.14-10.57-34.58-20.65-52.75-29.35-.12-.06-.27-.02-.35.09-.09.13-.06.3.07.39,5.51,3.87,11.15,7.5,16.85,11.05,17.14,10.57,34.59,20.64,52.75,29.35Z" style="fill: #1f3a6e;"/>
    <path d="M291.35,560.52c-6.4,2.02-12.77,4.14-19.06,6.53-.15.06-.22.22-.16.36.05.13.18.2.32.18,19.76-3.94,39.16-9.37,58.38-15.36,6.4-2.02,12.77-4.14,19.06-6.53.15-.06.22-.22.16-.36-.05-.13-.18-.2-.32-.18-19.76,3.93-39.16,9.38-58.38,15.37Z" style="fill: #1f3a6e;"/>
    <path d="M281.44,515.09c-6.59,1.28-13.16,2.67-19.68,4.32-.15.04-.24.19-.2.34.03.14.16.22.3.21,20.08-1.67,39.97-4.87,59.75-8.64,6.59-1.28,13.16-2.67,19.68-4.33.15-.04.24-.19.2-.34-.03-.13-.16-.22-.29-.21-20.08,1.66-39.97,4.87-59.75,8.65Z" style="fill: #1f3a6e;"/>
    <path d="M275.87,593.48l-.12,3.14c0,.15.13.25.27.21l47.34-14.98s0,0,0,0l58-18.35c.25-.08.16-.44-.09-.41l-18.2,2.38c-.12.02-.16-.15-.05-.2,10.26-4.49,18.66-9.21,21.37-10.77.2-.12.09-.42-.14-.39-3.09.45-12.6,1.97-23.42,4.82-.12.03-.19-.13-.08-.19l15.76-9.44c.22-.13.06-.47-.18-.38l-103.32,39.26c-.14.05-.18.22-.09.33l2.05,2.39c.26.3.09.77-.3.83-3.03.46-7.59,1.31-11.43,2.65-4.28,1.49-9.23,4.13-12.05,5.72-.25.14-.3.4-.23.61.07.21.28.38.56.33,3.19-.5,8.71-1.5,12.99-3,3.85-1.34,7.94-3.5,10.61-5.02.35-.2.77.07.75.46Z" style="fill: #1f3a6e;"/>
    <path d="M262.25,545.94l-.49,3.1c-.02.14.1.27.25.24l48.77-9.36s0,0,0,0l59.74-11.47c.25-.05.21-.42-.04-.42l-18.35.24c-.12,0-.14-.17-.03-.21,10.71-3.26,19.61-6.97,22.48-8.21.21-.09.14-.41-.09-.4-3.12.09-12.74.49-23.82,2.05-.12.02-.17-.15-.06-.2l16.75-7.54c.23-.11.11-.46-.14-.4l-59.04,14.84h0l-48.16,12.11c-.14.04-.2.2-.12.32l1.75,2.61c.22.33,0,.77-.4.79-3.07.11-7.69.42-11.66,1.3-4.43.98-9.65,3.03-12.63,4.27-.26.11-.35.36-.3.58.05.22.23.41.51.4,3.23-.13,8.82-.48,13.25-1.46,3.98-.88,8.29-2.55,11.12-3.75.37-.15.75.15.69.55Z" style="fill: #1f3a6e;"/>
    <path d="M251.19,294.23c2.81,1.59,7.76,4.22,12.05,5.71,3.85,1.34,8.4,2.18,11.43,2.65.39.06.56.53.3.83l-2.04,2.39c-.09.11-.05.28.09.33l46.42,17.64s0,0,0,0l56.87,21.61c.24.09.4-.25.18-.38l-15.74-9.43c-.1-.06-.03-.22.08-.19,10.83,2.85,20.35,4.36,23.44,4.82.23.03.33-.27.13-.39-2.71-1.56-11.1-6.28-21.35-10.76-.11-.05-.07-.22.05-.2l18.21,2.38c.26.03.34-.33.09-.41l-105.38-33.34c-.14-.04-.28.06-.27.21l.12,3.14c.02.4-.41.66-.75.46-2.67-1.52-6.76-3.68-10.61-5.02-4.28-1.49-9.8-2.49-12.99-2.99-.28-.04-.48.12-.56.33-.07.21-.02.47.23.61Z" style="fill: #1f3a6e;"/>
    <path d="M338.25,699.31s.01,0,.02.02c0,0,0,.02.01.02.09.1.22.14.31.09,12.41-7.8,23.91-16.84,35.03-26.32,3.69-3.18,7.31-6.44,10.77-9.92.08-.08.06-.22-.03-.33-.09-.11-.23-.16-.32-.11-4.18,2.56-8.19,5.34-12.13,8.2-11.78,8.64-23.22,17.75-33.66,28.04-.07.07-.07.2.01.32Z" style="fill: #1f3a6e;"/>
    <path d="M340.91,621.84l55.27-25.42c.23-.11.11-.46-.14-.4l-17.76,4.62c-.12.03-.18-.13-.08-.19,9.62-5.73,17.37-11.46,19.87-13.34.18-.14.04-.43-.18-.37-3.01.84-12.26,3.52-22.64,7.69-.11.05-.2-.1-.11-.18l14.46-11.32c.2-.16,0-.47-.23-.35l-43.75,23.21-53.89,28.59c-.13.07-.15.24-.04.34l2.33,2.12c.29.27.19.75-.2.86-2.95.84-7.36,2.24-11.01,4.05-4.07,2.01-8.65,5.25-11.24,7.17-.23.17-.25.43-.15.63.1.2.32.34.59.26,3.1-.89,8.45-2.58,12.52-4.59,3.65-1.81,7.44-4.46,9.9-6.3.32-.24.77-.03.8.37l.27,3.13c.01.15.17.23.3.17l45.11-20.75s0,0,0,0Z" style="fill: #1f3a6e;"/>
    <path d="M306.51,604.57c-6.11,2.78-12.18,5.64-18.14,8.77-.14.07-.19.24-.12.38.06.12.21.18.34.14,19.14-6.28,37.75-14.01,56.11-22.26,6.11-2.78,12.18-5.64,18.14-8.77.14-.07.19-.24.12-.38-.06-.12-.21-.18-.34-.14-19.15,6.27-37.75,14.01-56.11,22.26Z" style="fill: #1f3a6e;"/>
    <path d="M380.24,617.33c-.08-.11-.23-.15-.35-.09-18.17,8.7-35.61,18.79-52.75,29.35-5.7,3.55-11.34,7.18-16.85,11.05-.13.09-.16.27-.07.39.08.11.23.15.35.09,18.17-8.71,35.62-18.78,52.75-29.35,5.7-3.54,11.34-7.18,16.85-11.05.13-.09.16-.27.07-.39Z" style="fill: #1f3a6e;"/>
    <path d="M236.97,344.68c2.98,1.25,8.2,3.29,12.63,4.27,3.98.88,8.6,1.19,11.66,1.3.4.01.62.46.4.79l-1.75,2.61c-.08.12-.02.29.12.32l48.16,12.11s0,0,0,0l59,14.83c.25.06.37-.29.14-.4l-16.73-7.53c-.11-.05-.06-.21.06-.2,11.09,1.57,20.72,1.96,23.84,2.05.23,0,.3-.31.09-.4-2.87-1.24-11.75-4.94-22.46-8.2-.12-.04-.09-.21.03-.21l18.37.24c.26,0,.3-.37.04-.42l-108.55-20.83c-.14-.03-.27.1-.25.24l.49,3.11c.06.39-.33.7-.69.55-2.83-1.2-7.14-2.87-11.12-3.75-4.43-.98-10.03-1.33-13.25-1.46-.28-.01-.46.18-.51.4-.05.22.04.47.3.58Z" style="fill: #1f3a6e;"/>
    <path d="M292.1,331.15c-6.51-1.63-13.05-3.16-19.66-4.42-.15-.03-.3.07-.33.22-.03.14.05.27.18.32,18.9,6.99,38.27,12.52,57.78,17.48,6.51,1.63,13.05,3.16,19.66,4.42.15.03.3-.07.33-.22.03-.14-.05-.27-.18-.32-18.89-7-38.27-12.51-57.78-17.47Z" style="fill: #1f3a6e;"/>
    <path d="M281.88,376.51c-6.65-.88-13.32-1.66-20.03-2.16-.16-.01-.29.1-.3.26-.01.14.08.26.21.3,19.57,4.8,39.44,8.09,59.39,10.81,6.65.88,13.32,1.66,20.03,2.16.16.01.29-.11.3-.26.01-.14-.08-.26-.21-.29-19.57-4.81-39.44-8.09-59.39-10.8Z" style="fill: #1f3a6e;"/>
    <path d="M276.63,468.9c-6.69.56-13.37,1.22-20.03,2.16-.15.02-.26.16-.24.32.02.14.14.24.27.24,20.14.52,40.26-.5,60.33-2.1,6.69-.56,13.37-1.22,20.03-2.16.15-.02.26-.16.24-.32-.02-.14-.14-.24-.27-.24-20.14-.53-40.26.5-60.33,2.1Z" style="fill: #1f3a6e;"/>
    <path d="M242.07,499.31c4.05-.43,8.53-1.61,11.47-2.49.38-.11.73.24.63.62l-.83,3.03c-.04.14.07.28.22.27l49.5-3.9h0l60.65-4.77c.26-.02.26-.39,0-.42l-18.26-1.8c-.12-.01-.12-.18,0-.21,11.01-2.05,20.26-4.75,23.25-5.66.22-.07.19-.39-.04-.41-3.11-.26-12.72-.93-23.9-.6-.12,0-.16-.17-.04-.2l17.48-5.63c.24-.08.16-.44-.09-.41l-109.52,14.9c-.14.02-.23.18-.16.31l1.45,2.79c.18.35-.09.77-.48.74-3.06-.23-7.69-.44-11.73,0-4.51.48-9.93,1.94-13.03,2.85-.27.08-.38.32-.36.54.02.22.19.43.47.45,3.22.23,8.82.5,13.33.02Z" style="fill: #1f3a6e;"/>
    <path d="M228.63,396.02c3.1.91,8.52,2.36,13.03,2.85,4.05.43,8.67.23,11.73,0,.4-.03.66.39.48.74l-1.45,2.78c-.07.13.01.29.16.31l49.2,6.69h0l60.28,8.2c.25.03.34-.33.09-.41l-17.47-5.63c-.12-.04-.08-.21.04-.2,11.19.33,20.81-.35,23.92-.6.23-.02.26-.34.04-.41-2.99-.91-12.23-3.61-23.23-5.66-.12-.02-.12-.19,0-.21l18.28-1.8c.26-.03.25-.4,0-.42l-110.19-8.67c-.15-.01-.26.12-.22.27l.83,3.03c.1.38-.25.73-.63.62-2.94-.88-7.42-2.06-11.47-2.49-4.51-.48-10.11-.21-13.33.02-.28.02-.44.23-.47.45-.02.22.09.46.36.54Z" style="fill: #1f3a6e;"/>
    <path d="M250.86,447.84c.39-.07.7.31.56.68l-1.14,2.92c-.05.14.04.28.19.29l49.64,1.41s0,0,0,0l60.81,1.72c.26,0,.3-.36.05-.42l-17.97-3.73c-.12-.02-.1-.2.02-.21,11.16-.87,20.65-2.56,23.72-3.15.23-.04.23-.37,0-.41-3.07-.59-12.54-2.28-23.7-3.15-.12,0-.14-.18-.02-.21l17.98-3.74c.25-.05.21-.42-.05-.42l-49.51,1.4h0l-60.97,1.73c-.15,0-.24.15-.19.29l1.15,2.93c.14.37-.17.76-.56.68-3.02-.56-7.6-1.26-11.67-1.26-4.54,0-10.08.87-13.26,1.44-.28.05-.42.27-.42.5,0,.22.14.45.42.5,3.18.57,8.72,1.44,13.26,1.44,4.07,0,8.65-.7,11.67-1.25Z" style="fill: #1f3a6e;"/>
    <path d="M488.85,714.74c.04-.15-.05-.31-.2-.35-.13-.04-.27.03-.33.16-8.28,18.37-15.11,37.32-21.4,56.45-2.07,6.38-4.04,12.8-5.76,19.31-.04.15.05.31.2.35.13.04.27-.03.33-.16,8.27-18.37,15.11-37.32,21.4-56.45,2.07-6.38,4.04-12.8,5.76-19.31Z" style="fill: #1f3a6e;"/>
    <polygon points="423.51 269.52 423.29 269.52 423.29 624.79 423.51 624.79 431.63 616.81 431.59 616.81 431.59 277.5 431.63 277.5 652.28 277.5 660.4 269.52 423.51 269.52" style="fill: #1f3a6e;"/>
    <path d="M522.62,722.4c-.14,0-.26.09-.28.23-3.91,19.77-6.27,39.77-8.07,59.83-.57,6.69-1.04,13.38-1.24,20.11,0,.16.12.29.27.29.14,0,.26-.09.28-.23,3.9-19.77,6.27-39.77,8.07-59.83.57-6.69,1.04-13.38,1.24-20.11,0-.16-.12-.29-.27-.29Z" style="fill: #1f3a6e;"/>
    <path d="M471.66,531.93l-9.26,9.26v35.87l9.26,9.26h27.77l9.26-9.26v-35.87l-9.26-9.26h-27.77ZM504.14,541.18h-6.71c-1.24,0-2.25,1.01-2.25,2.25v24.86c0,2.49-2.02,4.5-4.5,4.5h-16.76c-1.24,0-2.25,1.01-2.25,2.25v6.71c0,.5-.61.75-.96.4l-6.04-6.04v-34l7.94-7.94h25.9l6.04,6.04c.35.35.1.96-.4.96Z" style="fill: #1f3a6e;"/>
    <path d="M547.3,699.12l-3.74,17.98c-.02.12-.2.1-.21-.02-.87-11.16-2.56-20.63-3.15-23.7-.04-.23-.37-.23-.41,0-.59,3.07-2.28,12.56-3.15,23.72,0,.12-.18.14-.21.02l-3.73-17.97c-.05-.25-.42-.21-.42.05l1.72,60.81h0s1.41,49.64,1.41,49.64c0,.15.15.24.29.19l2.92-1.14c.37-.14.76.17.68.56-.56,3.02-1.25,7.6-1.25,11.67,0,4.54.87,10.08,1.44,13.26.05.28.27.42.5.42.22,0,.45-.14.5-.42.57-3.18,1.44-8.72,1.44-13.26,0-4.07-.7-8.65-1.26-11.67-.07-.39.31-.7.68-.56l2.93,1.15c.14.05.28-.04.29-.19l1.41-49.64h0s1.72-60.85,1.72-60.85c0-.26-.36-.3-.42-.05Z" style="fill: #1f3a6e;"/>
    <path d="M471.66,457.29l-9.26,9.26v35.87l9.26,9.26h27.77l9.26-9.26v-35.87l-9.26-9.26h-27.77ZM504.14,466.54h-6.71c-1.24,0-2.25,1.01-2.25,2.25v24.86c0,2.49-2.02,4.5-4.5,4.5h-16.76c-1.24,0-2.25,1.01-2.25,2.25v6.71c0,.5-.61.75-.96.4l-6.04-6.04v-34l7.94-7.94h25.9l6.04,6.04c.35.35.1.96-.4.96Z" style="fill: #1f3a6e;"/>
    <path d="M471.66,308l-9.26,9.26v35.87l9.26,9.26h27.77l9.26-9.26v-35.87l-9.26-9.26h-27.77ZM504.14,317.26h-6.71c-1.24,0-2.25,1.01-2.25,2.25v24.86c0,2.49-2.02,4.5-4.5,4.5h-16.76c-1.24,0-2.25,1.01-2.25,2.25v6.71c0,.5-.61.75-.96.4l-6.04-6.04v-34l7.94-7.94h25.9l6.04,6.04c.35.35.1.96-.4.96Z" style="fill: #1f3a6e;"/>
    <path d="M471.66,382.64l-9.26,9.26v35.87l9.26,9.26h27.77l9.26-9.26v-35.87l-9.26-9.26h-27.77ZM504.14,391.9h-6.71c-1.24,0-2.25,1.01-2.25,2.25v24.86c0,2.49-2.02,4.5-4.5,4.5h-16.76c-1.24,0-2.25,1.01-2.25,2.25v6.71c0,.5-.61.75-.96.4l-6.04-6.04v-34l7.94-7.94h25.9l6.04,6.04c.35.35.1.96-.4.96Z" style="fill: #1f3a6e;"/>
    <path d="M518.14,697.46l-7.76,16.63c-.05.11-.22.06-.2-.06,1.72-11.06,2.24-20.69,2.38-23.81,0-.23-.31-.3-.4-.09-1.28,2.85-5.1,11.69-8.5,22.35-.04.12-.21.09-.2-.03l.49-18.36c0-.26-.37-.3-.42-.05l-10,48.51-2.29,11.11s0,0,0,0l-10.02,48.63c-.03.14.09.27.24.25l3.11-.44c.39-.06.7.34.54.7-1.24,2.81-2.97,7.1-3.9,11.07-1.04,4.42-1.47,10.01-1.64,13.23-.01.28.17.47.39.52.22.05.47-.03.58-.29,1.29-2.96,3.4-8.16,4.44-12.57.93-3.96,1.31-8.58,1.46-11.64.02-.4.47-.61.79-.39l2.58,1.79c.12.08.29.02.32-.12l12.76-47.99s0,0,0,0l15.63-58.79c.07-.25-.29-.38-.39-.14Z" style="fill: #1f3a6e;"/>
    <path d="M414.69,692.67c4.37-5.09,8.66-10.26,12.74-15.61.09-.12.07-.3-.05-.4-.11-.08-.26-.07-.36.02-14.71,13.77-28.31,28.63-41.48,43.86-4.37,5.1-8.66,10.26-12.75,15.6-.09.12-.07.3.05.4.11.08.26.07.36-.02,14.71-13.77,28.31-28.63,41.48-43.86Z" style="fill: #1f3a6e;"/>
    <path d="M424.2,721.29l7.12-8.83,31.05-38.54c.16-.2-.11-.46-.3-.29l-13.84,12.05c-.09.08-.22-.04-.15-.14,6.06-9.41,10.45-17.99,11.85-20.79.1-.21-.16-.4-.33-.25-2.32,2.09-9.41,8.61-16.85,16.97-.08.09-.23,0-.17-.11l7.91-16.58c.11-.23-.21-.42-.36-.21l-28.84,40.27h0s-6.6,9.22-6.6,9.22h0s-28.91,40.37-28.91,40.37c-.09.12-.03.29.11.33l3.03.86c.38.11.5.59.21.86-2.27,2.06-5.6,5.29-8.06,8.53-2.74,3.61-5.41,8.55-6.87,11.43-.13.25-.03.5.15.63.18.14.44.16.65-.03,2.38-2.18,6.42-6.07,9.17-9.68,2.46-3.24,4.68-7.31,6.06-10.05.18-.35.67-.37.88-.03l1.63,2.68c.08.12.25.14.34.02l31.15-38.67s0,0,0,0Z" style="fill: #1f3a6e;"/>
    <path d="M394.49,689.58l-12.47,7.52c-.08.05-.17-.06-.1-.13,6.02-6.52,10.61-12.61,12.08-14.61.11-.15-.07-.34-.22-.24-2.1,1.32-8.53,5.44-15.49,10.96-.08.06-.18-.03-.12-.11l8.43-11.86c.12-.17-.11-.36-.25-.22l-38.59,37.89c-.1.1-.08.28.06.34l2.83,1.37c.36.17.39.67.06.88-2.59,1.64-6.42,4.25-9.41,7.02-3.33,3.08-6.8,7.49-8.74,10.07-.17.22-.12.48.03.65.15.16.41.23.64.08,2.72-1.74,7.37-4.87,10.7-7.96,2.99-2.77,5.87-6.39,7.7-8.85.24-.32.73-.25.87.12l1.15,2.93c.05.14.23.18.33.08l40.7-35.66c.15-.13-.02-.37-.2-.27Z" style="fill: #1f3a6e;"/>
    <path d="M461.73,743.07l28.12-53.95c.12-.23-.2-.43-.35-.23l-11.21,14.53c-.07.1-.22,0-.18-.11,4.1-10.42,6.72-19.7,7.53-22.72.06-.22-.23-.36-.37-.18-1.87,2.51-7.53,10.29-13.19,19.95-.06.11-.22.04-.19-.07l4.5-17.81c.06-.25-.29-.37-.4-.14l-20.37,45.15h0s-4.66,10.34-4.66,10.34h0s-20.42,45.26-20.42,45.26c-.06.13.03.29.18.3l3.14.25c.4.03.61.48.37.8-1.82,2.47-4.45,6.28-6.23,9.95-1.98,4.08-3.62,9.45-4.49,12.55-.08.27.07.49.27.59.2.1.46.07.63-.16,1.9-2.61,5.1-7.21,7.09-11.29,1.78-3.66,3.15-8.08,3.97-11.04.11-.38.59-.49.86-.2l2.13,2.31c.1.11.27.08.34-.05l22.95-44.03s0,0,0,0Z" style="fill: #1f3a6e;"/>
    <path d="M528.09,531.93l-9.26,9.26v35.87l9.26,9.26h27.77l9.26-9.26v-35.87l-9.26-9.26h-27.77ZM560.57,541.18h-6.71c-1.24,0-2.25,1.01-2.25,2.25v24.86c0,2.49-2.02,4.5-4.5,4.5h-16.76c-1.24,0-2.25,1.01-2.25,2.25v6.71c0,.5-.61.75-.96.4l-6.04-6.04v-34l7.94-7.94h25.9l6.04,6.04c.35.35.1.96-.4.96Z" style="fill: #1f3a6e;"/>
    <path d="M367.15,656.49l-13.46,5.55c-.09.04-.16-.08-.08-.14,6.94-5.53,12.4-10.86,14.15-12.61.13-.13-.01-.34-.18-.27-2.28.98-9.26,4.09-16.97,8.49-.08.05-.17-.06-.1-.13l10.13-10.44c.14-.15-.05-.37-.22-.25l-43.88,31.61c-.12.09-.12.26,0,.34l2.59,1.78c.33.22.29.72-.08.88-2.81,1.23-6.99,3.23-10.36,5.51-3.75,2.55-7.86,6.37-10.16,8.63-.2.2-.19.46-.06.65.13.19.37.29.62.18,2.95-1.31,8.03-3.7,11.78-6.25,3.37-2.29,6.77-5.43,8.95-7.59.28-.28.76-.13.84.25l.69,3.07c.03.14.2.21.32.13l45.63-29.09c.17-.11.04-.37-.15-.3Z" style="fill: #1f3a6e;"/>
    <path d="M456.71,699.22c.07-.14.01-.31-.13-.38-.12-.06-.27-.02-.35.08-11.93,16.24-22.56,33.35-32.69,50.75-3.35,5.81-6.62,11.67-9.66,17.68-.07.14-.01.31.12.38.12.06.27.02.35-.08,11.92-16.25,22.56-33.35,32.7-50.75,3.35-5.81,6.62-11.68,9.65-17.69Z" style="fill: #1f3a6e;"/>
  </g>
</svg>