<?xml version="1.0" encoding="UTF-8"?>
<svg id="Layer_1" xmlns="http://www.w3.org/2000/svg" version="1.1" viewBox="0 0 1080 1080">
  <!-- Generator: Adobe Illustrator 29.5.1, SVG Export Plug-In . SVG Version: 2.1.0 Build 141)  -->
  <defs>
    <style>
      .st0 {
        fill: #163478;
      }
    </style>
  </defs>
  <path class="st0" d="M933.73,219.45c6.54-5.68,14.16-9.49,23.19-11.18-1.63-2.45-5.15-2.48-7.93-3.51l-.88-.16c-15.28-2.85-21.95,3.52-22.37,3.21-.37-.28-.24-.85-.14-1.38l1.32-6.65c1.29-6.5,1.85-12.71,1.56-19.46-.01-.63-.07-1.23-.73-.92l-1.53.72c-9.52,4.49-18.19,10.08-26.36,16.5-.63-.54-.49-.98-.48-1.3l.03-1.02-.02-.96-.04-.87-1.03-7.39-.23-.75c-1.79-5.7-3.67-11.2-7.97-15.31-3.51-3.35-7.8-6.5-7.1-4.25,2.7,8.62,2.63,17.59.64,26.46-1.34,5.97-3.15,11.76-6.79,16.58-3.17,4.21-7.78,7.02-13.04,6.99l-8.21-.83c-4.45-.45-8.8-.67-13.16-.32,1.73,4.64,2.99,9.13,3.8,13.66,5.67,31.82-3.2,65.29-24.98,94.23l-.75.92-5.54,6.21-6.79,6.76c-5.06,4.57-10.55,8.49-16.35,11.77l4.69,6.44c3.65,5.01,4.97,10.58,3.8,16.65-1.11,5.76-2.57,11.26-5.49,16.38l-13.22,20.17c-.04.06-.08.13-.13.19l-.21.32h.04c-1.49,2.39-2.57,5.08-3.13,8-1.52,7.97,1.72,16.25,5.14,14.57,1.81-.89,6.77-5.77,7.24-1.97,1.67,13.57-8.19,25.76-21.81,27.29-2.54.28-4.81.49-7.36.22-18.41-1.96-26.02-28.04-20.48-37.01l.39-.63.38-.61.66-1.12c.39-.66,1.39-.51,1.47.03l.28,1.91c1.74,7.27,9.7,10.68,16.35,7.44,5.81-2.83,9.81-7.82,11.73-14.1,3-9.78.17-20.56-7.88-26.89-4.75-3.73-10.74-4.66-16.35-2.9-.84.26-1.67.96-1.85.16-.07-.3.5-.92.64-1.22l.33-.74.3-.72.31-.71c2.01-4.56,3.27-9.25,3.11-14.3l-.16-.9c-.79-4.6-2.77-8.27-6.8-10.54l-.54-.44-.65-.32c-5.94-2.97-12.09-3.79-18.76-3.2l-.9.08-2.86.65c-3.75.86,2.58-5.05,12.75-5.22l20.53-.34c16.88-1.38,32.33-8.07,44.86-19.38l6.25-6.24,4.92-5.56c17.87-23.75,27.52-53.05,22.24-82.74-1.37-7.7-4.25-14.73-7.81-21.52-2.65-5.06-6.31-9.13-10.05-13.37l-10.71-12.13c-4.69-6.95-1.92-16.3,2.33-23.55,6.47-11.04,15.57-19.47,27.74-26.14-7.87-2.22-16.51-.04-24.08,3.35l-.68.41-.66.36c-5.54,3.01-10.35,7.1-14.29,12.1l-.58.61c-.1.11-.37.55-.53.49-.31-.12-.11-.99-.06-1.28l.94-5.63c1.16-6.97.87-13.92.01-20.95l-1.37-11.26-.23-.92c-.07-.3-.41-.21-.59.11l-10.1,9.39c-7.65,7.12-14.77,14.43-19.59,23.74-.51-5.73-.72-10.88-2.64-16.1-2.3-6.25-5.84-12.03-10.53-16.77-3.49-3.53-8.06-5.42-12.46-6.81-.15.01-.27-.05-.31-.1-.41-.45-.88.17-.4.47.1.04.16.15.06.26,10.66,12.78,11.4,26.98,8.11,43.2-1.74,8.6-10.36,12.25-18.98,12.91-17.19,1.31-31.47,6.41-44.6,17.68-13.99,12.02-23.24,28.13-28.34,45.78-7.85,27.16-5.38,56.21,11.05,79.48,5.75,8.15,12.85,14.6,20.35,20.95,7.65,6.48,11.56,16.03,9.1,25.72l-4.44,17.46c-13.53-5.72-28.07-.15-34.45,12.31-4.97,9.71-3.27,20.87,5.77,27.62l4.12-5.83c1.61-2.27,5.45-4.21,7.93-2.09,4.29,3.68,4.89,10.07,3.2,15.2-1.73,5.27-4.82,9.43-8.85,13.17-7.15,6.66-16,10.24-25.82,11.5-17.35,2.22-34.76-2.6-47.52-14.57-6.83-6.4-10.37-14.97-10.72-24.2-.08-2.02.34-4.1,1.49-5.57.69-.89,1.91-.06,2.48.63,8.99,10.96,24.69,11.13,34.98,1.9,9.38-8.42,12.22-21.93,7.85-33.75-4.72-12.77-17.74-22.2-31.14-22.71-11.55-.44-22.22,3.79-31.06,11.17-3.84,3.2-6.29,7.07-9.44,11.31.07-10.96,2.8-24.99,12.35-29.29l12.39-5.57c8.51-3.83,16.85-7.37,24.34-12.98,13.46-10.06,22.76-23.73,28.1-39.64,5.2-15.47,7.06-31.5,5.62-47.83-1.56-17.66-7.61-34.2-19.11-47.74-8.28-9.75-18.94-16.43-30.47-21.73-7.21-3.31-13.34-7.75-12.74-16.12.91-12.78,9.31-24.57,18.31-33.34l5.32-5.18c-8.9.05-16.7,3.48-23.88,8.49-7.11,4.96-12.06,11.26-15.68,19.54-1.12-7.65-2.54-14.05-5.2-20.74-3.4-8.52-7.08-16.59-11.62-24.77l-5.88,11.92c-3.19,6.47-6,12.86-8.2,19.73l-2.83,13.68c-6.77-15.66-22.42-25.35-37.69-29.83-.12-.01-.22-.08-.27-.12-.43-.5-1.05.16-.45.53.04.03.07.1.11.16l12.54,17.21c5.73,7.86,12.65,21.26,8.53,29.62-2.04,4.15-6.01,6.84-10.16,8.77-22.21,10.34-38.47,23.93-46.37,47.73-3.78,11.38-5.12,23.11-4.41,35.16,1.3,22.05,6.9,43.47,20.54,60.82,2.62,3.34,5.46,5.77,8.47,8.58,6.34,5.93,13.49,10.33,21.41,13.91l17.78,8.05c6.11,2.77,10.41,7.37,12.73,13.75,1.98,5.47,3.24,11.27,2.71,17.45-2.76-4.55-4.87-8.09-8.59-11.21-7.19-6.04-16.1-9.87-25.59-11.02-10.58-1.28-20.8,2.3-28.73,9.19-9.65,8.4-12.98,21.14-9.46,33.32,2.62,9.09,8.92,15.93,17.92,18.98,9.12,3.09,18.74.55,25.23-6.67.81-.9,1.73-1.71,3.16-1.77,2.19,4.81,2.07,9.76.96,14.89-1.74,8.13-6.18,15.03-12.78,20.1-4.13,3.17-8.35,5.91-13.43,7.5-20.13,6.31-44.13,3.97-60.01-10.52-5.86-5.35-10.85-13.67-6.7-20.32.95-1.53,2.1-2.29,3.58-2.35,1.62-.07,2.94.52,3.92,1.97l3.01,4.44c.68,1,2.16,1.63,3.34.68,4.82-3.89,8.74-9.32,9.51-15.71,1.16-9.66-3.27-19.05-10.99-24.62-6.84-4.94-14.99-6.39-23.16-3.34-2.99-7.94-5.5-15.78-6.63-24.09-1.15-8.46,1.92-15.81,8.22-21.47l12.3-11.03c4.39-4.74,8.14-9.34,11.53-14.97,9.57-15.89,13.42-34.36,11.36-52.98-1.46-13.24-4.75-25.87-10.11-38-6.78-15.32-17.45-28.24-31.81-36.83-7.39-4.43-15.23-7.33-23.55-9.3-11.28-2.67-22.54.53-29.43-5.01-3.08-2.47-4.78-6.36-5.07-10.44-1.03-14.25,2.22-28.15,9.35-41.05-14.74,5.78-23.89,21.02-25.44,36.17-.19,1.84-.07,3.53-.98,5.6-5.98-13.04-18.83-23.81-30.83-33.05-4,14.89-3.69,29.9.31,44.94-12.29-12.63-30.94-17.42-47.73-10.47,11.1,3.29,21.13,8.35,29.39,16.07,6.62,6.18,12.2,14.7,7.18,22.45-1.75,2.7-3.73,5.04-6.05,7.43-9.65,9.99-16.52,21.82-19.49,35.69-7.36,34.37,7.17,72.13,33.36,95.23,3.97,3.5,7.98,6.59,12.64,9.24,15.84,8.99,33.78,12.39,51.88,9.86,6.21-.87,11.9.62,15.86,5.61.78.98,2.2,1.71,2.03,3.64-7.8-4.33-18.67-3.03-26.41,1.13-11.03,5.93-10.21,20.45-3.55,31.69-6.68-2.04-12.66-1.33-17.6,2.98-9.91,8.65-11.37,22.08-3.39,33.32,4.12,5.81,11.43,8.96,18.29,6.37,6.44-2.44,6.57-11.31,7.1-11.58,2.95-1.55,10.49,15.16.75,30.83-4.15,6.68-10.7,10.2-18.43,10.63-6.8.37-12.9-1.18-18.48-5.1-7.21-5.06-12.31-12.9-12.67-21.87-.05-1.15.33-2.49.97-3.04,2.4-2.09,5.61,1.89,8.33,3.97,2.28.18,3.31-3.3,3.73-5.1,1.5-6.48.28-12.71-3.23-17.9,0,0-12.43-20.17-13.24-21.53-3.44-5.8-5.46-12.44-6.35-19.07-.78-5.81.56-11.14,3.89-15.73l3.27-4.34c-5.39-3.15-10.49-6.87-15.23-11.14l-6.79-6.76-5.54-6.21-.75-.92c-21.78-28.94-30.65-62.41-24.98-94.23.85-4.79,2.2-9.54,4.1-14.45-4.07-.34-8.05-.26-12.12.32l-13.4,1.91c-6.66.95-12.43-2.66-15.23-8.62-1.27-2.7-2.54-5.24-3.19-8.23-1.36-6.25-3.3-12.15-5.01-18.34-1.5-5.44-.78-10.81-.07-16.79-6.65,5.4-10.34,13.45-11.34,21.94.17,1.15-.97.71-.86-.21-3.81-4.94-6.74-9.78-10.22-15.21-1.97,7.46-2.12,14.57-1.68,22.46-7.5-4.22-14.72-7.03-22.82-9.8-.17,10.62,1.95,20.72,6.52,30.81-13.29-3.74-22.72-2.61-33.04,5.81-.38.54.18,1.14.81.81,6.1.32,12.17.64,17.61,3.36l13.84,8.53c9.69,5.98,14.56,14.92,9.16,25.18-8.13,15.45-11.46,28.85-8.96,46.4,3.66,25.65,18.59,48.41,40.85,61.58,17.5,10.36,33.81,11.09,53.44,8.3,9.65-1.37,18.94,3.92,21.62,13.84-6.06-4.86-12.08-8.74-19.51-8.55-10.5.26-16.12,9-14,12.78.46.81,1.44,1.35,2.67,1.64l7.71,1.79c8.16,1.89,11.82,14.47,13.36,22.94,2.85,15.69,8.38,30.22,17.25,43.44,3.08,4.6,5.2,9.26,7.08,14.41,1.15,3.16,2.48,6.19,2.41,9.71-5.9,3.41-11.02,7.63-15.08,12.94-3.46,4.53-4.55,10.11-3.28,15.63,1.83,7.93,7.29,13.91,14.65,17.24,1.94.88,3.85,1.59,5.48,3l-.07,8.38c-.03,3.08-7.72,8.22-12.35,17.4-4.51,8.92-3.25,18.45,2.7,26.28l11.64,11.31c2.89,3.6-.81,9.97-3.94,12.55l-9.9,8.16c-6.1,6.18-8.47,14.58-6.1,23.01,3.23,11.53,12.61,16.56,23.8,20.2l-1.64,43.38c-.34,9.08.56,17.56,2.97,26.25-2.31,1.35-4.46,2.33-5.97,4.31-5.51,7.21-3.49,17.51,4.05,22.44.25,2.46.41,4.61-.03,6.79-9.59,4.01-14.66,14.63-11.02,24.4l-3.68,4.37c-1.57,1.86-.37,4.27.69,6.28l-.58.76c-9.84,8.04-12.34,21.65-13.7,33.99l-3.13,28.26-.15.86-.18.84c-1.55,7.18-3.7,14.05-7.69,20.17l-5.12,7.87-.34.63c-.82,1.54-1.25,3.01-.41,3.78l.53.49.63.39.66.34.67.32.69.3,11.14,3.25c7.79,2.27,15.68,3.47,23.85,3.66l1.02.02c.35,0,.63.01,1.06-.11.57.17.49.83.18,1.1-3.99,3.46-5.21,7.73-4.65,12.86,1.45,13.53,2.96,26.81,6.16,40.03l4.66,19.25c1.27,5.24,3.68,11.21,7.04,8.82,3.95-2.8,9.57-30.91,10.95-39.72l4.29-27.53c1.53-9.82-6.56-14.44-3.85-14.51,10.32-.28,28.86-3.16,37.5-7.14,1.45-.67,2.31-2.31,1.5-3.81l-8.55-15.82c-3.65-8.32-5.59-16.96-6.31-26.01l-1.58-19.77c-.6-7.52-2.06-14.65-4.82-21.62-1.74-4.39-4.27-8.12-7.95-11.05-1.09-.86,2.84-5.27-1.66-9.26-1.33-1.18-1.92-2.1-1.41-3.9,2.63-9.2-1.85-18.47-10.49-22.53l-.76-7.19c6.25-3.83,9.15-11.31,6.71-18.22-.68-1.93-1.99-4.11-3.55-5.28l-5.38-4.04c2.63-5.87,3.81-11.86,3.59-18.39l-1.5-46.08c33.39,9.68,67.87,12.74,102.58,16.19l.37,32.43c-3.23,2.59-5.68,6.07-5.6,10.19.08,4.28,2.63,7.61,5.87,10.42-.66,3.81-1.86,8.52-.43,13.02-8.89,4.33-12.07,14.09-8.8,23.18.59,1.64-3.67,2.24-2.73,8.2-6.59,7.39-9.68,18.68-10.91,28.49l-1.3,23c-.76,13.48-4.34,25.99-11.88,37.09-.87,1.28-1.35,3,.09,3.88,2.78,1.69,5.85,2.8,9.09,3.31l21.94,3.38c.68-.12,1.08.26.79.69l-.89,1.31c-4.13,6.14-3.8,13.48-2.64,20.99,2.41,15.56,5.61,30.65,9.59,45.84.47,1.78,1.16,3.44,2.42,4.63.68.64,1.86.49,2.44-.06,3.18-3.09,7.66-27.37,9.15-35.93,1.43-8.22,3.03-16.05,3.21-24.36.1-4.68-2.1-8.81-4.3-12.89,9.12-.42,17.77-1.7,26.48-3.55,3.24-.69,5.83-2.32,4.76-4.25l-3.71-6.74c-7.29-13.22-7.88-25.65-8.58-40.32l-.97-20.46c-1-8.14-3.41-15.88-8.33-22.38-.74-.97-1.85-1.23-1.12-2.88,1.68-3.78-3.37-6.55-3.28-6.81l.59-1.55c3.19-8.37-.2-17.05-7.89-21.42.44-3.79.93-7.19-.5-10.5-.43-1-1.51-2.6-.3-3.49,3.67-2.68,5.41-6.42,5.37-10.71-.04-4.19-3.16-7.41-6.15-9.99l.76-23.66.09-6.08c0-.53.34-.98.6-1.09.39-.15.64-.02,1.4.03,35.97,2.69,71.64,3.76,108.13,3.89l-.67,25.06c-.16,6.04.84,11.69,3.24,17.14.5,1.13,0,2.09-.96,2.6-4.74,2.51-7.44,6.97-7.61,11.93-.18,5.2,2.19,9.78,6.65,12.92l-.31,9.23c-10.35,4.65-12.6,15.06-9.84,25.86.59,2.32-6.46,3.23-4.23,8.65.23.56,1.21,1.88.4,2.58-11.36,9.75-13.21,24.82-14.17,39.53l-2.41,19.6c-1.61,13.11-6.71,24.93-13.82,35.96-.83,1.28-.83,2.63.33,3.57l.58.47c7.48,3.43,15.44,4.86,23.6,6.16l11.73,1.2.83.07.92.04,1,.02,1.04.02c.51.08.58.51.13.84-2.05,2.76-4.96,5.83-4.75,9.75,1.04,19.14,4.37,37.62,9.14,56.07l4.62,15.42c.35,1.18,1.51,1.81,2.54,1.82,3.23.04,4.14-3.78,5.11-7.68l3.88-15.61c3.62-14.56,6.18-29.11,7.46-44.08,1.03-5.76-.39-10.68-4.25-15.02-.25-.32-.59-.88-.48-1.16.18-.46.95-.35,1.47-.36,12.44-.45,24.33-2.48,36.03-6.63,1.5-.53,5.22-2.44,4.04-4.47-7.85-11.4-13.09-23.88-15.12-37.66l-2.05-19.31c-1.31-12.33-3.58-32.44-13.83-38.95-1.05-.67-.26-1.29.04-2.04,2.14-5.23-4.67-6.84-3.78-9.79,2.88-9.51-.24-19.83-8.73-24.45-2.21-1.21-.3-4.55-1.25-9.6,4.46-3.13,6.95-8.3,6.29-13.81-.6-5.02-3.93-9.34-8.95-11.62-1.55-.71,3.33-7.91,3.06-16.82l-.77-25.24c-.02-.62-.22-1.29.01-1.71.26-.47.67-.48,1.59-.48,36.4-.18,72.32-1.21,109.32-4.02l.6,31.97c-1.78,1.61-3.5,3-4.46,5.12-2.5,5.49-.25,11.38,4.72,14.69.39.26.94,1.1.65,1.57-1.74,2.84-1.87,5.78-1.62,9.12l.19,2.57c.02.34-.07,1.27-.44,1.45-8.77,4.34-10.14,13.14-7.67,22.58.35,1.35-4.26,3.39-2.54,6.51.51.93.29,1.47-.44,2.09-2.45,2.06-3.77,4.9-5.1,7.87-4.2,9.39-5.36,19.44-5.99,29.72l-1.48,24.01c-1.17,9.61-4.99,18.18-9.83,26.47-.56.97-1.2,2.19-.74,3.25,1.58,3.62,22.08,6.36,29.76,7.06l1.18-.03c.55,0,.81.67.39,1.3-3.04,4.65-3.9,9.56-3.26,15.1,1.97,17.06,5.29,33.67,9.37,50.33.96,3.93,2.73,7.63,5.39,6.8.68-.21,1.51-1.04,1.77-2.07l2.44-9.51,6.46-30.35,2.01-17.28c.82-7.03-3.52-13.47-3.5-13.7.06-.75.5-.5,1.15-.56,8.41-.73,25.1-3.1,30.44-7.1.52-.38.53-1.69.07-2.25-6.66-8.12-10.89-17.37-12.52-27.82l-1.53-21.29c-1.02-14.15-.51-29.65-11.02-40.65,2.14-6.28-3.81-6.96-2.62-9.76.93-2.17,1.05-4.45,1.06-6.85.03-5.87-3.03-10.97-8.16-13.67-2.1-1.11.88-7.34-1.98-12.35-.32-.57-.88-2.25-.19-2.68,3.56-2.19,5.5-5.54,5.72-9.5.21-3.82-1.64-7.54-4.9-9.94-1.3-.96-1.75-1.58-1.68-3.24l1.35-29.8,42.83-4.35,45.98-7.79.83-.2,10.96-2.99c.35-.09.95-.42,1.15-.28.49.36.32,1.11.3,1.75l-1.1,40.76c-.19,7.19.96,13.77,3.07,20.5.42,1.33-4.42,2.29-6.87,6.06-4.68,7.19-2.62,16.82,4.45,21.72.58,2.24.51,4.47.16,6.81-9.82,3.66-13.94,14.17-10.54,23.49,1.04,2.85-4.9,4.23-3.58,9.02l1.04,1.41c.35.47-.18,1.06-.76,1.53-9.52,7.81-11.45,23-12.52,35.16l-1.81,20.63c-.98,11.22-7.07,26.59-13.91,35.91-.79,1.07-1.28,2.71-.16,3.59,1.4,1.11,3.01,1.74,4.74,2.32,10.77,3.6,21.82,5.31,33.26,6.03.45.03,1.23-.11,1.63.07,1.26.58-5.77,5.81-5.4,11.85.82,13.14,2.73,25.73,5.61,38.45l3.97,17.52c.98,4.32,2.87,12.03,4.81,13.08,1.38.75,2.97.75,4.26-.05,1.1-.69,1.96-1.94,2.35-3.45l4.03-15.36,3.65-17.27,4.17-29.68c.39-2.76.18-5.33-1.05-7.86l-.32-.66-2.51-4-.45-.54-.44-.56c-.21-.27-.45-.63-.46-.84-.03-.47.34-.59,1.04-.64,12.5-.86,29.12-3.31,39.67-9.18,1.64-.91.14-3.42-.67-4.43-4.4-5.55-7.79-11.3-9.98-17.98-2.24-6.88-3.91-13.57-4.59-20.78l-1.5-15.89c-1.08-11.41-3.15-23.76-10.09-32.75-2.22-2.87-4.53-3.3-3.85-4.47,1.63-2.8.08-6.26-2.32-8.29-1.41-1.19-1.08-2.52-.74-4.18,1.73-8.4-2.16-16.23-9.53-20.41-.81-.46-1.44-.96-1.41-2.07l.2-6.59c4.65-3.61,6.78-9.06,6.19-14.77-.99-9.54-9.29-10.54-8.83-12.21l.59-2.1c2.13-7.61,2.37-15.13,2.2-23.11l-.89-40.79c-.03-1.33.88-1.33,1.85-1.68,5.47-1.98,10.81-4.27,14.89-8.53,9.93-10.37,9.66-27.05-1.88-36.46l-7.97-6.49c-3.31-2.69-5.48-7.42-4.54-11.73.86-2.08,3.38-3.5,5.05-4.88,4.95-4.1,9.23-8.69,11.63-14.74,2.55-6.43,1.75-13.55-1.5-19.64-2.61-4.9-6.18-8.87-9.96-12.89-1.62-1.72-2.7-3.35-2.41-6.01.18-1.69-.57-4.61.57-6.14,1.69-1.69,4.28-2.36,6.47-3.54,8.14-4.36,13.76-12.57,13.21-22.13-.33-5.66-3.43-10.61-7.2-14.66-3.04-3.27-6.77-5.48-10.42-7.99-.81-.55-.6-1.47-.47-2.31,1.58-10.23,6.36-18.88,12-27.36,4.72-7.11,7.86-14.72,10.59-22.77l4.78-19.57c1.09-4.46,2.1-8.61,4.42-12.59,5.81-10,12.33-6.74,15.99-9.45,1.46-1.08,1.49-4.75-.05-6.98l-.39-.57-.5-.58c-5.68-6.59-15.05-6.68-22.42-2.15l-.61.31-.6.38-.59.39-.59.41c-1.65,1.16-3.18,2.42-4.64,4.1-.56.73-1.26-.03-.65-.9,2.34-6.35,8.11-11.47,14.89-12.43,3.58-.51,6.91.22,10.54.75,18.13,2.62,36.86-.55,52.3-10.71,6.58-4.33,12.07-9.7,17.18-15.61,9.8-11.32,16.44-24.48,19.58-39.08,3.34-15.55,1.56-31.12-5.09-45.48l-4.68-9.32c-2.38-4.74-4.12-10.36-2.23-15.53,2.79-7.64,8.1-13.5,14.16-18.76M544.93,670.61c-128.75,0-233.12-13.47-233.12-30.08s104.37-30.08,233.12-30.08,233.12,13.47,233.12,30.08-104.37,30.08-233.12,30.08"/>
</svg>