<?xml version="1.0" encoding="UTF-8"?>
<svg id="Layer_1" data-name="Layer 1" xmlns="http://www.w3.org/2000/svg" width="1165.53" height="479.21" viewBox="0 0 1165.53 479.21">
  <path d="M68.38,331.59c3.4-3.06,5.95-5.61,7.65-7.65,1.7-2.04,3.23-4.25,4.59-6.63,2.38-5.27,3.57-10.97,3.57-17.1v-120.94c0-3.91-.17-7.02-.51-9.31-.34-2.3-1.02-4.72-2.04-7.27-1.02-2.55-2.21-4.8-3.57-6.76-1.36-1.95-3.57-4.72-6.63-8.29h74.5c-2.89,3.41-5.06,6.17-6.51,8.29-1.45,2.13-2.68,4.3-3.7,6.51-1.87,5.1-2.81,10.72-2.81,16.84v39.29h72.21v-39.29c0-6.12-.94-11.74-2.81-16.84-1.02-2.21-2.26-4.38-3.7-6.51-1.45-2.12-3.62-4.89-6.51-8.29h74.5c-5.27,6.12-8.59,11.06-9.95,14.8-1.19,2.38-1.96,4.68-2.3,6.89-.34,2.21-.51,5.53-.51,9.95v120.94c0,6.12,1.19,11.83,3.57,17.1,1.7,3.06,3.57,5.7,5.61,7.91,1.53,1.7,3.74,3.83,6.63,6.38h-80.12c3.34-3.06,5.84-5.57,7.51-7.53,1.67-1.95,3.12-4.21,4.36-6.76,2.46-5.1,3.69-10.72,3.69-16.84v-51.54h-72.21v51.54c0,2.89.34,5.79,1.04,8.68.69,2.89,1.77,5.96,3.25,9.19,1.47,3.23,5.23,7.65,11.28,13.27h-80.12Z" style="fill: #f4ebd8;"/>
  <path d="M280.92,331.59c4.08-3.23,6.47-5.19,7.14-5.87,2.38-2.04,4.93-4.85,7.65-8.42,3.74-5.1,6.89-10.72,9.44-16.84l50.01-120.94c2.55-5.95,3.83-11.48,3.83-16.58,0-2.38-.38-4.68-1.15-6.89-.77-2.21-2.09-5.01-3.96-8.42h57.92l58.94,152.84c2.38,6.3,5.27,11.91,8.68,16.84,2.04,2.72,3.91,4.94,5.61,6.63,1.7,1.7,4.68,4.25,8.93,7.65h-85.48c3.57-3.57,6.08-6.8,7.53-9.7,1.44-2.89,2.17-6.21,2.17-9.95s-.68-7.4-2.04-11.48l-6.89-19.39h-59.71l-7.14,19.39c-1.02,2.89-1.75,5.27-2.17,7.14-.43,1.87-.64,3.92-.64,6.12,0,3.23.55,6,1.66,8.29,1.1,2.3,3.53,5.49,7.27,9.57h-67.62ZM380.43,196.1l-20.41,55.37h39.8l-19.39-55.37Z" style="fill: #f4ebd8;"/>
  <path d="M503.92,331.59c3.97-3.57,6.61-6.12,7.91-7.65,1.3-1.53,2.81-3.74,4.54-6.63,2.42-5.27,3.63-10.88,3.63-16.84v-121.2c0-6.46-.94-12.08-2.81-16.84-1.02-2.38-2.13-4.63-3.32-6.76-1.19-2.12-3.15-4.8-5.87-8.04h96.19c11.74,0,22.88,1.96,33.43,5.87,10.54,3.92,19.47,9.53,26.79,16.84,16.16,15.14,24.24,37.51,24.24,67.1s-7.91,51.2-23.73,68.38c-15.82,17.18-36.83,25.77-63.02,25.77h-97.98ZM569.24,176.46v125.02c4.25.85,7.74,1.36,10.46,1.53,2.72.17,4.85.25,6.38.25,16.5,0,29.34-5.7,38.53-17.09,9.19-11.39,13.78-27.56,13.78-48.48s-4.51-35.98-13.52-46.69c-9.02-10.72-22.12-16.07-39.29-16.07-4.59,0-10.04.51-16.33,1.53Z" style="fill: #f4ebd8;"/>
  <path d="M676.92,331.59c4.08-3.23,6.47-5.19,7.14-5.87,2.38-2.04,4.93-4.85,7.66-8.42,3.74-5.1,6.89-10.72,9.44-16.84l50.01-120.94c2.55-5.95,3.83-11.48,3.83-16.58,0-2.38-.38-4.68-1.15-6.89-.77-2.21-2.08-5.01-3.95-8.42h57.92l58.94,152.84c2.38,6.3,5.27,11.91,8.67,16.84,2.04,2.72,3.91,4.94,5.61,6.63,1.7,1.7,4.68,4.25,8.93,7.65h-85.48c3.57-3.57,6.08-6.8,7.53-9.7,1.44-2.89,2.17-6.21,2.17-9.95s-.68-7.4-2.04-11.48l-6.89-19.39h-59.71l-7.14,19.39c-1.02,2.89-1.75,5.27-2.17,7.14-.43,1.87-.64,3.92-.64,6.12,0,3.23.55,6,1.66,8.29,1.1,2.3,3.53,5.49,7.27,9.57h-67.62ZM776.42,196.1l-20.41,55.37h39.8l-19.39-55.37Z" style="fill: #f4ebd8;"/>
  <path d="M900.68,331.59c6.29-5.44,10.54-10.29,12.76-14.54,2.21-4.25,3.32-9.78,3.32-16.58v-120.94c0-6.63-.85-12.25-2.55-16.84-.85-2.21-1.96-4.34-3.32-6.38-1.36-2.04-3.49-4.93-6.38-8.68h83.43c46.95,0,70.42,15.05,70.42,45.16,0,21.6-12.93,36.15-38.78,43.63l14.29,22.45,8.93,12.25,21.69,28.58c5.1,5.96,9.99,11.19,14.67,15.69,4.68,4.51,11.1,9.91,19.26,16.2h-51.03c-4.59,0-8.8-1.1-12.63-3.32-3.83-2.22-8.04-6.14-12.63-11.76-8.51-10.39-17.27-22.41-26.28-36.04-5.79-9.37-10.33-17.16-13.65-23.38-3.32-6.22-7.36-14.61-12.12-25.18,6.29-.51,11.44-1.32,15.44-2.42,4-1.11,7.53-2.68,10.59-4.73,10.54-6.98,15.82-15.42,15.82-25.3,0-16.35-11.38-24.53-34.13-24.53h-4.36c-1.54,0-3.93.25-7.18.77v124.72c0,6.82,1,12.27,3.01,16.36,2.01,4.09,6.02,9.03,12.04,14.82h-80.63Z" style="fill: #f4ebd8;"/>
</svg>