<?xml version="1.0" encoding="UTF-8"?>
<svg id="Layer_1" data-name="Layer 1" xmlns="http://www.w3.org/2000/svg" width="1165.53" height="479.21" viewBox="0 0 1165.53 479.21">
  <g>
    <path d="M68.38,298.39c3.4-3.06,5.95-5.61,7.65-7.65,1.7-2.04,3.23-4.25,4.59-6.63,2.38-5.27,3.57-10.97,3.57-17.1v-120.94c0-3.91-.17-7.02-.51-9.31-.34-2.3-1.02-4.72-2.04-7.27-1.02-2.55-2.21-4.8-3.57-6.76-1.36-1.95-3.57-4.72-6.63-8.29h74.5c-2.89,3.41-5.06,6.17-6.51,8.29-1.45,2.13-2.68,4.3-3.7,6.51-1.87,5.1-2.81,10.72-2.81,16.84v39.29h72.21v-39.29c0-6.12-.94-11.74-2.81-16.84-1.02-2.21-2.26-4.38-3.7-6.51-1.45-2.12-3.62-4.89-6.51-8.29h74.5c-5.27,6.12-8.59,11.06-9.95,14.8-1.19,2.38-1.96,4.68-2.3,6.89-.34,2.21-.51,5.53-.51,9.95v120.94c0,6.12,1.19,11.83,3.57,17.1,1.7,3.06,3.57,5.7,5.61,7.91,1.53,1.7,3.74,3.83,6.63,6.38h-80.12c3.34-3.06,5.84-5.57,7.51-7.53,1.67-1.95,3.12-4.21,4.36-6.76,2.46-5.1,3.69-10.72,3.69-16.84v-51.54h-72.21v51.54c0,2.89.34,5.79,1.04,8.68.69,2.89,1.77,5.96,3.25,9.19,1.47,3.23,5.23,7.65,11.28,13.27h-80.12Z" style="fill: #1f3a6e;"/>
    <path d="M280.92,298.39c4.08-3.23,6.47-5.19,7.14-5.87,2.38-2.04,4.93-4.85,7.65-8.42,3.74-5.1,6.89-10.72,9.44-16.84l50.01-120.94c2.55-5.95,3.83-11.48,3.83-16.58,0-2.38-.38-4.68-1.15-6.89-.77-2.21-2.09-5.01-3.96-8.42h57.92l58.94,152.84c2.38,6.3,5.27,11.91,8.68,16.84,2.04,2.72,3.91,4.94,5.61,6.63,1.7,1.7,4.68,4.25,8.93,7.65h-85.48c3.57-3.57,6.08-6.8,7.53-9.7,1.44-2.89,2.17-6.21,2.17-9.95s-.68-7.4-2.04-11.48l-6.89-19.39h-59.71l-7.14,19.39c-1.02,2.89-1.75,5.27-2.17,7.14-.43,1.87-.64,3.92-.64,6.12,0,3.23.55,6,1.66,8.29,1.1,2.3,3.53,5.49,7.27,9.57h-67.62ZM380.43,162.9l-20.41,55.37h39.8l-19.39-55.37Z" style="fill: #1f3a6e;"/>
    <path d="M503.92,298.39c3.97-3.57,6.61-6.12,7.91-7.65,1.3-1.53,2.81-3.74,4.54-6.63,2.42-5.27,3.63-10.88,3.63-16.84v-121.2c0-6.46-.94-12.08-2.81-16.84-1.02-2.38-2.13-4.63-3.32-6.76-1.19-2.12-3.15-4.8-5.87-8.04h96.19c11.74,0,22.88,1.96,33.43,5.87,10.54,3.92,19.47,9.53,26.79,16.84,16.16,15.14,24.24,37.51,24.24,67.1s-7.91,51.2-23.73,68.38c-15.82,17.18-36.83,25.77-63.02,25.77h-97.98ZM569.24,143.26v125.02c4.25.85,7.74,1.36,10.46,1.53,2.72.17,4.85.25,6.38.25,16.5,0,29.34-5.7,38.53-17.09,9.19-11.39,13.78-27.56,13.78-48.48s-4.51-35.98-13.52-46.69c-9.02-10.72-22.12-16.07-39.29-16.07-4.59,0-10.04.51-16.33,1.53Z" style="fill: #1f3a6e;"/>
    <path d="M676.92,298.39c4.08-3.23,6.47-5.19,7.14-5.87,2.38-2.04,4.93-4.85,7.66-8.42,3.74-5.1,6.89-10.72,9.44-16.84l50.01-120.94c2.55-5.95,3.83-11.48,3.83-16.58,0-2.38-.38-4.68-1.15-6.89-.77-2.21-2.08-5.01-3.95-8.42h57.92l58.94,152.84c2.38,6.3,5.27,11.91,8.67,16.84,2.04,2.72,3.91,4.94,5.61,6.63,1.7,1.7,4.68,4.25,8.93,7.65h-85.48c3.57-3.57,6.08-6.8,7.53-9.7,1.44-2.89,2.17-6.21,2.17-9.95s-.68-7.4-2.04-11.48l-6.89-19.39h-59.71l-7.14,19.39c-1.02,2.89-1.75,5.27-2.17,7.14-.43,1.87-.64,3.92-.64,6.12,0,3.23.55,6,1.66,8.29,1.1,2.3,3.53,5.49,7.27,9.57h-67.62ZM776.42,162.9l-20.41,55.37h39.8l-19.39-55.37Z" style="fill: #1f3a6e;"/>
    <path d="M900.68,298.39c6.29-5.44,10.54-10.29,12.76-14.54,2.21-4.25,3.32-9.78,3.32-16.58v-120.94c0-6.63-.85-12.25-2.55-16.84-.85-2.21-1.96-4.34-3.32-6.38-1.36-2.04-3.49-4.93-6.38-8.68h83.43c46.95,0,70.42,15.05,70.42,45.16,0,21.6-12.93,36.15-38.78,43.63l14.29,22.45,8.93,12.25,21.69,28.58c5.1,5.96,9.99,11.19,14.67,15.69,4.68,4.51,11.1,9.91,19.26,16.2h-51.03c-4.59,0-8.8-1.1-12.63-3.32-3.83-2.22-8.04-6.14-12.63-11.76-8.51-10.39-17.27-22.41-26.28-36.04-5.79-9.37-10.33-17.16-13.65-23.38-3.32-6.22-7.36-14.61-12.12-25.18,6.29-.51,11.44-1.32,15.44-2.42,4-1.11,7.53-2.68,10.59-4.73,10.54-6.98,15.82-15.42,15.82-25.3,0-16.35-11.38-24.53-34.13-24.53h-4.36c-1.54,0-3.93.25-7.18.77v124.72c0,6.82,1,12.27,3.01,16.36,2.01,4.09,6.02,9.03,12.04,14.82h-80.63Z" style="fill: #1f3a6e;"/>
  </g>
  <g>
    <path d="M192.15,377.64v-1.16h6.03v-32.66h-3.53c-1.45.06-2.69.58-3.71,1.55-1.02.97-1.81,2.22-2.37,3.74-.56,1.52-.85,3.15-.88,4.92h-1.62v-11.37h30.06v11.37h-1.62c-.03-1.82-.34-3.51-.93-5.06-.59-1.55-1.42-2.79-2.48-3.73-1.07-.94-2.37-1.42-3.92-1.42h-2.78v32.66h6.03v1.16h-18.28Z" style="fill: #1f3a6e;"/>
    <path d="M230.1,377.64v-1.16h5.1v-32.66h-5.1v-1.16h16.42v1.16h-5.1v15.26h13.36v-15.26h-5.1v-1.16h16.42v1.16h-5.1v32.66h5.1v1.16h-16.42v-1.16h5.1v-16.24h-13.36v16.24h5.1v1.16h-16.42Z" style="fill: #1f3a6e;"/>
    <path d="M279.32,343.82v-1.16h16.42v1.16h-16.42ZM279.32,377.64v-1.16h16.42v1.16h-16.42ZM284.43,376.95v-34.29h6.22v34.29h-6.22Z" style="fill: #1f3a6e;"/>
    <path d="M336.3,378.2l-20.23-32.24h-.19v30.53h5.1v1.16h-12.02v-1.16h5.1v-32.66h-5.1v-1.16h12.57l14.2,22.55h.19v-21.39h-4.64v-1.16h11.09v1.16h-4.64v34.38h-1.44Z" style="fill: #1f3a6e;"/>
    <path d="M355.55,377.64v-1.16h5.1v-32.66h-5.1v-1.16h15.96v1.16h-4.64v32.66h4.64v1.16h-15.96ZM365.85,363.26v-2.37l15.5-17.4h2l-17.49,19.76ZM380.69,376.95l-13.36-17.12,4.41-3.94,16.75,21.06h-7.79ZM375.17,377.64v-1.16h16.15v1.16h-16.15ZM375.27,343.82v-1.16h13.13v1.16h-13.13Z" style="fill: #1f3a6e;"/>
    <path d="M423.05,343.82v-1.16h17.31v1.16h-17.31ZM423.05,377.64v-1.16h19.62c1.55,0,2.85-.45,3.92-1.34s1.89-2.09,2.48-3.57c.59-1.48.9-3.09.93-4.82h1.62v10.9h-28.58ZM428.53,376.95v-34.29h6.22v34.29h-6.22Z" style="fill: #1f3a6e;"/>
    <path d="M465.83,343.82v-1.16h16.42v1.16h-16.42ZM465.83,377.64v-1.16h16.42v1.16h-16.42ZM470.93,376.95v-34.29h6.22v34.29h-6.22Z" style="fill: #1f3a6e;"/>
    <path d="M495.47,377.64v-1.16h5.1v-32.66h-5.1v-1.16h15.96v1.16h-4.64v32.66h4.64v1.16h-15.96ZM505.77,363.26v-2.37l15.5-17.4h2l-17.49,19.76ZM520.62,376.95l-13.36-17.12,4.41-3.94,16.75,21.06h-7.79ZM515.1,377.64v-1.16h16.15v1.16h-16.15ZM515.19,343.82v-1.16h13.13v1.16h-13.13Z" style="fill: #1f3a6e;"/>
    <path d="M567.38,352.17c-.03-1.51-.34-2.9-.93-4.15s-1.42-2.27-2.48-3.04c-1.07-.77-2.37-1.16-3.92-1.16h-18.93v-1.16h27.88v9.51h-1.62ZM541.12,377.64v-1.16h20.32c1.54,0,2.85-.45,3.92-1.34,1.07-.9,1.89-2.09,2.48-3.57.59-1.48.9-3.09.93-4.82h1.62v10.9h-29.28ZM546.6,376.95v-33.82h6.22v33.82h-6.22ZM560.01,367.62c-.03-1.73-.26-3.09-.7-4.08-.43-.99-1.17-1.69-2.2-2.11-1.04-.42-2.51-.63-4.43-.63v-1.16c1.92,0,3.41-.19,4.48-.56,1.07-.37,1.81-1.02,2.23-1.95.42-.93.62-2.23.62-3.9h1.62v14.38h-1.62Z" style="fill: #1f3a6e;"/>
    <path d="M605.75,377.64v-1.16h11.13v1.16h-11.13ZM609.74,376.95l12.11-34.84h1.39l-2.83,7.98-9.14,26.86h-1.53ZM614.8,366.69v-1.16h15.03v1.16h-15.03ZM628.67,376.95l-8.54-25.52h-.19l-.32-1.35,2.23-7.98h1.39l11.65,34.84h-6.22ZM623.1,377.64v-1.16h15.91v1.16h-15.91Z" style="fill: #1f3a6e;"/>
    <path d="M699.24,354.03c-.03-1.82-.34-3.51-.93-5.06-.59-1.55-1.42-2.79-2.48-3.73-1.07-.94-2.37-1.42-3.92-1.42h-19.39v-1.16h28.35v11.37h-1.62ZM672.51,377.64v-1.16h16.79v1.16h-16.79ZM677.99,376.95v-34.29h6.22v34.29h-6.22ZM691.4,367.62c-.03-1.73-.26-3.09-.7-4.08-.43-.99-1.17-1.69-2.2-2.11-1.04-.42-2.51-.63-4.43-.63v-1.16c1.92,0,3.41-.19,4.48-.56,1.07-.37,1.81-1.02,2.23-1.95.42-.93.63-2.23.63-3.9h1.62v14.38h-1.62Z" style="fill: #1f3a6e;"/>
    <path d="M732.55,378.2c-2.26,0-4.36-.48-6.31-1.44-1.95-.96-3.66-2.28-5.13-3.97-1.47-1.68-2.61-3.61-3.43-5.78s-1.23-4.45-1.23-6.87.41-4.7,1.23-6.87c.82-2.16,1.96-4.09,3.43-5.78,1.47-1.68,3.18-3.01,5.13-3.97,1.95-.96,4.05-1.44,6.31-1.44s4.36.48,6.31,1.44c1.95.96,3.66,2.28,5.13,3.97,1.47,1.69,2.61,3.61,3.43,5.78.82,2.17,1.23,4.45,1.23,6.87s-.41,4.7-1.23,6.87c-.82,2.17-1.96,4.09-3.43,5.78-1.47,1.69-3.18,3.01-5.13,3.97-1.95.96-4.05,1.44-6.31,1.44ZM732.55,376.81c1.58,0,2.92-.25,4.01-.77s2-1.38,2.69-2.62c.7-1.24,1.2-2.94,1.51-5.1.31-2.17.46-4.9.46-8.21s-.16-6.05-.46-8.21c-.31-2.17-.81-3.86-1.51-5.08-.7-1.22-1.59-2.08-2.69-2.58-1.1-.49-2.44-.74-4.01-.74s-2.92.25-4.01.74c-1.1.5-2,1.36-2.69,2.6-.7,1.24-1.2,2.94-1.51,5.1-.31,2.17-.46,4.9-.46,8.21s.15,6.05.46,8.21c.31,2.17.81,3.87,1.51,5.1.7,1.24,1.59,2.1,2.69,2.6s2.44.74,4.01.74Z" style="fill: #1f3a6e;"/>
    <path d="M780.71,378.2c-2.48,0-4.63-.35-6.47-1.04-1.84-.7-3.26-1.75-4.27-3.18-1.01-1.42-1.51-3.22-1.51-5.38v-24.77h-5.43v-1.16h16.05v1.16h-4.41v24.73c0,2.88.66,4.93,1.99,6.17,1.33,1.24,3.16,1.86,5.47,1.86,2.47,0,4.44-.66,5.89-2,1.45-1.33,2.18-3.34,2.18-6.03v-24.73h-4.87v-1.16h11.27v1.16h-4.87v24.73c0,3.31-.92,5.75-2.76,7.31-1.84,1.56-4.6,2.34-8.28,2.34Z" style="fill: #1f3a6e;"/>
    <path d="M836.94,378.2l-20.23-32.24h-.19v30.53h5.1v1.16h-12.02v-1.16h5.1v-32.66h-5.1v-1.16h12.57l14.2,22.55h.19v-21.39h-4.64v-1.16h11.09v1.16h-4.64v34.38h-1.44Z" style="fill: #1f3a6e;"/>
    <path d="M856.1,377.64v-1.16h15.54c1.92,0,3.54-.23,4.87-.7s2.41-1.29,3.25-2.48c.83-1.19,1.45-2.85,1.83-4.99.39-2.13.58-4.86.58-8.17s-.19-6.03-.58-8.17-1-3.8-1.86-4.99c-.85-1.19-1.94-2.02-3.27-2.48-1.33-.46-2.95-.7-4.87-.7h-15.5v-1.16h16.98c2.32,0,4.48.47,6.47,1.42s3.75,2.23,5.27,3.87,2.69,3.51,3.53,5.61c.83,2.1,1.25,4.3,1.25,6.59s-.42,4.49-1.28,6.59-2.03,3.97-3.53,5.61c-1.5,1.64-3.25,2.93-5.27,3.87s-4.18,1.42-6.5,1.42h-16.93ZM861.2,376.95v-34.29h6.22v34.29h-6.22Z" style="fill: #1f3a6e;"/>
    <path d="M930.33,352.17c-.03-1.51-.34-2.9-.93-4.15s-1.42-2.27-2.48-3.04c-1.07-.77-2.37-1.16-3.92-1.16h-18.93v-1.16h27.88v9.51h-1.62ZM904.07,377.64v-1.16h20.32c1.55,0,2.85-.45,3.92-1.34s1.89-2.09,2.48-3.57c.59-1.48.9-3.09.93-4.82h1.62v10.9h-29.28ZM909.54,376.95v-33.82h6.22v33.82h-6.22ZM922.95,367.62c-.03-1.73-.26-3.09-.7-4.08-.43-.99-1.17-1.69-2.2-2.11-1.04-.42-2.51-.63-4.43-.63v-1.16c1.92,0,3.41-.19,4.48-.56s1.81-1.02,2.23-1.95c.42-.93.63-2.23.63-3.9h1.62v14.38h-1.62Z" style="fill: #1f3a6e;"/>
    <path d="M958.3,359.69v-1.39h3.85c1.86,0,3.36-.2,4.52-.6,1.16-.4,2.01-1.17,2.55-2.3.54-1.13.81-2.76.81-4.89,0-1.89-.2-3.3-.6-4.25-.4-.94-1.01-1.58-1.83-1.93-.82-.34-1.86-.51-3.13-.51h-16.05v-1.16h17.91c2.01,0,3.84.32,5.5.95s2.97,1.54,3.94,2.71c.97,1.18,1.46,2.61,1.46,4.31,0,1.79-.6,3.37-1.81,4.73-1.21,1.36-2.93,2.42-5.17,3.18-2.24.76-4.94,1.14-8.1,1.14h-3.85ZM948.42,377.64v-1.16h17.35v1.16h-17.35ZM953.52,376.95v-34.29h6.22v34.29h-6.22ZM977.23,377.64c-1.52,0-2.88-.29-4.11-.88-1.22-.59-2.19-1.42-2.9-2.48-.71-1.07-1.1-2.31-1.16-3.74l-.14-3.67c-.09-2.44-.73-4.25-1.9-5.43s-2.68-1.76-4.5-1.76l3.53-.51h1.72v.19c1.33.31,2.61.91,3.83,1.81,1.22.9,2.23,1.98,3.04,3.25.8,1.27,1.21,2.64,1.21,4.13v2.41c0,2.13.23,3.59.7,4.36.46.77,1.3,1.16,2.5,1.16h1.76v1.16h-3.57Z" style="fill: #1f3a6e;"/>
  </g>
</svg>