<?xml version="1.0" encoding="UTF-8"?>
<svg id="Layer_1" data-name="Layer 1" xmlns="http://www.w3.org/2000/svg" width="1165.53" height="479.21" viewBox="0 0 1165.53 479.21">
  <g>
    <path d="M446.42,289.04c2.23-2.01,3.9-3.68,5.01-5.01,1.11-1.34,2.12-2.79,3.01-4.35,1.56-3.45,2.34-7.19,2.34-11.2v-79.22c0-2.56-.11-4.6-.33-6.1-.22-1.51-.67-3.09-1.34-4.76s-1.45-3.15-2.34-4.43c-.89-1.28-2.34-3.09-4.35-5.43h48.8c-1.9,2.23-3.32,4.04-4.26,5.43-.95,1.39-1.76,2.82-2.42,4.26-1.23,3.34-1.84,7.02-1.84,11.03v25.74h47.3v-25.74c0-4.01-.61-7.69-1.84-11.03-.67-1.45-1.48-2.87-2.42-4.26-.95-1.39-2.37-3.2-4.26-5.43h48.8c-3.46,4.01-5.63,7.24-6.52,9.69-.78,1.56-1.28,3.07-1.5,4.51-.22,1.45-.33,3.62-.33,6.52v79.22c0,4.01.78,7.74,2.34,11.2,1.11,2.01,2.34,3.73,3.68,5.18,1,1.12,2.45,2.51,4.35,4.18h-52.48c2.19-2.01,3.83-3.65,4.92-4.93,1.09-1.28,2.04-2.76,2.85-4.43,1.61-3.34,2.42-7.02,2.42-11.03v-33.76h-47.3v33.76c0,1.9.22,3.79.68,5.68.46,1.89,1.16,3.9,2.13,6.02.96,2.12,3.43,5.01,7.39,8.69h-52.48Z" style="fill: #1f3a6e;"/>
    <path d="M585.64,289.04c2.67-2.12,4.24-3.4,4.68-3.84,1.56-1.34,3.23-3.18,5.01-5.52,2.45-3.34,4.51-7.02,6.19-11.03l32.76-79.22c1.67-3.9,2.51-7.52,2.51-10.87,0-1.56-.25-3.06-.75-4.51-.5-1.45-1.37-3.29-2.59-5.52h37.94l38.61,100.11c1.56,4.12,3.45,7.8,5.68,11.03,1.34,1.78,2.56,3.23,3.68,4.35,1.11,1.12,3.06,2.79,5.85,5.01h-55.99c2.34-2.34,3.98-4.46,4.93-6.35.95-1.89,1.42-4.07,1.42-6.52s-.45-4.85-1.34-7.52l-4.51-12.7h-39.11l-4.68,12.7c-.67,1.9-1.14,3.46-1.42,4.68-.28,1.23-.42,2.56-.42,4.01,0,2.12.36,3.93,1.09,5.43.72,1.5,2.31,3.59,4.76,6.27h-44.29ZM650.82,200.29l-13.37,36.27h26.07l-12.7-36.27Z" style="fill: #1f3a6e;"/>
    <path d="M731.71,289.04c2.6-2.34,4.33-4.01,5.18-5.01.85-1,1.84-2.45,2.97-4.35,1.58-3.45,2.38-7.13,2.38-11.03v-79.39c0-4.23-.61-7.91-1.84-11.03-.67-1.56-1.39-3.03-2.17-4.43-.78-1.39-2.06-3.15-3.85-5.27h63.01c7.69,0,14.98,1.28,21.89,3.84,6.91,2.56,12.76,6.24,17.55,11.03,10.58,9.92,15.88,24.57,15.88,43.96s-5.18,33.54-15.54,44.79c-10.36,11.26-24.12,16.88-41.28,16.88h-64.18ZM774.5,187.42v81.89c2.79.56,5.07.89,6.85,1,1.78.11,3.18.17,4.18.17,10.81,0,19.22-3.73,25.24-11.2,6.02-7.46,9.03-18.05,9.03-31.75s-2.95-23.57-8.86-30.59c-5.91-7.02-14.49-10.53-25.74-10.53-3.01,0-6.58.33-10.7,1Z" style="fill: #1f3a6e;"/>
    <path d="M845.03,289.04c2.67-2.12,4.24-3.4,4.68-3.84,1.56-1.34,3.23-3.18,5.01-5.52,2.45-3.34,4.51-7.02,6.18-11.03l32.76-79.22c1.67-3.9,2.51-7.52,2.51-10.87,0-1.56-.25-3.06-.75-4.51-.5-1.45-1.37-3.29-2.59-5.52h37.94l38.61,100.11c1.56,4.12,3.45,7.8,5.68,11.03,1.34,1.78,2.56,3.23,3.68,4.35,1.11,1.12,3.06,2.79,5.85,5.01h-55.99c2.34-2.34,3.98-4.46,4.93-6.35.95-1.89,1.42-4.07,1.42-6.52s-.45-4.85-1.34-7.52l-4.51-12.7h-39.11l-4.68,12.7c-.67,1.9-1.14,3.46-1.42,4.68-.28,1.23-.42,2.56-.42,4.01,0,2.12.36,3.93,1.09,5.43s2.31,3.59,4.76,6.27h-44.29ZM910.21,200.29l-13.37,36.27h26.07l-12.7-36.27Z" style="fill: #1f3a6e;"/>
    <path d="M991.6,289.04c4.12-3.56,6.91-6.74,8.36-9.53,1.45-2.78,2.17-6.41,2.17-10.86v-79.22c0-4.35-.56-8.02-1.67-11.03-.56-1.45-1.28-2.84-2.17-4.18-.89-1.34-2.29-3.23-4.18-5.68h54.65c30.75,0,46.13,9.86,46.13,29.58,0,14.15-8.47,23.68-25.4,28.58l9.36,14.71,5.85,8.02,14.21,18.72c3.34,3.9,6.54,7.33,9.61,10.28,3.06,2.95,7.27,6.49,12.62,10.61h-33.43c-3.01,0-5.77-.72-8.27-2.18s-5.26-4.02-8.27-7.7c-5.57-6.81-11.31-14.68-17.21-23.6-3.79-6.14-6.77-11.24-8.94-15.32-2.17-4.07-4.82-9.57-7.94-16.49,4.12-.33,7.49-.86,10.11-1.59,2.62-.72,4.93-1.76,6.94-3.1,6.91-4.57,10.36-10.1,10.36-16.57,0-10.71-7.45-16.07-22.35-16.07h-2.86c-1.01,0-2.58.17-4.71.5v81.69c0,4.46.66,8.04,1.97,10.71,1.31,2.68,3.94,5.91,7.89,9.71h-52.81Z" style="fill: #1f3a6e;"/>
  </g>
  <g>
    <path d="M95.17,123.14c-.08-.04-.18,0-.21.08-.03.07,0,.16.05.2,9.43,6.51,19.32,12.29,29.37,17.77,3.36,1.81,6.74,3.58,10.21,5.2.08.04.18,0,.21-.08.03-.07,0-.16-.05-.2-9.42-6.52-19.32-12.29-29.37-17.77-3.36-1.81-6.74-3.58-10.21-5.2Z" style="fill: #1f3a6e;"/>
    <path d="M94.1,106.83c1.92,1.3,4.29,2.43,5.89,3.13.21.09.23.37.04.5l-1.47,1.01c-.07.05-.07.15,0,.2l24.95,17.97c.09.07.2-.06.12-.14l-5.76-5.94s.01-.1.06-.07c4.38,2.5,8.35,4.27,9.65,4.83.1.04.18-.08.1-.15-1-1-4.1-4.02-8.05-7.17-.04-.03,0-.1.05-.08l7.66,3.16c.11.04.19-.11.09-.17l-25.95-16.54c-.07-.04-.16,0-.18.07l-.4,1.74c-.05.22-.32.3-.48.14-1.24-1.23-3.17-3.01-5.09-4.31-2.14-1.45-5.02-2.81-6.7-3.55-.15-.06-.28,0-.35.1-.07.11-.08.26.04.37,1.31,1.28,3.64,3.46,5.78,4.91Z" style="fill: #1f3a6e;"/>
    <path d="M79.38,132.45c2.08,1.03,4.58,1.83,6.26,2.3.22.06.28.34.11.49l-1.32,1.2c-.06.06-.05.16.02.19l55.5,29.45c.13.07.25-.11.13-.2l-8.22-6.43c-.05-.04,0-.13.06-.1,5.91,2.37,11.17,3.9,12.89,4.38.13.04.21-.13.1-.21-1.42-1.07-5.82-4.33-11.29-7.58-.06-.04-.02-.13.04-.11l10.11,2.63c.14.04.21-.16.08-.22l-57.1-26.26c-.08-.03-.16.02-.17.1l-.15,1.78c-.02.22-.28.34-.46.21-1.4-1.05-3.55-2.56-5.63-3.58-2.31-1.14-5.36-2.1-7.12-2.61-.15-.04-.28.03-.34.15-.06.11-.04.26.09.36,1.47,1.09,4.08,2.93,6.39,4.08Z" style="fill: #1f3a6e;"/>
    <path d="M137.12,120.43c.05-.06.06-.15.02-.19-1.96-1.98-4.03-3.83-6.12-5.64-6.32-5.39-12.86-10.53-19.92-14.97-.05-.03-.12-.01-.17.05,0,0,0,0,0,.01,0,0,0,0-.01,0-.05.07-.05.14,0,.18,5.94,5.85,12.44,11.03,19.14,15.94,2.24,1.63,4.52,3.21,6.9,4.66.05.03.13,0,.18-.06Z" style="fill: #1f3a6e;"/>
    <path d="M171.45,90.54c2.11,3.18,4.26,6.33,6.55,9.4.05.07.15.09.22.03.06-.05.08-.13.05-.2-5.24-10.19-11.25-19.94-17.53-29.51-2.11-3.18-4.26-6.33-6.55-9.4-.05-.07-.15-.09-.22-.03-.06.05-.08.13-.05.2,5.24,10.19,11.25,19.94,17.53,29.51Z" style="fill: #1f3a6e;"/>
    <path d="M179.93,30.38c.67.03,1.34.07,1.93.37l1.52.94c1.07.66,1.6,1.64,1.01,2.77-.89,1.7-1.26,3.17-.98,5.1.4,2.82,2.04,5.32,4.49,6.77,1.92,1.14,3.72,1.22,5.87.91,1.06-.15,2.08.43,2.38,1.52-.67-.53-1.33-.96-2.14-.94-1.15.03-1.77.99-1.54,1.4.05.09.16.15.29.18l.85.2c.9.21,1.3,1.59,1.47,2.52.31,1.72.92,3.32,1.9,4.77.34.51.57,1.02.78,1.58.13.35.27.68.26,1.07-.65.37-1.21.84-1.66,1.42-.38.5-.5,1.11-.36,1.72.2.87.8,1.53,1.61,1.89.21.1.42.17.6.33v.92c-.01.34-.86.9-1.37,1.91-.5.98-.36,2.03.3,2.89l1.28,1.24c.32.4-.09,1.1-.43,1.38l-1.09.9c-.67.68-.93,1.6-.67,2.53.36,1.27,1.39,1.82,2.62,2.22l-.18,4.77c-.04,1,.06,1.93.33,2.88-.25.15-.49.26-.66.47-.61.79-.38,1.92.45,2.47.03.27.04.51,0,.75-1.05.44-1.61,1.61-1.21,2.68l-.4.48c-.17.2-.04.47.08.69l-.06.08c-1.08.88-1.36,2.38-1.51,3.73l-.34,3.11-.02.09-.02.09c-.17.79-.41,1.54-.84,2.22l-.56.86-.04.07c-.09.17-.14.33-.04.42l.06.05.07.04.07.04.07.03.08.03,1.22.36c.86.25,1.72.38,2.62.4h.11s.07,0,.12,0c.06.02.05.09.02.12-.44.38-.57.85-.51,1.41.16,1.49.33,2.95.68,4.4l.51,2.11c.14.58.4,1.23.77.97.43-.31,1.05-3.4,1.2-4.36l.47-3.03c.17-1.08-.72-1.59-.42-1.59,1.13-.03,3.17-.35,4.12-.78.16-.07.25-.25.16-.42l-.94-1.74c-.4-.91-.61-1.86-.69-2.86l-.17-2.17c-.07-.83-.23-1.61-.53-2.38-.19-.48-.47-.89-.87-1.21-.12-.09.31-.58-.18-1.02-.15-.13-.21-.23-.15-.43.29-1.01-.2-2.03-1.15-2.48l-.08-.79c.69-.42,1.01-1.24.74-2-.07-.21-.22-.45-.39-.58l-.59-.44c.29-.65.42-1.3.39-2.02l-.16-5.06c3.67,1.06,7.46,1.4,11.27,1.78l.04,3.56c-.35.28-.62.67-.61,1.12,0,.47.29.84.64,1.14-.07.42-.2.94-.05,1.43-.98.48-1.33,1.55-.97,2.55.06.18-.4.25-.3.9-.72.81-1.06,2.05-1.2,3.13l-.14,2.53c-.08,1.48-.48,2.86-1.31,4.08-.1.14-.15.33.01.43.31.19.64.31,1,.36l2.41.37c.08-.01.12.03.09.08l-.1.14c-.45.67-.42,1.48-.29,2.31.26,1.71.62,3.37,1.05,5.04.05.2.13.38.27.51.07.07.2.05.27,0,.35-.34.84-3.01,1.01-3.95.16-.9.33-1.76.35-2.68.01-.51-.23-.97-.47-1.42,1-.05,1.95-.19,2.91-.39.36-.08.64-.25.52-.47l-.41-.74c-.8-1.45-.87-2.82-.94-4.43l-.11-2.25c-.11-.89-.37-1.74-.92-2.46-.08-.11-.2-.14-.12-.32.18-.42-.37-.72-.36-.75l.07-.17c.35-.92-.02-1.87-.87-2.35.05-.42.1-.79-.06-1.15-.05-.11-.17-.29-.03-.38.4-.29.59-.7.59-1.18,0-.46-.35-.81-.68-1.1l.08-2.6v-.67c.01-.06.05-.11.08-.12.04-.02.07,0,.15,0,3.95.3,7.87.41,11.88.43l-.07,2.75c-.02.66.09,1.28.36,1.88.05.12,0,.23-.11.29-.52.28-.82.77-.84,1.31-.02.57.24,1.08.73,1.42l-.03,1.01c-1.14.51-1.38,1.65-1.08,2.84.07.26-.71.36-.46.95.03.06.13.21.04.28-1.25,1.07-1.45,2.73-1.56,4.34l-.27,2.15c-.18,1.44-.74,2.74-1.52,3.95-.09.14-.09.29.04.39l.06.05c.82.38,1.7.53,2.59.68l1.29.13h.09s.1.01.1.01h.11s.11,0,.11,0c.06,0,.06.06.01.09-.23.3-.55.64-.52,1.07.11,2.1.48,4.13,1,6.16l.51,1.69c.04.13.17.2.28.2.35,0,.46-.42.56-.84l.43-1.72c.4-1.6.68-3.2.82-4.84.11-.63-.04-1.17-.47-1.65-.03-.04-.06-.1-.05-.13.02-.05.1-.04.16-.04,1.37-.05,2.67-.27,3.96-.73.17-.06.57-.27.44-.49-.86-1.25-1.44-2.62-1.66-4.14l-.23-2.12c-.14-1.35-.39-3.56-1.52-4.28-.12-.07-.03-.14,0-.22.24-.57-.51-.75-.42-1.08.32-1.05-.03-2.18-.96-2.69-.24-.13-.03-.5-.14-1.05.49-.34.76-.91.69-1.52-.07-.55-.43-1.03-.98-1.28-.17-.08.37-.87.34-1.85l-.08-2.77c0-.07-.02-.14,0-.19.03-.05.07-.05.17-.05,4-.02,7.95-.13,12.01-.44l.07,3.51c-.2.18-.38.33-.49.56-.27.6-.03,1.25.52,1.61.04.03.1.12.07.17-.19.31-.21.64-.18,1l.02.28s0,.14-.05.16c-.96.48-1.11,1.44-.84,2.48.04.15-.47.37-.28.72.06.1.03.16-.05.23-.27.23-.41.54-.56.86-.46,1.03-.59,2.14-.66,3.27l-.16,2.64c-.13,1.06-.55,2-1.08,2.91-.06.11-.13.24-.08.36.17.4,2.43.7,3.27.78h.13c.06,0,.09.07.04.14-.33.51-.43,1.05-.36,1.66.22,1.87.58,3.7,1.03,5.53.11.43.3.84.59.75.07-.02.17-.11.19-.23l.27-1.05.71-3.33.22-1.9c.09-.77-.39-1.48-.38-1.5,0-.08.06-.06.13-.06.92-.08,2.76-.34,3.34-.78.06-.04.06-.19,0-.25-.73-.89-1.2-1.91-1.38-3.06l-.17-2.34c-.11-1.56-.06-3.26-1.21-4.47.24-.69-.42-.76-.29-1.07.1-.24.12-.49.12-.75,0-.65-.33-1.21-.9-1.5-.23-.12.1-.81-.22-1.36-.04-.06-.1-.25-.02-.29.39-.24.6-.61.63-1.04.02-.42-.18-.83-.54-1.09-.14-.11-.19-.17-.18-.36l.15-3.27,4.71-.48,5.05-.86.09-.02,1.2-.33s.1-.05.13-.03c.05.04.03.12.03.19l-.12,4.48c-.02.79.11,1.51.34,2.25.05.15-.49.25-.76.67-.51.79-.29,1.85.49,2.39.06.25.06.49.02.75-1.08.4-1.53,1.56-1.16,2.58.11.31-.54.46-.39.99l.11.15c.04.05-.02.12-.08.17-1.05.86-1.26,2.53-1.38,3.86l-.2,2.27c-.11,1.23-.78,2.92-1.53,3.95-.09.12-.14.3-.02.39.15.12.33.19.52.26,1.18.4,2.4.58,3.65.66.05,0,.14-.01.18,0,.14.06-.63.64-.59,1.3.09,1.44.3,2.83.62,4.22l.44,1.93c.11.48.32,1.32.53,1.44.15.08.33.08.47,0,.12-.08.22-.21.26-.38l.44-1.69.4-1.9.46-3.26c.04-.3.02-.59-.11-.86l-.03-.07-.28-.44-.05-.06-.05-.06s-.05-.07-.05-.09c0-.05.04-.07.11-.07,1.37-.09,3.2-.36,4.36-1.01.18-.1.01-.38-.07-.49-.48-.61-.86-1.24-1.1-1.98-.25-.76-.43-1.49-.5-2.28l-.16-1.75c-.12-1.25-.35-2.61-1.11-3.6-.24-.32-.5-.36-.42-.49.18-.31,0-.69-.25-.91-.16-.13-.12-.28-.08-.46.19-.92-.24-1.78-1.05-2.24-.09-.05-.16-.11-.15-.23l.02-.72c.51-.4.75-1,.68-1.62-.11-1.05-1.02-1.16-.97-1.34l.06-.23c.23-.84.26-1.66.24-2.54l-.1-4.48c0-.15.1-.15.2-.18.6-.22,1.19-.47,1.64-.94,1.09-1.14,1.06-2.97-.21-4.01l-.88-.71c-.36-.3-.6-.82-.5-1.29.09-.23.37-.38.55-.54.54-.45,1.01-.96,1.28-1.62.28-.71.19-1.49-.16-2.16-.29-.54-.68-.97-1.09-1.42-.18-.19-.3-.37-.27-.66.02-.19-.06-.51.06-.67.19-.19.47-.26.71-.39.89-.48,1.51-1.38,1.45-2.43-.04-.62-.38-1.17-.79-1.61-.33-.36-.74-.6-1.15-.88-.09-.06-.07-.16-.05-.25.17-1.12.7-2.07,1.32-3.01.52-.78.86-1.62,1.16-2.5l.52-2.15c.12-.49.23-.95.49-1.38.64-1.1,1.35-.74,1.76-1.04.16-.12.16-.52,0-.77l-.04-.06-.05-.06c-.62-.72-1.65-.73-2.46-.24l-.07.03-.07.04-.07.04-.06.05c-.18.13-.35.27-.51.45-.06.08-.14,0-.07-.1.26-.7.89-1.26,1.64-1.37.39-.06.76.02,1.16.08,1.99.29,4.05-.06,5.75-1.18.72-.48,1.33-1.07,1.89-1.71,1.08-1.24,1.81-2.69,2.15-4.29.37-1.71.17-3.42-.56-5l-.51-1.02c-.26-.52-.45-1.14-.25-1.71.31-.84.89-1.48,1.56-2.06.72-.62,1.56-1.04,2.55-1.23-.18-.27-.57-.27-.87-.39l-.1-.02c-1.68-.31-2.41.39-2.46.35-.04-.03-.03-.09-.02-.15l.14-.73c.14-.71.2-1.4.17-2.14,0-.07,0-.14-.08-.1l-.17.08c-1.05.49-2,1.11-2.9,1.81-.07-.06-.05-.11-.05-.14v-.11s0-.11,0-.11v-.1s-.12-.81-.12-.81l-.03-.08c-.2-.63-.4-1.23-.88-1.68-.39-.37-.86-.71-.78-.47.3.95.29,1.93.07,2.91-.15.66-.35,1.29-.75,1.82-.35.46-.85.77-1.43.77l-.9-.09c-.72-.07-1.42-.09-2.13.06-.07.01-.1.05-.08.1l.06.14c.92,2.18.64,5.12-.17,7.34-.62,1.67-1.65,3.11-2.88,4.38-.68.7-1.44,1.23-2.29,1.71-.1.06-.07.14-.01.22l1.01,1.39c.4.55.55,1.16.42,1.83-.12.63-.28,1.24-.6,1.8l-1.45,2.22s0,.01-.01.02l-.02.04h0c-.16.26-.28.56-.34.88-.17.88.19,1.79.56,1.6.2-.1.74-.63.8-.22.18,1.49-.9,2.83-2.4,3-.28.03-.53.05-.81.02-2.02-.22-2.86-3.08-2.25-4.07l.04-.07.04-.07.07-.12c.04-.07.15-.06.16,0l.03.21c.19.8,1.07,1.17,1.8.82.64-.31,1.08-.86,1.29-1.55.33-1.07.02-2.26-.87-2.95-.52-.41-1.18-.51-1.8-.32-.09.03-.18.11-.2.02,0-.03.06-.1.07-.13l.04-.08.03-.08.03-.08c.22-.5.36-1.02.34-1.57l-.02-.1c-.09-.51-.3-.91-.75-1.16l-.06-.05-.07-.04c-.65-.33-1.33-.42-2.06-.35h-.1s-.31.08-.31.08c-.41.09.28-.56,1.4-.57l2.26-.04c1.85-.15,3.55-.89,4.93-2.13l.69-.69.54-.61c1.96-2.61,3.02-5.83,2.44-9.09-.15-.85-.47-1.62-.86-2.37-.29-.56-.69-1-1.1-1.47l-1.18-1.33c-.52-.76-.21-1.79.26-2.59.71-1.21,1.71-2.14,3.05-2.87-.86-.24-1.81,0-2.65.37l-.07.04-.07.04c-.61.33-1.14.78-1.57,1.33l-.06.07s-.04.06-.06.05c-.03-.01-.01-.11,0-.14l.1-.62c.13-.77.1-1.53,0-2.3l-.15-1.24-.03-.1s-.05-.02-.07.01l-1.11,1.03c-.84.78-1.62,1.59-2.15,2.61-.06-.63-.08-1.2-.29-1.77-.25-.69-.64-1.32-1.16-1.84-.38-.39-.89-.6-1.37-.75-.02,0-.03,0-.03-.01-.04-.05-.1.02-.04.05.01,0,.02.02,0,.03,1.17,1.4,1.25,2.96.89,4.75-.19.95-1.14,1.35-2.09,1.42-1.89.14-3.46.7-4.9,1.94-1.54,1.32-2.55,3.09-3.11,5.03-.86,2.98-.59,6.18,1.21,8.73.63.9,1.41,1.6,2.24,2.3.84.71,1.27,1.76,1,2.83l-.49,1.92c-1.49-.63-3.08-.02-3.78,1.35-.55,1.07-.36,2.29.63,3.03l.45-.64c.18-.25.6-.46.87-.23.47.4.54,1.11.35,1.67-.19.58-.53,1.04-.97,1.45-.79.73-1.76,1.12-2.84,1.26-1.91.24-3.82-.29-5.22-1.6-.75-.7-1.14-1.65-1.18-2.66,0-.22.04-.45.16-.61.08-.1.21,0,.27.07.99,1.2,2.71,1.22,3.84.21,1.03-.92,1.34-2.41.86-3.71-.52-1.4-1.95-2.44-3.42-2.5-1.27-.05-2.44.42-3.41,1.23-.42.35-.69.78-1.04,1.24,0-1.2.31-2.75,1.36-3.22l1.36-.61c.93-.42,1.85-.81,2.67-1.43,1.48-1.11,2.5-2.61,3.09-4.36.57-1.7.78-3.46.62-5.25-.17-1.94-.84-3.76-2.1-5.25-.91-1.07-2.08-1.81-3.35-2.39-.79-.36-1.47-.85-1.4-1.77.1-1.4,1.02-2.7,2.01-3.66l.58-.57c-.98,0-1.83.38-2.62.93-.78.55-1.33,1.24-1.72,2.15-.12-.84-.28-1.54-.57-2.28-.37-.94-.78-1.82-1.28-2.72l-.65,1.31c-.35.71-.66,1.41-.9,2.17l-.31,1.5c-.74-1.72-2.46-2.79-4.14-3.28-.01,0-.02,0-.03-.01-.05-.05-.11.02-.05.06,0,0,0,.01.01.02l1.38,1.89c.63.86,1.39,2.34.94,3.25-.22.46-.66.75-1.12.96-2.44,1.14-4.23,2.63-5.1,5.24-.42,1.25-.56,2.54-.48,3.86.14,2.42.76,4.78,2.26,6.68.29.37.6.63.93.94.7.65,1.48,1.13,2.35,1.53l1.95.88c.67.3,1.14.81,1.4,1.51.22.6.36,1.24.3,1.92-.3-.5-.53-.89-.94-1.23-.79-.66-1.77-1.08-2.81-1.21-1.16-.14-2.29.25-3.16,1.01-1.06.92-1.43,2.32-1.04,3.66.29,1,.98,1.75,1.97,2.09,1,.34,2.06.06,2.77-.73.09-.1.19-.19.35-.19.24.53.23,1.07.11,1.64-.19.89-.68,1.65-1.4,2.21-.45.35-.92.65-1.48.82-2.21.69-4.85.44-6.59-1.16-.64-.59-1.19-1.5-.74-2.23.11-.17.23-.25.39-.26.18,0,.32.06.43.22l.33.49c.07.11.24.18.37.07.53-.43.96-1.02,1.05-1.73.13-1.06-.36-2.09-1.21-2.7-.75-.54-1.65-.7-2.54-.37-.33-.87-.6-1.73-.73-2.65-.13-.93.21-1.74.9-2.36l1.35-1.21c.48-.52.89-1.03,1.27-1.65,1.05-1.75,1.47-3.78,1.25-5.82-.16-1.45-.52-2.84-1.11-4.18-.74-1.68-1.92-3.1-3.5-4.05-.81-.49-1.67-.81-2.59-1.02-1.24-.29-2.48.06-3.23-.55-.34-.27-.53-.7-.56-1.15-.11-1.57.24-3.09,1.03-4.51-1.62.63-2.63,2.31-2.8,3.97-.02.2,0,.39-.11.62-.66-1.43-2.07-2.62-3.39-3.63-.44,1.64-.41,3.29.03,4.94-1.35-1.39-3.4-1.91-5.25-1.15,1.22.36,2.32.92,3.23,1.77.73.68,1.34,1.62.79,2.47-.19.3-.41.55-.66.82-1.06,1.1-1.82,2.4-2.14,3.92-.81,3.78.79,7.93,3.66,10.46.44.38.88.72,1.39,1.02,1.74.99,3.71,1.36,5.7,1.08.68-.1,1.31.07,1.74.62.09.11.24.19.22.4-.86-.48-2.05-.33-2.9.12-1.21.65-1.12,2.25-.39,3.48-.73-.22-1.39-.15-1.93.33-1.09.95-1.25,2.43-.37,3.66.45.64,1.26.98,2.01.7.71-.27.72-1.24.78-1.27.32-.17,1.15,1.67.08,3.39-.46.73-1.18,1.12-2.03,1.17-.75.04-1.42-.13-2.03-.56-.79-.56-1.35-1.42-1.39-2.4,0-.13.04-.27.11-.33.26-.23.62.21.92.44.25.02.36-.36.41-.56.17-.71.03-1.4-.35-1.97,0,0-1.37-2.22-1.45-2.37-.38-.64-.6-1.37-.7-2.1-.09-.64.06-1.22.43-1.73l.83-1.1c.07,0,.22-.3.12-.35-2.82-1.63-4.83-4.3-5.62-7.46-.52-2.09-.47-4.16.4-6.15-.73-.15-1.4-.17-2.11-.07l-1.47.21c-.73.1-1.37-.29-1.67-.95-.14-.3-.28-.58-.35-.9-.15-.69-.36-1.33-.55-2.02-.17-.6-.09-1.19,0-1.84-.73.59-1.14,1.48-1.25,2.41.02.13-.11.08-.09-.02-.42-.54-.74-1.07-1.12-1.67-.22.82-.23,1.6-.19,2.47-.82-.46-1.62-.77-2.51-1.08-.02,1.17.21,2.28.72,3.39-1.46-.41-2.5-.29-3.63.64-.04.06.02.13.09.09ZM197.63,68.94c-.17-1.24.97-1.86,1.2-1.95l2.16-.8.37,3.27-2.42.77s-1.17-.27-1.31-1.3ZM248.74,70.37c1.18.3,2.31.64,3.45,1.09v.87s-3.01-.82-3.01-.82c-3.04-.63-6.09-1.15-9.19-1.47-4.29-.43-8.53-.66-12.87-.67l-7.35.15-5.92.41c-3.47.32-6.87.83-10.27,1.55-1.23.26-2.37.56-3.56.95v-.91s2.98-.95,2.98-.95l-.21-2.11-.46-3.94-2.51.83-.08-1.1c1.28-.57,2.55-.97,3.89-1.32,4.85-1.27,9.9-1.85,14.91-2.22,3.56-.26,7.1-.3,10.69-.24,3.39.06,6.73.34,10.09.73,2.79.32,5.51.75,8.23,1.4l3.19.92,1.78.73-.08,1.02c-1.07-.42-2.09-.76-3.19-1.02l-.64,5.96c0,.09.08.16.14.18ZM199.26,112.02c-.37-1.43-.64-2.87-.8-4.35.49-.02.89.29.99.76.12.41.11.82.11,1.29l-.3,2.3ZM200.5,102.88c.5.01.96.09,1.43.24.81.23,1.58.54,2.28,1.16-.57.25-1.14.31-1.74.41-2.51.41-5.04.32-7.55-.4.42-.63.76-1.23.95-1.94.25-.96.4-1.91.49-2.91l.29-2.44c.07-.6.27-1.14.61-1.65.38-.57,1.01-.89,1.71-.94.31.46.48.96.61,1.49.54,2.17.31,4.78-.25,6.96l1.16.03ZM211.68,80.33l-5.28-.58c-1.47-.16-2.85-.5-4.27-.87-.6-.15-1.15-.33-1.7-.58l.03-1c.8.4,1.54.64,2.38.82,2.36.54,4.71.92,7.12,1.12l1.73.15v.93ZM213.15,80.45l-.02-.93,4.07.27,7.98.2v.9c-4.01,0-8-.14-12.04-.44ZM226.1,110.54l-.26,2.06c-.38-1.52-.63-2.97-.81-4.5.53,0,.91.27,1.01.77.12.54.13,1.08.06,1.67ZM230.87,104.58c-.77.34-1.59.5-2.44.6-2.14.25-4.84.24-6.91-.53.65-1.06,1.06-2.16,1.2-3.37l.4-3.42c.06-.55.14-1.07.33-1.58.34-.9,1.14-1.54,2.1-1.6.35.5.52,1.01.65,1.58.52,2.24.3,4.73-.25,7.01,1.76-.11,3.45.26,4.92,1.32ZM239.15,80.44l-7.76.39-4.42.07v-.92s6.83-.15,6.83-.15l5.35-.3v.9ZM251.79,78.34l-.87.33c-3.28,1-6.84,1.38-10.29,1.67v-.94c2.94-.25,5.79-.62,8.64-1.23.89-.19,1.71-.43,2.52-.82v.98ZM252.77,109.28l-.32,2.51c-.36-1.45-.6-2.89-.77-4.43.43-.05.81.21.94.64.13.39.21.82.15,1.28ZM256.85,103.54c.19.11.37.21.49.42-2.32.7-4.71.83-7.11.5-.7-.1-1.3-.22-1.98-.47.58-.91.96-1.84,1.15-2.88l.29-2.62.21-1.86c.07-.6.29-1.16.66-1.64.39-.5.98-.77,1.61-.84.39.72.61,1.45.73,2.25.33,2.06.21,4.09-.37,6.17,1.52-.09,2.99.23,4.31.97ZM253.97,77.62c-.17.11-.07-.31-.57-.71-.36-.29-.76-.51-1.21-.65l-2.27-.74c-1.74-.45-3.46-.77-5.25-.99l-4.07-.5c-5.54-.57-11.04-.79-16.59-.7-4.08.07-8.13.28-12.18.71-2.26.24-4.46.5-6.68.92-1.83.34-4.4.87-5.92,1.79-.36.22-.61.53-.69.94-.34-.14-.44-.49-.27-.77.73-1.26,4.94-2.18,6.61-2.51l4.66-.76c4.51-.6,9.04-.9,13.6-1,5.07-.11,10.12.02,15.15.48l3.34.34c2.49.26,4.91.68,7.35,1.24l2.82.79,1.41.61c.35.15.66.39.89.69.2.26.15.63-.13.81ZM254.57,74.68s.03.08-.03.08l.03-.08ZM254.53,74.63l-.03.08c-.6-.39-1.25-.67-1.96-.94-1.24-.42-2.46-.77-3.75-1.01l-4.7-.88-8.16-.82c-8.73-.63-18.74-.39-27.41.82l-6.1,1.17-2.91.87c-.74.22-1.38.59-2.03,1,.2-.5.62-.7,1-1.01,1.04-.57,2.16-.95,3.32-1.26l1.82-.48c3.11-.71,6.26-1.17,9.45-1.49,5.68-.58,11.35-.75,17.06-.6,3.18.08,6.31.31,9.46.61l5.36.71c2.15.36,4.23.77,6.3,1.41,1.13.35,2.6.9,3.28,1.81ZM253.95,68.62c-.14,1.02-1.31,1.3-1.31,1.3l-2.42-.77.37-3.27,2.16.8c.23.09,1.37.71,1.2,1.95ZM244.81,51.26c-.2,2.46.32,4.52,2.27,6.1-.35.04-.64-.12-.97-.17-.24-.03-.42-.1-.6-.32-.72-.87-1.14-1.87-1.35-3.02-.52.67-1.07,1.19-1.75,1.64-.49.32-1,.71-1.59.78-.49.05-.96-.1-1.49-.14,2.58-.86,4.22-2.32,5.48-4.88ZM222.26,55.15c1.97-1.36,3.26-2.95,3.59-5.37h.38c.27,1.38.87,2.64,1.77,3.74.75.83,1.61,1.48,2.65,1.99l-1.76-.03c-1.24-.9-2.21-2.08-2.79-3.54-.42,1.22-1.86,3.17-2.9,3.53-.48.17-1.03,0-1.55.02l.61-.34ZM207.41,51.27c.57,1.03,1.07,1.93,1.84,2.74,1.01,1.04,2.24,1.76,3.7,2.14l-1.57.21c-1.32-.49-2.41-1.3-3.27-2.49-.21,1.24-.67,2.36-1.49,3.25l-1.35.2c1.81-1.62,2.38-3.61,2.13-6.05ZM204.79,58.25c4.55-1.02,9.4-1.47,14.05-1.8l3.59-.15c2.22-.09,4.39-.07,6.62-.02,4.58.1,9.12.44,13.65,1.08,2.75.39,5.43.93,8.09,1.7,1.24.36,2.66.89,3.64,1.68.33.26.61.61.67,1.06-.57-.57-1.2-.93-1.93-1.22-1.45-.58-2.9-1.01-4.44-1.36-3.88-.89-7.82-1.43-11.8-1.77-7.09-.59-14.19-.6-21.31,0-3.94.33-7.81.86-11.63,1.7-1.48.33-2.87.74-4.28,1.24l-1.31.56c-.51.22-.92.55-1.32.93,0-.42.25-.71.54-.97,1.59-1.39,5.01-2.16,7.19-2.65Z" style="fill: #1f3a6e;"/>
    <path d="M161.94,45.65c1.01,2.08,2.51,4.25,3.54,5.66.13.18.01.44-.21.45l-1.78.14c-.08,0-.13.09-.1.17l19.62,43.46h0s1.71,3.78,1.71,3.78c.06.12.24.06.21-.07l-1.04-4.13-1.33-5.27c-.02-.06.07-.09.1-.04.96,1.64,1.92,3.17,2.81,4.54,1.89,2.9,3.48,5.09,4.15,5.99.07.1.23.02.2-.09-.29-1.08-1.02-3.69-2.14-6.97-.53-1.55-1.14-3.26-1.84-5.03-.02-.06.05-.11.09-.06l3.33,4.31,2.59,3.36c.08.11.25,0,.19-.12l-1.91-3.66h0s-22.05-42.28-22.05-42.28c-.04-.07-.14-.09-.19-.03l-1.21,1.31c-.15.17-.43.1-.49-.11-.46-1.68-1.25-4.2-2.26-6.28-1.13-2.32-2.95-4.94-4.03-6.42-.09-.13-.24-.14-.36-.09-.11.06-.19.18-.15.34.5,1.77,1.43,4.82,2.56,7.14Z" style="fill: #1f3a6e;"/>
    <path d="M112.64,83.18c1.7,1.57,3.88,3.05,5.35,3.99.19.12.17.4-.03.5l-1.61.78c-.07.04-.09.14-.03.19l21.95,21.54c.08.08.21-.03.14-.12l-4.79-6.74s.03-.1.07-.06c3.96,3.14,7.61,5.48,8.81,6.23.09.06.19-.05.13-.14-.83-1.13-3.45-4.6-6.87-8.31-.04-.04.01-.1.06-.07l7.09,4.28c.1.06.2-.08.11-.15l-23.14-20.28c-.06-.05-.16-.03-.19.05l-.65,1.66c-.08.21-.36.25-.5.07-1.04-1.4-2.68-3.46-4.38-5.04-1.89-1.75-4.54-3.54-6.08-4.52-.13-.09-.28-.05-.37.05-.09.09-.12.24-.02.37,1.1,1.47,3.08,3.97,4.97,5.73Z" style="fill: #1f3a6e;"/>
    <path d="M135.24,62.37c1.4,1.84,3.29,3.68,4.58,4.85.17.15.1.43-.12.49l-1.72.49c-.08.02-.11.12-.06.19l16.44,22.96s0,0,0,0l20.14,28.12c.09.12.27.01.21-.12l-4.49-9.42c-.03-.06.05-.11.1-.06,4.23,4.76,8.27,8.47,9.59,9.66.1.09.24-.02.19-.14-.79-1.59-3.28-6.46-6.73-11.81-.04-.06.03-.12.09-.08l7.88,6.86c.11.1.26-.05.17-.17l-39.43-48.94c-.05-.06-.15-.06-.2.01l-.93,1.53c-.12.19-.4.18-.5-.02-.79-1.56-2.04-3.87-3.45-5.71-1.56-2.05-3.86-4.26-5.21-5.5-.12-.11-.27-.09-.37-.02-.1.08-.16.22-.08.36.83,1.64,2.35,4.44,3.91,6.5Z" style="fill: #1f3a6e;"/>
    <path d="M153.22,104.55c2.66,2.74,5.35,5.44,8.17,8.03.07.06.17.06.23,0,.05-.06.06-.15,0-.21-7.02-9.05-14.73-17.53-22.67-25.78-2.66-2.74-5.35-5.44-8.17-8.03-.07-.06-.17-.06-.23,0-.05.06-.06.15,0,.21,7.03,9.05,14.73,17.53,22.66,25.78Z" style="fill: #1f3a6e;"/>
    <path d="M228.6,19.21c.21-.17.5-.36.65-.6l.36-1.93c-.66.34-1.12.83-1.6,1.35-.14.16-.29.31-.34.53.21.35.3.7.41,1.08l.52-.43Z" style="fill: #1f3a6e;"/>
    <path d="M337.29,162.41c10.68-4.13,21.24-8.57,31.43-13.81.07-.04.1-.12.08-.19-.03-.08-.12-.13-.2-.1-3.65,1.17-7.23,2.48-10.8,3.84-10.68,4.13-21.24,8.57-31.43,13.81-.07.04-.1.12-.08.19.03.08.12.13.2.1,3.65-1.16,7.23-2.47,10.8-3.84Z" style="fill: #1f3a6e;"/>
    <path d="M340.36,99.7s0,0-.01,0c0,0,0,0,0-.01-.05-.06-.13-.08-.17-.05-7.06,4.44-13.59,9.57-19.92,14.97-2.1,1.81-4.16,3.66-6.12,5.64-.04.04-.03.12.02.19.05.06.13.09.18.06,2.38-1.46,4.65-3.04,6.9-4.66,6.7-4.91,13.2-10.09,19.14-15.94.04-.04.04-.12,0-.18Z" style="fill: #1f3a6e;"/>
    <path d="M247.43,63.78c-2.1-.5-4.2-.84-6.34-1.15l-.5,6.29,3.31.48,3.2.54.61-5.8c.01-.21-.09-.31-.28-.36ZM245.97,68.17l-3.67-.57.28-3.4,3.71.66-.32,3.31Z" style="fill: #1f3a6e;"/>
    <path d="M316.47,146.31c.04.08.13.11.21.08,3.47-1.63,6.85-3.39,10.21-5.2,10.05-5.48,19.94-11.26,29.37-17.77.06-.04.09-.13.05-.2-.04-.08-.13-.11-.21-.08-3.46,1.63-6.85,3.39-10.21,5.2-10.05,5.48-19.95,11.25-29.37,17.77-.06.04-.09.13-.05.2Z" style="fill: #1f3a6e;"/>
    <path d="M308.37,105.25l7.09-4.28s.09.03.06.07c-3.42,3.71-6.04,7.17-6.87,8.31-.06.08.04.19.13.14,1.19-.75,4.85-3.1,8.81-6.23.04-.03.1.02.07.06l-4.79,6.74c-.07.09.06.2.14.12l21.95-21.54c.06-.06.04-.16-.03-.19l-1.61-.78c-.2-.1-.22-.38-.03-.5,1.47-.93,3.65-2.41,5.35-3.99,1.89-1.75,3.87-4.26,4.97-5.73.1-.13.07-.27-.02-.37-.09-.09-.23-.13-.37-.05-1.55.99-4.19,2.77-6.08,4.52-1.7,1.57-3.34,3.64-4.38,5.04-.13.18-.41.14-.5-.07l-.65-1.66c-.03-.08-.13-.1-.19-.05l-23.14,20.28c-.09.08.01.21.11.15Z" style="fill: #1f3a6e;"/>
    <path d="M323.92,124.07l7.66-3.16c.05-.02.09.05.05.08-3.94,3.15-7.05,6.18-8.05,7.17-.07.07,0,.19.1.15,1.29-.56,5.26-2.33,9.65-4.83.05-.03.1.03.06.07l-5.76,5.94c-.08.08.03.21.12.14l24.95-17.97c.07-.05.07-.15,0-.2l-1.47-1.01c-.19-.13-.16-.41.04-.5,1.6-.7,3.98-1.83,5.89-3.13,2.13-1.45,4.47-3.62,5.78-4.91.11-.11.11-.26.04-.37-.07-.11-.21-.17-.35-.1-1.68.74-4.56,2.1-6.7,3.55-1.92,1.3-3.85,3.09-5.09,4.31-.16.16-.43.08-.48-.14l-.4-1.74c-.02-.08-.11-.12-.18-.07l-25.95,16.54c-.1.06-.02.21.09.17Z" style="fill: #1f3a6e;"/>
    <path d="M375.32,229.17c-11.44.3-22.88.92-34.24,2.44-.08.01-.14.07-.14.15,0,.09.07.16.16.17,3.83.13,7.64.1,11.46.02,11.44-.3,22.88-.93,34.24-2.44.08-.01.14-.07.14-.15,0-.09-.07-.16-.16-.17-3.83-.13-7.64-.1-11.46-.02Z" style="fill: #1f3a6e;"/>
    <path d="M375.83,159.9l.07-1.79c0-.08-.08-.14-.16-.12l-59.92,18.96c-.14.04-.09.25.05.23l10.36-1.35c.07,0,.09.09.03.11-5.83,2.55-10.6,5.23-12.14,6.12-.11.07-.05.24.08.22,1.76-.26,7.17-1.12,13.33-2.74.07-.02.11.07.05.11l-8.95,5.36c-.13.08-.03.27.1.21l32.34-12.29s0,0,0,0l26.4-10.03c.08-.03.1-.13.05-.19l-1.16-1.36c-.15-.17-.05-.44.17-.47,1.72-.26,4.31-.75,6.5-1.51,2.44-.85,5.25-2.35,6.85-3.25.14-.08.17-.22.13-.35-.04-.12-.16-.21-.32-.19-1.81.28-4.95.85-7.39,1.7-2.19.76-4.52,1.99-6.03,2.85-.2.11-.44-.04-.43-.26Z" style="fill: #1f3a6e;"/>
    <path d="M312.31,86.59c-7.94,8.25-15.64,16.73-22.67,25.78-.05.06-.04.15,0,.21.06.07.16.07.23,0,2.82-2.59,5.51-5.29,8.17-8.03,7.94-8.25,15.63-16.73,22.66-25.78.05-.06.04-.15,0-.21-.06-.07-.16-.07-.23,0-2.81,2.59-5.51,5.3-8.17,8.03Z" style="fill: #1f3a6e;"/>
    <path d="M395.05,213.45c-2.3.25-4.85.92-6.52,1.42-.22.06-.42-.13-.36-.35l.47-1.73c.02-.08-.04-.16-.13-.15l-62.66,4.93c-.15.01-.15.22,0,.24l10.39,1.02c.07,0,.07.1,0,.12-6.26,1.17-11.51,2.7-13.21,3.22-.13.04-.11.22.02.23,1.77.15,7.24.53,13.6.34.07,0,.09.09.02.12l-9.93,3.2c-.14.04-.09.25.05.23l34.28-4.66h0l27.98-3.81c.08-.01.13-.1.09-.17l-.82-1.58c-.1-.2.05-.44.27-.42,1.74.13,4.37.25,6.67,0,2.56-.28,5.65-1.1,7.41-1.62.15-.05.22-.18.2-.31-.01-.13-.11-.24-.27-.26-1.83-.13-5.02-.29-7.58-.01Z" style="fill: #1f3a6e;"/>
    <path d="M350.08,208.16c11.34-1.54,22.65-3.42,33.77-6.15.07-.02.13-.09.12-.17,0-.09-.08-.15-.17-.15-3.82.29-7.61.73-11.39,1.23-11.34,1.54-22.65,3.41-33.77,6.14-.07.02-.13.09-.12.17,0,.09.08.15.17.15,3.82-.29,7.61-.73,11.39-1.23Z" style="fill: #1f3a6e;"/>
    <path d="M345.01,184.86c11.1-2.82,22.11-5.96,32.86-9.94.07-.03.12-.1.1-.18-.02-.09-.1-.14-.19-.13-3.76.72-7.48,1.59-11.18,2.51-11.1,2.82-22.11,5.95-32.86,9.94-.07.03-.12.1-.1.18.02.09.1.14.19.13,3.76-.72,7.48-1.59,11.18-2.51Z" style="fill: #1f3a6e;"/>
    <path d="M383.57,186.93l.28-1.77c.01-.08-.06-.15-.14-.14l-61.72,11.85c-.14.03-.12.24.02.24l10.44-.14c.07,0,.08.1.02.12-6.09,1.85-11.14,3.96-12.77,4.66-.12.05-.08.23.05.23,1.78-.05,7.25-.28,13.56-1.17.07,0,.1.08.04.11l-9.52,4.28c-.13.06-.06.26.08.23l33.55-8.43s0,0,0,0l27.38-6.88c.08-.02.12-.11.07-.18l-.99-1.48c-.13-.19,0-.44.23-.45,1.74-.06,4.37-.24,6.63-.74,2.52-.56,5.49-1.72,7.18-2.43.15-.06.2-.2.17-.33-.03-.12-.13-.23-.29-.23-1.83.07-5.02.27-7.54.83-2.26.5-4.72,1.45-6.32,2.13-.21.09-.43-.09-.39-.31Z" style="fill: #1f3a6e;"/>
    <path d="M307.48,158.45l10.11-2.63c.07-.02.1.07.04.11-5.47,3.26-9.87,6.51-11.29,7.58-.1.08-.02.24.1.21,1.71-.48,6.98-2,12.89-4.38.06-.03.12.06.06.1l-8.22,6.43c-.12.09,0,.27.13.2l55.5-29.45c.07-.04.09-.14.02-.19l-1.32-1.2c-.17-.15-.11-.43.11-.49,1.68-.48,4.19-1.28,6.26-2.3,2.31-1.14,4.92-2.98,6.39-4.08.13-.1.14-.24.09-.36-.06-.11-.18-.19-.34-.15-1.76.51-4.81,1.46-7.12,2.61-2.08,1.03-4.23,2.54-5.63,3.58-.18.14-.44.02-.46-.21l-.15-1.78c0-.08-.09-.13-.17-.1l-57.1,26.26c-.13.06-.06.26.08.22Z" style="fill: #1f3a6e;"/>
    <path d="M214.12,62.32l-1.37.17c-.24,0-.39.19-.33.44l.46,5.84,6.96-.54-.28-6.39-5.45.48ZM214.14,67.13l-.28-3.43,4.18-.39.16,3.46-4.06.36Z" style="fill: #1f3a6e;"/>
    <path d="M210.43,62.8c-2.25.33-4.39.75-6.53,1.27-.07.11-.09.21-.07.34l.71,5.74,6.48-1.09-.26-2.89-.32-3.38ZM205.66,68.39l-.41-3.32,3.71-.67.31,3.33-3.61.66Z" style="fill: #1f3a6e;"/>
    <path d="M201.64,20.99c.14-.51.38-.84.58-1.26.07-.16-.06-.43-.11-.59l-.44-1.34c-.34.54-.97,2.16-.8,2.35l.77.84Z" style="fill: #1f3a6e;"/>
    <path d="M196.44,21.7c.2.41.88.42,1.47.77-.11-.49-.11-.91-.15-1.37-.66-.4-1.34-.68-2.11-.91l.3.53.49.99Z" style="fill: #1f3a6e;"/>
    <path d="M238.94,62.38l-2.28-.24-4.68-.37-.28,6.4,5.28.38,1.76.08.4-5.99c.01-.15-.11-.23-.19-.25ZM237.46,67.04l-4.1-.32.13-3.48,4.21.36-.24,3.44Z" style="fill: #1f3a6e;"/>
    <path d="M228.86,61.7l-5.98.02c-.26,0-.48.06-.63.23-.15.16-.19.36-.19.6l.11,5.02c0,.28.21.53.5.53h6.24c.25-.01.52-.18.53-.41l.07-5.3c0-.37-.28-.69-.64-.69ZM223.56,66.52v-3.47s4.38-.02,4.38-.02v3.47s-4.38.02-4.38.02Z" style="fill: #1f3a6e;"/>
    <path d="M250.25,20.95c.24-.36.39-.61.68-.8.14-.11.17-.27.13-.45-.19-.72-.44-1.4-.79-2.11l-.53,1.59c-.06.15-.09.31-.05.47l.57,1.31Z" style="fill: #1f3a6e;"/>
    <path d="M261.15,92.08l-1.91,3.66c-.06.12.1.23.19.12l2.59-3.36,3.33-4.31c.04-.05.12,0,.09.06-.7,1.77-1.31,3.47-1.84,5.03-1.12,3.28-1.85,5.88-2.14,6.97-.03.12.12.19.2.09.67-.9,2.26-3.08,4.15-5.99.89-1.37,1.85-2.91,2.81-4.54.03-.06.12-.02.1.04l-1.33,5.27-1.04,4.13c-.03.13.15.2.21.07l1.71-3.78h0s19.62-43.46,19.62-43.46c.03-.08-.02-.16-.1-.17l-1.78-.14c-.23-.02-.35-.27-.21-.45,1.04-1.4,2.53-3.57,3.54-5.66,1.13-2.32,2.06-5.37,2.56-7.14.04-.15-.04-.28-.15-.34-.11-.06-.26-.04-.36.09-1.08,1.48-2.9,4.1-4.03,6.42-1.01,2.08-1.79,4.6-2.26,6.28-.06.22-.33.28-.49.11l-1.21-1.31c-.06-.06-.16-.05-.19.03l-22.05,42.28h0Z" style="fill: #1f3a6e;"/>
    <path d="M223.08,18.91l.98.78c.1-.88.63-1.14.09-1.64-.49-.56-1.06-.99-1.73-1.38l.34,1.67c.05.23.12.42.31.56Z" style="fill: #1f3a6e;"/>
    <path d="M253.83,21.77c.34-.27.65-.48,1.05-.64.11-.17.17-.35.21-.53.11-.51.3-.94.55-1.45-.72.3-1.29.74-1.86,1.23.07.47.08.88.05,1.39Z" style="fill: #1f3a6e;"/>
    <path d="M273,99.77c-.03.07-.02.15.05.2.07.05.17.04.22-.03,2.29-3.07,4.44-6.22,6.55-9.4,6.28-9.57,12.29-19.33,17.53-29.51.03-.07.02-.15-.05-.2-.07-.05-.17-.04-.22.03-2.29,3.07-4.44,6.22-6.55,9.4-6.28,9.57-12.29,19.32-17.53,29.51Z" style="fill: #1f3a6e;"/>
    <path d="M269.94,114.34l7.88-6.86c.05-.05.12.02.09.08-3.45,5.35-5.94,10.22-6.73,11.81-.06.12.09.23.19.14,1.32-1.19,5.36-4.9,9.59-9.66.05-.05.13,0,.1.06l-4.49,9.42c-.06.13.12.24.21.12l20.14-28.12s0,0,0,0l16.44-22.96c.05-.07.02-.16-.06-.19l-1.72-.49c-.22-.06-.28-.34-.12-.49,1.29-1.17,3.18-3.01,4.58-4.85,1.56-2.05,3.08-4.86,3.91-6.5.07-.14.02-.28-.08-.36-.1-.08-.25-.09-.37.02-1.35,1.24-3.65,3.45-5.21,5.5-1.4,1.84-2.66,4.16-3.45,5.71-.1.2-.38.21-.5.02l-.93-1.53c-.04-.07-.14-.08-.2-.01l-39.43,48.94c-.09.11.06.26.17.17Z" style="fill: #1f3a6e;"/>
    <path d="M82.67,148.31c-.08-.03-.17.02-.2.1-.02.08.01.16.08.19,10.19,5.24,20.75,9.68,31.43,13.81,3.56,1.36,7.15,2.67,10.8,3.84.08.03.17-.02.2-.1.02-.08-.01-.16-.08-.19-10.19-5.24-20.75-9.68-31.43-13.81-3.56-1.36-7.15-2.67-10.8-3.84Z" style="fill: #1f3a6e;"/>
    <path d="M75.95,229.17c-3.81-.08-7.63-.11-11.46.02-.09,0-.16.08-.16.17,0,.08.06.14.14.15,11.36,1.5,22.8,2.14,34.24,2.44,3.81.08,7.63.11,11.46-.02.09,0,.16-.08.16-.17,0-.08-.06-.14-.14-.15-11.36-1.51-22.8-2.13-34.24-2.44Z" style="fill: #1f3a6e;"/>
    <path d="M229.05,346.67h67.73v-207.14h-140.08v207.14h65.18l.42-1.28,1.89-5.82,1.28-3.93,1.28,3.93,1.89,5.82.42,1.28ZM171.27,332.47v-178.74h110.95v178.74h-110.95ZM228.09,339.57h61.41v-192.94h-.02l-4.7,4.62v183.78h-58.17l-.42-1.28h57.3v-181.3h-113.51v181.3h54.75l-.42,1.28h-55.61v-.08l-4.7,4.62h58.84l-1.89,5.82h-62.97v-204.58h137.52v204.58h-65.52l-1.89-5.82Z" style="fill: #1f3a6e;"/>
    <path d="M237.12,351.79h54.98c-2.35,1.14-3.84,2.83-4.14,5.37-.39,3.38.77,6.37,3.4,8.67,3.22,2.81,7.64,3.94,12.11,2.86,7.23-1.76,11.76-9.24,9.29-16.37-1.48-4.27-6.22-6.39-10.85-6.82v-204.8c.29-.03.58-.06.87-.1.29-.04.58-.09.87-.14.29-.05.57-.11.86-.18.57-.13,1.13-.3,1.68-.49.27-.1.54-.2.81-.31s.53-.23.78-.35c.77-.37,1.48-.82,2.13-1.33.43-.34.83-.71,1.19-1.11.36-.4.69-.84.97-1.3s.52-.97.7-1.5c.12-.33.22-.67.3-1,.26-1.01.38-2.01.38-3,0-.88-.1-1.75-.28-2.59-.09-.42-.21-.84-.34-1.25-.27-.82-.63-1.61-1.06-2.35-.22-.37-.45-.74-.7-1.09-.51-.7-1.08-1.35-1.72-1.95-.48-.44-1-.86-1.54-1.23-.37-.25-.74-.48-1.14-.69-.98-.53-2.04-.95-3.17-1.22-.56-.14-1.12-.24-1.67-.3-.83-.1-1.66-.13-2.47-.08-.54.03-1.08.09-1.6.19-.26.05-.52.1-.78.16-1.03.25-2.03.62-2.96,1.1-.23.12-.46.25-.69.38-.68.41-1.33.87-1.93,1.4-1.97,1.72-3.12,3.83-3.4,6.21-.1.79-.09,1.61,0,2.46.04.32.09.62.17.91.29,1.17.88,2.13,1.71,2.93.21.2.43.39.67.57.48.36,1.01.68,1.6.96h-63.86l1.04-2.63c1.72.02,3.42.47,5.07,1.09,3.31,1.23,7.41-.31,8.28-3.52.47-1.72.04-3.75-1.37-4.94-1.16-.98-2.72-1.57-4.22-1.56l-7.94.08c-.73,0-1.41-.07-1.82-.87,1.32-.57,1.96-1.95,1.25-3.08-.22-.36-.51-.6-.85-.79-.95-.53-2.13-.53-3.08,0-.34.19-.63.44-.85.79-.71,1.13-.07,2.52,1.25,3.08-.41.8-1.09.88-1.82.87l-7.94-.08c-1.5-.02-3.06.57-4.22,1.56-1.41,1.19-1.83,3.22-1.37,4.94.87,3.21,4.97,4.75,8.28,3.52,1.65-.61,3.35-1.06,5.07-1.09l1.04,2.63h-62.66c2.35-1.14,3.84-2.83,4.14-5.37.39-3.38-.77-6.37-3.4-8.67-3.22-2.81-7.64-3.94-12.11-2.86-7.23,1.76-11.76,9.24-9.29,16.37,1.48,4.27,6.22,6.39,10.85,6.82v204.81c-4.63.42-9.37,2.55-10.85,6.82-2.47,7.13,2.06,14.62,9.29,16.37,4.47,1.09,8.89-.04,12.11-2.86,2.62-2.29,3.79-5.29,3.4-8.67-.3-2.54-1.79-4.24-4.14-5.37h54.6l4.51,3.28-2.43,7.48-.64,1.97,1.68-1.22,6.36-4.62,6.36,4.62,1.68,1.22-.64-1.97-2.43-7.48,4.51-3.28h2.18ZM237.01,125.47c.7-.84,1.88-.32,2.37.09.68.57.95,1.14.96,2.25.01,1.2-1.43,3.17-2.86,2.39-1.25-.68-1.37-3.65-.47-4.73ZM235.46,123.69c-1.34,1.64-1.72,3.36-1.79,5.42l-4.14-.15c.09-1.88-.23-3.28-.53-4.92l6.46-.36ZM295.4,365.42c-3.89-1.38-6.63-5.31-5.5-9.52.7-2.6,4.18-3.72,6.39-2.33,1.59,1,2.29,3.16,1.73,4.79-.45,1.33-1.59,2.14-2.77,2.17-1.31.03-2.55-.91-2.79-2.33-.17-.99.84-2.02,1.91-1.72,1.11.31,1.34,1.45,1.49,2.47,1.44-1.1.61-2.97-.42-3.59-1.44-.88-3.15-.27-3.86,1.23-.66,1.4-.1,3.09,1.02,4.02,1.21,1.01,2.95,1.16,4.55.13.98,1.47,2.39,2.08,4.39,2.58-1.12,2.34-3.78,2.94-6.15,2.1ZM299.8,360.06c-.62-.47-.1-1.16.19-1.43.46-.42,1.33-.68,1.75-.08.38.55.31,1.4.32,1.94-.76-.03-1.65.04-2.26-.43ZM305.26,365.26c2.16-3.37,2.04-7.46-1.29-9.97,1.45-.61,2.63.31,3.21,1.63,1.22,2.8.53,6.38-1.92,8.34ZM305.82,352.9c2.89,1.07,4.77,3.88,4.04,7-.32,1.38-.97,2.67-1.99,3.7,1.25-2.67,1.52-5.46-.05-7.89-1.1-1.71-3.44-2.52-4.96-.95-.59.61-.82,1.55-1.81,2.28-.35.26-.93-.53-1.07-.92-.22-.57.11-1.36.48-1.9,1.23-1.77,3.39-2.05,5.35-1.32ZM305.51,129.35c.81-1.13,1.19-2.43,1.2-3.76,0-.67-.09-1.35-.27-2.02-.06-.22-.13-.45-.21-.67-.17-.48-.4-.95-.66-1.41-.1-.18-.2-.37-.31-.55,1.34,1.07,2.15,2.62,2.42,4.27.04.24.06.47.08.71.01.19.02.38.01.57s-.01.38-.03.57c-.07.76-.25,1.51-.56,2.21-.58,1.33-1.75,2.24-3.21,1.63.62-.47,1.14-.99,1.54-1.56ZM302.86,131.44c.29.29.6.5.93.64.22.09.45.15.67.18s.46.03.69,0c.23-.03.46-.08.68-.16.34-.12.66-.29.96-.51.4-.29.75-.66,1.03-1.09.1-.15.19-.31.27-.46.08-.15.16-.31.23-.47.14-.31.25-.63.34-.95s.15-.65.19-.98c.04-.33.05-.66.05-.99-.01-.5-.07-1-.17-1.51-.14-.67-.35-1.35-.64-2.02-.07-.17-.14-.34-.22-.5.25.26.49.53.7.82.31.43.58.89.79,1.38.21.48.38.99.5,1.5.05.19.08.39.11.58.03.19.04.38.05.57.02.57-.05,1.11-.19,1.64-.37,1.39-1.27,2.6-2.5,3.43-.15.1-.31.2-.48.3-.25.14-.5.26-.77.37-.09.04-.17.08-.27.11-1.96.73-4.12.45-5.35-1.32-.07-.1-.14-.21-.2-.33-.06-.12-.12-.24-.17-.36-.07-.16-.12-.33-.15-.5-.01-.08-.02-.17-.03-.25,0-.16.01-.32.07-.46.05-.14.17-.35.31-.53.24-.3.54-.55.76-.39.25.18.45.38.61.58s.31.4.44.61c.25.4.46.79.75,1.09ZM302.06,125.71c0,.2,0,.45,0,.71s-.03.53-.1.77c-.05.17-.11.32-.21.46-.42.6-1.29.34-1.75-.08-.29-.27-.81-.95-.19-1.43.15-.12.32-.2.51-.26.18-.06.37-.1.57-.12.39-.05.8-.04,1.19-.05ZM291.65,132.54c-.28-.17-.53-.37-.76-.59-.23-.22-.43-.48-.6-.75-.17-.28-.3-.58-.38-.9-.14-.53-.22-1.05-.25-1.56-.08-1.54.34-3,1.11-4.26.13-.21.27-.41.41-.61,1.03-1.39,2.51-2.48,4.22-3.08.89-.31,1.82-.43,2.69-.32.29.04.58.09.85.18s.54.19.79.33c.25.13.49.29.71.48.44.37.82.85,1.1,1.43-.5.12-.96.25-1.39.4-.64.22-1.21.49-1.7.84-.17.12-.32.24-.47.38-.3.27-.57.59-.82.96-.2-.13-.4-.24-.6-.33-.2-.09-.41-.17-.61-.22-1.22-.34-2.42-.07-3.33.69-.42.35-.76.81-.99,1.31-.15.34-.25.7-.29,1.07-.02.18-.03.37-.01.55s.04.37.09.55c.05.18.11.36.19.54.71,1.5,2.41,2.1,3.86,1.23.13-.08.25-.18.37-.29.18-.17.34-.37.47-.6.48-.83.56-1.95-.43-2.7-.16,1.01-.38,2.15-1.49,2.47-.67.19-1.31-.14-1.66-.66-.14-.21-.23-.44-.26-.69-.01-.12-.01-.25,0-.37.06-.35.18-.68.35-.97.34-.57.87-1,1.48-1.21.3-.11.63-.16.95-.15,1.18.03,2.32.84,2.77,2.17.41,1.22.13,2.74-.71,3.84-.28.37-.62.69-1.02.94-.55.35-1.19.54-1.83.59-.65.05-1.31-.04-1.93-.26-.31-.11-.61-.25-.88-.42ZM224.78,119.82c0-.76.61-1.37,1.37-1.37s1.37.61,1.37,1.37-.61,1.37-1.37,1.37-1.37-.61-1.37-1.37ZM225.7,129.82c-.23-.06-.25-1.01.14-1.01.45,0,.43.9-.14,1.01ZM225.62,127.24c.09.68-.71.68-.62,0,.05-.42.57-.42.62,0ZM214.82,130.2c-1.43.78-2.87-1.2-2.86-2.39.01-1.12.28-1.69.96-2.25.49-.4,1.66-.93,2.37-.09.9,1.08.79,4.05-.47,4.73ZM222.76,128.97l-4.14.15c-.07-2.06-.45-3.79-1.79-5.42l6.46.36c-.3,1.64-.62,3.04-.53,4.92ZM224.7,123.93c-.06,2.02-.61,3.73-.27,6.03.04.26.81.81-.08,1.14-.73-2.35-1-4.86.35-7.17ZM158.09,120.78c3.89,1.38,6.63,5.31,5.5,9.52-.7,2.6-4.18,3.72-6.39,2.33-1.59-1-2.29-3.16-1.73-4.79.45-1.33,1.59-2.14,2.77-2.17,1.31-.03,2.55.91,2.79,2.33.17.99-.84,2.02-1.91,1.72-1.11-.31-1.34-1.45-1.49-2.47-1.44,1.1-.61,2.97.42,3.59,1.44.88,3.15.27,3.86-1.23.66-1.4.1-3.09-1.02-4.02-1.21-1.01-2.95-1.16-4.55-.13-.98-1.47-2.39-2.08-4.39-2.58,1.12-2.34,3.78-2.94,6.15-2.1ZM153.69,126.14c.62.47.1,1.16-.19,1.43-.46.42-1.33.68-1.75.08-.38-.55-.31-1.4-.32-1.94.76.03,1.65-.04,2.26.43ZM148.23,120.94c-2.16,3.37-2.04,7.46,1.29,9.97-1.45.61-2.63-.31-3.21-1.63-1.22-2.8-.53-6.38,1.92-8.34ZM147.67,133.29c-2.89-1.07-4.77-3.88-4.04-7,.32-1.38.97-2.67,1.99-3.7-1.25,2.67-1.52,5.46.05,7.89,1.1,1.71,3.44,2.52,4.96.95.59-.61.82-1.55,1.81-2.28.35-.26.93.53,1.07.92.22.57-.11,1.36-.48,1.9-1.23,1.77-3.39,2.05-5.35,1.32ZM148.23,365.26c-2.45-1.95-3.14-5.54-1.92-8.34.58-1.33,1.75-2.24,3.21-1.63-3.33,2.5-3.45,6.6-1.29,9.97ZM145.67,355.71c-1.57,2.43-1.3,5.21-.05,7.89-1.02-1.03-1.67-2.32-1.99-3.7-.73-3.12,1.15-5.93,4.04-7,1.96-.73,4.12-.45,5.35,1.32.38.54.7,1.32.48,1.9-.15.39-.72,1.18-1.07.92-.99-.73-1.22-1.67-1.81-2.28-1.52-1.56-3.86-.76-4.96.95ZM151.75,358.55c.42-.6,1.29-.34,1.75.08.29.27.81.95.19,1.43-.62.47-1.5.4-2.26.43.01-.54-.07-1.39.32-1.94ZM163.59,355.9c1.13,4.2-1.61,8.14-5.5,9.52-2.37.84-5.03.24-6.15-2.1,2-.49,3.4-1.1,4.39-2.58,1.6,1.03,3.33.88,4.55-.13,1.12-.93,1.68-2.62,1.02-4.02-.71-1.5-2.41-2.1-3.86-1.23-1.03.63-1.86,2.5-.42,3.59.16-1.01.38-2.15,1.49-2.47,1.07-.3,2.07.73,1.91,1.72-.24,1.42-1.48,2.36-2.79,2.33-1.18-.03-2.32-.84-2.77-2.17-.55-1.63.14-3.78,1.73-4.79,2.21-1.39,5.69-.27,6.39,2.33ZM221.37,354.11l-3.28-2.39,2.32.75,3,.97h0s-2.03.66-2.03.66h0ZM224.83,357.56l-3.28,2.39h0s1.93-2.65,1.93-2.65l1.36-1.87v2.13ZM224.83,351.48h0s-1.26-1.73-1.26-1.73l1.26-3.86v5.59ZM225.47,339.78l-.64,1.97-2.43,7.48h-68.25v-212.26h145.2v212.26h-70.81l-.83-2.56-.42-1.28-1.18-3.64-.64-1.97ZM228.5,356.54l-1.36-1.87h0s2.03.66,2.03.66l1.26,3.86-1.93-2.65ZM230.91,351.01l-3.77,1.22.23-.32,1.02-1.4h4.06l-1.55.5Z" style="fill: #1f3a6e;"/>
    <path d="M235.68,399.74c-.02-.07-.08-.13-.16-.13-.09,0-.16.08-.16.17.11,3.83.38,7.63.7,11.44,1.02,11.4,2.37,22.78,4.59,34.02.02.08.08.13.16.13.09,0,.16-.08.16-.17-.11-3.83-.38-7.63-.71-11.44-1.02-11.4-2.36-22.78-4.59-34.02Z" style="fill: #1f3a6e;"/>
    <path d="M289.33,440.55c-1.01-2.08-2.51-4.25-3.54-5.66-.13-.18-.01-.44.21-.45l1.78-.14c.08,0,.13-.09.1-.17l-11.61-25.74h0s-2.65-5.88-2.65-5.88h0s-11.58-25.67-11.58-25.67c-.06-.13-.26-.06-.23.08l2.56,10.13c.02.07-.07.1-.11.04-3.22-5.49-6.44-9.92-7.5-11.34-.08-.11-.24-.02-.21.1.46,1.72,1.95,6.99,4.28,12.92.03.06-.06.12-.1.06l-6.37-8.26c-.09-.12-.27,0-.2.13l15.99,30.68s0,0,0,0l13.05,25.04c.04.07.14.09.19.03l1.21-1.31c.15-.17.43-.1.49.11.46,1.68,1.25,4.2,2.26,6.28,1.13,2.32,2.95,4.94,4.03,6.42.09.13.24.14.36.09.11-.06.19-.18.15-.34-.5-1.77-1.43-4.82-2.56-7.14Z" style="fill: #1f3a6e;"/>
    <path d="M256.84,445.32c-.09-.21.08-.43.31-.4l1.77.25c.08.01.15-.06.13-.14l-5.7-27.66s0,0,0,0l-1.3-6.32-5.68-27.58c-.03-.14-.24-.12-.24.03l.28,10.44c0,.07-.1.08-.12.02-1.94-6.06-4.11-11.09-4.83-12.71-.05-.12-.23-.08-.23.05.08,1.78.38,7.25,1.35,13.54.01.07-.08.1-.11.04l-4.41-9.46c-.06-.13-.26-.06-.22.08l8.89,33.43s0,0,0,0l7.26,27.29c.02.08.12.11.18.07l1.47-1.02c.19-.13.44,0,.45.22.09,1.74.3,4.37.83,6.62.59,2.51,1.79,5.47,2.53,7.15.06.15.21.19.33.16.12-.03.23-.14.22-.29-.1-1.83-.34-5.01-.93-7.52-.53-2.25-1.51-4.7-2.22-6.29Z" style="fill: #1f3a6e;"/>
    <path d="M291.86,415.12c-5.76-9.89-11.81-19.62-18.59-28.86-.05-.06-.13-.08-.2-.05-.08.04-.11.14-.07.22,1.72,3.42,3.58,6.75,5.49,10.06,5.76,9.89,11.81,19.62,18.59,28.86.05.06.13.08.2.05.08-.04.11-.14.07-.22-1.73-3.42-3.58-6.75-5.49-10.06Z" style="fill: #1f3a6e;"/>
    <path d="M255.02,395.15c-.03-.07-.11-.11-.19-.09-.09.02-.14.11-.11.2.97,3.7,2.1,7.35,3.27,10.98,3.58,10.88,7.47,21.65,12.17,32.1.03.07.11.11.19.09.09-.02.14-.11.11-.2-.98-3.7-2.1-7.35-3.28-10.98-3.58-10.88-7.46-21.65-12.17-32.1Z" style="fill: #1f3a6e;"/>
    <path d="M218.86,163.97l-5.26,5.26v20.4l5.26,5.26h15.79l5.26-5.26v-20.4l-5.26-5.26h-15.79ZM237.33,169.23h-3.82c-.71,0-1.28.57-1.28,1.28v14.14c0,1.41-1.15,2.56-2.56,2.56h-9.53c-.71,0-1.28.57-1.28,1.28v3.82c0,.29-.34.43-.55.23l-3.44-3.44v-19.34l4.51-4.51h14.73l3.44,3.44c.2.2.06.55-.23.55Z" style="fill: #1f3a6e;"/>
    <path d="M250.93,291.3l-5.26,5.26v20.4l5.26,5.26h15.79l5.26-5.26v-20.4l-5.26-5.26h-15.79ZM269.4,296.57h-3.82c-.71,0-1.28.57-1.28,1.28v14.14c0,1.41-1.15,2.56-2.56,2.56h-9.53c-.71,0-1.28.57-1.28,1.28v3.82c0,.29-.34.43-.55.23l-3.44-3.44v-19.34l4.51-4.51h14.73l3.44,3.44c.2.2.06.55-.23.55Z" style="fill: #1f3a6e;"/>
    <path d="M218.86,206.41l-5.26,5.26v20.4l5.26,5.26h15.79l5.26-5.26v-20.4l-5.26-5.26h-15.79ZM237.33,211.68h-3.82c-.71,0-1.28.57-1.28,1.28v14.14c0,1.41-1.15,2.56-2.56,2.56h-9.53c-.71,0-1.28.57-1.28,1.28v3.82c0,.29-.34.43-.55.23l-3.44-3.44v-19.34l4.51-4.51h14.73l3.44,3.44c.2.2.06.55-.23.55Z" style="fill: #1f3a6e;"/>
    <path d="M250.93,206.41l-5.26,5.26v20.4l5.26,5.26h15.79l5.26-5.26v-20.4l-5.26-5.26h-15.79ZM269.4,211.68h-3.82c-.71,0-1.28.57-1.28,1.28v14.14c0,1.41-1.15,2.56-2.56,2.56h-9.53c-.71,0-1.28.57-1.28,1.28v3.82c0,.29-.34.43-.55.23l-3.44-3.44v-19.34l4.51-4.51h14.73l3.44,3.44c.2.2.06.55-.23.55Z" style="fill: #1f3a6e;"/>
    <path d="M250.93,163.97l-5.26,5.26v20.4l5.26,5.26h15.79l5.26-5.26v-20.4l-5.26-5.26h-15.79ZM269.4,169.23h-3.82c-.71,0-1.28.57-1.28,1.28v14.14c0,1.41-1.15,2.56-2.56,2.56h-9.53c-.71,0-1.28.57-1.28,1.28v3.82c0,.29-.34.43-.55.23l-3.44-3.44v-19.34l4.51-4.51h14.73l3.44,3.44c.2.2.06.55-.23.55Z" style="fill: #1f3a6e;"/>
    <path d="M173.83,329.91h105.83v-173.62h-105.83v173.62ZM176.39,158.85h100.71v168.5h-100.71v-168.5Z" style="fill: #1f3a6e;"/>
    <path d="M250.93,248.86l-5.26,5.26v20.4l5.26,5.26h15.79l5.26-5.26v-20.4l-5.26-5.26h-15.79ZM269.4,254.12h-3.82c-.71,0-1.28.57-1.28,1.28v14.14c0,1.41-1.15,2.56-2.56,2.56h-9.53c-.71,0-1.28.57-1.28,1.28v3.82c0,.29-.34.43-.55.23l-3.44-3.44v-19.34l4.51-4.51h14.73l3.44,3.44c.2.2.06.55-.23.55Z" style="fill: #1f3a6e;"/>
    <path d="M371.88,353.75c-2.08-1.03-4.58-1.83-6.26-2.3-.22-.06-.28-.34-.11-.49l1.32-1.2c.06-.06.05-.16-.02-.19l-30.64-16.26-24.88-13.2c-.13-.07-.25.11-.13.2l8.22,6.44c.05.04,0,.13-.06.1-5.91-2.37-11.16-3.9-12.87-4.37-.13-.04-.21.13-.1.21,1.42,1.07,5.83,4.33,11.3,7.59.06.04.02.13-.04.11l-10.1-2.63c-.14-.04-.21.16-.08.22l31.43,14.46s0,0,0,0l25.65,11.8c.08.03.16-.02.17-.1l.15-1.78c.02-.22.28-.34.46-.21,1.4,1.05,3.56,2.55,5.63,3.58,2.31,1.14,5.36,2.1,7.12,2.61.15.04.28-.03.34-.15.06-.11.04-.26-.09-.36-1.47-1.09-4.08-2.93-6.39-4.08Z" style="fill: #1f3a6e;"/>
    <path d="M397.95,301.37c-1.69-.71-4.66-1.87-7.18-2.43-2.26-.5-4.89-.68-6.63-.74-.23,0-.35-.26-.23-.45l1-1.49c.05-.07.01-.16-.07-.18l-27.38-6.88h0l-33.57-8.44c-.14-.04-.21.17-.08.23l9.52,4.29c.06.03.03.12-.04.11-6.3-.89-11.77-1.12-13.55-1.17-.13,0-.17.18-.05.23,1.63.7,6.69,2.81,12.78,4.67.07.02.05.12-.02.12l-10.43-.14c-.15,0-.17.21-.02.24l33.97,6.52s0,0,0,0l27.73,5.32c.08.02.15-.05.14-.14l-.28-1.76c-.03-.22.19-.4.39-.31,1.61.68,4.06,1.63,6.32,2.13,2.52.56,5.7.76,7.54.83.16,0,.26-.1.29-.23.03-.12-.02-.27-.17-.33Z" style="fill: #1f3a6e;"/>
    <path d="M349.83,279.59c11.25,2.14,22.56,3.96,33.97,4.91.08,0,.15-.04.17-.12.02-.09-.03-.17-.12-.2-3.71-.94-7.45-1.73-11.19-2.46-11.25-2.14-22.55-3.97-33.97-4.92-.08,0-.15.04-.17.12-.02.09.03.17.12.2,3.71.94,7.45,1.73,11.19,2.46Z" style="fill: #1f3a6e;"/>
    <path d="M344.58,302.84c10.93,3.41,21.96,6.5,33.2,8.74.08.01.15-.03.18-.1.03-.08-.01-.18-.09-.21-3.58-1.36-7.2-2.56-10.84-3.71-10.93-3.41-21.96-6.51-33.2-8.74-.08-.01-.15.03-.18.1-.03.08.01.18.09.21,3.58,1.36,7.2,2.56,10.84,3.71Z" style="fill: #1f3a6e;"/>
    <path d="M404.22,242.82c-1.81-.33-4.96-.82-7.54-.82-2.32,0-4.92.4-6.63.71-.22.04-.4-.18-.32-.39l.65-1.67c.03-.08-.03-.16-.11-.16l-34.67-.98h0l-28.15-.8c-.15,0-.17.21-.03.24l10.23,2.13c.07.01.06.11-.01.12-6.35.49-11.73,1.46-13.48,1.79-.13.02-.13.21,0,.23,1.75.33,7.14,1.3,13.49,1.79.07,0,.08.1.01.12l-10.22,2.12c-.14.03-.12.24.03.24l34.58-.98s0,0,0,0l28.22-.8c.08,0,.14-.09.11-.16l-.65-1.66c-.08-.21.09-.43.32-.39,1.72.32,4.32.71,6.63.71,2.58,0,5.73-.49,7.54-.82.16-.03.24-.16.24-.28,0-.13-.08-.25-.24-.28Z" style="fill: #1f3a6e;"/>
    <path d="M389.86,330.06c-1.6-.9-4.41-2.4-6.85-3.25-2.19-.76-4.78-1.24-6.5-1.51-.22-.03-.32-.3-.17-.47l1.16-1.36c.05-.06.03-.16-.05-.19l-58.75-22.32c-.14-.05-.23.14-.1.21l8.96,5.37c.06.04.02.13-.05.11-6.16-1.62-11.56-2.48-13.32-2.74-.13-.02-.19.15-.08.22,1.54.89,6.32,3.57,12.15,6.12.06.03.04.12-.03.11l-10.35-1.35c-.15-.02-.19.19-.05.23l32.98,10.44s0,0,0,0l26.92,8.52c.08.03.16-.04.16-.12l-.07-1.78c0-.23.23-.37.43-.26,1.52.86,3.85,2.09,6.03,2.85,2.44.85,5.57,1.42,7.39,1.7.16.02.27-.07.32-.19.04-.12,0-.27-.13-.35Z" style="fill: #1f3a6e;"/>
    <path d="M402.69,272.18c-1.76-.52-4.84-1.34-7.41-1.62-2.3-.25-4.93-.13-6.67,0-.23.02-.38-.22-.27-.42l.83-1.59c.04-.07,0-.16-.09-.17l-62.28-8.47c-.14-.02-.19.19-.05.23l9.94,3.2c.07.02.05.12-.02.12-6.36-.19-11.82.2-13.59.34-.13.01-.15.19-.03.23,1.7.52,6.96,2.05,13.22,3.22.07.01.07.11,0,.12l-10.39,1.02c-.15.01-.14.23,0,.24l34.49,2.71h0l28.15,2.22c.08,0,.15-.07.12-.15l-.47-1.72c-.06-.22.14-.42.36-.35,1.67.5,4.22,1.17,6.52,1.42,2.56.28,5.75.12,7.58,0,.16-.01.25-.13.27-.26.01-.13-.05-.26-.2-.31Z" style="fill: #1f3a6e;"/>
    <path d="M352.47,255.82c11.41.91,22.85,1.49,34.31,1.19.08,0,.14-.06.15-.14.01-.09-.05-.17-.14-.18-3.79-.53-7.59-.91-11.39-1.23-11.41-.91-22.85-1.5-34.31-1.19-.08,0-.14.06-.15.14-.01.09.05.17.14.18,3.79.53,7.59.91,11.39,1.23Z" style="fill: #1f3a6e;"/>
    <path d="M314.14,365.76c-.05.06-.06.15-.02.19,1.96,1.98,4.03,3.83,6.12,5.64,6.32,5.39,12.86,10.53,19.92,14.97.05.03.12.01.17-.05,0,0,0,0,0-.01,0,0,0,0,.01,0,.05-.07.05-.14,0-.18-5.94-5.85-12.44-11.03-19.14-15.94-2.24-1.63-4.52-3.21-6.9-4.66-.05-.03-.13,0-.18.06Z" style="fill: #1f3a6e;"/>
    <path d="M338.63,403.02c-1.7-1.57-3.88-3.05-5.35-3.99-.19-.12-.17-.4.03-.5l1.61-.78c.07-.04.09-.14.03-.19l-21.95-21.54c-.08-.08-.21.03-.14.12l4.79,6.74s-.03.1-.07.06c-3.96-3.14-7.61-5.48-8.81-6.23-.09-.06-.19.05-.13.14.83,1.13,3.45,4.6,6.87,8.31.04.04-.01.1-.06.07l-7.09-4.28c-.1-.06-.2.08-.11.15l23.14,20.28c.06.05.16.03.19-.05l.65-1.66c.08-.21.36-.25.5-.07,1.04,1.4,2.68,3.46,4.38,5.04,1.89,1.75,4.54,3.54,6.08,4.52.13.09.28.05.37-.05.09-.09.12-.24.02-.37-1.1-1.47-3.08-3.97-4.97-5.73Z" style="fill: #1f3a6e;"/>
    <path d="M313.47,398.56c-7.49-8.66-15.22-17.11-23.59-24.94-.06-.05-.14-.06-.21,0-.07.05-.08.15-.03.23,2.32,3.04,4.76,5.98,7.25,8.87,7.49,8.66,15.22,17.11,23.59,24.94.06.05.14.06.21,0,.07-.05.08-.15.03-.23-2.32-3.04-4.77-5.98-7.25-8.87Z" style="fill: #1f3a6e;"/>
    <path d="M316.02,423.83c-1.4-1.84-3.29-3.68-4.58-4.85-.17-.15-.1-.43.12-.49l1.72-.49c.08-.02.11-.12.06-.19l-16.44-22.96h0s-3.76-5.24-3.76-5.24h0s-16.4-22.9-16.4-22.9c-.09-.12-.27-.01-.21.12l4.5,9.43c.03.06-.05.11-.1.06-4.23-4.75-8.26-8.46-9.58-9.65-.1-.09-.24.02-.19.14.79,1.59,3.29,6.47,6.74,11.82.04.06-.03.12-.09.08l-7.87-6.85c-.11-.1-.26.05-.17.17l17.66,21.92,4.05,5.02s0,0,0,0l17.72,21.99c.05.06.15.06.2-.01l.93-1.52c.12-.19.4-.18.5.02.79,1.56,2.05,3.87,3.45,5.71,1.56,2.05,3.86,4.27,5.21,5.51.12.11.27.09.37.02.1-.08.16-.22.08-.36-.83-1.64-2.35-4.44-3.91-6.5Z" style="fill: #1f3a6e;"/>
    <path d="M218.86,248.86l-5.26,5.26v20.4l5.26,5.26h15.79l5.26-5.26v-20.4l-5.26-5.26h-15.79ZM237.33,254.12h-3.82c-.71,0-1.28.57-1.28,1.28v14.14c0,1.41-1.15,2.56-2.56,2.56h-9.53c-.71,0-1.28.57-1.28,1.28v3.82c0,.29-.34.43-.55.23l-3.44-3.44v-19.34l4.51-4.51h14.73l3.44,3.44c.2.2.06.55-.23.55Z" style="fill: #1f3a6e;"/>
    <path d="M368.59,337.89c.07.02.15,0,.19-.08.04-.08.01-.18-.07-.22-3.39-1.78-6.84-3.41-10.32-4.99-10.44-4.69-21.02-9.09-31.91-12.66-.07-.02-.15,0-.19.08-.04.08-.01.18.07.22,3.39,1.78,6.84,3.41,10.32,4.99,10.44,4.69,21.02,9.09,31.91,12.66Z" style="fill: #1f3a6e;"/>
    <path d="M357.17,379.37c-1.92-1.3-4.29-2.43-5.89-3.13-.21-.09-.23-.37-.04-.5l1.47-1.01c.07-.05.07-.15,0-.2l-24.95-17.97c-.09-.07-.2.06-.12.14l5.76,5.94s-.01.1-.06.07c-4.38-2.5-8.35-4.27-9.65-4.83-.1-.04-.18.08-.1.15,1,1,4.1,4.02,8.05,7.17.04.03,0,.1-.05.08l-7.66-3.16c-.11-.04-.19.11-.09.17l25.95,16.54c.07.04.16,0,.18-.07l.4-1.74c.05-.22.32-.3.48-.14,1.24,1.23,3.17,3.01,5.09,4.31,2.14,1.45,5.02,2.81,6.7,3.55.15.06.28,0,.35-.1.07-.11.08-.26-.04-.37-1.31-1.28-3.64-3.46-5.78-4.91Z" style="fill: #1f3a6e;"/>
    <path d="M356.1,363.06c.07.03.15.01.2-.05.05-.07.03-.17-.04-.22-3.13-2.2-6.34-4.26-9.58-6.28-9.75-6.01-19.66-11.74-30-16.69-.07-.03-.15-.01-.2.05-.05.07-.03.17.04.22,3.13,2.2,6.34,4.27,9.58,6.28,9.75,6.01,19.67,11.73,30,16.69Z" style="fill: #1f3a6e;"/>
    <path d="M84.24,307.56c-3.64,1.15-7.26,2.35-10.84,3.71-.08.03-.12.12-.09.21.03.07.11.12.18.1,11.24-2.24,22.27-5.33,33.2-8.74,3.64-1.15,7.26-2.36,10.84-3.71.08-.03.12-.12.09-.21-.03-.07-.11-.12-.18-.1-11.24,2.23-22.27,5.33-33.2,8.74Z" style="fill: #1f3a6e;"/>
    <path d="M78.61,281.73c-3.74.73-7.48,1.52-11.19,2.46-.09.02-.14.11-.12.2.02.08.09.13.17.12,11.42-.95,22.73-2.77,33.97-4.91,3.74-.73,7.48-1.52,11.19-2.46.09-.02.14-.11.12-.2-.02-.08-.09-.13-.17-.12-11.42.94-22.73,2.77-33.97,4.92Z" style="fill: #1f3a6e;"/>
    <path d="M75.44,326.3l-.07,1.78c0,.08.08.14.16.12l26.92-8.52s0,0,0,0l32.98-10.44c.14-.04.09-.25-.05-.23l-10.35,1.35c-.07,0-.09-.09-.03-.11,5.83-2.55,10.61-5.24,12.15-6.12.11-.07.05-.24-.08-.22-1.76.26-7.16,1.12-13.32,2.74-.07.02-.11-.07-.05-.11l8.96-5.37c.13-.08.03-.27-.1-.21l-58.75,22.32c-.08.03-.1.13-.05.19l1.16,1.36c.15.17.05.44-.17.47-1.73.26-4.31.74-6.5,1.51-2.44.85-5.25,2.35-6.85,3.25-.14.08-.17.22-.13.35.04.12.16.21.32.19,1.81-.29,4.95-.86,7.39-1.7,2.19-.76,4.52-1.99,6.03-2.85.2-.11.44.04.43.26Z" style="fill: #1f3a6e;"/>
    <path d="M67.69,299.27l-.28,1.76c-.01.08.06.15.14.14l27.73-5.32s0,0,0,0l33.97-6.52c.14-.03.12-.24-.02-.24l-10.43.14c-.07,0-.08-.1-.02-.12,6.09-1.85,11.15-3.96,12.78-4.67.12-.05.08-.23-.05-.23-1.78.05-7.24.28-13.55,1.17-.07,0-.1-.08-.04-.11l9.52-4.29c.13-.06.06-.26-.08-.23l-33.57,8.44h0l-27.38,6.88c-.08.02-.12.11-.07.18l1,1.49c.13.19,0,.44-.23.45-1.74.06-4.37.24-6.63.74-2.52.56-5.49,1.72-7.18,2.43-.15.06-.2.2-.17.33.03.12.13.23.29.23,1.83-.07,5.02-.27,7.54-.83,2.26-.5,4.72-1.45,6.32-2.13.21-.09.43.09.39.31Z" style="fill: #1f3a6e;"/>
    <path d="M61.41,156.14c1.6.9,4.41,2.4,6.85,3.25,2.19.76,4.78,1.24,6.5,1.51.22.03.32.3.17.47l-1.16,1.36c-.05.06-.03.16.05.19l26.4,10.03s0,0,0,0l32.34,12.29c.14.05.23-.14.1-.21l-8.95-5.36c-.06-.04-.02-.12.05-.11,6.16,1.62,11.57,2.48,13.33,2.74.13.02.19-.16.08-.22-1.54-.89-6.31-3.57-12.14-6.12-.06-.03-.04-.12.03-.11l10.36,1.35c.15.02.19-.19.05-.23l-59.92-18.96c-.08-.03-.16.04-.16.12l.07,1.79c0,.23-.23.37-.43.26-1.52-.86-3.84-2.09-6.03-2.85-2.44-.85-5.58-1.42-7.39-1.7-.16-.02-.27.07-.32.19-.04.12,0,.27.13.35Z" style="fill: #1f3a6e;"/>
    <path d="M110.91,386.48s0,0,.01,0c0,0,0,0,0,.01.05.06.13.08.17.05,7.06-4.44,13.59-9.57,19.92-14.97,2.1-1.81,4.16-3.66,6.12-5.64.04-.04.03-.12-.02-.19-.05-.06-.13-.09-.18-.06-2.38,1.46-4.65,3.04-6.9,4.66-6.7,4.91-13.2,10.09-19.14,15.94-.04.04-.04.12,0,.18Z" style="fill: #1f3a6e;"/>
    <path d="M112.43,342.43l31.43-14.46c.13-.06.06-.26-.08-.22l-10.1,2.63c-.07.02-.1-.07-.04-.11,5.47-3.26,9.88-6.51,11.3-7.59.1-.08.02-.24-.1-.21-1.71.48-6.97,2-12.87,4.37-.06.03-.12-.06-.06-.1l8.22-6.44c.12-.09,0-.27-.13-.2l-24.88,13.2-30.64,16.26c-.07.04-.09.14-.02.19l1.32,1.2c.17.15.11.43-.11.49-1.68.48-4.19,1.28-6.26,2.3-2.31,1.14-4.92,2.98-6.39,4.08-.13.1-.14.24-.09.36.06.11.18.19.34.15,1.76-.51,4.81-1.46,7.12-2.61,2.08-1.03,4.23-2.54,5.63-3.58.18-.14.44-.02.46.21l.15,1.78c0,.08.09.13.17.1l25.65-11.8s0,0,0,0Z" style="fill: #1f3a6e;"/>
    <path d="M92.87,332.61c-3.47,1.58-6.93,3.21-10.32,4.99-.08.04-.11.14-.07.22.04.07.12.1.19.08,10.89-3.57,21.47-7.96,31.91-12.66,3.47-1.58,6.92-3.21,10.32-4.99.08-.04.11-.14.07-.22-.04-.07-.12-.1-.19-.08-10.89,3.57-21.47,7.97-31.91,12.66Z" style="fill: #1f3a6e;"/>
    <path d="M134.79,339.87c-.05-.06-.13-.09-.2-.05-10.33,4.95-20.25,10.68-30,16.69-3.24,2.02-6.45,4.08-9.58,6.28-.07.05-.09.15-.04.22.05.06.13.09.2.05,10.33-4.95,20.25-10.68,30-16.69,3.24-2.02,6.45-4.08,9.58-6.28.07-.05.09-.15.04-.22Z" style="fill: #1f3a6e;"/>
    <path d="M53.32,184.83c1.69.71,4.66,1.87,7.18,2.43,2.26.5,4.89.68,6.63.74.23,0,.35.26.23.45l-.99,1.48c-.05.07-.01.16.07.18l27.38,6.88s0,0,0,0l33.55,8.43c.14.04.21-.17.08-.23l-9.52-4.28c-.06-.03-.03-.12.04-.11,6.3.89,11.78,1.12,13.56,1.17.13,0,.17-.18.05-.23-1.63-.7-6.68-2.81-12.77-4.66-.07-.02-.05-.12.02-.12l10.44.14c.15,0,.17-.21.02-.24l-61.72-11.85c-.08-.02-.15.05-.14.14l.28,1.77c.03.22-.19.4-.39.31-1.61-.68-4.06-1.63-6.32-2.13-2.52-.56-5.7-.76-7.54-.83-.16,0-.26.1-.29.23-.03.12.02.27.17.33Z" style="fill: #1f3a6e;"/>
    <path d="M84.67,177.13c-3.7-.92-7.42-1.79-11.18-2.51-.09-.02-.17.04-.19.13-.01.08.03.15.1.18,10.75,3.98,21.76,7.12,32.86,9.94,3.7.92,7.42,1.79,11.18,2.51.09.02.17-.04.19-.13.01-.08-.03-.15-.1-.18-10.74-3.98-21.76-7.12-32.86-9.94Z" style="fill: #1f3a6e;"/>
    <path d="M78.86,202.93c-3.78-.5-7.57-.94-11.39-1.23-.09,0-.17.06-.17.15,0,.08.05.15.12.17,11.13,2.73,22.43,4.6,33.77,6.15,3.78.5,7.57.94,11.39,1.23.09,0,.17-.06.17-.15,0-.08-.05-.15-.12-.17-11.13-2.74-22.43-4.6-33.77-6.14Z" style="fill: #1f3a6e;"/>
    <path d="M75.87,255.46c-3.8.32-7.6.69-11.39,1.23-.09.01-.15.09-.14.18.01.08.08.14.15.14,11.45.3,22.89-.28,34.31-1.19,3.8-.32,7.6-.69,11.39-1.23.09-.01.15-.09.14-.18-.01-.08-.08-.14-.15-.14-11.45-.3-22.89.28-34.31,1.19Z" style="fill: #1f3a6e;"/>
    <path d="M56.22,272.75c2.3-.25,4.85-.92,6.52-1.42.22-.06.42.13.36.35l-.47,1.72c-.02.08.04.16.12.15l28.15-2.22h0l34.49-2.71c.15-.01.15-.22,0-.24l-10.39-1.02c-.07,0-.07-.1,0-.12,6.26-1.17,11.52-2.7,13.22-3.22.13-.04.11-.22-.03-.23-1.77-.15-7.23-.53-13.59-.34-.07,0-.09-.09-.02-.12l9.94-3.2c.14-.04.09-.25-.05-.23l-62.28,8.47c-.08.01-.13.1-.09.17l.83,1.59c.1.2-.05.44-.27.42-1.74-.13-4.37-.25-6.67,0-2.56.28-5.65,1.1-7.41,1.62-.15.05-.22.18-.2.31.01.13.11.24.27.26,1.83.13,5.02.28,7.58,0Z" style="fill: #1f3a6e;"/>
    <path d="M48.58,214.02c1.76.52,4.84,1.34,7.41,1.62,2.3.25,4.93.13,6.67,0,.23-.02.38.22.27.42l-.82,1.58c-.04.07,0,.16.09.17l27.98,3.81h0l34.28,4.66c.14.02.19-.19.05-.23l-9.93-3.2c-.07-.02-.05-.12.02-.12,6.36.19,11.83-.2,13.6-.34.13-.01.15-.19.02-.23-1.7-.52-6.95-2.05-13.21-3.22-.07-.01-.07-.11,0-.12l10.39-1.02c.15-.01.14-.23,0-.24l-62.66-4.93c-.08,0-.15.07-.13.15l.47,1.73c.06.22-.14.42-.36.35-1.67-.5-4.22-1.17-6.52-1.42-2.56-.28-5.75-.12-7.58.01-.16.01-.25.13-.27.26-.01.13.05.26.2.31Z" style="fill: #1f3a6e;"/>
    <path d="M61.22,243.49c.22-.04.4.18.32.39l-.65,1.66c-.03.08.03.16.11.16l28.22.8s0,0,0,0l34.58.98c.15,0,.17-.21.03-.24l-10.22-2.12c-.07-.01-.06-.11.01-.12,6.35-.49,11.74-1.46,13.49-1.79.13-.02.13-.21,0-.23-1.75-.33-7.13-1.3-13.48-1.79-.07,0-.08-.1-.01-.12l10.23-2.13c.14-.03.12-.24-.03-.24l-28.15.8h0l-34.67.98c-.08,0-.14.09-.11.16l.65,1.67c.08.21-.09.43-.32.39-1.72-.32-4.32-.71-6.63-.71-2.58,0-5.73.49-7.54.82-.16.03-.24.16-.24.28,0,.13.08.25.24.28,1.81.33,4.96.82,7.54.82,2.32,0,4.92-.4,6.63-.71Z" style="fill: #1f3a6e;"/>
    <path d="M196.55,395.26c.02-.09-.03-.17-.11-.2-.08-.02-.15.02-.19.09-4.71,10.45-8.59,21.22-12.17,32.1-1.18,3.63-2.3,7.28-3.28,10.98-.02.09.03.17.11.2.08.02.15-.02.19-.09,4.7-10.45,8.59-21.22,12.17-32.1,1.18-3.63,2.3-7.28,3.27-10.98Z" style="fill: #1f3a6e;"/>
    <polygon points="159.39 142.09 159.27 142.09 159.27 344.11 159.39 344.11 164.01 339.57 163.99 339.57 163.99 146.63 164.01 146.63 289.48 146.63 294.1 142.09 159.39 142.09" style="fill: #1f3a6e;"/>
    <path d="M215.75,399.61c-.08,0-.15.05-.16.13-2.22,11.24-3.57,22.62-4.59,34.02-.32,3.8-.59,7.61-.71,11.44,0,.09.07.16.16.17.08,0,.15-.05.16-.13,2.22-11.24,3.57-22.62,4.59-34.02.32-3.8.59-7.61.7-11.44,0-.09-.07-.16-.16-.17Z" style="fill: #1f3a6e;"/>
    <path d="M186.77,291.3l-5.26,5.26v20.4l5.26,5.26h15.79l5.26-5.26v-20.4l-5.26-5.26h-15.79ZM205.24,296.57h-3.82c-.71,0-1.28.57-1.28,1.28v14.14c0,1.41-1.15,2.56-2.56,2.56h-9.53c-.71,0-1.28.57-1.28,1.28v3.82c0,.29-.34.43-.55.23l-3.44-3.44v-19.34l4.51-4.51h14.73l3.44,3.44c.2.2.06.55-.23.55Z" style="fill: #1f3a6e;"/>
    <path d="M229.78,386.38l-2.13,10.23c-.01.07-.11.06-.12-.01-.49-6.35-1.46-11.73-1.79-13.48-.02-.13-.21-.13-.23,0-.33,1.75-1.3,7.14-1.79,13.49,0,.07-.1.08-.12.01l-2.12-10.22c-.03-.14-.24-.12-.24.03l.98,34.58h0s.8,28.22.8,28.22c0,.08.09.14.16.11l1.66-.65c.21-.08.43.09.39.32-.32,1.72-.71,4.32-.71,6.63,0,2.58.49,5.73.82,7.54.03.16.16.24.28.24.13,0,.25-.08.28-.24.33-1.81.82-4.96.82-7.54,0-2.32-.4-4.92-.71-6.63-.04-.22.18-.4.39-.32l1.67.65c.08.03.16-.03.16-.11l.8-28.22h0s.98-34.6.98-34.6c0-.15-.21-.17-.24-.03Z" style="fill: #1f3a6e;"/>
    <path d="M186.77,248.86l-5.26,5.26v20.4l5.26,5.26h15.79l5.26-5.26v-20.4l-5.26-5.26h-15.79ZM205.24,254.12h-3.82c-.71,0-1.28.57-1.28,1.28v14.14c0,1.41-1.15,2.56-2.56,2.56h-9.53c-.71,0-1.28.57-1.28,1.28v3.82c0,.29-.34.43-.55.23l-3.44-3.44v-19.34l4.51-4.51h14.73l3.44,3.44c.2.2.06.55-.23.55Z" style="fill: #1f3a6e;"/>
    <path d="M186.77,163.97l-5.26,5.26v20.4l5.26,5.26h15.79l5.26-5.26v-20.4l-5.26-5.26h-15.79ZM205.24,169.23h-3.82c-.71,0-1.28.57-1.28,1.28v14.14c0,1.41-1.15,2.56-2.56,2.56h-9.53c-.71,0-1.28.57-1.28,1.28v3.82c0,.29-.34.43-.55.23l-3.44-3.44v-19.34l4.51-4.51h14.73l3.44,3.44c.2.2.06.55-.23.55Z" style="fill: #1f3a6e;"/>
    <path d="M186.77,206.41l-5.26,5.26v20.4l5.26,5.26h15.79l5.26-5.26v-20.4l-5.26-5.26h-15.79ZM205.24,211.68h-3.82c-.71,0-1.28.57-1.28,1.28v14.14c0,1.41-1.15,2.56-2.56,2.56h-9.53c-.71,0-1.28.57-1.28,1.28v3.82c0,.29-.34.43-.55.23l-3.44-3.44v-19.34l4.51-4.51h14.73l3.44,3.44c.2.2.06.55-.23.55Z" style="fill: #1f3a6e;"/>
    <path d="M213.21,385.43l-4.41,9.46c-.03.06-.12.03-.11-.04.98-6.29,1.28-11.76,1.35-13.54,0-.13-.17-.17-.23-.05-.73,1.62-2.9,6.65-4.83,12.71-.02.07-.12.05-.12-.02l.28-10.44c0-.15-.21-.17-.24-.03l-5.68,27.58-1.3,6.32s0,0,0,0l-5.7,27.66c-.02.08.05.15.13.14l1.77-.25c.22-.03.4.19.31.4-.7,1.6-1.69,4.04-2.22,6.29-.59,2.51-.84,5.69-.93,7.52,0,.16.1.27.22.29.12.03.27-.02.33-.16.73-1.68,1.93-4.64,2.53-7.15.53-2.25.74-4.88.83-6.62.01-.23.27-.35.45-.22l1.47,1.02c.07.05.16.01.18-.07l7.26-27.29s0,0,0,0l8.89-33.43c.04-.14-.16-.21-.22-.08Z" style="fill: #1f3a6e;"/>
    <path d="M154.38,382.7c2.48-2.9,4.92-5.83,7.25-8.87.05-.07.04-.17-.03-.23-.06-.05-.15-.04-.21,0-8.37,7.83-16.1,16.28-23.59,24.94-2.48,2.9-4.92,5.83-7.25,8.87-.05.07-.04.17.03.23.06.05.15.04.21,0,8.36-7.83,16.1-16.28,23.59-24.94Z" style="fill: #1f3a6e;"/>
    <path d="M159.79,398.98l4.05-5.02,17.66-21.92c.09-.11-.06-.26-.17-.17l-7.87,6.85c-.05.05-.12-.02-.09-.08,3.45-5.35,5.94-10.23,6.74-11.82.06-.12-.09-.23-.19-.14-1.32,1.19-5.35,4.89-9.58,9.65-.05.05-.13,0-.1-.06l4.5-9.43c.06-.13-.12-.24-.21-.12l-16.4,22.9h0s-3.76,5.24-3.76,5.24h0s-16.44,22.96-16.44,22.96c-.05.07-.02.16.06.19l1.72.49c.22.06.28.34.12.49-1.29,1.17-3.18,3.01-4.58,4.85-1.56,2.05-3.08,4.86-3.91,6.5-.07.14-.02.28.08.36.1.08.25.09.37-.02,1.35-1.24,3.65-3.45,5.21-5.51,1.4-1.84,2.66-4.16,3.45-5.71.1-.2.38-.21.5-.02l.93,1.52c.04.07.14.08.2.01l17.72-21.99s0,0,0,0Z" style="fill: #1f3a6e;"/>
    <path d="M142.89,380.95l-7.09,4.28s-.09-.03-.06-.07c3.42-3.71,6.04-7.17,6.87-8.31.06-.08-.04-.19-.13-.14-1.2.75-4.85,3.1-8.81,6.23-.04.03-.1-.02-.07-.06l4.79-6.74c.07-.09-.06-.2-.14-.12l-21.95,21.54c-.06.06-.04.16.03.19l1.61.78c.2.1.22.38.03.5-1.47.93-3.65,2.41-5.35,3.99-1.89,1.75-3.87,4.26-4.97,5.73-.1.13-.07.27.02.37.09.09.23.13.37.05,1.55-.99,4.19-2.77,6.08-4.52,1.7-1.57,3.34-3.64,4.38-5.04.13-.18.41-.14.5.07l.65,1.66c.03.08.13.1.19.05l23.14-20.28c.09-.08-.01-.21-.11-.15Z" style="fill: #1f3a6e;"/>
    <path d="M181.13,411.37l15.99-30.68c.07-.13-.11-.24-.2-.13l-6.37,8.26c-.04.05-.13,0-.1-.06,2.33-5.92,3.82-11.2,4.28-12.92.03-.13-.13-.21-.21-.1-1.06,1.42-4.28,5.85-7.5,11.34-.04.06-.13.03-.11-.04l2.56-10.13c.04-.14-.17-.21-.23-.08l-11.58,25.67h0s-2.65,5.88-2.65,5.88h0s-11.61,25.74-11.61,25.74c-.03.08.02.16.1.17l1.78.14c.23.02.35.27.21.45-1.04,1.4-2.53,3.57-3.54,5.66-1.13,2.32-2.06,5.37-2.56,7.14-.04.15.04.28.15.34.11.06.26.04.36-.09,1.08-1.48,2.9-4.1,4.03-6.42,1.01-2.08,1.79-4.6,2.26-6.28.06-.22.33-.28.49-.11l1.21,1.31c.06.06.16.05.19-.03l13.05-25.04s0,0,0,0Z" style="fill: #1f3a6e;"/>
    <path d="M218.86,291.3l-5.26,5.26v20.4l5.26,5.26h15.79l5.26-5.26v-20.4l-5.26-5.26h-15.79ZM237.33,296.57h-3.82c-.71,0-1.28.57-1.28,1.28v14.14c0,1.41-1.15,2.56-2.56,2.56h-9.53c-.71,0-1.28.57-1.28,1.28v3.82c0,.29-.34.43-.55.23l-3.44-3.44v-19.34l4.51-4.51h14.73l3.44,3.44c.2.2.06.55-.23.55Z" style="fill: #1f3a6e;"/>
    <path d="M127.35,362.13l-7.66,3.16c-.05.02-.09-.05-.05-.08,3.94-3.15,7.05-6.18,8.05-7.17.07-.07,0-.19-.1-.15-1.29.56-5.26,2.33-9.65,4.83-.05.03-.1-.03-.06-.07l5.76-5.94c.08-.08-.03-.21-.12-.14l-24.95,17.97c-.07.05-.07.15,0,.2l1.47,1.01c.19.13.16.41-.04.5-1.6.7-3.97,1.83-5.89,3.13-2.13,1.45-4.47,3.62-5.78,4.91-.11.11-.11.26-.04.37.07.11.21.17.35.1,1.68-.74,4.56-2.1,6.7-3.55,1.92-1.3,3.85-3.09,5.09-4.31.16-.16.43-.08.48.14l.4,1.74c.02.08.11.12.18.07l25.95-16.54c.1-.06.02-.21-.09-.17Z" style="fill: #1f3a6e;"/>
    <path d="M178.27,386.43c.04-.08,0-.18-.07-.22-.07-.04-.16-.01-.2.05-6.78,9.23-12.83,18.97-18.59,28.86-1.91,3.3-3.77,6.64-5.49,10.06-.04.08,0,.18.07.22.07.04.16.01.2-.05,6.78-9.24,12.83-18.96,18.59-28.86,1.91-3.3,3.77-6.64,5.49-10.06Z" style="fill: #1f3a6e;"/>
  </g>
</svg>