<?xml version="1.0" encoding="UTF-8"?>
<svg id="Layer_1" xmlns="http://www.w3.org/2000/svg" version="1.1" viewBox="0 0 1080 1080">
  <!-- Generator: Adobe Illustrator 29.5.1, SVG Export Plug-In . SVG Version: 2.1.0 Build 141)  -->
  <defs>
    <style>
      .st0 {
        fill: #163478;
      }

      .st1 {
        fill: #1f3a6e;
      }
    </style>
  </defs>
  <path class="st0" d="M532.51,775.99l4.25-13.08,2.87-8.83,2.87,8.83,4.25,13.08.94,2.88h152.24v-465.6h-314.86v465.6h146.5l.94-2.88ZM387.95,775.99v-459.85h309.1v459.85h-147.27l-4.25-13.08h138.04v-433.68h-.05l-10.56,10.39v413.08h-130.74l-.94-2.88h128.8v-407.51h-255.15v407.51h123.06l-.94,2.88h-125v-.19l-10.56,10.39h132.25l-4.25,13.08h-141.54ZM417.8,345.19h249.39v401.76h-249.39v-401.76Z"/>
  <path class="st0" d="M689.4,301.76h-315.85v488.62h144.77l10.14,7.37-5.46,16.81-1.44,4.43,3.77-2.74,14.29-10.38,14.29,10.38,3.77,2.74-1.44-4.43-5.46-16.81,10.14-7.37h150.5v-488.62h-22.03ZM530.41,795.6l-7.38-5.36,5.21,1.69,6.74,2.19h0l-4.57,1.48h0ZM538.19,803.35l-7.38,5.36,4.33-5.96,3.06-4.21v4.8ZM538.19,789.69h0s-2.82-3.88-2.82-3.88l2.82-8.68v12.56ZM546.45,801.06l-3.05-4.21,4.56,1.48,2.82,8.68-4.33-5.96ZM551.86,788.64l-8.46,2.75.53-.73,2.29-3.16h9.13l-3.48,1.13ZM705.68,784.63h-159.15l-1.87-5.75-.94-2.88-2.65-8.17-1.44-4.43-1.44,4.43-5.46,16.8h-153.42v-477.11h326.37v477.11Z"/>
  <polygon class="st0" points="530.81 808.71 530.81 808.71 538.19 803.35 538.19 798.55 535.13 802.75 530.81 808.71"/>
  <polygon class="st0" points="534.97 794.12 528.23 791.93 523.02 790.24 530.41 795.61 534.97 794.12 534.97 794.12"/>
  <polygon class="st0" points="538.19 789.69 538.19 789.69 538.19 777.13 535.37 785.81 538.19 789.69"/>
  <polygon class="st0" points="543.92 790.66 543.4 791.38 551.86 788.63 555.34 787.5 546.22 787.5 543.92 790.66"/>
  <polygon class="st0" points="543.4 796.86 543.4 796.86 546.45 801.06 550.78 807.02 547.96 798.34 543.4 796.86"/>
  <path class="st0" d="M524.78,423.33c0-1.59,1.29-2.88,2.88-2.88h21.43c3.18,0,5.75-2.58,5.75-5.75v-31.78c0-1.59,1.29-2.88,2.88-2.88h8.58c.64,0,.96-.77.51-1.23l-7.72-7.73h-33.11l-10.14,10.15v43.46l7.72,7.72c.45.45,1.23.13,1.23-.51v-8.58Z"/>
  <path class="st0" d="M596.85,423.33c0-1.59,1.29-2.88,2.88-2.88h21.43c3.18,0,5.75-2.58,5.75-5.75v-31.78c0-1.59,1.29-2.88,2.88-2.88h8.58c.64,0,.96-.77.51-1.23l-7.72-7.73h-33.11l-10.14,10.15v43.46l7.72,7.72c.45.45,1.23.13,1.23-.51v-8.58Z"/>
  <path class="st0" d="M596.85,709.54c0-1.59,1.29-2.88,2.88-2.88h21.43c3.18,0,5.75-2.58,5.75-5.75v-31.78c0-1.59,1.29-2.88,2.88-2.88h8.58c.64,0,.96-.77.51-1.23l-7.72-7.73h-33.11l-10.14,10.15v43.46l7.72,7.72c.45.45,1.23.13,1.23-.51v-8.58Z"/>
  <path class="st0" d="M596.85,518.73c0-1.59,1.29-2.88,2.88-2.88h21.43c3.18,0,5.75-2.58,5.75-5.75v-31.78c0-1.59,1.29-2.88,2.88-2.88h8.58c.64,0,.96-.77.51-1.23l-7.72-7.73h-33.11l-10.14,10.15v43.46l7.72,7.72c.45.45,1.23.13,1.23-.51v-8.58Z"/>
  <path class="st0" d="M524.78,518.73c0-1.59,1.29-2.88,2.88-2.88h21.43c3.18,0,5.75-2.58,5.75-5.75v-31.78c0-1.59,1.29-2.88,2.88-2.88h8.58c.64,0,.96-.77.51-1.23l-7.72-7.73h-33.11l-10.14,10.15v43.46l7.72,7.72c.45.45,1.23.13,1.23-.51v-8.58Z"/>
  <path class="st0" d="M596.85,614.14c0-1.59,1.29-2.88,2.88-2.88h21.43c3.18,0,5.75-2.58,5.75-5.75v-31.78c0-1.59,1.29-2.88,2.88-2.88h8.58c.64,0,.96-.77.51-1.23l-7.72-7.73h-33.11l-10.14,10.15v43.46l7.72,7.72c.45.45,1.23.13,1.23-.51v-8.58Z"/>
  <path class="st0" d="M452.65,709.54c0-1.59,1.29-2.88,2.88-2.88h21.43c3.18,0,5.75-2.58,5.75-5.75v-31.78c0-1.59,1.29-2.88,2.88-2.88h8.58c.64,0,.96-.77.51-1.23l-7.72-7.73h-33.11l-10.14,10.15v43.46l7.72,7.72c.45.45,1.23.13,1.23-.51v-8.58Z"/>
  <path class="st0" d="M452.65,518.73c0-1.59,1.29-2.88,2.88-2.88h21.43c3.18,0,5.75-2.58,5.75-5.75v-31.78c0-1.59,1.29-2.88,2.88-2.88h8.58c.64,0,.96-.77.51-1.23l-7.72-7.73h-33.11l-10.14,10.15v43.46l7.72,7.72c.45.45,1.23.13,1.23-.51v-8.58Z"/>
  <path class="st0" d="M452.65,423.33c0-1.59,1.29-2.88,2.88-2.88h21.43c3.18,0,5.75-2.58,5.75-5.75v-31.78c0-1.59,1.29-2.88,2.88-2.88h8.58c.64,0,.96-.77.51-1.23l-7.72-7.73h-33.11l-10.14,10.15v43.46l7.72,7.72c.45.45,1.23.13,1.23-.51v-8.58Z"/>
  <path class="st0" d="M423.56,741.19h237.88v-390.25h-237.88v390.25ZM585.02,380.04l11.83-11.83h35.49l11.83,11.83v45.85l-11.83,11.83h-35.49l-11.83-11.83v-45.85ZM585.02,475.44l11.83-11.83h35.49l11.83,11.83v45.85l-11.83,11.83h-35.49l-11.83-11.83v-45.85ZM585.02,570.85l11.83-11.83h35.49l11.83,11.83v45.85l-11.83,11.83h-35.49l-11.83-11.83v-45.85ZM585.02,666.25l11.83-11.83h35.49l11.83,11.83v45.85l-11.83,11.83h-35.49l-11.83-11.83v-45.85ZM512.95,380.04l11.83-11.83h35.49l11.83,11.83v45.85l-11.83,11.83h-35.49l-11.83-11.83v-45.85ZM512.95,475.44l11.83-11.83h35.49l11.83,11.83v45.85l-11.83,11.83h-35.49l-11.83-11.83v-45.85ZM512.95,570.85l11.83-11.83h35.49l11.83,11.83v45.85l-11.83,11.83h-35.49l-11.83-11.83v-45.85ZM512.95,666.25l11.83-11.83h35.49l11.83,11.83v45.85l-11.83,11.83h-35.49l-11.83-11.83v-45.85ZM440.82,380.04l11.83-11.83h35.49l11.83,11.83v45.85l-11.83,11.83h-35.49l-11.83-11.83v-45.85ZM440.82,475.44l11.83-11.83h35.49l11.83,11.83v45.85l-11.83,11.83h-35.49l-11.83-11.83v-45.85ZM440.82,570.85l11.83-11.83h35.49l11.83,11.83v45.85l-11.83,11.83h-35.49l-11.83-11.83v-45.85ZM440.82,666.25l11.83-11.83h35.49l11.83,11.83v45.85l-11.83,11.83h-35.49l-11.83-11.83v-45.85Z"/>
  <path class="st0" d="M452.65,614.14c0-1.59,1.29-2.88,2.88-2.88h21.43c3.18,0,5.75-2.58,5.75-5.75v-31.78c0-1.59,1.29-2.88,2.88-2.88h8.58c.64,0,.96-.77.51-1.23l-7.72-7.73h-33.11l-10.14,10.15v43.46l7.72,7.72c.45.45,1.23.13,1.23-.51v-8.58Z"/>
  <path class="st0" d="M524.78,709.54c0-1.59,1.29-2.88,2.88-2.88h21.43c3.18,0,5.75-2.58,5.75-5.75v-31.78c0-1.59,1.29-2.88,2.88-2.88h8.58c.64,0,.96-.77.51-1.23l-7.72-7.73h-33.11l-10.14,10.15v43.46l7.72,7.72c.45.45,1.23.13,1.23-.51v-8.58Z"/>
  <path class="st0" d="M524.78,614.14c0-1.59,1.29-2.88,2.88-2.88h21.43c3.18,0,5.75-2.58,5.75-5.75v-31.78c0-1.59,1.29-2.88,2.88-2.88h8.58c.64,0,.96-.77.51-1.23l-7.72-7.73h-33.11l-10.14,10.15v43.46l7.72,7.72c.45.45,1.23.13,1.23-.51v-8.58Z"/>
  <polygon class="st0" points="391.11 319.02 390.82 319.02 390.82 773.12 391.11 773.12 401.48 762.91 401.44 762.91 401.44 329.23 401.48 329.23 683.51 329.23 693.89 319.02 391.11 319.02"/>
  <path class="st0" d="M759.62,517.19l181.3-12.89-181.3,12.89Z"/>
  <path class="st1" d="M759.57,516.48c29.91-5.55,60.07-8.48,90.34-10.75,15.11-1.09,30.24-1.86,45.39-2.31,15.16-.41,30.33-.56,45.57.17.4.02.71.36.69.76-.02.34-.27.62-.59.68-14.98,2.87-30.02,4.87-45.08,6.61-30.13,3.39-60.35,5.51-90.65,6.43-15.16.41-30.33.56-45.56-.15-.4-.02-.71-.36-.69-.76.02-.34.27-.62.59-.68"/>
  <path class="st0" d="M825.72,548.16c10.64-1.79,21.6-1.95,32.35-1.75,6.51.24,12.95.61,19.41,1.75.33.05.34.57,0,.61-12.79,2.08-25.92,2.13-38.82,1.43-4.31-.27-8.63-.67-12.94-1.43-.33-.05-.34-.57,0-.61"/>
  <line class="st0" x1="750.76" y1="455.94" x2="928.22" y2="416.64"/>
  <path class="st1" d="M750.61,455.24c28.77-9.87,58.18-17.19,87.79-23.86,14.79-3.29,29.64-6.27,44.56-8.93,14.93-2.63,29.92-4.99,45.1-6.51.4-.04.75.25.79.65.03.34-.17.65-.48.76-14.4,5.03-28.98,9.22-43.63,13.14-29.3,7.77-58.89,14.29-88.73,19.63-14.93,2.62-29.92,4.99-45.09,6.53-.4.04-.75-.25-.79-.65-.03-.34.17-.65.48-.76"/>
  <path class="st0" d="M820.59,476.75c10.27-3.29,21.1-5.02,31.77-6.35,6.47-.69,12.91-1.25,19.46-1.05.33,0,.42.51.09.61-12.36,3.89-25.35,5.81-38.22,6.96-4.31.35-8.63.57-13.01.43-.33,0-.42-.51-.09-.61"/>
  <line class="st0" x1="733" y1="397.54" x2="902.1" y2="330.91"/>
  <path class="st1" d="M732.73,396.87c26.87-14.26,54.77-26.1,82.97-37.33,14.09-5.56,28.29-10.84,42.61-15.81,14.34-4.93,28.77-9.62,43.52-13.5.39-.1.78.13.88.52.09.33-.07.67-.36.82-13.43,7.23-27.18,13.65-41.03,19.82-27.73,12.26-55.92,23.35-84.56,33.3-14.34,4.93-28.77,9.62-43.51,13.51-.39.1-.78-.13-.89-.52-.09-.33.07-.67.36-.82"/>
  <path class="st0" d="M805.08,407.06c9.66-4.8,20.1-8.15,30.45-11.08,6.29-1.66,12.57-3.19,19.08-3.98.33-.05.49.44.18.59-11.63,5.71-24.18,9.58-36.73,12.66-4.21,1-8.45,1.87-12.8,2.39-.33.05-.49-.44-.18-.59"/>
  <path class="st0" d="M778.98,341.04c8.74-6.32,18.49-11.33,28.22-15.91,5.94-2.67,11.88-5.2,18.17-7.04.32-.1.56.36.27.55-10.54,7.54-22.29,13.41-34.16,18.5-3.99,1.67-8.03,3.23-12.23,4.46-.31.1-.56-.36-.27-.55"/>
  <line class="st0" x1="631.44" y1="263.51" x2="732.08" y2="112.16"/>
  <path class="st1" d="M630.84,263.11c21.03-40.42,46.11-78.44,72.64-115.4,8.94-12.24,18.1-24.34,27.99-35.96.26-.3.72-.34,1.02-.08.26.22.33.59.18.88-20.98,40.45-46.12,78.43-72.66,115.39-8.94,12.24-18.1,24.34-27.97,35.97-.26.31-.72.34-1.02.08-.26-.22-.33-.59-.18-.88"/>
  <path class="st0" d="M694.64,230.03c5.58-9.23,12.6-17.65,19.77-25.67,4.42-4.78,8.9-9.43,13.98-13.58.25-.22.65.11.46.4-6.76,11.06-15.28,21.05-24.22,30.37-3.02,3.09-6.13,6.1-9.52,8.88-.25.22-.65-.11-.47-.4"/>
  <path class="st0" d="M637.51,192.26c3.04-10.35,7.68-20.28,12.56-29.86,3.06-5.75,6.2-11.38,10.05-16.7.19-.27.66-.06.55.27-3.71,12.41-9.41,24.25-15.67,35.55-2.13,3.76-4.37,7.47-6.94,11.02-.19.27-.66.06-.55-.27"/>
  <line class="st0" x1="448.56" y1="263.51" x2="347.92" y2="112.16"/>
  <path class="st1" d="M447.96,263.91c-29.14-35.03-54.49-72.86-78.3-111.63-7.83-12.98-15.44-26.11-22.33-39.72-.18-.36-.04-.79.32-.97.31-.15.67-.07.88.18,29.18,35,54.48,72.88,78.29,111.64,7.83,12.98,15.44,26.11,22.34,39.71.18.36.04.79-.32.97-.31.16-.67.07-.88-.18"/>
  <path class="st0" d="M441.93,192.53c-6.25-8.79-11.19-18.57-15.7-28.34-2.63-5.96-5.11-11.91-6.91-18.22-.1-.32.36-.55.55-.27,7.46,10.59,13.24,22.39,18.25,34.3,1.64,4,3.17,8.05,4.37,12.27.1.32-.36.56-.55.27"/>
  <path class="st0" d="M384.89,230.43c-8.29-6.9-15.56-15.1-22.42-23.39-4.06-5.09-7.98-10.21-11.33-15.86-.18-.28.21-.63.47-.4,9.92,8.34,18.52,18.27,26.39,28.5,2.61,3.45,5.12,6.98,7.35,10.75.18.28-.21.63-.47.4"/>
  <line class="st0" x1="347" y1="397.54" x2="177.9" y2="330.91"/>
  <path class="st1" d="M346.74,398.21c-43.93-12.08-86.37-28.62-128.07-46.81-13.85-6.17-27.6-12.59-41.03-19.82-.35-.19-.48-.63-.29-.98.16-.3.51-.44.82-.36,43.95,12.02,86.36,28.64,128.07,46.83,13.85,6.18,27.6,12.59,41.04,19.8.35.19.48.63.29.98-.16.3-.51.44-.82.36"/>
  <path class="st0" d="M300.75,341.6c-10.33-3.12-20.22-7.83-29.77-12.78-5.73-3.1-11.34-6.29-16.62-10.17-.27-.19-.05-.66.27-.55,12.39,3.8,24.18,9.58,35.43,15.93,3.75,2.16,7.44,4.43,10.96,7.02.27.19.05.66-.27.55"/>
  <line class="st0" x1="329.24" y1="455.94" x2="151.78" y2="416.64"/>
  <path class="st1" d="M329.08,456.64c-45.28-5.04-89.79-14.73-133.83-26.16-14.64-3.92-29.23-8.11-43.63-13.14-.38-.13-.58-.55-.44-.92.11-.32.43-.51.76-.48,45.29,4.99,89.78,14.75,133.82,26.18,14.64,3.93,29.23,8.11,43.63,13.13.38.13.58.54.45.92-.11.32-.43.52-.76.48"/>
  <path class="st0" d="M274.74,407.65c-10.7-1.39-21.23-4.41-31.46-7.74-6.16-2.12-12.21-4.35-18.06-7.31-.3-.14-.16-.64.18-.59,12.84,1.72,25.42,5.5,37.56,9.92,4.05,1.51,8.06,3.15,11.97,5.13.3.14.16.64-.18.59"/>
  <line class="st0" x1="320.38" y1="517.19" x2="139.08" y2="504.3"/>
  <path class="st1" d="M320.33,517.91c-30.39,1.26-60.67-.1-90.96-2.14-15.11-1.06-30.2-2.43-45.26-4.14-15.06-1.74-30.1-3.74-45.08-6.61-.39-.07-.65-.45-.58-.85.06-.34.35-.57.68-.59,15.24-.72,30.41-.58,45.57-.17,30.3.9,60.52,3.08,90.65,6.46,15.06,1.74,30.1,3.74,45.08,6.59.39.07.65.45.58.85-.06.34-.35.57-.68.59"/>
  <path class="st0" d="M259.32,477.36c-10.78.25-21.66-1.15-32.27-2.89-6.41-1.17-12.73-2.45-18.96-4.5-.32-.1-.26-.61.09-.61,12.96-.24,25.96,1.59,38.63,4.13,4.23.88,8.44,1.9,12.6,3.27.32.09.26.61-.09.61"/>
  <line class="st0" x1="320.38" y1="579.73" x2="139.08" y2="592.63"/>
  <path class="st1" d="M320.43,580.45c-29.91,5.55-60.07,8.48-90.34,10.75-15.11,1.09-30.24,1.86-45.39,2.31-15.16.41-30.33.56-45.57-.17-.4-.02-.71-.36-.69-.76.02-.34.27-.62.59-.68,14.98-2.87,30.02-4.87,45.08-6.61,30.13-3.39,60.35-5.51,90.65-6.43,15.16-.41,30.33-.56,45.56.15.4.02.71.36.69.76-.02.34-.27.62-.59.68"/>
  <path class="st0" d="M254.27,548.77c-10.64,1.79-21.6,1.95-32.35,1.75-6.51-.24-12.95-.61-19.41-1.75-.33-.05-.34-.57,0-.61,12.79-2.08,25.92-2.13,38.82-1.43,4.31.27,8.63.67,12.94,1.43.33.05.34.57,0,.61"/>
  <line class="st0" x1="329.24" y1="640.99" x2="151.78" y2="680.29"/>
  <path class="st1" d="M329.39,641.69c-28.77,9.87-58.18,17.19-87.79,23.86-14.79,3.29-29.64,6.27-44.56,8.93-14.93,2.63-29.92,4.99-45.1,6.51-.4.04-.75-.25-.79-.65-.03-.34.17-.65.48-.76,14.4-5.03,28.98-9.22,43.63-13.14,29.31-7.77,58.89-14.29,88.73-19.63,14.93-2.62,29.92-4.99,45.09-6.53.4-.04.75.25.79.65.03.34-.17.65-.48.76"/>
  <path class="st0" d="M259.41,620.18c-10.27,3.29-21.1,5.02-31.77,6.35-6.47.69-12.91,1.25-19.46,1.04-.33,0-.42-.51-.09-.61,12.36-3.89,25.35-5.81,38.22-6.96,4.31-.35,8.63-.57,13.01-.43.33,0,.42.51.09.61"/>
  <line class="st0" x1="347" y1="699.39" x2="177.9" y2="766.01"/>
  <path class="st1" d="M347.27,700.05c-26.87,14.26-54.77,26.1-82.97,37.33-14.09,5.56-28.29,10.84-42.61,15.8-14.34,4.93-28.77,9.62-43.52,13.5-.39.1-.78-.13-.88-.52-.09-.33.07-.67.36-.82,13.43-7.23,27.18-13.65,41.03-19.82,27.73-12.26,55.92-23.35,84.56-33.3,14.34-4.93,28.77-9.62,43.51-13.51.39-.1.78.13.89.52.09.33-.07.67-.36.82"/>
  <path class="st0" d="M274.92,689.86c-9.66,4.8-20.1,8.15-30.45,11.08-6.29,1.66-12.57,3.19-19.08,3.97-.33.05-.49-.44-.18-.59,11.63-5.71,24.18-9.58,36.73-12.66,4.21-1,8.45-1.87,12.8-2.39.33-.05.49.44.18.59"/>
  <path class="st0" d="M301.02,755.88c-8.74,6.32-18.49,11.33-28.22,15.91-5.94,2.67-11.88,5.2-18.17,7.04-.32.1-.56-.36-.27-.55,10.54-7.54,22.29-13.41,34.16-18.5,3.99-1.67,8.03-3.23,12.23-4.46.31-.1.56.36.27.55"/>
  <line class="st0" x1="448.56" y1="833.42" x2="347.92" y2="984.77"/>
  <path class="st1" d="M449.16,833.82c-21.03,40.42-46.11,78.44-72.65,115.4-8.94,12.24-18.1,24.34-27.99,35.96-.26.31-.72.34-1.02.08-.26-.22-.32-.59-.18-.88,20.98-40.45,46.12-78.43,72.66-115.39,8.94-12.24,18.1-24.34,27.97-35.97.26-.31.72-.34,1.02-.08.26.22.33.59.18.88"/>
  <path class="st0" d="M385.36,866.9c-5.58,9.23-12.6,17.65-19.77,25.67-4.42,4.78-8.9,9.42-13.98,13.58-.25.22-.65-.11-.47-.4,6.76-11.06,15.28-21.05,24.23-30.37,3.02-3.09,6.13-6.1,9.52-8.88.25-.22.65.11.47.4"/>
  <line class="st0" x1="493.32" y1="855.16" x2="438.37" y2="1028.41"/>
  <path class="st1" d="M494.01,855.38c-9.06,44.65-22.67,88.12-37.97,130.97-5.21,14.24-10.68,28.39-16.98,42.29-.17.36-.59.53-.96.36-.31-.14-.47-.47-.41-.8,9-44.67,22.68-88.11,37.99-130.96,5.22-14.23,10.68-28.39,16.96-42.29.16-.37.59-.53.96-.36.31.14.47.47.41.8"/>
  <path class="st0" d="M442.49,904.67c-3.04,10.35-7.68,20.28-12.56,29.86-3.06,5.75-6.2,11.39-10.05,16.7-.19.27-.66.06-.55-.27,3.71-12.41,9.41-24.25,15.67-35.55,2.13-3.76,4.37-7.47,6.94-11.01.19-.27.66-.06.55.27"/>
  <path class="st1" d="M540.72,862.44c3.42,30.23,4.2,60.52,4.31,90.88.01,15.15-.28,30.29-.92,45.44-.66,15.15-1.6,30.29-3.4,45.44-.05.4-.41.68-.8.63-.34-.04-.6-.31-.63-.63-1.8-15.15-2.73-30.29-3.4-45.44-1.25-30.29-1.22-60.59.02-90.88.67-15.15,1.6-30.29,3.38-45.44.05-.4.41-.68.8-.63.34.04.6.31.63.63"/>
  <path class="st0" d="M506.8,924.89c.13,10.79-1.39,21.64-3.25,32.23-1.24,6.39-2.59,12.7-4.71,18.91-.1.32-.61.25-.61-.09-.09-12.96,1.88-25.94,4.56-38.58.93-4.22,1.99-8.42,3.41-12.57.1-.32.61-.25.61.09"/>
  <line class="st0" x1="586.68" y1="855.16" x2="641.63" y2="1028.41"/>
  <path class="st1" d="M587.37,854.94c12.39,27.78,22.3,56.42,31.59,85.32,4.59,14.43,8.89,28.96,12.86,43.59,3.94,14.64,7.64,29.36,10.5,44.34.07.39-.18.77-.58.85-.34.06-.66-.12-.8-.41-6.3-13.89-11.76-28.05-16.98-42.29-10.35-28.5-19.48-57.38-27.46-86.63-3.94-14.64-7.64-29.36-10.52-44.33-.08-.39.18-.77.57-.85.34-.06.66.11.8.41"/>
  <path class="st0" d="M573.8,924.8c3.4,10.24,5.25,21.04,6.7,31.7.77,6.47,1.39,12.89,1.26,19.45,0,.33-.51.42-.61.09-4.03-12.32-6.1-25.29-7.39-38.14-.4-4.3-.67-8.63-.58-13.01,0-.33.51-.42.61-.09"/>
  <line class="st0" x1="631.44" y1="833.42" x2="732.08" y2="984.77"/>
  <path class="st1" d="M632.04,833.02c29.14,35.03,54.49,72.86,78.3,111.63,7.83,12.98,15.44,26.11,22.33,39.72.18.36.04.79-.32.97-.3.15-.67.07-.88-.18-29.18-35-54.48-72.88-78.29-111.65-7.83-12.98-15.44-26.11-22.34-39.71-.18-.36-.04-.79.32-.97.31-.16.67-.07.88.18"/>
  <path class="st0" d="M638.07,904.4c6.25,8.79,11.19,18.57,15.7,28.34,2.63,5.96,5.11,11.91,6.91,18.22.1.32-.36.55-.55.27-7.46-10.59-13.24-22.39-18.25-34.3-1.64-4-3.17-8.05-4.37-12.27-.1-.32.36-.55.55-.27"/>
  <path class="st0" d="M695.11,866.5c8.29,6.9,15.56,15.1,22.42,23.39,4.06,5.09,7.98,10.21,11.33,15.86.18.28-.21.63-.47.4-9.92-8.34-18.52-18.27-26.39-28.5-2.61-3.45-5.12-6.98-7.35-10.75-.17-.28.21-.63.47-.4"/>
  <line class="st0" x1="733" y1="699.39" x2="902.1" y2="766.01"/>
  <path class="st1" d="M733.26,698.72c43.93,12.08,86.37,28.62,128.07,46.81,13.85,6.17,27.6,12.59,41.03,19.82.35.19.48.63.29.98-.16.3-.51.44-.82.36-43.95-12.02-86.36-28.64-128.06-46.83-13.85-6.18-27.6-12.59-41.04-19.8-.35-.19-.48-.63-.29-.98.16-.3.51-.44.82-.36"/>
  <path class="st0" d="M779.25,755.33c10.33,3.12,20.22,7.83,29.77,12.78,5.73,3.1,11.34,6.29,16.62,10.17.27.19.05.66-.27.55-12.39-3.8-24.18-9.58-35.43-15.93-3.75-2.16-7.44-4.43-10.96-7.02-.27-.19-.05-.66.27-.55"/>
  <line class="st0" x1="750.76" y1="640.99" x2="928.22" y2="680.29"/>
  <path class="st1" d="M750.92,640.29c45.28,5.04,89.79,14.73,133.83,26.16,14.64,3.92,29.23,8.11,43.63,13.14.38.13.58.55.44.92-.11.32-.43.52-.76.48-45.29-4.99-89.78-14.75-133.82-26.18-14.64-3.93-29.23-8.11-43.63-13.13-.38-.13-.58-.54-.45-.92.11-.32.43-.52.76-.48"/>
  <path class="st0" d="M805.26,689.28c10.7,1.39,21.23,4.41,31.46,7.74,6.16,2.12,12.21,4.35,18.06,7.32.3.14.16.64-.18.59-12.84-1.72-25.42-5.5-37.56-9.92-4.05-1.51-8.06-3.15-11.97-5.13-.3-.14-.16-.64.18-.59"/>
  <line class="st0" x1="759.62" y1="579.73" x2="940.92" y2="592.63"/>
  <path class="st1" d="M759.67,579.02c30.39-1.26,60.67.1,90.96,2.14,15.11,1.06,30.2,2.43,45.26,4.14,15.06,1.74,30.1,3.74,45.08,6.61.39.07.65.45.58.85-.06.34-.35.57-.68.59-15.24.72-30.41.58-45.57.17-30.3-.9-60.52-3.08-90.65-6.46-15.06-1.74-30.1-3.74-45.08-6.59-.39-.07-.65-.45-.58-.85.06-.34.35-.57.68-.59"/>
  <path class="st0" d="M820.68,619.57c10.78-.25,21.66,1.15,32.27,2.89,6.41,1.17,12.73,2.45,18.96,4.5.32.1.26.61-.09.61-12.96.24-25.96-1.59-38.63-4.13-4.23-.88-8.44-1.9-12.6-3.27-.32-.09-.26-.61.09-.61"/>
  <line class="st0" x1="745.37" y1="320.55" x2="900.44" y2="225.75"/>
  <path class="st1" d="M744.99,319.94c36.11-27.78,74.88-51.68,114.53-74,13.27-7.33,26.68-14.44,40.54-20.8.36-.17.79,0,.96.36.14.31.05.67-.21.87-36.08,27.83-74.89,51.67-114.54,73.99-13.27,7.33-26.68,14.44-40.53,20.82-.36.17-.79,0-.96-.36-.14-.31-.05-.67.21-.87"/>
  <path class="st0" d="M762.8,265.43c7.43-7.82,16.09-14.54,24.81-20.83,5.34-3.72,10.72-7.3,16.57-10.26.29-.16.61.25.37.49-8.97,9.35-19.44,17.28-30.18,24.46-3.61,2.37-7.3,4.65-11.21,6.63-.29.16-.61-.25-.37-.49"/>
  <path class="st0" d="M316.83,265.92c-9.58-4.96-18.44-11.41-26.91-18.04-5.06-4.1-9.99-8.26-14.47-13.05-.23-.24.07-.66.37-.49,11.48,6.02,22.01,13.87,31.9,22.18,3.29,2.81,6.49,5.72,9.49,8.92.23.23-.07.66-.37.49"/>
  <path class="st0" d="M317.2,831.5c-7.43,7.82-16.09,14.54-24.81,20.83-5.34,3.72-10.72,7.3-16.57,10.26-.29.16-.61-.25-.37-.49,8.97-9.35,19.44-17.28,30.18-24.46,3.61-2.37,7.3-4.65,11.21-6.63.29-.16.61.25.37.49"/>
  <path class="st0" d="M763.17,831.01c9.58,4.96,18.44,11.41,26.91,18.04,5.06,4.1,9.99,8.26,14.47,13.05.23.24-.07.66-.37.49-11.48-6.02-22.01-13.87-31.9-22.18-3.28-2.81-6.49-5.72-9.49-8.92-.23-.23.07-.66.37-.49"/>
  <line class="st0" x1="334.63" y1="320.55" x2="179.56" y2="225.75"/>
  <path class="st1" d="M334.26,321.16c-41.19-19.48-80.14-43.09-118.07-68.2-12.58-8.47-25.01-17.16-37-26.6-.31-.25-.37-.7-.12-1.02.21-.27.57-.35.87-.21,41.22,19.43,80.13,43.11,118.06,68.22,12.57,8.47,25.01,17.16,37.01,26.58.31.25.37.7.12,1.02-.21.27-.57.35-.87.21"/>
  <line class="st0" x1="745.37" y1="776.38" x2="900.44" y2="871.18"/>
  <path class="st1" d="M745.74,775.76c41.19,19.48,80.14,43.09,118.07,68.2,12.58,8.47,25.01,17.16,37,26.6.31.25.37.7.12,1.02-.21.27-.57.35-.87.21-41.22-19.43-80.13-43.11-118.07-68.22-12.57-8.47-25.01-17.16-37-26.58-.31-.25-.37-.7-.12-1.02.21-.27.57-.35.87-.21"/>
  <line class="st0" x1="334.63" y1="776.38" x2="179.56" y2="871.18"/>
  <path class="st1" d="M335.01,776.99c-36.11,27.78-74.88,51.68-114.53,74-13.27,7.33-26.68,14.44-40.54,20.8-.36.17-.79,0-.96-.36-.14-.31-.05-.67.21-.87,36.08-27.83,74.89-51.67,114.54-73.99,13.27-7.33,26.68-14.44,40.53-20.82.36-.17.79,0,.96.35.14.31.05.67-.21.87"/>
  <line class="st0" x1="341.14" y1="860.18" x2="238.2" y2="955.67"/>
  <path class="st1" d="M341.63,860.7c-22.3,27.32-48.02,51.41-74.9,74.11-9.03,7.47-18.24,14.75-28.05,21.38-.64.45-1.51-.43-.98-1.05,22.26-27.36,48.03-51.4,74.91-74.1,9.03-7.47,18.24-14.75,28.03-21.39.64-.46,1.51.43.98,1.05"/>
  <path class="st1" d="M540.72,862.44c3.42,30.23,4.2,60.52,4.31,90.88.01,15.15-.28,30.29-.92,45.44-.66,15.15-1.6,30.29-3.4,45.44-.05.4-.41.68-.8.63-.34-.04-.6-.31-.63-.63-1.8-15.15-2.73-30.29-3.4-45.44-1.25-30.29-1.22-60.59.02-90.88.67-15.15,1.6-30.29,3.38-45.44.05-.4.41-.68.8-.63.34.04.6.31.63.63"/>
  <line class="st0" x1="738.86" y1="860.18" x2="841.8" y2="955.67"/>
  <path class="st1" d="M739.35,859.65c28.91,20.19,54.87,44.03,79.52,69.13,8.13,8.45,16.07,17.09,23.43,26.36.5.6-.31,1.54-.98,1.05-28.95-20.14-54.86-44.04-79.51-69.14-8.12-8.45-16.07-17.08-23.44-26.35-.5-.6.31-1.54.98-1.05"/>
  <line class="st0" x1="341.14" y1="236.75" x2="238.2" y2="141.26"/>
  <path class="st1" d="M340.65,237.28c-28.91-20.19-54.87-44.03-79.52-69.13-8.13-8.45-16.07-17.09-23.43-26.36-.5-.6.31-1.54.98-1.05,28.95,20.14,54.86,44.04,79.51,69.14,8.12,8.45,16.07,17.08,23.44,26.35.5.6-.31,1.54-.98,1.05"/>
  <line class="st0" x1="738.86" y1="236.75" x2="841.8" y2="141.26"/>
  <path class="st1" d="M738.37,236.23c22.3-27.32,48.02-51.41,74.9-74.11,9.03-7.47,18.24-14.75,28.05-21.38.64-.45,1.51.43.98,1.05-22.26,27.36-48.03,51.4-74.91,74.1-9.04,7.47-18.24,14.75-28.03,21.39-.64.46-1.51-.43-.98-1.05"/>
  <path class="st0" d="M603.51,48.58c.77-.61,1.45-1.08,2.37-1.44.24-.39.38-.79.47-1.19.26-1.14.68-2.11,1.23-3.25-1.61.66-2.9,1.66-4.19,2.76.17,1.05.18,1.98.12,3.13"/>
  <path class="st0" d="M534.38,42.14l2.2,1.76c.21-1.98,1.41-2.57.21-3.69-1.1-1.25-2.38-2.23-3.89-3.09l.77,3.76c.1.51.28.95.7,1.26"/>
  <path class="st0" d="M546.81,42.82c.47-.39,1.13-.8,1.46-1.35l.81-4.33c-1.48.77-2.52,1.86-3.59,3.02-.33.35-.64.7-.76,1.19.48.78.67,1.58.91,2.43l1.17-.97Z"/>
  <path class="st0" d="M595.46,46.74c.53-.82.88-1.36,1.53-1.8.31-.26.37-.62.28-1.02-.44-1.62-.98-3.15-1.78-4.75l-1.2,3.57c-.13.34-.21.69-.11,1.05l1.28,2.95Z"/>
  <path class="st0" d="M474.51,48.41c.45.92,1.98.95,3.31,1.73-.25-1.09-.26-2.04-.33-3.08-1.49-.9-3.01-1.54-4.74-2.05l.67,1.19,1.09,2.22Z"/>
  <path class="st0" d="M486.2,46.83c.3-1.16.85-1.9,1.3-2.82.15-.36-.13-.98-.24-1.34l-.98-3c-.77,1.21-2.19,4.86-1.8,5.28l1.73,1.88Z"/>
  <path class="st0" d="M637.23,67.87c1.63-1.41,3.51-2.35,5.74-2.76-.4-.6-1.28-.62-1.97-.86l-.22-.04c-3.77-.7-5.41.86-5.52.79-.09-.07-.06-.2-.03-.35l.33-1.64c.32-1.6.45-3.14.37-4.81,0-.16-.01-.3-.17-.22l-.37.17c-2.36,1.11-4.5,2.49-6.52,4.07-.16-.13-.12-.24-.12-.32v-.7s-.26-1.83-.26-1.83l-.06-.19c-.45-1.41-.91-2.76-1.97-3.78-.86-.82-1.93-1.6-1.76-1.05.66,2.13.65,4.34.16,6.55-.33,1.47-.78,2.89-1.68,4.09-.78,1.04-1.91,1.74-3.22,1.73l-2.03-.2c-1.61-.16-3.18-.22-4.79.14-.14.03-.23.12-.19.22l.13.32c2.09,4.89,1.45,11.51-.39,16.5-1.38,3.76-3.7,6.99-6.46,9.84-1.53,1.58-3.24,2.78-5.14,3.86-.23.13-.16.32-.03.49l2.27,3.14c.91,1.24,1.22,2.6.94,4.1-.27,1.42-.63,2.79-1.35,4.06l-3.27,4.98s-.01.03-.03.04l-.06.09h.01c-.37.59-.63,1.25-.78,1.97-.37,1.97.43,4.01,1.27,3.6.46-.22,1.68-1.42,1.8-.49.4,3.35-2.03,6.37-5.4,6.75-.62.07-1.18.12-1.81.06-4.55-.49-6.43-6.93-5.06-9.15l.1-.16.1-.14.16-.27c.1-.17.35-.13.36,0l.07.47c.43,1.8,2.4,2.63,4.04,1.84,1.44-.7,2.42-1.93,2.89-3.48.75-2.42.04-5.08-1.94-6.65-1.18-.92-2.65-1.15-4.04-.71-.2.06-.4.23-.46.03-.01-.07.13-.23.16-.3l.09-.17.07-.19.09-.17c.49-1.12.81-2.29.76-3.54l-.04-.22c-.19-1.14-.68-2.04-1.68-2.6l-.13-.12-.16-.07c-1.47-.73-2.98-.94-4.63-.79h-.22s-.7.19-.7.19c-.94.2.63-1.25,3.14-1.29l5.08-.09c4.17-.35,7.98-1.99,11.08-4.79l1.54-1.54,1.22-1.37c4.42-5.87,6.79-13.11,5.48-20.43-.33-1.91-1.05-3.64-1.93-5.32-.65-1.25-1.55-2.26-2.47-3.31l-2.65-2.99c-1.17-1.71-.47-4.03.58-5.81,1.6-2.73,3.84-4.81,6.85-6.46-1.94-.55-4.07-.01-5.94.83l-.17.1-.16.09c-1.37.75-2.56,1.76-3.54,2.99l-.14.14s-.09.14-.13.12c-.07-.03-.01-.23-.01-.3l.24-1.4c.27-1.73.2-3.44,0-5.18l-.35-2.78-.06-.23c-.01-.07-.1-.06-.14.03l-2.49,2.32c-1.9,1.76-3.65,3.57-4.85,5.87-.12-1.42-.17-2.69-.65-3.99-.56-1.54-1.44-2.96-2.6-4.14-.86-.86-1.99-1.34-3.08-1.68-.03.01-.06-.01-.07-.01-.1-.12-.22.04-.1.12.03,0,.04.03.01.06,2.63,3.15,2.82,6.66,2,10.68-.43,2.11-2.55,3.02-4.69,3.18-4.24.33-7.77,1.58-11.01,4.37-3.45,2.96-5.74,6.95-7.01,11.31-1.93,6.7-1.32,13.88,2.73,19.62,1.42,2.01,3.18,3.61,5.02,5.18,1.9,1.6,2.86,3.96,2.26,6.34l-1.11,4.32c-3.34-1.41-6.92-.04-8.5,3.04-1.22,2.4-.81,5.16,1.42,6.82l1.02-1.44c.4-.56,1.35-1.04,1.96-.5,1.06.91,1.21,2.47.79,3.76-.43,1.29-1.19,2.32-2.19,3.25-1.77,1.64-3.94,2.52-6.37,2.83-4.29.55-8.59-.65-11.74-3.6-1.68-1.58-2.56-3.7-2.65-5.97-.01-.5.09-1.02.37-1.38.16-.22.46-.01.6.16,2.22,2.7,6.1,2.75,8.65.46,2.32-2.07,3.02-5.41,1.94-8.33-1.18-3.15-4.39-5.48-7.7-5.61-2.85-.1-5.5.94-7.67,2.76-.95.79-1.55,1.74-2.33,2.79.01-2.7.69-6.17,3.05-7.24l3.05-1.37c2.1-.95,4.17-1.83,6.01-3.21,3.32-2.49,5.63-5.86,6.95-9.8,1.28-3.81,1.74-7.77,1.38-11.81-.39-4.36-1.88-8.45-4.72-11.78-2.04-2.4-4.68-4.06-7.52-5.37-1.78-.82-3.29-1.91-3.15-3.99.23-3.15,2.3-6.07,4.52-8.23l1.32-1.28c-2.2.01-4.13.86-5.9,2.1-1.76,1.22-2.98,2.78-3.87,4.82-.27-1.88-.63-3.47-1.28-5.12-.85-2.1-1.76-4.1-2.88-6.11l-1.45,2.95c-.79,1.6-1.48,3.17-2.03,4.86l-.69,3.38c-1.67-3.87-5.54-6.26-9.31-7.37-.03,0-.06-.01-.07-.03-.1-.13-.26.04-.12.13.01,0,.03.03.03.04l3.11,4.24c1.41,1.94,3.12,5.25,2.1,7.32-.5,1.02-1.48,1.68-2.5,2.16-5.5,2.56-9.51,5.91-11.45,11.8-.94,2.81-1.27,5.7-1.09,8.68.32,5.45,1.7,10.73,5.08,15.02.65.82,1.34,1.42,2.09,2.11,1.57,1.47,3.34,2.56,5.29,3.44l4.39,1.99c1.51.69,2.58,1.83,3.14,3.4.5,1.35.81,2.79.68,4.32-.68-1.12-1.21-2-2.11-2.78-1.78-1.48-3.99-2.43-6.33-2.72-2.6-.32-5.14.58-7.09,2.27-2.39,2.07-3.21,5.22-2.33,8.23.65,2.24,2.2,3.94,4.42,4.69,2.26.76,4.63.13,6.23-1.65.2-.22.43-.42.79-.43.53,1.19.5,2.42.23,3.68-.43,2-1.52,3.71-3.15,4.96-1.02.78-2.07,1.45-3.32,1.84-4.96,1.57-10.89.99-14.82-2.59-1.45-1.32-2.68-3.38-1.65-5.02.23-.37.52-.56.88-.58.4-.03.73.13.98.47l.73,1.11c.17.24.53.4.83.16,1.18-.96,2.16-2.3,2.35-3.87.29-2.39-.81-4.7-2.72-6.09-1.68-1.22-3.7-1.58-5.71-.82-.75-1.96-1.37-3.9-1.64-5.96-.29-2.09.47-3.9,2.03-5.29l3.04-2.73c1.09-1.17,2.01-2.3,2.85-3.7,2.36-3.91,3.32-8.49,2.81-13.08-.36-3.27-1.17-6.39-2.49-9.38-1.68-3.8-4.32-6.98-7.87-9.11-1.81-1.09-3.76-1.81-5.81-2.29-2.78-.66-5.57.13-7.27-1.24-.76-.62-1.18-1.58-1.25-2.59-.26-3.51.55-6.95,2.3-10.13-3.64,1.42-5.9,5.19-6.29,8.93-.04.45-.01.86-.23,1.38-1.48-3.22-4.66-5.88-7.61-8.17-.99,3.68-.92,7.39.07,11.11-3.04-3.12-7.64-4.3-11.8-2.59,2.75.81,5.22,2.06,7.27,3.97,1.64,1.53,3.01,3.63,1.77,5.54-.43.68-.92,1.25-1.5,1.84-2.37,2.46-4.07,5.38-4.81,8.82-1.83,8.49,1.77,17.81,8.23,23.51.98.86,1.97,1.64,3.12,2.29,3.91,2.22,8.34,3.06,12.82,2.43,1.53-.22,2.94.16,3.91,1.38.19.24.55.43.5.91-1.93-1.06-4.6-.75-6.52.27-2.73,1.47-2.53,5.05-.88,7.83-1.65-.5-3.14-.33-4.34.75-2.46,2.13-2.82,5.45-.85,8.23,1.02,1.42,2.83,2.2,4.52,1.57,1.6-.6,1.63-2.79,1.76-2.86.73-.39,2.59,3.74.19,7.61-1.02,1.65-2.65,2.52-4.55,2.63-1.68.09-3.19-.3-4.57-1.27-1.78-1.25-3.04-3.18-3.12-5.4-.01-.29.07-.62.23-.75.6-.52,1.4.46,2.06.98.56.04.82-.82.92-1.27.37-1.6.07-3.14-.79-4.42,0,0-3.06-4.98-3.27-5.32-.85-1.42-1.35-3.06-1.57-4.7-.2-1.44.13-2.75.95-3.88l1.86-2.47c.16-.01.49-.66.29-.78-6.33-3.67-10.86-9.67-12.63-16.78-1.17-4.72-1.06-9.37.89-13.83-1.64-.35-3.15-.39-4.73-.17l-3.31.47c-1.64.24-3.06-.65-3.77-2.13-.3-.66-.62-1.29-.78-2.03-.35-1.54-.82-3.01-1.24-4.53-.37-1.34-.2-2.68-.01-4.14-1.65,1.32-2.56,3.32-2.81,5.41.04.29-.24.19-.22-.04-.94-1.22-1.67-2.42-2.52-3.76-.49,1.84-.53,3.6-.42,5.54-1.86-1.04-3.64-1.74-5.64-2.42-.04,2.62.47,5.12,1.61,7.61-3.28-.92-5.61-.65-8.16,1.42-.1.14.04.29.19.2,1.51.09,3.01.16,4.36.83l3.41,2.1c2.4,1.48,3.6,3.68,2.26,6.23-2,3.81-2.82,7.12-2.2,11.45.91,6.34,4.59,11.96,10.09,15.21,4.32,2.56,8.34,2.75,13.19,2.06,2.39-.35,4.69.96,5.35,3.41-1.5-1.19-2.99-2.14-4.82-2.1-2.59.06-3.98,2.22-3.47,3.15.12.2.36.33.66.4l1.91.45c2.01.46,2.92,3.57,3.29,5.67.7,3.87,2.07,7.45,4.26,10.72.76,1.14,1.28,2.29,1.76,3.57.27.78.6,1.53.59,2.4-1.45.83-2.72,1.87-3.73,3.19-.85,1.12-1.12,2.49-.81,3.86.45,1.96,1.8,3.44,3.61,4.26.47.22.95.39,1.35.73v2.07c-.03.76-1.93,2.03-3.06,4.3-1.11,2.2-.81,4.56.66,6.49l2.88,2.79c.72.89-.2,2.46-.98,3.11l-2.45,2.01c-1.5,1.53-2.09,3.6-1.5,5.68.79,2.85,3.11,4.09,5.87,4.99l-.4,10.7c-.09,2.24.14,4.34.73,6.49-.58.33-1.09.58-1.47,1.06-1.37,1.78-.86,4.32.99,5.54.07.6.1,1.14,0,1.68-2.37.99-3.63,3.61-2.72,6.03l-.92,1.08c-.39.46-.09,1.05.17,1.55l-.14.19c-2.43,1.99-3.05,5.34-3.38,8.39l-.78,6.98-.04.22-.04.2c-.37,1.78-.91,3.48-1.9,4.99l-1.27,1.94-.07.16c-.22.37-.32.73-.1.92l.13.13.14.09.17.09.16.09.17.07,2.75.81c1.93.56,3.88.85,5.9.89h.24c.09.01.16.01.27-.01.13.04.12.2.04.27-.99.85-1.29,1.91-1.15,3.18.36,3.34.73,6.62,1.53,9.88l1.15,4.75c.3,1.29.91,2.78,1.73,2.19.98-.69,2.37-7.64,2.7-9.81l1.06-6.81c.37-2.42-1.63-3.57-.95-3.58,2.55-.07,7.12-.78,9.27-1.77.36-.16.56-.56.36-.94l-2.1-3.9c-.91-2.06-1.38-4.19-1.57-6.43l-.39-4.88c-.14-1.86-.5-3.63-1.18-5.34-.43-1.09-1.06-2.01-1.97-2.73-.27-.22.7-1.31-.4-2.29-.33-.29-.47-.52-.36-.96.65-2.27-.45-4.56-2.59-5.57l-.19-1.77c1.54-.95,2.26-2.79,1.65-4.5-.16-.47-.49-1.01-.86-1.31l-1.34-.99c.65-1.45.94-2.92.89-4.55l-.37-11.38c8.24,2.4,16.76,3.15,25.34,4l.09,8.01c-.79.63-1.4,1.5-1.38,2.52.03,1.05.66,1.88,1.45,2.58-.16.94-.46,2.1-.1,3.21-2.2,1.08-2.99,3.48-2.17,5.73.14.4-.91.56-.68,2.03-1.63,1.83-2.39,4.62-2.7,7.04l-.32,5.68c-.19,3.32-1.06,6.42-2.94,9.16-.22.32-.33.73.03.95.69.42,1.44.69,2.24.82l5.42.83c.16-.03.26.07.19.17l-.22.32c-1.02,1.53-.94,3.34-.65,5.19.59,3.84,1.38,7.57,2.36,11.32.12.43.29.85.6,1.14.17.16.46.13.6-.01.78-.76,1.88-6.76,2.26-8.88.35-2.03.75-3.96.79-6.01.03-1.15-.52-2.17-1.06-3.18,2.26-.1,4.39-.42,6.55-.88.79-.17,1.44-.58,1.17-1.05l-.91-1.67c-1.8-3.27-1.96-6.33-2.13-9.96l-.23-5.05c-.24-2.01-.85-3.93-2.06-5.52-.19-.24-.46-.3-.27-.72.4-.94-.83-1.61-.82-1.67l.16-.39c.78-2.07-.06-4.22-1.96-5.29.12-.94.23-1.77-.13-2.59-.1-.24-.37-.65-.07-.86.91-.66,1.34-1.58,1.32-2.65,0-1.04-.78-1.83-1.51-2.46l.19-5.86.03-1.5c0-.13.07-.24.14-.26.1-.04.16-.01.35,0,8.89.66,17.7.94,26.7.96l-.16,6.19c-.04,1.5.2,2.89.79,4.23.13.29,0,.52-.23.65-1.18.62-1.84,1.73-1.88,2.95-.04,1.28.55,2.42,1.64,3.18l-.07,2.29c-2.56,1.15-3.11,3.71-2.43,6.39.14.58-1.6.79-1.04,2.13.06.14.29.47.09.63-2.81,2.42-3.25,6.13-3.5,9.77l-.59,4.83c-.4,3.25-1.65,6.17-3.41,8.89-.22.32-.22.65.07.88l.14.12c1.86.85,3.81,1.19,5.83,1.53l2.91.29.2.03h.47s.26.01.26.01c.13.03.14.13.03.2-.5.69-1.22,1.44-1.17,2.42.26,4.72,1.08,9.29,2.26,13.84l1.14,3.81c.09.29.37.45.62.45.81.01,1.04-.94,1.27-1.9l.96-3.86c.89-3.58,1.53-7.18,1.84-10.88.26-1.42-.1-2.65-1.05-3.71-.06-.09-.14-.22-.12-.29.04-.12.23-.09.36-.09,3.08-.12,6.01-.62,8.91-1.64.36-.13,1.28-.6.99-1.11-1.94-2.82-3.24-5.9-3.74-9.29l-.5-4.78c-.32-3.04-.88-8.01-3.41-9.61-.26-.17-.07-.32.01-.5.52-1.29-1.17-1.7-.94-2.42.7-2.36-.06-4.91-2.16-6.04-.55-.3-.07-1.12-.32-2.37,1.11-.78,1.73-2.04,1.57-3.41-.16-1.24-.98-2.32-2.22-2.88-.39-.17.82-1.94.75-4.14l-.19-6.24c0-.14-.06-.32,0-.42.07-.12.17-.12.4-.12,8.99-.04,17.85-.3,26.99-.99l.16,7.88c-.45.4-.88.75-1.11,1.27-.62,1.37-.06,2.82,1.17,3.64.1.06.23.26.16.37-.43.7-.46,1.44-.4,2.26l.06.63c0,.09-.03.32-.11.36-2.16,1.06-2.5,3.25-1.9,5.58.1.33-1.05.83-.62,1.6.13.23.07.37-.12.52-.6.52-.92,1.21-1.25,1.94-1.04,2.33-1.32,4.81-1.48,7.35l-.37,5.93c-.29,2.37-1.22,4.49-2.42,6.53-.14.24-.3.55-.19.81.39.89,5.45,1.57,7.35,1.74h.29c.14-.01.2.16.1.32-.75,1.15-.96,2.36-.81,3.73.49,4.22,1.31,8.32,2.32,12.43.23.98.68,1.88,1.32,1.68.17-.06.37-.26.45-.52l.6-2.35,1.6-7.5.49-4.27c.2-1.73-.86-3.32-.86-3.38.01-.19.13-.12.29-.13,2.07-.19,6.2-.76,7.52-1.76.12-.1.13-.42.01-.56-1.64-2-2.69-4.29-3.09-6.86l-.37-5.27c-.26-3.5-.13-7.32-2.72-10.04.52-1.54-.95-1.71-.65-2.4.23-.53.26-1.09.26-1.7,0-1.44-.75-2.7-2.01-3.37-.52-.27.22-1.81-.49-3.05-.09-.14-.22-.56-.04-.66.88-.55,1.35-1.37,1.41-2.35.04-.95-.4-1.87-1.21-2.46-.33-.24-.43-.39-.42-.81l.33-7.35,10.57-1.08,11.35-1.93.22-.04,2.7-.75c.09-.01.23-.1.29-.06.12.09.07.27.07.43l-.27,10.07c-.04,1.77.23,3.4.76,5.05.1.33-1.09.58-1.7,1.5-1.17,1.78-.65,4.16,1.09,5.37.14.56.13,1.11.04,1.68-2.43.91-3.45,3.5-2.6,5.8.26.7-1.21,1.05-.89,2.23l.26.35c.09.12-.04.26-.19.39-2.35,1.93-2.82,5.67-3.09,8.68l-.45,5.09c-.24,2.78-1.74,6.57-3.42,8.88-.2.26-.32.66-.04.89.35.27.73.43,1.17.58,2.66.88,5.4,1.31,8.22,1.48.12.01.3-.03.4.01.32.14-1.42,1.44-1.32,2.93.2,3.24.66,6.34,1.38,9.5l.98,4.32c.24,1.08.7,2.98,1.19,3.24.33.19.73.19,1.05-.01.27-.17.47-.47.58-.85l.99-3.8.91-4.26,1.02-7.34c.1-.68.04-1.31-.26-1.94l-.07-.16-.62-.99-.12-.13-.1-.14c-.06-.06-.12-.16-.12-.2-.01-.12.07-.14.26-.16,3.08-.22,7.18-.82,9.8-2.27.4-.22.03-.85-.17-1.09-1.08-1.37-1.93-2.79-2.46-4.45-.56-1.7-.96-3.34-1.14-5.12l-.37-3.93c-.26-2.82-.78-5.87-2.49-8.09-.55-.71-1.12-.82-.95-1.11.4-.69.01-1.54-.58-2.04-.35-.3-.26-.62-.17-1.04.42-2.07-.53-4.01-2.36-5.04-.2-.12-.36-.24-.35-.52l.04-1.63c1.15-.89,1.68-2.23,1.52-3.65-.24-2.35-2.29-2.6-2.17-3.01l.14-.52c.52-1.88.59-3.74.55-5.71l-.23-10.07c0-.33.22-.33.46-.42,1.35-.49,2.68-1.05,3.68-2.1,2.45-2.56,2.39-6.69-.46-9.01l-1.97-1.61c-.82-.66-1.35-1.83-1.12-2.89.22-.52.83-.86,1.25-1.21,1.22-1.01,2.27-2.14,2.86-3.64.63-1.58.43-3.35-.36-4.85-.65-1.21-1.54-2.19-2.46-3.18-.4-.43-.68-.83-.6-1.48.04-.42-.14-1.14.14-1.53.42-.42,1.05-.58,1.6-.86,2.01-1.08,3.4-3.11,3.27-5.47-.09-1.4-.85-2.63-1.78-3.63-.75-.81-1.67-1.35-2.58-1.97-.2-.14-.14-.36-.12-.58.39-2.53,1.57-4.66,2.96-6.76,1.17-1.76,1.94-3.63,2.62-5.61l1.18-4.83c.27-1.11.52-2.13,1.09-3.12,1.44-2.46,3.04-1.65,3.94-2.33.36-.26.37-1.17-.01-1.73l-.09-.13-.13-.14c-1.4-1.63-3.71-1.65-5.54-.53l-.14.07-.16.1-.14.09-.14.1c-.4.29-.79.6-1.15,1.02-.13.17-.3-.01-.16-.23.58-1.57,2-2.83,3.68-3.06.88-.13,1.7.06,2.6.19,4.47.65,9.11-.14,12.92-2.65,1.63-1.06,2.98-2.4,4.23-3.86,2.43-2.79,4.07-6.04,4.85-9.65.82-3.84.37-7.68-1.27-11.24l-1.15-2.3c-.59-1.17-1.02-2.55-.56-3.83.69-1.88,2.01-3.34,3.5-4.63ZM508.64,180.21l-11.87-1.29c-3.29-.36-6.4-1.14-9.6-1.96-1.34-.33-2.58-.73-3.81-1.29l.07-2.24c1.78.89,3.47,1.44,5.34,1.86,5.29,1.21,10.57,2.06,16,2.52l3.88.33v2.09ZM511.94,180.49l-.03-2.09,9.15.6,17.94.45.03,2.03c-9.03,0-18-.32-27.09-.99ZM570.39,180.46l-17.44.88-9.94.17v-2.07l15.35-.33,12.03-.68v2.03ZM598.78,175.73l-1.94.75c-7.37,2.23-15.39,3.09-23.12,3.76v-2.1c6.6-.58,13.01-1.38,19.41-2.76,2.01-.43,3.84-.95,5.67-1.84v2.2ZM603.7,174.1c-.37.24-.16-.69-1.28-1.58-.81-.65-1.71-1.14-2.72-1.47l-5.09-1.65c-3.91-1.02-7.78-1.73-11.8-2.22l-9.16-1.14c-12.44-1.27-24.82-1.77-37.28-1.57-9.18.16-18.29.62-27.38,1.6-5.08.55-10.01,1.14-15.02,2.07-4.13.78-9.88,1.94-13.31,4.03-.81.49-1.37,1.18-1.57,2.11-.76-.3-.98-1.09-.62-1.74,1.64-2.82,11.12-4.89,14.86-5.64l10.49-1.71c10.14-1.34,20.31-2.03,30.57-2.24,11.41-.24,22.75.04,34.05,1.08l7.51.78c5.61.58,11.03,1.53,16.53,2.78l6.33,1.78,3.17,1.37c.81.35,1.48.88,2.01,1.55.46.6.32,1.42-.3,1.81ZM604.96,167.38l-.09.2c-1.35-.89-2.82-1.51-4.39-2.11-2.79-.94-5.52-1.73-8.43-2.26l-10.57-1.97-18.33-1.84c-19.62-1.41-42.13-.88-61.61,1.84l-13.7,2.63-6.53,1.94c-1.67.5-3.11,1.32-4.57,2.26.45-1.12,1.4-1.58,2.24-2.27,2.35-1.28,4.85-2.14,7.45-2.83l4.1-1.08c6.99-1.58,14.07-2.62,21.25-3.35,12.75-1.28,25.51-1.68,38.33-1.34,7.15.19,14.19.68,21.26,1.37l12.04,1.58c4.82.82,9.51,1.73,14.17,3.18,2.53.79,5.84,2.01,7.37,4.06ZM604.72,136.16c.75.59,1.37,1.38,1.5,2.37-1.28-1.27-2.69-2.09-4.33-2.73-3.25-1.31-6.53-2.27-9.98-3.06-8.72-2-17.57-3.22-26.53-3.97-15.93-1.34-31.9-1.35-47.89-.01-8.85.73-17.55,1.93-26.13,3.83-3.34.73-6.46,1.65-9.64,2.78l-2.94,1.25c-1.14.47-2.06,1.24-2.98,2.09,0-.94.55-1.61,1.21-2.17,3.55-3.12,11.27-4.86,16.16-5.96,10.21-2.3,21.13-3.31,31.58-4.04l8.07-.33c4.99-.2,9.86-.14,14.88-.04,10.29.22,20.49.99,30.69,2.42,6.17.88,12.21,2.09,18.17,3.83,2.78.81,5.97,2,8.17,3.77Z"/>
</svg>