<?xml version="1.0" encoding="UTF-8"?>
<svg id="Layer_1" xmlns="http://www.w3.org/2000/svg" version="1.1" viewBox="0 0 1165.53 479.21">
  <!-- Generator: Adobe Illustrator 29.5.1, SVG Export Plug-In . SVG Version: 2.1.0 Build 141)  -->
  <defs>
    <style>
      .st0 {
        fill: #163478;
      }

      .st1 {
        fill: #1f3a6e;
      }

      .st2 {
        fill: #fff;
      }
    </style>
  </defs>
  <path class="st0" d="M472.67,288.04c1.79-1.61,3.13-2.96,4.03-4.03.9-1.08,1.7-2.24,2.42-3.49,1.25-2.77,1.88-5.78,1.88-9v-63.68c0-2.06-.09-3.69-.27-4.9-.18-1.21-.54-2.49-1.07-3.83-.54-1.34-1.17-2.53-1.88-3.56-.72-1.03-1.88-2.49-3.49-4.37h39.23c-1.52,1.79-2.66,3.25-3.42,4.37-.76,1.12-1.41,2.26-1.95,3.43-.99,2.69-1.48,5.64-1.48,8.87v20.69h38.02v-20.69c0-3.22-.49-6.18-1.48-8.87-.54-1.16-1.19-2.3-1.95-3.43-.76-1.12-1.9-2.57-3.43-4.37h39.23c-2.78,3.22-4.52,5.82-5.24,7.79-.63,1.25-1.03,2.46-1.21,3.63-.18,1.17-.27,2.91-.27,5.24v63.68c0,3.22.63,6.23,1.88,9,.9,1.61,1.88,3,2.96,4.16.81.9,1.97,2.01,3.49,3.36h-42.18c1.76-1.61,3.08-2.93,3.96-3.96.88-1.03,1.64-2.22,2.29-3.56,1.3-2.69,1.94-5.64,1.94-8.87v-27.14h-38.02v27.14c0,1.53.18,3.05.54,4.57.37,1.52.93,3.14,1.71,4.83.77,1.7,2.75,4.03,5.94,6.99h-42.18ZM584.57,288.04c2.15-1.7,3.41-2.73,3.76-3.09,1.26-1.08,2.6-2.55,4.03-4.43,1.97-2.69,3.63-5.64,4.97-8.87l26.33-63.67c1.34-3.14,2.01-6.05,2.01-8.73,0-1.25-.2-2.46-.6-3.63-.4-1.16-1.1-2.64-2.08-4.43h30.49l31.03,80.47c1.25,3.31,2.78,6.27,4.57,8.87,1.07,1.43,2.06,2.6,2.95,3.49.9.9,2.46,2.24,4.7,4.03h-45c1.88-1.88,3.2-3.58,3.96-5.11.76-1.52,1.14-3.27,1.14-5.24s-.36-3.9-1.07-6.05l-3.63-10.21h-31.43l-3.76,10.21c-.54,1.53-.92,2.78-1.14,3.76-.22.99-.34,2.06-.34,3.22,0,1.7.29,3.16.87,4.37.58,1.21,1.86,2.89,3.83,5.04h-35.6ZM636.97,216.7l-10.75,29.15h20.96l-10.21-29.15ZM701.98,288.04c2.09-1.88,3.48-3.22,4.16-4.03.68-.81,1.48-1.97,2.39-3.49,1.27-2.77,1.91-5.73,1.91-8.87v-63.81c0-3.4-.49-6.36-1.48-8.87-.54-1.25-1.12-2.44-1.75-3.56-.63-1.12-1.66-2.53-3.09-4.23h50.65c6.18,0,12.04,1.03,17.6,3.09,5.55,2.06,10.25,5.02,14.1,8.87,8.51,7.97,12.76,19.75,12.76,35.33s-4.16,26.96-12.49,36c-8.33,9.05-19.39,13.57-33.18,13.57h-51.58ZM736.37,206.36v65.82c2.24.45,4.08.72,5.51.81,1.43.09,2.55.13,3.36.13,8.69,0,15.45-3,20.28-9,4.84-6,7.26-14.51,7.26-25.52s-2.37-18.94-7.12-24.58c-4.75-5.64-11.64-8.46-20.69-8.46-2.42,0-5.29.27-8.6.81M793.06,288.04c2.15-1.7,3.41-2.73,3.76-3.09,1.25-1.08,2.6-2.55,4.03-4.43,1.97-2.69,3.62-5.64,4.97-8.87l26.33-63.67c1.34-3.14,2.02-6.05,2.02-8.73,0-1.25-.2-2.46-.61-3.63-.4-1.16-1.1-2.64-2.08-4.43h30.49l31.03,80.47c1.25,3.31,2.77,6.27,4.56,8.87,1.08,1.43,2.06,2.6,2.96,3.49.89.9,2.46,2.24,4.7,4.03h-45.01c1.88-1.88,3.2-3.58,3.96-5.11.76-1.52,1.14-3.27,1.14-5.24s-.36-3.9-1.07-6.05l-3.63-10.21h-31.43l-3.76,10.21c-.54,1.53-.92,2.78-1.14,3.76-.22.99-.34,2.06-.34,3.22,0,1.7.29,3.16.87,4.37.58,1.21,1.86,2.89,3.83,5.04h-35.6ZM845.45,216.7l-10.74,29.15h20.95l-10.21-29.15ZM910.88,288.04c3.31-2.87,5.55-5.42,6.72-7.66,1.16-2.24,1.75-5.15,1.75-8.73v-63.67c0-3.49-.45-6.45-1.34-8.87-.45-1.16-1.03-2.28-1.75-3.36-.72-1.07-1.84-2.6-3.36-4.57h43.93c24.72,0,37.08,7.93,37.08,23.78,0,11.38-6.81,19.03-20.42,22.97l7.52,11.82,4.7,6.45,11.42,15.05c2.69,3.14,5.26,5.89,7.72,8.26,2.46,2.37,5.84,5.22,10.14,8.53h-26.87c-2.42,0-4.63-.58-6.65-1.75-2.01-1.17-4.23-3.23-6.65-6.19-4.48-5.47-9.09-11.8-13.84-18.97-3.05-4.93-5.44-9.04-7.19-12.31-1.74-3.27-3.87-7.69-6.38-13.26,3.31-.27,6.02-.69,8.13-1.28,2.1-.58,3.96-1.41,5.57-2.49,5.55-3.68,8.33-8.12,8.33-13.32,0-8.61-5.99-12.92-17.97-12.92h-2.29c-.81,0-2.07.14-3.78.4v65.66c0,3.59.53,6.46,1.59,8.61,1.05,2.15,3.17,4.75,6.34,7.8h-42.45Z"/>
  <path class="st1" d="M354.9,264.89c0,4.14-26,7.5-58.07,7.5s-58.07-3.36-58.07-7.5,25.99-7.49,58.07-7.49,58.07,3.35,58.07,7.49Z"/>
  <path class="st1" d="M295.6,35c-80.12,0-145.06,91.6-145.06,204.61s64.94,204.61,145.06,204.61,145.06-91.61,145.06-204.61S375.71,35,295.6,35ZM390.71,168.54l1.17,2.32c1.66,3.57,2.1,7.45,1.27,11.33-.78,3.63-2.44,6.91-4.88,9.73-1.27,1.47-2.64,2.81-4.28,3.89-3.85,2.53-8.51,3.32-13.03,2.67-.9-.13-1.73-.31-2.63-.19-1.68.24-3.12,1.52-3.7,3.1-.16.22.02.41.16.22.36-.42.74-.73,1.15-1.02l.15-.1.15-.1.15-.1.15-.07c1.84-1.13,4.17-1.11,5.59.54l.12.14.1.14c.39.56.38,1.47.01,1.74-.91.68-2.53-.14-3.98,2.36-.58.99-.83,2.02-1.1,3.13l-1.19,4.88c-.68,2-1.46,3.9-2.64,5.67-1.4,2.11-2.6,4.26-2.99,6.82-.03.2-.08.43.12.57.91.63,1.84,1.18,2.59,1.99.94,1.01,1.72,2.24,1.8,3.65.14,2.39-1.27,4.43-3.29,5.52-.55.29-1.19.46-1.61.88-.29.38-.1,1.11-.14,1.53-.08.66.19,1.06.6,1.5.94.99,1.82,1.98,2.48,3.2.8,1.52,1,3.29.37,4.9-.6,1.5-1.67,2.65-2.9,3.67-.41.34-1.04.7-1.25,1.22-.24,1.07.3,2.25,1.12,2.92l1.99,1.61c2.87,2.35,2.94,6.5.47,9.09-1.02,1.06-2.35,1.63-3.71,2.12-.25.09-.47.09-.47.42l.23,10.16c.04,1.99-.02,3.86-.55,5.76l-.15.52c-.11.42,1.95.67,2.2,3.04.15,1.43-.38,2.78-1.54,3.68l-.05,1.64c-.01.28.15.4.35.52,1.84,1.04,2.81,2.99,2.38,5.08-.09.42-.17.75.18,1.05.6.5.99,1.36.58,2.06-.17.29.41.4.96,1.11,1.73,2.24,2.24,5.32,2.51,8.16l.38,3.96c.16,1.8.58,3.46,1.14,5.18.54,1.66,1.39,3.09,2.48,4.48.2.25.58.87.17,1.1-2.63,1.47-6.77,2.07-9.88,2.29-.18.01-.27.04-.26.16,0,.05.06.14.11.21l.11.14.11.13.63,1,.08.16c.3.63.36,1.27.26,1.96l-1.04,7.4-.91,4.3-1,3.82c-.1.38-.31.69-.59.86-.32.2-.72.2-1.06.02-.48-.27-.95-2.19-1.2-3.26l-.99-4.37c-.71-3.17-1.19-6.3-1.39-9.58-.1-1.5,1.65-2.8,1.34-2.95-.1-.04-.29,0-.4,0-2.86-.18-5.61-.61-8.29-1.51-.43-.14-.83-.3-1.18-.58-.28-.22-.16-.62.04-.89,1.7-2.32,3.22-6.15,3.46-8.95l.45-5.14c.27-3.03.75-6.81,3.12-8.76.15-.12.28-.26.19-.38l-.26-.35c-.33-1.19,1.15-1.54.89-2.25-.84-2.32.18-4.94,2.63-5.85.09-.58.1-1.13-.04-1.69-1.76-1.22-2.28-3.62-1.11-5.41.61-.94,1.82-1.18,1.71-1.51-.52-1.68-.81-3.32-.76-5.11l.27-10.15c0-.16.05-.35-.07-.44-.05-.04-.2.04-.29.07l-2.73.74-.21.05-11.45,1.95-10.67,1.08-.34,7.42c-.02.42.1.57.42.81.81.6,1.28,1.53,1.22,2.48-.05.98-.54,1.82-1.42,2.36-.18.11-.04.53.04.67.71,1.25-.03,2.8.5,3.08,1.27.67,2.04,1.94,2.03,3.4,0,.6-.03,1.17-.26,1.71-.3.7,1.18.87.65,2.43,2.62,2.74,2.49,6.6,2.74,10.13l.38,5.3c.41,2.6,1.46,4.91,3.12,6.93.12.14.11.46-.02.56-1.33,1-5.48,1.59-7.58,1.77-.16.01-.27-.05-.29.14,0,.05,1.08,1.66.87,3.41l-.5,4.31-1.61,7.56-.6,2.36c-.07.26-.28.47-.45.52-.66.21-1.1-.71-1.34-1.69-1.02-4.15-1.84-8.29-2.33-12.54-.16-1.38.05-2.6.81-3.76.1-.16.04-.33-.1-.33h-.29c-1.92-.16-7.03-.85-7.42-1.75-.11-.26.04-.57.18-.81,1.21-2.06,2.16-4.2,2.46-6.59l.36-5.98c.16-2.56.45-5.07,1.5-7.41.33-.74.66-1.44,1.27-1.96.18-.15.23-.29.11-.52-.43-.78.72-1.28.63-1.62-.62-2.35-.28-4.54,1.91-5.62.09-.05.11-.28.11-.37l-.05-.64c-.06-.83-.03-1.56.4-2.27.07-.12-.06-.33-.16-.39-1.24-.82-1.8-2.29-1.17-3.66.23-.53.66-.87,1.11-1.27l-.15-7.97c-9.22.7-18.17.96-27.23,1-.23,0-.34,0-.4.12-.06.11,0,.28,0,.43l.19,6.29c.07,2.22-1.15,4.01-.76,4.19,1.24.57,2.08,1.64,2.23,2.89.16,1.38-.46,2.66-1.57,3.44.23,1.26-.24,2.09.31,2.39,2.11,1.16,2.89,3.72,2.17,6.1-.22.73,1.48,1.13.95,2.43-.08.19-.28.34-.02.51,2.56,1.63,3.12,6.63,3.45,9.71l.51,4.81c.51,3.43,1.81,6.54,3.77,9.38.29.5-.64.98-1.01,1.11-2.91,1.03-5.88,1.54-8.98,1.65-.13,0-.32-.02-.36.09-.03.07.05.21.12.29.96,1.08,1.31,2.31,1.05,3.74-.32,3.73-.95,7.36-1.85,10.99l-.97,3.88c-.24.98-.47,1.93-1.28,1.92-.25-.01-.54-.16-.63-.45l-1.15-3.85c-1.18-4.59-2.02-9.2-2.28-13.96-.05-.98.68-1.75,1.19-2.43.11-.08.09-.19-.03-.21h-.26s-.25,0-.25,0h-.23s-.21-.03-.21-.03l-2.92-.3c-2.04-.32-4.02-.68-5.88-1.53l-.15-.12c-.29-.23-.29-.57-.08-.89,1.77-2.75,3.04-5.69,3.44-8.96l.6-4.88c.24-3.66.7-7.42,3.53-9.85.2-.17-.04-.5-.1-.64-.55-1.35,1.2-1.58,1.06-2.15-.69-2.69-.13-5.29,2.45-6.45l.07-2.3c-1.11-.78-1.7-1.92-1.65-3.21.04-1.24.71-2.35,1.89-2.98.24-.12.37-.36.24-.64-.6-1.36-.85-2.77-.8-4.27l.16-6.25c-9.09-.03-17.97-.29-26.93-.96-.2-.02-.26-.05-.35-.01-.07.02-.15.14-.15.27l-.03,1.51-.19,5.9c.75.64,1.52,1.44,1.54,2.49.01,1.07-.43,2-1.34,2.66-.31.22-.04.62.07.87.36.83.24,1.68.13,2.62,1.91,1.09,2.76,3.25,1.96,5.34l-.14.38c-.03.07,1.23.76.81,1.7-.18.41.1.47.28.71,1.22,1.63,1.83,3.55,2.07,5.58l.25,5.1c.17,3.65.32,6.75,2.14,10.04l.92,1.68c.27.48-.38.89-1.19,1.06-2.17.46-4.32.78-6.59.88.55,1.02,1.09,2.05,1.07,3.21-.05,2.07-.45,4.02-.8,6.07-.37,2.13-1.49,8.18-2.28,8.95-.14.14-.44.18-.61.02-.31-.3-.49-.71-.6-1.16-.99-3.78-1.79-7.54-2.39-11.41-.29-1.87-.37-3.7.66-5.23l.22-.33c.07-.11-.03-.2-.2-.17l-5.47-.85c-.8-.12-1.57-.4-2.26-.82-.36-.22-.24-.65-.03-.96,1.88-2.77,2.77-5.89,2.96-9.25l.33-5.73c.3-2.44,1.07-5.25,2.72-7.09-.24-1.49.82-1.64.68-2.05-.82-2.26-.03-4.69,2.19-5.77-.36-1.12-.06-2.29.1-3.24-.8-.7-1.44-1.53-1.46-2.6-.02-1.03.59-1.89,1.4-2.54l-.1-8.08c-8.64-.86-17.23-1.62-25.55-4.03l.37,11.48c.06,1.63-.23,3.12-.89,4.58l1.34,1.01c.39.29.71.83.88,1.31.61,1.72-.11,3.59-1.67,4.54l.19,1.79c2.15,1.01,3.27,3.32,2.61,5.61-.12.45.02.68.35.97,1.13,1,.15,2.1.42,2.31.92.73,1.55,1.66,1.98,2.75.69,1.74,1.05,3.52,1.2,5.39l.39,4.93c.18,2.25.67,4.4,1.58,6.48l2.12,3.94c.21.37-.01.78-.37.94-2.15.99-6.77,1.71-9.34,1.78-.67.02,1.34,1.17.96,3.62l-1.07,6.86c-.34,2.19-1.74,9.19-2.73,9.89-.84.6-1.44-.89-1.75-2.2l-1.16-4.79c-.8-3.29-1.17-6.6-1.54-9.97-.13-1.28.17-2.35,1.16-3.21.08-.06.1-.23-.04-.27-.11.03-.18.03-.27.03h-.25c-2.04-.06-4-.35-5.94-.92l-2.78-.81-.17-.08-.17-.08-.16-.08-.16-.1-.13-.12c-.21-.19-.1-.55.1-.94l.08-.16,1.28-1.96c.99-1.52,1.53-3.23,1.92-5.02l.04-.21.04-.21.78-7.04c.34-3.08.96-6.47,3.41-8.47l.15-.19c-.27-.5-.56-1.1-.17-1.56l.92-1.09c-.91-2.44.35-5.08,2.74-6.08.11-.54.07-1.08.01-1.69-1.88-1.23-2.38-3.8-1.01-5.6.38-.49.91-.73,1.48-1.07-.59-2.16-.82-4.28-.73-6.54l.41-10.8c-2.79-.91-5.13-2.16-5.93-5.04-.59-2.1,0-4.19,1.52-5.73l2.46-2.03c.78-.65,1.7-2.23.98-3.13l-2.89-2.82c-1.49-1.95-1.8-4.32-.68-6.54,1.15-2.29,3.07-3.57,3.08-4.34l.02-2.09c-.41-.35-.89-.53-1.37-.74-1.83-.83-3.19-2.32-3.65-4.3-.31-1.37-.04-2.76.82-3.89,1.01-1.33,2.29-2.38,3.76-3.23.02-.87-.32-1.63-.6-2.42-.47-1.28-1-2.44-1.77-3.59-2.21-3.29-3.58-6.91-4.29-10.82-.39-2.11-1.3-5.24-3.33-5.71l-1.92-.45c-.31-.07-.55-.2-.67-.41-.52-.94.87-3.11,3.49-3.18,1.85-.04,3.35.92,4.86,2.13-.67-2.47-2.98-3.79-5.39-3.45-4.89.7-8.95.52-13.31-2.07-5.55-3.28-9.27-8.95-10.18-15.34-.62-4.37.21-7.71,2.23-11.56,1.35-2.55.14-4.78-2.28-6.27l-3.44-2.12c-1.36-.68-2.87-.76-4.39-.84-.16.08-.3-.07-.2-.2,2.57-2.1,4.92-2.38,8.23-1.45-1.14-2.51-1.67-5.03-1.63-7.67,2.02.69,3.82,1.39,5.69,2.44-.11-1.97-.07-3.74.42-5.6.87,1.36,1.6,2.56,2.55,3.79-.03.23.25.34.21.06.25-2.12,1.17-4.13,2.83-5.47-.18,1.49-.36,2.83.01,4.18.43,1.55.91,3.02,1.25,4.57.16.75.48,1.38.8,2.05.69,1.49,2.13,2.39,3.79,2.15l3.34-.47c1.01-.15,2.01-.17,3.02-.08-.47,1.22-.81,2.4-1.02,3.6-1.41,7.92.8,16.26,6.22,23.47l.19.23,1.38,1.55,1.69,1.68c1.18,1.07,2.45,1.99,3.79,2.78l-.81,1.08c-.83,1.14-1.16,2.47-.97,3.92.22,1.65.73,3.3,1.58,4.75.2.34,3.3,5.36,3.3,5.36.88,1.29,1.18,2.85.8,4.46-.1.45-.36,1.32-.92,1.27-.68-.52-1.48-1.51-2.08-.99-.16.14-.25.47-.24.76.09,2.24,1.36,4.19,3.16,5.45,1.39.97,2.91,1.36,4.6,1.27,1.93-.11,3.56-.99,4.59-2.65,2.43-3.9.55-8.06-.18-7.68-.14.07-.17,2.28-1.77,2.88-1.71.65-3.53-.14-4.56-1.58-1.98-2.8-1.62-6.15.85-8.3,1.23-1.08,2.72-1.25,4.38-.74-1.66-2.8-1.86-6.42.89-7.9,1.92-1.03,4.63-1.36,6.58-.28.04-.48-.32-.66-.51-.91-.99-1.24-2.4-1.61-3.95-1.39-4.51.63-8.98-.22-12.93-2.46-1.16-.66-2.16-1.43-3.14-2.3-6.53-5.76-10.15-15.16-8.31-23.73.74-3.45,2.45-6.4,4.85-8.89.58-.6,1.08-1.18,1.51-1.85,1.25-1.93-.14-4.05-1.79-5.59-2.06-1.93-4.56-3.19-7.32-4,4.18-1.74,8.83-.54,11.89,2.6-1-3.74-1.07-7.48-.08-11.19,2.99,2.3,6.19,4.98,7.68,8.23.23-.51.2-.93.25-1.39.38-3.78,2.66-7.57,6.33-9.01-1.77,3.21-2.58,6.67-2.32,10.22.07,1.02.49,1.99,1.26,2.6,1.72,1.38,4.52.59,7.33,1.25,2.08.49,4.03,1.22,5.87,2.32,3.57,2.14,6.24,5.36,7.92,9.17,1.34,3.03,2.16,6.17,2.52,9.47.52,4.64-.44,9.24-2.83,13.2-.84,1.4-1.78,2.55-2.87,3.73l-3.06,2.75c-1.57,1.41-2.34,3.24-2.05,5.35.28,2.06.91,4.02,1.65,6,2.03-.76,4.06-.4,5.77.83,1.92,1.39,3.03,3.72,2.74,6.13-.2,1.59-1.17,2.94-2.38,3.91-.29.24-.66.08-.83-.17l-.74-1.1c-.25-.36-.58-.51-.98-.49-.37.01-.66.2-.89.58-1.04,1.66.21,3.73,1.67,5.06,3.95,3.62,9.93,4.2,14.95,2.63,1.26-.4,2.31-1.08,3.34-1.87,1.65-1.27,2.75-2.99,3.19-5.01.27-1.28.3-2.51-.24-3.71-.36.02-.59.22-.79.44-1.62,1.8-4.01,2.43-6.29,1.66-2.24-.76-3.81-2.46-4.46-4.72-.88-3.04-.05-6.21,2.36-8.3,1.97-1.72,4.52-2.61,7.15-2.3,2.37.29,4.59,1.25,6.38,2.75.93.78,1.45,1.66,2.14,2.79.13-1.54-.18-2.98-.68-4.34-.57-1.59-1.64-2.74-3.17-3.43l-4.43-2c-1.97-.9-3.75-1.99-5.33-3.47-.75-.7-1.46-1.31-2.11-2.14-3.4-4.32-4.79-9.66-5.12-15.15-.18-3,.16-5.92,1.1-8.75,1.97-5.93,6.02-9.32,11.55-11.9,1.03-.48,2.02-1.15,2.53-2.18,1.02-2.08-.7-5.42-2.12-7.38l-3.13-4.29s-.02-.03-.03-.04c-.14-.09.01-.25.12-.13.01,0,.03.03.06.03,3.81,1.12,7.7,3.53,9.39,7.43l.71-3.4c.55-1.71,1.25-3.31,2.04-4.92l1.47-2.97c1.12,2.04,2.04,4.05,2.89,6.17.66,1.67,1.02,3.26,1.29,5.17.9-2.07,2.14-3.64,3.91-4.87,1.79-1.25,3.73-2.1,5.95-2.12l-1.33,1.3c-2.24,2.18-4.33,5.12-4.56,8.3-.15,2.09,1.38,3.19,3.17,4.02,2.88,1.32,5.53,2.98,7.6,5.41,2.86,3.37,4.37,7.49,4.76,11.89.36,4.07-.11,8.06-1.4,11.91-1.33,3.97-3.65,7.37-7,9.88-1.87,1.39-3.95,2.28-6.07,3.23l-3.08,1.39c-2.38,1.07-3.06,4.56-3.08,7.3.79-1.06,1.4-2.02,2.35-2.82,2.2-1.84,4.86-2.89,7.74-2.78,3.34.12,6.58,2.47,7.76,5.65,1.09,2.95.38,6.31-1.96,8.41-2.56,2.3-6.47,2.26-8.71-.47-.14-.17-.45-.38-.62-.16-.29.37-.39.89-.37,1.39.09,2.3.97,4.43,2.67,6.03,3.18,2.98,7.52,4.18,11.84,3.63,2.45-.32,4.65-1.21,6.43-2.87,1-.93,1.77-1.97,2.2-3.28.42-1.28.28-2.87-.79-3.79-.62-.53-1.58-.04-1.98.52l-1.02,1.46c-2.26-1.69-2.68-4.46-1.44-6.88,1.59-3.11,5.21-4.5,8.58-3.07l1.1-4.35c.62-2.42-.36-4.8-2.26-6.41-1.87-1.58-3.64-3.19-5.07-5.22-4.1-5.79-4.71-13.03-2.76-19.8,1.27-4.39,3.58-8.41,7.06-11.4,3.27-2.81,6.83-4.08,11.11-4.41,2.15-.16,4.3-1.07,4.73-3.21.82-4.04.64-7.58-2.02-10.76.02-.03,0-.06-.01-.07-.12-.07,0-.23.1-.11.01.01.04.02.07.02,1.1.35,2.24.82,3.11,1.7,1.17,1.18,2.05,2.62,2.62,4.18.48,1.29.54,2.58.66,4.01,1.2-2.32,2.97-4.14,4.88-5.92l2.51-2.34c.05-.08.13-.1.16-.02l.05.23.34,2.8c.22,1.75.29,3.48,0,5.22l-.23,1.4c-.02.08-.07.29.01.32.04.02.11-.09.13-.12l.15-.15c.98-1.25,2.18-2.27,3.56-3.02l.16-.09.17-.1c1.89-.84,4.04-1.39,6-.83-3.03,1.66-5.3,3.76-6.91,6.51-1.06,1.81-1.75,4.13-.58,5.86l2.67,3.03c.93,1.05,1.84,2.07,2.5,3.33.89,1.69,1.61,3.44,1.95,5.36,1.31,7.4-1.09,14.7-5.54,20.61l-1.23,1.39-1.55,1.55c-3.13,2.82-6.98,4.49-11.18,4.83l-5.11.09c-2.54.04-4.12,1.51-3.18,1.3l.71-.17.23-.02c1.66-.14,3.19.06,4.67.8l.16.08.13.11c1.01.57,1.5,1.48,1.7,2.63l.04.22c.04,1.26-.28,2.43-.78,3.57l-.07.17-.08.18-.08.18c-.04.08-.18.24-.16.31.05.2.25.03.46-.04,1.4-.44,2.89-.21,4.07.72,2.01,1.58,2.72,4.26,1.97,6.7-.48,1.56-1.48,2.81-2.92,3.51-1.66.81-3.64-.04-4.08-1.85l-.07-.48c-.02-.13-.26-.17-.36-.01l-.17.28-.09.16-.1.15c-1.38,2.24.51,8.73,5.1,9.22.63.07,1.2.02,1.83-.05,3.4-.38,5.85-3.42,5.44-6.8-.12-.95-1.36.27-1.81.49-.85.42-1.66-1.64-1.28-3.63.14-.72.41-1.4.78-1.99h-.01l.06-.08s.02-.03.03-.05l3.29-5.02c.73-1.28,1.09-2.65,1.37-4.08.29-1.52-.04-2.9-.95-4.15l-1.17-1.61c1.45-.81,2.81-1.79,4.08-2.93l1.69-1.68,1.38-1.55.18-.23c5.43-7.21,7.64-15.55,6.23-23.47-.2-1.13-.52-2.25-.95-3.41,1.09-.08,2.17-.03,3.28.08l2.05.21c1.31,0,2.46-.69,3.25-1.74.9-1.2,1.35-2.65,1.69-4.13.49-2.21.51-4.45-.16-6.59-.18-.56.89.22,1.77,1.05,1.07,1.03,1.54,2.4,1.98,3.82l.06.19.26,1.84v.21s0,.5,0,.5c0,.08-.04.19.12.32,2.03-1.6,4.19-2.99,6.56-4.11l.38-.18c.17-.08.18.07.19.23.07,1.68-.07,3.23-.39,4.85l-.33,1.65c-.03.14-.06.28.03.35.11.07,1.77-1.51,5.58-.81l.21.05c.7.25,1.57.26,1.98.87-2.25.42-4.15,1.37-5.78,2.78-1.51,1.31-2.83,2.77-3.52,4.68-.47,1.28-.04,2.68.55,3.87Z"/>
  <path class="st2" d="M302.95,132.27c.48-.4,1.14-.81,1.48-1.36l.81-4.37c-1.49.78-2.55,1.88-3.62,3.05-.33.36-.65.71-.77,1.2.48.79.68,1.59.92,2.46l1.18-.98Z"/>
  <path class="st2" d="M360.76,138.7c.78-.62,1.46-1.09,2.39-1.46.24-.4.38-.8.47-1.2.26-1.15.69-2.13,1.24-3.28-1.63.67-2.92,1.67-4.23,2.78.17,1.06.18,2,.12,3.15h0Z"/>
  <path class="st2" d="M351.41,136.23c.54-.82.89-1.37,1.54-1.82.31-.26.38-.62.29-1.03-.44-1.64-.99-3.17-1.79-4.79l-1.21,3.6c-.13.34-.21.7-.11,1.06l1.29,2.97Z"/>
  <path class="st2" d="M289.19,131.59l2.22,1.78c.22-1.99,1.42-2.59.22-3.72-1.11-1.26-2.4-2.25-3.93-3.12l.78,3.8c.1.51.28.96.71,1.27h0Z"/>
  <path class="st2" d="M240.58,136.32c.31-1.17.85-1.91,1.31-2.85.15-.37-.13-.98-.25-1.35l-.99-3.03c-.77,1.22-2.21,4.9-1.82,5.33l1.75,1.9Z"/>
  <path class="st2" d="M228.18,138.53c.45.92,1.99.96,3.34,1.75-.26-1.1-.26-2.06-.33-3.11-1.5-.91-3.04-1.55-4.78-2.07l.67,1.2,1.1,2.23Z"/>
</svg>