<?xml version="1.0" encoding="UTF-8"?>
<svg id="Layer_1" data-name="Layer 1" xmlns="http://www.w3.org/2000/svg" width="802.54" height="996.41" viewBox="138.74 41.75 802.54 996.41">
  <path d="M258.92,289.07c-.17-.08-.38,0-.46.17-.07.15-.02.34.11.43,20.31,14.03,41.62,26.47,63.28,38.28,7.23,3.91,14.53,7.71,21.99,11.21.17.08.38,0,.46-.17.07-.15.02-.34-.11-.43-20.3-14.04-41.63-26.47-63.28-38.28-7.23-3.9-14.53-7.71-21.99-11.21Z" style="fill: #1f3a6e;"/>
  <path d="M256.63,253.95c4.13,2.8,9.25,5.24,12.69,6.75.45.2.5.8.09,1.08l-3.17,2.18c-.15.1-.15.32,0,.42l53.76,38.72c.2.15.44-.13.27-.31l-12.41-12.8c-.08-.09.02-.21.13-.16,9.45,5.39,18,9.2,20.79,10.4.21.09.38-.17.22-.33-2.15-2.14-8.84-8.67-17.34-15.45-.09-.07-.01-.22.1-.18l16.49,6.8c.23.1.4-.23.19-.36l-55.9-35.63c-.15-.1-.35-.01-.39.16l-.85,3.76c-.11.47-.69.65-1.03.31-2.68-2.64-6.84-6.5-10.97-9.29-4.6-3.12-10.82-6.05-14.43-7.65-.32-.14-.61,0-.76.22-.15.23-.17.55.08.79,2.83,2.77,7.85,7.45,12.45,10.57Z" style="fill: #1f3a6e;"/>
  <path d="M224.92,309.13c4.47,2.21,9.88,3.93,13.49,4.96.47.13.6.73.24,1.05l-2.85,2.59c-.13.12-.11.34.05.42l119.58,63.44c.28.15.53-.24.28-.43l-17.7-13.86c-.12-.09,0-.27.13-.22,12.73,5.11,24.07,8.4,27.76,9.43.27.08.45-.28.22-.45-3.05-2.31-12.54-9.32-24.32-16.33-.13-.08-.05-.27.09-.24l21.78,5.67c.31.08.46-.35.17-.48l-123.02-56.58c-.16-.07-.35.03-.36.21l-.33,3.84c-.04.48-.59.74-.98.45-3.01-2.25-7.66-5.5-12.13-7.72-4.98-2.46-11.54-4.52-15.34-5.62-.33-.1-.6.08-.73.32-.12.25-.09.57.19.77,3.18,2.36,8.79,6.32,13.77,8.78Z" style="fill: #1f3a6e;"/>
  <path d="M349.31,283.23c.11-.14.13-.31.04-.41-4.23-4.26-8.67-8.26-13.19-12.15-13.62-11.62-27.7-22.68-42.91-32.24-.1-.06-.26-.02-.37.11,0,0,0,.02-.01.03,0,0-.02.01-.02.02-.1.14-.1.3-.02.39,12.8,12.6,26.8,23.76,41.24,34.35,4.83,3.5,9.74,6.91,14.86,10.04.11.07.28,0,.39-.13Z" style="fill: #1f3a6e;"/>
  <path d="M423.26,218.84c4.54,6.85,9.18,13.64,14.11,20.25.11.15.33.18.48.07.14-.1.18-.29.1-.43-11.29-21.95-24.24-42.96-37.77-63.58-4.54-6.85-9.18-13.64-14.11-20.25-.11-.15-.33-.18-.48-.07-.14.1-.18.29-.1.43,11.3,21.95,24.24,42.96,37.77,63.58Z" style="fill: #1f3a6e;"/>
  <path d="M441.53,89.24c1.44.08,2.88.15,4.17.79l3.28,2.02c2.3,1.42,3.45,3.53,2.17,5.96-1.92,3.66-2.71,6.83-2.12,10.98.87,6.07,4.4,11.46,9.67,14.58,4.14,2.45,8,2.63,12.65,1.97,2.28-.32,4.48.93,5.12,3.28-1.43-1.15-2.86-2.07-4.62-2.02-2.48.06-3.81,2.13-3.31,3.03.11.19.34.32.63.39l1.83.42c1.93.45,2.8,3.43,3.16,5.43.67,3.71,1.98,7.15,4.08,10.28.73,1.09,1.23,2.19,1.68,3.41.27.75.59,1.46.57,2.3-1.4.81-2.61,1.81-3.57,3.06-.82,1.07-1.08,2.39-.78,3.7.43,1.88,1.73,3.29,3.47,4.08.46.21.91.38,1.3.71l-.02,1.98c0,.73-1.83,1.95-2.92,4.12-1.07,2.11-.77,4.37.64,6.22l2.75,2.68c.68.85-.19,2.36-.93,2.97l-2.34,1.93c-1.44,1.46-2,3.45-1.44,5.45.77,2.73,2.99,3.92,5.63,4.78l-.39,10.27c-.08,2.15.13,4.16.7,6.21-.55.32-1.06.55-1.41,1.02-1.3,1.71-.83,4.14.96,5.31.06.58.1,1.09,0,1.61-2.27.95-3.47,3.46-2.61,5.78l-.87,1.03c-.37.44-.09,1.01.16,1.49l-.14.18c-2.33,1.9-2.92,5.13-3.24,8.05l-.74,6.69-.04.2-.04.2c-.37,1.7-.88,3.33-1.82,4.77l-1.21,1.86-.08.15c-.19.36-.3.71-.1.89l.13.12.15.09.16.08.16.08.16.07,2.64.77c1.84.54,3.71.82,5.65.87h.24c.08,0,.15,0,.25-.02.14.04.12.2.04.26-.94.82-1.23,1.83-1.1,3.04.34,3.2.7,6.35,1.46,9.48l1.1,4.56c.3,1.24.87,2.65,1.67,2.09.94-.66,2.27-7.32,2.59-9.4l1.02-6.52c.36-2.32-1.55-3.42-.91-3.44,2.44-.07,6.83-.75,8.88-1.69.34-.16.55-.55.36-.9l-2.02-3.74c-.86-1.97-1.32-4.01-1.49-6.16l-.37-4.68c-.14-1.78-.49-3.47-1.14-5.12-.41-1.04-1.01-1.92-1.88-2.62-.26-.2.67-1.25-.39-2.19-.31-.28-.45-.5-.33-.92.62-2.18-.44-4.37-2.48-5.33l-.18-1.7c1.48-.91,2.17-2.68,1.59-4.31-.16-.46-.47-.97-.84-1.25l-1.27-.96c.62-1.39.9-2.81.85-4.35l-.35-10.91c7.9,2.29,16.07,3.02,24.28,3.83l.09,7.68c-.76.61-1.34,1.44-1.32,2.41.02,1.01.62,1.8,1.39,2.47-.16.9-.44,2.02-.1,3.08-2.1,1.03-2.86,3.33-2.08,5.49.14.39-.87.53-.65,1.94-1.56,1.75-2.29,4.42-2.58,6.74l-.31,5.45c-.18,3.19-1.03,6.15-2.81,8.78-.21.3-.32.71.02.92.66.4,1.38.66,2.15.78l5.19.8c.16-.03.26.06.19.16l-.21.31c-.98,1.45-.9,3.19-.62,4.97.57,3.68,1.33,7.26,2.27,10.85.11.42.27.81.57,1.09.16.15.44.12.58-.02.75-.73,1.81-6.48,2.17-8.5.34-1.95.72-3.8.76-5.77.02-1.11-.5-2.09-1.02-3.05,2.16-.1,4.21-.4,6.27-.84.77-.16,1.38-.55,1.13-1.01l-.88-1.59c-1.73-3.13-1.87-6.07-2.03-9.54l-.23-4.84c-.24-1.93-.81-3.76-1.97-5.3-.17-.23-.44-.29-.26-.68.4-.89-.8-1.55-.78-1.61l.14-.37c.76-1.98-.05-4.03-1.87-5.07.11-.9.22-1.7-.12-2.49-.1-.24-.36-.62-.07-.83.87-.64,1.28-1.52,1.27-2.54-.01-.99-.75-1.75-1.46-2.36l.18-5.6.02-1.44c0-.12.08-.23.14-.26.09-.04.15,0,.33,0,8.52.64,16.96.89,25.6.92l-.16,5.93c-.04,1.43.2,2.77.77,4.06.12.27,0,.49-.23.62-1.12.59-1.76,1.65-1.8,2.82-.04,1.23.52,2.32,1.57,3.06l-.07,2.19c-2.45,1.1-2.98,3.57-2.33,6.12.14.55-1.53.76-1,2.05.06.13.29.45.09.61-2.69,2.31-3.13,5.88-3.35,9.36l-.57,4.64c-.38,3.1-1.59,5.9-3.27,8.51-.2.3-.2.62.08.84l.14.11c1.77.81,3.65,1.15,5.59,1.46l2.78.28.2.02h.22s.24.02.24.02h.25c.12.02.14.13.03.2-.49.65-1.17,1.38-1.12,2.31.25,4.53,1.04,8.91,2.16,13.27l1.09,3.65c.08.28.36.43.6.43.76,0,.98-.89,1.21-1.82l.92-3.7c.86-3.45,1.46-6.89,1.77-10.44.24-1.36-.09-2.53-1.01-3.55-.06-.08-.14-.21-.11-.27.04-.11.22-.08.35-.09,2.94-.11,5.76-.59,8.53-1.57.36-.13,1.24-.58.96-1.06-1.86-2.7-3.1-5.65-3.58-8.91l-.49-4.57c-.31-2.92-.85-7.68-3.27-9.22-.25-.16-.06-.3.01-.48.51-1.24-1.11-1.62-.89-2.32.68-2.25-.06-4.69-2.07-5.79-.52-.29-.07-1.08-.3-2.27,1.06-.74,1.65-1.96,1.49-3.27-.14-1.19-.93-2.21-2.12-2.75-.37-.17.79-1.87.72-3.98l-.18-5.97c0-.15-.05-.3,0-.41.06-.11.16-.11.38-.11,8.62-.04,17.12-.29,25.88-.95l.14,7.57c-.42.38-.83.71-1.06,1.21-.59,1.3-.06,2.69,1.12,3.48.09.06.22.26.15.37-.41.67-.44,1.37-.38,2.16l.05.61c0,.08-.02.3-.1.34-2.08,1.03-2.4,3.11-1.81,5.35.08.32-1.01.8-.6,1.54.12.22.07.35-.1.49-.58.49-.89,1.16-1.21,1.86-.99,2.22-1.27,4.6-1.42,7.04l-.35,5.68c-.28,2.27-1.18,4.3-2.33,6.27-.13.23-.28.52-.17.77.37.86,5.23,1.51,7.05,1.67h.28c.13,0,.19.15.09.3-.72,1.1-.92,2.26-.77,3.58.47,4.04,1.25,7.97,2.22,11.91.23.93.65,1.81,1.28,1.61.16-.05.36-.25.42-.49l.58-2.25,1.53-7.18.48-4.09c.19-1.66-.83-3.19-.83-3.24.02-.18.12-.12.27-.13,1.99-.17,5.94-.73,7.21-1.68.12-.09.13-.4.02-.53-1.58-1.92-2.58-4.11-2.96-6.59l-.36-5.04c-.24-3.35-.12-7.02-2.61-9.62.51-1.49-.9-1.65-.62-2.31.22-.51.25-1.05.25-1.62,0-1.39-.72-2.6-1.93-3.24-.5-.26.21-1.74-.47-2.92-.08-.13-.21-.53-.04-.64.84-.52,1.3-1.31,1.35-2.25.05-.9-.39-1.78-1.16-2.35-.31-.23-.42-.37-.4-.77l.32-7.05,10.14-1.03,10.88-1.84.2-.05,2.6-.71c.08-.02.22-.1.27-.06.11.08.07.26.07.41l-.26,9.65c-.05,1.7.23,3.26.73,4.85.1.31-1.05.54-1.63,1.43-1.11,1.7-.62,3.98,1.05,5.14.14.53.12,1.06.04,1.61-2.32.87-3.3,3.35-2.5,5.56.25.67-1.16,1-.85,2.14l.25.33c.08.11-.04.25-.18.36-2.25,1.85-2.71,5.44-2.96,8.32l-.43,4.88c-.23,2.66-1.67,6.3-3.29,8.5-.19.25-.3.64-.04.85.33.26.71.41,1.12.55,2.55.85,5.17,1.26,7.87,1.43.11,0,.29-.03.39.02.3.14-1.37,1.38-1.28,2.8.19,3.11.65,6.09,1.33,9.1l.94,4.15c.23,1.02.68,2.85,1.14,3.1.33.18.7.18,1.01-.01.26-.16.46-.46.56-.82l.96-3.64.86-4.09.99-7.03c.09-.65.04-1.26-.25-1.86l-.08-.16-.59-.95-.11-.13-.1-.13c-.05-.06-.11-.15-.11-.2,0-.11.08-.14.25-.15,2.96-.2,6.89-.78,9.39-2.17.39-.22.03-.81-.16-1.05-1.04-1.31-1.85-2.67-2.36-4.26-.53-1.63-.93-3.21-1.09-4.92l-.35-3.76c-.25-2.7-.75-5.62-2.39-7.75-.53-.68-1.07-.78-.91-1.06.39-.66.02-1.48-.55-1.96-.33-.28-.26-.6-.18-.99.41-1.99-.51-3.84-2.26-4.83-.19-.11-.34-.23-.33-.49l.05-1.56c1.1-.86,1.61-2.14,1.46-3.5-.24-2.26-2.2-2.5-2.09-2.89l.14-.5c.5-1.8.56-3.58.52-5.47l-.21-9.66c0-.32.21-.32.44-.4,1.3-.47,2.56-1.01,3.52-2.02,2.35-2.45,2.29-6.4-.44-8.63l-1.89-1.54c-.78-.64-1.3-1.76-1.07-2.78.2-.49.8-.83,1.19-1.16,1.17-.97,2.19-2.06,2.75-3.49.6-1.52.41-3.21-.35-4.65-.62-1.16-1.46-2.1-2.36-3.05-.38-.41-.64-.79-.57-1.42.04-.4-.14-1.09.13-1.45.4-.4,1.01-.56,1.53-.84,1.93-1.03,3.26-2.98,3.13-5.24-.08-1.34-.81-2.51-1.7-3.47-.72-.77-1.6-1.3-2.47-1.89-.19-.13-.14-.35-.11-.55.37-2.42,1.51-4.47,2.84-6.48,1.12-1.68,1.86-3.49,2.51-5.39l1.13-4.63c.26-1.06.5-2.04,1.05-2.98,1.38-2.37,2.92-1.59,3.79-2.24.34-.25.35-1.12-.01-1.65l-.09-.14-.12-.14c-1.35-1.56-3.56-1.58-5.31-.51l-.14.07-.14.09-.14.09-.14.1c-.39.28-.75.57-1.1.97-.13.17-.3,0-.15-.21.55-1.5,1.92-2.72,3.52-2.94.85-.12,1.64.05,2.49.18,4.29.62,8.73-.13,12.38-2.53,1.56-1.03,2.86-2.3,4.07-3.69,2.32-2.68,3.89-5.8,4.63-9.25.79-3.68.37-7.37-1.21-10.77l-1.11-2.21c-.56-1.12-.98-2.45-.53-3.68.66-1.81,1.92-3.2,3.35-4.44,1.55-1.34,3.35-2.25,5.49-2.65-.39-.58-1.22-.59-1.88-.83l-.21-.04c-3.62-.67-5.2.83-5.29.76-.09-.07-.06-.2-.03-.33l.31-1.57c.3-1.54.44-3.01.37-4.61,0-.15-.02-.29-.17-.22l-.36.17c-2.25,1.06-4.31,2.39-6.24,3.91-.15-.13-.12-.23-.11-.31v-.24s0-.23,0-.23v-.2s-.26-1.75-.26-1.75l-.06-.18c-.42-1.35-.87-2.65-1.89-3.62-.83-.79-1.85-1.54-1.68-1.01.64,2.04.62,4.16.15,6.26-.32,1.41-.75,2.78-1.61,3.92-.75,1-1.84,1.66-3.09,1.65l-1.94-.2c-1.55-.16-3.06-.2-4.59.14-.14.03-.22.1-.18.21l.13.3c1.99,4.7,1.39,11.04-.38,15.81-1.33,3.6-3.55,6.7-6.2,9.44-1.46,1.52-3.11,2.66-4.92,3.69-.21.12-.15.31-.03.47l2.19,3c.86,1.18,1.18,2.51.9,3.94-.26,1.36-.61,2.67-1.3,3.88l-3.13,4.77s-.02.03-.03.04l-.05.08h0c-.35.57-.61,1.2-.74,1.89-.36,1.89.41,3.85,1.22,3.45.43-.21,1.6-1.37,1.71-.47.39,3.21-1.94,6.1-5.16,6.46-.6.07-1.14.12-1.74.05-4.36-.46-6.16-6.64-4.85-8.76l.09-.15.09-.15.16-.26c.09-.16.33-.12.35,0l.07.45c.41,1.72,2.3,2.53,3.87,1.76,1.38-.67,2.32-1.85,2.78-3.34.71-2.32.04-4.87-1.86-6.36-1.12-.88-2.54-1.1-3.87-.69-.2.06-.39.23-.44.04-.02-.07.12-.22.15-.29l.08-.17.07-.17.07-.17c.48-1.08.77-2.19.74-3.39l-.04-.21c-.19-1.09-.66-1.96-1.61-2.49l-.13-.1-.15-.08c-1.41-.7-2.86-.9-4.44-.76l-.21.02-.68.16c-.89.2.61-1.2,3.02-1.24l4.86-.08c4-.33,7.65-1.91,10.62-4.59l1.48-1.48,1.16-1.31c4.23-5.62,6.51-12.56,5.26-19.59-.32-1.82-1.01-3.49-1.85-5.1-.63-1.2-1.49-2.16-2.38-3.17l-2.54-2.87c-1.11-1.65-.45-3.86.55-5.57,1.53-2.61,3.68-4.61,6.57-6.19-1.86-.53-3.91-.01-5.7.79l-.16.1-.16.09c-1.31.71-2.45,1.68-3.38,2.86l-.14.14s-.09.13-.12.12c-.07-.03-.02-.23-.01-.3l.22-1.33c.28-1.65.21-3.3,0-4.96l-.32-2.67-.05-.22c-.02-.07-.1-.05-.14.03l-2.39,2.22c-1.81,1.68-3.5,3.42-4.64,5.62-.12-1.36-.17-2.58-.63-3.81-.54-1.48-1.38-2.85-2.49-3.97-.83-.84-1.91-1.28-2.95-1.61-.04,0-.06-.01-.07-.02-.1-.11-.21.04-.1.11.02,0,.04.04.01.06,2.52,3.02,2.7,6.39,1.92,10.23-.41,2.04-2.45,2.9-4.49,3.05-4.07.31-7.45,1.52-10.56,4.19-3.31,2.85-5.5,6.66-6.71,10.84-1.86,6.43-1.27,13.31,2.62,18.81,1.36,1.93,3.04,3.46,4.82,4.96,1.81,1.53,2.74,3.79,2.15,6.09l-1.05,4.13c-3.2-1.35-6.64-.04-8.15,2.91-1.18,2.3-.77,4.94,1.37,6.54l.98-1.38c.38-.54,1.29-1,1.88-.49,1.02.87,1.16,2.38.76,3.6-.41,1.25-1.14,2.23-2.09,3.12-1.69,1.58-3.79,2.42-6.11,2.72-4.11.53-8.23-.62-11.25-3.45-1.62-1.52-2.45-3.54-2.54-5.73-.02-.48.08-.97.35-1.32.16-.21.45-.01.59.15,2.13,2.59,5.85,2.64,8.28.45,2.22-1.99,2.89-5.19,1.86-7.99-1.12-3.02-4.2-5.26-7.37-5.38-2.73-.1-5.26.9-7.35,2.64-.91.76-1.49,1.67-2.23,2.68.02-2.6.66-5.91,2.92-6.93l2.93-1.32c2.01-.91,3.99-1.75,5.76-3.07,3.18-2.38,5.39-5.62,6.65-9.38,1.23-3.66,1.67-7.46,1.33-11.32-.37-4.18-1.8-8.1-4.52-11.3-1.96-2.31-4.48-3.89-7.21-5.14-1.71-.78-3.16-1.83-3.02-3.82.22-3.02,2.2-5.82,4.33-7.89l1.26-1.23c-2.11.01-3.95.82-5.65,2.01-1.68,1.17-2.86,2.67-3.71,4.63-.26-1.81-.6-3.33-1.23-4.91-.8-2.02-1.68-3.93-2.75-5.86l-1.39,2.82c-.76,1.53-1.42,3.04-1.94,4.67l-.67,3.24c-1.6-3.71-5.31-6-8.92-7.06-.03,0-.05-.02-.06-.03-.1-.12-.25.04-.11.13.01,0,.02.02.03.04l2.97,4.07c1.36,1.86,2.99,5.03,2.02,7.01-.48.98-1.42,1.62-2.41,2.08-5.26,2.45-9.11,5.67-10.98,11.3-.89,2.69-1.21,5.47-1.04,8.32.31,5.22,1.63,10.29,4.86,14.4.62.79,1.29,1.37,2.01,2.03,1.5,1.4,3.19,2.44,5.07,3.29l4.21,1.9c1.45.65,2.46,1.74,3.01,3.26.47,1.29.77,2.67.64,4.13-.65-1.08-1.15-1.91-2.03-2.65-1.7-1.43-3.81-2.34-6.06-2.61-2.5-.3-4.92.54-6.8,2.18-2.29,1.99-3.07,5-2.24,7.89.62,2.15,2.11,3.77,4.24,4.49,2.16.73,4.44.13,5.97-1.58.19-.21.41-.41.75-.42.52,1.14.49,2.31.23,3.52-.41,1.93-1.46,3.56-3.02,4.76-.98.75-1.98,1.4-3.18,1.78-4.76,1.49-10.45.94-14.21-2.49-1.39-1.27-2.57-3.24-1.59-4.81.23-.36.5-.54.85-.56.38-.02.69.12.93.47l.71,1.05c.16.24.51.39.79.16,1.14-.92,2.07-2.21,2.25-3.72.28-2.29-.78-4.51-2.6-5.83-1.62-1.17-3.55-1.51-5.48-.79-.71-1.88-1.3-3.74-1.57-5.7-.27-2,.46-3.74,1.95-5.08l2.91-2.61c1.04-1.12,1.93-2.21,2.73-3.54,2.26-3.76,3.18-8.13,2.69-12.54-.35-3.13-1.12-6.12-2.39-9-1.6-3.63-4.13-6.68-7.53-8.72-1.75-1.05-3.61-1.73-5.57-2.2-2.67-.63-5.33.12-6.97-1.19-.73-.59-1.13-1.51-1.2-2.47-.24-3.37.53-6.66,2.21-9.72-3.49,1.37-5.66,4.98-6.02,8.56-.04.44-.02.84-.23,1.33-1.42-3.09-4.46-5.64-7.3-7.82-.95,3.52-.87,7.08.07,10.64-2.91-2.99-7.32-4.12-11.3-2.48,2.63.78,5,1.98,6.96,3.8,1.57,1.46,2.89,3.48,1.7,5.31-.41.64-.88,1.19-1.43,1.76-2.29,2.36-3.91,5.17-4.61,8.45-1.74,8.14,1.7,17.07,7.9,22.54.94.83,1.89,1.56,2.99,2.19,3.75,2.13,8,2.93,12.28,2.33,1.47-.21,2.82.15,3.75,1.33.18.23.52.4.48.86-1.85-1.03-4.42-.72-6.25.27-2.61,1.4-2.42,4.84-.84,7.5-1.58-.48-3-.32-4.17.71-2.35,2.05-2.69,5.23-.8,7.89.98,1.37,2.71,2.12,4.33,1.51,1.52-.58,1.55-2.68,1.68-2.74.7-.37,2.48,3.59.18,7.3-.98,1.58-2.53,2.42-4.36,2.52-1.61.09-3.05-.28-4.38-1.21-1.71-1.2-2.91-3.05-3-5.18-.01-.27.08-.59.23-.72.57-.49,1.33.45,1.97.94.54.04.78-.78.88-1.21.36-1.53.07-3.01-.76-4.24,0,0-2.94-4.77-3.13-5.1-.81-1.37-1.29-2.94-1.5-4.51-.18-1.37.13-2.64.92-3.72l1.78-2.36c.15-.02.47-.64.26-.75-6.07-3.51-10.4-9.27-12.1-16.08-1.12-4.51-1.02-8.97.86-13.25-1.58-.32-3.03-.37-4.54-.15l-3.17.45c-1.58.22-2.94-.63-3.61-2.04-.3-.64-.6-1.24-.76-1.95-.32-1.48-.78-2.88-1.18-4.34-.36-1.29-.18-2.56-.02-3.97-1.57,1.28-2.45,3.18-2.68,5.19.04.27-.23.17-.2-.05-.9-1.17-1.6-2.31-2.42-3.6-.47,1.77-.5,3.45-.4,5.32-1.78-1-3.48-1.66-5.4-2.32-.04,2.52.46,4.9,1.54,7.29-3.15-.89-5.38-.62-7.82,1.37-.09.13.04.27.19.19ZM479.68,172.31c-.37-2.67,2.1-4.02,2.58-4.2l4.66-1.71.8,7.05-5.21,1.66s-2.52-.59-2.83-2.79ZM589.79,175.4c2.53.65,4.97,1.39,7.44,2.34v1.87s-6.49-1.77-6.49-1.77c-6.55-1.36-13.11-2.48-19.81-3.16-9.23-.93-18.38-1.41-27.74-1.45l-15.84.32-12.75.87c-7.47.69-14.8,1.8-22.12,3.34-2.64.56-5.11,1.2-7.66,2.05l-.03-1.95,6.44-2.04-.46-4.54-.98-8.49-5.42,1.8-.17-2.38c2.75-1.22,5.49-2.09,8.38-2.85,10.46-2.73,21.32-3.99,32.12-4.77,7.68-.55,15.31-.65,23.03-.51,7.31.13,14.49.74,21.73,1.57,6,.69,11.87,1.61,17.74,3.01l6.87,1.99,3.84,1.57-.18,2.2c-2.31-.92-4.51-1.63-6.87-2.2l-1.37,12.83c-.02.2.16.35.31.38ZM483.18,265.13c-.79-3.09-1.37-6.18-1.71-9.36,1.06-.04,1.91.62,2.13,1.63.25.88.24,1.78.24,2.77l-.65,4.96ZM485.84,245.43c1.08.02,2.07.2,3.08.52,1.75.49,3.4,1.16,4.92,2.49-1.22.54-2.45.67-3.75.88-5.4.88-10.86.69-16.26-.87.91-1.35,1.65-2.66,2.05-4.19.55-2.08.86-4.12,1.05-6.26l.62-5.26c.15-1.29.59-2.46,1.32-3.54.82-1.22,2.18-1.93,3.69-2.03.66,1,1.03,2.06,1.32,3.2,1.17,4.67.67,10.3-.54,15l2.5.06ZM509.94,196.86l-11.38-1.25c-3.16-.35-6.13-1.08-9.2-1.86-1.29-.33-2.47-.72-3.65-1.25l.06-2.15c1.72.85,3.33,1.37,5.12,1.77,5.08,1.16,10.14,1.97,15.33,2.42l3.73.32v1.99ZM513.11,197.12l-.03-1.99,8.77.57,17.19.43.03,1.94c-8.66,0-17.26-.3-25.96-.95ZM541.01,261.94l-.57,4.45c-.81-3.27-1.35-6.4-1.74-9.69,1.15-.02,1.95.59,2.18,1.65.25,1.16.29,2.33.13,3.6ZM551.28,249.1c-1.67.74-3.43,1.08-5.26,1.3-4.6.55-10.43.51-14.9-1.15,1.4-2.28,2.28-4.65,2.58-7.27l.86-7.38c.14-1.18.3-2.3.72-3.41.73-1.93,2.45-3.31,4.52-3.46.75,1.07,1.12,2.18,1.4,3.41,1.11,4.82.65,10.18-.53,15.1,3.79-.25,7.43.55,10.6,2.85ZM569.12,197.09l-16.71.85-9.52.16v-1.98s14.71-.32,14.71-.32l11.53-.65v1.94ZM596.34,192.56l-1.87.71c-7.06,2.15-14.75,2.97-22.16,3.6v-2.01c6.33-.55,12.47-1.33,18.6-2.64,1.93-.41,3.68-.92,5.43-1.77v2.11ZM598.46,259.23l-.69,5.41c-.78-3.12-1.28-6.23-1.65-9.53.93-.11,1.74.45,2.03,1.37.28.85.44,1.77.32,2.75ZM607.26,246.86c.42.24.8.46,1.06.91-4.99,1.5-10.15,1.8-15.33,1.08-1.51-.21-2.8-.47-4.27-1.02,1.25-1.95,2.06-3.97,2.47-6.21l.63-5.64.45-4c.15-1.29.63-2.5,1.43-3.53.84-1.07,2.12-1.65,3.46-1.82.85,1.56,1.31,3.12,1.58,4.84.71,4.44.46,8.82-.8,13.3,3.28-.19,6.45.49,9.3,2.1ZM601.05,191c-.36.23-.15-.67-1.23-1.52-.78-.62-1.64-1.09-2.61-1.4l-4.88-1.59c-3.75-.97-7.46-1.65-11.31-2.13l-8.78-1.08c-11.94-1.22-23.79-1.7-35.73-1.51-8.8.15-17.53.6-26.24,1.54-4.87.52-9.61,1.08-14.4,1.98-3.95.74-9.48,1.87-12.76,3.86-.77.47-1.31,1.13-1.5,2.03-.74-.3-.95-1.05-.59-1.67,1.57-2.7,10.65-4.69,14.24-5.41l10.04-1.64c9.72-1.28,19.48-1.94,29.31-2.15,10.93-.24,21.8.04,32.64,1.04l7.2.74c5.37.55,10.58,1.47,15.83,2.66l6.08,1.71,3.03,1.31c.76.33,1.42.84,1.92,1.49.44.57.31,1.36-.28,1.74ZM602.34,184.67c.09.05.06.18-.06.17l.06-.17ZM602.26,184.57l-.07.18c-1.3-.84-2.7-1.45-4.21-2.02-2.67-.9-5.29-1.65-8.08-2.17l-10.13-1.89-17.57-1.76c-18.82-1.35-40.38-.84-59.04,1.77l-13.14,2.51-6.26,1.87c-1.6.48-2.97,1.27-4.38,2.16.43-1.07,1.34-1.52,2.15-2.17,2.25-1.23,4.65-2.05,7.15-2.71l3.93-1.04c6.7-1.52,13.48-2.51,20.36-3.21,12.23-1.24,24.46-1.62,36.75-1.29,6.85.18,13.59.66,20.38,1.31l11.54,1.53c4.62.78,9.11,1.65,13.58,3.04,2.43.75,5.6,1.93,7.06,3.9ZM601.01,171.63c-.31,2.2-2.83,2.79-2.83,2.79l-5.21-1.66.8-7.05,4.66,1.71c.49.19,2.95,1.53,2.58,4.2ZM581.3,134.23c-.43,5.31.68,9.74,4.88,13.14-.76.08-1.38-.26-2.09-.36-.52-.07-.91-.22-1.29-.68-1.55-1.88-2.45-4.04-2.91-6.51-1.13,1.44-2.31,2.57-3.77,3.54-1.05.7-2.15,1.54-3.44,1.68-1.05.12-2.07-.21-3.2-.29,5.55-1.86,9.1-5,11.81-10.51ZM532.74,142.61c4.25-2.94,7.02-6.35,7.74-11.57h.82c.57,2.98,1.87,5.69,3.8,8.06,1.61,1.8,3.47,3.18,5.7,4.29l-3.79-.07c-2.66-1.93-4.76-4.49-6.02-7.62-.9,2.63-4.02,6.82-6.24,7.6-1.03.36-2.23.01-3.34.05l1.32-.72ZM500.74,134.25c1.23,2.23,2.3,4.17,3.96,5.9,2.18,2.24,4.83,3.78,7.96,4.62l-3.37.46c-2.85-1.05-5.2-2.81-7.04-5.37-.46,2.67-1.45,5.07-3.2,7l-2.91.44c3.9-3.48,5.13-7.77,4.6-13.04ZM495.1,149.27c9.8-2.21,20.26-3.17,30.28-3.87l7.73-.32c4.79-.2,9.45-.15,14.26-.04,9.87.21,19.64.95,29.41,2.32,5.92.83,11.71,2,17.42,3.66,2.67.78,5.72,1.92,7.83,3.61.71.57,1.31,1.32,1.44,2.28-1.24-1.22-2.59-2-4.16-2.63-3.11-1.25-6.25-2.17-9.57-2.93-8.35-1.92-16.84-3.08-25.43-3.81-15.26-1.28-30.56-1.3-45.9-.02-8.49.71-16.83,1.85-25.05,3.66-3.19.71-6.19,1.59-9.23,2.67l-2.82,1.2c-1.09.47-1.97,1.19-2.85,2.01,0-.9.53-1.54,1.15-2.08,3.42-2.99,10.8-4.65,15.48-5.71Z" style="fill: #1f3a6e;"/>
  <path d="M402.78,122.13c2.18,4.49,5.4,9.16,7.63,12.18.29.39.03.94-.45.98l-3.84.3c-.18.01-.29.2-.21.36l42.27,93.64h0s3.67,8.14,3.67,8.14c.12.27.52.13.45-.16l-2.25-8.9-2.87-11.36c-.03-.13.15-.2.22-.08,2.07,3.53,4.13,6.83,6.06,9.79,4.07,6.26,7.51,10.96,8.95,12.9.16.21.49.05.42-.2-.63-2.33-2.21-7.94-4.61-15.01-1.14-3.35-2.46-7.02-3.96-10.83-.05-.13.12-.23.2-.12l7.17,9.3,5.58,7.23c.18.23.54,0,.4-.26l-4.11-7.89h0s-47.5-91.1-47.5-91.1c-.08-.16-.3-.19-.42-.06l-2.61,2.83c-.33.36-.92.22-1.05-.25-1-3.62-2.69-9.04-4.87-13.53-2.43-5-6.35-10.64-8.68-13.84-.2-.28-.52-.31-.77-.19-.25.12-.42.39-.33.72,1.07,3.81,3.08,10.38,5.51,15.38Z" style="fill: #1f3a6e;"/>
  <path d="M296.57,202.99c3.66,3.39,8.35,6.58,11.52,8.59.41.26.37.87-.07,1.08l-3.46,1.67c-.16.08-.2.29-.07.42l47.28,46.42c.18.17.45-.06.31-.26l-10.33-14.53c-.07-.1.06-.21.15-.13,8.52,6.76,16.4,11.81,18.97,13.43.19.12.4-.11.27-.29-1.8-2.44-7.43-9.91-14.8-17.9-.08-.09.02-.22.12-.16l15.27,9.22c.21.13.43-.16.24-.33l-49.86-43.69c-.13-.12-.35-.07-.41.1l-1.41,3.59c-.18.45-.78.54-1.07.15-2.25-3.02-5.78-7.46-9.43-10.85-4.07-3.78-9.77-7.62-13.11-9.75-.29-.19-.6-.1-.79.1-.19.2-.25.52-.04.79,2.37,3.16,6.63,8.56,10.71,12.34Z" style="fill: #1f3a6e;"/>
  <path d="M345.26,158.16c3.02,3.97,7.09,7.92,9.87,10.45.36.33.21.92-.25,1.05l-3.7,1.05c-.17.05-.24.25-.14.4l35.42,49.46s0,0,0,0l43.4,60.59c.18.26.58.02.44-.26l-9.68-20.29c-.06-.13.11-.25.21-.14,9.12,10.24,17.81,18.24,20.66,20.8.21.19.53-.05.4-.31-1.7-3.43-7.07-13.93-14.5-25.45-.08-.13.08-.27.19-.17l16.98,14.77c.24.21.57-.11.37-.36l-84.95-105.44c-.11-.14-.33-.13-.42.03l-2.01,3.29c-.25.42-.86.4-1.08-.04-1.69-3.36-4.41-8.34-7.42-12.31-3.36-4.42-8.32-9.19-11.23-11.86-.25-.23-.58-.2-.79-.04-.22.17-.33.47-.18.77,1.79,3.52,5.06,9.57,8.42,14Z" style="fill: #1f3a6e;"/>
  <path d="M383.98,249.03c5.72,5.9,11.54,11.72,17.6,17.31.14.13.36.12.49-.02.12-.13.12-.31.02-.44-15.13-19.5-31.73-37.77-48.83-55.54-5.72-5.9-11.53-11.72-17.6-17.31-.14-.13-.36-.12-.49.02-.12.13-.12.31-.02.44,15.14,19.49,31.73,37.77,48.83,55.55Z" style="fill: #1f3a6e;"/>
  <path d="M546.4,65.17c.45-.38,1.08-.77,1.4-1.29l.77-4.15c-1.42.74-2.42,1.79-3.44,2.9-.31.34-.61.68-.73,1.14.46.75.64,1.51.87,2.33l1.12-.93Z" style="fill: #1f3a6e;"/>
  <path d="M780.56,373.69c23-8.9,45.75-18.47,67.71-29.75.15-.08.22-.25.17-.41-.06-.18-.25-.28-.43-.22-7.86,2.51-15.58,5.33-23.26,8.27-23,8.9-45.76,18.45-67.71,29.75-.15.08-.22.25-.17.41.06.18.25.28.43.22,7.86-2.51,15.58-5.33,23.26-8.26Z" style="fill: #1f3a6e;"/>
  <path d="M787.16,238.58s-.02-.01-.02-.02c0,0,0-.02-.01-.03-.11-.13-.27-.17-.37-.11-15.21,9.56-29.29,20.63-42.91,32.24-4.52,3.9-8.96,7.89-13.19,12.15-.09.09-.07.27.04.41.11.14.28.2.39.13,5.12-3.14,10.03-6.54,14.86-10.04,14.44-10.59,28.44-21.75,41.24-34.35.08-.09.08-.25-.02-.39Z" style="fill: #1f3a6e;"/>
  <path d="M586.97,161.19c-4.52-1.07-9.05-1.82-13.65-2.48l-1.08,13.55,7.12,1.03,6.89,1.16,1.32-12.5c.03-.46-.19-.67-.61-.77ZM583.81,170.65l-7.9-1.23.61-7.33,7.99,1.43-.69,7.13Z" style="fill: #1f3a6e;"/>
  <path d="M735.7,338.99c.08.17.29.25.46.17,7.47-3.5,14.76-7.3,21.99-11.21,21.65-11.81,42.97-24.25,63.28-38.28.14-.09.19-.28.11-.43-.08-.17-.29-.25-.46-.17-7.46,3.51-14.76,7.31-21.99,11.21-21.65,11.81-42.98,24.23-63.28,38.28-.13.09-.19.28-.11.43Z" style="fill: #1f3a6e;"/>
  <path d="M718.26,250.54l15.27-9.22c.1-.06.2.07.12.16-7.37,7.99-13,15.45-14.8,17.9-.13.18.08.41.27.29,2.57-1.61,10.45-6.67,18.97-13.43.09-.07.22.04.15.13l-10.33,14.53c-.14.2.13.44.31.26l47.28-46.42c.13-.13.09-.34-.07-.42l-3.46-1.67c-.44-.21-.48-.82-.07-1.08,3.17-2.01,7.87-5.2,11.52-8.59,4.07-3.78,8.33-9.17,10.71-12.34.21-.28.14-.59-.04-.79-.19-.2-.5-.29-.79-.1-3.33,2.13-9.03,5.97-13.11,9.75-3.66,3.39-7.19,7.83-9.43,10.85-.29.39-.89.3-1.07-.15l-1.41-3.59c-.07-.17-.28-.22-.41-.1l-49.86,43.69c-.19.16.03.46.24.33Z" style="fill: #1f3a6e;"/>
  <path d="M751.75,291.07l16.49-6.8c.11-.04.19.1.1.18-8.5,6.78-15.19,13.31-17.34,15.45-.16.16.02.42.22.33,2.79-1.2,11.34-5.01,20.79-10.4.1-.06.21.07.13.16l-12.41,12.8c-.17.18.06.45.27.31l53.76-38.72c.15-.1.14-.32,0-.42l-3.17-2.18c-.4-.28-.35-.88.09-1.08,3.44-1.51,8.56-3.95,12.69-6.75,4.6-3.12,9.62-7.81,12.45-10.57.25-.24.23-.56.08-.79-.15-.23-.45-.36-.76-.22-3.62,1.6-9.83,4.53-14.43,7.65-4.13,2.8-8.29,6.65-10.97,9.29-.35.34-.93.16-1.03-.31l-.85-3.76c-.04-.17-.24-.26-.39-.16l-55.9,35.63c-.21.13-.04.46.19.36Z" style="fill: #1f3a6e;"/>
  <path d="M862.48,517.52c-24.66.65-49.3,1.99-73.77,5.25-.16.02-.29.16-.3.33,0,.19.14.35.33.36,8.24.28,16.47.22,24.68.04,24.66-.65,49.3-2.01,73.77-5.25.16-.02.29-.16.3-.33,0-.19-.14-.35-.33-.36-8.24-.28-16.47-.22-24.68-.04Z" style="fill: #1f3a6e;"/>
  <path d="M863.58,368.27l.15-3.85c0-.18-.17-.31-.34-.26l-129.1,40.85c-.3.1-.2.54.11.5l22.31-2.91c.15-.02.2.19.06.25-12.56,5.49-22.84,11.27-26.16,13.18-.24.14-.11.52.16.48,3.79-.56,15.45-2.41,28.72-5.9.14-.04.23.15.1.23l-19.29,11.55c-.27.16-.07.57.22.46l69.67-26.47s0,0,0,0l56.87-21.61c.17-.06.22-.27.1-.41l-2.5-2.92c-.32-.37-.11-.94.37-1.01,3.72-.57,9.29-1.61,14-3.25,5.25-1.83,11.31-5.06,14.76-7,.3-.17.37-.48.28-.74-.09-.26-.34-.46-.68-.41-3.91.61-10.67,1.84-15.92,3.67-4.71,1.64-9.73,4.29-12.99,6.15-.42.24-.94-.08-.92-.57Z" style="fill: #1f3a6e;"/>
  <path d="M726.74,210.33c-17.1,17.78-33.7,36.04-48.83,55.54-.1.13-.1.32.02.44.13.14.35.15.49.02,6.07-5.59,11.88-11.41,17.6-17.31,17.1-17.78,33.68-36.05,48.83-55.55.1-.13.1-.32-.02-.44-.13-.14-.35-.15-.49-.02-6.06,5.59-11.87,11.41-17.6,17.31Z" style="fill: #1f3a6e;"/>
  <path d="M904.99,483.64c-4.96.53-10.44,1.98-14.05,3.05-.47.14-.9-.29-.77-.76l1.01-3.72c.05-.17-.09-.34-.27-.33l-134.99,10.63c-.31.02-.32.48,0,.51l22.39,2.2c.15.01.15.23,0,.25-13.48,2.51-24.8,5.82-28.46,6.93-.27.08-.23.48.05.5,3.82.31,15.6,1.14,29.31.74.15,0,.19.2.05.25l-21.4,6.9c-.3.1-.2.54.11.5l73.85-10.05h0l60.28-8.2c.18-.02.28-.22.19-.37l-1.78-3.41c-.22-.43.1-.94.59-.91,3.75.28,9.42.53,14.38,0,5.53-.59,12.16-2.37,15.96-3.49.33-.1.47-.39.44-.66-.03-.27-.23-.53-.57-.55-3.94-.29-10.81-.62-16.33-.02Z" style="fill: #1f3a6e;"/>
  <path d="M808.11,472.25c24.44-3.33,48.79-7.36,72.76-13.24.16-.04.27-.19.26-.36-.01-.19-.18-.33-.37-.32-8.22.62-16.39,1.58-24.54,2.65-24.44,3.32-48.79,7.34-72.76,13.24-.16.04-.27.19-.26.36.01.19.18.33.37.32,8.22-.62,16.39-1.57,24.54-2.64Z" style="fill: #1f3a6e;"/>
  <path d="M797.18,422.06c23.9-6.08,47.64-12.85,70.79-21.41.15-.06.25-.22.22-.39-.04-.19-.22-.31-.41-.27-8.1,1.55-16.11,3.42-24.08,5.42-23.9,6.08-47.64,12.83-70.79,21.41-.15.06-.25.22-.22.39.04.19.22.31.4.28,8.1-1.54,16.11-3.42,24.08-5.41Z" style="fill: #1f3a6e;"/>
  <path d="M880.27,426.51l.6-3.81c.03-.18-.13-.33-.3-.29l-132.98,25.52c-.31.06-.26.52.05.51l22.5-.29c.15,0,.18.21.03.25-13.12,3.99-24,8.53-27.52,10.04-.26.11-.17.5.11.49,3.83-.11,15.63-.6,29.21-2.52.15-.02.21.18.08.24l-20.5,9.23c-.29.13-.14.56.17.49l72.28-18.17s0,0,0,0l59-14.83c.17-.04.25-.25.15-.39l-2.14-3.19c-.27-.4,0-.95.48-.96,3.76-.13,9.42-.51,14.29-1.59,5.43-1.2,11.83-3.71,15.47-5.23.32-.13.42-.44.36-.71-.06-.27-.28-.5-.63-.49-3.95.15-10.81.59-16.24,1.79-4.87,1.08-10.16,3.12-13.62,4.59-.45.19-.92-.19-.85-.67Z" style="fill: #1f3a6e;"/>
  <path d="M716.32,365.16l21.78-5.67c.14-.04.22.16.09.24-11.78,7.01-21.27,14.02-24.32,16.33-.23.17-.05.53.22.45,3.69-1.02,15.03-4.32,27.76-9.43.14-.06.25.12.13.22l-17.7,13.86c-.25.19,0,.58.28.43l119.58-63.44c.16-.08.18-.3.05-.42l-2.85-2.59c-.36-.33-.23-.92.24-1.05,3.62-1.03,9.02-2.75,13.49-4.96,4.98-2.46,10.6-6.43,13.77-8.78.28-.21.31-.53.19-.77-.12-.25-.4-.42-.73-.32-3.8,1.09-10.36,3.15-15.34,5.62-4.47,2.21-9.12,5.46-12.13,7.72-.39.29-.94.04-.98-.45l-.33-3.84c-.02-.18-.2-.29-.36-.21l-123.02,56.58c-.29.13-.13.56.17.48Z" style="fill: #1f3a6e;"/>
  <path d="M515.19,158.04l-2.95.37c-.51,0-.84.42-.71.94l1,12.59,15-1.16-.6-13.77-11.74,1.02ZM515.23,168.42l-.6-7.4,9-.84.35,7.46-8.75.78Z" style="fill: #1f3a6e;"/>
  <path d="M507.25,159.07c-4.85.72-9.45,1.61-14.08,2.74-.14.23-.19.46-.16.74l1.53,12.37,13.95-2.35-.56-6.22-.68-7.28ZM496.97,171.13l-.88-7.15,7.99-1.44.67,7.18-7.78,1.41Z" style="fill: #1f3a6e;"/>
  <path d="M488.3,69.01c.29-1.11.81-1.82,1.24-2.7.15-.35-.12-.93-.23-1.28l-.94-2.88c-.74,1.16-2.1,4.66-1.73,5.06l1.66,1.8Z" style="fill: #1f3a6e;"/>
  <path d="M477.1,70.53c.43.88,1.9.91,3.18,1.66-.24-1.05-.25-1.96-.32-2.96-1.43-.87-2.89-1.47-4.55-1.97l.64,1.14,1.05,2.12Z" style="fill: #1f3a6e;"/>
  <path d="M568.67,158.18l-4.91-.52-10.09-.81-.6,13.79,11.37.82,3.78.17.87-12.9c.02-.33-.23-.49-.41-.55ZM565.48,168.21l-8.83-.7.28-7.5,9.08.78-.52,7.42Z" style="fill: #1f3a6e;"/>
  <path d="M546.94,156.7l-12.89.04c-.56,0-1.03.14-1.36.49-.32.34-.41.77-.4,1.3l.23,10.82c.01.61.45,1.14,1.09,1.14l13.45-.03c.54,0,1.13-.36,1.13-.86l.14-11.43c0-.79-.6-1.48-1.39-1.48ZM535.54,167.11l-.03-7.48,9.46-.03.03,7.48-9.46.03Z" style="fill: #1f3a6e;"/>
  <path d="M593.03,68.93c.51-.78.84-1.3,1.46-1.73.3-.25.36-.59.27-.98-.42-1.56-.94-3.02-1.7-4.55l-1.15,3.42c-.13.33-.2.66-.11,1.01l1.22,2.82Z" style="fill: #1f3a6e;"/>
  <path d="M616.51,222.15l-4.11,7.89c-.14.26.22.49.4.26l5.58-7.23,7.17-9.3c.08-.11.25,0,.2.12-1.5,3.81-2.82,7.48-3.96,10.83-2.4,7.07-3.98,12.68-4.61,15.01-.07.25.26.41.42.2,1.44-1.93,4.88-6.64,8.95-12.9,1.93-2.96,3.99-6.26,6.06-9.79.07-.12.25-.05.22.08l-2.87,11.36-2.25,8.9c-.07.28.33.42.45.16l3.67-8.14h0s42.27-93.64,42.27-93.64c.07-.16-.04-.35-.21-.36l-3.84-.3c-.48-.04-.74-.59-.45-.98,2.23-3.03,5.45-7.7,7.63-12.18,2.43-5,4.44-11.57,5.51-15.38.09-.33-.08-.6-.33-.72-.25-.12-.57-.09-.77.19-2.33,3.19-6.25,8.84-8.68,13.84-2.18,4.49-3.86,9.9-4.87,13.53-.13.47-.72.6-1.05.25l-2.61-2.83c-.12-.13-.34-.1-.42.06l-47.5,91.1h0Z" style="fill: #1f3a6e;"/>
  <path d="M534.49,64.52l2.11,1.69c.2-1.9,1.35-2.46.2-3.54-1.05-1.2-2.28-2.14-3.73-2.97l.74,3.61c.1.49.27.91.68,1.21Z" style="fill: #1f3a6e;"/>
  <path d="M600.75,70.69c.74-.58,1.39-1.04,2.27-1.38.23-.37.36-.76.45-1.14.25-1.1.65-2.03,1.18-3.11-1.55.64-2.78,1.59-4.02,2.64.16,1.01.17,1.9.12,3Z" style="fill: #1f3a6e;"/>
  <path d="M642.04,238.73c-.07.15-.03.33.1.43.15.11.37.08.48-.07,4.93-6.61,9.58-13.4,14.11-20.25,13.53-20.62,26.47-41.64,37.77-63.58.07-.15.04-.33-.1-.43-.15-.11-.37-.08-.48.07-4.93,6.61-9.57,13.4-14.11,20.25-13.53,20.62-26.49,41.63-37.77,63.58Z" style="fill: #1f3a6e;"/>
  <path d="M635.44,270.11l16.98-14.77c.11-.1.27.04.19.17-7.43,11.53-12.8,22.02-14.5,25.45-.13.25.19.49.4.31,2.85-2.56,11.54-10.56,20.66-20.8.1-.11.28,0,.21.14l-9.68,20.29c-.14.28.26.52.44.26l43.4-60.59s0,0,0,0l35.42-49.46c.1-.15.03-.35-.14-.4l-3.7-1.05c-.47-.13-.61-.72-.25-1.05,2.78-2.53,6.85-6.48,9.87-10.45,3.36-4.42,6.63-10.47,8.42-14,.16-.31.04-.61-.18-.77-.22-.17-.54-.2-.79.04-2.92,2.67-7.87,7.44-11.23,11.86-3.02,3.97-5.73,8.95-7.42,12.31-.22.43-.83.45-1.08.04l-2.01-3.29c-.09-.15-.31-.17-.42-.03l-84.95,105.44c-.2.25.13.56.37.36Z" style="fill: #1f3a6e;"/>
  <path d="M232,343.3c-.18-.06-.38.04-.43.22-.05.16.02.34.17.41,21.96,11.28,44.7,20.85,67.71,29.75,7.68,2.93,15.4,5.76,23.26,8.26.18.06.38-.04.43-.22.05-.16-.02-.34-.17-.41-21.95-11.29-44.71-20.85-67.71-29.75-7.68-2.93-15.4-5.76-23.26-8.27Z" style="fill: #1f3a6e;"/>
  <path d="M217.52,517.52c-8.22-.18-16.44-.24-24.68.04-.19,0-.34.17-.33.36,0,.17.13.31.3.33,24.47,3.24,49.11,4.6,73.77,5.25,8.22.18,16.44.24,24.68-.04.19,0,.34-.17.33-.36,0-.17-.13-.31-.3-.33-24.47-3.25-49.11-4.6-73.77-5.25Z" style="fill: #1f3a6e;"/>
  <path d="M547.36,770.66h145.92v-446.27h-301.79v446.27h140.42l.9-2.76,4.08-12.54,2.75-8.46,2.75,8.46,4.08,12.54.9,2.76ZM422.88,740.06v-385.08h239.04v385.08h-239.04ZM545.29,755.36h132.31v-415.67h-.05l-10.13,9.96v395.93h-125.31l-.9-2.76h123.45v-390.59h-244.55v390.59h117.95l-.9,2.76h-119.81v-.18l-10.13,9.96h126.76l-4.08,12.54h-135.66v-440.76h296.27v440.76h-141.16l-4.08-12.54Z" style="fill: #1f3a6e;"/>
  <path d="M564.76,781.69h118.44c-5.07,2.45-8.28,6.1-8.92,11.58-.85,7.28,1.67,13.73,7.32,18.67,6.93,6.06,16.46,8.5,26.09,6.16,15.57-3.78,25.33-19.92,20.01-35.27-3.18-9.19-13.4-13.77-23.38-14.69v-441.24c.62-.06,1.25-.13,1.87-.21.62-.09,1.25-.19,1.87-.3.62-.12,1.24-.25,1.85-.39,1.23-.29,2.44-.64,3.61-1.05.59-.21,1.17-.43,1.74-.67s1.13-.49,1.68-.76c1.65-.81,3.19-1.76,4.59-2.86.93-.73,1.79-1.53,2.57-2.4.78-.87,1.48-1.8,2.08-2.81s1.11-2.08,1.51-3.23c.25-.72.47-1.44.65-2.16.55-2.17.82-4.33.81-6.47,0-1.9-.21-3.77-.61-5.59-.2-.91-.45-1.81-.74-2.69-.59-1.76-1.35-3.46-2.28-5.06-.47-.8-.97-1.58-1.52-2.34-1.09-1.51-2.33-2.92-3.71-4.19-1.03-.96-2.15-1.84-3.32-2.65-.79-.53-1.6-1.03-2.45-1.49-2.11-1.14-4.41-2.04-6.84-2.63-1.2-.29-2.41-.51-3.6-.66-1.79-.22-3.57-.27-5.32-.17-1.17.07-2.32.2-3.45.4-.57.1-1.13.22-1.68.35-2.23.54-4.37,1.34-6.39,2.38-.5.26-1,.54-1.49.83-1.47.87-2.86,1.88-4.16,3.02-4.24,3.7-6.71,8.26-7.33,13.38-.2,1.71-.2,3.47,0,5.3.08.68.2,1.34.36,1.97.63,2.52,1.89,4.59,3.68,6.31.45.43.93.84,1.44,1.22,1.02.77,2.18,1.46,3.44,2.07h-137.58l2.25-5.67c3.71.05,7.37,1.02,10.93,2.34,7.13,2.65,15.97-.67,17.85-7.58,1.01-3.7.09-8.07-2.94-10.64-2.5-2.12-5.86-3.38-9.1-3.35l-17.11.18c-1.57.02-3.05-.15-3.93-1.88,2.85-1.22,4.23-4.21,2.69-6.65-.48-.77-1.1-1.29-1.84-1.71-2.04-1.14-4.6-1.14-6.64,0-.74.41-1.36.94-1.84,1.71-1.53,2.44-.16,5.42,2.69,6.65-.88,1.72-2.36,1.89-3.93,1.88l-17.11-.18c-3.24-.03-6.6,1.23-9.1,3.35-3.04,2.57-3.95,6.95-2.94,10.64,1.88,6.92,10.72,10.24,17.85,7.58,3.56-1.32,7.22-2.29,10.93-2.34l2.25,5.67h-135c5.07-2.45,8.28-6.1,8.92-11.58.85-7.28-1.67-13.73-7.32-18.67-6.93-6.06-16.46-8.5-26.09-6.16-15.57,3.78-25.33,19.92-20.01,35.27,3.18,9.19,13.4,13.77,23.38,14.68v441.24c-9.98.92-20.19,5.49-23.38,14.68-5.32,15.35,4.43,31.49,20.01,35.27,9.63,2.34,19.16-.1,26.09-6.16,5.65-4.94,8.17-11.39,7.32-18.67-.64-5.48-3.85-9.13-8.92-11.58h117.64l9.72,7.06-5.23,16.11-1.38,4.24,3.61-2.62,13.7-9.95,13.7,9.95,3.61,2.62-1.38-4.24-5.23-16.11,9.72-7.06h4.69ZM564.5,294.1c1.52-1.82,4.05-.68,5.1.19,1.48,1.22,2.05,2.45,2.07,4.86.02,2.58-3.08,6.83-6.17,5.16-2.7-1.47-2.95-7.87-1-10.2ZM561.18,290.26c-2.88,3.53-3.7,7.25-3.85,11.68l-8.93-.31c.19-4.04-.5-7.07-1.14-10.59l13.92-.78ZM690.31,811.05c-8.39-2.96-14.28-11.45-11.85-20.5,1.5-5.6,9.01-8.01,13.77-5.02,3.43,2.16,4.93,6.8,3.74,10.31-.97,2.86-3.44,4.61-5.97,4.67-2.82.07-5.49-1.96-6.01-5.01-.36-2.13,1.81-4.35,4.11-3.7,2.4.68,2.88,3.13,3.22,5.31,3.1-2.36,1.32-6.39-.9-7.74-3.1-1.89-6.78-.58-8.31,2.64-1.43,3.02-.21,6.66,2.2,8.67,2.62,2.18,6.36,2.5,9.8.29,2.12,3.18,5.14,4.49,9.45,5.55-2.41,5.04-8.14,6.33-13.25,4.52ZM699.78,799.51c-1.34-1.02-.22-2.5.41-3.07,1-.9,2.87-1.46,3.78-.18.83,1.18.66,3.01.69,4.18-1.64-.07-3.55.08-4.87-.93ZM711.55,810.7c4.66-7.26,4.4-16.08-2.77-21.47,3.13-1.31,5.67.66,6.91,3.51,2.63,6.03,1.14,13.76-4.14,17.96ZM712.75,784.09c6.23,2.31,10.28,8.36,8.7,15.08-.69,2.96-2.09,5.75-4.28,7.97,2.7-5.76,3.27-11.76-.11-16.99-2.37-3.68-7.41-5.42-10.69-2.05-1.27,1.31-1.77,3.34-3.89,4.9-.75.56-2-1.15-2.31-1.98-.47-1.24.23-2.92,1.04-4.09,2.65-3.81,7.3-4.41,11.53-2.84ZM712.09,302.46c1.74-2.44,2.57-5.23,2.58-8.1,0-1.44-.19-2.9-.58-4.35-.13-.48-.28-.96-.45-1.44-.37-1.03-.87-2.04-1.42-3.04-.22-.39-.42-.79-.67-1.18,2.89,2.3,4.64,5.65,5.21,9.2.08.51.14,1.02.17,1.53.03.41.04.82.03,1.23s-.03.82-.06,1.23c-.15,1.64-.55,3.25-1.2,4.76-1.24,2.85-3.78,4.83-6.91,3.51,1.34-1.01,2.45-2.14,3.32-3.36ZM706.38,306.95c.61.63,1.29,1.08,2,1.38.47.2.96.32,1.45.38s.99.06,1.49,0c.5-.06.99-.18,1.47-.35.72-.26,1.42-.63,2.06-1.1.86-.63,1.62-1.43,2.21-2.35.21-.33.41-.66.59-.99.18-.33.35-.67.5-1.01.3-.68.55-1.36.74-2.06s.32-1.4.41-2.1c.08-.71.12-1.42.1-2.14-.02-1.08-.15-2.16-.37-3.25-.3-1.45-.76-2.91-1.37-4.36-.15-.36-.31-.72-.48-1.08.55.55,1.05,1.14,1.5,1.76.68.93,1.24,1.92,1.7,2.97.46,1.04.82,2.13,1.08,3.24.1.42.17.84.23,1.25.06.41.09.82.1,1.23.04,1.22-.1,2.4-.4,3.53-.8,3-2.74,5.59-5.38,7.39-.33.23-.67.44-1.02.64-.53.3-1.09.56-1.66.8-.19.08-.38.17-.57.24-4.23,1.57-8.88.97-11.53-2.84-.15-.22-.3-.46-.44-.7-.14-.25-.26-.51-.37-.78-.14-.35-.26-.72-.32-1.08-.03-.18-.05-.36-.06-.53-.01-.35.03-.69.15-1,.12-.31.37-.75.67-1.14.51-.65,1.17-1.19,1.64-.84.53.39.96.81,1.32,1.24s.67.87.94,1.31c.55.87.99,1.7,1.62,2.35ZM704.66,294.61c0,.44,0,.97,0,1.53s-.07,1.13-.22,1.67c-.1.36-.25.69-.45.99-.9,1.28-2.78.72-3.78-.18-.63-.57-1.75-2.05-.41-3.07.33-.25.7-.43,1.09-.56.39-.13.8-.21,1.23-.26.85-.1,1.73-.08,2.55-.11ZM682.22,309.33c-.6-.36-1.15-.79-1.65-1.27-.49-.48-.93-1.03-1.29-1.62-.36-.6-.64-1.25-.83-1.95-.3-1.13-.48-2.25-.53-3.36-.17-3.31.74-6.46,2.4-9.18.28-.45.58-.89.89-1.32,2.23-3,5.42-5.35,9.09-6.65,1.91-.68,3.92-.92,5.8-.69.63.08,1.24.2,1.83.39s1.16.42,1.71.71c.54.29,1.06.63,1.54,1.03.96.8,1.77,1.83,2.37,3.09-1.08.27-2.08.55-3,.87-1.38.48-2.6,1.06-3.67,1.81-.36.25-.7.52-1.02.81-.65.59-1.23,1.26-1.76,2.06-.43-.28-.86-.51-1.3-.71-.44-.2-.87-.36-1.31-.48-2.63-.74-5.22-.15-7.18,1.48-.9.75-1.64,1.74-2.13,2.83-.33.73-.55,1.51-.63,2.3-.04.4-.05.8-.03,1.19s.09.8.18,1.19c.1.39.24.78.42,1.16,1.53,3.22,5.2,4.53,8.31,2.64.28-.17.55-.38.8-.62.38-.37.73-.81,1.01-1.29,1.04-1.79,1.22-4.2-.92-5.82-.34,2.18-.82,4.64-3.22,5.31-1.44.41-2.82-.31-3.57-1.42-.3-.45-.5-.95-.56-1.48-.03-.26-.02-.53.02-.8.13-.76.39-1.46.76-2.08.73-1.24,1.88-2.15,3.19-2.6.66-.23,1.35-.34,2.06-.32,2.53.06,5,1.81,5.97,4.67.89,2.63.28,5.9-1.54,8.28-.6.79-1.34,1.49-2.2,2.03-1.19.75-2.55,1.16-3.95,1.27-1.4.11-2.83-.09-4.16-.55-.66-.23-1.3-.53-1.9-.89ZM538.15,281.92c0-1.63,1.32-2.95,2.95-2.95s2.95,1.32,2.95,2.95-1.32,2.95-2.95,2.95-2.95-1.32-2.95-2.95ZM540.13,303.47c-.5-.13-.55-2.18.29-2.17.97,0,.93,1.94-.29,2.17ZM539.98,297.92c.18,1.46-1.53,1.46-1.35,0,.11-.91,1.23-.91,1.35,0ZM516.7,304.3c-3.08,1.68-6.19-2.58-6.17-5.16.02-2.4.59-3.64,2.07-4.86,1.05-.87,3.58-2.01,5.1-.19,1.95,2.34,1.7,8.73-1,10.2ZM533.81,301.64l-8.93.31c-.15-4.43-.97-8.15-3.85-11.68l13.92.78c-.64,3.53-1.33,6.55-1.14,10.59ZM537.99,290.78c-.14,4.35-1.32,8.04-.58,12.98.08.56,1.75,1.73-.18,2.46-1.57-5.07-2.15-10.47.76-15.45ZM394.48,283.99c8.39,2.96,14.28,11.45,11.85,20.5-1.5,5.6-9.01,8.01-13.77,5.02-3.43-2.16-4.93-6.8-3.74-10.31.97-2.86,3.44-4.61,5.97-4.67,2.82-.07,5.49,1.96,6.01,5.01.36,2.13-1.81,4.35-4.11,3.7-2.4-.68-2.88-3.13-3.22-5.31-3.1,2.36-1.32,6.39.9,7.74,3.1,1.89,6.78.58,8.31-2.64,1.43-3.02.21-6.66-2.2-8.67-2.62-2.18-6.36-2.5-9.8-.29-2.12-3.18-5.14-4.49-9.45-5.55,2.41-5.04,8.14-6.33,13.25-4.52ZM385,295.54c1.34,1.02.22,2.5-.41,3.07-1,.9-2.87,1.46-3.78.18-.83-1.18-.66-3.01-.69-4.18,1.64.07,3.55-.08,4.87.93ZM373.24,284.35c-4.66,7.26-4.4,16.08,2.77,21.47-3.13,1.31-5.67-.66-6.91-3.51-2.63-6.03-1.14-13.76,4.14-17.96ZM372.04,310.96c-6.23-2.31-10.28-8.36-8.7-15.08.69-2.96,2.09-5.75,4.28-7.97-2.7,5.76-3.27,11.76.11,16.99,2.37,3.68,7.41,5.42,10.69,2.05,1.27-1.31,1.77-3.34,3.89-4.9.75-.56,2,1.15,2.31,1.98.47,1.24-.23,2.92-1.04,4.09-2.65,3.81-7.3,4.41-11.53,2.84ZM373.24,810.7c-5.28-4.2-6.77-11.93-4.14-17.96,1.24-2.85,3.78-4.83,6.91-3.51-7.17,5.39-7.43,14.21-2.77,21.47ZM367.72,790.14c-3.37,5.23-2.8,11.23-.11,16.99-2.2-2.22-3.59-5-4.28-7.97-1.57-6.72,2.47-12.77,8.7-15.08,4.23-1.57,8.88-.97,11.53,2.84.81,1.17,1.51,2.85,1.04,4.09-.31.83-1.56,2.54-2.31,1.98-2.12-1.56-2.62-3.6-3.89-4.9-3.28-3.37-8.32-1.63-10.69,2.05ZM380.82,796.26c.9-1.28,2.78-.72,3.78.18.63.57,1.75,2.05.41,3.07-1.33,1.01-3.23.86-4.87.93.03-1.17-.14-3,.69-4.18ZM406.33,790.55c2.43,9.05-3.46,17.54-11.85,20.5-5.11,1.8-10.83.52-13.25-4.52,4.31-1.07,7.33-2.38,9.45-5.55,3.44,2.21,7.18,1.89,9.8-.29,2.41-2.01,3.63-5.65,2.2-8.67-1.53-3.22-5.2-4.53-8.31-2.64-2.22,1.35-4.01,5.38-.9,7.74.34-2.18.82-4.64,3.22-5.31,2.3-.65,4.47,1.56,4.11,3.7-.51,3.05-3.19,5.08-6.01,5.01-2.53-.06-5-1.81-5.97-4.67-1.19-3.51.3-8.15,3.74-10.31,4.77-2.99,12.27-.58,13.77,5.02ZM530.81,786.7l-7.08-5.14,4.99,1.62,6.46,2.1h0s-4.37,1.42-4.37,1.42h0ZM538.27,794.12l-7.08,5.14h0s4.15-5.71,4.15-5.71l2.93-4.03v4.6ZM538.27,781.03h0s-2.7-3.72-2.7-3.72l2.7-8.32v12.04ZM539.64,755.82l-1.38,4.24-5.23,16.11h-147.05v-457.3h312.82v457.3h-152.55l-1.79-5.52-.9-2.76-2.55-7.83-1.38-4.24ZM546.18,791.93l-2.93-4.03h0s4.37,1.42,4.37,1.42l2.7,8.32-4.15-5.71ZM551.37,780.02l-8.11,2.64.51-.7,2.2-3.03h8.75l-3.34,1.08Z" style="fill: #1f3a6e;"/>
  <path d="M561.64,885c-.03-.16-.18-.28-.35-.28-.19,0-.34.16-.34.36.24,8.24.81,16.45,1.51,24.64,2.2,24.57,5.11,49.07,9.89,73.29.03.16.18.28.35.28.19,0,.34-.16.34-.36-.24-8.24-.82-16.45-1.52-24.64-2.2-24.57-5.09-49.08-9.88-73.29Z" style="fill: #1f3a6e;"/>
  <path d="M677.22,972.92c-2.18-4.49-5.4-9.16-7.63-12.18-.29-.39-.03-.94.45-.98l3.84-.3c.18-.01.29-.2.21-.36l-25.02-55.45h0s-5.71-12.67-5.71-12.67h0s-24.95-55.31-24.95-55.31c-.13-.29-.56-.14-.49.17l5.51,21.82c.04.14-.16.22-.24.09-6.93-11.83-13.87-21.37-16.15-24.44-.17-.23-.53-.05-.45.22,1,3.7,4.21,15.06,9.23,27.83.05.14-.13.25-.22.13l-13.73-17.8c-.19-.25-.58,0-.43.28l34.45,66.09s0,0,0,0l28.12,53.95c.08.16.3.19.42.06l2.61-2.83c.33-.36.92-.22,1.05.25,1,3.62,2.68,9.04,4.86,13.53,2.43,5,6.35,10.64,8.68,13.84.2.28.52.31.77.19.25-.12.42-.39.33-.72-1.07-3.81-3.08-10.38-5.51-15.38Z" style="fill: #1f3a6e;"/>
  <path d="M607.24,983.2c-.2-.45.18-.92.66-.86l3.82.54c.18.03.33-.13.29-.31l-12.28-59.58s0,0,0,0l-2.8-13.61-12.25-59.43c-.06-.31-.52-.26-.51.06l.6,22.49c0,.15-.21.18-.25.04-4.17-13.06-8.85-23.88-10.42-27.38-.12-.26-.5-.17-.49.11.16,3.83.81,15.62,2.91,29.17.02.15-.18.21-.24.08l-9.5-20.37c-.13-.29-.56-.13-.48.18l19.15,72.03s0,0,0,0l15.63,58.79c.05.17.25.25.4.15l3.16-2.19c.4-.28.95-.01.97.47.18,3.76.64,9.41,1.79,14.26,1.28,5.41,3.87,11.77,5.44,15.4.14.32.44.42.71.36.27-.06.5-.29.48-.64-.21-3.95-.73-10.8-2.01-16.21-1.14-4.85-3.26-10.12-4.78-13.56Z" style="fill: #1f3a6e;"/>
  <path d="M682.68,918.13c-12.42-21.31-25.44-42.28-40.05-62.17-.1-.13-.28-.18-.43-.1-.17.09-.24.29-.15.46,3.71,7.36,7.72,14.55,11.83,21.67,12.42,21.31,25.45,42.27,40.06,62.17.1.13.28.18.43.1.17-.09.24-.29.15-.46-3.72-7.36-7.72-14.54-11.83-21.66Z" style="fill: #1f3a6e;"/>
  <path d="M603.31,875.1c-.07-.15-.24-.23-.4-.19-.18.05-.3.24-.25.42,2.1,7.98,4.52,15.84,7.05,23.66,7.7,23.43,16.09,46.64,26.22,69.15.07.15.24.23.4.19.18-.05.3-.24.25-.42-2.1-7.97-4.52-15.83-7.06-23.65-7.7-23.43-16.07-46.65-26.22-69.15Z" style="fill: #1f3a6e;"/>
  <path d="M525.41,377.05l-11.34,11.34v43.94l11.34,11.34h34.02l11.34-11.34v-43.94l-11.34-11.34h-34.02ZM565.2,388.39h-8.22c-1.52,0-2.76,1.23-2.76,2.76v30.46c0,3.05-2.47,5.52-5.52,5.52h-20.54c-1.52,0-2.76,1.23-2.76,2.76v8.22c0,.61-.74.92-1.18.49l-7.4-7.4v-41.66l9.72-9.72h31.73l7.4,7.4c.43.43.13,1.18-.49,1.18Z" style="fill: #1f3a6e;"/>
  <path d="M594.49,651.38l-11.34,11.34v43.94l11.34,11.34h34.02l11.34-11.34v-43.94l-11.34-11.34h-34.02ZM634.28,662.72h-8.22c-1.52,0-2.76,1.23-2.76,2.76v30.46c0,3.05-2.47,5.52-5.52,5.52h-20.54c-1.52,0-2.76,1.23-2.76,2.76v8.22c0,.61-.74.92-1.18.49l-7.4-7.4v-41.66l9.72-9.72h31.73l7.4,7.4c.43.43.13,1.18-.49,1.18Z" style="fill: #1f3a6e;"/>
  <path d="M525.41,468.49l-11.34,11.34v43.94l11.34,11.34h34.02l11.34-11.34v-43.94l-11.34-11.34h-34.02ZM565.2,479.83h-8.22c-1.52,0-2.76,1.23-2.76,2.76v30.46c0,3.05-2.47,5.52-5.52,5.52h-20.54c-1.52,0-2.76,1.23-2.76,2.76v8.22c0,.61-.74.92-1.18.49l-7.4-7.4v-41.66l9.72-9.72h31.73l7.4,7.4c.43.43.13,1.18-.49,1.18Z" style="fill: #1f3a6e;"/>
  <path d="M594.49,468.49l-11.34,11.34v43.94l11.34,11.34h34.02l11.34-11.34v-43.94l-11.34-11.34h-34.02ZM634.28,479.83h-8.22c-1.52,0-2.76,1.23-2.76,2.76v30.46c0,3.05-2.47,5.52-5.52,5.52h-20.54c-1.52,0-2.76,1.23-2.76,2.76v8.22c0,.61-.74.92-1.18.49l-7.4-7.4v-41.66l9.72-9.72h31.73l7.4,7.4c.43.43.13,1.18-.49,1.18Z" style="fill: #1f3a6e;"/>
  <path d="M594.49,377.05l-11.34,11.34v43.94l11.34,11.34h34.02l11.34-11.34v-43.94l-11.34-11.34h-34.02ZM634.28,388.39h-8.22c-1.52,0-2.76,1.23-2.76,2.76v30.46c0,3.05-2.47,5.52-5.52,5.52h-20.54c-1.52,0-2.76,1.23-2.76,2.76v8.22c0,.61-.74.92-1.18.49l-7.4-7.4v-41.66l9.72-9.72h31.73l7.4,7.4c.43.43.13,1.18-.49,1.18Z" style="fill: #1f3a6e;"/>
  <path d="M428.39,734.55h228.01v-374.05h-228.01v374.05ZM433.91,366.02h216.97v363.01h-216.97v-363.01Z" style="fill: #1f3a6e;"/>
  <path d="M594.49,559.93l-11.34,11.34v43.94l11.34,11.34h34.02l11.34-11.34v-43.94l-11.34-11.34h-34.02ZM634.28,571.27h-8.22c-1.52,0-2.76,1.23-2.76,2.76v30.46c0,3.05-2.47,5.52-5.52,5.52h-20.54c-1.52,0-2.76,1.23-2.76,2.76v8.22c0,.61-.74.92-1.18.49l-7.4-7.4v-41.66l9.72-9.72h31.73l7.4,7.4c.43.43.13,1.18-.49,1.18Z" style="fill: #1f3a6e;"/>
  <path d="M855.08,785.92c-4.47-2.21-9.88-3.93-13.49-4.96-.47-.13-.6-.73-.24-1.05l2.85-2.59c.13-.12.11-.34-.05-.42l-66.01-35.02-53.6-28.44c-.28-.15-.53.24-.28.43l17.72,13.87c.12.09,0,.27-.13.22-12.72-5.11-24.05-8.4-27.74-9.42-.27-.08-.45.28-.22.45,3.05,2.31,12.55,9.33,24.34,16.35.13.08.05.27-.09.24l-21.76-5.66c-.3-.08-.46.35-.17.48l67.71,31.14s0,0,0,0l55.27,25.42c.16.07.35-.03.36-.21l.33-3.83c.04-.48.59-.74.98-.45,3.01,2.25,7.66,5.5,12.13,7.72,4.98,2.46,11.54,4.52,15.34,5.62.33.1.6-.08.73-.32.12-.25.09-.57-.19-.77-3.18-2.36-8.79-6.32-13.77-8.78Z" style="fill: #1f3a6e;"/>
  <path d="M911.24,673.07c-3.65-1.53-10.05-4.03-15.47-5.24-4.87-1.08-10.53-1.46-14.29-1.59-.49-.02-.76-.56-.48-.96l2.15-3.2c.1-.15.02-.35-.15-.39l-59-14.83h0l-72.32-18.18c-.31-.08-.46.36-.17.49l20.52,9.23c.14.06.07.26-.08.24-13.58-1.92-25.36-2.4-29.19-2.52-.28,0-.37.38-.11.49,3.52,1.52,14.42,6.06,27.54,10.05.14.04.12.25-.03.25l-22.48-.29c-.32,0-.36.45-.05.51l73.19,14.05s0,0,0,0l59.74,11.47c.18.03.33-.12.3-.29l-.59-3.8c-.08-.48.4-.86.85-.67,3.46,1.47,8.75,3.51,13.62,4.59,5.43,1.2,12.28,1.63,16.24,1.79.34.01.57-.22.63-.49.06-.27-.05-.57-.36-.71Z" style="fill: #1f3a6e;"/>
  <path d="M807.57,626.13c24.23,4.62,48.59,8.54,73.19,10.59.16.01.32-.09.36-.26.05-.19-.07-.37-.25-.42-7.99-2.03-16.04-3.72-24.11-5.29-24.23-4.62-48.59-8.56-73.19-10.59-.16-.01-.32.09-.36.26-.05.19.06.37.25.42,7.99,2.03,16.04,3.73,24.11,5.3Z" style="fill: #1f3a6e;"/>
  <path d="M796.26,676.24c23.55,7.34,47.31,14,71.52,18.82.16.03.33-.06.39-.22.07-.18-.02-.38-.2-.45-7.71-2.92-15.52-5.52-23.35-7.99-23.55-7.34-47.31-14.01-71.52-18.83-.16-.03-.33.06-.39.22-.07.18.02.38.2.45,7.71,2.93,15.52,5.52,23.35,8Z" style="fill: #1f3a6e;"/>
  <path d="M924.76,546.92c-3.89-.7-10.68-1.77-16.24-1.77-4.99,0-10.6.85-14.29,1.54-.48.09-.86-.38-.68-.84l1.41-3.59c.06-.17-.05-.35-.23-.35l-74.7-2.12h0l-60.65-1.72c-.32,0-.37.45-.06.51l22.03,4.58c.15.03.13.24-.02.25-13.67,1.06-25.28,3.14-29.04,3.85-.28.05-.28.45,0,.5,3.76.72,15.39,2.8,29.06,3.86.15.01.17.22.02.25l-22.01,4.57c-.31.06-.26.52.06.51l74.5-2.11s0,0,0,0l60.81-1.72c.18,0,.3-.19.23-.35l-1.4-3.58c-.18-.45.2-.93.68-.84,3.7.68,9.31,1.54,14.29,1.54,5.56,0,12.35-1.06,16.24-1.76.34-.06.51-.34.51-.61,0-.27-.17-.55-.51-.61Z" style="fill: #1f3a6e;"/>
  <path d="M893.81,734.88c-3.44-1.94-9.51-5.18-14.76-7-4.71-1.64-10.29-2.67-14-3.24-.48-.07-.69-.65-.37-1.01l2.51-2.93c.12-.14.06-.35-.1-.41l-126.58-48.09c-.29-.11-.49.3-.22.46l19.3,11.56c.13.08.04.27-.1.23-13.26-3.49-24.91-5.34-28.69-5.9-.28-.04-.41.33-.17.47,3.32,1.92,13.61,7.7,26.18,13.19.14.06.09.26-.06.25l-22.29-2.91c-.31-.04-.41.41-.11.5l71.06,22.48s0,0,0,0l58,18.35c.17.05.34-.08.34-.26l-.15-3.84c-.02-.49.5-.81.92-.57,3.27,1.86,8.28,4.51,13,6.15,5.25,1.83,12.01,3.06,15.92,3.67.34.05.59-.15.68-.41.09-.26.02-.57-.28-.74Z" style="fill: #1f3a6e;"/>
  <path d="M921.46,610.18c-3.79-1.12-10.43-2.9-15.96-3.49-4.96-.53-10.63-.28-14.38,0-.48.04-.81-.47-.59-.91l1.78-3.42c.08-.16-.02-.35-.19-.37l-134.17-18.26c-.31-.04-.41.4-.11.5l21.42,6.9c.14.05.1.25-.05.25-13.71-.4-25.47.42-29.28.73-.28.02-.32.42-.05.5,3.66,1.12,15,4.42,28.48,6.94.15.03.14.24,0,.25l-22.37,2.2c-.31.03-.31.49,0,.51l74.3,5.85h0l60.65,4.77c.18.01.32-.15.27-.33l-1.01-3.71c-.13-.47.3-.9.77-.76,3.6,1.07,9.09,2.52,14.05,3.05,5.53.59,12.39.26,16.33-.02.34-.02.54-.28.57-.55.03-.27-.11-.56-.44-.66Z" style="fill: #1f3a6e;"/>
  <path d="M813.25,574.93c24.59,1.96,49.24,3.21,73.91,2.57.16,0,.31-.13.33-.3.03-.19-.11-.36-.29-.39-8.17-1.15-16.35-1.95-24.54-2.64-24.59-1.96-49.23-3.23-73.91-2.57-.16,0-.31.13-.33.3-.03.19.11.36.29.39,8.17,1.15,16.35,1.96,24.54,2.65Z" style="fill: #1f3a6e;"/>
  <path d="M730.69,811.79c-.11.14-.13.31-.04.41,4.23,4.26,8.67,8.26,13.19,12.15,13.62,11.62,27.7,22.68,42.91,32.24.1.06.26.02.37-.11,0,0,0-.02.01-.03,0,0,.02-.01.02-.02.1-.14.1-.3.02-.39-12.8-12.6-26.8-23.76-41.24-34.35-4.83-3.5-9.74-6.91-14.86-10.04-.11-.07-.28,0-.39.13Z" style="fill: #1f3a6e;"/>
  <path d="M783.43,892.05c-3.66-3.39-8.35-6.58-11.52-8.59-.41-.26-.37-.87.07-1.08l3.46-1.67c.16-.08.2-.29.07-.42l-47.28-46.42c-.18-.17-.45.06-.31.26l10.33,14.53c.07.1-.06.21-.15.13-8.52-6.76-16.4-11.81-18.97-13.43-.19-.12-.4.11-.27.29,1.8,2.44,7.43,9.91,14.8,17.9.08.09-.02.22-.12.16l-15.27-9.22c-.21-.13-.43.16-.24.33l49.86,43.69c.13.12.35.07.41-.1l1.41-3.59c.18-.45.78-.54,1.07-.15,2.25,3.02,5.78,7.46,9.43,10.85,4.07,3.78,9.77,7.62,13.11,9.75.29.19.6.1.79-.1.19-.2.25-.52.04-.79-2.37-3.16-6.63-8.56-10.71-12.34Z" style="fill: #1f3a6e;"/>
  <path d="M729.23,882.45c-16.13-18.66-32.79-36.87-50.81-53.74-.12-.11-.31-.12-.44-.02-.15.12-.18.33-.06.49,5.01,6.55,10.26,12.88,15.61,19.12,16.13,18.66,32.8,36.86,50.82,53.73.12.11.31.12.44.02.15-.12.18-.33.06-.49-5.01-6.55-10.27-12.87-15.62-19.12Z" style="fill: #1f3a6e;"/>
  <path d="M734.74,936.89c-3.02-3.97-7.09-7.92-9.87-10.45-.36-.33-.21-.92.25-1.05l3.71-1.05c.17-.05.24-.25.14-.4l-35.42-49.46h0s-8.09-11.3-8.09-11.3h0s-35.33-49.33-35.33-49.33c-.18-.26-.58-.02-.44.26l9.69,20.31c.06.13-.11.25-.21.14-9.12-10.24-17.79-18.23-20.64-20.79-.21-.19-.53.05-.4.3,1.7,3.43,7.08,13.94,14.51,25.47.08.13-.08.27-.19.17l-16.96-14.76c-.24-.21-.57.11-.37.36l38.04,47.22,8.72,10.82s0,0,0,0l38.17,47.37c.11.14.33.12.42-.03l2-3.28c.25-.42.86-.4,1.08.04,1.69,3.36,4.41,8.34,7.43,12.31,3.36,4.42,8.32,9.19,11.23,11.86.25.23.58.2.79.04.22-.17.33-.47.18-.77-1.79-3.52-5.06-9.57-8.42-14Z" style="fill: #1f3a6e;"/>
  <path d="M525.41,559.93l-11.34,11.34v43.94l11.34,11.34h34.02l11.34-11.34v-43.94l-11.34-11.34h-34.02ZM565.2,571.27h-8.22c-1.52,0-2.76,1.23-2.76,2.76v30.46c0,3.05-2.47,5.52-5.52,5.52h-20.54c-1.52,0-2.76,1.23-2.76,2.76v8.22c0,.61-.74.92-1.18.49l-7.4-7.4v-41.66l9.72-9.72h31.73l7.4,7.4c.43.43.13,1.18-.49,1.18Z" style="fill: #1f3a6e;"/>
  <path d="M848,751.75c.16.05.33-.02.41-.17.09-.17.02-.38-.15-.47-7.31-3.83-14.74-7.34-22.23-10.74-22.5-10.11-45.28-19.59-68.74-27.28-.16-.05-.33.02-.41.17-.09.17-.02.38.15.47,7.3,3.83,14.74,7.34,22.22,10.75,22.5,10.11,45.29,19.57,68.74,27.27Z" style="fill: #1f3a6e;"/>
  <path d="M823.37,841.1c-4.13-2.8-9.25-5.24-12.69-6.75-.45-.2-.5-.8-.09-1.08l3.17-2.18c.15-.1.15-.32,0-.42l-53.76-38.72c-.2-.15-.44.13-.27.31l12.41,12.8c.08.09-.02.21-.13.16-9.45-5.39-18-9.2-20.79-10.4-.21-.09-.38.17-.22.33,2.15,2.14,8.84,8.67,17.34,15.45.09.07.01.22-.1.18l-16.49-6.8c-.23-.1-.4.23-.19.36l55.9,35.63c.15.1.35.01.39-.16l.85-3.76c.11-.47.69-.65,1.03-.31,2.68,2.64,6.84,6.5,10.97,9.29,4.6,3.12,10.82,6.05,14.43,7.65.32.14.61,0,.76-.22.15-.23.17-.55-.08-.79-2.83-2.77-7.85-7.45-12.45-10.57Z" style="fill: #1f3a6e;"/>
  <path d="M821.08,805.98c.15.07.33.03.43-.11.11-.16.07-.37-.08-.48-6.75-4.74-13.67-9.19-20.64-13.53-20.99-12.94-42.36-25.3-64.63-35.96-.15-.07-.33-.03-.43.11-.11.16-.07.37.08.48,6.75,4.74,13.66,9.19,20.64,13.54,21,12.94,42.37,25.28,64.63,35.95Z" style="fill: #1f3a6e;"/>
  <path d="M235.38,686.4c-7.84,2.48-15.64,5.07-23.35,7.99-.18.07-.27.27-.2.45.06.16.23.25.39.22,24.21-4.82,47.97-11.48,71.52-18.82,7.84-2.48,15.64-5.07,23.35-8,.18-.07.27-.27.2-.45-.06-.16-.23-.25-.39-.22-24.21,4.81-47.97,11.49-71.52,18.83Z" style="fill: #1f3a6e;"/>
  <path d="M223.24,630.75c-8.07,1.57-16.12,3.27-24.11,5.29-.19.05-.3.24-.25.42.04.17.2.27.36.26,24.6-2.05,48.97-5.97,73.19-10.59,8.07-1.57,16.12-3.27,24.11-5.3.19-.05.3-.24.25-.42-.04-.17-.2-.27-.36-.26-24.6,2.03-48.97,5.97-73.19,10.59Z" style="fill: #1f3a6e;"/>
  <path d="M216.42,726.78l-.15,3.84c0,.18.17.31.34.26l58-18.35s0,0,0,0l71.06-22.48c.3-.1.2-.54-.11-.5l-22.29,2.91c-.15.02-.2-.19-.06-.25,12.57-5.5,22.86-11.28,26.18-13.19.24-.14.11-.52-.17-.47-3.79.56-15.43,2.41-28.69,5.9-.14.04-.23-.15-.1-.23l19.3-11.56c.27-.16.07-.57-.22-.46l-126.58,48.09c-.17.06-.22.27-.1.41l2.51,2.93c.32.37.11.94-.37,1.01-3.72.57-9.29,1.6-14,3.24-5.25,1.83-11.31,5.06-14.76,7-.3.17-.37.48-.28.74.09.26.34.46.68.41,3.91-.61,10.67-1.84,15.92-3.67,4.71-1.64,9.73-4.29,13-6.15.42-.24.94.08.92.57Z" style="fill: #1f3a6e;"/>
  <path d="M199.73,668.55l-.59,3.8c-.03.18.13.33.3.29l59.74-11.47s0,0,0,0l73.19-14.05c.31-.06.26-.52-.05-.51l-22.48.29c-.15,0-.18-.21-.03-.25,13.12-3.99,24.02-8.54,27.54-10.05.26-.11.17-.5-.11-.49-3.83.11-15.61.6-29.19,2.52-.15.02-.21-.18-.08-.24l20.52-9.23c.29-.13.14-.56-.17-.49l-72.32,18.18h0l-59,14.83c-.17.04-.25.25-.15.39l2.15,3.2c.27.4,0,.95-.48.96-3.76.13-9.42.51-14.29,1.59-5.43,1.2-11.83,3.71-15.47,5.24-.32.13-.42.44-.36.71.06.27.28.5.63.49,3.95-.16,10.81-.59,16.24-1.79,4.87-1.08,10.16-3.12,13.62-4.59.45-.19.92.19.85.67Z" style="fill: #1f3a6e;"/>
  <path d="M186.18,360.18c3.44,1.94,9.51,5.18,14.76,7,4.71,1.64,10.29,2.68,14,3.25.48.07.69.65.37,1.01l-2.5,2.92c-.12.14-.06.35.1.41l56.87,21.61s0,0,0,0l69.67,26.47c.29.11.49-.3.22-.46l-19.29-11.55c-.13-.08-.04-.27.1-.23,13.26,3.49,24.93,5.35,28.72,5.9.28.04.41-.33.16-.48-3.32-1.91-13.6-7.69-26.16-13.18-.14-.06-.09-.26.06-.25l22.31,2.91c.31.04.41-.41.11-.5l-129.1-40.85c-.17-.05-.34.08-.34.26l.15,3.85c.02.49-.5.81-.92.57-3.27-1.86-8.28-4.51-12.99-6.15-5.25-1.83-12.01-3.05-15.92-3.67-.34-.05-.59.15-.68.41-.09.26-.02.57.28.74Z" style="fill: #1f3a6e;"/>
  <path d="M292.84,856.44s.02.01.02.02c0,0,0,.02.01.03.11.13.27.17.37.11,15.21-9.56,29.29-20.63,42.91-32.24,4.52-3.9,8.96-7.89,13.19-12.15.09-.09.07-.27-.04-.41-.11-.14-.28-.2-.39-.13-5.12,3.14-10.03,6.54-14.86,10.04-14.44,10.59-28.44,21.75-41.24,34.35-.08.09-.08.25.02.39Z" style="fill: #1f3a6e;"/>
  <path d="M296.1,761.53l67.71-31.14c.29-.13.13-.56-.17-.48l-21.76,5.66c-.14.04-.22-.16-.09-.24,11.79-7.02,21.28-14.03,24.34-16.35.23-.17.05-.53-.22-.45-3.69,1.02-15.01,4.31-27.74,9.42-.14.06-.25-.12-.13-.22l17.72-13.87c.25-.19,0-.58-.28-.43l-53.6,28.44-66.01,35.02c-.16.08-.18.3-.05.42l2.85,2.59c.36.33.23.92-.24,1.05-3.62,1.03-9.02,2.75-13.49,4.96-4.98,2.46-10.6,6.43-13.77,8.78-.28.21-.31.53-.19.77.12.25.4.42.73.32,3.8-1.1,10.36-3.16,15.34-5.62,4.47-2.21,9.12-5.46,12.13-7.72.39-.29.94-.04.98.45l.33,3.83c.02.18.2.29.36.21l55.27-25.42s0,0,0,0Z" style="fill: #1f3a6e;"/>
  <path d="M253.96,740.37c-7.48,3.4-14.92,6.91-22.23,10.74-.17.09-.23.3-.15.47.08.15.25.22.41.17,23.45-7.7,46.25-17.16,68.74-27.27,7.48-3.4,14.92-6.92,22.22-10.75.17-.09.23-.3.15-.47-.08-.15-.25-.22-.41-.17-23.46,7.68-46.25,17.16-68.74,27.28Z" style="fill: #1f3a6e;"/>
  <path d="M344.27,756c-.1-.14-.28-.18-.43-.11-22.27,10.66-43.63,23.01-64.63,35.96-6.98,4.34-13.9,8.79-20.64,13.53-.16.11-.19.33-.08.48.1.14.28.18.43.11,22.26-10.67,43.63-23.01,64.63-35.95,6.98-4.34,13.9-8.79,20.64-13.54.16-.11.19-.33.08-.48Z" style="fill: #1f3a6e;"/>
  <path d="M168.76,421.99c3.65,1.53,10.05,4.03,15.47,5.23,4.87,1.08,10.53,1.46,14.29,1.59.49.02.76.56.48.96l-2.14,3.19c-.1.15-.02.35.15.39l59,14.83s0,0,0,0l72.28,18.17c.31.08.46-.36.17-.49l-20.5-9.23c-.14-.06-.07-.26.08-.24,13.58,1.92,25.38,2.4,29.21,2.52.28,0,.37-.38.11-.49-3.52-1.51-14.4-6.05-27.52-10.04-.14-.04-.12-.25.03-.25l22.5.29c.32,0,.36-.45.05-.51l-132.98-25.52c-.18-.03-.33.12-.3.29l.6,3.81c.08.48-.4.86-.85.67-3.46-1.47-8.75-3.51-13.62-4.59-5.43-1.2-12.29-1.63-16.24-1.79-.34-.01-.57.22-.63.49-.06.27.05.57.36.71Z" style="fill: #1f3a6e;"/>
  <path d="M236.3,405.4c-7.97-1.99-15.98-3.87-24.08-5.42-.19-.04-.37.09-.41.27-.03.17.06.33.22.39,23.15,8.56,46.88,15.33,70.79,21.41,7.97,1.99,15.98,3.87,24.08,5.41.19.04.37-.09.4-.28.03-.17-.06-.33-.22-.39-23.15-8.58-46.89-15.33-70.79-21.41Z" style="fill: #1f3a6e;"/>
  <path d="M223.78,460.98c-8.15-1.07-16.32-2.03-24.54-2.65-.19-.01-.36.13-.37.32-.01.17.1.32.26.36,23.97,5.88,48.32,9.92,72.76,13.24,8.15,1.07,16.32,2.03,24.54,2.64.19.01.36-.13.37-.32.01-.17-.1-.32-.26-.36-23.97-5.9-48.32-9.91-72.76-13.24Z" style="fill: #1f3a6e;"/>
  <path d="M217.34,574.16c-8.19.69-16.38,1.5-24.54,2.64-.19.03-.32.2-.29.39.02.17.17.29.33.3,24.68.64,49.32-.61,73.91-2.57,8.19-.69,16.38-1.5,24.54-2.65.19-.03.32-.2.29-.39-.02-.17-.17-.29-.33-.3-24.68-.65-49.32.61-73.91,2.57Z" style="fill: #1f3a6e;"/>
  <path d="M175.01,611.41c4.96-.53,10.45-1.98,14.05-3.05.47-.14.9.29.77.76l-1.01,3.71c-.05.17.09.34.27.33l60.65-4.77h0l74.3-5.85c.31-.02.32-.48,0-.51l-22.37-2.2c-.15-.01-.15-.23,0-.25,13.48-2.52,24.82-5.82,28.48-6.94.27-.08.23-.48-.05-.5-3.82-.31-15.58-1.14-29.28-.73-.15,0-.19-.2-.05-.25l21.42-6.9c.3-.1.2-.54-.11-.5l-134.17,18.26c-.18.02-.28.22-.19.37l1.78,3.42c.22.43-.1.94-.59.91-3.75-.29-9.42-.54-14.38,0-5.53.59-12.16,2.37-15.96,3.49-.33.1-.47.39-.44.66.03.27.23.53.57.55,3.94.28,10.81.61,16.33.02Z" style="fill: #1f3a6e;"/>
  <path d="M158.54,484.88c3.79,1.11,10.43,2.89,15.96,3.49,4.96.53,10.63.28,14.38,0,.48-.04.81.47.59.91l-1.78,3.41c-.08.16.02.35.19.37l60.28,8.2h0l73.85,10.05c.31.04.41-.4.11-.5l-21.4-6.9c-.14-.05-.1-.25.05-.25,13.71.4,25.49-.42,29.31-.74.28-.02.32-.42.05-.5-3.66-1.12-14.98-4.42-28.46-6.93-.15-.03-.14-.24,0-.25l22.39-2.2c.31-.03.31-.49,0-.51l-134.99-10.63c-.18-.01-.32.15-.27.33l1.01,3.72c.13.47-.3.9-.77.76-3.6-1.07-9.09-2.52-14.05-3.05-5.53-.59-12.39-.26-16.33.02-.34.02-.54.28-.57.55-.03.27.11.56.44.66Z" style="fill: #1f3a6e;"/>
  <path d="M185.77,548.37c.48-.09.86.38.68.84l-1.4,3.58c-.07.17.05.35.23.35l60.81,1.72s0,0,0,0l74.5,2.11c.32,0,.37-.45.06-.51l-22.01-4.57c-.15-.03-.13-.24.02-.25,13.67-1.06,25.3-3.14,29.06-3.86.28-.05.28-.45,0-.5-3.76-.72-15.37-2.79-29.04-3.85-.15-.01-.17-.22-.02-.25l22.03-4.58c.31-.06.26-.52-.06-.51l-60.65,1.72h0l-74.7,2.12c-.18,0-.3.19-.23.35l1.41,3.59c.18.45-.2.93-.68.84-3.7-.68-9.3-1.54-14.29-1.54-5.56,0-12.35,1.06-16.24,1.77-.34.06-.51.34-.51.61,0,.27.17.55.51.61,3.89.7,10.68,1.76,16.24,1.76,4.99,0,10.6-.85,14.29-1.54Z" style="fill: #1f3a6e;"/>
  <path d="M477.34,875.34c.05-.18-.06-.37-.25-.42-.17-.04-.33.04-.4.19-10.15,22.5-18.51,45.72-26.22,69.15-2.53,7.82-4.96,15.68-7.06,23.65-.05.18.06.37.25.42.16.04.33-.04.4-.19,10.13-22.51,18.52-45.72,26.22-69.15,2.53-7.82,4.95-15.68,7.05-23.66Z" style="fill: #1f3a6e;"/>
  <polygon points="397.29 329.9 397.02 329.9 397.02 765.14 397.29 765.14 407.23 755.36 407.19 755.36 407.19 339.69 407.23 339.69 677.55 339.69 687.5 329.9 397.29 329.9" style="fill: #1f3a6e;"/>
  <path d="M518.71,884.72c-.17,0-.32.11-.35.28-4.79,24.22-7.68,48.73-9.88,73.29-.7,8.19-1.28,16.39-1.52,24.64,0,.19.14.35.34.36.17,0,.32-.11.35-.28,4.78-24.22,7.69-48.73,9.89-73.29.7-8.19,1.28-16.39,1.51-24.64,0-.19-.14-.35-.34-.36Z" style="fill: #1f3a6e;"/>
  <path d="M456.28,651.38l-11.34,11.34v43.94l11.34,11.34h34.02l11.34-11.34v-43.94l-11.34-11.34h-34.02ZM496.07,662.72h-8.22c-1.52,0-2.76,1.23-2.76,2.76v30.46c0,3.05-2.47,5.52-5.52,5.52h-20.54c-1.52,0-2.76,1.23-2.76,2.76v8.22c0,.61-.74.92-1.18.49l-7.4-7.4v-41.66l9.72-9.72h31.73l7.4,7.4c.43.43.13,1.18-.49,1.18Z" style="fill: #1f3a6e;"/>
  <path d="M548.94,856.2l-4.58,22.03c-.03.15-.24.13-.25-.02-1.06-13.67-3.14-25.28-3.86-29.04-.05-.28-.45-.28-.5,0-.72,3.76-2.8,15.39-3.86,29.06-.01.15-.22.17-.25.02l-4.57-22.01c-.06-.31-.52-.26-.51.06l2.11,74.5h0s1.72,60.81,1.72,60.81c0,.18.19.3.35.23l3.58-1.4c.45-.18.93.2.84.68-.68,3.7-1.54,9.31-1.54,14.29,0,5.56,1.06,12.35,1.76,16.24.06.34.34.51.61.51.27,0,.55-.17.61-.51.7-3.89,1.77-10.68,1.77-16.24,0-4.99-.85-10.6-1.54-14.29-.09-.48.38-.86.84-.68l3.59,1.4c.17.07.35-.05.35-.23l1.72-60.81h0s2.11-74.54,2.11-74.54c0-.32-.45-.37-.51-.06Z" style="fill: #1f3a6e;"/>
  <path d="M456.28,559.93l-11.34,11.34v43.94l11.34,11.34h34.02l11.34-11.34v-43.94l-11.34-11.34h-34.02ZM496.07,571.27h-8.22c-1.52,0-2.76,1.23-2.76,2.76v30.46c0,3.05-2.47,5.52-5.52,5.52h-20.54c-1.52,0-2.76,1.23-2.76,2.76v8.22c0,.61-.74.92-1.18.49l-7.4-7.4v-41.66l9.72-9.72h31.73l7.4,7.4c.43.43.13,1.18-.49,1.18Z" style="fill: #1f3a6e;"/>
  <path d="M456.28,377.05l-11.34,11.34v43.94l11.34,11.34h34.02l11.34-11.34v-43.94l-11.34-11.34h-34.02ZM496.07,388.39h-8.22c-1.52,0-2.76,1.23-2.76,2.76v30.46c0,3.05-2.47,5.52-5.52,5.52h-20.54c-1.52,0-2.76,1.23-2.76,2.76v8.22c0,.61-.74.92-1.18.49l-7.4-7.4v-41.66l9.72-9.72h31.73l7.4,7.4c.43.43.13,1.18-.49,1.18Z" style="fill: #1f3a6e;"/>
  <path d="M456.28,468.49l-11.34,11.34v43.94l11.34,11.34h34.02l11.34-11.34v-43.94l-11.34-11.34h-34.02ZM496.07,479.83h-8.22c-1.52,0-2.76,1.23-2.76,2.76v30.46c0,3.05-2.47,5.52-5.52,5.52h-20.54c-1.52,0-2.76,1.23-2.76,2.76v8.22c0,.61-.74.92-1.18.49l-7.4-7.4v-41.66l9.72-9.72h31.73l7.4,7.4c.43.43.13,1.18-.49,1.18Z" style="fill: #1f3a6e;"/>
  <path d="M513.22,854.16l-9.5,20.37c-.06.14-.26.07-.24-.08,2.1-13.55,2.75-25.35,2.91-29.17.01-.28-.37-.37-.49-.11-1.56,3.5-6.25,14.32-10.42,27.38-.05.14-.25.11-.25-.04l.6-22.49c0-.32-.45-.37-.51-.06l-12.25,59.43-2.8,13.61s0,0,0,0l-12.28,59.58c-.04.18.11.33.29.31l3.82-.54c.48-.07.85.41.66.86-1.51,3.44-3.63,8.7-4.78,13.56-1.28,5.41-1.8,12.26-2.01,16.21-.02.34.21.57.48.64.27.06.57-.04.71-.36,1.58-3.63,4.17-9.99,5.44-15.4,1.14-4.86,1.6-10.51,1.79-14.26.02-.49.57-.75.97-.47l3.16,2.19c.15.1.35.03.4-.15l15.63-58.79s0,0,0,0l19.15-72.03c.08-.3-.35-.46-.48-.18Z" style="fill: #1f3a6e;"/>
  <path d="M386.48,848.29c5.35-6.24,10.61-12.56,15.61-19.12.12-.15.09-.37-.06-.49-.14-.1-.32-.09-.44.02-18.03,16.86-34.68,35.07-50.81,53.74-5.35,6.24-10.61,12.56-15.62,19.12-.12.15-.09.37.06.49.14.1.32.09.44-.02,18.02-16.87,34.69-35.07,50.82-53.73Z" style="fill: #1f3a6e;"/>
  <path d="M398.14,883.36l8.72-10.82,38.04-47.22c.2-.25-.13-.56-.37-.36l-16.96,14.76c-.11.1-.27-.04-.19-.17,7.43-11.53,12.81-22.04,14.51-25.47.13-.25-.19-.49-.4-.3-2.85,2.56-11.52,10.55-20.64,20.79-.1.11-.28,0-.21-.14l9.69-20.31c.14-.28-.26-.52-.44-.26l-35.33,49.33h0s-8.09,11.3-8.09,11.3h0s-35.42,49.46-35.42,49.46c-.1.15-.03.35.14.4l3.71,1.05c.47.13.61.72.25,1.05-2.78,2.53-6.85,6.48-9.87,10.45-3.36,4.42-6.63,10.47-8.42,14-.16.31-.04.61.18.77.22.17.54.2.79-.04,2.91-2.67,7.87-7.44,11.23-11.86,3.02-3.97,5.73-8.95,7.43-12.31.22-.43.83-.45,1.08-.04l2,3.28c.09.15.31.17.42.03l38.17-47.37s0,0,0,0Z" style="fill: #1f3a6e;"/>
  <path d="M361.74,844.51l-15.27,9.22c-.1.06-.2-.07-.12-.16,7.37-7.99,13-15.45,14.8-17.9.13-.18-.08-.41-.27-.29-2.57,1.61-10.45,6.67-18.97,13.43-.09.07-.22-.04-.15-.13l10.33-14.53c.14-.2-.13-.44-.31-.26l-47.28,46.42c-.13.13-.09.34.07.42l3.46,1.67c.44.21.48.82.07,1.08-3.18,2.01-7.87,5.2-11.52,8.59-4.07,3.78-8.33,9.17-10.71,12.34-.21.28-.14.59.04.79.19.2.5.29.79.1,3.33-2.13,9.03-5.97,13.11-9.75,3.66-3.39,7.19-7.83,9.43-10.85.29-.39.89-.3,1.07.15l1.41,3.59c.07.17.28.22.41.1l49.86-43.69c.19-.16-.03-.46-.24-.33Z" style="fill: #1f3a6e;"/>
  <path d="M444.11,910.04l34.45-66.09c.15-.28-.24-.53-.43-.28l-13.73,17.8c-.09.12-.27,0-.22-.13,5.02-12.76,8.23-24.13,9.23-27.83.07-.27-.28-.45-.45-.22-2.29,3.07-9.23,12.6-16.15,24.44-.08.13-.27.05-.24-.09l5.51-21.82c.08-.31-.36-.46-.49-.17l-24.95,55.31h0s-5.71,12.67-5.71,12.67h0s-25.02,55.45-25.02,55.45c-.07.16.04.35.21.36l3.84.3c.48.04.74.59.45.98-2.23,3.03-5.45,7.7-7.63,12.18-2.43,5-4.44,11.57-5.51,15.38-.09.33.08.6.33.72.25.12.57.09.77-.19,2.33-3.19,6.25-8.84,8.68-13.84,2.18-4.49,3.86-9.9,4.86-13.53.13-.47.72-.6,1.05-.25l2.61,2.83c.12.13.34.1.42-.06l28.12-53.95s0,0,0,0Z" style="fill: #1f3a6e;"/>
  <path d="M525.41,651.38l-11.34,11.34v43.94l11.34,11.34h34.02l11.34-11.34v-43.94l-11.34-11.34h-34.02ZM565.2,662.72h-8.22c-1.52,0-2.76,1.23-2.76,2.76v30.46c0,3.05-2.47,5.52-5.52,5.52h-20.54c-1.52,0-2.76,1.23-2.76,2.76v8.22c0,.61-.74.92-1.18.49l-7.4-7.4v-41.66l9.72-9.72h31.73l7.4,7.4c.43.43.13,1.18-.49,1.18Z" style="fill: #1f3a6e;"/>
  <path d="M328.25,803.97l-16.49,6.8c-.11.04-.19-.1-.1-.18,8.5-6.78,15.19-13.31,17.34-15.45.16-.16-.02-.42-.22-.33-2.79,1.2-11.34,5.01-20.79,10.4-.1.06-.21-.07-.13-.16l12.41-12.8c.17-.18-.06-.45-.27-.31l-53.76,38.72c-.15.1-.14.32,0,.42l3.17,2.18c.4.28.35.88-.09,1.08-3.44,1.51-8.56,3.95-12.69,6.75-4.6,3.12-9.62,7.81-12.45,10.57-.25.24-.23.56-.08.79.15.23.45.36.76.22,3.62-1.6,9.83-4.53,14.43-7.65,4.13-2.8,8.29-6.65,10.97-9.29.35-.34.93-.16,1.03.31l.85,3.76c.04.17.24.26.39.16l55.9-35.63c.21-.13.04-.46-.19-.36Z" style="fill: #1f3a6e;"/>
  <path d="M437.96,856.32c.09-.17.02-.38-.15-.46-.15-.08-.33-.03-.43.1-14.61,19.89-27.63,40.86-40.05,62.17-4.11,7.12-8.11,14.3-11.83,21.66-.09.17-.02.38.15.46.15.08.33.03.43-.1,14.6-19.9,27.64-40.86,40.06-62.17,4.11-7.12,8.11-14.3,11.83-21.67Z" style="fill: #1f3a6e;"/>
</svg>