<?xml version="1.0" encoding="UTF-8"?>
<svg id="Layer_1" xmlns="http://www.w3.org/2000/svg" version="1.1" viewBox="0 0 1080 1080">
  <!-- Generator: Adobe Illustrator 29.5.1, SVG Export Plug-In . SVG Version: 2.1.0 Build 141)  -->
  <defs>
    <style>
      .st0 {
        fill: #1f3a6e;
      }

      .st1 {
        fill: #fff;
      }
    </style>
  </defs>
  <g>
    <path class="st0" d="M693.42,605.42c0,10.7-67.27,19.38-150.24,19.38s-150.23-8.68-150.23-19.38,67.26-19.39,150.23-19.39,150.24,8.68,150.24,19.39Z"/>
    <path class="st0" d="M540,10.67c-207.25,0-375.26,236.99-375.26,529.33s168.01,529.33,375.26,529.33,375.27-236.99,375.27-529.33S747.26,10.67,540,10.67ZM786.06,356.14l3.02,6.01c4.29,9.25,5.44,19.28,3.28,29.31-2.02,9.41-6.3,17.89-12.62,25.18-3.29,3.81-6.83,7.27-11.07,10.06-9.95,6.55-22.02,8.59-33.7,6.9-2.34-.33-4.49-.8-6.8-.48-4.36.62-8.08,3.92-9.59,8.01-.39.56.06,1.05.42.58.94-1.08,1.92-1.89,2.99-2.64l.38-.27.38-.25.39-.25.39-.19c4.75-2.92,10.79-2.86,14.45,1.38l.33.38.25.36c1,1.44.97,3.81.03,4.51-2.36,1.74-6.56-.36-10.31,6.08-1.49,2.57-2.14,5.25-2.84,8.12l-3.08,12.61c-1.76,5.18-3.78,10.09-6.82,14.67-3.64,5.47-6.72,11.04-7.73,17.64-.09.54-.22,1.13.3,1.49,2.35,1.62,4.75,3.04,6.71,5.15,2.43,2.6,4.43,5.8,4.64,9.44.36,6.17-3.26,11.45-8.51,14.26-1.41.77-3.08,1.2-4.17,2.28-.73.99-.25,2.87-.36,3.96-.19,1.71.51,2.76,1.55,3.88,2.43,2.58,4.73,5.14,6.42,8.3,2.09,3.92,2.6,8.51.96,12.65-1.54,3.9-4.3,6.86-7.49,9.5-1.08.89-2.71,1.81-3.25,3.15-.61,2.78.78,5.82,2.92,7.56l5.13,4.18c7.44,6.07,7.61,16.82,1.21,23.5-2.63,2.74-6.07,4.22-9.59,5.5-.63.23-1.22.23-1.2,1.08l.58,26.29c.11,5.14-.05,9.99-1.42,14.89l-.38,1.35c-.3,1.08,5.05,1.72,5.69,7.87.38,3.69-.99,7.19-3.99,9.52l-.12,4.25c-.03.71.38,1.03.9,1.33,4.75,2.7,7.26,7.74,6.15,13.16-.23,1.07-.44,1.92.47,2.69,1.55,1.31,2.55,3.54,1.5,5.34-.45.76,1.05,1.03,2.47,2.88,4.48,5.8,5.81,13.76,6.51,21.11l.96,10.24c.44,4.64,1.52,8.95,2.96,13.39,1.41,4.31,3.6,8.01,6.43,11.59.52.65,1.48,2.27.43,2.85-6.8,3.79-17.51,5.37-25.56,5.92-.46.03-.7.11-.68.42,0,.13.16.36.3.54l.28.36.3.35,1.61,2.57.21.43c.79,1.63.92,3.28.67,5.06l-2.68,19.14-2.35,11.13-2.6,9.9c-.26.97-.81,1.77-1.52,2.22-.83.52-1.86.51-2.74.03-1.26-.68-2.47-5.64-3.1-8.43l-2.56-11.29c-1.86-8.2-3.09-16.31-3.61-24.78-.25-3.89,4.28-7.26,3.47-7.63-.25-.13-.76-.03-1.05-.05-7.37-.46-14.5-1.57-21.44-3.88-1.11-.38-2.15-.79-3.05-1.51-.72-.56-.4-1.62.1-2.31,4.41-6.01,8.33-15.91,8.96-23.14l1.17-13.3c.69-7.84,1.93-17.63,8.07-22.66.37-.31.71-.68.48-.99l-.67-.91c-.85-3.09,2.98-3.98,2.31-5.81-2.19-6.01.47-12.78,6.79-15.14.23-1.51.28-2.94-.1-4.38-4.56-3.16-5.89-9.37-2.86-14,1.58-2.43,4.69-3.05,4.42-3.91-1.36-4.33-2.1-8.57-1.97-13.2l.7-26.28c.01-.41.12-.89-.19-1.13-.13-.09-.52.12-.74.18l-7.06,1.93-.54.13-29.63,5.02-27.6,2.8-.88,19.21c-.04,1.07.25,1.47,1.09,2.09,2.1,1.55,3.3,3.95,3.16,6.4-.14,2.56-1.39,4.72-3.69,6.13-.45.27-.09,1.37.12,1.73,1.84,3.23-.08,7.25,1.27,7.96,3.31,1.74,5.28,5.02,5.27,8.81-.01,1.54-.09,3.01-.69,4.41-.77,1.81,3.07,2.25,1.69,6.29,6.78,7.09,6.45,17.08,7.1,26.2l.99,13.72c1.05,6.73,3.77,12.69,8.06,17.93.3.35.29,1.19-.04,1.45-3.45,2.57-14.2,4.1-19.62,4.57-.42.03-.7-.12-.74.36-.02.14,2.77,4.3,2.25,8.82l-1.3,11.14-4.16,19.56-1.57,6.13c-.18.67-.71,1.2-1.15,1.33-1.71.55-2.85-1.84-3.47-4.38-2.63-10.73-4.77-21.44-6.04-32.43-.41-3.57.14-6.74,2.1-9.73.27-.41.1-.85-.25-.84l-.77.02c-4.94-.45-18.16-2.22-19.18-4.55-.3-.69.11-1.47.48-2.09,3.12-5.35,5.58-10.87,6.34-17.07l.95-15.47c.41-6.63,1.15-13.1,3.86-19.16.86-1.91,1.71-3.74,3.29-5.07.47-.4.61-.74.28-1.34-1.11-2.01,1.87-3.33,1.64-4.2-1.6-6.09-.71-11.75,4.94-14.55.24-.12.3-.72.28-.94l-.12-1.65c-.17-2.15-.08-4.05,1.04-5.88.19-.3-.17-.84-.42-1.01-3.2-2.13-4.65-5.93-3.04-9.47.62-1.36,1.73-2.26,2.88-3.3l-.38-20.6c-23.85,1.81-47,2.47-70.46,2.59-.59,0-.86,0-1.03.31-.14.28-.01.71,0,1.11l.49,16.26c.18,5.74-2.97,10.38-1.97,10.84,3.23,1.47,5.38,4.25,5.77,7.49.43,3.55-1.18,6.88-4.05,8.9.6,3.26-.63,5.41.8,6.19,5.47,2.98,7.48,9.62,5.63,15.76-.58,1.9,3.81,2.93,2.43,6.3-.2.49-.71.88-.03,1.32,6.61,4.2,8.07,17.16,8.92,25.11l1.31,12.44c1.31,8.87,4.7,16.92,9.75,24.27.76,1.3-1.63,2.53-2.61,2.88-7.53,2.67-15.2,3.98-23.22,4.27-.33.01-.83-.06-.95.23-.06.19.15.54.31.75,2.49,2.8,3.4,5.97,2.74,9.68-.82,9.65-2.48,19.03-4.81,28.41l-2.5,10.06c-.62,2.52-1.22,4.98-3.3,4.95-.66-.01-1.4-.41-1.63-1.17l-2.98-9.94c-3.07-11.89-5.21-23.8-5.89-36.14-.13-2.52,1.74-4.5,3.07-6.28.28-.21.24-.48-.09-.53l-.67-.02-.64-.02-.6-.02-.54-.05-7.56-.77c-5.26-.84-10.39-1.76-15.21-3.97l-.37-.3c-.75-.61-.75-1.48-.22-2.3,4.58-7.11,7.87-14.72,8.91-23.18l1.55-12.63c.62-9.48,1.81-19.19,9.13-25.47.52-.45-.1-1.3-.26-1.66-1.43-3.49,3.11-4.08,2.73-5.58-1.78-6.95-.33-13.67,6.34-16.66l.2-5.95c-2.88-2.02-4.4-4.98-4.29-8.32.11-3.2,1.85-6.07,4.91-7.69.62-.33.94-.95.62-1.68-1.55-3.51-2.2-7.15-2.09-11.05l.43-16.15c-23.51-.07-46.5-.77-69.68-2.5-.5-.04-.66-.12-.91-.02-.17.07-.38.36-.39.7l-.05,3.92-.5,15.25c1.92,1.66,3.94,3.73,3.97,6.43.02,2.77-1.09,5.18-3.46,6.9-.79.58-.09,1.61.19,2.25.92,2.13.61,4.33.32,6.77,4.95,2.82,7.15,8.41,5.09,13.81l-.38,1c-.07.17,3.19,1.95,2.11,4.38-.47,1.06.25,1.23.72,1.86,3.17,4.19,4.72,9.18,5.36,14.42l.63,13.18c.46,9.46.84,17.47,5.54,25.99l2.39,4.34c.68,1.25-.99,2.3-3.08,2.74-5.61,1.19-11.18,2.02-17.06,2.29,1.42,2.63,2.84,5.29,2.77,8.3-.12,5.36-1.15,10.41-2.07,15.71-.96,5.51-3.85,21.16-5.9,23.15-.36.36-1.13.45-1.57.04-.81-.77-1.26-1.83-1.56-2.98-2.56-9.79-4.62-19.52-6.17-29.54-.76-4.84-.97-9.58,1.69-13.53l.57-.85c.19-.28-.07-.52-.5-.44l-14.15-2.19c-2.09-.32-4.06-1.03-5.86-2.13-.93-.56-.62-1.67-.06-2.49,4.86-7.16,7.17-15.22,7.66-23.91l.84-14.82c.79-6.32,2.78-13.6,7.03-18.36-.61-3.84,2.13-4.23,1.76-5.29-2.11-5.86-.06-12.15,5.66-14.94-.91-2.9-.14-5.93.28-8.39-2.08-1.81-3.73-3.95-3.78-6.71-.05-2.66,1.53-4.9,3.61-6.57l-.24-20.9c-22.37-2.22-44.59-4.19-66.11-10.43l.97,29.69c.13,4.22-.62,8.07-2.31,11.86l3.46,2.6c1.01.75,1.85,2.16,2.29,3.4,1.57,4.45-.3,9.28-4.33,11.74l.5,4.64c5.56,2.61,8.45,8.58,6.75,14.51-.33,1.16.05,1.76.91,2.51,2.9,2.58.37,5.42,1.07,5.98,2.37,1.89,4,4.29,5.13,7.11,1.77,4.5,2.71,9.09,3.1,13.94l1.02,12.74c.46,5.84,1.71,11.4,4.07,16.76l5.5,10.2c.52.96-.03,2.02-.96,2.45-5.57,2.56-17.52,4.42-24.17,4.6-1.74.05,3.47,3.03,2.48,9.36l-2.77,17.74c-.88,5.68-4.51,23.79-7.05,25.6-2.17,1.54-3.72-2.31-4.54-5.69l-3-12.4c-2.06-8.52-3.03-17.08-3.97-25.8-.36-3.3.43-6.06,3-8.29.2-.17.25-.59-.12-.7-.27.08-.46.07-.68.06h-.66c-5.27-.14-10.35-.9-15.37-2.37l-7.18-2.09-.44-.2-.44-.21-.42-.21-.41-.25-.34-.31c-.54-.5-.27-1.45.26-2.44l.22-.41,3.3-5.07c2.57-3.94,3.96-8.37,4.96-13l.11-.54.1-.55,2.02-18.22c.88-7.94,2.48-16.72,8.83-21.9l.38-.49c-.69-1.3-1.46-2.85-.44-4.05l2.37-2.81c-2.35-6.31.92-13.15,7.1-15.73.29-1.4.18-2.79.02-4.38-4.86-3.18-6.16-9.82-2.61-14.46.98-1.28,2.35-1.91,3.84-2.78-1.55-5.6-2.13-11.07-1.91-16.92l1.06-27.95c-7.21-2.34-13.26-5.59-15.34-13.02-1.53-5.44,0-10.85,3.93-14.83l6.39-5.26c2.01-1.66,4.4-5.77,2.53-8.09l-7.49-7.29c-3.84-5.05-4.65-11.19-1.75-16.94,2.99-5.91,7.94-9.23,7.96-11.21l.05-5.4c-1.05-.91-2.28-1.37-3.53-1.93-4.74-2.14-8.26-6-9.44-11.11-.82-3.56-.11-7.16,2.11-10.08,2.62-3.42,5.92-6.14,9.72-8.34.05-2.27-.81-4.22-1.55-6.25-1.21-3.32-2.58-6.33-4.57-9.29-5.71-8.53-9.27-17.89-11.11-28-.99-5.46-3.35-13.56-8.61-14.78l-4.97-1.16c-.8-.18-1.43-.53-1.72-1.05-1.36-2.43,2.26-8.07,9.02-8.23,4.79-.12,8.67,2.38,12.58,5.5-1.73-6.39-7.72-9.8-13.94-8.92-12.65,1.8-23.16,1.33-34.44-5.35-14.35-8.49-23.97-23.15-26.33-39.68-1.61-11.31.54-19.96,5.77-29.91,3.49-6.61.35-12.37-5.9-16.22l-8.92-5.5c-3.5-1.75-7.41-1.96-11.34-2.17-.41.22-.77-.17-.52-.52,6.65-5.42,12.72-6.15,21.29-3.74-2.95-6.5-4.32-13.01-4.21-19.86,5.23,1.79,9.88,3.6,14.71,6.32-.27-5.08-.18-9.67,1.09-14.47,2.24,3.5,4.14,6.62,6.59,9.8-.07.6.67.88.56.14.64-5.47,3.02-10.66,7.3-14.14-.45,3.85-.92,7.31.05,10.82,1.1,3.99,2.35,7.79,3.23,11.82.42,1.93,1.24,3.57,2.06,5.31,1.8,3.84,5.52,6.17,9.81,5.55l8.63-1.23c2.63-.37,5.19-.42,7.82-.21-1.22,3.17-2.09,6.23-2.64,9.32-3.66,20.51,2.06,42.08,16.1,60.73l.48.6,3.57,3.99,4.38,4.36c3.05,2.76,6.34,5.15,9.81,7.18l-2.11,2.8c-2.14,2.95-3.01,6.39-2.5,10.13.57,4.28,1.87,8.56,4.09,12.3.52.88,8.53,13.87,8.53,13.87,2.27,3.34,3.05,7.36,2.08,11.54-.27,1.16-.93,3.41-2.4,3.28-1.75-1.34-3.82-3.9-5.37-2.55-.41.35-.65,1.21-.62,1.96.23,5.78,3.52,10.83,8.17,14.09,3.59,2.52,7.52,3.53,11.9,3.29,4.99-.28,9.21-2.55,11.89-6.86,6.28-10.09,1.42-20.86-.49-19.86-.34.17-.42,5.89-4.57,7.46-4.42,1.68-9.13-.36-11.78-4.1-5.15-7.25-4.21-15.9,2.18-21.47,3.18-2.79,7.03-3.24,11.34-1.93-4.29-7.24-4.81-16.6,2.29-20.42,4.99-2.68,11.99-3.52,17.02-.73.11-1.25-.81-1.71-1.31-2.34-2.55-3.22-6.22-4.18-10.22-3.62-11.66,1.64-23.22-.55-33.43-6.35-3.01-1.71-5.59-3.7-8.15-5.96-16.88-14.88-26.24-39.22-21.5-61.37,1.92-8.94,6.34-16.56,12.57-23,1.49-1.55,2.77-3.06,3.9-4.8,3.23-4.99-.37-10.48-4.63-14.46-5.33-4.98-11.79-8.24-18.95-10.36,10.83-4.48,22.85-1.39,30.77,6.75-2.58-9.69-2.78-19.37-.2-28.96,7.72,5.95,16.01,12.89,19.87,21.3.58-1.34.5-2.42.63-3.61.99-9.76,6.89-19.58,16.39-23.31-4.59,8.31-6.69,17.27-6.02,26.46.19,2.63,1.28,5.13,3.27,6.73,4.44,3.56,11.7,1.5,18.97,3.23,5.36,1.26,10.41,3.14,15.17,5.99,9.26,5.54,16.14,13.86,20.51,23.74,3.45,7.81,5.57,15.95,6.51,24.49,1.33,11.99-1.15,23.9-7.32,34.14-2.19,3.63-4.6,6.59-7.43,9.65l-7.93,7.1c-4.06,3.65-6.04,8.39-5.3,13.84.73,5.36,2.35,10.41,4.28,15.53,5.26-1.97,10.51-1.04,14.92,2.15,4.97,3.59,7.83,9.63,7.09,15.86-.5,4.12-3.04,7.62-6.14,10.12-.76.62-1.71.21-2.15-.43l-1.94-2.86c-.63-.94-1.48-1.32-2.52-1.27-.96.04-1.7.53-2.31,1.51-2.67,4.29.54,9.65,4.32,13.1,10.24,9.34,25.71,10.84,38.68,6.78,3.27-1.03,5.99-2.8,8.65-4.84,4.25-3.26,7.11-7.71,8.24-12.95.71-3.3.79-6.49-.62-9.59-.93.03-1.52.56-2.04,1.14-4.18,4.65-10.38,6.29-16.26,4.3-5.8-1.97-9.86-6.38-11.55-12.23-2.27-7.86-.12-16.07,6.1-21.48,5.11-4.44,11.7-6.75,18.51-5.93,6.12.75,11.87,3.21,16.49,7.11,2.41,2.01,3.76,4.29,5.54,7.23.35-3.99-.47-7.73-1.74-11.25-1.49-4.12-4.27-7.08-8.21-8.86l-11.46-5.19c-5.1-2.31-9.71-5.14-13.8-8.96-1.94-1.82-3.77-3.38-5.45-5.54-8.8-11.18-12.41-24.98-13.25-39.19-.45-7.76.41-15.32,2.84-22.65,5.1-15.34,15.58-24.1,29.89-30.77,2.67-1.24,5.23-2.97,6.55-5.65,2.64-5.39-1.81-14.03-5.5-19.09l-8.09-11.09s-.04-.08-.07-.1c-.38-.24.01-.66.29-.34.03.02.1.07.17.07,9.84,2.89,19.93,9.14,24.3,19.23l1.82-8.82c1.42-4.42,3.23-8.54,5.29-12.71l3.79-7.68c2.92,5.27,5.29,10.47,7.48,15.97,1.72,4.3,2.63,8.43,3.35,13.35,2.33-5.33,5.53-9.39,10.11-12.59,4.62-3.23,9.65-5.44,15.38-5.47l-3.43,3.34c-5.8,5.65-11.21,13.25-11.8,21.49-.38,5.39,3.58,8.25,8.21,10.38,7.44,3.42,14.31,7.72,19.65,14,7.4,8.73,11.3,19.39,12.31,30.77.93,10.52-.27,20.85-3.62,30.82-3.45,10.25-9.44,19.06-18.11,25.55-4.83,3.61-10.2,5.89-15.69,8.36l-7.98,3.59c-6.16,2.77-7.92,11.81-7.96,18.87,2.03-2.73,3.61-5.22,6.08-7.28,5.7-4.76,12.58-7.48,20.02-7.21,8.64.34,17.03,6.41,20.07,14.64,2.81,7.62.98,16.33-5.06,21.75-6.64,5.95-16.75,5.84-22.55-1.22-.36-.45-1.15-.98-1.59-.4-.75.94-1.01,2.29-.97,3.58.24,5.95,2.52,11.47,6.92,15.6,8.22,7.71,19.45,10.82,30.62,9.39,6.33-.81,12.03-3.12,16.65-7.41,2.59-2.42,4.58-5.09,5.7-8.49,1.08-3.31.7-7.43-2.07-9.8-1.59-1.37-4.07-.12-5.1,1.35l-2.66,3.76c-5.83-4.36-6.93-11.55-3.73-17.8,4.12-8.04,13.49-11.63,22.2-7.94l2.87-11.25c1.58-6.25-.94-12.41-5.87-16.58-4.83-4.09-9.41-8.25-13.11-13.5-10.59-15-12.19-33.72-7.13-51.22,3.29-11.38,9.25-21.76,18.27-29.51,8.46-7.26,17.66-10.54,28.74-11.39,5.56-.42,11.11-2.77,12.23-8.32,2.12-10.45,1.65-19.61-5.23-27.84.06-.07.03-.14-.04-.17-.3-.19,0-.58.27-.3.02.04.1.07.2.07,2.84.89,5.78,2.12,8.03,4.39,3.03,3.06,5.31,6.78,6.79,10.81,1.23,3.36,1.37,6.68,1.7,10.37,3.1-6,7.69-10.71,12.62-15.3l6.51-6.05c.12-.2.33-.26.38-.07l.15.6.88,7.25c.56,4.53.75,9.01,0,13.5l-.61,3.63c-.03.19-.16.75.04.83.1.04.27-.25.34-.32l.37-.39c2.54-3.23,5.64-5.86,9.21-7.8l.43-.23.44-.27c4.88-2.18,10.45-3.58,15.51-2.15-7.84,4.3-13.7,9.73-17.87,16.85-2.74,4.67-4.53,10.69-1.5,15.17l6.9,7.82c2.41,2.73,4.77,5.36,6.48,8.62,2.29,4.38,4.15,8.91,5.03,13.87,3.41,19.13-2.81,38.02-14.33,53.33l-3.17,3.58-4.02,4.02c-8.08,7.29-18.04,11.6-28.91,12.49l-13.24.21c-6.55.11-10.63,3.93-8.22,3.37l1.85-.42.58-.05c4.3-.38,8.26.15,12.09,2.06l.42.21.34.28c2.6,1.47,3.88,3.83,4.39,6.79l.1.59c.1,3.25-.71,6.28-2.01,9.22l-.2.45-.19.47-.22.47c-.09.19-.45.6-.41.79.13.52.66.07,1.2-.1,3.62-1.14,7.48-.54,10.54,1.87,5.19,4.08,7.01,11.02,5.07,17.32-1.23,4.05-3.81,7.26-7.55,9.09-4.29,2.09-9.42-.11-10.54-4.8l-.18-1.23c-.05-.35-.69-.45-.95-.02l-.43.72-.24.4-.26.4c-3.57,5.79,1.34,22.59,13.2,23.86,1.64.17,3.1.03,4.74-.15,8.78-.98,15.13-8.84,14.06-17.58-.3-2.45-3.5.69-4.66,1.27-2.21,1.09-4.3-4.25-3.32-9.39.36-1.88,1.06-3.62,2.02-5.16h-.02l.13-.21s.06-.08.08-.12l8.52-13c1.89-3.3,2.82-6.84,3.54-10.55.76-3.91-.1-7.51-2.45-10.73l-3.02-4.16c3.74-2.11,7.27-4.63,10.53-7.58l4.38-4.36,3.57-3.99.48-.6c14.04-18.65,19.76-40.22,16.1-60.73-.52-2.92-1.32-5.82-2.44-8.81,2.81-.22,5.61-.07,8.48.21l5.29.54c3.4.01,6.36-1.8,8.41-4.51,2.34-3.11,3.51-6.84,4.37-10.68,1.29-5.72,1.33-11.5-.41-17.05-.45-1.45,2.32.57,4.58,2.73,2.77,2.66,3.98,6.2,5.14,9.87l.15.48.67,4.77.02.55v.62s0,.66,0,.66c-.01.22-.1.5.31.85,5.26-4.14,10.85-7.75,16.98-10.64l.99-.46c.42-.21.46.17.47.58.19,4.35-.18,8.35-1.01,12.54l-.85,4.29c-.06.34-.15.71.09.89.27.2,4.57-3.91,14.42-2.08l.56.11c1.79.67,4.06.68,5.12,2.26-5.82,1.09-10.74,3.55-14.95,7.2-3.9,3.39-7.32,7.17-9.13,12.09-1.21,3.33-.09,6.95,1.44,10.01Z"/>
  </g>
  <path class="st1" d="M559.02,262.33c1.23-1.02,2.95-2.09,3.82-3.51l2.1-11.3c-3.86,2.02-6.59,4.86-9.36,7.89-.85.93-1.67,1.84-1.98,3.09,1.25,2.04,1.75,4.12,2.37,6.35l3.04-2.53Z"/>
  <path class="st1" d="M708.57,278.96c2.01-1.59,3.78-2.82,6.18-3.77.62-1.02.98-2.06,1.22-3.11.67-2.98,1.78-5.52,3.21-8.48-4.21,1.73-7.56,4.33-10.94,7.2.44,2.74.46,5.17.32,8.16h0Z"/>
  <path class="st1" d="M684.38,272.56c1.39-2.13,2.3-3.55,3.98-4.7.8-.67.98-1.61.75-2.66-1.13-4.24-2.56-8.21-4.63-12.39l-3.13,9.32c-.34.89-.55,1.81-.29,2.74l3.33,7.69Z"/>
  <path class="st1" d="M523.41,260.56l5.75,4.6c.56-5.16,3.68-6.7.56-9.62-2.87-3.26-6.21-5.82-10.16-8.07l2.02,9.82c.27,1.32.73,2.48,1.84,3.28h0Z"/>
  <path class="st1" d="M397.67,272.79c.8-3.02,2.21-4.95,3.39-7.36.39-.95-.33-2.54-.64-3.48l-2.56-7.84c-2,3.16-5.71,12.69-4.71,13.78l4.52,4.91Z"/>
  <path class="st1" d="M365.58,278.51c1.18,2.39,5.16,2.47,8.65,4.52-.66-2.86-.67-5.33-.86-8.05-3.89-2.36-7.86-4.01-12.38-5.35l1.74,3.1,2.85,5.78Z"/>
</svg>