<?xml version="1.0" encoding="UTF-8"?>
<svg id="Layer_1" data-name="Layer 1" xmlns="http://www.w3.org/2000/svg" width="1080" height="1080" viewBox="0 0 1080 1080">
  <g>
    <path d="M242.69,929.79c1.97-1.77,3.44-3.24,4.42-4.42.98-1.18,1.87-2.46,2.65-3.84,1.38-3.04,2.06-6.34,2.06-9.88v-69.9c0-2.26-.1-4.06-.29-5.38-.2-1.33-.59-2.73-1.18-4.2-.59-1.47-1.28-2.78-2.06-3.91-.79-1.13-2.06-2.73-3.83-4.79h43.06c-1.67,1.97-2.93,3.56-3.76,4.79-.84,1.23-1.55,2.48-2.14,3.76-1.08,2.95-1.62,6.19-1.62,9.73v22.71h41.74v-22.71c0-3.54-.54-6.79-1.62-9.73-.59-1.28-1.3-2.53-2.14-3.76-.84-1.23-2.09-2.83-3.76-4.79h43.06c-3.05,3.54-4.97,6.39-5.75,8.55-.69,1.38-1.13,2.71-1.33,3.98-.2,1.28-.29,3.2-.29,5.75v69.9c0,3.54.69,6.84,2.06,9.88.98,1.77,2.06,3.29,3.24,4.57.89.98,2.16,2.21,3.83,3.69h-46.31c1.93-1.77,3.38-3.22,4.34-4.35.97-1.13,1.8-2.43,2.52-3.91,1.42-2.95,2.13-6.19,2.13-9.73v-29.79h-41.74v29.79c0,1.67.2,3.34.6,5.01.4,1.67,1.03,3.44,1.88,5.31.85,1.87,3.02,4.43,6.52,7.67h-46.31Z" style="fill: #1f3a6e;"/>
    <path d="M365.54,929.79c2.36-1.87,3.74-3,4.13-3.39,1.38-1.18,2.85-2.8,4.42-4.87,2.16-2.95,3.98-6.19,5.46-9.73l28.91-69.9c1.47-3.44,2.21-6.64,2.21-9.59,0-1.38-.22-2.7-.66-3.98-.44-1.28-1.21-2.9-2.29-4.87h33.48l34.07,88.34c1.38,3.64,3.05,6.88,5.01,9.73,1.18,1.57,2.26,2.85,3.24,3.84.98.98,2.7,2.46,5.16,4.42h-49.4c2.06-2.06,3.51-3.93,4.35-5.61.83-1.67,1.25-3.59,1.25-5.75s-.39-4.28-1.18-6.64l-3.98-11.21h-34.51l-4.13,11.21c-.59,1.67-1.01,3.05-1.25,4.13-.25,1.08-.37,2.26-.37,3.54,0,1.87.32,3.47.96,4.79.64,1.33,2.04,3.17,4.2,5.53h-39.08ZM423.05,851.48l-11.8,32h23.01l-11.21-32Z" style="fill: #1f3a6e;"/>
    <path d="M494.43,929.79c2.3-2.06,3.82-3.54,4.57-4.42.75-.89,1.62-2.16,2.62-3.84,1.4-3.04,2.1-6.29,2.1-9.73v-70.05c0-3.74-.54-6.98-1.62-9.73-.59-1.38-1.23-2.68-1.92-3.91-.69-1.23-1.82-2.78-3.39-4.64h55.6c6.78,0,13.22,1.13,19.32,3.39,6.1,2.26,11.26,5.51,15.49,9.73,9.34,8.75,14.01,21.68,14.01,38.79s-4.57,29.6-13.72,39.52c-9.14,9.93-21.29,14.9-36.43,14.9h-56.63ZM532.18,840.12v72.26c2.46.49,4.47.79,6.05.88,1.57.1,2.8.15,3.69.15,9.54,0,16.96-3.29,22.27-9.88,5.31-6.59,7.96-15.93,7.96-28.02s-2.61-20.79-7.82-26.99c-5.21-6.19-12.78-9.29-22.71-9.29-2.65,0-5.8.29-9.44.88Z" style="fill: #1f3a6e;"/>
    <path d="M594.42,929.79c2.36-1.87,3.74-3,4.13-3.39,1.38-1.18,2.85-2.8,4.42-4.87,2.16-2.95,3.98-6.19,5.46-9.73l28.91-69.9c1.47-3.44,2.21-6.64,2.21-9.59,0-1.38-.22-2.7-.66-3.98-.44-1.28-1.21-2.9-2.29-4.87h33.48l34.07,88.34c1.38,3.64,3.05,6.88,5.01,9.73,1.18,1.57,2.26,2.85,3.24,3.84.98.98,2.7,2.46,5.16,4.42h-49.41c2.07-2.06,3.51-3.93,4.35-5.61.83-1.67,1.25-3.59,1.25-5.75s-.39-4.28-1.18-6.64l-3.98-11.21h-34.51l-4.13,11.21c-.59,1.67-1.01,3.05-1.25,4.13-.25,1.08-.37,2.26-.37,3.54,0,1.87.32,3.47.96,4.79.64,1.33,2.04,3.17,4.2,5.53h-39.08ZM651.93,851.48l-11.8,32h23.01l-11.21-32Z" style="fill: #1f3a6e;"/>
    <path d="M723.75,929.79c3.64-3.15,6.09-5.95,7.37-8.41,1.28-2.46,1.92-5.65,1.92-9.59v-69.9c0-3.83-.49-7.08-1.47-9.73-.49-1.28-1.13-2.51-1.92-3.69-.79-1.18-2.02-2.85-3.69-5.01h48.23c27.13,0,40.7,8.7,40.7,26.1,0,12.49-7.47,20.89-22.42,25.22l8.26,12.98,5.16,7.08,12.54,16.52c2.95,3.44,5.78,6.47,8.48,9.07,2.7,2.61,6.42,5.73,11.13,9.37h-29.5c-2.65,0-5.09-.64-7.3-1.92s-4.65-3.55-7.3-6.79c-4.92-6.01-9.98-12.95-15.19-20.83-3.34-5.41-5.97-9.92-7.89-13.51-1.92-3.6-4.25-8.45-7.01-14.55,3.64-.29,6.61-.76,8.92-1.4,2.31-.64,4.35-1.55,6.12-2.73,6.09-4.04,9.14-8.91,9.14-14.62,0-9.45-6.58-14.18-19.72-14.18h-2.52c-.89,0-2.27.15-4.15.44v72.09c0,3.94.58,7.09,1.74,9.46,1.16,2.37,3.48,5.22,6.96,8.57h-46.6Z" style="fill: #1f3a6e;"/>
  </g>
  <g>
    <path d="M244.02,983.77c-1.05,0-1.88-.29-2.5-.86s-.93-1.27-.93-2.09c0-.7.2-1.24.6-1.6.4-.36.85-.54,1.34-.54s.94.18,1.29.53c.34.35.51.78.51,1.27,0,.4-.09.73-.26.99-.17.26-.26.52-.26.79,0,.19.07.33.2.43.13.09.29.14.49.14.34,0,.66-.16.96-.49.29-.32.53-.9.71-1.73.18-.83.27-2,.27-3.5v-17.97h3.83v17.97c0,.9-.17,1.74-.51,2.54s-.81,1.51-1.4,2.13c-.59.62-1.26,1.1-2.01,1.46-.75.35-1.53.53-2.33.53ZM242.74,959.85v-.71h10.11v.71h-10.11Z" style="fill: #1f3a6e;"/>
    <path d="M278.39,965c-.02-.93-.21-1.79-.57-2.56s-.87-1.4-1.53-1.87c-.66-.48-1.46-.71-2.41-.71h-11.66v-.71h17.17v5.86h-1ZM262.22,980.68v-.71h12.51c.95,0,1.76-.28,2.41-.83.66-.55,1.17-1.29,1.53-2.2.36-.91.55-1.9.57-2.97h1v6.71h-18.03ZM265.59,980.25v-20.83h3.83v20.83h-3.83ZM273.85,974.51c-.02-1.07-.16-1.91-.43-2.51s-.72-1.04-1.36-1.3c-.64-.26-1.55-.39-2.73-.39v-.71c1.18,0,2.1-.11,2.76-.34.66-.23,1.11-.63,1.37-1.2.26-.57.39-1.37.39-2.4h1v8.86h-1Z" style="fill: #1f3a6e;"/>
    <path d="M297.02,981.02l-7.23-21.17h-2.17v-.71h19.97v.71h-1.63l-2.37,6.57,2.94,8.77h.11l5.34-15.34h-2.94v-.71h5.94v.71h-2.06l-7.34,21.17h-.86l-3.37-9.86-3.49,9.86h-.86ZM298.88,975.2h.11l1.91-5.4-3.4-9.94h-3.89l5.26,15.34ZM303.13,965.11l1.83-5.26h-3.63l1.8,5.26Z" style="fill: #1f3a6e;"/>
    <path d="M322.08,959.85v-.71h10.11v.71h-10.11ZM322.08,980.68v-.71h10.11v.71h-10.11ZM325.22,980.25v-21.11h3.83v21.11h-3.83Z" style="fill: #1f3a6e;"/>
    <path d="M348.05,981.02c-1.03,0-1.91-.14-2.64-.43-.73-.29-1.45-.7-2.16-1.26l-1.03,1.34h-.71v-6h.74c.23.91.58,1.79,1.06,2.61.48.83,1.12,1.51,1.93,2.04.81.53,1.82.8,3.04.8,1.09,0,1.99-.2,2.7-.61.71-.41,1.25-.93,1.6-1.57.35-.64.53-1.3.53-1.99,0-.61-.13-1.14-.39-1.6-.26-.46-.63-.85-1.13-1.19-.5-.33-1.08-.62-1.74-.87-.67-.25-1.42-.47-2.26-.66-1.37-.32-2.49-.78-3.36-1.37-.87-.59-1.51-1.31-1.93-2.16s-.63-1.83-.63-2.96c0-1.39.3-2.56.91-3.5.61-.94,1.41-1.66,2.4-2.14.99-.49,2.05-.73,3.17-.73.91,0,1.71.13,2.39.39.68.26,1.37.66,2.07,1.21l.74-1.26h.71v5.83l-.71.03c-.46-1.81-1.13-3.15-2.03-4.03-.9-.88-1.99-1.31-3.29-1.31-.78,0-1.51.16-2.19.49-.68.32-1.21.76-1.61,1.3s-.6,1.17-.6,1.87c0,.59.12,1.08.37,1.47.25.39.6.72,1.06.99s1,.5,1.61.69c.62.19,1.3.39,2.04.6,1.37.36,2.51.83,3.43,1.41.91.58,1.6,1.32,2.07,2.23s.7,2.02.7,3.36c0,2.15-.6,3.85-1.79,5.1-1.19,1.25-2.89,1.87-5.1,1.87Z" style="fill: #1f3a6e;"/>
    <path d="M364.16,980.68v-.71h3.14v-20.11h-3.14v-.71h10.11v.71h-3.14v9.4h8.23v-9.4h-3.14v-.71h10.11v.71h-3.14v20.11h3.14v.71h-10.11v-.71h3.14v-10h-8.23v10h3.14v.71h-10.11Z" style="fill: #1f3a6e;"/>
    <path d="M418.65,981.02c-1.39,0-2.69-.3-3.9-.9-1.21-.6-2.26-1.42-3.16-2.46-.9-1.04-1.6-2.22-2.1-3.56-.5-1.33-.76-2.73-.76-4.2s.26-2.87.77-4.2c.51-1.33,1.22-2.52,2.13-3.56.9-1.04,1.97-1.86,3.19-2.46,1.22-.6,2.52-.9,3.91-.9.9,0,1.74.14,2.53.43.79.29,1.55.73,2.27,1.34l1.11-1.43h.71v6.46h-.71c-.21-1.07-.54-2.05-1-2.96-.46-.9-1.08-1.63-1.87-2.17-.79-.54-1.81-.81-3.07-.81-.82,0-1.56.15-2.21.44-.66.29-1.22.82-1.7,1.57-.48.75-.84,1.79-1.1,3.13-.26,1.33-.39,3.04-.39,5.11s.12,3.78.37,5.11c.25,1.33.6,2.38,1.07,3.13.47.75,1.03,1.28,1.69,1.57.66.3,1.4.44,2.21.44,1.31,0,2.39-.25,3.23-.74.84-.5,1.5-1.16,1.97-2s.83-1.77,1.06-2.8h.71v6.06h-.71l-.97-1.31c-.76.57-1.6.99-2.51,1.26-.91.27-1.84.4-2.77.4Z" style="fill: #1f3a6e;"/>
    <path d="M434.85,959.85v-.71h10.66v.71h-10.66ZM434.85,980.68v-.71h12.09c.95,0,1.76-.28,2.41-.83.66-.55,1.17-1.29,1.53-2.2.36-.91.55-1.9.57-2.97h1v6.71h-17.6ZM438.22,980.25v-21.11h3.83v21.11h-3.83Z" style="fill: #1f3a6e;"/>
    <path d="M461.39,980.68v-.71h6.86v.71h-6.86ZM463.84,980.25l7.46-21.46h.86l-1.74,4.92-5.63,16.54h-.94ZM466.96,973.94v-.71h9.26v.71h-9.26ZM475.5,980.25l-5.26-15.71h-.11l-.2-.83,1.37-4.92h.86l7.17,21.46h-3.83ZM472.07,980.68v-.71h9.8v.71h-9.8Z" style="fill: #1f3a6e;"/>
    <path d="M496.96,981.02c-1.03,0-1.91-.14-2.64-.43-.73-.29-1.45-.7-2.16-1.26l-1.03,1.34h-.71v-6h.74c.23.91.58,1.79,1.06,2.61.48.83,1.12,1.51,1.93,2.04.81.53,1.82.8,3.04.8,1.09,0,1.99-.2,2.7-.61.71-.41,1.25-.93,1.6-1.57.35-.64.53-1.3.53-1.99,0-.61-.13-1.14-.39-1.6-.26-.46-.63-.85-1.13-1.19-.5-.33-1.08-.62-1.74-.87-.67-.25-1.42-.47-2.26-.66-1.37-.32-2.49-.78-3.36-1.37-.87-.59-1.51-1.31-1.93-2.16s-.63-1.83-.63-2.96c0-1.39.3-2.56.91-3.5.61-.94,1.41-1.66,2.4-2.14.99-.49,2.05-.73,3.17-.73.91,0,1.71.13,2.39.39.68.26,1.37.66,2.07,1.21l.74-1.26h.71v5.83l-.71.03c-.46-1.81-1.13-3.15-2.03-4.03-.9-.88-1.99-1.31-3.29-1.31-.78,0-1.51.16-2.19.49-.68.32-1.21.76-1.61,1.3s-.6,1.17-.6,1.87c0,.59.12,1.08.37,1.47.25.39.6.72,1.06.99s1,.5,1.61.69c.62.19,1.3.39,2.04.6,1.37.36,2.51.83,3.43,1.41.91.58,1.6,1.32,2.07,2.23s.7,2.02.7,3.36c0,2.15-.6,3.85-1.79,5.1-1.19,1.25-2.89,1.87-5.1,1.87Z" style="fill: #1f3a6e;"/>
    <path d="M521.01,981.02c-1.03,0-1.91-.14-2.64-.43-.73-.29-1.45-.7-2.16-1.26l-1.03,1.34h-.71v-6h.74c.23.91.58,1.79,1.06,2.61.48.83,1.12,1.51,1.93,2.04.81.53,1.82.8,3.04.8,1.09,0,1.99-.2,2.7-.61.71-.41,1.25-.93,1.6-1.57.35-.64.53-1.3.53-1.99,0-.61-.13-1.14-.39-1.6-.26-.46-.63-.85-1.13-1.19-.5-.33-1.08-.62-1.74-.87-.67-.25-1.42-.47-2.26-.66-1.37-.32-2.49-.78-3.36-1.37-.87-.59-1.51-1.31-1.93-2.16s-.63-1.83-.63-2.96c0-1.39.3-2.56.91-3.5.61-.94,1.41-1.66,2.4-2.14.99-.49,2.05-.73,3.17-.73.91,0,1.71.13,2.39.39.68.26,1.37.66,2.07,1.21l.74-1.26h.71v5.83l-.71.03c-.46-1.81-1.13-3.15-2.03-4.03-.9-.88-1.99-1.31-3.29-1.31-.78,0-1.51.16-2.19.49-.68.32-1.21.76-1.61,1.3s-.6,1.17-.6,1.87c0,.59.12,1.08.37,1.47.25.39.6.72,1.06.99s1,.5,1.61.69c.62.19,1.3.39,2.04.6,1.37.36,2.51.83,3.43,1.41.91.58,1.6,1.32,2.07,2.23s.7,2.02.7,3.36c0,2.15-.6,3.85-1.79,5.1-1.19,1.25-2.89,1.87-5.1,1.87Z" style="fill: #1f3a6e;"/>
    <path d="M537.13,959.85v-.71h10.11v.71h-10.11ZM537.13,980.68v-.71h10.11v.71h-10.11ZM540.27,980.25v-21.11h3.83v21.11h-3.83Z" style="fill: #1f3a6e;"/>
    <path d="M566.24,981.02c-1.39,0-2.69-.3-3.9-.9-1.21-.6-2.26-1.42-3.16-2.46-.9-1.04-1.6-2.22-2.1-3.56s-.76-2.73-.76-4.2.26-2.87.77-4.2,1.22-2.52,2.13-3.56c.9-1.04,1.97-1.86,3.19-2.46,1.22-.6,2.52-.9,3.91-.9.89,0,1.74.14,2.53.43.79.29,1.55.73,2.27,1.34l1.11-1.43h.71v6.46h-.71c-.21-1.07-.54-2.05-1-2.96-.46-.9-1.08-1.63-1.87-2.17-.79-.54-1.81-.81-3.07-.81-.82,0-1.56.15-2.21.44-.66.29-1.22.82-1.7,1.57-.48.75-.84,1.79-1.1,3.13-.26,1.33-.39,3.04-.39,5.11s.12,3.78.37,5.11c.25,1.33.6,2.38,1.07,3.13.47.75,1.03,1.28,1.69,1.57.66.3,1.39.44,2.21.44,1.31,0,2.39-.25,3.23-.74s1.5-1.16,1.97-2c.48-.84.83-1.77,1.06-2.8h.71v6.06h-.71l-.97-1.31c-.76.57-1.6.99-2.51,1.26-.91.27-1.84.4-2.77.4Z" style="fill: #1f3a6e;"/>
    <path d="M582.41,980.68v-.71h6.86v.71h-6.86ZM584.87,980.25l7.46-21.46h.86l-1.74,4.92-5.63,16.54h-.94ZM587.98,973.94v-.71h9.26v.71h-9.26ZM596.53,980.25l-5.26-15.71h-.11l-.2-.83,1.37-4.92h.86l7.17,21.46h-3.83ZM593.1,980.68v-.71h9.8v.71h-9.8Z" style="fill: #1f3a6e;"/>
    <path d="M610.27,959.85v-.71h10.66v.71h-10.66ZM610.27,980.68v-.71h12.09c.95,0,1.76-.28,2.41-.83.66-.55,1.17-1.29,1.53-2.2.36-.91.55-1.9.57-2.97h1v6.71h-17.6ZM613.64,980.25v-21.11h3.83v21.11h-3.83Z" style="fill: #1f3a6e;"/>
    <path d="M649.1,980.68v-.71h6.86v.71h-6.86ZM651.55,980.25l7.46-21.46h.86l-1.74,4.92-5.63,16.54h-.94ZM654.67,973.94v-.71h9.26v.71h-9.26ZM663.21,980.25l-5.26-15.71h-.11l-.2-.83,1.37-4.92h.86l7.17,21.46h-3.83ZM659.78,980.68v-.71h9.8v.71h-9.8Z" style="fill: #1f3a6e;"/>
    <path d="M686.32,981.02c-1.39,0-2.69-.3-3.9-.9-1.21-.6-2.26-1.42-3.16-2.46-.9-1.04-1.6-2.22-2.1-3.56s-.76-2.73-.76-4.2.26-2.87.77-4.2,1.22-2.52,2.13-3.56c.9-1.04,1.97-1.86,3.19-2.46,1.22-.6,2.52-.9,3.91-.9.89,0,1.74.14,2.53.43.79.29,1.55.73,2.27,1.34l1.11-1.43h.71v6.46h-.71c-.21-1.07-.54-2.05-1-2.96-.46-.9-1.08-1.63-1.87-2.17-.79-.54-1.81-.81-3.07-.81-.82,0-1.56.15-2.21.44-.66.29-1.22.82-1.7,1.57-.48.75-.84,1.79-1.1,3.13-.26,1.33-.39,3.04-.39,5.11s.12,3.78.37,5.11c.25,1.33.6,2.38,1.07,3.13.47.75,1.03,1.28,1.69,1.57.66.3,1.39.44,2.21.44,1.31,0,2.39-.25,3.23-.74s1.5-1.16,1.97-2c.48-.84.83-1.77,1.06-2.8h.71v6.06h-.71l-.97-1.31c-.76.57-1.6.99-2.51,1.26-.91.27-1.84.4-2.77.4Z" style="fill: #1f3a6e;"/>
    <path d="M702.5,980.68v-.71h6.86v.71h-6.86ZM704.95,980.25l7.46-21.46h.86l-1.74,4.92-5.63,16.54h-.94ZM708.07,973.94v-.71h9.26v.71h-9.26ZM716.61,980.25l-5.26-15.71h-.11l-.2-.83,1.37-4.92h.86l7.17,21.46h-3.83ZM713.18,980.68v-.71h9.8v.71h-9.8Z" style="fill: #1f3a6e;"/>
    <path d="M730.29,980.68v-.71h9.57c1.18,0,2.18-.14,3-.43.82-.29,1.49-.79,2-1.53.51-.73.89-1.76,1.13-3.07.24-1.31.36-2.99.36-5.03s-.12-3.71-.36-5.03-.62-2.34-1.14-3.07c-.52-.73-1.2-1.24-2.01-1.53-.82-.29-1.82-.43-3-.43h-9.54v-.71h10.46c1.43,0,2.76.29,3.99.87s2.31,1.38,3.24,2.39c.93,1.01,1.66,2.16,2.17,3.46s.77,2.65.77,4.06-.26,2.76-.79,4.06c-.52,1.29-1.25,2.45-2.17,3.46s-2,1.8-3.24,2.39-2.57.87-4,.87h-10.43ZM733.44,980.25v-21.11h3.83v21.11h-3.83Z" style="fill: #1f3a6e;"/>
    <path d="M776.01,965c-.02-.93-.21-1.79-.57-2.56-.36-.77-.87-1.4-1.53-1.87-.66-.48-1.46-.71-2.41-.71h-11.66v-.71h17.17v5.86h-1ZM759.84,980.68v-.71h12.51c.95,0,1.76-.28,2.41-.83.66-.55,1.17-1.29,1.53-2.2.36-.91.55-1.9.57-2.97h1v6.71h-18.03ZM763.21,980.25v-20.83h3.83v20.83h-3.83ZM771.46,974.51c-.02-1.07-.16-1.91-.43-2.51s-.72-1.04-1.36-1.3c-.64-.26-1.55-.39-2.73-.39v-.71c1.18,0,2.1-.11,2.76-.34s1.11-.63,1.37-1.2c.26-.57.39-1.37.39-2.4h1v8.86h-1Z" style="fill: #1f3a6e;"/>
    <path d="M797.61,980.94l-6.11-19.26h-.11v18.29h3.14v.71h-7.4v-.71h3.14v-20.11h-3.14v-.71h7.74l4.54,15.09h.11l4.66-15.09h7.51v.71h-3.14v20.11h3.14v.71h-10.11v-.71h3.14v-18.29h-.11l-5.97,19.26h-1.03Z" style="fill: #1f3a6e;"/>
    <path d="M823.78,980.68v-.71h3.43v-9.09l-6.4-11.03h-2.54v-.71h9.91v.71h-3.09l5.4,9.34h.11l5.11-9.34h-3.89v-.71h7.57v.71h-2.74l-5.63,10.49v9.63h3.43v.71h-10.68Z" style="fill: #1f3a6e;"/>
  </g>
  <g>
    <path d="M335.86,243.25c-.13-.06-.28,0-.33.12-.05.11-.02.24.08.31,14.75,10.19,30.23,19.22,45.96,27.8,5.25,2.84,10.55,5.6,15.97,8.14.13.06.28,0,.33-.12.05-.11.02-.24-.08-.31-14.74-10.2-30.23-19.22-45.96-27.8-5.25-2.84-10.55-5.6-15.97-8.14Z" style="fill: #1f3a6e;"/>
    <path d="M334.2,217.74c3,2.03,6.72,3.81,9.22,4.9.32.14.36.58.07.78l-2.3,1.58c-.11.07-.11.23,0,.31l39.05,28.12c.15.11.32-.09.19-.22l-9.01-9.29c-.06-.06.02-.16.09-.11,6.86,3.91,13.07,6.68,15.1,7.55.15.06.28-.13.16-.24-1.56-1.56-6.42-6.3-12.59-11.22-.07-.05,0-.16.07-.13l11.98,4.94c.17.07.29-.17.14-.26l-40.6-25.88c-.11-.07-.26,0-.28.12l-.62,2.73c-.08.34-.5.47-.75.23-1.94-1.92-4.97-4.72-7.96-6.75-3.34-2.27-7.86-4.39-10.48-5.56-.23-.1-.44,0-.55.16-.11.16-.12.4.06.57,2.05,2.01,5.7,5.41,9.04,7.68Z" style="fill: #1f3a6e;"/>
    <path d="M311.16,257.82c3.25,1.61,7.17,2.86,9.8,3.6.34.1.44.53.17.76l-2.07,1.88c-.1.09-.08.24.04.3l86.84,46.07c.2.11.38-.17.2-.31l-12.86-10.07c-.09-.07,0-.2.1-.16,9.24,3.71,17.48,6.1,20.16,6.85.2.05.32-.2.16-.33-2.22-1.68-9.1-6.77-17.66-11.86-.09-.06-.04-.2.07-.17l15.82,4.12c.22.06.33-.26.13-.35l-89.34-41.09c-.12-.05-.25.02-.27.15l-.24,2.79c-.03.35-.43.54-.71.33-2.19-1.64-5.56-4-8.81-5.6-3.62-1.79-8.38-3.29-11.14-4.08-.24-.07-.44.05-.53.23-.09.18-.07.41.13.56,2.31,1.71,6.39,4.59,10,6.38Z" style="fill: #1f3a6e;"/>
    <path d="M401.51,239.01c.08-.1.1-.23.03-.3-3.07-3.1-6.3-6-9.58-8.83-9.89-8.44-20.12-16.47-31.16-23.42-.07-.05-.19-.02-.27.08,0,0,0,.01,0,.02,0,0-.01,0-.02.01-.07.1-.07.22-.01.28,9.29,9.15,19.47,17.26,29.95,24.95,3.51,2.54,7.07,5.02,10.79,7.29.08.05.2,0,.28-.1Z" style="fill: #1f3a6e;"/>
    <path d="M455.21,192.24c3.3,4.98,6.67,9.91,10.25,14.71.08.11.24.13.35.05.1-.07.13-.21.07-.31-8.2-15.94-17.6-31.2-27.43-46.18-3.3-4.98-6.67-9.91-10.25-14.71-.08-.11-.24-.13-.35-.05-.1.07-.13.21-.07.31,8.2,15.94,17.6,31.2,27.43,46.18Z" style="fill: #1f3a6e;"/>
    <path d="M468.48,98.11c1.05.05,2.09.11,3.03.58l2.38,1.47c1.67,1.03,2.5,2.56,1.58,4.33-1.4,2.66-1.97,4.96-1.54,7.98.63,4.41,3.2,8.32,7.02,10.59,3.01,1.78,5.81,1.91,9.19,1.43,1.66-.24,3.26.67,3.72,2.38-1.04-.84-2.08-1.5-3.35-1.47-1.8.05-2.77,1.55-2.41,2.2.08.14.25.23.46.28l1.33.31c1.4.33,2.03,2.49,2.3,3.94.49,2.7,1.44,5.19,2.97,7.47.53.79.89,1.59,1.22,2.48.2.54.43,1.06.41,1.67-1.01.59-1.89,1.31-2.59,2.23-.59.78-.78,1.74-.56,2.69.31,1.36,1.25,2.39,2.52,2.96.33.15.66.27.94.52v1.44c-.02.53-1.34,1.41-2.14,2.99-.77,1.53-.56,3.17.47,4.52l2,1.94c.5.62-.14,1.71-.68,2.16l-1.7,1.4c-1.05,1.06-1.46,2.51-1.05,3.96.56,1.98,2.17,2.85,4.09,3.47l-.28,7.46c-.06,1.56.1,3.02.51,4.51-.4.23-.77.4-1.03.74-.95,1.24-.6,3.01.7,3.86.04.42.07.79,0,1.17-1.65.69-2.52,2.51-1.89,4.2l-.63.75c-.27.32-.06.73.12,1.08l-.1.13c-1.69,1.38-2.12,3.72-2.36,5.84l-.54,4.86-.03.15-.03.14c-.27,1.23-.64,2.42-1.32,3.47l-.88,1.35-.06.11c-.14.26-.21.52-.07.65l.09.08.11.07.11.06.12.05.12.05,1.92.56c1.34.39,2.7.6,4.1.63h.18c.06,0,.11,0,.18-.01.1.03.09.14.03.19-.69.59-.9,1.33-.8,2.21.25,2.33.51,4.61,1.06,6.88l.8,3.31c.22.9.63,1.93,1.21,1.52.68-.48,1.65-5.31,1.88-6.83l.74-4.73c.26-1.69-1.13-2.48-.66-2.5,1.77-.05,4.96-.54,6.45-1.23.25-.11.4-.4.26-.65l-1.47-2.72c-.63-1.43-.96-2.92-1.08-4.47l-.27-3.4c-.1-1.29-.35-2.52-.83-3.72-.3-.75-.73-1.4-1.37-1.9-.19-.15.49-.91-.29-1.59-.23-.2-.33-.36-.24-.67.45-1.58-.32-3.18-1.8-3.87l-.13-1.24c1.07-.66,1.57-1.94,1.15-3.13-.12-.33-.34-.71-.61-.91l-.92-.69c.45-1.01.65-2.04.62-3.16l-.26-7.92c5.74,1.67,11.67,2.19,17.64,2.78l.06,5.57c-.56.44-.98,1.04-.96,1.75.01.74.45,1.31,1.01,1.79-.11.66-.32,1.46-.07,2.24-1.53.74-2.07,2.42-1.51,3.99.1.28-.63.39-.47,1.41-1.13,1.27-1.66,3.21-1.88,4.9l-.22,3.96c-.13,2.32-.75,4.47-2.04,6.38-.15.22-.23.52.02.67.48.29,1.01.48,1.56.57l3.77.58c.12-.02.19.05.14.12l-.15.23c-.71,1.06-.65,2.32-.45,3.61.41,2.67.96,5.27,1.65,7.88.08.31.2.59.42.8.12.11.32.09.42-.01.55-.53,1.32-4.71,1.57-6.18.25-1.41.52-2.76.55-4.19.02-.8-.36-1.51-.74-2.22,1.57-.07,3.05-.29,4.55-.61.56-.12,1-.4.82-.73l-.64-1.16c-1.25-2.27-1.35-4.41-1.48-6.93l-.17-3.52c-.17-1.4-.59-2.73-1.43-3.85-.13-.17-.32-.21-.19-.5.29-.65-.58-1.13-.56-1.17l.1-.27c.55-1.44-.04-2.93-1.36-3.68.08-.65.16-1.24-.09-1.81-.07-.17-.26-.45-.05-.6.63-.46.93-1.1.92-1.84,0-.72-.54-1.27-1.06-1.72l.13-4.07.02-1.05c0-.09.06-.17.1-.19.07-.03.11,0,.24,0,6.18.46,12.32.65,18.59.67l-.11,4.31c-.03,1.04.14,2.01.56,2.95.09.19,0,.36-.17.45-.81.43-1.28,1.2-1.31,2.05-.03.89.38,1.68,1.14,2.22l-.05,1.59c-1.78.8-2.17,2.59-1.69,4.45.1.4-1.11.56-.73,1.49.04.1.21.32.07.44-1.95,1.68-2.27,4.27-2.44,6.8l-.41,3.37c-.28,2.25-1.15,4.29-2.38,6.18-.14.22-.14.45.06.61l.1.08c1.29.59,2.65.84,4.06,1.06l2.02.21h.14s.16.02.16.02h.17s.18,0,.18,0c.09.01.1.09.02.14-.35.47-.85,1-.82,1.68.18,3.29.75,6.47,1.57,9.64l.79,2.65c.06.2.26.31.44.31.55,0,.71-.65.88-1.32l.67-2.68c.62-2.5,1.06-5,1.28-7.58.18-.99-.07-1.84-.73-2.58-.04-.06-.1-.15-.08-.2.03-.08.16-.06.25-.06,2.14-.08,4.18-.43,6.19-1.14.26-.09.9-.42.7-.77-1.35-1.96-2.25-4.11-2.6-6.47l-.35-3.32c-.22-2.12-.62-5.58-2.38-6.7-.18-.12-.05-.22,0-.35.37-.9-.8-1.18-.65-1.68.5-1.64-.04-3.41-1.5-4.2-.38-.21-.05-.78-.21-1.65.77-.54,1.2-1.43,1.08-2.37-.1-.86-.68-1.61-1.54-2-.27-.12.57-1.36.53-2.89l-.13-4.34c0-.11-.04-.22,0-.29.04-.08.12-.08.27-.08,6.26-.03,12.43-.21,18.79-.69l.1,5.5c-.31.28-.6.52-.77.88-.43.94-.04,1.96.81,2.53.07.04.16.19.11.27-.3.49-.32.99-.28,1.57l.03.44c0,.06-.01.22-.08.25-1.51.75-1.74,2.26-1.32,3.88.06.23-.73.58-.44,1.12.09.16.05.25-.08.36-.42.35-.65.84-.88,1.35-.72,1.61-.92,3.34-1.03,5.11l-.25,4.13c-.2,1.65-.86,3.13-1.69,4.55-.1.17-.21.38-.13.56.27.62,3.8,1.09,5.12,1.21h.2c.09,0,.14.11.07.22-.52.8-.67,1.64-.56,2.6.34,2.93.91,5.79,1.61,8.65.17.68.47,1.31.93,1.17.12-.04.26-.18.3-.36l.42-1.64,1.11-5.22.35-2.97c.14-1.21-.61-2.32-.6-2.35.01-.13.09-.09.2-.1,1.45-.13,4.31-.53,5.23-1.22.09-.07.09-.29.01-.39-1.15-1.4-1.87-2.99-2.15-4.78l-.26-3.66c-.17-2.43-.09-5.1-1.89-6.99.37-1.08-.66-1.2-.45-1.68.16-.37.18-.76.18-1.18,0-1.01-.52-1.89-1.4-2.35-.36-.19.15-1.26-.34-2.12-.06-.1-.15-.39-.03-.46.61-.38.95-.95.98-1.63.04-.66-.28-1.3-.84-1.71-.22-.16-.3-.27-.29-.56l.23-5.12,7.36-.75,7.91-1.34.14-.04,1.88-.51c.06-.02.16-.07.2-.05.08.06.05.19.05.3l-.19,7.01c-.03,1.24.16,2.37.53,3.52.07.23-.76.39-1.18,1.04-.8,1.24-.45,2.89.77,3.73.1.39.09.77.03,1.17-1.69.63-2.4,2.44-1.81,4.04.18.49-.84.73-.61,1.55l.18.24c.06.08-.03.18-.13.26-1.64,1.34-1.97,3.95-2.15,6.05l-.31,3.55c-.17,1.93-1.22,4.57-2.39,6.17-.14.18-.22.47-.03.62.24.19.52.3.82.4,1.85.62,3.75.91,5.72,1.04.08,0,.21-.02.28.01.22.1-.99,1-.93,2.04.14,2.26.47,4.42.96,6.61l.68,3.01c.17.74.49,2.07.83,2.25.24.13.51.13.73,0,.19-.12.34-.33.4-.59l.69-2.64.63-2.97.72-5.1c.07-.47.03-.92-.18-1.35l-.05-.11-.43-.69-.08-.09-.08-.1s-.08-.11-.08-.14c0-.08.06-.1.18-.11,2.15-.15,5.01-.57,6.82-1.58.28-.16.02-.59-.11-.76-.76-.95-1.34-1.94-1.72-3.09-.39-1.18-.67-2.33-.79-3.57l-.26-2.73c-.18-1.96-.54-4.08-1.73-5.63-.38-.49-.78-.57-.66-.77.28-.48.01-1.08-.4-1.42-.24-.21-.19-.43-.13-.72.3-1.45-.37-2.79-1.64-3.51-.14-.08-.25-.17-.24-.36l.03-1.13c.8-.62,1.17-1.56,1.06-2.54-.17-1.64-1.6-1.81-1.52-2.1l.1-.36c.37-1.31.41-2.6.38-3.97l-.15-7.01c0-.23.15-.23.32-.29.94-.34,1.86-.73,2.56-1.47,1.71-1.78,1.66-4.65-.32-6.27l-1.37-1.12c-.57-.46-.94-1.28-.78-2.02.15-.36.58-.6.87-.84.85-.7,1.59-1.49,2-2.53.44-1.11.3-2.33-.26-3.38-.45-.84-1.06-1.52-1.71-2.22-.28-.3-.46-.58-.41-1.03.03-.29-.1-.79.1-1.06.29-.29.74-.41,1.11-.61,1.4-.75,2.37-2.16,2.27-3.81-.06-.97-.59-1.82-1.24-2.52-.52-.56-1.16-.94-1.79-1.37-.14-.1-.1-.25-.08-.4.27-1.76,1.09-3.25,2.06-4.7.81-1.22,1.35-2.53,1.82-3.91l.82-3.36c.19-.77.36-1.48.76-2.16,1-1.72,2.12-1.16,2.75-1.62.25-.19.26-.82,0-1.2l-.07-.1-.09-.1c-.98-1.13-2.59-1.15-3.85-.37l-.1.05-.1.07-.1.07-.1.07c-.28.2-.55.42-.8.7-.1.13-.22,0-.11-.15.4-1.09,1.39-1.97,2.56-2.14.62-.09,1.19.04,1.81.13,3.12.45,6.34-.09,8.99-1.84,1.13-.74,2.07-1.67,2.95-2.68,1.68-1.95,2.83-4.21,3.37-6.72.57-2.67.27-5.35-.88-7.82l-.8-1.6c-.41-.82-.71-1.78-.38-2.67.48-1.31,1.39-2.32,2.43-3.23,1.12-.98,2.44-1.63,3.99-1.92-.28-.42-.88-.43-1.36-.6l-.15-.03c-2.63-.49-3.77.61-3.85.55-.06-.05-.04-.15-.02-.24l.23-1.14c.22-1.12.32-2.19.27-3.34,0-.11-.01-.21-.13-.16l-.26.12c-1.64.77-3.13,1.73-4.53,2.84-.11-.09-.08-.17-.08-.22v-.18s0-.17,0-.17v-.15s-.19-1.27-.19-1.27l-.04-.13c-.31-.98-.63-1.93-1.37-2.63-.6-.58-1.34-1.12-1.22-.73.46,1.48.45,3.02.11,4.55-.23,1.03-.54,2.02-1.17,2.85-.55.72-1.34,1.21-2.24,1.2l-1.41-.14c-1.13-.11-2.22-.15-3.34.1-.1.02-.16.07-.13.15l.09.21c1.45,3.41,1.01,8.02-.27,11.48-.97,2.61-2.58,4.87-4.5,6.86-1.06,1.1-2.26,1.93-3.58,2.68-.16.09-.11.22-.02.34l1.59,2.18c.63.86.85,1.82.65,2.86-.19.99-.44,1.94-.94,2.82l-2.27,3.47s-.01.02-.02.03l-.04.06h0c-.26.41-.44.87-.54,1.38-.26,1.37.3,2.79.88,2.5.31-.15,1.16-.99,1.24-.34.29,2.33-1.41,4.43-3.75,4.69-.44.05-.83.09-1.26.04-3.16-.34-4.47-4.82-3.52-6.36l.07-.11.07-.11.11-.19c.07-.11.24-.09.25,0l.05.33c.3,1.25,1.67,1.84,2.81,1.28,1-.49,1.69-1.34,2.02-2.42.52-1.68.03-3.53-1.35-4.62-.82-.64-1.85-.8-2.81-.5-.14.05-.29.17-.32.03-.01-.05.09-.16.11-.21l.06-.13.05-.12.05-.12c.35-.78.56-1.59.53-2.46l-.03-.15c-.14-.79-.48-1.42-1.17-1.81l-.09-.08-.11-.06c-1.02-.51-2.08-.65-3.23-.55h-.16s-.49.13-.49.13c-.65.15.44-.87,2.19-.9l3.53-.06c2.9-.24,5.56-1.39,7.71-3.33l1.07-1.07.85-.95c3.07-4.08,4.73-9.12,3.82-14.23-.24-1.32-.73-2.53-1.34-3.7-.46-.87-1.09-1.57-1.73-2.3l-1.84-2.09c-.81-1.19-.33-2.8.4-4.05,1.11-1.9,2.68-3.35,4.77-4.49-1.35-.38-2.84,0-4.14.58l-.12.07-.11.06c-.95.52-1.78,1.22-2.46,2.08l-.1.1s-.06.1-.09.09c-.05-.02-.02-.17,0-.22l.16-.97c.2-1.2.15-2.39,0-3.6l-.24-1.94-.04-.16c-.01-.05-.07-.04-.1.02l-1.74,1.61c-1.32,1.22-2.54,2.48-3.37,4.08-.09-.99-.12-1.87-.45-2.77-.4-1.07-1-2.07-1.81-2.88-.6-.61-1.39-.93-2.14-1.17-.03,0-.05,0-.05-.02-.07-.08-.15.03-.07.08.02,0,.03.03.01.04,1.83,2.2,1.96,4.64,1.39,7.43-.3,1.48-1.78,2.11-3.26,2.22-2.96.23-5.41,1.1-7.67,3.04-2.41,2.07-4,4.84-4.87,7.87-1.35,4.67-.92,9.66,1.9,13.66.99,1.4,2.21,2.51,3.5,3.6,1.32,1.11,1.99,2.76,1.56,4.42l-.76,3c-2.33-.98-4.83-.03-5.92,2.12-.85,1.67-.56,3.59.99,4.75l.71-1c.28-.39.94-.72,1.36-.36.74.63.84,1.73.55,2.61-.3.91-.83,1.62-1.52,2.27-1.23,1.14-2.75,1.76-4.44,1.98-2.98.38-5.98-.45-8.17-2.51-1.17-1.1-1.78-2.57-1.84-4.16-.01-.35.06-.7.26-.96.12-.15.33-.01.43.11,1.55,1.88,4.25,1.91,6.01.33,1.61-1.45,2.1-3.77,1.35-5.8-.81-2.2-3.05-3.82-5.35-3.9-1.98-.08-3.82.65-5.34,1.92-.66.55-1.08,1.22-1.62,1.94.01-1.88.48-4.3,2.12-5.03l2.13-.96c1.46-.66,2.9-1.27,4.19-2.23,2.31-1.73,3.91-4.08,4.83-6.81.89-2.66,1.21-5.42.97-8.22-.27-3.04-1.31-5.88-3.29-8.21-1.42-1.68-3.26-2.82-5.24-3.74-1.24-.57-2.29-1.33-2.19-2.77.16-2.2,1.6-4.22,3.15-5.73l.92-.89c-1.53,0-2.87.6-4.1,1.46-1.22.85-2.07,1.94-2.7,3.36-.19-1.31-.44-2.42-.89-3.56-.58-1.47-1.22-2.85-2-4.26l-1.01,2.05c-.55,1.11-1.03,2.21-1.41,3.39l-.49,2.35c-1.16-2.69-3.86-4.36-6.48-5.13-.02,0-.04-.01-.05-.02-.07-.09-.18.03-.08.09,0,0,.01.02.02.03l2.16,2.96c.98,1.35,2.17,3.66,1.47,5.09-.35.71-1.03,1.18-1.75,1.51-3.82,1.78-6.61,4.11-7.97,8.21-.65,1.96-.88,3.97-.76,6.04.22,3.79,1.19,7.47,3.53,10.46.45.57.94.99,1.46,1.48,1.09,1.02,2.32,1.77,3.68,2.39l3.06,1.38c1.05.48,1.79,1.27,2.19,2.36.34.94.56,1.94.47,3-.47-.78-.84-1.39-1.48-1.93-1.24-1.04-2.77-1.7-4.4-1.89-1.82-.22-3.58.39-4.94,1.58-1.66,1.44-2.23,3.63-1.63,5.73.45,1.56,1.53,2.74,3.08,3.26,1.57.53,3.22.1,4.34-1.15.14-.15.3-.29.54-.3.38.83.36,1.68.17,2.56-.3,1.4-1.06,2.58-2.2,3.46-.71.55-1.44,1.02-2.31,1.29-3.46,1.08-7.59.68-10.32-1.81-1.01-.92-1.87-2.35-1.15-3.49.16-.26.36-.39.62-.4.28-.01.5.09.67.34l.52.76c.12.17.37.28.57.12.83-.67,1.5-1.6,1.64-2.7.2-1.66-.56-3.27-1.89-4.23-1.18-.85-2.58-1.1-3.98-.57-.51-1.37-.95-2.71-1.14-4.14-.2-1.45.33-2.72,1.41-3.69l2.11-1.9c.75-.82,1.4-1.61,1.98-2.57,1.64-2.73,2.31-5.91,1.95-9.11-.25-2.28-.82-4.45-1.74-6.53-1.17-2.63-3-4.85-5.47-6.33-1.27-.76-2.62-1.26-4.05-1.6-1.94-.46-3.87.09-5.06-.86-.53-.42-.82-1.09-.87-1.8-.18-2.45.38-4.84,1.61-7.06-2.53.99-4.11,3.61-4.37,6.22-.03.32-.01.61-.17.96-1.03-2.24-3.24-4.09-5.3-5.68-.69,2.56-.63,5.14.05,7.73-2.11-2.17-5.32-3-8.21-1.8,1.91.56,3.63,1.44,5.05,2.76,1.14,1.06,2.1,2.53,1.23,3.86-.3.46-.64.87-1.04,1.28-1.66,1.72-2.84,3.75-3.35,6.14-1.27,5.91,1.23,12.4,5.73,16.37.68.6,1.37,1.13,2.17,1.59,2.72,1.55,5.81,2.13,8.92,1.69,1.07-.15,2.05.11,2.73.96.13.17.38.29.35.63-1.34-.74-3.21-.52-4.54.19-1.9,1.02-1.75,3.52-.61,5.45-1.15-.35-2.18-.23-3.03.51-1.7,1.49-1.95,3.8-.58,5.73.71,1,1.96,1.54,3.14,1.09,1.11-.42,1.13-1.94,1.22-1.99.51-.27,1.8,2.61.13,5.3-.71,1.15-1.84,1.75-3.17,1.83-1.17.06-2.22-.2-3.18-.88-1.24-.87-2.12-2.22-2.18-3.76,0-.2.06-.43.17-.52.41-.36.96.33,1.43.68.39.03.57-.57.64-.88.26-1.11.05-2.19-.56-3.08,0,0-2.14-3.47-2.28-3.7-.59-1-.94-2.14-1.09-3.28-.13-1,.1-1.92.67-2.7l1.29-1.72c.11-.01.34-.46.19-.55-4.41-2.55-7.56-6.73-8.79-11.68-.81-3.28-.74-6.52.62-9.62-1.15-.23-2.2-.27-3.3-.11l-2.3.33c-1.15.16-2.14-.46-2.62-1.48-.22-.46-.44-.9-.55-1.42-.23-1.08-.57-2.09-.86-3.15-.26-.94-.13-1.86-.01-2.89-1.14.93-1.78,2.31-1.95,3.77.03.2-.17.12-.15-.04-.65-.85-1.16-1.68-1.76-2.62-.34,1.28-.36,2.51-.29,3.86-1.29-.73-2.53-1.21-3.92-1.69-.03,1.83.33,3.56,1.12,5.3-2.28-.64-3.91-.45-5.68,1-.07.09.03.2.14.14ZM496.19,158.45c-.27-1.94,1.52-2.92,1.88-3.05l3.38-1.24.58,5.12-3.78,1.2s-1.83-.43-2.05-2.03ZM576.16,160.69c1.84.48,3.61,1.01,5.4,1.7v1.36s-4.72-1.29-4.72-1.29c-4.76-.99-9.52-1.8-14.39-2.29-6.71-.68-13.35-1.03-20.14-1.06l-11.51.23-9.26.63c-5.42.5-10.75,1.3-16.07,2.42-1.92.4-3.71.87-5.56,1.49l-.02-1.42,4.68-1.48-.34-3.3-.72-6.16-3.93,1.31-.13-1.73c2-.89,3.98-1.52,6.09-2.07,7.6-1.98,15.49-2.9,23.33-3.47,5.58-.4,11.12-.47,16.72-.37,5.31.09,10.53.54,15.78,1.14,4.36.5,8.62,1.17,12.88,2.19l4.99,1.44,2.79,1.14-.13,1.59c-1.68-.66-3.28-1.19-4.99-1.6l-.99,9.32c-.02.14.12.25.23.28ZM498.73,225.86c-.58-2.24-1-4.49-1.24-6.8.77-.03,1.39.45,1.54,1.18.18.64.18,1.29.17,2.01l-.47,3.6ZM500.67,211.55c.78.02,1.5.14,2.24.38,1.27.35,2.47.84,3.57,1.81-.89.39-1.78.48-2.72.64-3.92.64-7.89.5-11.81-.63.66-.98,1.2-1.93,1.49-3.04.4-1.51.63-2.99.76-4.55l.45-3.82c.11-.94.43-1.79.96-2.57.6-.88,1.59-1.4,2.68-1.47.48.73.75,1.5.96,2.33.85,3.39.49,7.48-.39,10.89l1.82.04ZM518.17,176.28l-8.26-.9c-2.3-.25-4.46-.79-6.68-1.35-.93-.24-1.8-.52-2.65-.9l.05-1.56c1.25.62,2.42.99,3.72,1.29,3.69.84,7.36,1.43,11.13,1.76l2.71.23v1.45ZM520.47,176.46l-.02-1.45,6.37.42,12.49.31.02,1.41c-6.29,0-12.53-.22-18.85-.69ZM540.73,223.54l-.41,3.23c-.59-2.37-.98-4.65-1.26-7.04.83-.01,1.42.43,1.58,1.2.18.84.21,1.69.09,2.61ZM548.19,214.22c-1.21.54-2.49.79-3.82.95-3.34.4-7.58.37-10.82-.83,1.02-1.66,1.65-3.38,1.88-5.28l.63-5.36c.1-.86.22-1.67.52-2.47.53-1.4,1.78-2.4,3.28-2.51.55.77.81,1.58,1.02,2.47.81,3.5.47,7.4-.38,10.97,2.76-.18,5.4.4,7.7,2.07ZM561.15,176.44l-12.14.62-6.91.11v-1.44s10.68-.23,10.68-.23l8.38-.48v1.41ZM580.92,173.15l-1.36.51c-5.12,1.56-10.71,2.16-16.09,2.62v-1.46c4.6-.4,9.06-.96,13.51-1.92,1.4-.3,2.67-.67,3.95-1.28v1.53ZM582.45,221.57l-.5,3.93c-.57-2.27-.93-4.53-1.2-6.92.67-.08,1.26.32,1.47,1,.2.62.32,1.29.23,2ZM588.84,212.59c.3.17.58.33.77.66-3.62,1.09-7.37,1.31-11.13.78-1.1-.15-2.03-.34-3.1-.74.91-1.42,1.49-2.88,1.8-4.51l.46-4.09.33-2.91c.11-.94.45-1.82,1.04-2.56.61-.78,1.54-1.2,2.51-1.32.62,1.13.95,2.26,1.15,3.51.51,3.23.33,6.41-.58,9.66,2.39-.14,4.68.36,6.75,1.52ZM584.34,172.02c-.26.17-.11-.49-.89-1.11-.57-.45-1.19-.79-1.89-1.02l-3.55-1.15c-2.72-.71-5.42-1.2-8.21-1.54l-6.38-.79c-8.67-.89-17.28-1.24-25.95-1.09-6.39.11-12.73.44-19.06,1.12-3.54.38-6.98.78-10.46,1.44-2.87.54-6.88,1.36-9.26,2.8-.56.34-.95.82-1.09,1.47-.54-.21-.69-.76-.43-1.21,1.14-1.96,7.73-3.4,10.35-3.93l7.29-1.19c7.06-.93,14.14-1.41,21.29-1.56,7.94-.17,15.83.03,23.71.75l5.23.54c3.9.4,7.68,1.07,11.5,1.93l4.41,1.24,2.2.95c.55.24,1.03.61,1.39,1.08.32.41.23.99-.2,1.26ZM585.28,167.42c.07.03.04.13-.04.12l.04-.12ZM585.22,167.35l-.05.13c-.94-.61-1.96-1.05-3.06-1.47-1.94-.65-3.84-1.2-5.87-1.58l-7.36-1.37-12.76-1.28c-13.67-.98-29.32-.61-42.88,1.28l-9.54,1.82-4.55,1.36c-1.16.35-2.16.92-3.18,1.57.31-.78.97-1.1,1.56-1.58,1.63-.89,3.38-1.49,5.19-1.97l2.85-.75c4.87-1.1,9.79-1.83,14.79-2.33,8.88-.9,17.76-1.17,26.69-.94,4.97.13,9.87.48,14.8.95l8.38,1.11c3.36.57,6.62,1.2,9.86,2.21,1.77.55,4.06,1.4,5.13,2.83ZM584.31,157.95c-.22,1.6-2.05,2.03-2.05,2.03l-3.78-1.2.58-5.12,3.38,1.24c.35.13,2.14,1.11,1.88,3.05ZM570,130.79c-.31,3.86.49,7.07,3.55,9.54-.55.06-1.01-.19-1.52-.26-.38-.05-.66-.16-.94-.49-1.13-1.36-1.78-2.93-2.11-4.73-.82,1.04-1.68,1.86-2.74,2.57-.76.51-1.56,1.12-2.5,1.22-.76.09-1.5-.15-2.32-.21,4.03-1.35,6.61-3.63,8.58-7.63ZM534.72,136.88c3.09-2.13,5.1-4.61,5.62-8.4h.6c.42,2.17,1.36,4.13,2.76,5.85,1.17,1.31,2.52,2.31,4.14,3.11l-2.75-.05c-1.93-1.4-3.45-3.26-4.37-5.54-.65,1.91-2.92,4.96-4.53,5.52-.75.26-1.62.01-2.43.03l.96-.53ZM511.49,130.81c.89,1.62,1.67,3.03,2.88,4.28,1.58,1.62,3.51,2.75,5.78,3.35l-2.45.33c-2.07-.76-3.78-2.04-5.11-3.9-.33,1.94-1.05,3.69-2.33,5.09l-2.11.32c2.83-2.53,3.73-5.65,3.34-9.47ZM507.39,141.71c7.12-1.6,14.72-2.3,21.99-2.81l5.61-.23c3.48-.14,6.86-.11,10.36-.03,7.17.15,14.26.69,21.36,1.69,4.3.6,8.5,1.45,12.65,2.66,1.94.56,4.16,1.39,5.69,2.62.51.41.95.96,1.04,1.66-.9-.89-1.88-1.45-3.02-1.91-2.26-.91-4.54-1.57-6.95-2.13-6.07-1.39-12.23-2.24-18.47-2.76-11.09-.93-22.2-.94-33.34-.01-6.16.51-12.22,1.34-18.19,2.66-2.32.51-4.5,1.16-6.7,1.94l-2.04.87c-.8.34-1.43.86-2.07,1.46,0-.65.38-1.12.84-1.51,2.48-2.17,7.84-3.38,11.24-4.15Z" style="fill: #1f3a6e;"/>
    <path d="M440.34,122c1.58,3.26,3.92,6.65,5.54,8.85.21.28.02.68-.33.71l-2.79.22c-.13.01-.21.15-.16.26l30.7,68.01h0s2.67,5.91,2.67,5.91c.09.19.38.09.33-.11l-1.63-6.46-2.08-8.25c-.02-.1.11-.15.16-.06,1.5,2.56,3,4.96,4.4,7.11,2.96,4.54,5.45,7.96,6.5,9.37.11.15.36.04.31-.15-.46-1.69-1.6-5.77-3.35-10.9-.83-2.43-1.79-5.1-2.88-7.87-.04-.09.09-.17.15-.09l5.21,6.75,4.05,5.25c.13.17.39,0,.29-.19l-2.99-5.73h0s-34.49-66.16-34.49-66.16c-.06-.12-.22-.14-.3-.04l-1.89,2.05c-.24.26-.67.16-.76-.18-.73-2.63-1.95-6.57-3.53-9.82-1.76-3.63-4.61-7.73-6.31-10.05-.15-.2-.38-.23-.56-.14-.18.09-.3.28-.24.53.77,2.77,2.24,7.54,4,11.17Z" style="fill: #1f3a6e;"/>
    <path d="M363.21,180.73c2.66,2.46,6.06,4.78,8.37,6.24.3.19.27.63-.05.78l-2.52,1.21c-.12.06-.14.21-.05.3l34.34,33.71c.13.13.33-.04.23-.19l-7.5-10.55c-.05-.07.04-.15.11-.1,6.19,4.91,11.91,8.58,13.78,9.75.14.09.29-.08.2-.21-1.31-1.78-5.39-7.2-10.75-13-.06-.06.02-.16.09-.12l11.09,6.69c.16.09.31-.12.17-.24l-36.21-31.73c-.1-.09-.25-.05-.3.07l-1.02,2.6c-.13.33-.57.39-.78.11-1.63-2.19-4.19-5.41-6.85-7.88-2.96-2.74-7.1-5.53-9.52-7.08-.21-.13-.44-.07-.57.07-.14.15-.18.38-.03.58,1.72,2.3,4.82,6.21,7.78,8.96Z" style="fill: #1f3a6e;"/>
    <path d="M398.57,148.17c2.19,2.88,5.15,5.75,7.17,7.59.26.24.16.67-.18.76l-2.69.76c-.12.04-.18.18-.1.29l25.73,35.92s0,0,0,0l31.52,44c.13.19.42.02.32-.19l-7.03-14.74c-.05-.1.08-.18.16-.1,6.62,7.44,12.93,13.25,15,15.11.15.14.38-.04.29-.22-1.24-2.49-5.14-10.11-10.53-18.49-.06-.09.05-.19.14-.12l12.33,10.73c.17.15.41-.08.27-.26l-61.7-76.58c-.08-.1-.24-.09-.31.02l-1.46,2.39c-.18.3-.62.29-.78-.03-1.23-2.44-3.2-6.06-5.39-8.94-2.44-3.21-6.04-6.67-8.16-8.61-.18-.17-.42-.15-.58-.03-.16.12-.24.34-.13.56,1.3,2.56,3.67,6.95,6.12,10.16Z" style="fill: #1f3a6e;"/>
    <path d="M426.69,214.17c4.16,4.29,8.38,8.51,12.78,12.57.1.09.26.09.36-.01.08-.09.09-.23.01-.32-10.99-14.16-23.05-27.43-35.46-40.34-4.16-4.29-8.38-8.51-12.78-12.57-.1-.09-.26-.09-.36.01-.08.09-.09.23-.01.32,11,14.16,23.04,27.43,35.46,40.34Z" style="fill: #1f3a6e;"/>
    <path d="M544.65,80.63c.33-.27.79-.56,1.02-.94l.56-3.01c-1.03.54-1.76,1.3-2.5,2.11-.23.25-.45.49-.53.83.33.54.47,1.1.63,1.69l.81-.67Z" style="fill: #1f3a6e;"/>
    <path d="M714.71,304.7c16.71-6.47,33.23-13.42,49.17-21.61.11-.06.16-.18.12-.3-.04-.13-.18-.21-.32-.16-5.71,1.82-11.32,3.87-16.89,6-16.71,6.46-33.23,13.4-49.17,21.61-.11.06-.16.18-.12.3.04.13.18.21.32.16,5.71-1.82,11.32-3.87,16.89-6Z" style="fill: #1f3a6e;"/>
    <path d="M719.5,206.58s-.01,0-.02-.01c0,0,0-.01,0-.02-.08-.09-.2-.12-.27-.08-11.04,6.94-21.27,14.98-31.16,23.42-3.28,2.83-6.51,5.73-9.58,8.83-.07.07-.05.2.03.3.08.1.2.15.28.1,3.72-2.28,7.28-4.75,10.79-7.29,10.48-7.69,20.66-15.79,29.95-24.95.06-.06.06-.18-.01-.28Z" style="fill: #1f3a6e;"/>
    <path d="M574.11,150.37c-3.28-.78-6.57-1.32-9.92-1.8l-.78,9.84,5.17.75,5,.84.96-9.08c.02-.33-.14-.48-.44-.56ZM571.82,157.24l-5.74-.89.44-5.32,5.8,1.04-.5,5.18Z" style="fill: #1f3a6e;"/>
    <path d="M682.13,279.5c.06.13.21.18.33.12,5.42-2.54,10.72-5.3,15.97-8.14,15.73-8.58,31.21-17.61,45.96-27.8.1-.07.14-.2.08-.31-.06-.13-.21-.18-.33-.12-5.42,2.55-10.72,5.31-15.97,8.14-15.73,8.58-31.21,17.6-45.96,27.8-.1.07-.14.2-.08.31Z" style="fill: #1f3a6e;"/>
    <path d="M669.46,215.26l11.09-6.69c.07-.04.15.05.09.12-5.36,5.8-9.44,11.22-10.75,13-.1.13.06.3.2.21,1.87-1.17,7.59-4.84,13.78-9.75.07-.05.16.03.11.1l-7.5,10.55c-.11.15.1.32.23.19l34.34-33.71c.09-.09.07-.25-.05-.3l-2.52-1.21c-.32-.15-.35-.59-.05-.78,2.31-1.46,5.71-3.78,8.37-6.24,2.96-2.74,6.05-6.66,7.78-8.96.15-.2.11-.43-.03-.58-.14-.15-.36-.21-.57-.07-2.42,1.55-6.56,4.33-9.52,7.08-2.66,2.46-5.22,5.69-6.85,7.88-.21.28-.65.22-.78-.11l-1.02-2.6c-.05-.12-.2-.16-.3-.07l-36.21,31.73c-.14.12.02.33.17.24Z" style="fill: #1f3a6e;"/>
    <path d="M693.79,244.7l11.98-4.94c.08-.03.14.07.07.13-6.17,4.92-11.03,9.66-12.59,11.22-.12.11.01.3.16.24,2.03-.87,8.24-3.64,15.1-7.55.07-.04.15.05.09.11l-9.01,9.29c-.13.13.05.33.19.22l39.05-28.12c.11-.08.1-.23,0-.31l-2.3-1.58c-.29-.2-.25-.64.07-.78,2.5-1.1,6.22-2.87,9.22-4.9,3.34-2.27,6.99-5.67,9.04-7.68.18-.18.17-.41.06-.57-.11-.17-.33-.26-.55-.16-2.63,1.16-7.14,3.29-10.48,5.56-3,2.03-6.02,4.83-7.96,6.75-.25.25-.67.12-.75-.23l-.62-2.73c-.03-.13-.17-.19-.28-.12l-40.6,25.88c-.15.1-.03.33.14.26Z" style="fill: #1f3a6e;"/>
    <path d="M774.2,409.16c-17.91.47-35.8,1.45-53.58,3.81-.12.02-.21.12-.22.24,0,.14.1.26.24.26,5.99.21,11.96.16,17.93.03,17.91-.47,35.8-1.46,53.58-3.81.12-.02.21-.12.22-.24,0-.14-.1-.25-.24-.26-5.99-.2-11.96-.16-17.93-.03Z" style="fill: #1f3a6e;"/>
    <path d="M775.01,300.77l.11-2.8c0-.13-.12-.23-.24-.19l-93.76,29.67c-.22.07-.15.39.08.36l16.2-2.12c.11-.01.14.13.05.18-9.12,3.99-16.59,8.18-19,9.57-.18.1-.08.38.12.35,2.75-.4,11.22-1.75,20.86-4.29.1-.03.17.11.07.17l-14.01,8.39c-.2.12-.05.42.16.34l50.6-19.22s0,0,0,0l41.3-15.69c.12-.05.16-.2.08-.3l-1.82-2.12c-.23-.27-.08-.68.27-.74,2.7-.41,6.75-1.17,10.17-2.36,3.81-1.33,8.22-3.67,10.72-5.08.22-.12.27-.35.2-.54-.07-.19-.25-.34-.49-.3-2.84.45-7.75,1.34-11.56,2.66-3.42,1.19-7.06,3.11-9.44,4.47-.31.17-.68-.06-.67-.41Z" style="fill: #1f3a6e;"/>
    <path d="M675.62,186.06c-12.42,12.91-24.47,26.17-35.46,40.34-.07.1-.07.23.01.32.09.1.25.11.36.01,4.41-4.06,8.63-8.28,12.78-12.57,12.42-12.91,24.46-26.18,35.46-40.34.07-.1.07-.23-.01-.32-.09-.1-.25-.11-.36-.01-4.4,4.06-8.62,8.29-12.78,12.57Z" style="fill: #1f3a6e;"/>
    <path d="M805.08,384.55c-3.6.39-7.59,1.44-10.2,2.22-.34.1-.65-.21-.56-.55l.74-2.7c.03-.13-.07-.25-.2-.24l-98.04,7.72c-.23.02-.23.35,0,.37l16.26,1.6c.11.01.11.16,0,.18-9.79,1.83-18.01,4.22-20.67,5.03-.2.06-.17.35.04.36,2.77.23,11.33.83,21.29.54.11,0,.14.15.04.18l-15.54,5.01c-.22.07-.14.4.08.36l53.63-7.3h0l43.78-5.96c.13-.02.2-.16.14-.27l-1.29-2.48c-.16-.31.08-.68.43-.66,2.72.21,6.84.39,10.44,0,4.01-.43,8.83-1.72,11.59-2.53.24-.07.34-.28.32-.48-.02-.2-.16-.38-.41-.4-2.86-.21-7.85-.45-11.86-.02Z" style="fill: #1f3a6e;"/>
    <path d="M734.72,376.28c17.75-2.42,35.43-5.35,52.84-9.62.12-.03.2-.14.19-.26-.01-.14-.13-.24-.27-.23-5.97.45-11.91,1.14-17.82,1.92-17.75,2.41-35.43,5.33-52.84,9.61-.12.03-.2.14-.19.26.01.14.13.24.27.23,5.97-.45,11.91-1.14,17.82-1.92Z" style="fill: #1f3a6e;"/>
    <path d="M726.78,339.83c17.36-4.41,34.6-9.33,51.41-15.55.11-.04.18-.16.16-.28-.03-.14-.16-.23-.29-.2-5.88,1.12-11.7,2.49-17.49,3.93-17.36,4.41-34.6,9.32-51.41,15.55-.11.04-.18.16-.16.28.03.14.16.23.29.2,5.88-1.12,11.7-2.48,17.49-3.93Z" style="fill: #1f3a6e;"/>
    <path d="M787.13,343.06l.43-2.77c.02-.13-.09-.24-.22-.21l-96.58,18.54c-.22.04-.19.37.04.37l16.34-.21c.11,0,.13.15.02.18-9.53,2.9-17.43,6.19-19.99,7.29-.19.08-.13.36.08.36,2.78-.08,11.35-.43,21.21-1.83.11-.02.15.13.06.18l-14.89,6.7c-.21.09-.1.41.12.35l52.49-13.2s0,0,0,0l42.85-10.77c.13-.03.18-.18.11-.29l-1.56-2.32c-.2-.29,0-.69.35-.7,2.73-.1,6.84-.37,10.38-1.16,3.94-.87,8.59-2.69,11.24-3.8.23-.1.31-.32.27-.51-.04-.19-.21-.36-.46-.35-2.87.11-7.85.42-11.79,1.3-3.54.78-7.38,2.27-9.89,3.34-.33.14-.67-.14-.62-.49Z" style="fill: #1f3a6e;"/>
    <path d="M668.06,298.51l15.82-4.12c.11-.03.16.12.07.17-8.56,5.09-15.44,10.18-17.66,11.86-.16.12-.04.38.16.33,2.68-.74,10.92-3.13,20.16-6.85.1-.04.18.09.1.16l-12.86,10.07c-.18.14,0,.42.2.31l86.84-46.07c.11-.06.13-.22.04-.3l-2.07-1.88c-.26-.24-.17-.67.17-.76,2.63-.75,6.55-2,9.8-3.6,3.62-1.79,7.7-4.67,10-6.38.2-.15.22-.38.13-.56-.09-.18-.29-.3-.53-.23-2.76.79-7.52,2.29-11.14,4.08-3.25,1.61-6.62,3.97-8.81,5.6-.28.21-.68.03-.71-.33l-.24-2.79c-.01-.13-.15-.21-.27-.15l-89.34,41.09c-.21.1-.1.41.13.35Z" style="fill: #1f3a6e;"/>
    <path d="M521.98,148.09l-2.15.27c-.37,0-.61.31-.52.69l.72,9.14,10.9-.84-.44-10-8.52.74ZM522.01,155.62l-.44-5.37,6.54-.61.25,5.42-6.35.57Z" style="fill: #1f3a6e;"/>
    <path d="M516.21,148.83c-3.52.52-6.86,1.17-10.22,1.99-.1.17-.14.33-.11.54l1.11,8.98,10.13-1.71-.41-4.51-.5-5.29ZM508.75,157.59l-.64-5.19,5.8-1.05.49,5.21-5.65,1.03Z" style="fill: #1f3a6e;"/>
    <path d="M502.45,83.42c.21-.81.59-1.32.9-1.96.11-.25-.09-.68-.17-.93l-.68-2.09c-.53.84-1.52,3.38-1.26,3.67l1.21,1.31Z" style="fill: #1f3a6e;"/>
    <path d="M494.32,84.53c.31.64,1.38.66,2.31,1.21-.18-.76-.18-1.42-.23-2.15-1.04-.63-2.1-1.07-3.3-1.43l.46.83.76,1.54Z" style="fill: #1f3a6e;"/>
    <path d="M560.82,148.19l-3.57-.38-7.33-.59-.44,10.01,8.25.59,2.75.12.63-9.37c.02-.24-.17-.36-.3-.4ZM558.5,155.47l-6.42-.51.2-5.45,6.59.57-.38,5.39Z" style="fill: #1f3a6e;"/>
    <path d="M545.04,147.11l-9.36.03c-.41,0-.75.1-.99.36-.23.25-.3.56-.29.94l.17,7.86c0,.45.33.83.79.82l9.77-.02c.39,0,.82-.27.82-.62l.1-8.3c0-.58-.43-1.07-1.01-1.07ZM536.76,154.67l-.02-5.44,6.87-.02.02,5.44-6.87.02Z" style="fill: #1f3a6e;"/>
    <path d="M578.51,83.36c.37-.57.61-.95,1.06-1.25.21-.18.26-.43.2-.71-.3-1.13-.68-2.19-1.24-3.31l-.83,2.49c-.09.24-.15.48-.08.73l.89,2.05Z" style="fill: #1f3a6e;"/>
    <path d="M595.57,194.65l-2.99,5.73c-.1.19.16.36.29.19l4.05-5.25,5.21-6.75c.06-.08.18,0,.15.09-1.09,2.77-2.05,5.44-2.88,7.87-1.75,5.13-2.89,9.21-3.35,10.9-.05.18.19.3.31.15,1.05-1.4,3.54-4.82,6.5-9.37,1.4-2.15,2.9-4.55,4.4-7.11.05-.09.18-.04.16.06l-2.08,8.25-1.63,6.46c-.05.21.24.31.33.11l2.67-5.91h0s30.7-68.01,30.7-68.01c.05-.12-.03-.25-.16-.26l-2.79-.22c-.35-.03-.54-.43-.33-.71,1.62-2.2,3.96-5.59,5.54-8.85,1.76-3.63,3.23-8.4,4-11.17.07-.24-.06-.44-.24-.53-.18-.09-.41-.06-.56.14-1.69,2.32-4.54,6.42-6.31,10.05-1.58,3.26-2.81,7.19-3.53,9.82-.09.34-.52.44-.76.18l-1.89-2.05c-.09-.1-.24-.07-.3.04l-34.49,66.16h0Z" style="fill: #1f3a6e;"/>
    <path d="M536,80.16l1.53,1.23c.15-1.38.98-1.79.15-2.57-.76-.87-1.66-1.55-2.71-2.15l.54,2.62c.07.35.19.66.49.88Z" style="fill: #1f3a6e;"/>
    <path d="M584.12,84.65c.54-.42,1.01-.75,1.65-1.01.17-.27.26-.55.32-.83.18-.8.47-1.47.86-2.26-1.12.46-2.02,1.15-2.92,1.92.12.73.12,1.38.09,2.18Z" style="fill: #1f3a6e;"/>
    <path d="M614.11,206.68c-.05.11-.03.24.07.31.11.08.27.06.35-.05,3.58-4.8,6.95-9.73,10.25-14.71,9.83-14.98,19.22-30.24,27.43-46.18.05-.11.03-.24-.07-.31-.11-.08-.27-.06-.35.05-3.58,4.8-6.95,9.73-10.25,14.71-9.83,14.98-19.24,30.23-27.43,46.18Z" style="fill: #1f3a6e;"/>
    <path d="M609.32,229.48l12.33-10.73c.08-.07.2.03.14.12-5.39,8.37-9.29,16-10.53,18.49-.09.18.14.36.29.22,2.07-1.86,8.38-7.67,15-15.11.07-.08.2,0,.16.1l-7.03,14.74c-.1.21.19.38.32.19l31.52-44s0,0,0,0l25.73-35.92c.08-.11.02-.25-.1-.29l-2.69-.76c-.34-.1-.45-.52-.18-.76,2.02-1.84,4.98-4.71,7.17-7.59,2.44-3.21,4.81-7.61,6.12-10.16.11-.22.03-.44-.13-.56-.16-.12-.39-.14-.58.03-2.12,1.94-5.72,5.4-8.16,8.61-2.19,2.88-4.16,6.5-5.39,8.94-.16.32-.6.33-.78.03l-1.46-2.39c-.07-.11-.22-.12-.31-.02l-61.7,76.58c-.14.18.1.41.27.26Z" style="fill: #1f3a6e;"/>
    <path d="M316.31,282.63c-.13-.04-.27.03-.32.16-.04.12.02.24.12.3,15.95,8.19,32.47,15.14,49.17,21.61,5.58,2.13,11.19,4.18,16.89,6,.13.04.27-.03.32-.16.04-.12-.02-.24-.12-.3-15.94-8.2-32.47-15.14-49.17-21.61-5.58-2.13-11.19-4.18-16.89-6Z" style="fill: #1f3a6e;"/>
    <path d="M305.8,409.16c-5.97-.13-11.94-.18-17.93.03-.14,0-.25.12-.24.26,0,.12.1.22.22.24,17.77,2.35,35.67,3.34,53.58,3.81,5.97.13,11.94.18,17.93-.03.14,0,.25-.12.24-.26,0-.12-.1-.22-.22-.24-17.77-2.36-35.67-3.34-53.58-3.81Z" style="fill: #1f3a6e;"/>
    <path d="M545.35,593.01h105.98v-324.11h-219.18v324.11h101.98l.65-2,2.96-9.11,2-6.14,2,6.14,2.96,9.11.65,2ZM454.94,570.78v-279.67h173.6v279.67h-173.6ZM543.84,581.89h96.09v-301.89h-.03l-7.35,7.23v287.55h-91.01l-.65-2h89.66v-283.67h-177.61v283.67h85.66l-.65,2h-87.02v-.13l-7.35,7.23h92.06l-2.96,9.11h-98.53v-320.1h215.17v320.1h-102.52l-2.96-9.11Z" style="fill: #1f3a6e;"/>
    <path d="M557.98,601.02h86.02c-3.68,1.78-6.01,4.43-6.48,8.41-.62,5.29,1.21,9.97,5.31,13.56,5.04,4.4,11.96,6.17,18.95,4.47,11.31-2.75,18.39-14.47,14.53-25.62-2.31-6.68-9.73-10-16.98-10.67v-320.45c.45-.04.91-.09,1.36-.16.45-.06.91-.14,1.36-.22.45-.08.9-.18,1.34-.28.89-.21,1.77-.47,2.62-.76.43-.15.85-.31,1.26-.48s.82-.36,1.22-.55c1.2-.59,2.32-1.28,3.33-2.07.68-.53,1.3-1.11,1.87-1.74.57-.63,1.07-1.31,1.51-2.04s.81-1.51,1.1-2.35c.18-.52.34-1.05.47-1.57.4-1.57.59-3.15.59-4.7,0-1.38-.15-2.74-.44-4.06-.15-.66-.32-1.31-.54-1.95-.43-1.28-.98-2.51-1.66-3.68-.34-.58-.71-1.15-1.1-1.7-.79-1.1-1.69-2.12-2.69-3.05-.75-.7-1.56-1.34-2.41-1.92-.57-.39-1.16-.75-1.78-1.08-1.54-.83-3.2-1.48-4.97-1.91-.87-.21-1.75-.37-2.62-.48-1.3-.16-2.59-.2-3.86-.13-.85.05-1.68.15-2.51.29-.41.07-.82.16-1.22.26-1.62.39-3.17.97-4.64,1.73-.37.19-.73.39-1.08.6-1.06.63-2.08,1.37-3.02,2.19-3.08,2.69-4.88,6-5.32,9.71-.15,1.24-.15,2.52,0,3.85.06.5.14.97.26,1.43.46,1.83,1.37,3.34,2.67,4.59.32.31.67.61,1.04.89.74.56,1.58,1.06,2.5,1.5h-99.92l1.63-4.12c2.7.04,5.36.74,7.94,1.7,5.18,1.92,11.6-.49,12.96-5.51.73-2.69.07-5.86-2.14-7.73-1.82-1.54-4.25-2.46-6.61-2.43l-12.42.13c-1.14.01-2.21-.11-2.85-1.36,2.07-.89,3.07-3.06,1.96-4.83-.35-.56-.8-.94-1.34-1.24-1.48-.83-3.34-.83-4.82,0-.54.3-.99.68-1.34,1.24-1.11,1.77-.12,3.94,1.96,4.83-.64,1.25-1.71,1.38-2.85,1.36l-12.42-.13c-2.35-.02-4.79.9-6.61,2.43-2.21,1.87-2.87,5.04-2.14,7.73,1.37,5.02,7.78,7.43,12.96,5.51,2.58-.96,5.24-1.66,7.94-1.7l1.63,4.12h-98.04c3.68-1.78,6.01-4.43,6.48-8.41.62-5.29-1.21-9.97-5.31-13.56-5.04-4.4-11.96-6.17-18.95-4.47-11.31,2.75-18.39,14.47-14.53,25.62,2.31,6.68,9.73,10,16.98,10.66v320.46c-7.25.66-14.67,3.99-16.98,10.66-3.86,11.15,3.22,22.87,14.53,25.62,6.99,1.7,13.91-.07,18.95-4.47,4.1-3.59,5.93-8.27,5.31-13.56-.46-3.98-2.79-6.63-6.48-8.41h85.43l7.06,5.13-3.8,11.7-1,3.08,2.62-1.9,9.95-7.23,9.95,7.23,2.62,1.9-1-3.08-3.8-11.7,7.06-5.13h3.41ZM557.79,246.9c1.1-1.32,2.94-.49,3.7.14,1.07.89,1.49,1.78,1.5,3.53.02,1.87-2.24,4.96-4.48,3.74-1.96-1.07-2.14-5.71-.73-7.41ZM555.38,244.11c-2.09,2.56-2.69,5.27-2.8,8.49l-6.48-.23c.14-2.94-.36-5.13-.83-7.69l10.11-.56ZM649.16,622.34c-6.09-2.15-10.37-8.31-8.6-14.89,1.09-4.07,6.54-5.82,10-3.65,2.49,1.57,3.58,4.94,2.71,7.49-.71,2.08-2.5,3.35-4.34,3.39-2.05.05-3.99-1.42-4.36-3.64-.26-1.55,1.31-3.16,2.98-2.69,1.74.49,2.09,2.28,2.34,3.86,2.25-1.72.96-4.64-.66-5.62-2.25-1.37-4.92-.42-6.03,1.92-1.04,2.19-.15,4.84,1.59,6.29,1.9,1.59,4.62,1.82,7.11.21,1.54,2.31,3.73,3.26,6.86,4.03-1.75,3.66-5.91,4.59-9.62,3.28ZM656.04,613.96c-.97-.74-.16-1.82.3-2.23.73-.66,2.09-1.06,2.74-.13.6.86.48,2.18.5,3.04-1.19-.05-2.58.06-3.54-.68ZM664.59,622.09c3.38-5.27,3.19-11.68-2.01-15.6,2.28-.95,4.12.48,5.02,2.55,1.91,4.38.83,9.99-3.01,13.04ZM665.46,602.76c4.53,1.68,7.46,6.07,6.32,10.95-.5,2.15-1.51,4.18-3.11,5.79,1.96-4.18,2.37-8.54-.08-12.34-1.72-2.67-5.38-3.94-7.76-1.49-.92.95-1.28,2.42-2.82,3.56-.55.4-1.45-.84-1.68-1.44-.34-.9.16-2.12.75-2.97,1.93-2.77,5.3-3.2,8.38-2.06ZM664.98,252.97c1.27-1.77,1.86-3.8,1.87-5.89,0-1.04-.14-2.1-.42-3.16-.09-.35-.2-.7-.33-1.05-.27-.75-.63-1.48-1.03-2.21-.16-.29-.31-.58-.49-.86,2.1,1.67,3.37,4.1,3.78,6.68.06.37.1.74.12,1.11.02.3.03.6.02.9s-.02.6-.05.89c-.11,1.19-.4,2.36-.87,3.46-.9,2.07-2.75,3.51-5.02,2.55.98-.73,1.78-1.56,2.41-2.44ZM660.83,256.23c.45.46.94.79,1.45,1,.34.14.7.23,1.06.28s.72.04,1.08,0c.36-.04.72-.13,1.07-.26.53-.19,1.03-.46,1.5-.8.62-.46,1.17-1.04,1.6-1.7.15-.24.3-.48.43-.72.13-.24.25-.49.36-.73.22-.49.4-.99.53-1.49s.24-1.01.3-1.53c.06-.51.08-1.03.07-1.55-.02-.78-.11-1.57-.27-2.36-.22-1.05-.55-2.11-.99-3.16-.11-.26-.23-.52-.35-.79.4.4.76.83,1.09,1.28.49.67.9,1.4,1.24,2.15.34.76.6,1.55.78,2.35.07.31.13.61.17.91.04.3.07.6.08.89.03.89-.07,1.74-.29,2.56-.58,2.18-1.99,4.06-3.91,5.37-.24.16-.49.32-.74.46-.38.22-.79.41-1.2.58-.14.06-.27.12-.41.17-3.07,1.14-6.45.7-8.38-2.06-.11-.16-.22-.33-.32-.51-.1-.18-.19-.37-.27-.56-.1-.26-.19-.52-.23-.78-.02-.13-.04-.26-.04-.39,0-.25.02-.5.11-.72.09-.23.27-.54.49-.83.37-.47.85-.86,1.19-.61.39.28.7.59.96.9s.48.63.68.95c.4.63.72,1.24,1.18,1.71ZM659.58,247.27c0,.32,0,.71,0,1.11s-.05.82-.16,1.21c-.07.26-.18.5-.33.72-.66.93-2.02.53-2.74-.13-.46-.41-1.27-1.49-.3-2.23.24-.18.51-.31.79-.41.28-.09.58-.15.89-.19.62-.07,1.26-.06,1.85-.08ZM643.29,257.96c-.43-.26-.84-.57-1.2-.92-.36-.35-.68-.74-.94-1.18-.26-.43-.46-.91-.6-1.41-.22-.82-.35-1.64-.39-2.44-.12-2.41.54-4.69,1.74-6.66.2-.33.42-.65.65-.96,1.62-2.18,3.94-3.88,6.6-4.83,1.39-.49,2.84-.67,4.21-.5.46.06.9.15,1.33.28s.85.3,1.24.51c.39.21.77.46,1.12.75.69.58,1.28,1.33,1.72,2.24-.78.19-1.51.4-2.18.63-1.01.35-1.89.77-2.66,1.32-.26.18-.51.38-.74.59-.47.43-.9.92-1.28,1.49-.31-.2-.63-.37-.95-.52-.32-.14-.64-.26-.95-.35-1.91-.54-3.79-.11-5.22,1.08-.66.55-1.19,1.26-1.55,2.05-.24.53-.4,1.09-.46,1.67-.03.29-.04.58-.02.87s.06.58.13.86c.07.28.17.57.3.84,1.11,2.34,3.78,3.29,6.03,1.92.2-.12.4-.28.58-.45.28-.27.53-.59.74-.94.76-1.3.88-3.05-.67-4.23-.25,1.58-.59,3.37-2.34,3.86-1.04.29-2.05-.22-2.59-1.03-.22-.32-.36-.69-.4-1.08-.02-.19-.02-.39.02-.58.09-.55.28-1.06.55-1.51.53-.9,1.37-1.56,2.32-1.89.48-.17.98-.25,1.49-.24,1.84.04,3.63,1.31,4.34,3.39.65,1.91.2,4.29-1.12,6.02-.44.58-.97,1.08-1.6,1.47-.87.54-1.85.84-2.87.92-1.01.08-2.05-.06-3.02-.4-.48-.17-.95-.39-1.38-.65ZM538.66,238.05c0-1.18.96-2.14,2.14-2.14s2.14.96,2.14,2.14-.96,2.14-2.14,2.14-2.14-.96-2.14-2.14ZM540.1,253.7c-.37-.1-.4-1.58.21-1.58.7,0,.68,1.41-.21,1.58ZM539.98,249.67c.13,1.06-1.11,1.06-.98,0,.08-.66.89-.66.98,0ZM523.08,254.31c-2.24,1.22-4.5-1.87-4.48-3.74.02-1.74.43-2.64,1.5-3.53.76-.63,2.6-1.46,3.7-.14,1.42,1.7,1.23,6.34-.73,7.41ZM535.5,252.37l-6.48.23c-.11-3.22-.71-5.92-2.8-8.49l10.11.56c-.47,2.56-.96,4.76-.83,7.69ZM538.54,244.49c-.1,3.16-.96,5.84-.42,9.43.06.41,1.27,1.26-.13,1.79-1.14-3.68-1.56-7.61.55-11.22ZM434.31,239.56c6.09,2.15,10.37,8.31,8.6,14.89-1.09,4.07-6.54,5.82-10,3.65-2.49-1.57-3.58-4.94-2.71-7.49.71-2.08,2.5-3.35,4.34-3.39,2.05-.05,3.99,1.42,4.36,3.64.26,1.55-1.31,3.16-2.98,2.69-1.74-.49-2.09-2.28-2.34-3.86-2.25,1.72-.96,4.64.66,5.62,2.25,1.37,4.92.42,6.03-1.92,1.04-2.19.15-4.84-1.59-6.29-1.9-1.59-4.62-1.82-7.11-.21-1.54-2.31-3.73-3.26-6.87-4.03,1.75-3.66,5.91-4.59,9.62-3.28ZM427.43,247.94c.97.74.16,1.82-.3,2.23-.73.66-2.09,1.06-2.74.13-.6-.86-.48-2.18-.5-3.04,1.19.05,2.58-.06,3.54.68ZM418.89,239.81c-3.38,5.27-3.19,11.68,2.01,15.6-2.28.95-4.12-.48-5.02-2.55-1.91-4.38-.83-9.99,3.01-13.04ZM418.01,259.14c-4.53-1.68-7.46-6.07-6.32-10.95.5-2.15,1.51-4.18,3.11-5.79-1.96,4.18-2.37,8.54.08,12.34,1.72,2.67,5.38,3.94,7.76,1.49.92-.95,1.28-2.42,2.82-3.56.55-.4,1.45.84,1.68,1.44.34.9-.16,2.12-.75,2.97-1.93,2.77-5.3,3.2-8.38,2.06ZM418.89,622.09c-3.83-3.05-4.91-8.66-3.01-13.04.9-2.07,2.75-3.51,5.02-2.55-5.21,3.92-5.4,10.32-2.01,15.6ZM414.88,607.15c-2.45,3.8-2.04,8.16-.08,12.34-1.59-1.61-2.61-3.63-3.11-5.79-1.14-4.88,1.79-9.27,6.32-10.95,3.07-1.14,6.45-.7,8.38,2.06.59.85,1.09,2.07.75,2.97-.23.6-1.13,1.84-1.68,1.44-1.54-1.14-1.9-2.61-2.82-3.56-2.38-2.45-6.04-1.18-7.76,1.49ZM424.39,611.6c.66-.93,2.02-.53,2.74.13.46.41,1.27,1.49.3,2.23-.96.73-2.35.63-3.54.68.02-.85-.1-2.18.5-3.04ZM442.92,607.45c1.77,6.58-2.51,12.74-8.6,14.89-3.71,1.31-7.87.38-9.62-3.28,3.13-.77,5.33-1.73,6.87-4.03,2.5,1.61,5.21,1.38,7.11-.21,1.75-1.46,2.63-4.1,1.59-6.29-1.11-2.34-3.78-3.29-6.03-1.92-1.61.98-2.91,3.91-.66,5.62.25-1.58.59-3.37,2.34-3.86,1.67-.47,3.24,1.14,2.98,2.69-.37,2.22-2.31,3.69-4.36,3.64-1.84-.04-3.63-1.31-4.34-3.39-.87-2.55.22-5.92,2.71-7.49,3.46-2.17,8.91-.42,10,3.65ZM533.32,604.65l-5.14-3.73,3.63,1.18,4.69,1.52h0s-3.18,1.03-3.18,1.03h0ZM538.74,610.04l-5.14,3.73h0s3.01-4.15,3.01-4.15l2.13-2.93v3.34ZM538.74,600.54h0s-1.96-2.7-1.96-2.7l1.96-6.04v8.75ZM539.74,582.23l-1,3.08-3.8,11.7h-106.79v-332.12h227.19v332.12h-110.79l-1.3-4.01-.65-2-1.85-5.69-1-3.08ZM544.49,608.45l-2.13-2.93h0s3.18,1.03,3.18,1.03l1.96,6.04-3.01-4.15ZM548.25,599.8l-5.89,1.91.37-.51,1.6-2.2h6.35l-2.42.79Z" style="fill: #1f3a6e;"/>
    <path d="M555.71,676.05c-.02-.12-.13-.2-.25-.2-.14,0-.25.12-.24.26.17,5.99.59,11.95,1.1,17.89,1.6,17.84,3.71,35.64,7.18,53.23.02.12.13.2.25.2.14,0,.25-.12.24-.26-.18-5.99-.6-11.95-1.1-17.89-1.6-17.84-3.7-35.64-7.18-53.23Z" style="fill: #1f3a6e;"/>
    <path d="M639.66,739.9c-1.58-3.26-3.92-6.65-5.54-8.85-.21-.28-.02-.68.33-.71l2.79-.22c.13-.01.21-.15.16-.26l-18.17-40.27h0s-4.15-9.2-4.15-9.2h0s-18.12-40.17-18.12-40.17c-.09-.21-.41-.1-.35.12l4,15.85c.03.11-.12.16-.17.07-5.03-8.59-10.07-15.52-11.73-17.75-.12-.16-.38-.04-.33.16.72,2.69,3.05,10.94,6.7,20.21.04.1-.09.18-.16.09l-9.97-12.93c-.14-.18-.42,0-.31.2l25.02,48s0,0,0,0l20.42,39.18c.06.12.22.14.3.04l1.89-2.05c.24-.26.67-.16.76.18.73,2.63,1.95,6.57,3.53,9.83,1.76,3.63,4.61,7.73,6.3,10.05.15.2.38.23.56.14.18-.09.3-.28.24-.53-.77-2.77-2.24-7.54-4-11.17Z" style="fill: #1f3a6e;"/>
    <path d="M588.83,747.37c-.14-.32.13-.67.48-.62l2.77.39c.13.02.24-.1.21-.22l-8.92-43.27s0,0,0,0l-2.04-9.88-8.89-43.16c-.05-.22-.38-.19-.37.04l.44,16.34c0,.11-.15.13-.18.03-3.03-9.49-6.43-17.35-7.57-19.88-.08-.19-.36-.12-.36.08.12,2.78.59,11.34,2.12,21.19.02.11-.13.16-.17.06l-6.9-14.8c-.1-.21-.41-.09-.35.13l13.91,52.31s0,0,0,0l11.35,42.7c.03.13.18.18.29.11l2.3-1.59c.29-.2.69-.01.71.34.13,2.73.47,6.83,1.3,10.36.93,3.93,2.81,8.55,3.95,11.18.1.23.32.3.52.26.19-.05.36-.21.35-.46-.15-2.87-.53-7.84-1.46-11.77-.83-3.53-2.37-7.35-3.47-9.85Z" style="fill: #1f3a6e;"/>
    <path d="M643.62,700.11c-9.02-15.48-18.47-30.7-29.09-45.15-.07-.1-.2-.13-.31-.07-.12.06-.17.21-.11.34,2.7,5.35,5.61,10.57,8.59,15.74,9.02,15.48,18.49,30.7,29.09,45.15.07.1.2.13.31.07.12-.06.17-.21.11-.34-2.7-5.35-5.61-10.56-8.59-15.73Z" style="fill: #1f3a6e;"/>
    <path d="M585.98,668.86c-.05-.11-.17-.17-.29-.14-.13.04-.21.17-.18.31,1.52,5.79,3.28,11.5,5.12,17.18,5.59,17.02,11.68,33.88,19.04,50.22.05.11.17.17.29.14.13-.04.21-.17.18-.31-1.53-5.79-3.28-11.5-5.12-17.18-5.59-17.02-11.67-33.88-19.04-50.22Z" style="fill: #1f3a6e;"/>
    <path d="M529.4,307.14l-8.24,8.24v31.91l8.24,8.24h24.71l8.24-8.24v-31.91l-8.24-8.24h-24.71ZM558.3,315.38h-5.97c-1.11,0-2,.9-2,2v22.12c0,2.21-1.79,4.01-4.01,4.01h-14.91c-1.11,0-2,.9-2,2v5.97c0,.45-.54.67-.85.35l-5.38-5.38v-30.25l7.06-7.06h23.05l5.38,5.38c.32.32.09.85-.35.85Z" style="fill: #1f3a6e;"/>
    <path d="M579.58,506.38l-8.24,8.24v31.91l8.24,8.24h24.71l8.24-8.24v-31.91l-8.24-8.24h-24.71ZM608.47,514.61h-5.97c-1.11,0-2,.9-2,2v22.12c0,2.21-1.79,4.01-4.01,4.01h-14.91c-1.11,0-2,.9-2,2v5.97c0,.45-.54.67-.85.35l-5.38-5.38v-30.25l7.06-7.06h23.05l5.38,5.38c.32.32.09.85-.35.85Z" style="fill: #1f3a6e;"/>
    <path d="M529.4,373.55l-8.24,8.24v31.91l8.24,8.24h24.71l8.24-8.24v-31.91l-8.24-8.24h-24.71ZM558.3,381.79h-5.97c-1.11,0-2,.9-2,2v22.12c0,2.21-1.79,4.01-4.01,4.01h-14.91c-1.11,0-2,.9-2,2v5.97c0,.45-.54.67-.85.35l-5.38-5.38v-30.25l7.06-7.06h23.05l5.38,5.38c.32.32.09.85-.35.85Z" style="fill: #1f3a6e;"/>
    <path d="M579.58,373.55l-8.24,8.24v31.91l8.24,8.24h24.71l8.24-8.24v-31.91l-8.24-8.24h-24.71ZM608.47,381.79h-5.97c-1.11,0-2,.9-2,2v22.12c0,2.21-1.79,4.01-4.01,4.01h-14.91c-1.11,0-2,.9-2,2v5.97c0,.45-.54.67-.85.35l-5.38-5.38v-30.25l7.06-7.06h23.05l5.38,5.38c.32.32.09.85-.35.85Z" style="fill: #1f3a6e;"/>
    <path d="M579.58,307.14l-8.24,8.24v31.91l8.24,8.24h24.71l8.24-8.24v-31.91l-8.24-8.24h-24.71ZM608.47,315.38h-5.97c-1.11,0-2,.9-2,2v22.12c0,2.21-1.79,4.01-4.01,4.01h-14.91c-1.11,0-2,.9-2,2v5.97c0,.45-.54.67-.85.35l-5.38-5.38v-30.25l7.06-7.06h23.05l5.38,5.38c.32.32.09.85-.35.85Z" style="fill: #1f3a6e;"/>
    <path d="M458.94,566.78h165.59v-271.66h-165.59v271.66ZM462.95,299.13h157.58v263.64h-157.58v-263.64Z" style="fill: #1f3a6e;"/>
    <path d="M579.58,439.96l-8.24,8.24v31.91l8.24,8.24h24.71l8.24-8.24v-31.91l-8.24-8.24h-24.71ZM608.47,448.2h-5.97c-1.11,0-2,.9-2,2v22.12c0,2.21-1.79,4.01-4.01,4.01h-14.91c-1.11,0-2,.9-2,2v5.97c0,.45-.54.67-.85.35l-5.38-5.38v-30.25l7.06-7.06h23.05l5.38,5.38c.32.32.09.85-.35.85Z" style="fill: #1f3a6e;"/>
    <path d="M768.83,604.09c-3.25-1.61-7.17-2.86-9.8-3.6-.34-.1-.44-.53-.17-.76l2.07-1.88c.1-.09.08-.24-.04-.3l-47.94-25.44-38.93-20.65c-.2-.11-.38.17-.2.31l12.87,10.08c.09.07,0,.2-.1.16-9.24-3.71-17.47-6.1-20.14-6.84-.2-.05-.33.2-.16.33,2.22,1.68,9.12,6.78,17.68,11.87.09.06.04.2-.07.17l-15.8-4.11c-.22-.06-.33.26-.13.35l49.17,22.62s0,0,0,0l40.14,18.46c.12.05.25-.02.27-.15l.24-2.78c.03-.35.43-.54.71-.33,2.19,1.64,5.56,4,8.81,5.6,3.62,1.79,8.38,3.29,11.14,4.08.24.07.44-.05.53-.23.09-.18.07-.41-.13-.56-2.31-1.71-6.38-4.59-10-6.38Z" style="fill: #1f3a6e;"/>
    <path d="M809.62,522.13c-2.65-1.11-7.3-2.93-11.24-3.8-3.54-.78-7.65-1.06-10.38-1.15-.35-.01-.55-.41-.35-.7l1.56-2.32c.07-.11.02-.25-.11-.29l-42.85-10.77h0l-52.53-13.21c-.22-.06-.33.26-.12.35l14.9,6.71c.1.04.05.19-.06.18-9.86-1.39-18.42-1.75-21.2-1.83-.21,0-.27.28-.08.36,2.56,1.1,10.47,4.4,20,7.3.1.03.08.18-.02.18l-16.33-.21c-.23,0-.26.33-.04.37l53.16,10.2s0,0,0,0l43.39,8.33c.13.02.24-.08.22-.21l-.43-2.76c-.05-.35.29-.62.62-.49,2.51,1.07,6.36,2.55,9.89,3.33,3.94.87,8.92,1.19,11.79,1.3.25,0,.41-.16.46-.35.04-.19-.03-.42-.26-.51Z" style="fill: #1f3a6e;"/>
    <path d="M734.32,488.04c17.6,3.36,35.29,6.2,53.16,7.69.12,0,.23-.07.26-.19.03-.13-.05-.27-.18-.31-5.81-1.47-11.65-2.7-17.51-3.84-17.6-3.36-35.29-6.22-53.16-7.69-.12,0-.23.07-.26.19-.03.13.05.27.18.31,5.81,1.48,11.65,2.71,17.51,3.85Z" style="fill: #1f3a6e;"/>
    <path d="M726.11,524.43c17.1,5.33,34.36,10.16,51.94,13.67.12.02.24-.04.28-.16.05-.13-.02-.27-.15-.32-5.6-2.12-11.27-4.01-16.96-5.81-17.1-5.33-34.36-10.18-51.94-13.67-.12-.02-.24.04-.28.16-.05.13.02.27.15.32,5.6,2.12,11.27,4.01,16.96,5.81Z" style="fill: #1f3a6e;"/>
    <path d="M819.44,430.51c-2.83-.51-7.76-1.28-11.79-1.28-3.62,0-7.7.62-10.38,1.12-.35.06-.62-.28-.5-.61l1.02-2.61c.05-.12-.04-.25-.17-.26l-54.25-1.54h0l-44.05-1.25c-.23,0-.27.32-.04.37l16,3.33c.11.02.09.17-.02.18-9.93.77-18.36,2.28-21.09,2.8-.2.04-.2.33,0,.37,2.73.52,11.18,2.03,21.11,2.8.11,0,.12.16.02.18l-15.99,3.32c-.22.05-.19.38.04.37l54.11-1.53s0,0,0,0l44.16-1.25c.13,0,.22-.13.17-.26l-1.02-2.6c-.13-.33.15-.67.5-.61,2.68.5,6.76,1.12,10.38,1.12,4.04,0,8.97-.77,11.79-1.28.25-.04.37-.24.37-.44,0-.2-.12-.4-.37-.44Z" style="fill: #1f3a6e;"/>
    <path d="M796.96,567.02c-2.5-1.41-6.91-3.76-10.72-5.09-3.42-1.19-7.47-1.94-10.17-2.36-.35-.05-.5-.47-.27-.74l1.82-2.13c.08-.1.05-.25-.08-.3l-91.93-34.93c-.21-.08-.36.22-.16.34l14.02,8.4c.09.06.03.2-.08.17-9.63-2.53-18.09-3.88-20.84-4.28-.2-.03-.3.24-.12.34,2.41,1.39,9.89,5.59,19.01,9.58.1.04.06.19-.05.18l-16.19-2.11c-.23-.03-.3.3-.08.36l51.61,16.33s0,0,0,0l42.12,13.33c.12.04.25-.06.24-.19l-.11-2.79c-.01-.35.36-.59.67-.41,2.37,1.35,6.02,3.27,9.44,4.46,3.81,1.33,8.72,2.22,11.56,2.66.25.04.43-.11.49-.3.07-.19.01-.42-.2-.54Z" style="fill: #1f3a6e;"/>
    <path d="M817.04,476.45c-2.76-.81-7.58-2.1-11.59-2.53-3.6-.39-7.72-.2-10.44,0-.35.03-.59-.34-.43-.66l1.29-2.48c.06-.12-.01-.25-.14-.27l-97.44-13.26c-.23-.03-.3.29-.08.36l15.55,5.01c.1.03.07.18-.04.18-9.95-.29-18.5.31-21.27.53-.2.02-.24.3-.04.36,2.66.81,10.89,3.21,20.69,5.04.11.02.1.17,0,.18l-16.25,1.6c-.23.02-.22.36,0,.37l53.96,4.25h0l44.04,3.47c.13.01.23-.11.2-.24l-.74-2.69c-.09-.34.22-.65.56-.55,2.62.78,6.6,1.83,10.2,2.22,4.01.43,9,.19,11.86-.02.25-.02.39-.2.41-.4.02-.2-.08-.41-.32-.48Z" style="fill: #1f3a6e;"/>
    <path d="M738.45,450.85c17.86,1.42,35.76,2.33,53.68,1.86.12,0,.22-.09.24-.22.02-.14-.08-.26-.21-.28-5.93-.83-11.88-1.42-17.82-1.92-17.86-1.42-35.76-2.34-53.68-1.87-.12,0-.22.09-.24.22-.02.14.08.26.21.28,5.93.84,11.88,1.42,17.82,1.92Z" style="fill: #1f3a6e;"/>
    <path d="M678.49,622.87c-.08.1-.1.23-.03.3,3.07,3.1,6.3,6,9.58,8.83,9.89,8.44,20.12,16.47,31.16,23.42.07.05.19.02.27-.08,0,0,0-.01,0-.02,0,0,.01,0,.02-.01.07-.1.07-.22.01-.28-9.29-9.15-19.47-17.26-29.95-24.95-3.51-2.54-7.07-5.02-10.79-7.29-.08-.05-.2,0-.28.1Z" style="fill: #1f3a6e;"/>
    <path d="M716.8,681.17c-2.66-2.46-6.06-4.78-8.37-6.24-.3-.19-.27-.63.05-.78l2.52-1.21c.12-.06.14-.21.05-.3l-34.34-33.71c-.13-.13-.33.04-.23.19l7.5,10.55c.05.07-.04.15-.11.1-6.19-4.91-11.91-8.58-13.78-9.75-.14-.09-.29.08-.2.21,1.31,1.78,5.39,7.2,10.75,13,.06.06-.02.16-.09.12l-11.09-6.69c-.16-.09-.31.12-.17.24l36.21,31.73c.1.09.25.05.3-.07l1.02-2.6c.13-.33.57-.39.78-.11,1.63,2.19,4.19,5.41,6.85,7.88,2.96,2.74,7.1,5.53,9.52,7.08.21.13.44.07.57-.07.14-.15.18-.38.03-.58-1.72-2.3-4.82-6.21-7.78-8.96Z" style="fill: #1f3a6e;"/>
    <path d="M677.43,674.19c-11.71-13.55-23.81-26.78-36.9-39.03-.09-.08-.22-.09-.32-.01-.11.08-.13.24-.05.35,3.64,4.76,7.45,9.35,11.34,13.89,11.71,13.55,23.82,26.77,36.91,39.02.09.08.22.09.32.01.11-.08.13-.24.05-.35-3.64-4.76-7.46-9.35-11.34-13.88Z" style="fill: #1f3a6e;"/>
    <path d="M681.43,713.73c-2.19-2.88-5.15-5.75-7.17-7.59-.26-.24-.16-.67.18-.76l2.69-.76c.12-.04.18-.18.1-.29l-25.73-35.92h0s-5.88-8.2-5.88-8.2h0s-25.66-35.83-25.66-35.83c-.13-.19-.42-.02-.32.19l7.03,14.75c.05.1-.08.18-.16.1-6.62-7.44-12.92-13.24-14.99-15.1-.15-.14-.38.04-.29.22,1.24,2.49,5.14,10.13,10.54,18.5.06.09-.05.19-.14.12l-12.32-10.72c-.17-.15-.41.08-.27.26l27.63,34.29,6.33,7.86s0,0,0,0l27.72,34.4c.08.1.24.09.31-.02l1.45-2.38c.18-.3.62-.29.78.03,1.23,2.44,3.2,6.06,5.39,8.94,2.44,3.21,6.04,6.67,8.16,8.61.18.17.42.15.58.03.16-.12.24-.34.13-.56-1.3-2.56-3.67-6.95-6.11-10.17Z" style="fill: #1f3a6e;"/>
    <path d="M529.4,439.96l-8.24,8.24v31.91l8.24,8.24h24.71l8.24-8.24v-31.91l-8.24-8.24h-24.71ZM558.3,448.2h-5.97c-1.11,0-2,.9-2,2v22.12c0,2.21-1.79,4.01-4.01,4.01h-14.91c-1.11,0-2,.9-2,2v5.97c0,.45-.54.67-.85.35l-5.38-5.38v-30.25l7.06-7.06h23.05l5.38,5.38c.32.32.09.85-.35.85Z" style="fill: #1f3a6e;"/>
    <path d="M763.69,579.27c.11.04.24-.01.3-.12.06-.12.02-.27-.11-.34-5.31-2.78-10.71-5.33-16.14-7.8-16.34-7.34-32.89-14.23-49.92-19.81-.11-.04-.24.01-.3.12-.06.12-.02.27.11.34,5.3,2.78,10.71,5.33,16.14,7.8,16.34,7.34,32.89,14.22,49.93,19.81Z" style="fill: #1f3a6e;"/>
    <path d="M745.8,644.17c-3-2.03-6.72-3.81-9.22-4.9-.32-.14-.36-.58-.07-.78l2.3-1.58c.11-.07.11-.23,0-.31l-39.05-28.12c-.15-.11-.32.09-.19.22l9.01,9.29c.06.06-.02.16-.09.11-6.86-3.91-13.07-6.68-15.1-7.55-.15-.06-.28.13-.16.24,1.56,1.56,6.42,6.3,12.59,11.22.07.05,0,.16-.07.13l-11.98-4.94c-.17-.07-.29.17-.14.26l40.6,25.88c.11.07.25,0,.28-.12l.62-2.73c.08-.34.5-.47.75-.23,1.94,1.92,4.97,4.72,7.96,6.75,3.34,2.27,7.86,4.39,10.48,5.56.23.1.44,0,.55-.16.11-.16.12-.4-.06-.57-2.05-2.01-5.7-5.41-9.04-7.68Z" style="fill: #1f3a6e;"/>
    <path d="M744.14,618.66c.11.05.24.02.31-.08.08-.11.05-.27-.06-.35-4.9-3.44-9.93-6.67-14.99-9.83-15.25-9.4-30.76-18.37-46.93-26.12-.11-.05-.24-.02-.31.08-.08.11-.05.27.06.35,4.9,3.45,9.92,6.68,14.99,9.83,15.25,9.4,30.77,18.36,46.94,26.11Z" style="fill: #1f3a6e;"/>
    <path d="M318.77,531.81c-5.69,1.8-11.36,3.68-16.96,5.81-.13.05-.2.19-.15.32.04.12.16.18.28.16,17.58-3.5,34.84-8.34,51.94-13.67,5.69-1.8,11.36-3.69,16.96-5.81.13-.05.2-.19.15-.32-.04-.12-.16-.18-.28-.16-17.58,3.49-34.84,8.34-51.94,13.67Z" style="fill: #1f3a6e;"/>
    <path d="M309.95,491.39c-5.86,1.14-11.7,2.37-17.51,3.84-.13.03-.22.17-.18.31.03.12.14.2.26.19,17.87-1.49,35.56-4.33,53.16-7.69,5.86-1.14,11.7-2.37,17.51-3.85.13-.03.22-.17.18-.31-.03-.12-.14-.2-.26-.19-17.87,1.48-35.56,4.34-53.16,7.69Z" style="fill: #1f3a6e;"/>
    <path d="M304.99,561.14l-.11,2.79c0,.13.12.23.24.19l42.12-13.33s0,0,0,0l51.61-16.33c.22-.07.15-.39-.08-.36l-16.19,2.11c-.11.01-.14-.13-.05-.18,9.13-3.99,16.6-8.19,19.01-9.58.18-.1.08-.37-.12-.34-2.75.4-11.21,1.75-20.84,4.28-.1.03-.17-.11-.08-.17l14.02-8.4c.2-.12.05-.42-.16-.34l-91.93,34.93c-.12.05-.16.2-.08.3l1.82,2.13c.23.27.08.68-.27.74-2.7.41-6.75,1.17-10.17,2.36-3.81,1.33-8.22,3.67-10.72,5.09-.22.12-.27.35-.2.54.07.19.25.34.49.3,2.84-.45,7.75-1.34,11.56-2.66,3.42-1.19,7.07-3.11,9.44-4.46.31-.17.68.06.67.41Z" style="fill: #1f3a6e;"/>
    <path d="M292.87,518.85l-.43,2.76c-.02.13.09.24.22.21l43.39-8.33s0,0,0,0l53.16-10.2c.22-.04.19-.37-.04-.37l-16.33.21c-.11,0-.13-.15-.02-.18,9.53-2.9,17.45-6.2,20-7.3.19-.08.13-.36-.08-.36-2.78.08-11.34.43-21.2,1.83-.11.02-.15-.13-.06-.18l14.9-6.71c.21-.09.1-.41-.12-.35l-52.53,13.21h0l-42.85,10.77c-.13.03-.18.18-.11.29l1.56,2.32c.2.29,0,.69-.35.7-2.73.1-6.84.37-10.38,1.15-3.94.87-8.59,2.69-11.24,3.8-.23.1-.31.32-.26.51.04.19.21.36.46.35,2.87-.11,7.85-.43,11.79-1.3,3.54-.78,7.38-2.27,9.89-3.33.33-.14.67.14.62.49Z" style="fill: #1f3a6e;"/>
    <path d="M283.04,294.89c2.5,1.41,6.91,3.76,10.72,5.08,3.42,1.19,7.47,1.94,10.17,2.36.35.05.5.47.27.74l-1.82,2.12c-.08.1-.05.25.08.3l41.3,15.69s0,0,0,0l50.6,19.22c.21.08.36-.22.16-.34l-14.01-8.39c-.09-.06-.03-.2.07-.17,9.63,2.53,18.1,3.88,20.86,4.29.2.03.3-.24.12-.35-2.41-1.39-9.88-5.58-19-9.57-.1-.04-.06-.19.05-.18l16.2,2.12c.23.03.3-.3.08-.36l-93.76-29.67c-.12-.04-.25.06-.24.19l.11,2.8c.01.35-.36.59-.67.41-2.37-1.35-6.02-3.28-9.44-4.47-3.81-1.33-8.72-2.22-11.56-2.66-.25-.04-.43.11-.49.3-.07.19-.01.42.2.54Z" style="fill: #1f3a6e;"/>
    <path d="M360.5,655.3s.01,0,.02.01c0,0,0,.01,0,.02.08.09.2.12.27.08,11.04-6.94,21.27-14.98,31.16-23.42,3.28-2.83,6.51-5.73,9.58-8.83.07-.07.05-.2-.03-.3-.08-.1-.2-.15-.28-.1-3.72,2.28-7.28,4.75-10.79,7.29-10.48,7.69-20.66,15.79-29.95,24.95-.06.06-.06.18.01.28Z" style="fill: #1f3a6e;"/>
    <path d="M362.86,586.38l49.17-22.62c.21-.1.1-.41-.13-.35l-15.8,4.11c-.1.03-.16-.12-.07-.17,8.56-5.1,15.46-10.19,17.68-11.87.16-.12.04-.38-.16-.33-2.68.74-10.9,3.13-20.14,6.84-.1.04-.18-.09-.1-.16l12.87-10.08c.18-.14,0-.42-.2-.31l-38.93,20.65-47.94,25.44c-.11.06-.13.22-.04.3l2.07,1.88c.26.24.17.67-.17.76-2.63.75-6.55,2-9.8,3.6-3.62,1.79-7.7,4.67-10,6.38-.2.15-.22.38-.13.56.09.18.29.3.53.23,2.76-.8,7.52-2.29,11.14-4.08,3.25-1.61,6.62-3.97,8.81-5.6.28-.21.68-.03.71.33l.24,2.78c.01.13.15.21.27.15l40.14-18.46s0,0,0,0Z" style="fill: #1f3a6e;"/>
    <path d="M332.26,571.01c-5.43,2.47-10.84,5.02-16.14,7.8-.12.06-.17.22-.11.34.06.11.18.16.3.12,17.03-5.59,33.59-12.46,49.93-19.81,5.43-2.47,10.84-5.02,16.14-7.8.12-.06.17-.22.11-.34-.06-.11-.18-.16-.3-.12-17.04,5.58-33.59,12.46-49.92,19.81Z" style="fill: #1f3a6e;"/>
    <path d="M397.85,582.36c-.07-.1-.2-.13-.31-.08-16.17,7.74-31.69,16.71-46.93,26.12-5.07,3.15-10.09,6.38-14.99,9.83-.11.08-.14.24-.06.35.07.1.2.13.31.08,16.17-7.75,31.69-16.71,46.94-26.11,5.07-3.15,10.09-6.38,14.99-9.83.11-.08.14-.24.06-.35Z" style="fill: #1f3a6e;"/>
    <path d="M270.38,339.78c2.65,1.11,7.3,2.93,11.24,3.8,3.54.78,7.65,1.06,10.38,1.16.35.01.55.41.35.7l-1.56,2.32c-.07.11-.02.25.11.29l42.85,10.77s0,0,0,0l52.49,13.2c.22.06.33-.26.12-.35l-14.89-6.7c-.1-.04-.05-.19.06-.18,9.86,1.39,18.43,1.75,21.21,1.83.21,0,.27-.28.08-.36-2.55-1.1-10.46-4.39-19.99-7.29-.1-.03-.08-.18.02-.18l16.34.21c.23,0,.26-.33.04-.37l-96.58-18.54c-.13-.02-.24.08-.22.21l.43,2.77c.05.35-.29.62-.62.49-2.51-1.07-6.36-2.55-9.89-3.34-3.94-.87-8.92-1.19-11.79-1.3-.25,0-.41.16-.46.35-.04.19.03.42.27.51Z" style="fill: #1f3a6e;"/>
    <path d="M319.43,327.73c-5.79-1.45-11.61-2.81-17.49-3.93-.14-.03-.27.06-.29.2-.02.12.05.24.16.28,16.81,6.22,34.05,11.14,51.41,15.55,5.79,1.45,11.61,2.81,17.49,3.93.14.03.27-.06.29-.2.02-.12-.05-.24-.16-.28-16.81-6.23-34.05-11.13-51.41-15.55Z" style="fill: #1f3a6e;"/>
    <path d="M310.34,368.09c-5.92-.78-11.85-1.47-17.82-1.92-.14-.01-.26.09-.27.23,0,.12.07.23.19.26,17.41,4.27,35.09,7.2,52.84,9.62,5.92.78,11.85,1.47,17.82,1.92.14.01.26-.09.27-.23,0-.12-.07-.23-.19-.26-17.41-4.28-35.09-7.2-52.84-9.61Z" style="fill: #1f3a6e;"/>
    <path d="M305.67,450.3c-5.95.5-11.89,1.09-17.82,1.92-.14.02-.23.15-.21.28.02.12.12.21.24.22,17.92.46,35.82-.44,53.68-1.86,5.95-.5,11.89-1.09,17.82-1.92.14-.02.23-.15.21-.28-.02-.12-.12-.21-.24-.22-17.92-.47-35.82.45-53.68,1.87Z" style="fill: #1f3a6e;"/>
    <path d="M274.92,477.35c3.6-.39,7.59-1.44,10.2-2.22.34-.1.65.21.56.55l-.74,2.69c-.03.13.07.25.2.24l44.04-3.47h0l53.96-4.25c.23-.02.23-.35,0-.37l-16.25-1.6c-.11-.01-.11-.16,0-.18,9.79-1.83,18.03-4.23,20.69-5.04.2-.06.17-.35-.04-.36-2.77-.23-11.31-.83-21.27-.53-.11,0-.14-.15-.04-.18l15.55-5.01c.22-.07.14-.4-.08-.36l-97.44,13.26c-.13.02-.2.16-.14.27l1.29,2.48c.16.31-.08.68-.43.66-2.72-.21-6.84-.39-10.44,0-4.01.43-8.83,1.72-11.59,2.53-.24.07-.34.28-.32.48.02.2.17.38.41.4,2.86.21,7.85.45,11.86.02Z" style="fill: #1f3a6e;"/>
    <path d="M262.96,385.45c2.76.81,7.58,2.1,11.59,2.53,3.6.39,7.72.21,10.44,0,.35-.03.59.34.43.66l-1.29,2.48c-.06.12.01.25.14.27l43.78,5.96h0l53.63,7.3c.23.03.3-.29.08-.36l-15.54-5.01c-.1-.03-.07-.18.04-.18,9.96.29,18.51-.31,21.29-.54.2-.02.23-.3.04-.36-2.66-.81-10.88-3.21-20.67-5.03-.11-.02-.1-.17,0-.18l16.26-1.6c.23-.02.22-.36,0-.37l-98.04-7.72c-.13-.01-.23.11-.2.24l.74,2.7c.09.34-.22.65-.56.55-2.62-.78-6.6-1.83-10.2-2.22-4.01-.43-9-.19-11.86.02-.25.02-.39.2-.41.4-.02.2.08.41.32.48Z" style="fill: #1f3a6e;"/>
    <path d="M282.74,431.56c.35-.06.62.28.5.61l-1.02,2.6c-.05.12.04.25.17.26l44.16,1.25s0,0,0,0l54.11,1.53c.23,0,.27-.32.04-.37l-15.99-3.32c-.11-.02-.09-.17.02-.18,9.93-.77,18.37-2.28,21.11-2.8.2-.04.2-.33,0-.37-2.73-.52-11.16-2.03-21.09-2.8-.11,0-.12-.16-.02-.18l16-3.33c.22-.05.19-.38-.04-.37l-44.05,1.25h0l-54.25,1.54c-.13,0-.22.13-.17.26l1.02,2.61c.13.33-.15.67-.5.61-2.68-.5-6.76-1.12-10.38-1.12-4.04,0-8.97.77-11.79,1.28-.25.04-.37.24-.37.44,0,.2.12.4.37.44,2.83.51,7.76,1.28,11.79,1.28,3.62,0,7.7-.62,10.38-1.12Z" style="fill: #1f3a6e;"/>
    <path d="M494.49,669.03c.04-.13-.04-.27-.18-.31-.12-.03-.24.03-.29.14-7.37,16.34-13.45,33.21-19.04,50.22-1.84,5.68-3.6,11.39-5.12,17.18-.04.13.04.27.18.31.12.03.24-.03.29-.14,7.36-16.35,13.45-33.21,19.04-50.22,1.84-5.68,3.6-11.39,5.12-17.18Z" style="fill: #1f3a6e;"/>
    <polygon points="436.35 272.9 436.16 272.9 436.16 589 436.35 589 443.58 581.89 443.54 581.89 443.54 280.01 443.58 280.01 639.9 280.01 647.12 272.9 436.35 272.9" style="fill: #1f3a6e;"/>
    <path d="M524.54,675.85c-.12,0-.23.08-.25.2-3.48,17.59-5.58,35.39-7.18,53.23-.51,5.95-.93,11.91-1.1,17.89,0,.14.11.25.24.26.12,0,.23-.08.25-.2,3.47-17.59,5.58-35.39,7.18-53.23.51-5.95.93-11.91,1.1-17.89,0-.14-.11-.25-.24-.26Z" style="fill: #1f3a6e;"/>
    <path d="M479.2,506.38l-8.24,8.24v31.91l8.24,8.24h24.71l8.24-8.24v-31.91l-8.24-8.24h-24.71ZM508.09,514.61h-5.97c-1.11,0-2,.9-2,2v22.12c0,2.21-1.79,4.01-4.01,4.01h-14.91c-1.11,0-2,.9-2,2v5.97c0,.45-.54.67-.85.35l-5.38-5.38v-30.25l7.06-7.06h23.05l5.38,5.38c.32.32.09.85-.35.85Z" style="fill: #1f3a6e;"/>
    <path d="M546.49,655.13l-3.32,16c-.02.11-.17.09-.18-.02-.77-9.93-2.28-18.36-2.8-21.09-.04-.2-.33-.2-.37,0-.52,2.73-2.03,11.18-2.8,21.11,0,.11-.16.12-.18.02l-3.32-15.99c-.05-.22-.38-.19-.37.04l1.53,54.11h0s1.25,44.16,1.25,44.16c0,.13.13.22.26.17l2.6-1.02c.33-.13.67.15.61.5-.5,2.68-1.12,6.76-1.12,10.38,0,4.04.77,8.97,1.28,11.79.04.25.24.37.44.37.2,0,.4-.12.44-.37.51-2.83,1.28-7.76,1.28-11.79,0-3.62-.62-7.7-1.12-10.38-.06-.35.28-.62.61-.5l2.61,1.02c.12.05.25-.04.26-.17l1.25-44.16h0s1.53-54.14,1.53-54.14c0-.23-.32-.27-.37-.04Z" style="fill: #1f3a6e;"/>
    <path d="M479.2,439.96l-8.24,8.24v31.91l8.24,8.24h24.71l8.24-8.24v-31.91l-8.24-8.24h-24.71ZM508.09,448.2h-5.97c-1.11,0-2,.9-2,2v22.12c0,2.21-1.79,4.01-4.01,4.01h-14.91c-1.11,0-2,.9-2,2v5.97c0,.45-.54.67-.85.35l-5.38-5.38v-30.25l7.06-7.06h23.05l5.38,5.38c.32.32.09.85-.35.85Z" style="fill: #1f3a6e;"/>
    <path d="M479.2,307.14l-8.24,8.24v31.91l8.24,8.24h24.71l8.24-8.24v-31.91l-8.24-8.24h-24.71ZM508.09,315.38h-5.97c-1.11,0-2,.9-2,2v22.12c0,2.21-1.79,4.01-4.01,4.01h-14.91c-1.11,0-2,.9-2,2v5.97c0,.45-.54.67-.85.35l-5.38-5.38v-30.25l7.06-7.06h23.05l5.38,5.38c.32.32.09.85-.35.85Z" style="fill: #1f3a6e;"/>
    <path d="M479.2,373.55l-8.24,8.24v31.91l8.24,8.24h24.71l8.24-8.24v-31.91l-8.24-8.24h-24.71ZM508.09,381.79h-5.97c-1.11,0-2,.9-2,2v22.12c0,2.21-1.79,4.01-4.01,4.01h-14.91c-1.11,0-2,.9-2,2v5.97c0,.45-.54.67-.85.35l-5.38-5.38v-30.25l7.06-7.06h23.05l5.38,5.38c.32.32.09.85-.35.85Z" style="fill: #1f3a6e;"/>
    <path d="M520.55,653.65l-6.9,14.8c-.05.1-.19.05-.17-.06,1.53-9.84,2-18.41,2.12-21.19,0-.2-.27-.27-.36-.08-1.13,2.54-4.54,10.4-7.57,19.88-.03.1-.18.08-.18-.03l.44-16.34c0-.23-.32-.27-.37-.04l-8.89,43.16-2.04,9.88s0,0,0,0l-8.92,43.27c-.03.13.08.24.21.22l2.77-.39c.35-.05.62.3.48.62-1.1,2.5-2.64,6.32-3.47,9.85-.93,3.93-1.31,8.91-1.46,11.77-.01.25.15.42.35.46.19.05.42-.03.52-.26,1.15-2.63,3.03-7.26,3.95-11.18.83-3.53,1.16-7.63,1.3-10.36.02-.35.41-.54.71-.34l2.3,1.59c.11.07.25.02.29-.11l11.35-42.7s0,0,0,0l13.91-52.31c.06-.22-.25-.33-.35-.13Z" style="fill: #1f3a6e;"/>
    <path d="M428.5,649.39c3.88-4.53,7.7-9.13,11.34-13.89.08-.11.06-.27-.05-.35-.1-.08-.23-.07-.32.01-13.09,12.25-25.19,25.47-36.9,39.03-3.88,4.53-7.7,9.13-11.34,13.88-.08.11-.06.27.05.35.1.08.23.07.32-.01,13.08-12.26,25.19-25.47,36.91-39.02Z" style="fill: #1f3a6e;"/>
    <path d="M436.97,674.85l6.33-7.86,27.63-34.29c.14-.18-.1-.41-.27-.26l-12.32,10.72c-.08.07-.2-.03-.14-.12,5.4-8.37,9.3-16.01,10.54-18.5.09-.18-.14-.36-.29-.22-2.07,1.86-8.37,7.66-14.99,15.1-.07.08-.2,0-.16-.1l7.03-14.75c.1-.21-.19-.38-.32-.19l-25.66,35.83h0s-5.88,8.2-5.88,8.2h0s-25.73,35.92-25.73,35.92c-.08.11-.02.25.1.29l2.69.76c.34.1.45.52.18.76-2.02,1.84-4.98,4.7-7.17,7.59-2.44,3.21-4.81,7.61-6.11,10.17-.11.22-.03.44.13.56.16.12.39.14.58-.03,2.12-1.94,5.71-5.4,8.16-8.61,2.19-2.88,4.16-6.5,5.39-8.94.16-.32.6-.33.78-.03l1.45,2.38c.07.11.22.12.31.02l27.72-34.4s0,0,0,0Z" style="fill: #1f3a6e;"/>
    <path d="M410.54,646.64l-11.09,6.69c-.07.04-.15-.05-.09-.12,5.36-5.8,9.44-11.22,10.75-13,.1-.13-.06-.3-.2-.21-1.87,1.17-7.59,4.84-13.78,9.75-.07.05-.16-.03-.11-.1l7.5-10.55c.11-.15-.1-.32-.23-.19l-34.34,33.71c-.09.09-.07.25.05.3l2.52,1.21c.32.15.35.59.05.78-2.31,1.46-5.71,3.78-8.37,6.24-2.96,2.74-6.05,6.66-7.78,8.96-.15.2-.11.43.03.58.14.15.36.21.57.07,2.42-1.55,6.56-4.33,9.52-7.08,2.66-2.46,5.22-5.69,6.85-7.88.21-.28.65-.22.78.11l1.02,2.6c.05.12.2.16.3.07l36.21-31.73c.14-.12-.02-.33-.17-.24Z" style="fill: #1f3a6e;"/>
    <path d="M470.36,694.23l25.02-48c.11-.2-.17-.38-.31-.2l-9.97,12.93c-.07.09-.2,0-.16-.09,3.65-9.27,5.98-17.52,6.7-20.21.05-.2-.21-.32-.33-.16-1.66,2.23-6.7,9.15-11.73,17.75-.05.09-.2.04-.17-.07l4-15.85c.06-.22-.26-.33-.35-.12l-18.12,40.17h0s-4.15,9.2-4.15,9.2h0s-18.17,40.27-18.17,40.27c-.05.12.03.25.16.26l2.79.22c.35.03.54.43.33.71-1.62,2.2-3.96,5.59-5.54,8.85-1.76,3.63-3.22,8.4-4,11.17-.07.24.06.44.24.53.18.09.41.06.56-.14,1.69-2.32,4.54-6.42,6.3-10.05,1.58-3.26,2.81-7.19,3.53-9.83.09-.34.52-.44.76-.18l1.89,2.05c.09.1.24.07.3-.04l20.42-39.18s0,0,0,0Z" style="fill: #1f3a6e;"/>
    <path d="M529.4,506.38l-8.24,8.24v31.91l8.24,8.24h24.71l8.24-8.24v-31.91l-8.24-8.24h-24.71ZM558.3,514.61h-5.97c-1.11,0-2,.9-2,2v22.12c0,2.21-1.79,4.01-4.01,4.01h-14.91c-1.11,0-2,.9-2,2v5.97c0,.45-.54.67-.85.35l-5.38-5.38v-30.25l7.06-7.06h23.05l5.38,5.38c.32.32.09.85-.35.85Z" style="fill: #1f3a6e;"/>
    <path d="M386.21,617.2l-11.98,4.94c-.08.03-.14-.07-.07-.13,6.17-4.92,11.03-9.66,12.59-11.22.12-.11-.01-.3-.16-.24-2.03.87-8.24,3.64-15.1,7.55-.07.04-.15-.05-.09-.11l9.01-9.29c.13-.13-.05-.33-.19-.22l-39.05,28.12c-.11.08-.1.23,0,.31l2.3,1.58c.29.2.25.64-.07.78-2.5,1.1-6.22,2.87-9.22,4.9-3.34,2.27-6.99,5.67-9.04,7.68-.18.18-.17.41-.06.57.11.17.33.26.55.16,2.63-1.16,7.14-3.29,10.48-5.56,3-2.03,6.02-4.83,7.96-6.75.25-.25.67-.12.75.23l.62,2.73c.03.13.17.19.28.12l40.6-25.88c.15-.1.03-.33-.14-.26Z" style="fill: #1f3a6e;"/>
    <path d="M465.89,655.22c.06-.12.01-.28-.11-.34-.11-.06-.24-.02-.31.07-10.61,14.45-20.07,29.68-29.09,45.15-2.98,5.17-5.89,10.39-8.59,15.73-.06.12-.01.28.11.34.11.06.24.02.31-.07,10.6-14.45,20.07-29.67,29.09-45.15,2.98-5.17,5.89-10.39,8.59-15.74Z" style="fill: #1f3a6e;"/>
  </g>
</svg>