<?xml version="1.0" encoding="UTF-8"?>
<svg id="Layer_1" xmlns="http://www.w3.org/2000/svg" version="1.1" viewBox="0 0 1080 1080">
  <!-- Generator: Adobe Illustrator 29.5.1, SVG Export Plug-In . SVG Version: 2.1.0 Build 141)  -->
  <defs>
    <style>
      .st0 {
        fill: #1f3a6e;
      }

      .st1 {
        fill: #fff;
      }
    </style>
  </defs>
  <g>
    <path class="st0" d="M205.01,983.14c2.23-2.01,3.9-3.68,5.02-5.02,1.11-1.34,2.12-2.79,3.01-4.35,1.56-3.46,2.34-7.19,2.34-11.21v-79.29c0-2.56-.11-4.6-.33-6.11-.22-1.51-.67-3.09-1.34-4.77-.67-1.67-1.45-3.15-2.34-4.43-.89-1.28-2.34-3.09-4.35-5.44h48.84c-1.9,2.23-3.32,4.04-4.27,5.44-.95,1.4-1.76,2.82-2.43,4.27-1.23,3.34-1.84,7.03-1.84,11.04v25.76h47.34v-25.76c0-4.01-.61-7.7-1.84-11.04-.67-1.45-1.48-2.87-2.43-4.27-.95-1.39-2.37-3.21-4.27-5.44h48.84c-3.46,4.01-5.63,7.25-6.52,9.7-.78,1.56-1.28,3.07-1.51,4.52-.22,1.45-.33,3.63-.33,6.52v79.29c0,4.01.78,7.75,2.34,11.21,1.11,2.01,2.34,3.74,3.68,5.19,1,1.12,2.45,2.51,4.35,4.18h-52.53c2.19-2.01,3.83-3.65,4.93-4.93,1.1-1.28,2.05-2.76,2.86-4.43,1.61-3.35,2.42-7.03,2.42-11.04v-33.79h-47.34v33.79c0,1.9.22,3.79.68,5.69.46,1.9,1.16,3.91,2.13,6.02.96,2.12,3.43,5.02,7.4,8.7h-52.53Z"/>
    <path class="st0" d="M344.35,983.14c2.68-2.12,4.24-3.4,4.68-3.85,1.56-1.34,3.23-3.18,5.02-5.52,2.45-3.35,4.52-7.03,6.19-11.04l32.79-79.29c1.67-3.9,2.51-7.53,2.51-10.87,0-1.56-.25-3.07-.75-4.52-.5-1.45-1.37-3.29-2.59-5.52h37.97l38.64,100.2c1.56,4.13,3.46,7.81,5.69,11.04,1.34,1.79,2.56,3.24,3.68,4.35,1.11,1.12,3.07,2.79,5.86,5.02h-56.04c2.34-2.34,3.99-4.46,4.93-6.36.95-1.9,1.42-4.07,1.42-6.52s-.45-4.85-1.34-7.53l-4.52-12.71h-39.14l-4.68,12.71c-.67,1.9-1.14,3.46-1.42,4.68-.28,1.23-.42,2.57-.42,4.01,0,2.12.36,3.93,1.09,5.44.72,1.5,2.31,3.6,4.77,6.27h-44.33ZM409.59,894.32l-13.38,36.3h26.1l-12.71-36.3Z"/>
    <path class="st0" d="M490.55,983.14c2.61-2.34,4.33-4.01,5.18-5.02s1.84-2.45,2.98-4.35c1.58-3.46,2.38-7.14,2.38-11.04v-79.46c0-4.24-.61-7.92-1.84-11.04-.67-1.56-1.4-3.04-2.17-4.43-.78-1.39-2.07-3.15-3.85-5.27h63.06c7.7,0,15,1.28,21.91,3.85,6.91,2.57,12.77,6.25,17.56,11.04,10.59,9.93,15.89,24.59,15.89,43.99s-5.19,33.57-15.56,44.83c-10.37,11.26-24.15,16.89-41.32,16.89h-64.23ZM533.37,881.44v81.97c2.79.56,5.07.89,6.86,1,1.78.11,3.18.17,4.18.17,10.82,0,19.24-3.74,25.26-11.21,6.02-7.47,9.03-18.07,9.03-31.78s-2.96-23.59-8.87-30.61c-5.91-7.03-14.5-10.54-25.76-10.54-3.01,0-6.58.33-10.71,1Z"/>
    <path class="st0" d="M603.96,983.14c2.68-2.12,4.24-3.4,4.68-3.85,1.56-1.34,3.23-3.18,5.02-5.52,2.45-3.35,4.52-7.03,6.19-11.04l32.79-79.29c1.67-3.9,2.51-7.53,2.51-10.87,0-1.56-.25-3.07-.75-4.52-.5-1.45-1.37-3.29-2.59-5.52h37.97l38.64,100.2c1.56,4.13,3.46,7.81,5.69,11.04,1.34,1.79,2.56,3.24,3.68,4.35,1.11,1.12,3.07,2.79,5.86,5.02h-56.04c2.34-2.34,3.99-4.46,4.94-6.36.95-1.9,1.42-4.07,1.42-6.52s-.45-4.85-1.34-7.53l-4.52-12.71h-39.14l-4.68,12.71c-.67,1.9-1.14,3.46-1.42,4.68-.28,1.23-.42,2.57-.42,4.01,0,2.12.36,3.93,1.09,5.44.72,1.5,2.31,3.6,4.77,6.27h-44.33ZM669.2,894.32l-13.38,36.3h26.1l-12.71-36.3Z"/>
    <path class="st0" d="M750.66,983.14c4.12-3.57,6.91-6.75,8.37-9.54,1.45-2.79,2.17-6.41,2.17-10.87v-79.29c0-4.35-.56-8.03-1.67-11.04-.56-1.45-1.28-2.84-2.18-4.18-.89-1.34-2.29-3.23-4.18-5.69h54.7c30.78,0,46.17,9.87,46.17,29.61,0,14.16-8.47,23.7-25.43,28.6l9.37,14.72,5.86,8.03,14.22,18.74c3.35,3.9,6.55,7.33,9.62,10.29,3.06,2.96,7.28,6.5,12.63,10.62h-33.46c-3.01,0-5.77-.72-8.28-2.18-2.51-1.45-5.27-4.02-8.28-7.71-5.58-6.81-11.32-14.69-17.23-23.63-3.79-6.14-6.77-11.25-8.95-15.33-2.17-4.08-4.82-9.58-7.95-16.51,4.12-.33,7.5-.86,10.12-1.59,2.62-.73,4.93-1.76,6.94-3.1,6.91-4.58,10.37-10.11,10.37-16.59,0-10.72-7.46-16.08-22.37-16.08h-2.86c-1.01,0-2.58.17-4.71.5v81.76c0,4.47.66,8.04,1.97,10.72,1.31,2.68,3.95,5.92,7.89,9.72h-52.86Z"/>
  </g>
  <g>
    <path class="st0" d="M638.79,470.04c0,6.71-42.15,12.14-94.14,12.14s-94.14-5.43-94.14-12.14,42.14-12.15,94.14-12.15,94.14,5.43,94.14,12.15Z"/>
    <path class="st0" d="M542.66,97.34c-129.88,0-235.16,148.51-235.16,331.7s105.28,331.71,235.16,331.71,235.16-148.51,235.16-331.71-105.28-331.7-235.16-331.7ZM696.85,313.83l1.89,3.76c2.69,5.8,3.41,12.09,2.06,18.37-1.27,5.89-3.95,11.21-7.91,15.78-2.06,2.39-4.28,4.56-6.94,6.3-6.23,4.11-13.8,5.39-21.12,4.33-1.47-.21-2.81-.51-4.26-.3-2.73.39-5.06,2.45-6.01,5.02-.24.35.04.66.26.36.59-.68,1.21-1.18,1.88-1.65l.24-.17.24-.16.24-.16.25-.12c2.97-1.83,6.75-1.79,9.05.87l.2.23.16.23c.63.91.61,2.39.02,2.83-1.48,1.09-4.11-.23-6.46,3.81-.93,1.61-1.34,3.29-1.78,5.08l-1.93,7.91c-1.1,3.25-2.37,6.32-4.27,9.19-2.28,3.43-4.21,6.92-4.85,11.05-.05.34-.13.71.19.94,1.47,1.01,2.98,1.91,4.21,3.22,1.52,1.64,2.77,3.64,2.91,5.92.22,3.87-2.05,7.18-5.34,8.94-.88.48-1.93.75-2.61,1.43-.46.62-.16,1.8-.23,2.48-.12,1.07.32,1.73.98,2.43,1.52,1.62,2.96,3.22,4.01,5.2,1.32,2.46,1.64,5.33.61,7.93-.97,2.44-2.7,4.3-4.7,5.95-.67.56-1.69,1.13-2.03,1.98-.39,1.73.49,3.64,1.83,4.73l3.21,2.62c4.66,3.8,4.77,10.54.76,14.73-1.65,1.72-3.8,2.65-6.01,3.45-.4.14-.76.14-.75.67l.36,16.48c.07,3.22-.03,6.25-.89,9.33l-.24.85c-.18.67,3.17,1.07,3.57,4.92.24,2.31-.62,4.51-2.5,5.97l-.08,2.66c-.01.45.24.65.57.84,2.98,1.69,4.55,4.85,3.85,8.24-.14.67-.27,1.21.3,1.69.97.82,1.59,2.22.93,3.34-.27.48.66.65,1.56,1.81,2.8,3.63,3.64,8.62,4.07,13.23l.61,6.41c.27,2.91.95,5.62,1.85,8.4.88,2.7,2.25,5.02,4.03,7.26.32.41.93,1.42.27,1.79-4.26,2.37-10.97,3.36-16.02,3.71-.29.02-.44.06-.42.26,0,.08.1.23.19.33l.17.24.18.21,1.02,1.62.13.26c.49,1.02.58,2.06.42,3.18l-1.68,11.98-1.48,6.98-1.63,6.2c-.16.61-.5,1.12-.95,1.4-.52.32-1.16.32-1.72.02-.78-.43-1.54-3.54-1.94-5.29l-1.6-7.07c-1.16-5.14-1.94-10.22-2.27-15.53-.15-2.44,2.69-4.55,2.18-4.78-.16-.08-.47-.02-.65-.03-4.63-.29-9.09-.99-13.44-2.44-.7-.23-1.35-.49-1.91-.94-.45-.35-.26-1.02.06-1.45,2.76-3.76,5.22-9.97,5.62-14.5l.73-8.33c.43-4.91,1.21-11.05,5.05-14.2.24-.2.45-.43.31-.62l-.42-.57c-.54-1.94,1.86-2.5,1.44-3.65-1.37-3.76.3-8,4.26-9.48.15-.95.17-1.84-.06-2.75-2.86-1.98-3.69-5.87-1.8-8.77.99-1.52,2.94-1.91,2.78-2.45-.86-2.72-1.32-5.37-1.24-8.28l.44-16.46c.01-.26.08-.56-.12-.71-.08-.06-.33.08-.46.12l-4.43,1.2-.34.09-18.57,3.14-17.29,1.76-.55,12.03c-.03.67.16.93.68,1.31,1.32.97,2.07,2.48,1.98,4.02-.09,1.6-.87,2.95-2.31,3.83-.28.18-.06.86.08,1.09,1.15,2.02-.05,4.54.79,4.99,2.08,1.09,3.31,3.14,3.3,5.52,0,.96-.06,1.88-.43,2.76-.48,1.13,1.93,1.41,1.06,3.94,4.25,4.45,4.04,10.7,4.45,16.42l.62,8.6c.65,4.22,2.36,7.95,5.05,11.23.19.23.18.75-.03.91-2.16,1.61-8.89,2.57-12.29,2.87-.27.02-.44-.08-.47.22-.01.09,1.74,2.7,1.42,5.53l-.82,6.98-2.61,12.26-.98,3.84c-.11.42-.44.75-.72.84-1.07.33-1.79-1.16-2.18-2.75-1.65-6.73-2.98-13.44-3.78-20.32-.26-2.24.09-4.22,1.31-6.1.17-.26.07-.53-.15-.53h-.48c-3.1-.27-11.38-1.38-12.02-2.84-.19-.43.07-.92.3-1.31,1.95-3.35,3.5-6.81,3.97-10.69l.6-9.7c.25-4.15.72-8.21,2.42-12,.53-1.2,1.07-2.35,2.06-3.18.29-.25.38-.47.17-.84-.69-1.26,1.17-2.09,1.03-2.63-1-3.82-.45-7.37,3.1-9.12.14-.08.18-.45.17-.59l-.08-1.04c-.1-1.34-.05-2.53.66-3.68.11-.19-.11-.53-.26-.63-2.01-1.34-2.92-3.72-1.91-5.93.39-.86,1.08-1.42,1.8-2.07l-.24-12.91c-14.94,1.13-29.45,1.55-44.14,1.62-.38,0-.54,0-.65.19-.09.18-.01.45,0,.7l.31,10.19c.11,3.6-1.86,6.51-1.24,6.79,2.03.92,3.37,2.67,3.62,4.7.26,2.22-.74,4.31-2.55,5.57.39,2.04-.39,3.39.51,3.88,3.43,1.87,4.69,6.03,3.52,9.88-.36,1.19,2.4,1.84,1.53,3.95-.12.3-.44.55-.02.82,4.14,2.64,5.06,10.76,5.59,15.74l.82,7.79c.82,5.56,2.94,10.6,6.11,15.21.48.82-1.02,1.59-1.63,1.81-4.73,1.67-9.53,2.49-14.55,2.67-.21.01-.53-.04-.6.15-.04.11.09.34.2.47,1.55,1.75,2.13,3.74,1.71,6.06-.52,6.05-1.55,11.93-3.01,17.81l-1.57,6.3c-.39,1.58-.76,3.12-2.07,3.1-.41,0-.88-.26-1.02-.73l-1.87-6.23c-1.92-7.45-3.26-14.91-3.69-22.64-.08-1.59,1.09-2.82,1.92-3.94.18-.13.15-.3-.05-.34h-.42s-.4-.02-.4-.02h-.37s-.34-.04-.34-.04l-4.74-.49c-3.3-.52-6.51-1.1-9.53-2.48l-.24-.19c-.47-.38-.47-.93-.13-1.44,2.87-4.46,4.93-9.23,5.58-14.53l.97-7.91c.39-5.94,1.14-12.03,5.72-15.97.33-.27-.06-.81-.16-1.04-.9-2.18,1.95-2.55,1.71-3.49-1.12-4.36-.21-8.56,3.97-10.44l.13-3.73c-1.81-1.26-2.76-3.12-2.69-5.21.07-2.01,1.16-3.81,3.07-4.82.39-.21.6-.6.4-1.05-.98-2.21-1.38-4.48-1.31-6.93l.27-10.12c-14.74-.05-29.14-.48-43.67-1.57-.31-.02-.41-.07-.57-.01-.1.04-.24.23-.24.44l-.04,2.45-.31,9.56c1.21,1.04,2.47,2.34,2.49,4.03.01,1.74-.69,3.25-2.17,4.33-.49.36-.05,1.01.12,1.41.58,1.33.38,2.71.2,4.24,3.11,1.77,4.48,5.27,3.19,8.65l-.24.63c-.04.1,2,1.22,1.32,2.75-.29.66.16.77.45,1.16,1.99,2.63,2.96,5.75,3.37,9.04l.39,8.26c.28,5.92.52,10.94,3.47,16.28l1.5,2.72c.43.78-.62,1.44-1.93,1.72-3.52.74-7.01,1.26-10.69,1.43.89,1.65,1.77,3.32,1.74,5.21-.08,3.35-.73,6.52-1.3,9.84-.6,3.45-2.41,13.26-3.7,14.5-.23.23-.71.29-.98.03-.51-.48-.79-1.15-.98-1.87-1.61-6.13-2.9-12.23-3.87-18.51-.47-3.03-.61-6,1.06-8.48l.36-.53c.12-.17-.05-.33-.32-.28l-8.86-1.37c-1.31-.2-2.55-.64-3.67-1.33-.59-.35-.39-1.05-.04-1.56,3.04-4.49,4.49-9.54,4.8-14.98l.52-9.29c.5-3.96,1.74-8.52,4.41-11.51-.38-2.41,1.34-2.65,1.1-3.31-1.32-3.68-.04-7.62,3.55-9.36-.57-1.82-.09-3.72.18-5.26-1.31-1.13-2.34-2.48-2.37-4.21-.04-1.66.95-3.07,2.26-4.11l-.15-13.1c-14.02-1.39-27.95-2.63-41.43-6.54l.61,18.61c.08,2.64-.39,5.06-1.45,7.43l2.17,1.63c.63.47,1.16,1.35,1.43,2.13.99,2.79-.19,5.81-2.71,7.36l.31,2.9c3.49,1.64,5.3,5.38,4.24,9.1-.21.73.02,1.1.56,1.57,1.82,1.62.24,3.4.67,3.75,1.49,1.18,2.51,2.69,3.22,4.46,1.11,2.81,1.7,5.69,1.94,8.73l.64,7.98c.29,3.66,1.07,7.15,2.55,10.51l3.45,6.39c.32.6-.02,1.26-.61,1.53-3.49,1.61-10.98,2.77-15.14,2.88-1.09.03,2.17,1.9,1.55,5.87l-1.73,11.11c-.55,3.56-2.83,14.91-4.42,16.05-1.36.96-2.33-1.45-2.84-3.57l-1.89-7.77c-1.29-5.34-1.9-10.7-2.49-16.16-.22-2.08.27-3.8,1.89-5.2.12-.11.16-.37-.08-.44-.17.05-.28.05-.43.04h-.41c-3.3-.09-6.48-.57-9.63-1.49l-4.5-1.31-.28-.12-.54-.26-.25-.16-.21-.2c-.34-.31-.17-.9.16-1.52l.14-.26,2.07-3.18c1.61-2.47,2.48-5.24,3.1-8.14l.07-.34.07-.35,1.26-11.41c.55-4.98,1.56-10.48,5.53-13.73l.24-.31c-.43-.81-.91-1.78-.28-2.53l1.49-1.77c-1.47-3.95.58-8.23,4.45-9.85.18-.88.11-1.75.01-2.74-3.04-2-3.86-6.16-1.63-9.07.61-.8,1.47-1.2,2.41-1.74-.97-3.51-1.34-6.93-1.2-10.6l.66-17.52c-4.52-1.47-8.31-3.5-9.61-8.16-.96-3.4,0-6.79,2.46-9.29l4-3.3c1.27-1.04,2.76-3.61,1.59-5.07l-4.7-4.56c-2.4-3.17-2.91-7.01-1.09-10.62,1.87-3.7,4.98-5.78,4.99-7.02l.03-3.39c-.66-.57-1.43-.85-2.21-1.21-2.97-1.34-5.18-3.76-5.92-6.96-.51-2.23-.07-4.48,1.33-6.31,1.64-2.15,3.7-3.86,6.09-5.23.03-1.42-.51-2.65-.98-3.92-.75-2.08-1.61-3.97-2.86-5.82-3.58-5.34-5.81-11.21-6.96-17.54-.62-3.43-2.1-8.5-5.4-9.27l-3.11-.72c-.5-.12-.89-.34-1.08-.66-.85-1.53,1.42-5.06,5.66-5.16,3-.08,5.43,1.49,7.87,3.45-1.08-4.01-4.83-6.15-8.73-5.59-7.93,1.12-14.51.83-21.58-3.35-8.99-5.33-15.02-14.51-16.5-24.87-1.01-7.09.33-12.51,3.62-18.75,2.18-4.14.21-7.75-3.7-10.16l-5.59-3.45c-2.2-1.09-4.64-1.23-7.11-1.35-.26.13-.48-.11-.33-.33,4.17-3.4,7.98-3.86,13.35-2.34-1.85-4.08-2.71-8.16-2.64-12.45,3.28,1.12,6.19,2.26,9.22,3.96-.17-3.18-.12-6.06.68-9.07,1.41,2.2,2.59,4.15,4.13,6.14-.04.38.42.56.35.09.4-3.43,1.89-6.68,4.58-8.86-.29,2.41-.58,4.58.03,6.78.69,2.5,1.47,4.88,2.02,7.41.26,1.21.78,2.23,1.29,3.32,1.13,2.41,3.46,3.87,6.15,3.49l5.41-.77c1.65-.24,3.25-.27,4.9-.14-.77,1.99-1.31,3.9-1.66,5.84-2.29,12.85,1.29,26.37,10.09,38.06l.3.37,2.24,2.51,2.74,2.72c1.92,1.73,3.98,3.23,6.15,4.51l-1.32,1.75c-1.34,1.85-1.88,4.01-1.57,6.35.36,2.68,1.18,5.36,2.57,7.7.32.56,5.34,8.7,5.34,8.7,1.42,2.09,1.92,4.61,1.31,7.23-.17.73-.59,2.13-1.51,2.06-1.1-.84-2.39-2.45-3.36-1.61-.26.23-.41.77-.39,1.23.14,3.63,2.2,6.79,5.11,8.83,2.26,1.58,4.72,2.22,7.47,2.06,3.12-.17,5.77-1.59,7.44-4.29,3.94-6.33.89-13.07-.3-12.45-.21.11-.27,3.69-2.87,4.68-2.76,1.05-5.71-.23-7.38-2.57-3.22-4.54-2.64-9.97,1.37-13.46,1.99-1.74,4.41-2.03,7.1-1.2-2.68-4.54-3.01-10.41,1.44-12.8,3.13-1.68,7.51-2.21,10.66-.46.07-.78-.5-1.07-.81-1.47-1.6-2.01-3.9-2.62-6.41-2.26-7.31,1.02-14.55-.35-20.95-3.98-1.88-1.07-3.5-2.32-5.11-3.74-10.57-9.33-16.44-24.57-13.47-38.46,1.2-5.6,3.98-10.38,7.88-14.41.93-.97,1.73-1.91,2.44-3,2.02-3.13-.23-6.57-2.9-9.07-3.34-3.12-7.39-5.16-11.87-6.49,6.78-2.81,14.31-.87,19.28,4.23-1.62-6.07-1.75-12.14-.13-18.15,4.84,3.73,10.03,8.08,12.45,13.35.37-.84.32-1.52.4-2.26.62-6.12,4.32-12.28,10.27-14.61-2.88,5.21-4.19,10.82-3.77,16.58.12,1.65.8,3.22,2.05,4.22,2.78,2.23,7.33.94,11.88,2.02,3.36.79,6.53,1.97,9.51,3.75,5.8,3.48,10.11,8.69,12.85,14.88,2.17,4.9,3.49,10,4.08,15.35.84,7.51-.72,14.98-4.58,21.39-1.37,2.28-2.89,4.13-4.66,6.05l-4.97,4.45c-2.54,2.29-3.78,5.26-3.32,8.67.46,3.36,1.47,6.52,2.68,9.73,3.3-1.23,6.59-.65,9.35,1.35,3.12,2.25,4.91,6.04,4.44,9.94-.31,2.58-1.9,4.77-3.84,6.34-.48.39-1.08.13-1.35-.27l-1.22-1.79c-.39-.59-.92-.82-1.58-.8-.6.03-1.06.33-1.44.95-1.68,2.69.33,6.05,2.7,8.21,6.42,5.85,16.11,6.8,24.24,4.25,2.05-.64,3.76-1.75,5.43-3.03,2.66-2.05,4.45-4.84,5.15-8.12.45-2.07.5-4.07-.38-6.01-.58.02-.96.35-1.28.71-2.62,2.92-6.51,3.94-10.19,2.7-3.63-1.23-6.18-4-7.24-7.67-1.42-4.92-.08-10.06,3.83-13.45,3.2-2.79,7.33-4.23,11.6-3.72,3.83.47,7.43,2.01,10.33,4.45,1.5,1.27,2.35,2.69,3.47,4.53.22-2.5-.29-4.84-1.09-7.05-.94-2.57-2.68-4.43-5.14-5.55l-7.18-3.25c-3.2-1.45-6.09-3.22-8.65-5.61-1.22-1.14-2.37-2.12-3.42-3.47-5.51-7.01-7.78-15.66-8.3-24.56-.29-4.87.25-9.6,1.78-14.2,3.19-9.61,9.76-15.1,18.73-19.28,1.67-.78,3.27-1.86,4.1-3.54,1.66-3.37-1.13-8.79-3.45-11.96l-5.06-6.95s-.03-.06-.05-.07c-.24-.14.01-.41.18-.21.02.02.07.04.11.05,6.17,1.81,12.49,5.72,15.22,12.05l1.15-5.53c.89-2.77,2.02-5.35,3.31-7.96l2.38-4.82c1.83,3.3,3.31,6.56,4.69,10.01,1.07,2.7,1.65,5.28,2.1,8.37,1.45-3.35,3.46-5.89,6.33-7.89,2.89-2.03,6.04-3.41,9.64-3.43l-2.15,2.09c-3.63,3.54-7.03,8.31-7.39,13.46-.24,3.39,2.23,5.18,5.14,6.51,4.66,2.14,8.97,4.84,12.31,8.78,4.64,5.46,7.08,12.15,7.72,19.28.58,6.59-.18,13.06-2.27,19.31-2.16,6.43-5.92,11.95-11.35,16.01-3.03,2.26-6.4,3.69-9.83,5.24l-5.01,2.25c-3.85,1.74-4.95,7.4-4.98,11.83,1.27-1.71,2.26-3.28,3.81-4.57,3.57-2.98,7.88-4.69,12.54-4.51,5.42.21,10.67,4.01,12.58,9.17,1.76,4.77.62,10.23-3.17,13.63-4.16,3.73-10.5,3.66-14.13-.77-.23-.28-.72-.61-1-.25-.46.59-.63,1.44-.6,2.25.14,3.73,1.57,7.19,4.33,9.77,5.15,4.84,12.19,6.78,19.19,5.89,3.97-.51,7.54-1.96,10.43-4.65,1.63-1.51,2.87-3.19,3.57-5.32.68-2.07.44-4.65-1.29-6.14-1-.85-2.55-.07-3.2.85l-1.67,2.35c-3.65-2.73-4.34-7.23-2.33-11.15,2.58-5.04,8.45-7.29,13.91-4.98l1.79-7.05c1-3.91-.58-7.77-3.67-10.38-3.03-2.57-5.9-5.18-8.22-8.47-6.64-9.39-7.63-21.13-4.46-32.09,2.06-7.13,5.79-13.64,11.44-18.49,5.3-4.55,11.07-6.61,18.01-7.14,3.49-.27,6.97-1.74,7.67-5.21,1.33-6.55,1.03-12.29-3.28-17.45.04-.04.02-.09-.02-.11-.19-.12,0-.36.16-.18.02.02.07.04.13.04,1.78.56,3.62,1.32,5.03,2.75,1.9,1.91,3.33,4.24,4.25,6.77.78,2.11.87,4.19,1.07,6.5,1.95-3.76,4.82-6.71,7.91-9.58l4.08-3.8c.07-.13.21-.16.24-.04l.09.37.56,4.55c.34,2.84.46,5.64,0,8.46l-.38,2.27c-.02.12-.1.47.02.52.07.03.18-.15.22-.2l.23-.24c1.59-2.03,3.54-3.67,5.77-4.89l.27-.14.28-.17c3.05-1.37,6.54-2.25,9.72-1.35-4.91,2.69-8.59,6.09-11.2,10.56-1.72,2.92-2.84,6.7-.94,9.5l4.32,4.9c1.52,1.72,2.99,3.36,4.06,5.4,1.44,2.75,2.6,5.59,3.16,8.7,2.13,11.99-1.77,23.82-8.98,33.41l-1.99,2.25-2.52,2.52c-5.07,4.57-11.3,7.27-18.12,7.83l-8.29.13c-4.11.07-6.67,2.46-5.15,2.11l1.15-.26.37-.04c2.69-.23,5.17.1,7.57,1.3l.27.13.21.17c1.63.92,2.43,2.4,2.75,4.26l.06.37c.07,2.04-.44,3.93-1.25,5.77l-.13.29-.12.29-.13.3c-.06.12-.29.37-.26.49.07.33.41.05.75-.06,2.26-.71,4.68-.34,6.6,1.17,3.25,2.56,4.39,6.91,3.18,10.86-.77,2.53-2.39,4.55-4.73,5.69-2.69,1.31-5.9-.07-6.6-3.01l-.12-.77c-.03-.22-.43-.28-.6,0l-.26.45-.16.25-.15.25c-2.24,3.63.83,14.16,8.26,14.95,1.03.11,1.95.03,2.98-.09,5.5-.62,9.48-5.54,8.81-11.02-.19-1.53-2.2.44-2.93.8-1.38.68-2.69-2.66-2.07-5.88.22-1.18.66-2.27,1.26-3.24h0l.08-.13s.04-.05.05-.07l5.34-8.15c1.18-2.07,1.77-4.29,2.22-6.62.47-2.44-.06-4.7-1.54-6.72l-1.89-2.6c2.34-1.32,4.56-2.91,6.6-4.76l2.75-2.72,2.23-2.51.3-.37c8.8-11.69,12.38-25.21,10.09-38.06-.33-1.83-.83-3.64-1.53-5.52,1.76-.14,3.52-.05,5.32.13l3.31.34c2.13.01,3.99-1.13,5.27-2.82,1.47-1.95,2.2-4.29,2.74-6.7.8-3.58.83-7.21-.26-10.69-.28-.9,1.46.37,2.87,1.72,1.74,1.66,2.5,3.88,3.22,6.19l.1.29.41,2.99.02.35v.39s0,.41,0,.41c0,.13-.06.31.19.53,3.3-2.59,6.8-4.85,10.64-6.67l.62-.29c.27-.12.29.12.3.37.12,2.72-.11,5.23-.63,7.86l-.54,2.69c-.03.21-.09.44.06.55.17.13,2.86-2.45,9.03-1.3l.36.07c1.12.42,2.54.43,3.2,1.42-3.64.68-6.72,2.22-9.36,4.51-2.45,2.12-4.59,4.49-5.72,7.58-.77,2.08-.06,4.35.9,6.27Z"/>
    <path class="st1" d="M554.57,255.04c.77-.64,1.85-1.31,2.39-2.2l1.32-7.08c-2.42,1.27-4.13,3.05-5.86,4.94-.53.58-1.05,1.16-1.24,1.94.78,1.28,1.1,2.58,1.49,3.98l1.91-1.58Z"/>
    <path class="st1" d="M648.29,265.46c1.26-1,2.37-1.76,3.87-2.36.39-.64.62-1.29.76-1.95.42-1.87,1.11-3.46,2.01-5.31-2.64,1.09-4.74,2.71-6.85,4.51.27,1.72.29,3.24.2,5.11"/>
    <path class="st1" d="M633.13,261.45c.87-1.34,1.44-2.23,2.49-2.94.5-.42.61-1.01.47-1.67-.71-2.66-1.61-5.15-2.9-7.77l-1.96,5.84c-.21.56-.35,1.13-.18,1.72l2.09,4.82Z"/>
    <path class="st1" d="M532.26,253.93l3.6,2.88c.35-3.23,2.3-4.2.35-6.03-1.8-2.04-3.89-3.65-6.37-5.06l1.26,6.15c.17.83.46,1.56,1.15,2.06"/>
    <path class="st1" d="M453.46,261.6c.5-1.89,1.38-3.1,2.12-4.62.25-.59-.21-1.59-.4-2.18l-1.61-4.91c-1.25,1.98-3.58,7.95-2.95,8.63l2.83,3.07Z"/>
    <path class="st1" d="M433.36,265.18c.74,1.5,3.23,1.55,5.42,2.83-.41-1.79-.42-3.34-.54-5.04-2.44-1.48-4.92-2.51-7.76-3.35l1.09,1.95,1.79,3.62Z"/>
  </g>
</svg>