<?xml version="1.0" encoding="UTF-8"?>
<svg id="Layer_1" xmlns="http://www.w3.org/2000/svg" version="1.1" viewBox="0 0 1165.53 479.21">
  <!-- Generator: Adobe Illustrator 29.5.1, SVG Export Plug-In . SVG Version: 2.1.0 Build 141)  -->
  <defs>
    <style>
      .st0 {
        fill: #1f3a6e;
      }
    </style>
  </defs>
  <g>
    <g>
      <path class="st0" d="M502.27,270.18c2.06-1.85,3.6-3.4,4.64-4.64,1.03-1.24,1.96-2.57,2.78-4.02,1.44-3.19,2.16-6.64,2.16-10.35v-73.24c0-2.37-.1-4.25-.31-5.64-.21-1.39-.62-2.86-1.24-4.4s-1.34-2.91-2.16-4.09c-.83-1.18-2.16-2.86-4.02-5.02h45.12c-1.75,2.06-3.07,3.73-3.94,5.02-.88,1.29-1.62,2.6-2.24,3.94-1.13,3.09-1.7,6.49-1.7,10.2v23.8h43.73v-23.8c0-3.71-.57-7.11-1.7-10.2-.62-1.34-1.37-2.65-2.24-3.94-.88-1.29-2.19-2.96-3.94-5.02h45.12c-3.19,3.71-5.2,6.7-6.03,8.96-.72,1.44-1.19,2.83-1.39,4.17-.21,1.34-.31,3.35-.31,6.03v73.24c0,3.71.72,7.16,2.16,10.35,1.03,1.85,2.16,3.45,3.4,4.79.93,1.03,2.26,2.32,4.02,3.86h-48.52c2.02-1.85,3.54-3.37,4.55-4.56,1.01-1.18,1.89-2.55,2.64-4.09,1.49-3.09,2.24-6.49,2.24-10.2v-31.21h-43.73v31.21c0,1.75.21,3.5.63,5.25.42,1.75,1.07,3.61,1.97,5.56.89,1.96,3.17,4.64,6.83,8.04h-48.52Z"/>
      <path class="st0" d="M630.98,270.18c2.47-1.96,3.92-3.14,4.33-3.55,1.44-1.24,2.99-2.94,4.64-5.1,2.26-3.09,4.17-6.49,5.72-10.2l30.29-73.24c1.54-3.6,2.32-6.95,2.32-10.04,0-1.44-.23-2.83-.7-4.17-.46-1.34-1.26-3.04-2.4-5.1h35.08l35.69,92.55c1.44,3.81,3.19,7.21,5.25,10.2,1.24,1.65,2.37,2.99,3.4,4.02,1.03,1.03,2.83,2.58,5.41,4.64h-51.76c2.16-2.16,3.68-4.12,4.56-5.87.87-1.75,1.31-3.76,1.31-6.03s-.41-4.48-1.24-6.95l-4.17-11.74h-36.16l-4.33,11.74c-.62,1.75-1.06,3.19-1.31,4.33-.26,1.13-.39,2.37-.39,3.71,0,1.96.33,3.63,1,5.02s2.14,3.32,4.4,5.79h-40.95ZM691.24,188.13l-12.36,33.53h24.1l-11.74-33.53Z"/>
      <path class="st0" d="M766.03,270.18c2.41-2.16,4-3.71,4.79-4.64.79-.93,1.7-2.26,2.75-4.02,1.46-3.19,2.2-6.59,2.2-10.2v-73.4c0-3.91-.57-7.31-1.7-10.2-.62-1.44-1.29-2.81-2.01-4.09-.72-1.29-1.91-2.91-3.55-4.87h58.25c7.11,0,13.85,1.19,20.24,3.55,6.39,2.37,11.79,5.77,16.22,10.2,9.79,9.17,14.68,22.71,14.68,40.64s-4.79,31.01-14.37,41.41c-9.58,10.41-22.3,15.61-38.17,15.61h-59.33ZM805.59,176.23v75.71c2.57.52,4.69.83,6.34.93,1.65.1,2.94.15,3.86.15,9.99,0,17.77-3.45,23.33-10.35,5.56-6.9,8.34-16.69,8.34-29.36s-2.73-21.79-8.19-28.28c-5.46-6.49-13.39-9.73-23.79-9.73-2.78,0-6.08.31-9.89.93Z"/>
      <path class="st0" d="M870.79,270.18c2.47-1.96,3.92-3.14,4.33-3.55,1.44-1.24,2.99-2.94,4.64-5.1,2.26-3.09,4.17-6.49,5.72-10.2l30.29-73.24c1.54-3.6,2.32-6.95,2.32-10.04,0-1.44-.23-2.83-.7-4.17-.46-1.34-1.26-3.04-2.39-5.1h35.08l35.69,92.55c1.44,3.81,3.19,7.21,5.25,10.2,1.24,1.65,2.37,2.99,3.4,4.02,1.03,1.03,2.83,2.58,5.41,4.64h-51.76c2.16-2.16,3.68-4.12,4.56-5.87.87-1.75,1.31-3.76,1.31-6.03s-.41-4.48-1.24-6.95l-4.17-11.74h-36.16l-4.33,11.74c-.62,1.75-1.06,3.19-1.31,4.33-.26,1.13-.39,2.37-.39,3.71,0,1.96.33,3.63,1,5.02.67,1.39,2.14,3.32,4.4,5.79h-40.95ZM931.05,188.13l-12.36,33.53h24.1l-11.74-33.53Z"/>
      <path class="st0" d="M1006.3,270.18c3.81-3.3,6.39-6.23,7.73-8.81,1.34-2.57,2.01-5.92,2.01-10.04v-73.24c0-4.02-.52-7.42-1.54-10.2-.52-1.34-1.19-2.63-2.01-3.86-.83-1.24-2.11-2.99-3.86-5.25h50.53c28.43,0,42.65,9.12,42.65,27.35,0,13.08-7.83,21.89-23.49,26.42l8.65,13.6,5.41,7.42,13.13,17.31c3.09,3.61,6.05,6.77,8.88,9.5,2.83,2.73,6.72,6,11.67,9.81h-30.9c-2.78,0-5.33-.67-7.65-2.01-2.32-1.34-4.87-3.72-7.65-7.12-5.15-6.29-10.46-13.57-15.92-21.82-3.5-5.67-6.26-10.39-8.27-14.16-2.01-3.77-4.46-8.85-7.34-15.25,3.81-.31,6.93-.8,9.35-1.47,2.42-.67,4.56-1.62,6.41-2.87,6.39-4.23,9.58-9.34,9.58-15.32,0-9.9-6.89-14.86-20.67-14.86h-2.64c-.93,0-2.38.15-4.35.46v75.53c0,4.13.61,7.43,1.82,9.91,1.21,2.48,3.65,5.47,7.29,8.98h-48.83Z"/>
    </g>
    <g>
      <path class="st0" d="M573.2,334.93v-.71h3.71v-20.11h-2.17c-.89.04-1.66.36-2.29.96s-1.11,1.37-1.46,2.3c-.34.93-.52,1.94-.54,3.03h-1v-7h18.51v7h-1c-.02-1.12-.21-2.16-.57-3.11-.36-.95-.87-1.72-1.53-2.3s-1.46-.87-2.41-.87h-1.71v20.11h3.71v.71h-11.26Z"/>
      <path class="st0" d="M596.57,334.93v-.71h3.14v-20.11h-3.14v-.71h10.11v.71h-3.14v9.4h8.23v-9.4h-3.14v-.71h10.12v.71h-3.14v20.11h3.14v.71h-10.12v-.71h3.14v-10h-8.23v10h3.14v.71h-10.11Z"/>
      <path class="st0" d="M626.88,314.1v-.71h10.11v.71h-10.11ZM626.88,334.93v-.71h10.11v.71h-10.11ZM630.02,334.5v-21.11h3.83v21.11h-3.83Z"/>
      <path class="st0" d="M661.97,335.27l-12.46-19.86h-.11v18.8h3.14v.71h-7.4v-.71h3.14v-20.11h-3.14v-.71h7.74l8.74,13.89h.11v-13.17h-2.86v-.71h6.83v.71h-2.86v21.17h-.89Z"/>
      <path class="st0" d="M673.82,334.93v-.71h3.14v-20.11h-3.14v-.71h9.83v.71h-2.86v20.11h2.86v.71h-9.83ZM680.16,326.07v-1.46l9.54-10.71h1.23l-10.77,12.17ZM689.31,334.5l-8.23-10.54,2.71-2.43,10.31,12.97h-4.8ZM685.91,334.93v-.71h9.94v.71h-9.94ZM685.97,314.1v-.71h8.08v.71h-8.08Z"/>
      <path class="st0" d="M715.39,314.1v-.71h10.66v.71h-10.66ZM715.39,334.93v-.71h12.08c.95,0,1.76-.28,2.41-.83.66-.55,1.17-1.29,1.53-2.2.36-.91.55-1.9.57-2.97h1v6.71h-17.6ZM718.76,334.5v-21.11h3.83v21.11h-3.83Z"/>
      <path class="st0" d="M741.73,314.1v-.71h10.11v.71h-10.11ZM741.73,334.93v-.71h10.11v.71h-10.11ZM744.88,334.5v-21.11h3.83v21.11h-3.83Z"/>
      <path class="st0" d="M759.99,334.93v-.71h3.14v-20.11h-3.14v-.71h9.83v.71h-2.86v20.11h2.86v.71h-9.83ZM766.33,326.07v-1.46l9.54-10.71h1.23l-10.77,12.17ZM775.48,334.5l-8.23-10.54,2.71-2.43,10.31,12.97h-4.8ZM772.08,334.93v-.71h9.94v.71h-9.94ZM772.13,314.1v-.71h8.08v.71h-8.08Z"/>
      <path class="st0" d="M804.28,319.25c-.02-.93-.21-1.79-.57-2.56s-.87-1.4-1.53-1.87c-.66-.48-1.46-.71-2.41-.71h-11.66v-.71h17.17v5.86h-1ZM788.1,334.93v-.71h12.51c.95,0,1.76-.28,2.41-.83.66-.55,1.17-1.29,1.53-2.2.36-.91.55-1.9.57-2.97h1v6.71h-18.03ZM791.48,334.5v-20.83h3.83v20.83h-3.83ZM799.73,328.76c-.02-1.07-.16-1.91-.43-2.51-.27-.61-.72-1.04-1.36-1.3-.64-.26-1.55-.39-2.73-.39v-.71c1.18,0,2.1-.11,2.76-.34s1.11-.63,1.37-1.2c.26-.57.38-1.37.38-2.4h1v8.86h-1Z"/>
      <path class="st0" d="M827.9,334.93v-.71h6.86v.71h-6.86ZM830.36,334.5l7.46-21.46h.86l-1.74,4.92-5.63,16.54h-.94ZM833.47,328.19v-.71h9.26v.71h-9.26ZM842.02,334.5l-5.26-15.71h-.11l-.2-.83,1.37-4.92h.86l7.17,21.46h-3.83ZM838.59,334.93v-.71h9.8v.71h-9.8Z"/>
      <path class="st0" d="M885.47,320.39c-.02-1.12-.21-2.16-.57-3.11-.36-.95-.87-1.72-1.53-2.3s-1.46-.87-2.41-.87h-11.94v-.71h17.46v7h-1ZM869.02,334.93v-.71h10.34v.71h-10.34ZM872.39,334.5v-21.11h3.83v21.11h-3.83ZM880.64,328.76c-.02-1.07-.16-1.91-.43-2.51s-.72-1.04-1.36-1.3c-.64-.26-1.55-.39-2.73-.39v-.71c1.18,0,2.1-.11,2.76-.34s1.11-.63,1.37-1.2c.26-.57.39-1.37.39-2.4h1v8.86h-1Z"/>
      <path class="st0" d="M905.99,335.27c-1.39,0-2.69-.3-3.89-.89-1.2-.59-2.25-1.4-3.16-2.44-.91-1.04-1.61-2.22-2.11-3.56-.5-1.33-.76-2.74-.76-4.23s.25-2.89.76-4.23c.5-1.33,1.21-2.52,2.11-3.56.9-1.04,1.96-1.85,3.16-2.44,1.2-.59,2.5-.89,3.89-.89s2.69.3,3.89.89c1.2.59,2.25,1.41,3.16,2.44s1.61,2.22,2.11,3.56c.5,1.33.76,2.74.76,4.23s-.25,2.9-.76,4.23c-.5,1.33-1.21,2.52-2.11,3.56s-1.96,1.85-3.16,2.44-2.5.89-3.89.89ZM905.99,334.42c.97,0,1.79-.16,2.47-.47.68-.31,1.23-.85,1.66-1.61s.74-1.81.93-3.14c.19-1.33.29-3.02.29-5.06s-.09-3.72-.29-5.06-.5-2.38-.93-3.13c-.43-.75-.98-1.28-1.66-1.59-.68-.3-1.5-.46-2.47-.46s-1.79.15-2.47.46c-.68.3-1.23.84-1.66,1.6s-.74,1.81-.93,3.14-.29,3.02-.29,5.06.1,3.72.29,5.06.5,2.38.93,3.14.98,1.3,1.66,1.6c.68.3,1.5.46,2.47.46Z"/>
      <path class="st0" d="M935.64,335.27c-1.52,0-2.85-.21-3.99-.64-1.13-.43-2.01-1.08-2.63-1.96s-.93-1.98-.93-3.31v-15.26h-3.34v-.71h9.88v.71h-2.71v15.23c0,1.77.41,3.04,1.23,3.8.82.76,1.94,1.14,3.37,1.14,1.52,0,2.73-.41,3.63-1.23.89-.82,1.34-2.06,1.34-3.71v-15.23h-3v-.71h6.94v.71h-3v15.23c0,2.04-.57,3.54-1.7,4.5-1.13.96-2.83,1.44-5.1,1.44Z"/>
      <path class="st0" d="M970.27,335.27l-12.46-19.86h-.11v18.8h3.14v.71h-7.4v-.71h3.14v-20.11h-3.14v-.71h7.74l8.74,13.89h.11v-13.17h-2.86v-.71h6.83v.71h-2.86v21.17h-.88Z"/>
      <path class="st0" d="M982.07,334.93v-.71h9.57c1.18,0,2.18-.14,3-.43.82-.29,1.49-.79,2-1.53.51-.73.89-1.76,1.13-3.07.24-1.31.36-2.99.36-5.03s-.12-3.71-.36-5.03-.62-2.34-1.14-3.07c-.52-.73-1.2-1.24-2.01-1.53-.82-.29-1.82-.43-3-.43h-9.54v-.71h10.46c1.43,0,2.76.29,3.99.87s2.31,1.38,3.24,2.39c.93,1.01,1.66,2.16,2.17,3.46.51,1.29.77,2.65.77,4.06s-.26,2.76-.79,4.06c-.52,1.29-1.25,2.45-2.17,3.46s-2,1.8-3.24,2.39-2.57.87-4,.87h-10.43ZM985.21,334.5v-21.11h3.83v21.11h-3.83Z"/>
      <path class="st0" d="M1027.78,319.25c-.02-.93-.21-1.79-.57-2.56-.36-.77-.87-1.4-1.53-1.87-.66-.48-1.46-.71-2.41-.71h-11.66v-.71h17.17v5.86h-1ZM1011.61,334.93v-.71h12.51c.95,0,1.76-.28,2.42-.83.66-.55,1.17-1.29,1.53-2.2.36-.91.55-1.9.57-2.97h1v6.71h-18.03ZM1014.98,334.5v-20.83h3.83v20.83h-3.83ZM1023.24,328.76c-.02-1.07-.16-1.91-.43-2.51-.27-.61-.72-1.04-1.36-1.3-.64-.26-1.55-.39-2.73-.39v-.71c1.18,0,2.1-.11,2.76-.34s1.11-.63,1.37-1.2c.26-.57.39-1.37.39-2.4h1v8.86h-1Z"/>
      <path class="st0" d="M1045.01,323.88v-.86h2.37c1.14,0,2.07-.12,2.79-.37.71-.25,1.24-.72,1.57-1.42.33-.69.5-1.7.5-3.01,0-1.16-.12-2.03-.37-2.61-.25-.58-.62-.98-1.13-1.19s-1.15-.31-1.93-.31h-9.89v-.71h11.03c1.24,0,2.37.2,3.39.59,1.02.39,1.83.95,2.43,1.67.6.72.9,1.61.9,2.66,0,1.1-.37,2.08-1.11,2.91-.74.84-1.8,1.49-3.19,1.96-1.38.47-3.04.7-4.99.7h-2.37ZM1038.93,334.93v-.71h10.69v.71h-10.69ZM1042.07,334.5v-21.11h3.83v21.11h-3.83ZM1056.67,334.93c-.93,0-1.78-.18-2.53-.54-.75-.36-1.35-.87-1.79-1.53-.44-.66-.68-1.42-.71-2.3l-.09-2.26c-.06-1.5-.45-2.62-1.17-3.34-.72-.72-1.65-1.08-2.77-1.08l2.17-.31h1.06v.11c.82.19,1.6.56,2.36,1.11.75.55,1.38,1.22,1.87,2s.74,1.63.74,2.54v1.49c0,1.31.14,2.21.43,2.69.29.48.8.71,1.54.71h1.08v.71h-2.2Z"/>
    </g>
  </g>
  <g>
    <path class="st0" d="M115.95,121.08c-.08-.04-.18,0-.22.08-.03.07,0,.16.05.2,9.59,6.63,19.66,12.5,29.89,18.08,3.42,1.84,6.86,3.64,10.39,5.29.08.04.18,0,.22-.08.03-.07,0-.16-.05-.2-9.59-6.63-19.66-12.5-29.89-18.08-3.42-1.84-6.86-3.64-10.39-5.3Z"/>
    <path class="st0" d="M114.87,104.48c1.95,1.32,4.37,2.48,6,3.19.21.09.23.38.04.51l-1.5,1.03c-.07.05-.07.15,0,.2l25.4,18.29c.1.07.21-.06.13-.15l-5.86-6.04s.01-.1.06-.07c4.46,2.54,8.5,4.34,9.82,4.91.1.04.18-.08.11-.16-1.01-1.01-4.18-4.1-8.19-7.3-.04-.03,0-.1.05-.08l7.79,3.21c.11.05.19-.11.09-.17l-26.41-16.83c-.07-.05-.17,0-.18.08l-.4,1.78c-.05.22-.33.31-.49.15-1.26-1.25-3.23-3.07-5.18-4.39-2.17-1.47-5.11-2.86-6.82-3.61-.15-.07-.29,0-.36.1-.07.11-.08.26.04.37,1.33,1.31,3.71,3.52,5.88,4.99Z"/>
    <path class="st0" d="M99.89,130.55c2.11,1.04,4.67,1.86,6.37,2.34.22.06.28.34.11.5l-1.34,1.22c-.06.06-.05.16.02.2l56.48,29.97c.13.07.25-.11.13-.2l-8.36-6.55c-.06-.04,0-.13.06-.1,6.01,2.41,11.37,3.97,13.11,4.45.13.04.21-.13.1-.21-1.44-1.09-5.92-4.4-11.49-7.71-.06-.04-.02-.13.04-.11l10.29,2.68c.14.04.22-.17.08-.23l-58.11-26.73c-.08-.04-.17.02-.17.1l-.16,1.81c-.02.23-.28.35-.46.21-1.42-1.06-3.62-2.6-5.73-3.65-2.35-1.16-5.45-2.14-7.25-2.65-.16-.05-.29.04-.34.15-.06.12-.04.27.09.36,1.5,1.11,4.15,2.98,6.51,4.15Z"/>
    <path class="st0" d="M158.65,118.32c.05-.07.06-.15.02-.19-2-2.01-4.1-3.9-6.23-5.74-6.44-5.49-13.09-10.72-20.27-15.23-.05-.03-.12-.01-.18.05,0,0,0,0,0,.01,0,0,0,0-.01,0-.05.07-.05.14,0,.18,6.04,5.95,12.66,11.22,19.48,16.23,2.28,1.65,4.6,3.26,7.02,4.74.05.03.13,0,.18-.06Z"/>
    <path class="st0" d="M193.58,87.9c2.14,3.24,4.34,6.44,6.67,9.57.05.07.16.09.23.03.06-.05.08-.14.05-.2-5.33-10.37-11.45-20.29-17.84-30.03-2.14-3.24-4.34-6.44-6.67-9.57-.05-.07-.16-.09-.23-.03-.06.05-.08.14-.05.2,5.34,10.37,11.45,20.29,17.84,30.04Z"/>
    <path class="st0" d="M202.21,26.68c.68.04,1.36.07,1.97.38l1.55.95c1.08.67,1.63,1.67,1.02,2.82-.91,1.73-1.28,3.23-1,5.19.41,2.87,2.08,5.41,4.57,6.89,1.96,1.16,3.78,1.24,5.98.93,1.08-.15,2.12.44,2.42,1.55-.68-.54-1.35-.98-2.18-.96-1.17.03-1.8,1.01-1.57,1.43.05.09.16.15.3.18l.86.2c.91.21,1.32,1.62,1.49,2.56.32,1.75.94,3.38,1.93,4.86.34.51.58,1.04.79,1.61.13.35.28.69.27,1.09-.66.38-1.23.85-1.69,1.45-.39.51-.51,1.13-.37,1.75.2.89.82,1.56,1.64,1.93.22.1.43.18.61.34v.94c-.01.34-.87.92-1.39,1.95-.5,1-.36,2.06.3,2.94l1.3,1.26c.32.4-.09,1.12-.44,1.4l-1.11.91c-.68.69-.95,1.63-.68,2.57.36,1.29,1.41,1.85,2.66,2.26l-.18,4.85c-.04,1.02.06,1.96.33,2.94-.26.15-.5.26-.67.48-.62.81-.39,1.96.45,2.51.03.28.05.52,0,.76-1.07.45-1.64,1.64-1.23,2.73l-.41.49c-.18.21-.04.48.08.7l-.07.08c-1.1.9-1.38,2.42-1.53,3.8l-.35,3.16-.02.1-.02.09c-.17.8-.41,1.57-.86,2.26l-.57.88-.04.07c-.09.17-.14.34-.05.42l.06.05.07.04.07.04.07.04.08.03,1.25.36c.87.25,1.75.39,2.67.41h.11s.07,0,.12,0c.06.02.06.09.02.12-.45.39-.58.86-.52,1.44.16,1.51.33,3,.69,4.48l.52,2.15c.14.59.41,1.25.79.99.44-.31,1.07-3.46,1.22-4.44l.48-3.08c.17-1.1-.73-1.61-.43-1.62,1.15-.03,3.23-.35,4.19-.8.16-.07.26-.26.17-.43l-.96-1.77c-.41-.93-.62-1.9-.71-2.91l-.18-2.21c-.07-.84-.23-1.64-.54-2.42-.19-.49-.48-.91-.89-1.24-.12-.1.32-.59-.19-1.04-.15-.13-.21-.24-.16-.44.29-1.03-.21-2.07-1.17-2.52l-.09-.8c.7-.43,1.02-1.26.75-2.04-.08-.22-.22-.46-.4-.59l-.6-.45c.29-.66.43-1.33.4-2.06l-.17-5.15c3.73,1.08,7.59,1.42,11.47,1.81l.04,3.63c-.36.29-.63.68-.63,1.14,0,.48.29.85.66,1.16-.07.43-.21.95-.05,1.46-.99.48-1.35,1.58-.98,2.59.07.18-.41.25-.31.92-.74.83-1.08,2.09-1.22,3.19l-.15,2.57c-.09,1.51-.49,2.91-1.33,4.15-.1.14-.15.34.01.43.31.19.65.31,1.02.37l2.45.38c.08-.01.12.03.09.08l-.1.15c-.46.69-.42,1.51-.29,2.35.27,1.74.63,3.43,1.07,5.13.05.2.13.38.27.52.08.07.21.06.27,0,.36-.35.86-3.06,1.02-4.02.16-.92.34-1.79.36-2.72.01-.52-.23-.99-.48-1.44,1.02-.05,1.99-.19,2.96-.4.36-.08.65-.26.53-.48l-.42-.75c-.81-1.48-.88-2.87-.96-4.51l-.11-2.29c-.11-.91-.38-1.78-.93-2.5-.08-.11-.21-.14-.12-.32.19-.42-.38-.73-.37-.76l.07-.17c.36-.94-.02-1.91-.88-2.4.05-.42.1-.8-.06-1.17-.05-.11-.17-.29-.03-.39.41-.3.61-.72.6-1.2,0-.47-.35-.83-.69-1.12l.09-2.65v-.68c.01-.06.05-.11.08-.12.04-.02.07,0,.16,0,4.02.3,8.01.42,12.09.43l-.07,2.8c-.02.68.09,1.31.36,1.92.06.13,0,.23-.11.29-.53.28-.83.78-.85,1.33-.02.58.24,1.09.74,1.44l-.03,1.03c-1.16.52-1.41,1.68-1.1,2.89.07.26-.72.36-.47.97.03.06.13.21.04.29-1.27,1.09-1.48,2.78-1.58,4.42l-.27,2.19c-.18,1.47-.75,2.79-1.55,4.02-.09.14-.09.29.04.4l.07.05c.84.38,1.73.54,2.64.69l1.31.13h.09s.1.01.1.01h.11s.12,0,.12,0c.06,0,.06.06.01.09-.23.31-.55.65-.53,1.09.12,2.14.49,4.21,1.02,6.27l.52,1.72c.04.13.17.2.28.2.36,0,.46-.42.57-.86l.43-1.75c.4-1.63.69-3.26.83-4.93.11-.64-.04-1.19-.48-1.68-.03-.04-.07-.1-.05-.13.02-.05.11-.04.16-.04,1.39-.05,2.72-.28,4.03-.74.17-.06.58-.27.45-.5-.88-1.28-1.46-2.67-1.69-4.21l-.23-2.16c-.15-1.38-.4-3.63-1.55-4.36-.12-.07-.03-.14,0-.23.24-.58-.52-.76-.42-1.09.32-1.06-.03-2.22-.98-2.73-.25-.13-.03-.51-.14-1.07.5-.35.78-.93.7-1.54-.07-.56-.44-1.04-1-1.3-.17-.08.37-.88.34-1.88l-.09-2.82c0-.07-.02-.14,0-.19.03-.05.08-.05.18-.05,4.07-.02,8.09-.14,12.22-.45l.07,3.57c-.2.18-.39.34-.5.57-.28.61-.03,1.27.53,1.64.04.03.1.12.07.18-.2.32-.21.65-.18,1.02l.02.29s0,.14-.05.16c-.98.48-1.13,1.47-.86,2.53.04.15-.48.38-.28.73.06.1.03.16-.05.23-.27.23-.42.55-.57.88-.47,1.05-.6,2.17-.67,3.32l-.17,2.69c-.13,1.07-.56,2.03-1.1,2.96-.06.11-.13.24-.08.36.18.4,2.47.71,3.33.79h.13c.06,0,.09.07.04.14-.34.52-.44,1.07-.36,1.69.22,1.91.59,3.76,1.05,5.63.11.44.3.85.6.76.08-.02.17-.12.2-.23l.27-1.06.72-3.39.23-1.93c.09-.79-.39-1.51-.39-1.53,0-.08.06-.06.13-.06.94-.08,2.81-.35,3.4-.79.06-.04.06-.19,0-.25-.75-.91-1.22-1.94-1.4-3.11l-.17-2.38c-.11-1.58-.06-3.32-1.23-4.55.24-.7-.43-.78-.29-1.09.1-.24.12-.5.12-.77,0-.66-.34-1.23-.91-1.53-.23-.12.1-.82-.22-1.38-.04-.06-.1-.25-.02-.3.4-.25.62-.62.64-1.06.02-.43-.18-.84-.55-1.11-.15-.11-.2-.18-.19-.36l.15-3.33,4.79-.49,5.14-.87.09-.02,1.23-.33s.11-.05.13-.03c.05.04.04.12.03.2l-.12,4.56c-.02.8.11,1.54.34,2.29.05.15-.49.26-.77.68-.52.8-.29,1.88.5,2.43.06.25.06.5.02.76-1.1.41-1.56,1.58-1.18,2.63.12.32-.55.47-.4,1.01l.12.16c.04.05-.02.12-.08.17-1.06.87-1.28,2.57-1.4,3.93l-.2,2.31c-.11,1.25-.79,2.97-1.55,4.02-.09.12-.14.3-.02.4.16.12.34.2.53.26,1.2.4,2.44.59,3.72.67.05,0,.14-.01.18,0,.14.07-.65.65-.6,1.32.09,1.47.31,2.88.63,4.3l.44,1.96c.11.48.32,1.34.54,1.46.15.08.33.08.48,0,.12-.08.22-.22.26-.39l.45-1.72.41-1.93.47-3.32c.04-.31.02-.6-.12-.88l-.04-.07-.28-.45-.05-.06-.05-.06s-.05-.07-.05-.09c0-.05.04-.07.12-.07,1.4-.1,3.26-.37,4.44-1.03.18-.1.02-.38-.07-.5-.49-.62-.87-1.26-1.12-2.01-.25-.77-.44-1.52-.51-2.32l-.17-1.78c-.12-1.28-.35-2.66-1.13-3.66-.25-.32-.51-.37-.43-.5.18-.31,0-.7-.26-.93-.16-.13-.12-.28-.08-.47.19-.94-.24-1.82-1.07-2.28-.09-.05-.16-.11-.16-.23l.02-.74c.52-.4.76-1.01.69-1.65-.11-1.07-1.04-1.18-.99-1.37l.07-.23c.24-.85.27-1.69.25-2.58l-.1-4.56c0-.15.1-.15.21-.19.61-.22,1.21-.48,1.67-.95,1.11-1.16,1.08-3.02-.21-4.08l-.89-.73c-.37-.3-.61-.83-.51-1.31.1-.23.38-.39.56-.55.55-.46,1.03-.97,1.3-1.65.29-.72.2-1.52-.17-2.2-.29-.55-.69-.99-1.11-1.44-.18-.19-.3-.38-.27-.67.02-.19-.06-.52.06-.69.19-.19.48-.26.72-.4.91-.49,1.54-1.41,1.48-2.47-.04-.63-.38-1.19-.81-1.64-.34-.37-.76-.61-1.17-.89-.09-.06-.07-.16-.05-.26.18-1.14.71-2.11,1.34-3.06.53-.8.88-1.65,1.18-2.55l.53-2.19c.12-.5.23-.96.49-1.41.65-1.12,1.38-.75,1.79-1.06.16-.12.17-.53,0-.78l-.04-.06-.06-.06c-.64-.74-1.68-.75-2.51-.24l-.07.03-.07.04-.07.04-.07.05c-.18.13-.36.27-.52.46-.06.08-.14,0-.07-.1.26-.71.91-1.28,1.66-1.39.4-.06.77.03,1.18.08,2.03.29,4.12-.06,5.85-1.2.74-.48,1.35-1.08,1.92-1.75,1.1-1.27,1.84-2.74,2.19-4.37.37-1.74.17-3.48-.57-5.09l-.52-1.04c-.27-.53-.46-1.16-.25-1.74.31-.85.91-1.51,1.58-2.1.73-.63,1.58-1.06,2.59-1.25-.18-.27-.58-.28-.89-.39l-.1-.02c-1.71-.32-2.45.39-2.5.36-.04-.03-.03-.09-.02-.15l.15-.74c.14-.73.21-1.42.17-2.18,0-.07,0-.14-.08-.1l-.17.08c-1.06.5-2.03,1.13-2.95,1.85-.07-.06-.06-.11-.05-.15v-.11s0-.11,0-.11v-.1s-.12-.83-.12-.83l-.03-.08c-.2-.64-.41-1.25-.89-1.71-.39-.37-.87-.73-.79-.48.3.96.29,1.97.07,2.96-.15.67-.35,1.31-.76,1.85-.35.47-.87.78-1.46.78l-.92-.09c-.73-.07-1.44-.1-2.17.07-.07.02-.11.05-.08.1l.06.14c.94,2.22.66,5.21-.18,7.47-.63,1.7-1.67,3.17-2.93,4.46-.69.72-1.47,1.26-2.33,1.74-.1.06-.07.14-.01.22l1.03,1.42c.41.56.56,1.18.42,1.86-.12.64-.29,1.26-.61,1.83l-1.48,2.26s0,.01-.01.02l-.02.04h0c-.17.27-.29.57-.35.89-.17.89.19,1.82.57,1.63.2-.1.76-.65.81-.22.19,1.52-.92,2.88-2.44,3.05-.28.03-.54.06-.82.03-2.06-.22-2.91-3.14-2.29-4.14l.04-.07.04-.07.07-.13c.04-.07.16-.06.16,0l.03.21c.19.81,1.08,1.19,1.83.83.65-.32,1.1-.87,1.31-1.58.34-1.09.02-2.3-.88-3.01-.53-.42-1.2-.52-1.83-.32-.09.03-.19.11-.21.02,0-.03.06-.1.07-.14l.04-.08.03-.08.03-.08c.22-.51.37-1.03.35-1.6l-.02-.1c-.09-.51-.31-.92-.76-1.18l-.06-.05-.07-.04c-.66-.33-1.35-.42-2.1-.36h-.1s-.32.08-.32.08c-.42.1.29-.57,1.43-.58l2.3-.04c1.89-.15,3.61-.9,5.02-2.17l.7-.7.55-.62c2-2.66,3.08-5.93,2.49-9.25-.15-.86-.48-1.65-.87-2.41-.3-.57-.71-1.02-1.12-1.5l-1.2-1.36c-.52-.78-.21-1.82.26-2.63.72-1.23,1.74-2.18,3.1-2.92-.88-.25-1.85,0-2.69.37l-.08.05-.07.04c-.62.34-1.16.79-1.6,1.35l-.06.07s-.04.06-.06.06c-.04-.01-.01-.11,0-.14l.11-.63c.13-.78.1-1.56,0-2.34l-.15-1.26-.03-.1s-.05-.02-.07.01l-1.13,1.05c-.86.8-1.65,1.61-2.19,2.65-.06-.64-.08-1.22-.3-1.8-.26-.7-.65-1.34-1.18-1.88-.39-.39-.9-.61-1.39-.76-.02,0-.03,0-.04-.01-.05-.05-.1.02-.05.05.01,0,.02.02,0,.03,1.19,1.43,1.27,3.02.91,4.83-.2.96-1.16,1.37-2.12,1.44-1.92.15-3.52.72-4.99,1.98-1.56,1.34-2.6,3.15-3.17,5.12-.88,3.04-.6,6.29,1.24,8.89.64.91,1.44,1.63,2.28,2.34.86.72,1.29,1.79,1.02,2.88l-.5,1.95c-1.51-.64-3.14-.02-3.85,1.38-.56,1.09-.37,2.33.65,3.09l.46-.65c.18-.25.61-.47.89-.23.48.41.55,1.13.36,1.7-.19.59-.54,1.05-.99,1.47-.8.74-1.79,1.14-2.89,1.29-1.94.25-3.89-.29-5.31-1.63-.76-.72-1.16-1.67-1.2-2.71,0-.23.04-.46.17-.62.08-.1.21,0,.28.07,1.01,1.23,2.76,1.24,3.91.21,1.05-.94,1.37-2.45.88-3.77-.53-1.43-1.98-2.48-3.48-2.54-1.29-.05-2.48.42-3.47,1.25-.43.36-.7.79-1.06,1.26,0-1.23.31-2.79,1.38-3.27l1.39-.62c.95-.43,1.88-.82,2.72-1.45,1.5-1.12,2.54-2.65,3.14-4.43.58-1.73.79-3.52.63-5.35-.17-1.97-.85-3.82-2.14-5.34-.93-1.09-2.12-1.84-3.41-2.43-.81-.37-1.49-.87-1.42-1.8.1-1.43,1.04-2.75,2.05-3.73l.6-.58c-1,0-1.87.39-2.67.95-.79.55-1.35,1.26-1.75,2.19-.12-.86-.28-1.57-.58-2.32-.38-.95-.79-1.86-1.3-2.77l-.66,1.33c-.36.72-.67,1.44-.92,2.21l-.32,1.53c-.76-1.75-2.51-2.83-4.21-3.34-.01,0-.02,0-.03-.01-.05-.06-.12.02-.05.06,0,0,0,.01.01.02l1.4,1.92c.64.88,1.41,2.38.95,3.31-.23.46-.67.76-1.14.98-2.48,1.16-4.3,2.68-5.19,5.34-.42,1.27-.57,2.58-.49,3.93.15,2.47.77,4.86,2.3,6.8.29.37.61.64.95.96.71.66,1.51,1.15,2.39,1.56l1.99.9c.68.31,1.16.82,1.42,1.54.22.61.36,1.26.3,1.95-.31-.51-.54-.9-.96-1.25-.8-.68-1.8-1.1-2.86-1.23-1.18-.14-2.33.26-3.21,1.03-1.08.94-1.45,2.36-1.06,3.73.29,1.02,1,1.78,2,2.12,1.02.35,2.1.06,2.82-.75.09-.1.19-.19.35-.2.25.54.23,1.09.11,1.66-.2.91-.69,1.68-1.43,2.25-.46.35-.93.66-1.5.84-2.25.71-4.93.44-6.71-1.18-.66-.6-1.21-1.53-.75-2.27.11-.17.23-.26.4-.26.18,0,.33.06.44.22l.34.5c.08.11.24.18.37.08.54-.44.98-1.04,1.06-1.76.13-1.08-.37-2.13-1.23-2.75-.77-.55-1.68-.71-2.59-.37-.33-.89-.62-1.76-.74-2.69-.13-.95.21-1.77.92-2.4l1.37-1.23c.49-.53.91-1.04,1.29-1.67,1.07-1.78,1.5-3.84,1.27-5.92-.16-1.48-.53-2.89-1.13-4.25-.76-1.71-1.95-3.16-3.56-4.12-.83-.49-1.7-.82-2.63-1.04-1.26-.3-2.52.06-3.29-.56-.34-.28-.53-.71-.57-1.17-.12-1.59.25-3.15,1.05-4.59-1.65.65-2.67,2.35-2.85,4.04-.02.21,0,.39-.11.63-.67-1.46-2.11-2.66-3.45-3.7-.45,1.66-.41,3.34.03,5.02-1.37-1.41-3.46-1.95-5.34-1.17,1.24.37,2.36.93,3.29,1.8.74.69,1.36,1.64.8,2.51-.2.3-.42.56-.68.83-1.08,1.12-1.85,2.44-2.18,3.99-.82,3.84.8,8.07,3.73,10.65.44.39.89.74,1.41,1.03,1.77,1.01,3.78,1.39,5.8,1.1.69-.1,1.33.07,1.77.63.09.11.25.19.23.41-.87-.48-2.09-.34-2.95.13-1.23.66-1.14,2.29-.4,3.54-.75-.23-1.42-.15-1.97.33-1.11.97-1.27,2.47-.38,3.73.46.65,1.28,1,2.04.71.72-.27.73-1.26.79-1.3.33-.17,1.17,1.7.08,3.45-.46.75-1.2,1.14-2.06,1.19-.76.04-1.44-.13-2.07-.57-.81-.57-1.38-1.44-1.42-2.45,0-.13.04-.28.11-.34.27-.23.63.21.93.44.25.02.37-.37.42-.57.17-.72.03-1.42-.36-2,0,0-1.39-2.25-1.48-2.41-.38-.65-.61-1.39-.71-2.13-.09-.65.06-1.25.43-1.76l.84-1.12c.07,0,.22-.3.12-.36-2.87-1.66-4.91-4.38-5.72-7.6-.53-2.13-.48-4.24.4-6.26-.75-.15-1.43-.17-2.14-.07l-1.5.21c-.75.11-1.39-.3-1.7-.96-.14-.3-.28-.59-.36-.92-.15-.7-.37-1.36-.56-2.05-.17-.61-.09-1.21,0-1.88-.74.6-1.16,1.5-1.27,2.45.02.13-.11.08-.1-.02-.43-.55-.75-1.09-1.14-1.7-.22.83-.24,1.63-.19,2.51-.84-.47-1.65-.79-2.55-1.1-.02,1.19.22,2.32.73,3.45-1.49-.42-2.54-.29-3.69.65-.04.06.02.13.09.09ZM220.23,65.92c-.17-1.26.99-1.9,1.22-1.98l2.2-.81.38,3.33-2.46.78s-1.19-.28-1.33-1.32ZM272.24,67.38c1.2.31,2.35.66,3.51,1.1v.88s-3.07-.84-3.07-.84c-3.09-.64-6.19-1.17-9.36-1.49-4.36-.44-8.68-.67-13.1-.69l-7.48.15-6.02.41c-3.53.33-6.99.85-10.45,1.58-1.25.26-2.41.57-3.62.97v-.92s3.03-.96,3.03-.96l-.22-2.15-.47-4.01-2.56.85-.08-1.12c1.3-.58,2.59-.99,3.96-1.35,4.94-1.29,10.07-1.89,15.17-2.25,3.63-.26,7.23-.31,10.88-.24,3.45.06,6.85.35,10.27.74,2.84.33,5.61.76,8.38,1.42l3.25.94,1.81.74-.09,1.04c-1.09-.43-2.13-.77-3.24-1.04l-.65,6.06c0,.09.08.16.15.18ZM221.88,109.77c-.37-1.46-.65-2.92-.81-4.42.5-.02.9.29,1,.77.12.42.11.84.11,1.31l-.31,2.34ZM223.14,100.46c.51.01.98.09,1.46.25.83.23,1.61.55,2.32,1.18-.58.26-1.16.31-1.77.41-2.55.42-5.13.33-7.68-.41.43-.64.78-1.25.97-1.98.26-.98.41-1.95.49-2.96l.29-2.49c.07-.61.28-1.16.62-1.67.39-.58,1.03-.91,1.74-.96.31.47.49.97.62,1.51.55,2.2.32,4.87-.25,7.08l1.18.03ZM234.52,77.52l-5.37-.59c-1.49-.16-2.9-.51-4.34-.88-.61-.15-1.17-.34-1.73-.59l.03-1.02c.81.4,1.57.65,2.42.84,2.4.55,4.79.93,7.24,1.14l1.76.15v.94ZM236.02,77.64l-.02-.94,4.14.27,8.12.2v.92c-4.08,0-8.14-.14-12.25-.45ZM249.2,108.26l-.27,2.1c-.38-1.54-.64-3.02-.82-4.58.54,0,.92.28,1.03.78.12.55.14,1.1.06,1.7ZM254.05,102.2c-.79.35-1.62.51-2.48.61-2.17.26-4.93.24-7.04-.54.66-1.08,1.08-2.2,1.22-3.43l.41-3.49c.07-.56.14-1.09.34-1.61.34-.91,1.16-1.56,2.13-1.63.36.5.53,1.03.66,1.61.52,2.28.31,4.81-.25,7.13,1.79-.12,3.51.26,5.01,1.35ZM262.48,77.63l-7.89.4-4.5.07v-.93s6.95-.15,6.95-.15l5.45-.31v.92ZM275.34,75.49l-.88.33c-3.33,1.01-6.97,1.4-10.47,1.7v-.95c2.99-.26,5.89-.63,8.79-1.25.91-.19,1.74-.43,2.57-.84v1ZM276.33,106.98l-.33,2.56c-.37-1.48-.61-2.94-.78-4.5.44-.05.82.21.96.65.13.4.21.84.15,1.3ZM280.49,101.14c.2.11.38.22.5.43-2.36.71-4.8.85-7.24.51-.72-.1-1.32-.22-2.02-.48.59-.92.97-1.88,1.17-2.94l.3-2.66.21-1.89c.07-.61.3-1.18.68-1.67.39-.5,1-.78,1.64-.86.4.74.62,1.47.75,2.28.33,2.1.22,4.17-.38,6.28,1.55-.09,3.05.23,4.39.99ZM277.56,74.75c-.17.11-.07-.32-.58-.72-.37-.29-.78-.52-1.23-.66l-2.31-.75c-1.77-.46-3.52-.78-5.34-1l-4.15-.51c-5.64-.58-11.24-.81-16.88-.71-4.15.07-8.28.28-12.4.73-2.3.25-4.54.51-6.8.93-1.87.35-4.48.88-6.03,1.82-.37.22-.62.54-.71.96-.35-.14-.45-.5-.28-.79.74-1.28,5.03-2.21,6.73-2.56l4.74-.77c4.59-.61,9.2-.92,13.85-1.02,5.16-.11,10.3.02,15.42.49l3.4.35c2.54.26,5,.69,7.48,1.26l2.87.81,1.43.62c.36.16.67.4.91.7.21.27.15.64-.13.82ZM278.17,71.76s.03.09-.03.08l.03-.08ZM278.13,71.71l-.03.09c-.61-.4-1.28-.69-1.99-.96-1.26-.42-2.5-.78-3.82-1.02l-4.78-.89-8.3-.83c-8.89-.64-19.07-.4-27.89.83l-6.2,1.19-2.96.88c-.75.22-1.4.6-2.07,1.02.2-.51.63-.72,1.01-1.03,1.06-.58,2.2-.97,3.38-1.28l1.86-.49c3.17-.72,6.37-1.19,9.62-1.52,5.78-.59,11.55-.76,17.36-.61,3.24.09,6.42.31,9.63.62l5.45.72c2.18.37,4.3.78,6.41,1.44,1.15.36,2.64.91,3.33,1.84ZM277.54,65.6c-.14,1.04-1.33,1.32-1.33,1.32l-2.46-.78.38-3.33,2.2.81c.23.09,1.39.72,1.22,1.98ZM268.23,47.93c-.2,2.51.32,4.6,2.31,6.2-.36.04-.65-.13-.99-.17-.25-.03-.43-.11-.61-.32-.73-.89-1.16-1.91-1.37-3.08-.53.68-1.09,1.21-1.78,1.67-.49.33-1.01.73-1.62.79-.49.06-.98-.1-1.51-.14,2.62-.88,4.3-2.36,5.58-4.97ZM245.29,51.89c2.01-1.39,3.32-3,3.66-5.46h.39c.27,1.41.88,2.69,1.8,3.81.76.85,1.64,1.5,2.69,2.02l-1.79-.03c-1.26-.91-2.25-2.12-2.84-3.6-.42,1.24-1.9,3.22-2.95,3.59-.49.17-1.05,0-1.58.02l.62-.34ZM230.18,47.94c.58,1.05,1.08,1.97,1.87,2.78,1.03,1.06,2.28,1.79,3.76,2.18l-1.59.22c-1.35-.5-2.46-1.33-3.33-2.54-.22,1.26-.69,2.4-1.51,3.31l-1.37.21c1.84-1.65,2.42-3.67,2.17-6.16ZM227.51,55.04c4.63-1.04,9.57-1.5,14.3-1.83l3.65-.15c2.26-.09,4.46-.07,6.74-.02,4.66.1,9.28.45,13.89,1.1,2.8.39,5.53.94,8.23,1.73,1.26.37,2.7.91,3.7,1.71.33.27.62.62.68,1.08-.58-.58-1.22-.94-1.96-1.24-1.47-.59-2.95-1.02-4.52-1.38-3.95-.91-7.96-1.46-12.01-1.8-7.21-.6-14.44-.61-21.68,0-4.01.33-7.95.87-11.83,1.73-1.51.33-2.92.75-4.36,1.26l-1.33.56c-.52.22-.93.56-1.35.95,0-.43.25-.73.55-.98,1.61-1.41,5.1-2.2,7.31-2.7Z"/>
    <path class="st0" d="M183.9,42.22c1.03,2.12,2.55,4.33,3.6,5.76.14.18.01.44-.21.46l-1.81.14c-.08,0-.14.09-.1.17l19.96,44.23h0s1.74,3.85,1.74,3.85c.06.13.25.06.21-.07l-1.06-4.2-1.36-5.37c-.02-.06.07-.1.1-.04.98,1.67,1.95,3.23,2.86,4.63,1.92,2.96,3.55,5.18,4.23,6.09.07.1.23.02.2-.1-.3-1.1-1.04-3.75-2.18-7.09-.54-1.58-1.16-3.32-1.87-5.12-.02-.06.06-.11.1-.06l3.39,4.39,2.64,3.42c.08.11.25,0,.19-.12l-1.94-3.72h0s-22.44-43.03-22.44-43.03c-.04-.07-.14-.09-.2-.03l-1.23,1.34c-.16.17-.44.1-.5-.12-.47-1.71-1.27-4.27-2.3-6.39-1.15-2.36-3-5.03-4.1-6.54-.1-.13-.25-.15-.36-.09-.12.06-.2.19-.15.34.5,1.8,1.45,4.9,2.6,7.26Z"/>
    <path class="st0" d="M133.73,80.42c1.73,1.6,3.94,3.11,5.44,4.06.19.12.17.41-.03.51l-1.64.79c-.08.04-.09.14-.03.2l22.33,21.92c.08.08.21-.03.15-.13l-4.88-6.86s.03-.1.07-.06c4.03,3.19,7.75,5.58,8.96,6.34.09.06.19-.05.13-.14-.85-1.15-3.51-4.68-6.99-8.45-.04-.04.01-.1.06-.07l7.22,4.35c.1.06.2-.08.11-.16l-23.55-20.64c-.06-.06-.16-.03-.19.05l-.67,1.69c-.08.21-.37.26-.51.07-1.06-1.42-2.73-3.52-4.46-5.12-1.92-1.79-4.62-3.6-6.19-4.6-.14-.09-.28-.05-.37.05-.09.1-.12.24-.02.37,1.12,1.49,3.13,4.04,5.06,5.83Z"/>
    <path class="st0" d="M156.73,59.24c1.43,1.88,3.35,3.74,4.66,4.94.17.15.1.43-.12.5l-1.75.5c-.08.02-.11.12-.07.19l16.73,23.36s0,0,0,0l20.5,28.62c.09.12.27.01.21-.12l-4.57-9.59c-.03-.06.05-.12.1-.06,4.31,4.84,8.41,8.62,9.76,9.83.1.09.25-.02.19-.14-.8-1.62-3.34-6.58-6.85-12.02-.04-.06.04-.13.09-.08l8.02,6.98c.11.1.27-.05.18-.17l-40.13-49.81c-.05-.07-.16-.06-.2.01l-.95,1.55c-.12.2-.41.19-.51-.02-.8-1.59-2.08-3.94-3.51-5.81-1.59-2.09-3.93-4.34-5.31-5.6-.12-.11-.27-.1-.37-.02-.1.08-.16.22-.08.37.85,1.66,2.39,4.52,3.98,6.61Z"/>
    <path class="st0" d="M175.02,102.16c2.7,2.79,5.45,5.54,8.31,8.18.07.06.17.06.23,0,.05-.06.06-.15,0-.21-7.15-9.21-14.99-17.84-23.07-26.24-2.7-2.79-5.45-5.54-8.31-8.18-.07-.06-.17-.06-.23,0-.05.06-.06.15,0,.21,7.15,9.21,14.99,17.84,23.06,26.24Z"/>
    <path class="st0" d="M251.75,15.31c.21-.18.51-.36.66-.61l.36-1.96c-.67.35-1.14.84-1.62,1.37-.15.16-.29.32-.34.54.22.35.3.71.41,1.1l.53-.44Z"/>
    <path class="st0" d="M362.35,161.05c10.87-4.21,21.61-8.73,31.98-14.05.07-.04.1-.12.08-.19-.03-.09-.12-.13-.21-.11-3.71,1.19-7.36,2.52-10.99,3.91-10.87,4.2-21.61,8.72-31.98,14.05-.07.04-.1.12-.08.19.03.09.12.13.21.11,3.71-1.18,7.36-2.52,10.99-3.9Z"/>
    <path class="st0" d="M365.47,97.23s0,0-.01,0c0,0,0,0,0-.01-.05-.06-.13-.08-.18-.05-7.18,4.51-13.83,9.74-20.27,15.23-2.13,1.84-4.23,3.73-6.23,5.74-.04.04-.03.13.02.19.05.06.13.1.18.06,2.42-1.48,4.74-3.09,7.02-4.74,6.82-5,13.44-10.27,19.48-16.23.04-.04.04-.12,0-.18Z"/>
    <path class="st0" d="M270.91,60.67c-2.13-.51-4.27-.86-6.45-1.17l-.51,6.4,3.37.49,3.25.55.63-5.9c.01-.22-.09-.31-.29-.36ZM269.42,65.14l-3.73-.58.29-3.46,3.77.67-.33,3.37Z"/>
    <path class="st0" d="M341.16,144.66c.04.08.14.12.22.08,3.53-1.65,6.97-3.45,10.39-5.29,10.23-5.58,20.3-11.45,29.89-18.08.06-.04.09-.13.05-.2-.04-.08-.14-.12-.22-.08-3.53,1.66-6.97,3.45-10.39,5.3-10.23,5.58-20.3,11.45-29.89,18.08-.06.04-.09.13-.05.2Z"/>
    <path class="st0" d="M332.92,102.87l7.22-4.35s.1.03.06.07c-3.48,3.77-6.14,7.3-6.99,8.45-.06.09.04.19.13.14,1.22-.76,4.94-3.15,8.96-6.34.04-.03.1.02.07.06l-4.88,6.86c-.07.1.06.21.15.13l22.33-21.92c.06-.06.04-.16-.03-.2l-1.64-.79c-.21-.1-.23-.39-.03-.51,1.5-.95,3.72-2.46,5.44-4.06,1.92-1.79,3.94-4.33,5.06-5.83.1-.13.07-.28-.02-.37-.09-.1-.24-.14-.37-.05-1.57,1.01-4.27,2.82-6.19,4.6-1.73,1.6-3.4,3.7-4.46,5.12-.14.18-.42.14-.51-.07l-.67-1.69c-.03-.08-.13-.1-.19-.05l-23.55,20.64c-.09.08.01.22.11.16Z"/>
    <path class="st0" d="M348.75,122.02l7.79-3.21c.05-.02.09.05.05.08-4.01,3.2-7.18,6.29-8.19,7.3-.08.07,0,.2.11.16,1.32-.57,5.36-2.37,9.82-4.91.05-.03.1.03.06.07l-5.86,6.04c-.08.08.03.21.13.15l25.4-18.29c.07-.05.07-.15,0-.2l-1.5-1.03c-.19-.13-.17-.42.04-.51,1.63-.71,4.05-1.87,6-3.19,2.17-1.47,4.55-3.69,5.88-4.99.12-.11.11-.27.04-.37-.07-.11-.21-.17-.36-.1-1.71.76-4.64,2.14-6.82,3.61-1.95,1.32-3.92,3.14-5.18,4.39-.16.16-.44.08-.49-.15l-.4-1.78c-.02-.08-.11-.12-.18-.08l-26.41,16.83c-.1.06-.02.22.09.17Z"/>
    <path class="st0" d="M401.05,228.99c-11.65.31-23.29.94-34.85,2.48-.08.01-.14.08-.14.16,0,.09.07.17.16.17,3.89.13,7.78.11,11.66.02,11.65-.31,23.29-.95,34.85-2.48.08-.01.14-.08.14-.16,0-.09-.07-.17-.16-.17-3.89-.13-7.78-.1-11.66-.02Z"/>
    <path class="st0" d="M401.57,158.49l.07-1.82c0-.08-.08-.15-.16-.12l-60.98,19.29c-.14.04-.1.26.05.24l10.54-1.38c.07,0,.09.09.03.12-5.93,2.6-10.79,5.32-12.36,6.23-.12.07-.05.24.08.22,1.79-.26,7.3-1.14,13.57-2.79.07-.02.11.07.05.11l-9.11,5.46c-.13.08-.03.27.11.22l32.91-12.5s0,0,0,0l26.86-10.21c.08-.03.1-.13.05-.19l-1.18-1.38c-.15-.17-.05-.44.17-.48,1.76-.27,4.39-.76,6.62-1.53,2.48-.86,5.34-2.39,6.97-3.31.14-.08.18-.23.13-.35-.04-.12-.16-.22-.32-.19-1.85.29-5.04.87-7.52,1.73-2.23.77-4.59,2.03-6.14,2.9-.2.11-.44-.04-.43-.27Z"/>
    <path class="st0" d="M336.93,83.88c-8.08,8.4-15.92,17.02-23.07,26.24-.05.06-.05.15,0,.21.06.07.16.07.23,0,2.87-2.64,5.61-5.39,8.31-8.18,8.08-8.4,15.91-17.03,23.06-26.24.05-.06.05-.15,0-.21-.06-.07-.16-.07-.23,0-2.86,2.64-5.61,5.39-8.31,8.18Z"/>
    <path class="st0" d="M421.13,212.98c-2.34.25-4.93.94-6.64,1.44-.22.07-.42-.14-.36-.36l.48-1.76c.02-.08-.04-.16-.13-.15l-63.76,5.02c-.15.01-.15.23,0,.24l10.58,1.04c.07,0,.07.11,0,.12-6.37,1.19-11.71,2.75-13.44,3.27-.13.04-.11.23.02.24,1.8.15,7.37.54,13.84.35.07,0,.09.1.02.12l-10.11,3.26c-.14.05-.09.26.05.24l34.88-4.75h0l28.47-3.87c.08-.01.13-.1.09-.18l-.84-1.61c-.11-.2.05-.44.28-.43,1.77.13,4.45.25,6.79,0,2.61-.28,5.75-1.12,7.54-1.65.16-.05.22-.18.21-.31-.01-.13-.11-.25-.27-.26-1.86-.13-5.11-.29-7.72-.01Z"/>
    <path class="st0" d="M375.37,207.6c11.54-1.57,23.05-3.48,34.37-6.25.08-.02.13-.09.12-.17,0-.09-.09-.16-.18-.15-3.88.29-7.74.74-11.59,1.25-11.54,1.57-23.05,3.47-34.37,6.25-.08.02-.13.09-.12.17,0,.09.09.16.18.15,3.88-.29,7.74-.74,11.59-1.25Z"/>
    <path class="st0" d="M370.21,183.9c11.29-2.87,22.5-6.07,33.44-10.11.07-.03.12-.1.1-.18-.02-.09-.1-.15-.19-.13-3.83.73-7.61,1.62-11.38,2.56-11.29,2.87-22.5,6.06-33.44,10.11-.07.03-.12.1-.1.18.02.09.1.15.19.13,3.83-.73,7.61-1.62,11.38-2.56Z"/>
    <path class="st0" d="M409.45,186l.28-1.8c.01-.08-.06-.15-.14-.14l-62.82,12.06c-.15.03-.12.24.02.24l10.63-.14c.07,0,.08.1.02.12-6.2,1.89-11.34,4.03-13,4.74-.12.05-.08.24.05.23,1.81-.05,7.38-.28,13.8-1.19.07,0,.1.09.04.11l-9.68,4.36c-.14.06-.06.27.08.23l34.14-8.58s0,0,0,0l27.87-7.01c.08-.02.12-.12.07-.19l-1.01-1.51c-.13-.19,0-.45.23-.46,1.77-.06,4.45-.24,6.75-.75,2.56-.57,5.59-1.75,7.31-2.47.15-.06.2-.21.17-.33-.03-.13-.13-.24-.3-.23-1.87.07-5.11.28-7.67.84-2.3.51-4.8,1.48-6.43,2.17-.21.09-.44-.09-.4-.32Z"/>
    <path class="st0" d="M332.01,157.02l10.29-2.68c.07-.02.1.08.04.11-5.57,3.31-10.05,6.62-11.49,7.71-.11.08-.02.25.1.21,1.74-.48,7.1-2.04,13.11-4.45.07-.03.12.06.06.1l-8.36,6.55c-.12.09,0,.27.13.2l56.48-29.97c.07-.04.09-.14.02-.2l-1.34-1.22c-.17-.15-.11-.43.11-.5,1.71-.49,4.26-1.3,6.37-2.34,2.35-1.16,5.01-3.04,6.51-4.15.13-.1.15-.25.09-.36-.06-.12-.19-.2-.34-.15-1.8.52-4.89,1.49-7.25,2.65-2.11,1.04-4.31,2.58-5.73,3.65-.18.14-.44.02-.46-.21l-.16-1.81c0-.08-.1-.14-.17-.1l-58.11,26.73c-.14.06-.06.27.08.23Z"/>
    <path class="st0" d="M237,59.18l-1.4.18c-.24,0-.4.2-.34.45l.47,5.95,7.09-.55-.28-6.51-5.54.48ZM237.02,64.08l-.29-3.49,4.25-.4.16,3.52-4.13.37Z"/>
    <path class="st0" d="M233.25,59.67c-2.29.34-4.46.76-6.65,1.29-.07.11-.09.22-.07.35l.72,5.84,6.59-1.11-.27-2.94-.32-3.44ZM228.39,65.36l-.41-3.38,3.78-.68.32,3.39-3.68.67Z"/>
    <path class="st0" d="M224.3,17.13c.14-.52.38-.86.59-1.28.07-.16-.06-.44-.11-.6l-.44-1.36c-.35.55-.99,2.2-.82,2.39l.78.85Z"/>
    <path class="st0" d="M219.01,17.84c.2.41.9.43,1.5.78-.11-.5-.12-.92-.15-1.4-.67-.41-1.36-.7-2.15-.93l.3.54.49,1Z"/>
    <path class="st0" d="M262.26,59.25l-2.32-.25-4.77-.38-.29,6.51,5.37.39,1.79.08.41-6.09c.01-.16-.11-.23-.2-.26ZM260.76,63.98l-4.17-.33.13-3.54,4.29.37-.25,3.5Z"/>
    <path class="st0" d="M252,58.55l-6.09.02c-.27,0-.49.07-.64.23-.15.16-.19.37-.19.61l.11,5.11c0,.29.21.54.51.54h6.35c.26-.01.53-.19.54-.42l.07-5.4c0-.38-.28-.7-.66-.7ZM246.62,63.46v-3.54s4.45-.02,4.45-.02v3.54s-4.45.02-4.45.02Z"/>
    <path class="st0" d="M273.77,17.09c.24-.37.4-.62.69-.82.14-.12.17-.28.13-.46-.2-.74-.44-1.42-.8-2.15l-.54,1.62c-.06.15-.1.31-.05.48l.58,1.33Z"/>
    <path class="st0" d="M284.86,89.47l-1.94,3.72c-.06.12.11.23.19.12l2.64-3.42,3.39-4.39c.04-.05.12,0,.1.06-.71,1.8-1.33,3.54-1.87,5.12-1.14,3.34-1.88,5.99-2.18,7.09-.03.12.12.2.2.1.68-.91,2.3-3.14,4.23-6.09.91-1.4,1.88-2.96,2.86-4.63.03-.06.12-.02.1.04l-1.36,5.37-1.06,4.2c-.03.13.16.2.21.07l1.74-3.85h0s19.96-44.23,19.96-44.23c.03-.08-.02-.17-.1-.17l-1.81-.14c-.23-.02-.35-.28-.21-.46,1.05-1.43,2.57-3.64,3.6-5.76,1.15-2.36,2.1-5.47,2.6-7.26.04-.16-.04-.29-.15-.34-.12-.06-.27-.04-.36.09-1.1,1.51-2.95,4.17-4.1,6.54-1.03,2.12-1.83,4.68-2.3,6.39-.06.22-.34.29-.5.12l-1.23-1.34c-.06-.06-.16-.05-.2.03l-22.44,43.03h0Z"/>
    <path class="st0" d="M246.12,15l1,.8c.1-.9.64-1.16.1-1.67-.5-.57-1.08-1.01-1.76-1.4l.35,1.7c.05.23.13.43.32.57Z"/>
    <path class="st0" d="M277.42,17.92c.35-.28.66-.49,1.07-.65.11-.18.17-.36.21-.54.12-.52.31-.96.56-1.47-.73.3-1.31.75-1.9,1.25.08.48.08.9.06,1.42Z"/>
    <path class="st0" d="M296.92,97.3c-.04.07-.02.16.05.2.07.05.17.04.23-.03,2.33-3.12,4.52-6.33,6.67-9.57,6.39-9.74,12.5-19.67,17.84-30.04.04-.07.02-.16-.05-.2-.07-.05-.17-.04-.23.03-2.33,3.12-4.52,6.33-6.67,9.57-6.39,9.74-12.51,19.66-17.84,30.03Z"/>
    <path class="st0" d="M293.81,112.12l8.02-6.98c.05-.05.13.02.09.08-3.51,5.44-6.05,10.4-6.85,12.02-.06.12.09.23.19.14,1.35-1.21,5.45-4.99,9.76-9.83.05-.05.13,0,.1.06l-4.57,9.59c-.06.13.12.24.21.12l20.5-28.62s0,0,0,0l16.73-23.36c.05-.07.02-.17-.07-.19l-1.75-.5c-.22-.06-.29-.34-.12-.5,1.31-1.2,3.24-3.06,4.66-4.94,1.59-2.09,3.13-4.95,3.98-6.61.07-.15.02-.29-.08-.37-.1-.08-.25-.09-.37.02-1.38,1.26-3.72,3.51-5.31,5.6-1.43,1.88-2.71,4.23-3.51,5.81-.1.21-.39.21-.51.02l-.95-1.55c-.04-.07-.15-.08-.2-.01l-40.13,49.81c-.09.12.06.27.18.17Z"/>
    <path class="st0" d="M103.23,146.69c-.09-.03-.18.02-.21.11-.02.08.01.16.08.19,10.37,5.33,21.12,9.85,31.98,14.05,3.63,1.39,7.28,2.72,10.99,3.9.09.03.18-.02.21-.11.02-.08-.01-.16-.08-.19-10.37-5.34-21.12-9.85-31.98-14.05-3.63-1.39-7.28-2.72-10.99-3.91Z"/>
    <path class="st0" d="M96.39,228.99c-3.88-.09-7.77-.11-11.66.02-.09,0-.16.08-.16.17,0,.08.06.15.14.16,11.56,1.53,23.2,2.17,34.85,2.48,3.88.09,7.77.11,11.66-.02.09,0,.16-.08.16-.17,0-.08-.06-.15-.14-.16-11.56-1.54-23.2-2.17-34.85-2.48Z"/>
    <path class="st0" d="M252.2,348.56h68.93v-210.8h-142.55v210.8h66.33l.42-1.3,1.92-5.92,1.3-4,1.3,4,1.92,5.92.42,1.3ZM193.4,334.11v-181.9h112.91v181.9h-112.91ZM251.22,341.34h62.5v-196.35h-.02l-4.78,4.71v187.02h-59.19l-.42-1.3h58.31v-184.5h-115.52v184.5h55.72l-.42,1.3h-56.6v-.08l-4.78,4.71h59.88l-1.92,5.92h-64.08v-208.2h139.95v208.2h-66.68l-1.92-5.92Z"/>
    <path class="st0" d="M260.42,353.77h55.95c-2.4,1.16-3.91,2.88-4.21,5.47-.4,3.44.79,6.49,3.46,8.82,3.28,2.86,7.78,4.01,12.32,2.91,7.36-1.79,11.96-9.41,9.45-16.66-1.5-4.34-6.33-6.5-11.04-6.94v-208.42c.29-.03.59-.06.88-.1.29-.04.59-.09.88-.14.29-.05.58-.12.87-.18.58-.14,1.15-.3,1.71-.5.28-.1.55-.2.82-.31s.53-.23.79-.36c.78-.38,1.51-.83,2.17-1.35.44-.35.85-.72,1.22-1.13.37-.41.7-.85.98-1.33s.53-.98.71-1.53c.12-.34.22-.68.31-1.02.26-1.02.39-2.05.38-3.06,0-.9-.1-1.78-.29-2.64-.09-.43-.21-.85-.35-1.27-.28-.83-.64-1.63-1.08-2.39-.22-.38-.46-.75-.72-1.1-.51-.71-1.1-1.38-1.75-1.98-.49-.45-1.01-.87-1.57-1.25-.37-.25-.76-.49-1.16-.7-1-.54-2.08-.96-3.23-1.24-.57-.14-1.14-.24-1.7-.31-.85-.1-1.69-.13-2.51-.08-.55.03-1.09.1-1.63.19-.27.05-.53.1-.8.17-1.05.25-2.06.63-3.02,1.12-.24.12-.47.25-.7.39-.69.41-1.35.89-1.96,1.43-2,1.75-3.17,3.9-3.46,6.32-.1.81-.1,1.64,0,2.5.04.32.09.63.17.93.3,1.19.89,2.17,1.74,2.98.21.2.44.4.68.58.48.36,1.03.69,1.63.98h-64.99l1.06-2.68c1.75.02,3.48.48,5.16,1.1,3.37,1.25,7.54-.32,8.43-3.58.48-1.75.04-3.81-1.39-5.03-1.18-1-2.77-1.6-4.3-1.58l-8.08.08c-.74,0-1.44-.07-1.86-.89,1.35-.58,2-1.99,1.27-3.14-.23-.36-.52-.61-.87-.81-.96-.54-2.17-.54-3.13,0-.35.2-.64.44-.87.81-.72,1.15-.08,2.56,1.27,3.14-.42.81-1.11.89-1.86.89l-8.08-.08c-1.53-.02-3.12.58-4.3,1.58-1.43,1.21-1.87,3.28-1.39,5.03.89,3.27,5.06,4.83,8.43,3.58,1.68-.62,3.41-1.08,5.16-1.1l1.06,2.68h-63.77c2.4-1.16,3.91-2.88,4.21-5.47.4-3.44-.79-6.49-3.46-8.82-3.28-2.86-7.78-4.01-12.32-2.91-7.36,1.79-11.96,9.41-9.45,16.66,1.5,4.34,6.33,6.5,11.04,6.94v208.43c-4.71.43-9.54,2.59-11.04,6.94-2.51,7.25,2.09,14.87,9.45,16.66,4.55,1.1,9.05-.05,12.32-2.91,2.67-2.33,3.86-5.38,3.46-8.82-.3-2.59-1.82-4.31-4.21-5.47h55.57l4.59,3.34-2.47,7.61-.65,2,1.71-1.24,6.47-4.7,6.47,4.7,1.71,1.24-.65-2-2.47-7.61,4.59-3.34h2.22ZM260.29,123.45c.72-.86,1.91-.32,2.41.09.7.58.97,1.16.98,2.29.01,1.22-1.46,3.23-2.91,2.44-1.28-.69-1.39-3.72-.47-4.82ZM258.73,121.64c-1.36,1.67-1.75,3.42-1.82,5.52l-4.22-.15c.09-1.91-.23-3.34-.54-5l6.58-.37ZM319.72,367.64c-3.96-1.4-6.75-5.41-5.6-9.68.71-2.65,4.26-3.79,6.51-2.37,1.62,1.02,2.33,3.21,1.76,4.87-.46,1.35-1.62,2.18-2.82,2.21-1.33.03-2.6-.92-2.84-2.37-.17-1.01.85-2.05,1.94-1.75,1.13.32,1.36,1.48,1.52,2.51,1.47-1.12.62-3.02-.43-3.66-1.47-.89-3.2-.27-3.92,1.25-.68,1.43-.1,3.15,1.04,4.09,1.24,1.03,3,1.18,4.63.14,1,1.5,2.43,2.12,4.47,2.62-1.14,2.38-3.85,2.99-6.26,2.14ZM324.2,362.19c-.63-.48-.11-1.18.19-1.45.47-.43,1.36-.69,1.78-.08.39.56.31,1.42.32,1.97-.77-.03-1.68.04-2.3-.44ZM329.75,367.48c2.2-3.43,2.08-7.6-1.31-10.14,1.48-.62,2.68.31,3.27,1.66,1.24,2.85.54,6.5-1.96,8.48ZM330.32,354.91c2.94,1.09,4.85,3.95,4.11,7.12-.33,1.4-.98,2.72-2.02,3.76,1.27-2.72,1.54-5.55-.05-8.03-1.12-1.74-3.5-2.56-5.05-.97-.6.62-.83,1.58-1.84,2.32-.36.26-.94-.54-1.09-.94-.22-.58.11-1.38.49-1.93,1.25-1.8,3.45-2.08,5.45-1.34ZM330.01,127.4c.82-1.15,1.21-2.47,1.22-3.83,0-.68-.09-1.37-.28-2.05-.06-.23-.13-.46-.21-.68-.17-.49-.41-.96-.67-1.43-.1-.19-.2-.37-.32-.56,1.36,1.09,2.19,2.67,2.46,4.35.04.24.07.48.08.72.01.19.02.39.01.58s-.01.39-.03.58c-.07.77-.26,1.54-.57,2.25-.59,1.35-1.79,2.28-3.27,1.66.63-.48,1.16-1.01,1.57-1.59ZM327.31,129.52c.29.3.61.51.94.65.22.09.45.15.69.18s.47.03.7,0c.23-.03.47-.09.7-.17.34-.12.67-.3.97-.52.4-.3.76-.67,1.04-1.11.1-.15.19-.31.28-.47.09-.16.16-.32.23-.48.14-.32.26-.64.35-.97s.15-.66.19-.99c.04-.33.06-.67.05-1.01-.01-.51-.07-1.02-.18-1.54-.14-.69-.36-1.37-.65-2.06-.07-.17-.15-.34-.23-.51.26.26.49.54.71.83.32.44.59.91.8,1.4.22.49.39,1.01.51,1.53.05.2.08.4.11.59.03.2.04.39.05.58.02.58-.05,1.13-.19,1.67-.38,1.42-1.29,2.64-2.54,3.49-.16.11-.32.21-.48.3-.25.14-.51.26-.78.38-.09.04-.18.08-.27.11-2,.74-4.2.46-5.45-1.34-.07-.1-.14-.22-.21-.33-.06-.12-.12-.24-.18-.37-.07-.17-.12-.34-.15-.51-.02-.08-.02-.17-.03-.25,0-.17.02-.32.07-.47.06-.15.17-.35.32-.54.24-.31.55-.56.78-.4.25.18.45.38.63.59s.31.41.44.62c.26.41.47.8.77,1.11ZM326.5,123.69c0,.21,0,.46,0,.72s-.03.54-.11.79c-.05.17-.12.33-.21.47-.43.61-1.31.34-1.78-.08-.3-.27-.83-.97-.19-1.45.16-.12.33-.2.52-.27.18-.06.38-.1.58-.12.4-.05.82-.04,1.21-.05ZM315.9,130.65c-.28-.17-.54-.37-.78-.6-.23-.23-.44-.48-.61-.77-.17-.28-.3-.59-.39-.92-.14-.53-.23-1.06-.25-1.59-.08-1.56.35-3.05,1.13-4.33.13-.21.27-.42.42-.62,1.05-1.41,2.56-2.53,4.29-3.14.9-.32,1.85-.43,2.74-.33.3.04.59.1.87.18s.55.2.81.33c.26.14.5.3.73.49.45.38.83.86,1.12,1.46-.51.13-.98.26-1.42.41-.65.23-1.23.5-1.73.86-.17.12-.33.25-.48.38-.31.28-.58.6-.83.97-.2-.13-.41-.24-.61-.34-.21-.09-.41-.17-.62-.23-1.24-.35-2.47-.07-3.39.7-.43.36-.77.82-1.01,1.34-.15.34-.26.71-.3,1.09-.02.19-.03.38-.01.56s.04.38.09.56c.05.19.11.37.2.55.72,1.52,2.46,2.14,3.92,1.25.13-.08.26-.18.38-.29.18-.17.35-.38.48-.61.49-.84.57-1.98-.43-2.75-.16,1.03-.39,2.19-1.52,2.51-.68.19-1.33-.14-1.69-.67-.14-.21-.24-.45-.26-.7-.01-.12-.01-.25,0-.38.06-.36.18-.69.36-.98.35-.58.89-1.01,1.51-1.23.31-.11.64-.16.97-.15,1.2.03,2.36.85,2.82,2.21.42,1.24.13,2.79-.73,3.91-.29.37-.63.7-1.04.96-.56.35-1.21.55-1.87.6-.66.05-1.34-.04-1.96-.26-.31-.11-.62-.25-.9-.42ZM247.85,117.7c0-.77.62-1.4,1.4-1.4s1.4.62,1.4,1.4-.62,1.4-1.4,1.4-1.4-.62-1.4-1.4ZM248.78,127.88c-.24-.06-.26-1.03.14-1.03.46,0,.44.92-.14,1.03ZM248.71,125.26c.09.69-.72.69-.64,0,.05-.43.58-.43.64,0ZM237.72,128.27c-1.46.79-2.92-1.22-2.91-2.44.01-1.13.28-1.72.98-2.29.5-.41,1.69-.95,2.41-.09.92,1.1.8,4.12-.47,4.82ZM245.8,127.01l-4.22.15c-.07-2.09-.46-3.85-1.82-5.52l6.58.37c-.3,1.67-.63,3.09-.54,5ZM247.77,121.89c-.07,2.06-.62,3.8-.27,6.13.04.26.83.82-.08,1.16-.74-2.4-1.02-4.95.36-7.3ZM179.98,118.68c3.96,1.4,6.75,5.41,5.6,9.68-.71,2.65-4.26,3.79-6.51,2.37-1.62-1.02-2.33-3.21-1.76-4.87.46-1.35,1.62-2.18,2.82-2.21,1.33-.03,2.6.92,2.84,2.37.17,1.01-.85,2.05-1.94,1.75-1.13-.32-1.36-1.48-1.52-2.51-1.47,1.12-.62,3.02.43,3.66,1.47.89,3.2.27,3.92-1.25.68-1.43.1-3.15-1.04-4.09-1.24-1.03-3-1.18-4.63-.14-1-1.5-2.43-2.12-4.47-2.62,1.14-2.38,3.85-2.99,6.26-2.14ZM175.51,124.13c.63.48.11,1.18-.19,1.45-.47.43-1.36.69-1.78.08-.39-.56-.31-1.42-.32-1.98.77.03,1.68-.04,2.3.44ZM169.95,118.84c-2.2,3.43-2.08,7.6,1.31,10.14-1.48.62-2.68-.31-3.27-1.66-1.24-2.85-.54-6.5,1.96-8.48ZM169.38,131.42c-2.94-1.09-4.85-3.95-4.11-7.12.33-1.4.98-2.72,2.02-3.76-1.27,2.72-1.54,5.55.05,8.03,1.12,1.74,3.5,2.56,5.05.97.6-.62.83-1.58,1.84-2.32.36-.26.94.54,1.09.94.22.58-.11,1.38-.49,1.93-1.25,1.8-3.45,2.08-5.45,1.34ZM169.95,367.48c-2.49-1.99-3.2-5.64-1.96-8.48.59-1.35,1.79-2.28,3.27-1.66-3.39,2.55-3.51,6.71-1.31,10.14ZM167.34,357.77c-1.59,2.47-1.32,5.31-.05,8.03-1.04-1.05-1.69-2.36-2.02-3.76-.74-3.17,1.17-6.03,4.11-7.12,2-.74,4.2-.46,5.45,1.34.38.55.71,1.35.49,1.93-.15.39-.74,1.2-1.09.94-1-.74-1.24-1.7-1.84-2.32-1.55-1.59-3.93-.77-5.05.97ZM173.53,360.65c.43-.61,1.31-.34,1.78.08.3.27.83.97.19,1.45-.63.48-1.53.41-2.3.44.01-.55-.07-1.42.32-1.97ZM185.58,357.96c1.15,4.28-1.64,8.28-5.6,9.68-2.41.85-5.12.24-6.26-2.14,2.04-.5,3.46-1.12,4.47-2.62,1.62,1.04,3.39.89,4.63-.14,1.14-.95,1.71-2.67,1.04-4.09-.72-1.52-2.46-2.14-3.92-1.25-1.05.64-1.89,2.54-.43,3.66.16-1.03.39-2.19,1.52-2.51,1.09-.31,2.11.74,1.94,1.75-.24,1.44-1.51,2.4-2.84,2.37-1.2-.03-2.36-.85-2.82-2.21-.56-1.66.14-3.85,1.76-4.87,2.25-1.41,5.8-.27,6.51,2.37ZM244.38,356.14l-3.34-2.43,2.36.77,3.05.99h0s-2.07.67-2.07.67h0ZM247.9,359.64l-3.34,2.43h0s1.96-2.7,1.96-2.7l1.38-1.9v2.17ZM247.9,353.46h0s-1.28-1.76-1.28-1.76l1.28-3.93v5.69ZM248.55,341.55l-.65,2-2.47,7.61h-69.46v-216.01h147.76v216.01h-72.06l-.85-2.61-.42-1.3-1.2-3.7-.65-2ZM251.64,358.61l-1.38-1.9h0s2.07.67,2.07.67l1.28,3.93-1.96-2.7ZM254.09,352.98l-3.83,1.25.24-.33,1.04-1.43h4.13l-1.58.51Z"/>
    <path class="st0" d="M258.94,402.57c-.02-.08-.08-.13-.16-.13-.09,0-.16.08-.16.17.11,3.89.38,7.77.72,11.64,1.04,11.6,2.41,23.18,4.67,34.62.02.08.08.13.16.13.09,0,.16-.08.16-.17-.11-3.89-.39-7.77-.72-11.64-1.04-11.6-2.41-23.18-4.67-34.62Z"/>
    <path class="st0" d="M313.54,444.1c-1.03-2.12-2.55-4.33-3.6-5.76-.14-.18-.01-.44.21-.46l1.81-.14c.08,0,.14-.09.1-.17l-11.82-26.19h0s-2.7-5.98-2.7-5.98h0s-11.79-26.13-11.79-26.13c-.06-.14-.27-.06-.23.08l2.6,10.31c.02.07-.08.1-.11.04-3.27-5.59-6.55-10.09-7.63-11.54-.08-.11-.25-.03-.21.1.47,1.75,1.99,7.12,4.36,13.15.03.07-.06.12-.1.06l-6.49-8.41c-.09-.12-.27,0-.2.13l16.27,31.22s0,0,0,0l13.28,25.48c.04.07.14.09.2.03l1.23-1.33c.16-.17.44-.1.5.12.47,1.71,1.27,4.27,2.3,6.39,1.15,2.36,3,5.03,4.1,6.54.1.13.25.15.36.09.12-.06.2-.19.15-.34-.5-1.8-1.45-4.9-2.6-7.26Z"/>
    <path class="st0" d="M280.48,448.96c-.09-.21.08-.44.31-.4l1.8.26c.08.01.15-.06.14-.15l-5.8-28.14s0,0,0,0l-1.32-6.43-5.78-28.07c-.03-.15-.25-.12-.24.03l.28,10.63c0,.07-.1.08-.12.02-1.97-6.17-4.18-11.28-4.92-12.93-.05-.12-.24-.08-.23.05.08,1.81.38,7.38,1.38,13.78.01.07-.08.1-.11.04l-4.49-9.62c-.06-.13-.27-.06-.23.08l9.05,34.02s0,0,0,0l7.38,27.77c.02.08.12.12.19.07l1.49-1.03c.19-.13.45,0,.46.22.09,1.77.3,4.44.84,6.74.6,2.56,1.83,5.56,2.57,7.27.06.15.21.2.34.17.13-.03.23-.14.23-.3-.1-1.87-.35-5.1-.95-7.66-.54-2.29-1.54-4.78-2.26-6.4Z"/>
    <path class="st0" d="M316.12,418.22c-5.87-10.07-12.02-19.97-18.92-29.37-.05-.06-.13-.08-.2-.05-.08.04-.11.14-.07.22,1.75,3.48,3.65,6.87,5.59,10.23,5.87,10.07,12.02,19.97,18.92,29.37.05.06.13.08.2.05.08-.04.11-.14.07-.22-1.76-3.48-3.65-6.87-5.59-10.23Z"/>
    <path class="st0" d="M278.63,397.9c-.03-.07-.11-.11-.19-.09-.09.02-.14.11-.12.2.99,3.77,2.13,7.48,3.33,11.17,3.64,11.07,7.6,22.03,12.39,32.66.03.07.11.11.19.09.09-.02.14-.11.12-.2-.99-3.77-2.14-7.48-3.33-11.17-3.64-11.07-7.59-22.04-12.38-32.67Z"/>
    <path class="st0" d="M241.83,162.63l-5.36,5.36v20.76l5.36,5.36h16.07l5.36-5.36v-20.76l-5.36-5.36h-16.07ZM260.63,167.99h-3.89c-.72,0-1.3.58-1.3,1.3v14.39c0,1.44-1.17,2.61-2.61,2.61h-9.7c-.72,0-1.3.58-1.3,1.3v3.89c0,.29-.35.44-.56.23l-3.5-3.5v-19.68l4.59-4.59h14.99l3.5,3.5c.21.21.06.56-.23.56Z"/>
    <path class="st0" d="M274.46,292.22l-5.36,5.36v20.76l5.36,5.36h16.07l5.36-5.36v-20.76l-5.36-5.36h-16.07ZM293.26,297.57h-3.89c-.72,0-1.3.58-1.3,1.3v14.39c0,1.44-1.17,2.61-2.61,2.61h-9.7c-.72,0-1.3.58-1.3,1.3v3.89c0,.29-.35.44-.56.23l-3.5-3.5v-19.68l4.59-4.59h14.99l3.5,3.5c.21.21.06.56-.23.56Z"/>
    <path class="st0" d="M241.83,205.83l-5.36,5.36v20.76l5.36,5.36h16.07l5.36-5.36v-20.76l-5.36-5.36h-16.07ZM260.63,211.18h-3.89c-.72,0-1.3.58-1.3,1.3v14.39c0,1.44-1.17,2.61-2.61,2.61h-9.7c-.72,0-1.3.58-1.3,1.3v3.89c0,.29-.35.44-.56.23l-3.5-3.5v-19.68l4.59-4.59h14.99l3.5,3.5c.21.21.06.56-.23.56Z"/>
    <path class="st0" d="M274.46,205.83l-5.36,5.36v20.76l5.36,5.36h16.07l5.36-5.36v-20.76l-5.36-5.36h-16.07ZM293.26,211.18h-3.89c-.72,0-1.3.58-1.3,1.3v14.39c0,1.44-1.17,2.61-2.61,2.61h-9.7c-.72,0-1.3.58-1.3,1.3v3.89c0,.29-.35.44-.56.23l-3.5-3.5v-19.68l4.59-4.59h14.99l3.5,3.5c.21.21.06.56-.23.56Z"/>
    <path class="st0" d="M274.46,162.63l-5.36,5.36v20.76l5.36,5.36h16.07l5.36-5.36v-20.76l-5.36-5.36h-16.07ZM293.26,167.99h-3.89c-.72,0-1.3.58-1.3,1.3v14.39c0,1.44-1.17,2.61-2.61,2.61h-9.7c-.72,0-1.3.58-1.3,1.3v3.89c0,.29-.35.44-.56.23l-3.5-3.5v-19.68l4.59-4.59h14.99l3.5,3.5c.21.21.06.56-.23.56Z"/>
    <path class="st0" d="M196,331.5h107.7v-176.69h-107.7v176.69ZM198.61,157.42h102.49v171.48h-102.49v-171.48Z"/>
    <path class="st0" d="M274.46,249.02l-5.36,5.36v20.76l5.36,5.36h16.07l5.36-5.36v-20.76l-5.36-5.36h-16.07ZM293.26,254.38h-3.89c-.72,0-1.3.58-1.3,1.3v14.39c0,1.44-1.17,2.61-2.61,2.61h-9.7c-.72,0-1.3.58-1.3,1.3v3.89c0,.29-.35.44-.56.23l-3.5-3.5v-19.68l4.59-4.59h14.99l3.5,3.5c.21.21.06.56-.23.56Z"/>
    <path class="st0" d="M397.56,355.77c-2.11-1.04-4.67-1.86-6.37-2.34-.22-.06-.28-.34-.11-.5l1.35-1.23c.06-.06.05-.16-.02-.2l-31.18-16.54-25.32-13.43c-.13-.07-.25.11-.13.2l8.37,6.55c.06.04,0,.13-.06.1-6.01-2.41-11.36-3.97-13.1-4.45-.13-.04-.21.13-.11.21,1.44,1.09,5.93,4.41,11.5,7.72.06.04.02.13-.04.11l-10.28-2.67c-.14-.04-.22.17-.08.23l31.98,14.71s0,0,0,0l26.11,12.01c.08.04.17-.02.17-.1l.16-1.81c.02-.23.28-.35.46-.21,1.42,1.06,3.62,2.6,5.73,3.64,2.35,1.16,5.45,2.14,7.24,2.65.16.05.29-.04.34-.15.06-.12.04-.27-.09-.36-1.5-1.11-4.15-2.99-6.51-4.15Z"/>
    <path class="st0" d="M424.08,302.46c-1.72-.72-4.75-1.91-7.31-2.47-2.3-.51-4.97-.69-6.75-.75-.23,0-.36-.27-.23-.46l1.01-1.51c.05-.07.01-.17-.07-.19l-27.87-7.01h0l-34.16-8.59c-.14-.04-.22.17-.08.23l9.69,4.36c.06.03.03.12-.04.11-6.41-.91-11.98-1.14-13.79-1.19-.13,0-.17.18-.05.23,1.66.72,6.81,2.86,13.01,4.75.07.02.05.12-.02.12l-10.62-.14c-.15,0-.17.21-.02.24l34.57,6.64s0,0,0,0l28.22,5.42c.08.02.16-.06.14-.14l-.28-1.8c-.04-.23.19-.41.4-.32,1.64.69,4.13,1.66,6.44,2.17,2.56.57,5.8.77,7.67.85.16,0,.27-.1.3-.23.03-.13-.02-.27-.17-.33Z"/>
    <path class="st0" d="M375.11,280.29c11.44,2.18,22.95,4.03,34.57,5,.08,0,.15-.04.17-.12.02-.09-.03-.18-.12-.2-3.78-.96-7.58-1.76-11.39-2.5-11.44-2.18-22.95-4.04-34.57-5-.08,0-.15.04-.17.12-.02.09.03.18.12.2,3.78.96,7.58,1.76,11.39,2.5Z"/>
    <path class="st0" d="M369.77,303.96c11.12,3.47,22.35,6.61,33.78,8.89.08.01.15-.03.18-.1.03-.08-.01-.18-.09-.21-3.64-1.38-7.33-2.61-11.03-3.78-11.12-3.47-22.35-6.62-33.78-8.89-.08-.01-.15.03-.18.1-.03.08.01.18.09.21,3.64,1.38,7.33,2.61,11.03,3.78Z"/>
    <path class="st0" d="M430.47,242.87c-1.84-.33-5.05-.83-7.67-.83-2.36,0-5.01.4-6.75.73-.23.04-.41-.18-.32-.4l.66-1.7c.03-.08-.03-.16-.11-.17l-35.29-1h0l-28.65-.81c-.15,0-.17.21-.03.24l10.41,2.16c.07.01.06.11-.01.12-6.46.5-11.94,1.48-13.72,1.82-.13.03-.13.21,0,.24,1.78.34,7.27,1.32,13.73,1.82.07,0,.08.1.01.12l-10.4,2.16c-.15.03-.12.25.03.24l35.19-1s0,0,0,0l28.72-.81c.08,0,.14-.09.11-.17l-.66-1.69c-.08-.21.1-.44.32-.4,1.75.32,4.4.73,6.75.73,2.63,0,5.83-.5,7.67-.83.16-.03.24-.16.24-.29,0-.13-.08-.26-.24-.29Z"/>
    <path class="st0" d="M415.85,331.66c-1.63-.92-4.49-2.45-6.97-3.31-2.23-.77-4.86-1.26-6.62-1.53-.23-.03-.32-.3-.17-.48l1.18-1.38c.05-.06.03-.16-.05-.19l-59.79-22.72c-.14-.05-.23.14-.11.22l9.12,5.46c.06.04.02.13-.05.11-6.26-1.65-11.76-2.52-13.55-2.79-.13-.02-.19.16-.08.22,1.57.9,6.43,3.64,12.37,6.23.06.03.04.13-.03.12l-10.53-1.38c-.15-.02-.19.19-.05.24l33.56,10.62s0,0,0,0l27.4,8.67c.08.03.16-.04.16-.12l-.07-1.82c0-.23.23-.38.43-.27,1.54.88,3.91,2.13,6.14,2.9,2.48.86,5.67,1.44,7.52,1.73.16.03.28-.07.32-.19.04-.12,0-.27-.13-.35Z"/>
    <path class="st0" d="M428.91,272.76c-1.79-.53-4.93-1.37-7.54-1.65-2.34-.25-5.02-.13-6.79,0-.23.02-.38-.22-.28-.43l.84-1.61c.04-.07,0-.17-.09-.18l-63.38-8.62c-.15-.02-.2.19-.05.24l10.12,3.26c.07.02.05.12-.02.12-6.47-.19-12.03.2-13.83.35-.13.01-.15.2-.03.24,1.73.53,7.09,2.09,13.46,3.28.07.01.07.11,0,.12l-10.57,1.04c-.15.01-.15.23,0,.24l35.1,2.76h0l28.65,2.26c.08,0,.15-.07.13-.15l-.48-1.75c-.06-.22.14-.42.36-.36,1.7.51,4.29,1.19,6.64,1.44,2.61.28,5.85.12,7.72,0,.16-.01.26-.13.27-.26.01-.13-.05-.27-.21-.31Z"/>
    <path class="st0" d="M377.8,256.11c11.61.93,23.26,1.51,34.91,1.21.08,0,.15-.06.16-.14.01-.09-.05-.17-.14-.18-3.86-.54-7.72-.92-11.59-1.25-11.61-.93-23.26-1.52-34.91-1.22-.08,0-.14.06-.16.14-.01.09.05.17.14.18,3.86.54,7.72.93,11.59,1.25Z"/>
    <path class="st0" d="M338.8,367.99c-.05.07-.06.15-.02.19,2,2.01,4.1,3.9,6.23,5.74,6.44,5.49,13.09,10.72,20.27,15.23.05.03.12.01.18-.05,0,0,0,0,0-.01,0,0,0,0,.01,0,.05-.07.05-.14,0-.18-6.04-5.95-12.66-11.22-19.48-16.23-2.28-1.65-4.6-3.26-7.02-4.74-.05-.03-.13,0-.18.06Z"/>
    <path class="st0" d="M363.71,405.9c-1.73-1.6-3.94-3.11-5.44-4.06-.19-.12-.17-.41.03-.51l1.64-.79c.08-.04.09-.14.03-.2l-22.33-21.92c-.08-.08-.21.03-.15.13l4.88,6.86s-.03.1-.07.06c-4.03-3.19-7.75-5.58-8.96-6.34-.09-.06-.19.05-.13.14.85,1.15,3.51,4.68,6.99,8.45.04.04-.01.1-.06.07l-7.22-4.35c-.1-.06-.2.08-.11.16l23.55,20.64c.06.06.16.03.19-.05l.67-1.69c.08-.21.37-.26.51-.07,1.06,1.42,2.73,3.52,4.46,5.12,1.92,1.79,4.62,3.6,6.19,4.6.14.09.28.05.37-.05.09-.1.12-.24.02-.37-1.12-1.49-3.13-4.04-5.06-5.83Z"/>
    <path class="st0" d="M338.11,401.37c-7.62-8.82-15.49-17.42-24-25.38-.06-.05-.15-.06-.21,0-.07.05-.09.16-.03.23,2.36,3.1,4.85,6.08,7.38,9.03,7.62,8.81,15.49,17.41,24,25.38.06.05.15.06.21,0,.07-.05.09-.16.03-.23-2.37-3.09-4.85-6.08-7.38-9.03Z"/>
    <path class="st0" d="M340.71,427.08c-1.43-1.88-3.35-3.74-4.66-4.94-.17-.15-.1-.43.12-.5l1.75-.5c.08-.02.11-.12.07-.19l-16.73-23.36h0s-3.82-5.34-3.82-5.34h0s-16.69-23.3-16.69-23.3c-.09-.12-.27-.01-.21.12l4.58,9.59c.03.06-.05.12-.1.06-4.31-4.84-8.4-8.61-9.75-9.82-.1-.09-.25.02-.19.14.81,1.62,3.35,6.59,6.85,12.03.04.06-.04.13-.09.08l-8.01-6.97c-.11-.1-.27.05-.17.17l17.97,22.3,4.12,5.11s0,0,0,0l18.03,22.38c.05.07.16.06.2-.01l.95-1.55c.12-.2.41-.19.51.02.8,1.59,2.08,3.94,3.51,5.81,1.59,2.09,3.93,4.34,5.3,5.6.12.11.27.1.37.02.1-.08.16-.22.08-.37-.85-1.66-2.39-4.52-3.98-6.61Z"/>
    <path class="st0" d="M241.83,249.02l-5.36,5.36v20.76l5.36,5.36h16.07l5.36-5.36v-20.76l-5.36-5.36h-16.07ZM260.63,254.38h-3.89c-.72,0-1.3.58-1.3,1.3v14.39c0,1.44-1.17,2.61-2.61,2.61h-9.7c-.72,0-1.3.58-1.3,1.3v3.89c0,.29-.35.44-.56.23l-3.5-3.5v-19.68l4.59-4.59h14.99l3.5,3.5c.21.21.06.56-.23.56Z"/>
    <path class="st0" d="M394.21,339.63c.07.02.16,0,.19-.08.04-.08.01-.18-.07-.22-3.45-1.81-6.96-3.47-10.5-5.07-10.63-4.78-21.39-9.25-32.47-12.88-.07-.02-.16,0-.19.08-.04.08-.01.18.07.22,3.45,1.81,6.96,3.47,10.5,5.08,10.63,4.78,21.39,9.25,32.47,12.88Z"/>
    <path class="st0" d="M382.58,381.84c-1.95-1.32-4.37-2.48-6-3.19-.21-.09-.23-.38-.04-.51l1.5-1.03c.07-.05.07-.15,0-.2l-25.4-18.29c-.1-.07-.21.06-.13.15l5.86,6.04s-.01.1-.06.07c-4.46-2.54-8.5-4.34-9.82-4.91-.1-.04-.18.08-.11.16,1.01,1.01,4.18,4.1,8.19,7.3.04.03,0,.1-.05.08l-7.79-3.21c-.11-.05-.19.11-.09.17l26.41,16.83c.07.05.17,0,.18-.08l.4-1.78c.05-.22.33-.31.49-.15,1.26,1.25,3.23,3.07,5.18,4.39,2.17,1.47,5.11,2.86,6.82,3.61.15.07.29,0,.36-.1.07-.11.08-.26-.04-.37-1.34-1.31-3.71-3.52-5.88-4.99Z"/>
    <path class="st0" d="M381.49,365.24c.07.03.16.01.2-.05.05-.07.03-.18-.04-.23-3.19-2.24-6.46-4.34-9.75-6.39-9.92-6.11-20.01-11.95-30.53-16.99-.07-.03-.16-.01-.2.05-.05.07-.03.18.04.23,3.19,2.24,6.45,4.34,9.75,6.39,9.92,6.11,20.01,11.94,30.53,16.98Z"/>
    <path class="st0" d="M104.83,308.76c-3.7,1.17-7.39,2.4-11.03,3.78-.08.03-.13.13-.09.21.03.08.11.12.18.1,11.44-2.28,22.66-5.42,33.78-8.89,3.7-1.17,7.39-2.4,11.03-3.78.08-.03.13-.13.09-.21-.03-.08-.11-.12-.18-.1-11.44,2.27-22.66,5.43-33.78,8.89Z"/>
    <path class="st0" d="M99.09,282.47c-3.81.74-7.61,1.54-11.39,2.5-.09.02-.14.11-.12.2.02.08.09.13.17.12,11.62-.97,23.13-2.82,34.57-5,3.81-.74,7.61-1.54,11.39-2.5.09-.02.14-.11.12-.2-.02-.08-.09-.13-.17-.12-11.62.96-23.13,2.82-34.57,5Z"/>
    <path class="st0" d="M95.87,327.84l-.07,1.82c0,.08.08.15.16.12l27.4-8.67s0,0,0,0l33.56-10.62c.14-.04.1-.26-.05-.24l-10.53,1.38c-.07,0-.09-.09-.03-.12,5.94-2.6,10.8-5.33,12.37-6.23.12-.07.05-.24-.08-.22-1.79.26-7.29,1.14-13.55,2.79-.07.02-.11-.07-.05-.11l9.12-5.46c.13-.08.03-.27-.11-.22l-59.79,22.72c-.08.03-.1.13-.05.19l1.18,1.38c.15.17.05.44-.17.48-1.76.27-4.39.76-6.62,1.53-2.48.86-5.34,2.39-6.97,3.31-.14.08-.17.23-.13.35.04.12.16.22.32.19,1.85-.29,5.04-.87,7.52-1.73,2.23-.77,4.6-2.02,6.14-2.9.2-.11.44.04.43.27Z"/>
    <path class="st0" d="M87.99,300.33l-.28,1.8c-.01.08.06.15.14.14l28.22-5.42s0,0,0,0l34.57-6.64c.15-.03.12-.24-.02-.24l-10.62.14c-.07,0-.08-.1-.02-.12,6.2-1.89,11.35-4.03,13.01-4.75.12-.05.08-.24-.05-.23-1.81.05-7.37.28-13.79,1.19-.07,0-.1-.09-.04-.11l9.69-4.36c.14-.06.06-.27-.08-.23l-34.16,8.59h0l-27.87,7.01c-.08.02-.12.12-.07.19l1.01,1.51c.13.19,0,.45-.23.46-1.77.06-4.45.24-6.75.75-2.56.57-5.59,1.75-7.31,2.47-.15.06-.2.21-.17.33.03.13.13.24.3.23,1.87-.07,5.11-.28,7.67-.85,2.3-.51,4.8-1.48,6.44-2.17.21-.09.44.09.4.32Z"/>
    <path class="st0" d="M81.59,154.66c1.63.92,4.49,2.44,6.97,3.31,2.23.77,4.86,1.26,6.62,1.53.23.03.32.3.17.48l-1.18,1.38c-.05.06-.03.16.05.19l26.86,10.21s0,0,0,0l32.91,12.5c.14.05.23-.14.11-.22l-9.11-5.46c-.06-.04-.02-.13.05-.11,6.27,1.65,11.77,2.52,13.57,2.79.13.02.19-.16.08-.22-1.57-.9-6.42-3.63-12.36-6.23-.06-.03-.04-.13.03-.12l10.54,1.38c.15.02.19-.19.05-.24l-60.98-19.29c-.08-.03-.16.04-.16.12l.07,1.82c0,.23-.23.38-.43.27-1.54-.88-3.91-2.13-6.14-2.9-2.48-.86-5.67-1.44-7.52-1.73-.16-.03-.28.07-.32.19-.04.12,0,.27.13.35Z"/>
    <path class="st0" d="M131.97,389.08s0,0,.01,0c0,0,0,0,0,.01.05.06.13.08.18.05,7.18-4.51,13.83-9.74,20.27-15.23,2.13-1.84,4.23-3.73,6.23-5.74.04-.04.03-.13-.02-.19-.05-.06-.13-.1-.18-.06-2.42,1.48-4.74,3.09-7.02,4.74-6.82,5-13.44,10.27-19.48,16.23-.04.04-.04.12,0,.18Z"/>
    <path class="st0" d="M133.51,344.25l31.98-14.71c.14-.06.06-.27-.08-.23l-10.28,2.67c-.07.02-.1-.08-.04-.11,5.57-3.31,10.05-6.63,11.5-7.72.11-.08.02-.25-.11-.21-1.74.48-7.09,2.04-13.1,4.45-.07.03-.12-.06-.06-.1l8.37-6.55c.12-.09,0-.27-.13-.2l-25.32,13.43-31.18,16.54c-.07.04-.09.14-.02.2l1.35,1.23c.17.15.11.43-.11.5-1.71.48-4.26,1.3-6.37,2.34-2.35,1.16-5.01,3.04-6.51,4.15-.13.1-.15.25-.09.36.06.12.19.2.34.15,1.79-.52,4.89-1.49,7.24-2.65,2.11-1.04,4.31-2.58,5.73-3.64.18-.14.44-.02.46.21l.16,1.81c0,.08.1.14.17.1l26.11-12.01s0,0,0,0Z"/>
    <path class="st0" d="M113.61,334.25c-3.53,1.61-7.05,3.27-10.5,5.07-.08.04-.11.14-.07.22.04.07.12.1.19.08,11.08-3.64,21.85-8.11,32.47-12.88,3.53-1.61,7.05-3.27,10.5-5.08.08-.04.11-.14.07-.22-.04-.07-.12-.1-.19-.08-11.08,3.63-21.85,8.11-32.47,12.88Z"/>
    <path class="st0" d="M156.27,341.64c-.05-.07-.13-.09-.2-.05-10.52,5.04-20.61,10.87-30.53,16.99-3.3,2.05-6.56,4.15-9.75,6.39-.07.05-.09.15-.04.23.05.07.13.09.2.05,10.51-5.04,20.61-10.87,30.53-16.98,3.3-2.05,6.56-4.15,9.75-6.39.07-.05.09-.15.04-.23Z"/>
    <path class="st0" d="M73.36,183.86c1.72.72,4.75,1.9,7.31,2.47,2.3.51,4.97.69,6.75.75.23,0,.36.27.23.46l-1.01,1.51c-.05.07-.01.17.07.19l27.87,7.01s0,0,0,0l34.14,8.58c.14.04.22-.17.08-.23l-9.68-4.36c-.06-.03-.03-.12.04-.11,6.42.91,11.99,1.14,13.8,1.19.13,0,.17-.18.05-.23-1.66-.72-6.8-2.86-13-4.74-.07-.02-.05-.12.02-.12l10.63.14c.15,0,.17-.21.02-.24l-62.82-12.06c-.08-.02-.16.06-.14.14l.28,1.8c.04.23-.19.41-.4.32-1.64-.69-4.13-1.66-6.43-2.17-2.56-.57-5.8-.77-7.67-.84-.16,0-.27.1-.3.23-.03.13.02.27.17.33Z"/>
    <path class="st0" d="M105.26,176.03c-3.77-.94-7.55-1.83-11.38-2.56-.09-.02-.17.04-.19.13-.02.08.03.16.1.18,10.94,4.05,22.15,7.24,33.44,10.11,3.77.94,7.55,1.83,11.38,2.56.09.02.17-.04.19-.13.02-.08-.03-.16-.1-.18-10.93-4.05-22.15-7.24-33.44-10.11Z"/>
    <path class="st0" d="M99.35,202.28c-3.85-.51-7.71-.96-11.59-1.25-.09,0-.17.06-.18.15,0,.08.05.15.12.17,11.32,2.78,22.83,4.68,34.37,6.25,3.85.51,7.71.96,11.59,1.25.09,0,.17-.06.18-.15,0-.08-.05-.15-.12-.17-11.32-2.79-22.83-4.68-34.37-6.25Z"/>
    <path class="st0" d="M96.31,255.75c-3.87.32-7.74.71-11.59,1.25-.09.01-.15.1-.14.18.01.08.08.14.16.14,11.66.3,23.3-.29,34.91-1.21,3.87-.32,7.74-.71,11.59-1.25.09-.01.15-.1.14-.18-.01-.08-.08-.14-.16-.14-11.66-.31-23.3.29-34.91,1.22Z"/>
    <path class="st0" d="M76.31,273.34c2.34-.25,4.93-.93,6.64-1.44.22-.07.42.14.36.36l-.48,1.75c-.02.08.04.16.13.15l28.65-2.26h0l35.1-2.76c.15-.01.15-.23,0-.24l-10.57-1.04c-.07,0-.07-.11,0-.12,6.37-1.19,11.72-2.75,13.46-3.28.13-.04.11-.23-.03-.24-1.8-.15-7.36-.54-13.83-.35-.07,0-.09-.1-.02-.12l10.12-3.26c.14-.05.09-.26-.05-.24l-63.38,8.62c-.08.01-.13.1-.09.18l.84,1.61c.11.2-.05.45-.28.43-1.77-.14-4.45-.25-6.79,0-2.61.28-5.75,1.12-7.54,1.65-.16.05-.22.18-.21.31.01.13.11.25.27.26,1.86.13,5.11.29,7.72,0Z"/>
    <path class="st0" d="M68.53,213.57c1.79.53,4.93,1.37,7.54,1.65,2.34.25,5.02.13,6.79,0,.23-.02.38.22.28.43l-.84,1.61c-.04.07,0,.17.09.18l28.47,3.87h0l34.88,4.75c.15.02.2-.19.05-.24l-10.11-3.26c-.07-.02-.05-.12.02-.12,6.48.19,12.04-.2,13.84-.35.13-.01.15-.2.02-.24-1.73-.53-7.08-2.09-13.44-3.27-.07-.01-.07-.11,0-.12l10.58-1.04c.15-.01.15-.23,0-.24l-63.76-5.02c-.08,0-.15.07-.13.15l.48,1.76c.06.22-.14.42-.36.36-1.7-.51-4.29-1.19-6.64-1.44-2.61-.28-5.85-.12-7.72.01-.16.01-.26.13-.27.26-.01.13.05.27.21.31Z"/>
    <path class="st0" d="M81.4,243.56c.23-.04.41.18.32.4l-.66,1.69c-.03.08.03.16.11.17l28.72.81s0,0,0,0l35.19,1c.15,0,.17-.21.03-.24l-10.4-2.16c-.07-.01-.06-.11.01-.12,6.46-.5,11.95-1.48,13.73-1.82.13-.03.13-.21,0-.24-1.78-.34-7.26-1.32-13.72-1.82-.07,0-.08-.1-.01-.12l10.41-2.16c.15-.03.12-.25-.03-.24l-28.65.81h0l-35.29,1c-.08,0-.14.09-.11.17l.66,1.7c.08.21-.1.44-.32.4-1.75-.32-4.4-.73-6.75-.73-2.63,0-5.83.5-7.67.83-.16.03-.24.16-.24.29,0,.13.08.26.24.29,1.84.33,5.05.83,7.67.83,2.36,0,5.01-.4,6.75-.73Z"/>
    <path class="st0" d="M219.12,398.01c.02-.09-.03-.18-.12-.2-.08-.02-.16.02-.19.09-4.79,10.63-8.74,21.6-12.38,32.67-1.2,3.69-2.34,7.41-3.33,11.17-.02.09.03.18.12.2.08.02.16-.02.19-.09,4.79-10.63,8.75-21.6,12.39-32.66,1.2-3.69,2.34-7.41,3.33-11.17Z"/>
    <polygon class="st0" points="181.31 140.36 181.18 140.36 181.18 345.96 181.31 345.96 186.01 341.34 185.99 341.34 185.99 144.99 186.01 144.99 313.7 144.99 318.4 140.36 181.31 140.36"/>
    <path class="st0" d="M238.67,402.44c-.08,0-.15.05-.16.13-2.26,11.44-3.63,23.02-4.67,34.62-.33,3.87-.6,7.74-.72,11.64,0,.09.07.17.16.17.08,0,.15-.05.16-.13,2.26-11.44,3.63-23.02,4.67-34.62.33-3.87.6-7.74.72-11.64,0-.09-.07-.17-.16-.17Z"/>
    <path class="st0" d="M209.17,292.22l-5.36,5.36v20.76l5.36,5.36h16.07l5.36-5.36v-20.76l-5.36-5.36h-16.07ZM227.97,297.57h-3.89c-.72,0-1.3.58-1.3,1.3v14.39c0,1.44-1.17,2.61-2.61,2.61h-9.7c-.72,0-1.3.58-1.3,1.3v3.89c0,.29-.35.44-.56.23l-3.5-3.5v-19.68l4.59-4.59h14.99l3.5,3.5c.21.21.06.56-.23.56Z"/>
    <path class="st0" d="M252.94,388.97l-2.16,10.41c-.01.07-.11.06-.12-.01-.5-6.46-1.48-11.94-1.82-13.72-.03-.13-.21-.13-.24,0-.34,1.78-1.32,7.27-1.82,13.73,0,.07-.1.08-.12.01l-2.16-10.4c-.03-.15-.25-.12-.24.03l1,35.19h0s.81,28.72.81,28.72c0,.08.09.14.17.11l1.69-.66c.21-.08.44.1.4.32-.32,1.75-.73,4.4-.73,6.75,0,2.63.5,5.83.83,7.67.03.16.16.24.29.24.13,0,.26-.08.29-.24.33-1.84.83-5.05.83-7.67,0-2.36-.4-5.01-.73-6.75-.04-.23.18-.41.4-.32l1.7.66c.08.03.16-.03.17-.11l.81-28.72h0s1-35.21,1-35.21c0-.15-.21-.17-.24-.03Z"/>
    <path class="st0" d="M209.17,249.02l-5.36,5.36v20.76l5.36,5.36h16.07l5.36-5.36v-20.76l-5.36-5.36h-16.07ZM227.97,254.38h-3.89c-.72,0-1.3.58-1.3,1.3v14.39c0,1.44-1.17,2.61-2.61,2.61h-9.7c-.72,0-1.3.58-1.3,1.3v3.89c0,.29-.35.44-.56.23l-3.5-3.5v-19.68l4.59-4.59h14.99l3.5,3.5c.21.21.06.56-.23.56Z"/>
    <path class="st0" d="M209.17,162.63l-5.36,5.36v20.76l5.36,5.36h16.07l5.36-5.36v-20.76l-5.36-5.36h-16.07ZM227.97,167.99h-3.89c-.72,0-1.3.58-1.3,1.3v14.39c0,1.44-1.17,2.61-2.61,2.61h-9.7c-.72,0-1.3.58-1.3,1.3v3.89c0,.29-.35.44-.56.23l-3.5-3.5v-19.68l4.59-4.59h14.99l3.5,3.5c.21.21.06.56-.23.56Z"/>
    <path class="st0" d="M209.17,205.83l-5.36,5.36v20.76l5.36,5.36h16.07l5.36-5.36v-20.76l-5.36-5.36h-16.07ZM227.97,211.18h-3.89c-.72,0-1.3.58-1.3,1.3v14.39c0,1.44-1.17,2.61-2.61,2.61h-9.7c-.72,0-1.3.58-1.3,1.3v3.89c0,.29-.35.44-.56.23l-3.5-3.5v-19.68l4.59-4.59h14.99l3.5,3.5c.21.21.06.56-.23.56Z"/>
    <path class="st0" d="M236.07,388.01l-4.49,9.62c-.03.06-.12.03-.11-.04.99-6.4,1.3-11.97,1.38-13.78,0-.13-.18-.18-.23-.05-.74,1.65-2.95,6.76-4.92,12.93-.02.07-.12.05-.12-.02l.28-10.63c0-.15-.21-.17-.24-.03l-5.78,28.07-1.32,6.43s0,0,0,0l-5.8,28.14c-.02.08.05.16.14.15l1.8-.26c.23-.03.4.19.31.4-.72,1.63-1.72,4.11-2.26,6.4-.6,2.56-.85,5.79-.95,7.66,0,.16.1.27.23.3.13.03.27-.02.34-.17.75-1.71,1.97-4.72,2.57-7.27.54-2.29.76-4.96.84-6.74.01-.23.27-.35.46-.22l1.49,1.03c.07.05.17.01.19-.07l7.38-27.77s0,0,0,0l9.05-34.02c.04-.14-.17-.22-.23-.08Z"/>
    <path class="st0" d="M176.2,385.23c2.53-2.95,5.01-5.94,7.38-9.03.05-.07.04-.17-.03-.23-.06-.05-.15-.04-.21,0-8.51,7.97-16.38,16.57-24,25.38-2.53,2.95-5.01,5.93-7.38,9.03-.05.07-.04.17.03.23.06.05.15.04.21,0,8.51-7.97,16.39-16.57,24-25.38Z"/>
    <path class="st0" d="M181.71,401.8l4.12-5.11,17.97-22.3c.09-.12-.06-.27-.17-.17l-8.01,6.97c-.05.05-.13-.02-.09-.08,3.51-5.45,6.05-10.41,6.85-12.03.06-.12-.09-.23-.19-.14-1.34,1.21-5.44,4.98-9.75,9.82-.05.05-.13,0-.1-.06l4.58-9.59c.06-.13-.12-.24-.21-.12l-16.69,23.3h0s-3.82,5.34-3.82,5.34h0s-16.73,23.36-16.73,23.36c-.05.07-.02.17.07.19l1.75.5c.22.06.29.34.12.5-1.31,1.19-3.24,3.06-4.66,4.94-1.59,2.09-3.13,4.95-3.98,6.61-.07.15-.02.29.08.37.1.08.25.09.37-.02,1.38-1.26,3.72-3.51,5.3-5.6,1.43-1.88,2.71-4.23,3.51-5.81.1-.21.39-.21.51-.02l.95,1.55c.04.07.15.08.2.01l18.03-22.38s0,0,0,0Z"/>
    <path class="st0" d="M164.52,383.45l-7.22,4.35s-.1-.03-.06-.07c3.48-3.77,6.14-7.3,6.99-8.45.06-.09-.04-.19-.13-.14-1.22.76-4.94,3.15-8.96,6.34-.04.03-.1-.02-.07-.06l4.88-6.86c.07-.1-.06-.21-.15-.13l-22.33,21.92c-.06.06-.04.16.03.2l1.64.79c.21.1.23.39.03.51-1.5.95-3.72,2.46-5.44,4.06-1.92,1.79-3.94,4.33-5.06,5.83-.1.13-.07.28.02.37.09.1.23.14.37.05,1.57-1.01,4.27-2.82,6.19-4.6,1.73-1.6,3.4-3.7,4.46-5.12.14-.18.42-.14.51.07l.67,1.69c.03.08.13.1.19.05l23.55-20.64c.09-.08-.01-.22-.11-.16Z"/>
    <path class="st0" d="M203.43,414.4l16.27-31.22c.07-.13-.11-.25-.2-.13l-6.49,8.41c-.04.06-.13,0-.1-.06,2.37-6.03,3.89-11.4,4.36-13.15.03-.13-.13-.21-.21-.1-1.08,1.45-4.36,5.95-7.63,11.54-.04.06-.13.03-.11-.04l2.6-10.31c.04-.14-.17-.22-.23-.08l-11.79,26.13h0s-2.7,5.98-2.7,5.98h0s-11.82,26.19-11.82,26.19c-.03.08.02.17.1.17l1.81.14c.23.02.35.28.21.46-1.05,1.43-2.57,3.64-3.6,5.76-1.15,2.36-2.1,5.47-2.6,7.26-.04.16.04.29.15.34.12.06.27.04.36-.09,1.1-1.51,2.95-4.17,4.1-6.54,1.03-2.12,1.82-4.68,2.3-6.39.06-.22.34-.29.5-.12l1.23,1.33c.06.06.16.05.2-.03l13.28-25.48s0,0,0,0Z"/>
    <path class="st0" d="M241.83,292.22l-5.36,5.36v20.76l5.36,5.36h16.07l5.36-5.36v-20.76l-5.36-5.36h-16.07ZM260.63,297.57h-3.89c-.72,0-1.3.58-1.3,1.3v14.39c0,1.44-1.17,2.61-2.61,2.61h-9.7c-.72,0-1.3.58-1.3,1.3v3.89c0,.29-.35.44-.56.23l-3.5-3.5v-19.68l4.59-4.59h14.99l3.5,3.5c.21.21.06.56-.23.56Z"/>
    <path class="st0" d="M148.7,364.3l-7.79,3.21c-.05.02-.09-.05-.05-.08,4.01-3.2,7.18-6.29,8.19-7.3.07-.07,0-.2-.11-.16-1.32.57-5.36,2.37-9.82,4.91-.05.03-.1-.03-.06-.07l5.86-6.04c.08-.08-.03-.21-.13-.15l-25.4,18.29c-.07.05-.07.15,0,.2l1.5,1.03c.19.13.17.42-.04.51-1.63.71-4.05,1.87-6,3.19-2.17,1.47-4.55,3.69-5.88,4.99-.12.11-.11.27-.04.37.07.11.21.17.36.1,1.71-.76,4.64-2.14,6.82-3.61,1.95-1.32,3.92-3.14,5.18-4.39.16-.16.44-.08.49.15l.4,1.78c.02.08.11.12.18.08l26.41-16.83c.1-.06.02-.22-.09-.17Z"/>
    <path class="st0" d="M200.52,389.02c.04-.08,0-.18-.07-.22-.07-.04-.16-.01-.2.05-6.9,9.4-13.05,19.3-18.92,29.37-1.94,3.36-3.83,6.76-5.59,10.23-.04.08,0,.18.07.22.07.04.16.01.2-.05,6.9-9.4,13.06-19.3,18.92-29.37,1.94-3.36,3.83-6.76,5.59-10.23Z"/>
  </g>
</svg>