<svg width="964" height="1134" viewBox="0 0 964 1134" fill="none" xmlns="http://www.w3.org/2000/svg">
<path d="M482.743 308.001C459.013 291.498 501.292 276.132 488.515 308.714C491.378 308.934 506.629 309.307 510.15 308.331C532.97 302.003 550.889 324.488 531.673 340.779C524.4 346.948 504.479 341.36 494.204 338.743C493.083 340.696 488.525 346.81 488.136 347.749C493.38 348.799 520.499 348.562 527.392 348.637C565.278 349.047 604.108 346.906 641.91 348.068C629.939 340.299 624.464 330.062 628.364 315.665C630.996 306.231 637.315 298.259 645.903 293.557C655.409 288.401 666.722 287.879 676.997 291.263C699.864 297.942 715.161 324.835 705.747 347.634C694.74 374.307 685.66 355.936 676.553 351.6L675.218 352.593C674.125 360.439 674.959 382.907 674.94 391.998L675.079 490.979L675.293 724.416C675.793 759.244 676.08 794.072 676.145 828.9C676.377 851.664 677.238 874.744 676.682 897.49C679.555 896.712 682.408 895.878 685.243 894.979L687.708 893.71C715.531 883.74 715.781 917.28 706.359 933.912C705.052 936.219 703.635 938.461 702.115 940.638C697.51 946.132 694.314 947.976 688.671 952.266C671.883 958.455 657.55 959.113 642.929 947.263C626.558 933.986 625.325 918.346 638.408 902.716C618.191 903.735 592.249 903.049 571.884 902.947L478.518 902.919L388.656 903.244C368.977 903.346 347.602 903.929 328.071 902.762C331.074 905.06 333.963 907.172 336.146 910.285C346.537 925.573 336.739 942.602 322.573 951.117C288.867 971.371 248.659 941.416 260.169 903.327C262.591 895.313 268.863 887.604 278.021 892.088C279.932 893.024 279.743 892.996 281.926 893.182C285.532 887.938 283.074 886.881 279.763 882.907L280.139 881.767C283.991 881.146 285.965 881.962 288.476 884.908C288.734 889.086 288.562 892.904 291.399 895.646L292.923 894.599C295.133 890.374 295.638 887.493 295.5 882.712C294.977 864.469 295.125 846.124 295.091 827.881L294.781 692.201L293.577 415.656C293.416 399.304 294.034 383.094 293.729 366.68C282.557 366.552 271.596 363.402 265.012 354.11C251.207 334.627 260.592 309.641 278.49 297.048C303.333 279.57 345.503 298.077 339.449 330.492C337.742 339.631 331.779 343.729 324.617 348.305C355.161 349.016 387.454 347.449 418.473 348.454C428.466 348.777 471.458 349.382 479.278 348.388C477.416 344.357 475.813 343.574 473.839 337.935C465.686 339.952 457.64 342.091 449.386 343.586C425.674 347.877 421.183 311.431 444.391 308.615C456.634 307.13 468.901 309.012 481.298 308.113L482.743 308.001ZM630.273 855.176C631.116 808.099 630.458 759.235 630.245 712.103L629.717 495.288C629.726 480.825 628.299 388.048 631.088 382.091C628.04 379.962 523.075 381.503 509.445 381.334L507.991 382.221L507.75 385.92L505.925 386.008C499.875 379.699 507.074 366.556 498.865 363.993C499.597 372.246 500.347 377.133 498.633 385.304C495.103 388.473 490.943 393.295 486.57 389.298C484.624 384.182 485.856 379.712 483.651 377.119L482.419 377.508C480.705 382.845 479.426 392.246 472.487 390.959C465.482 384.327 468.012 370.546 464.935 366.317C462.703 371.983 462.786 375.769 461.554 381.555C417.128 380.578 370.511 381.495 325.806 381.322L326.907 701.957C326.972 755.065 328.151 812.037 327.235 864.812C330.542 861.643 334.335 857.789 337.782 854.889L421.306 854.879C490.202 855.009 561.627 856.427 630.273 855.176ZM299.844 894.433C384.767 896.341 475.285 894.692 560.645 894.729L626.233 894.738C638.093 894.71 657.355 894.08 668.353 895.507C669.437 841.862 667.964 786.604 667.788 732.838L667.927 493.379C667.797 447.528 666.871 397.361 668.047 351.624C636.629 352.964 599.966 351.307 567.659 351.932C546.256 352.346 503.21 353.825 483.003 351.821C504.09 374.883 483.42 370.221 487.422 386.645L488.756 387.704C500.514 385.542 496.159 366.163 495.26 357.642C542.337 357.06 589.413 356.897 636.49 357.152L663.804 357.379C662.683 414.813 663.785 475.822 663.794 533.572L664.758 890.087C637.945 890.893 608.731 890.087 581.64 890.069L403.648 889.93C371.233 889.781 336.701 888.67 304.459 889.207L303.853 522.185L303.579 415.73C303.526 402.66 302.656 370.149 304.359 358.123L416.287 357.969C431.552 357.929 454.908 358.684 469.374 357.552L469.54 358.883C470.587 367.801 466.446 383.49 477.036 385.851C480.464 381.148 474.942 371.693 472.385 367.333C475.387 360.264 476.952 358.638 482.048 352.953L353.594 352.547C338.05 352.513 314.667 351.402 300.173 351.981C296.667 356.648 297.983 446.545 297.999 460.665L298.68 657.243L299.322 820.682C299.471 845.772 298.648 869.092 299.844 894.433ZM310.411 317.498L310.436 320.151C307.915 323.264 306.187 326.862 304.265 330.401C299.15 329.866 295.152 329.28 289.973 329.709C289.649 333.038 293.559 331.785 294.815 335.456C286.343 338.548 280.992 327.871 280.057 321C278.378 308.677 283.41 303.285 290.562 294.397C283.538 298.564 280.576 301.842 277.162 309.193L273.999 308.01C254.3 335.018 292.547 367.793 304.892 332.125C306.963 335.608 311.409 343.38 316.047 343.882C336.886 346.138 339.559 330.562 331.85 314.512C325.802 301.918 301.678 294.655 296.544 308.62C298.168 312.535 306.426 316.236 310.411 317.498ZM298.883 912.685C294.74 917.568 288.036 922.997 288.201 929.029C291.886 933.43 298.114 931.132 303.297 930.187C303.051 922.061 303.087 917.623 303.835 909.572C300.238 904.791 299.106 903.725 294.094 900.446L281.573 899.232C273.653 907.728 270.094 914.816 270.605 926.703C270.908 933.763 271.018 939.202 278.957 940.314C276.624 933.161 282.654 916.947 288.329 911.934L289.451 912.027C288.775 914.519 288.364 914.696 286.776 916.817L288.012 917.447L298.883 912.685ZM493.824 311.16C493.639 315.65 492.898 322.95 495.001 326.644C497.836 323.675 496.567 322.454 499.569 322.215L500.329 325.837L501.357 326.214L501.487 324.805C501.653 323.054 501.514 323.737 501.904 322.425L503.006 324.257L504.655 325.273L506.703 317.225C508.871 321.661 509.621 326.28 512.531 331.869C513.374 323.59 513.531 318.026 518.859 311.359L517.534 310.528C508.732 311.271 502.71 311.297 493.824 311.16ZM468.781 324.134C473.96 319.851 473.719 326.643 474.831 314.948C474.933 313.92 475.025 312.89 475.109 311.861L454.483 311.158C455.549 313.306 459.881 321.265 461.572 322.353C462.573 320.151 462.777 319.358 463.425 317.01H464.611C465.63 319.145 467.094 322.93 468.781 324.134ZM308.765 928.853L308.141 929.52C303.544 934.366 301.466 934.023 298.274 939.471L298.543 941.5C301.56 943.418 306.958 943.492 310.435 942.908C315.329 940.731 320.546 938.109 319.478 932.114C317.023 929.418 312.304 928.964 308.765 928.853ZM661.793 944.585C666.287 943.677 669.085 943.399 673.143 941.212L674.19 939.415C673.866 938.526 664.082 928.992 662.979 928.213C657.846 930.224 651.286 931.465 647.636 933.8L647.108 935.477C650.017 939.156 657.54 942.815 661.793 944.585ZM646.58 874.948C642.633 874.568 638.63 874.725 634.665 874.67C608.62 874.318 582.566 875.226 556.531 875.013L320.996 874.142L309.012 885.955C321.108 886.539 336.918 886.122 349.223 886.14L426.347 886.224L661.599 886.307C660.867 841.806 661.311 795.017 661.219 750.322L660.885 482.196C660.867 442.703 661.645 401.675 660.978 362.328C659.051 359.988 658.838 360.733 654.705 360.198L599.957 360.893C590.942 360.951 567.881 360.538 559.617 362.37C588.366 365.12 627.762 361.4 655.354 364.043C653.519 367.432 647.756 375.327 645.301 378.944C644.921 412.034 644.866 445.129 645.116 478.22L645.245 675.792L645.375 797.713C645.421 822.544 644.782 850.469 646.58 874.948ZM269.105 938.414C268.139 930.613 266.901 923.646 268.206 915.817C269.613 907.357 283.83 898.268 271.184 892.431C267.953 895.479 265.113 898.213 264.594 902.827C266.456 904.068 265.474 903.54 267.54 904.42C267.653 912.713 260.703 928.343 269.105 938.414ZM449.289 320.085C449.923 323.029 449.92 324.306 451.915 326.576C453.302 324.682 452.778 325.747 452.838 323.026C454.054 315.626 453.843 313.643 447.26 310.183C447.098 311.027 446.845 312.854 446.501 313.52C439.477 316.889 431.051 320.703 436.968 329.567C439.122 331.634 440.417 333.391 443.268 334.002C445.651 332.846 444.557 333.622 446.065 330.813C448.07 328.334 448.614 323.413 449.289 320.085ZM686.123 916.372C691.896 926.073 687.504 935.718 683.279 945.141L683.974 945.576C688.912 939.48 691.859 932.105 691.59 924.174C691.303 915.585 683.789 910.693 682.862 906.764C685.67 904.726 685.429 904.782 688.875 904.624C695.102 906.69 697.446 912.796 700.401 918.55C700.586 913.741 700.392 913.741 699.049 909.146C698.511 907.265 697.974 905.384 697.418 903.512C699.475 901.307 700.031 900.946 702.375 899.186L702.68 897.203C700.716 894.859 700.855 895.016 698.076 893.701C694.925 895.266 693.693 895.331 691.822 897.935L692.915 900.714C683.381 897.648 685.66 898.176 675.533 900.733C669.483 906.329 667.575 910.563 671.568 918.772L671.336 918.207C668.649 917.206 667.204 914.834 665.36 912.602C665.332 920.245 663.896 932.79 675.348 932.726C679.573 929.094 677.637 922.71 681.482 919.078C683.353 919.578 682.445 919.18 684.178 920.366L684.447 919.773C681.333 915.446 680.407 914.455 676.46 910.86L677.637 910.248C681.704 911.999 682.844 913.25 686.123 916.372ZM285.919 316.745C287.18 324.852 294.433 328.436 302.031 328.201C303.08 324.697 303.673 323.78 302.677 320.237C298.175 314.763 292.598 316.205 285.919 316.745ZM481.946 292.054C479.204 292.792 477.564 295.607 478.277 298.361C478.991 301.115 481.789 302.779 484.55 302.09C487.348 301.392 489.034 298.549 488.312 295.759C487.589 292.97 484.735 291.305 481.946 292.054ZM299.895 296.272C297.281 297.848 295.476 298.618 293.726 301.124C299.125 300.468 301.312 298.754 307.182 297.928C309.957 298.2 312.677 298.802 315.207 297.871C310.376 295.382 305.071 295.827 299.895 296.272ZM484.791 358.843C486.069 362.313 486.94 367.944 490.452 368.911C489.396 364.161 489.173 361.584 484.791 358.843ZM630.921 327.093C632.367 332.351 633.664 337.063 638.473 340.312C642.512 343.026 647.515 343.89 652.222 342.684C675.719 336.881 648.979 302.17 641.873 328.13C641.317 330.161 643.05 331.621 644.226 332.742C648.331 333.562 646.543 333.88 649.897 332.584C652.565 328.814 650.61 327.152 652.139 323.268C655.15 325.508 656.151 327.241 655.771 330.995C650.008 341.483 637.806 334.99 633.859 325.307C634.211 321.322 635.582 311.758 635.119 308.891C633.025 315.244 631.199 320.305 630.921 327.093ZM659.412 317.341C665.777 312.845 667.825 313.708 673.847 310.591C677.034 303.998 664.545 299.782 659.004 300.068C648.377 302.245 634.136 310.143 639.353 323.036C642.975 319.446 645.227 316.587 650.147 315.087C653.232 315.855 656.317 316.607 659.412 317.341ZM292.925 944.622C299.814 948.68 306.074 952.599 314.111 948.754C302.188 948.819 301.844 946.197 292.925 944.622ZM654.205 294.492L652.797 295.732C659.014 296.988 662.062 295.456 668.103 297.507L669.122 297.383C663.526 293.294 661.265 294.122 654.205 294.492ZM479.954 311.257C475.989 315.264 476.545 335.586 479.547 340.839C481.919 342.835 482.382 342.674 485.384 343.326C487.663 341.393 489.321 340.004 489.47 336.834C489.775 330.225 491.304 317.39 488.719 311.605C485.578 310.392 483.336 310.946 479.954 311.257ZM310.027 924.137C311.139 919.94 311.913 914.195 316.027 912.203C326.765 907.033 329.586 920.458 329.219 927.787C325.852 935.051 320.222 941.592 315.07 947.744C321.784 950.57 334.022 935.459 335.717 929.279C339.93 913.936 331.087 902.799 315.165 903.809C310.1 909.164 307.45 910.934 307.289 918.939C307.1 928.287 317.232 929.668 322.954 924.887C323.92 921.607 324.051 921.719 323.298 918.188C321.363 915.733 322.588 916.484 319.473 915.9C314.468 917.503 313.499 919.801 310.027 924.137ZM661.515 912.129C656.141 906.811 653.742 903.633 645.514 904.939C639.084 908.775 635.647 910.656 633.534 918.439C630.199 930.771 639.547 942.686 650.693 946.614C638.927 936.617 635.285 931.428 639.316 915.548C645.014 907.978 657.179 907.348 656.188 918.624L654.687 919.254C652.074 918.161 648.683 916.326 646.098 916.715C643.43 919.93 643.522 926.935 647.543 928.037C659.625 931.345 661.7 921.644 661.515 912.129ZM268.151 343.08C269.156 345.517 268.618 346.416 267.912 348.983L267.654 349.884C269.216 354.519 274.373 356.881 279.014 356.625L280.006 355.241C278.828 347.198 275.017 345.547 269.337 339.978L268.843 338.901C266.411 333.478 265.517 330.112 263.903 324.405C262.712 330.301 265.314 337.943 268.151 343.08ZM679.768 297.432C683.585 304.582 688.171 312.967 685.855 321.259C684.345 326.673 678.962 330.932 673.477 331.564L671.994 330.716C671.207 327.488 671.068 328.966 671.957 326.113C675.432 323.049 676.312 323.3 677.461 319.595C673.532 313.996 662.84 316.953 662.924 324.116C662.979 328.384 668.761 332.859 667.825 334.659L664.554 334.211L663.831 335.281C667.306 349.894 681.055 345.2 686.077 350.896C685.966 355.722 685.401 353.972 687.745 357.971C692.35 360.344 697.177 355.163 696.602 350.489L695.583 350.856C691.553 352.014 693.147 352.38 690.228 351.158C689.718 346.878 696.88 337.393 698.418 332.747C700.429 326.657 698.715 313.203 694.471 308.525C691.692 314.016 703.561 337.205 687.059 342.005C684.372 342.786 681.065 343.495 678.433 342.465C678.202 340.603 679.351 338.043 680.768 337.127C692.563 329.482 693.202 303.401 679.768 297.432Z" fill="black"></path>
<path d="M550.154 392.041C569.75 390.642 605.533 391.7 626.046 391.633C625.536 446.291 626.703 503.182 626.75 558.124L626.981 852.202L414.852 852.09C394.872 851.451 362.005 851.127 342.307 851.711L340.54 392.315C372.07 392.949 404.738 392.321 436.359 392.368C474.291 392.764 512.223 392.655 550.154 392.041ZM621.367 849.107L623.322 848.653C625.768 843.085 624.035 512.15 623.924 477.719L623.572 427.996C623.442 418.72 622.719 403.011 623.942 394.268L442.625 394.457C410.394 394.548 375.228 395.463 343.284 394.612L344.554 751.86C344.627 764.544 343.631 842.242 345.331 847.764C350.591 851.081 592.71 848.069 621.367 849.107Z" fill="black"></path>
<path d="M394.374 399.423C399.783 399.056 411.92 399.626 417.885 399.657L467.477 399.791L618.472 399.285C617.091 412.728 617.934 437.8 618.073 452.054L618.407 532.089L619.167 843.613C607.706 844.261 593.724 844.058 582.06 844.178C505.826 842.492 425.253 844.058 348.667 843.77L347.966 399.744L394.374 399.423ZM354.351 405.06L355.32 708.369L355.383 795.591C355.394 805.718 355.967 831.068 354.82 840.352C369.989 840.778 385.594 839.981 400.925 840.101L550.632 840.852C570.96 840.898 595.735 841.639 615.646 840.88L615.053 560.116L614.794 461.662C614.747 443.329 614.284 422.964 614.923 404.821C600.785 405.414 587.619 404.839 573.628 404.952C548.761 405.698 522.104 405.878 497.227 405.314C450.055 404.247 401.313 407.008 354.351 405.06Z" fill="black"></path>
<path d="M380.448 630.689C396.933 630.587 413.42 630.606 429.906 630.736C434.027 633.877 436.129 636.526 439.544 640.362C441.058 659.921 440.451 684.261 440.402 704.181C437.502 707.174 433.525 710.444 430.331 713.242C413.534 713.372 396.735 713.298 379.94 713.02C375.305 708.98 373.922 707.804 370.103 702.884L370.094 641.409C373.242 637.351 376.739 634.247 380.448 630.689ZM373.02 642.234L372.953 703.44C379.388 699.937 382.949 695.796 388.362 690.932L412.48 690.737C415.427 690.774 418.059 691.247 420.386 689.69C420.755 676.682 419.86 662.33 420.997 649.72C423.304 647.005 430.674 639.223 431.629 636.879C427.965 631.31 390.248 633.469 381.713 633.525C377.291 636.564 376.266 638.148 373.02 642.234Z" fill="black"></path>
<path d="M547.359 734.673C562.619 735.729 575.664 733.348 592.055 735.469C595.742 739.018 598.068 742.085 601.236 746.05C602.385 762.876 601.69 789.402 601.579 806.932L600.569 808.081C597.401 811.685 593.759 816.595 589.006 816.901C573.228 817.272 556.939 817.022 541.115 816.957C538.001 814.233 534.555 810.805 531.506 807.923C531.34 786.725 531.293 765.526 531.358 744.327C537.316 737.953 538.724 735.432 547.359 734.673ZM534.101 745.457C534.091 765.109 533.517 788.948 534.268 808.294C538.882 804.069 544.663 798.427 549.36 794.498L575.108 794.424C578.166 794.35 579.204 794.878 581.261 793.442C582.928 781.147 580.658 766.045 582.317 752.703C585.096 749.979 592.24 743.678 592.888 740.519C587.283 736.081 551.918 738.175 542.124 738.045C539.567 740.343 536.436 743.002 534.101 745.457Z" fill="black"></path>
<path d="M460.574 630.689C476.956 630.513 493.336 630.541 509.708 630.763C514.693 634.544 515.953 636.017 520.066 640.64C521.873 656.169 520.697 687.689 520.243 703.857C517.463 707.155 514.248 710.055 511.126 713.038C494.291 713.279 477.447 713.233 460.607 712.909C457.522 710.62 453.738 706.923 450.827 704.246C450.299 684.529 450.351 660.023 450.941 640.39C454.09 636.332 456.792 634.108 460.574 630.689ZM453.989 641.159C453.735 657.66 452.829 688.671 454.005 704.227C458.984 699.9 463.873 695.462 468.654 690.922L494.504 690.783C497.747 690.663 498.553 691.219 500.739 689.662C502.629 681.296 501.277 658.754 501.592 648.821C504.76 645.616 509.884 641.076 511.691 637.221C508.893 631.273 468.246 633.423 461.223 633.45C458.974 635.804 456.021 638.722 453.989 641.159Z" fill="black"></path>
<path d="M461.237 734.682C476.608 734.385 496.075 734.043 511.233 735.238C515.587 739.342 516.653 740.436 520.248 745.309C520.451 765.98 520.887 787.03 520.192 807.655C516.477 811.741 514.966 813.306 510.575 816.874C494.008 817.077 477.174 817.457 460.635 816.837L450.523 807.923C450.298 786.53 450.358 765.137 450.703 743.753C454.483 739.676 456.554 737.684 461.237 734.682ZM453.642 745.216C453.566 765.127 452.948 788.763 453.658 808.377C458.665 803.745 463.711 799.159 468.807 794.619C477.062 794.526 485.318 794.507 493.573 794.563C496.76 794.498 498.613 795.082 500.726 793.572C502.171 782.453 501.235 764.312 501.717 752.471C504.951 749.219 509.898 744.827 511.89 740.945C509.509 736.479 469.984 737.508 462.423 737.221C458.243 740.352 457.135 741.344 453.642 745.216Z" fill="black"></path>
<path d="M381.649 734.478C397.656 734.571 413.662 734.802 429.665 735.164C433.483 738.471 436.141 741.39 439.577 745.059C440.495 761.051 440.968 793.155 439.964 808.414L430.467 816.874C413.621 817.235 396.77 817.226 379.924 816.864L370.039 807.395C369.822 786.493 369.885 765.581 370.228 744.679C373.88 740.714 377.222 737.582 381.649 734.478ZM372.904 745.309L372.899 807.506C376.469 804.449 384.885 796.898 388.452 794.572L415.749 794.461L419.423 794.063C421.958 789.754 420.141 761.551 420.971 753.222C423.761 750.331 430.692 743.929 431.255 740.639C426.48 736.22 390.763 737.397 381.902 737.313C378.331 740.204 376.092 741.927 372.904 745.309Z" fill="black"></path>
<path d="M379.856 528.661C392.766 527.707 416.348 528.587 429.972 528.726C434.126 532.756 436.525 534.989 439.633 539.974C440.274 559.866 440.07 581.936 439.871 601.847C436.87 604.821 433.076 607.916 429.824 610.695C413.321 611.288 396.8 611.158 380.308 610.306C376.93 607.545 373.184 603.654 370.014 600.54C369.206 580.824 369.692 558.384 370.139 538.556C373.046 535.406 376.8 531.765 379.856 528.661ZM388.075 588.005C396.175 587.81 404.278 587.745 412.382 587.81C415.135 587.829 418.036 588.264 420.218 586.874C421.487 575.302 419.86 559.635 420.579 546.997C423.422 544.134 430.608 537.667 431.349 534.489C426.902 529.634 389.773 531.366 381.242 531.413C377.892 534.304 375.647 536.018 372.909 539.557C372.903 550.684 372.061 590.775 373.278 598.252L374.539 599.29C379.444 596.76 383.625 591.627 388.075 588.005Z" fill="black"></path>
<path d="M540.994 426.067C557.634 426.074 574.275 426.28 590.906 426.685C594.426 429.877 597.743 433.378 601.079 436.775C601.681 457.624 601.468 477.714 601.496 498.54C597.521 503.015 596.307 504.247 591.591 508.055C576.054 508.695 557.885 508.25 542.152 508.25C538.418 505.832 534.647 502.311 531.238 499.364L531.164 435.623C534.212 432.222 537.649 429.18 540.994 426.067ZM534.027 436.366L534.036 498.614C539.614 494.76 544.089 490.183 548.981 485.504C557.375 485.281 565.778 485.198 574.182 485.263C577.508 485.17 579.213 485.763 581.381 484.17C581.816 471.989 580.816 455.645 582.02 444.479C585.81 440.119 589.025 436.75 593.102 432.656C590.053 427.603 550.5 428.825 542.754 428.744C538.826 431.413 537.399 432.953 534.027 436.366Z" fill="black"></path>
<path d="M541.104 528.698C554.947 527.753 577.063 528.578 591.183 528.772C595.315 532.71 597.326 535.221 600.893 539.64C601.421 559.644 601.402 580.315 601.653 600.383C598.743 603.663 594.898 607.165 591.702 610.25C575.654 610.843 558.004 610.899 541.957 610.955C538.658 608.388 534.406 604.2 531.246 601.272C531.385 580.138 530.959 558.736 531.394 537.667C534.461 534.202 537.602 531.7 541.104 528.698ZM534.007 539.288C534.017 546.144 533.451 597.464 535.073 599.688C538.899 598.354 546.034 591.025 549.397 587.866L575.108 587.736L580.62 587.467C582.233 583.557 581.047 554.909 582.205 546.506C584.864 543.912 592.387 537.343 592.99 534.572C588.264 529.43 551.064 531.505 542.188 531.543L534.007 539.288Z" fill="black"></path>
<path d="M460.43 528.624C477.313 528.429 494.194 528.439 511.075 528.642C515.578 533.118 516.653 534.517 520.211 539.751C520.646 558.838 521.536 582.307 520.313 601.096C516.486 605.284 514.855 606.776 510.556 610.371C497.011 611.066 473.625 611.232 460.492 610.38C457.283 607.823 453.55 604.089 450.506 601.217L450.693 537.871C454.668 533.312 455.666 532.413 460.43 528.624ZM468.798 587.838C477.248 587.838 486.087 587.69 494.5 587.875C497.641 587.792 499.03 588.32 501.245 586.893C502.264 575.358 501.319 559.181 501.578 547.201L502.153 546.432C505.284 542.355 509.908 538.51 511.826 534.804C509.5 529.319 468.048 531.403 461.154 531.441L453.55 539.279C453.552 550.814 452.778 589.107 454.118 598.447L455.12 599.308C459.038 597.548 465.092 591.192 468.798 587.838Z" fill="black"></path>
<path d="M388.482 426.27C402.209 426.651 415.708 426.112 429.654 426.664C434.282 430.759 435.519 431.884 439.342 436.88C440.626 455.842 439.95 480.065 439.829 499.411C439.036 500.272 438.229 501.106 437.408 501.94C431.686 507.694 430.476 508.259 422.475 508.333L380.072 508.241C375.675 504.775 373.569 502.431 369.819 498.41C370.301 478.307 369.957 457.195 369.79 437.033C376.518 429.476 377.856 426.276 388.482 426.27ZM381.377 429.257C377.514 432.44 375.928 433.586 372.92 437.68C372.891 448.517 372.181 488.385 373.355 497.141C376.304 496.696 376.657 496.075 379.044 494.259L387.915 485.745C398.169 484.846 410.231 485.263 420.655 485.356C420.29 472.267 419.902 457.628 420.486 444.535C423.97 441.146 428.653 437.215 430.742 433.034C430.28 428.998 427.107 429.162 423.314 429.004C409.251 429.464 395.446 429.338 381.377 429.257Z" fill="black"></path>
<path d="M461.981 426.057C477.677 425.875 494.734 426.506 510.522 426.796C513.987 429.961 516.952 433.266 520.139 436.698C521.297 454.804 520.547 480.074 520.371 498.66C517.026 502.672 514.441 505.896 509.568 507.805C498.218 508.407 470.274 508.75 459.704 507.249L450.833 499.68C450.591 478.639 450.581 457.596 450.802 436.554C454.159 432.06 457.02 428.728 461.981 426.057ZM453.388 436.654C453.586 457.313 453.656 477.973 453.596 498.633C459.384 494.093 462.556 491.23 467.819 486.078C475.879 484.864 487.062 485.189 495.429 485.337C498.903 485.179 499.042 485.791 501.146 484.012C502.331 472.243 500.979 456.689 501.349 444.244C504.425 441.168 509.623 436.473 511.615 432.889C509.067 427.48 470.014 429.177 462.213 428.691L453.388 436.654Z" fill="black"></path>
<path d="M541.463 630.513C557.825 630.532 575.031 630.263 591.319 630.643C597.758 636.388 601.789 640.918 601.659 650.526C601.427 667.037 602.326 687.3 601.437 703.505C597.934 707.414 596.044 709.444 591.958 712.955C575.234 713.279 558.502 713.354 541.769 713.168C536.821 709.796 535.19 707.72 531.271 703.375L534.412 703.616C537.303 702.217 546.587 693.554 549.524 690.95C560.058 690.765 570.917 690.867 581.479 690.839C581.424 677.099 581.22 663.164 581.757 649.451C584.602 646.042 591.977 639.751 592.588 636.341C587.112 631.357 552.155 633.45 542.528 633.58C539.702 635.461 536.552 638.222 533.884 640.418L534.171 671.503L531.317 672.114C531.262 668 531.225 663.303 531.123 659.217C530.752 644.115 529.214 639.686 541.463 630.513Z" fill="black"></path>
<path d="M531.319 672.114L534.172 671.503C534.098 681.518 533.7 693.785 534.413 703.616L531.272 703.375C531.819 695.333 531.346 680.582 531.319 672.114Z" fill="black"></path>
<path d="M276.077 332.492C279.946 333.263 285.707 337.491 289.189 339.848L289.211 341.637C284.179 342.669 281.419 343.172 277.311 339.831C275.277 335.803 275.819 337.371 276.077 332.492Z" fill="black"></path>
<path d="M282.056 903.531C284.66 903.939 285.8 903.79 287.718 905.495C286.834 908.367 285.424 908.673 282.624 910.989L280.739 914.964L279.544 915.224C278.569 910.424 279.756 907.617 282.056 903.531Z" fill="black"></path>
<path d="M479.953 311.257C483.335 310.946 485.577 310.392 488.718 311.605C491.303 317.39 489.774 330.225 489.468 336.834C489.32 340.004 487.662 341.393 485.382 343.326C482.38 342.674 481.917 342.835 479.545 340.839C476.543 335.586 475.987 315.264 479.953 311.257Z" fill="black"></path>
<path d="M483.253 322.156L485.55 322.989C489.331 326.625 489.377 335.731 486.69 340.149C483.966 339.62 483.966 339.762 481.65 338.326C478.926 333.221 481.557 327.906 483.253 322.156Z" fill="black"></path>
<path d="M655.355 364.043C627.763 361.4 588.368 365.12 559.618 362.37C567.882 360.538 590.943 360.951 599.959 360.893L654.707 360.198L655.355 364.043Z" fill="black"></path>
<path d="M271.184 892.431C283.829 898.268 269.613 907.357 268.205 915.817C266.901 923.646 268.139 930.613 269.105 938.414C260.702 928.343 267.653 912.713 267.54 904.42C265.474 903.54 266.456 904.068 264.594 902.827C265.113 898.213 267.952 895.479 271.184 892.431Z" fill="black"></path>
<path d="M323.084 317.507C328.058 321.727 332.253 327.243 327.27 333.574C325.747 335.546 323.437 336.752 320.948 336.876C313.331 337.193 307.778 328.627 315.532 322.317C317.047 322.962 314.766 328.486 317.637 331.532C320.878 332.553 319.286 332.518 322.584 331.608C327.431 326.818 325.263 323.646 321.665 319.161L323.084 317.507Z" fill="black"></path>
<path d="M299.897 296.272C305.074 295.827 310.379 295.382 315.21 297.871C312.68 298.802 309.96 298.2 307.184 297.928C301.315 298.753 299.128 300.468 293.729 301.124C295.479 298.618 297.284 297.848 299.897 296.272Z" fill="black"></path>
<path d="M446.503 313.52C446.847 312.854 447.1 311.027 447.262 310.183C450.008 314.513 450.826 315.401 452.095 320.177L452.553 321.866C452.649 322.253 452.744 322.639 452.839 323.026C452.779 325.747 453.304 324.682 451.917 326.576C449.922 324.306 449.925 323.029 449.291 320.085L446.503 313.52Z" fill="black"></path>
<path d="M436.97 329.567L437.527 323.741C438.143 323.959 441.752 328.753 446.067 330.813C444.558 333.622 445.652 332.846 443.269 334.002C440.418 333.39 439.123 331.634 436.97 329.567Z" fill="black"></path>
<path d="M274 308.01L277.163 309.193C276.76 310.817 274.488 323.753 274.453 325.062L273.908 325.08C273.295 317.812 273.993 314.893 274 308.01Z" fill="black"></path>
<path d="M630.924 327.093C631.202 320.305 633.027 315.244 635.121 308.891C635.584 311.758 634.213 321.322 633.861 325.307L630.924 327.093Z" fill="black"></path>
<path d="M310.413 317.498C315.594 315.132 317.826 315.093 323.085 317.507L321.667 319.161C317.003 318.011 315.14 318.451 310.437 320.151L310.413 317.498Z" fill="black"></path>
<path d="M268.153 343.08C265.316 337.943 262.715 330.301 263.905 324.405C265.519 330.112 266.413 333.478 268.845 338.901L269.339 339.978L268.153 343.08Z" fill="black"></path>
<path d="M292.925 944.622C301.844 946.197 302.187 948.819 314.111 948.754C306.074 952.599 299.814 948.68 292.925 944.622Z" fill="black"></path>
<path d="M654.207 294.492C661.267 294.122 663.527 293.294 669.124 297.383L668.104 297.507C662.064 295.456 659.015 296.989 652.798 295.732L654.207 294.492Z" fill="black"></path>
<path d="M447.263 310.183C453.846 313.643 454.056 315.626 452.841 323.026C452.745 322.639 452.65 322.253 452.554 321.866L452.096 320.177C450.827 315.401 450.009 314.513 447.263 310.183Z" fill="black"></path>
<path d="M484.794 358.843C489.177 361.584 489.399 364.161 490.455 368.911C486.944 367.944 486.073 362.313 484.794 358.843Z" fill="black"></path>
<path d="M467.842 61.4338C454.853 43.8902 449.447 24.7056 473.188 14.1628C474.501 13.0824 479.501 12.5824 481.001 12.5824L484.501 12.5824C485.001 12.5824 489.915 13.3439 489.791 13.7004C490.069 13.7514 490.347 13.8024 490.625 13.8533L492.015 14.1322C502.753 16.1854 508.553 22.7775 509.276 34.0709C510.017 45.5922 505.736 52.8718 498.435 61.2225C494.498 61.5598 491.236 61.4403 487.827 63.2952C485.594 65.9413 485.548 69.5103 485.038 73.0542C491.496 72.1027 499.695 75.0045 502.475 73.7806C501.549 73.0125 496.666 70.8834 494.878 69.9207L495.026 68.4615C503.754 63.2322 509.637 75.3362 505.143 81.9961C501.678 84.3494 498.454 82.5529 494.016 83.5832L493.284 85.2815C498.102 100.39 521.886 92.2461 521.246 84.4606C517.29 82.5955 517.512 86.0097 513.019 84.3587L512.657 81.6208C516.855 71.1604 521.904 75.5725 528.121 75.2982C528.621 72.502 527.797 68.0862 527.417 65.1297C519.125 59.7337 515.548 57.6869 513.769 47.0838C510.313 26.5355 521.441 18.3784 538.878 15.1347L538.165 2.28199L539.174 1.47593C542.343 2.42098 545.132 5.57579 547.949 7.97918C550.089 7.14809 550.45 4.88088 551.812 2.09761L552.998 2.10782L554.74 4.65852C554.814 6.63756 554.851 7.32784 555.111 9.31801C558.567 10.2631 562.18 9.11324 565.784 8.39519C561.976 14.1878 560.262 15.6934 555.324 20.502C557.371 24.1988 559.651 27.614 561.948 31.1607L577.264 31.2181L578.7 18.8973L579.571 18.2293C583.684 19.985 582.536 23.9866 586.362 25.3366C588.382 23.5363 588.725 23.0731 591.152 21.7834L592.273 22.5941L592.44 26.7671C596.869 30.829 593.496 25.9027 598.778 28.7369C597.897 31.9853 592.218 37.3721 589.633 40.1637C595.266 48.8711 594.423 61.6432 587.641 69.6863C581.239 77.2689 575.726 77.6359 566.535 78.3113C560.864 92.3045 564.042 91.7523 554.203 105.064C567.211 118.962 555.602 114.163 553.406 123.419C555.954 125.52 558.752 127.248 559.688 130.282C558.743 133.854 558.631 132.93 555.713 135.919C550.589 141.166 560.04 142.381 560.021 148.451C560.012 152.627 556.269 155.234 553.044 157.953C553.183 162.148 554.119 166.91 550.673 169.722L549.32 168.654C547.791 164.717 548.495 161.913 548.903 157.658C543.001 158.995 522.59 161.264 520.246 163.235C518.68 168.298 521.515 169.21 521.358 173.175C521.256 175.893 519.152 174.195 520.551 180.049C522.738 180.783 523.804 180.886 525.434 182.478C520.514 186.812 521.673 186.757 518.235 191.538L516.864 190.976C516.549 188.186 516.706 187.996 515.493 185.527C513.241 184.915 513.121 184.869 511.055 183.767L511.221 181.991C514.047 180.982 513.167 181.607 515.298 179.695C515.085 173.033 516.15 170.173 515.585 163.62L515.474 162.424C505.125 162.816 494.757 162.948 484.399 162.819C484.047 170.72 487.669 179.714 483.88 184.575C483.62 189.274 488.299 193.889 491.375 197.599C492.237 202.498 492.441 207.271 492.774 212.231C495.322 215.194 497.731 217.642 498.324 221.45L497.24 222.683C493.821 223.089 491.829 222.96 489.096 225.024C486.261 230.721 482.333 233.871 476.894 226.869C472.678 221.444 471.724 224.494 465.942 222.582L465.581 221.107C467.397 216.762 468.435 216.013 471.668 212.406C471.724 210.448 471.928 201.55 472.511 200.269C475.208 194.395 480.739 191.775 480.748 184.181C477.904 180.102 477.468 180.598 478.071 176.792L481.258 175.443L481.48 173.739L478.895 171.651C479.238 168.985 479.479 167.073 479.553 164.351C476.588 162.08 454.105 161.062 449.688 164.166C448.086 167.672 448.469 165.831 448.889 169.958C453.469 176.067 447.698 174.904 449.538 180.423C450.728 183.991 450.903 177.995 453.166 183.442L448.411 191.093L447.006 191.217C446.199 189.442 445.615 187.636 445.058 185.768C443.148 185.007 441.982 184.444 440.148 183.508L440.523 182.205L445.591 180.161L446.27 178.302C445.736 174.781 445.78 175.801 442.656 172.696L442.796 171.196C445.011 170.822 444.264 171.189 446.045 169.971C446.199 166.482 446.302 166.711 444.516 163.727C439.008 159.428 425.014 159.334 416.743 158.126C415.801 166.591 416.024 171.578 417.454 179.859C417.972 182.857 415.178 183.209 414.966 187.311C417.12 190.979 420.112 193.186 423.32 196.04C423.915 201.88 424.552 207.716 425.229 213.547C427.701 216.613 431.396 218.994 428.838 222.64C425.474 223.329 423.628 223.443 420.721 225.321C418.128 229.857 418.437 231.061 413.227 231.203C405.488 228.236 412.645 223.954 399.512 223.584L398.3 222.161C402.428 209.824 402.97 208.685 404.79 196.282C407.479 193.452 412.634 188.543 412.842 184.646C405.415 175.407 414.132 177.369 414.704 170.118L412.225 167.872C410.991 164.998 412.242 160.639 412.803 157.343C402.366 150.656 401.252 146.39 412.256 139.211C409.062 136.51 406.669 135.542 405.113 131.538C406.109 128.252 406.32 129.008 409.862 126.463C411.328 123.417 411.153 124.976 410.282 121.611C407.7 119.216 405.62 117.811 404.464 114.533C404.599 111.371 407.505 108.363 409.526 105.674C409.384 101.24 405.759 102.43 404.169 96.9047C404.862 94.4874 405.22 94.4874 404.959 92.2425C402.484 92.3453 401.74 92.5084 399.3 91.9775C402.275 83.6666 402.053 85.5891 397.735 77.6118C375.694 75.5957 366.755 61.078 375.019 40.3712C371.753 38.2124 362.798 33.5456 361.567 32.4263C363.17 29.9498 365.291 31.2617 369.262 28.8027C369.027 26.7051 368.872 24.8159 368.73 22.7099L369.994 21.902C371.836 22.772 372.762 23.138 374.692 23.7958C376.991 21.2062 378.962 18.3581 382.216 17.6715C387.033 20.8976 383.315 27.3407 385.917 31.7268L388.435 31.6582C389.832 31.9399 393.463 32.57 394.636 32.9452C385.226 37.2109 379.971 38.8601 375.598 48.5042C375.808 53.5852 375.671 54.2801 377.383 58.9303L378.11 58.5162C378.075 54.7953 377.911 53.6057 377.28 49.9125C380.565 51.1365 385.068 58.9832 387.621 62.6541C386.678 59.7309 385.444 57.2117 386.043 54.3135C389.093 55.5986 391.351 60.3729 393.893 63.234C391.029 55.7255 389.657 51.4524 387.697 43.6771C389.436 46.4631 392.426 52.176 394.838 53.5964L395.147 52.1566L398.528 51.6192C398.646 46.224 396.958 45.1094 398.097 39.4345C399.982 40.9401 399.143 40.2721 399.893 43.5918L401.065 44.0782C401.59 40.4518 400.389 39.5327 401.454 34.9455L402.324 33.6836C404.334 29.2984 407.021 24.6473 409.349 20.3769C405.442 17.8614 401.773 14.7307 398.139 11.8038C402.259 11.8372 405.86 11.8242 409.972 11.6093C412.19 9.1188 409.633 6.7052 411.871 2.84162C415.117 4.44449 415.321 5.63972 417.965 8.82231C421.65 4.98467 423.264 3.68199 427.457 0.428055L426.514 14.4648C453.218 14.8234 461.236 38.0299 448.198 58.5329C442.433 61.8545 440.017 62.5614 433.739 64.6813L438.416 73.0755C443.767 73.8214 449.641 74.9508 452.547 79.8641C452.081 84.1363 448.801 84.5032 446.236 89.499L447.341 91.5633C471.103 103.363 484.408 76.6185 468.527 71.4958C465.572 71.8062 465.711 71.6431 463.469 73.5471C465.507 76.587 469.556 74.7581 473.818 78.5577C473.753 83.1431 469.018 85.0091 464.979 85.124C455.922 80.8045 458.078 69.9402 467.128 67.8592C470.649 67.0494 477.227 72.0424 480.266 74.0585L480.517 62.8597C475.93 62.7189 472.345 62.1037 467.842 61.4338ZM519.81 133.28C509.581 129.945 502.707 130.208 493.655 127.778C498.056 127.762 508.414 127.974 512.185 127.158L512.287 125.956L511.37 125.353C511.509 123.807 511.685 123.881 512.361 122.378C508.599 119.138 503.522 117.849 498.769 116.817C505.449 114.359 520.904 115.444 529.066 115.456C512.732 111.329 447.52 106.542 435.597 117.895C437.894 118.289 437.86 118.119 440.15 117.467C443.314 119.277 444.457 120.159 447.342 122.439L449.268 119.931L450.816 119.895C452.172 122.214 451.732 120.94 451.417 124.001C447.194 131.225 436.07 133.776 428.444 135.792L425.568 136.541C435.893 136.952 447.998 134.406 458.548 133.969C478.182 133.154 500.224 132.332 519.81 133.28ZM479.59 149.948L480.183 151.587L478.914 152.628L474.151 151.988L473.253 152.968C475.671 155.805 483.333 157.034 486.947 157.149C497.778 157.358 540.703 156.852 546.865 151.44L546.355 150.163C533.43 143.912 488.679 144.258 473.975 148.357C474.939 149.629 477.459 149.577 479.59 149.948ZM526.666 45.7515C527.556 42.7894 528.066 39.491 530.28 37.6157C531.901 40.034 531.438 43.047 531.364 46.1824L531.67 48.103C533.625 45.4875 536.006 34.7945 537.247 30.9282C537.933 37.7362 537.748 42.2984 537.553 49.1778C540.258 41.6063 544.465 33.0508 545.41 25.6284C550.32 23.8421 548.662 28.3459 550.756 24.7594C546.818 19.9359 537.173 19.8108 531.392 20.1851C526.073 22.5227 522.219 24.2405 519.996 29.9581C518.411 34.0172 516.475 43.1378 518.847 47.0422C521.098 44.3608 521.858 34.7973 523.943 29.2141L526.666 45.7515ZM434.613 86.4915C435.914 82.8633 437.338 80.8138 436.678 77.4719C434.041 75.9468 430.512 76.5102 427.314 76.6362C428.188 80.4025 430.774 85.1425 433.681 87.5543L434.613 86.4915ZM572.538 52.7579C576.597 49.3724 576.504 48.7748 578.45 43.7048C580.229 43.3055 581.229 43.1527 583.045 42.9396L583.231 41.0328C579.237 36.3798 569.583 34.4999 563.718 33.6484C564.885 38.0855 565.117 39.5077 567.183 43.4982C566.868 47.0042 566.285 48.3995 565.2 51.7989C567.971 51.6266 569.833 46.3158 574.364 44.7315C574.864 47.4221 573.502 50.0478 572.538 52.7579ZM478.877 195.824C476.282 200.678 475.476 203.843 476.18 209.342L478.108 211.839C481.248 208.3 481.564 199.354 478.877 195.824ZM410.094 213.042C411.532 211.001 412.173 195.73 411.207 194.813C407.428 198.72 405.15 209.618 410.094 213.042ZM418.845 76.2072C422.742 74.2958 426.325 72.9783 429.254 69.8661L428.86 68.6755C420.411 66.8317 415 66.84 410.868 59.2027C410.395 58.3262 410.166 58.3003 409.304 57.6814L409.486 58.9674C410.315 65.1167 410.827 66.6687 407.064 71.7071C406.108 72.9681 405.111 74.1975 404.075 75.3927L404.149 77.1874C406.488 78.4512 407.376 78.3446 410.02 78.6745L410.524 79.9207C408.858 81.5022 408.446 81.7727 406.517 83.0467L407.015 84.2215C410.524 84.0557 412.198 83.2737 414.418 84.8636C414.201 91.0935 410.508 88.9635 411.962 94.934C415.7 98.7309 421.73 99.246 426.148 96.2663C427.453 93.2542 428.331 92.0182 427.956 88.7569C425.062 87.9591 424.893 88.3853 421.749 88.9551C418.517 87.4987 419.635 88.6207 418.078 85.6855C418.043 82.0591 418.38 79.8308 418.845 76.2072ZM463.886 44.6758C464.367 39.4854 464.636 32.7469 466.637 28.0661C468.592 29.8552 472.085 45.443 473.104 49.201C472.965 44.1829 471.27 39.4586 474.151 35.3708L475.643 35.6969L477.765 39.7486C479.942 39.7727 479.145 32.33 483.491 28.8583C486.826 32.4773 486.02 44.1366 485.927 49.0852C487.243 44.3655 490.477 24.2285 492.839 21.9298L497.287 22.4885L496.87 22.7683L497.157 21.6926C491.885 13.6949 469.111 15.7304 463.645 26.882C461.708 34.4044 462.107 37.0682 463.886 44.6758ZM434.973 37.323L432.274 30.5298L432.891 30.1638L436.069 32.3531L436.947 31.6008C435.899 26.9821 433.344 25.8267 434.361 23.8115C436.828 24.3545 438.409 24.7603 440.877 25.5126L441.09 24.3174C430.355 13.4994 394.812 25.5729 411.115 42.3188L411.775 42.417L411.004 39.0778L411.845 38.7294C414.794 41.4469 415.107 41.7796 417.301 45.0984C417.968 42.2725 417.786 41.6887 417.803 38.7933L418.728 38.4469C421.397 40.9151 421.535 47.3637 421.951 51.1253C422.354 47.195 422.616 38.3431 424.809 36.0425C426.809 37.8696 426.709 37.814 428.051 40.1896C428.308 37.7751 428.066 35.5839 427.912 33.1648L428.841 32.9341C431.48 36.188 431.518 36.8718 432.917 40.9485C432.958 44.2321 432.91 44.1459 433.885 47.2636C435.292 44.283 434.958 40.7122 434.973 37.323ZM479.229 101.955C464.321 102.743 422.911 104.537 411.836 110.914C417.01 110.765 422.09 109.924 427.184 109.062C447.649 105.6 468.203 105.023 488.939 105.078C510.388 105.413 531.883 106.518 552.831 111.651C537.766 104.48 495.739 100.358 479.229 101.955ZM555.611 61.4977C545.41 70.963 542.779 66.564 530.447 68.7561L537.599 71.4356C541.898 73.0839 545.549 76.0867 547.995 79.992C548.393 88.4289 539.415 87.5292 539.267 94.3345C539.897 95.4881 540.796 97.2744 541.481 98.3186C545.54 99.1608 546.605 99.7361 550.376 98.5307C554.397 93.8129 549.487 90.7656 550.932 84.5106L551.96 83.8686L555.537 85.3213L557.075 84.6005C555.861 79.5852 553.322 84.5291 554.147 79.6973L557.983 79.0544C557.371 74.1948 553.841 77.6581 556.399 69.9615C557.427 66.8752 557.325 65.6921 556.964 62.6105L555.611 61.4977Z" fill="black"></path>
<path d="M479.23 101.955C495.741 100.358 537.768 104.48 552.833 111.651C531.884 106.518 510.389 105.413 488.94 105.078C468.205 105.023 447.651 105.6 427.186 109.062C422.092 109.924 417.012 110.764 411.838 110.914C422.913 104.537 464.323 102.743 479.23 101.955Z" fill="black"></path>
<path d="M483.532 130.893C477.964 127.331 473.35 125.102 477.047 117.847C484.19 112.028 488.156 117.002 493.594 121.899L494.224 123.544C491.093 126.447 487.192 128.619 483.532 130.893Z" fill="black"></path>
<path d="M479.593 149.948C482.345 149.466 482.41 149.15 484.838 150.339C486.023 152.94 485.736 153.072 485.505 156.008L486.95 157.149C483.337 157.034 475.674 155.805 473.256 152.968L474.155 151.988L478.917 152.628L480.186 151.587L479.593 149.948Z" fill="black"></path>
<path d="M493.596 121.898C500.156 121.902 505.836 121.922 512.367 122.378C511.691 123.881 511.515 123.807 511.376 125.353L494.226 123.544L493.596 121.898Z" fill="black"></path>
<path d="M463.645 26.882L466.638 28.0661C464.637 32.7469 464.368 39.4855 463.886 44.6758C462.107 37.0682 461.709 34.4044 463.645 26.882Z" fill="black"></path>
<path d="M434.973 37.323C434.958 40.7122 435.292 44.283 433.885 47.2636C432.91 44.1459 432.958 44.232 432.917 40.9485L434.973 37.323Z" fill="black"></path>
<path d="M676.881 65.9932C679.521 73.4128 662.742 98.0943 665.012 103.466C667.847 103.609 670.432 103.614 673.258 103.615L674.36 104.738C670.228 114.652 665.586 124.665 661.426 134.732C646.148 171.735 633.668 210.902 619.158 247.881C613.534 262.231 595.81 313.179 588.917 323.604L588.435 323.068C589.612 317.187 591.048 312.608 592.929 306.919C599.989 285.49 605.909 263.616 614.174 242.616C606.845 250.102 578.484 317.729 574.926 319.112C574.899 318.562 579.513 301.569 580.031 299.57C587.509 278.935 597.246 253.883 603.426 233.242L576.085 284.335C570.525 294.816 562.446 311.952 555.636 321.247C555.08 318.945 565.772 297.382 567.699 292.899C596.088 226.862 630.721 159.836 653.023 91.5244C655.191 95.0665 657.516 99.9205 659.462 103.691C665.614 92.1248 669.876 76.8187 676.881 65.9932Z" fill="black"></path>
<path d="M274.518 62.4752C283.36 72.8531 289.229 90.041 294.496 103.06C296.481 99.0023 298.514 94.5402 300.842 90.7072C305.408 109.808 315.349 129.174 323.656 147.198C333.677 169.365 343.955 191.415 354.486 213.345C369.316 244.631 382.703 276.222 398.255 307.232L395.156 307.233C381.844 286.039 371.828 262.848 359.122 241.648C368.313 266.755 376.883 294.617 386.214 318.854C378.136 307.329 355.327 260.023 347.993 245.114C353.748 264.797 361.342 284.734 367.751 304.23C369.352 309.097 376.493 327.99 376.816 331.677C370.31 322.067 361.569 298.814 356.772 287.167L323.308 205.219C312.81 179.988 302.124 154.836 291.252 129.764C287.641 121.575 282.72 113.786 279.358 105.758C281.683 103.862 286.454 104.517 289.412 104.811C290.247 104.895 291.081 104.987 291.913 105.087C287.117 95.6872 277.155 72.3315 274.518 62.4752Z" fill="black"></path>
<path d="M274.189 670.585C274.065 671.086 273.942 671.586 273.817 672.086C253.718 684.937 218.61 702.819 199.932 714.586C215.672 710.148 233.359 702.106 249.191 697.084C254.956 695.249 259.938 692.581 266.13 690.996C253.671 703.486 212.175 717.393 195.136 729.225C209.47 723.48 224.315 718.579 238.836 713.298C251.362 708.739 261.141 704.209 274.47 701.744L274.458 702.328L273.888 701.698L273.658 702.837C261.712 708.813 246.878 714.539 234.376 719.904L169.606 748.376C139.993 760.977 110.616 774.504 81.2551 787.049L80.2943 786.4C81.0448 784.14 81.8286 782.546 81.5553 780.202C78.5728 779.803 41.8549 796.648 34.4622 799.01C45.9445 789.337 66.4512 782.852 77.9688 775.764C76.8792 774.115 72.6209 772.539 70.4472 771.511C93.4592 761.486 116.715 747.607 139.308 736.294C183.225 714.326 229.108 689.857 274.189 670.585Z" fill="black"></path>
<path d="M2.63477 488.506C13.1276 488.506 23.2229 489.803 33.5824 491.072C37.7072 491.582 49.2035 494.584 51.3817 493.898C50.7721 491.378 47.8572 488.589 46.0135 486.486C100.555 493.852 156.591 496.641 211.267 503.515C230.774 505.971 260.259 508.491 278.564 513.225C253.326 512.956 226.47 509.232 201.042 509.074C196.829 509.056 187.091 508.667 183.338 509.371C190.883 512.002 199.037 512.271 206.684 514.124C224.069 518.321 245.062 520.545 261.78 526.391C240.479 525.344 219.225 523.519 198.057 520.925C192.046 520.313 184.113 519.146 178.287 520.017L178.253 520.23C183.072 521.703 185.648 521.972 190.575 522.657C206.947 526.928 223.969 530.134 240.444 534.016C244.905 535.063 258.409 537.593 261.971 539.307C250.581 543.17 128.231 516.32 107.333 514.42C98.4777 513.614 79.9547 508.88 69.6268 507.638C63.7897 506.934 51.1807 505.943 45.5521 504.942L45.0249 503.812C47.1874 501.496 51.4327 499.818 54.4142 498.382C36.1164 494.435 22.3622 493.972 2.63477 488.506Z" fill="black"></path>
<path d="M267.815 589.246C270.662 588.894 270.923 588.459 273.315 589.478C266.357 593.517 194.812 608.369 182.34 611.307C208.616 611.686 241.546 605.553 266.87 606.155C247.125 610.982 226.826 614.438 206.82 617.959C199.975 619.173 193.797 620.386 187.296 622.851C209.328 620.998 231.544 619.932 253.588 617.996C258.619 617.551 264.421 617.107 269.415 617.403C261.412 622.406 173.293 630.791 158.409 632.413C122.129 636.573 82.8818 641.678 46.7142 645.032L45.8618 644.309C47.7945 641.956 47.9335 642.317 48.7461 639.602C47.7899 639.306 7.77443 644.254 0 643.976C15.408 639.982 35.3847 636.684 51.1337 634.766C48.2624 633.145 46.1842 631.903 43.451 630.059C44.2246 629.068 247.616 591.887 267.815 589.246Z" fill="black"></path>
<path d="M920.663 486.18L915.336 493.37C931.003 491.35 947.681 488.32 963.293 488.709C944.799 494.037 929.715 494.13 913.52 498.401C917.976 500.337 921.414 501.783 925.685 504.182C870.928 510.233 816.578 523.815 761.96 531.691C740.65 534.758 719.312 539.575 697.798 540.752L697.474 540.382C728.874 531.858 767.046 526.595 798.817 518.293C769.177 520.471 730.273 526.725 700.967 525.956C724.575 521.61 748.145 517.043 771.679 512.262C778.165 511.539 783.501 510.251 789.857 508.815C785.827 508.435 776.905 508.889 772.439 509.019C763.396 509.186 692.823 513.346 692.211 512.873C704.784 508.935 748.942 504.729 763.906 503.117C816.347 497.437 868.25 493.222 920.663 486.18Z" fill="black"></path>
<path d="M690.481 666.583C697.013 667.713 745.072 691.793 754.411 696.324L848.092 742.168C853.317 744.725 893.815 763.311 894.714 766.128C892.935 767.231 891.629 768.101 889.933 769.324C891.564 773.04 916.265 781.768 921.491 784.797C925.706 787.253 928.551 788.893 932.887 791.95C922.547 788.976 893.491 776.042 888.432 775.282L887.626 776.125L888.553 780.498L887.719 781.545C885.31 781.026 860.035 769.778 856.097 768.12C833.379 758.734 810.595 749.515 787.747 740.463C773.776 734.626 697.912 704.579 691.38 698.816C693.928 697.881 764.927 724.509 775.008 727.9L776.147 727.335C753.781 714.632 725.522 703.569 702.23 689.477C704.833 688.819 767.846 712.242 775.314 715.04C755.94 702.522 732.249 691.775 712.319 679.554C705.278 675.236 697.143 671.521 690.481 666.583Z" fill="black"></path>
<path d="M214.609 551.314C222.626 549.897 262.914 550.425 270.942 552.121C244.211 555.048 215.362 556.03 188.928 559.56C202.306 561.71 249.887 563.443 258.258 566.12C234.815 569.4 207.404 567.779 185.361 570.53L185.021 571.596C188.959 572.532 197.202 572.068 201.88 572.671C220.89 575.135 253.035 574.968 270.624 579.694C249.181 580.074 227.731 579.814 206.303 578.906C163.598 579.073 117.785 574.311 74.6921 574.079C69.9057 574.051 47.4209 575.163 44.8554 572.976C46.4184 570.577 46.9975 570.586 47.0318 568.168C37.0254 565.722 16.8346 566.268 3.17773 563.73C20.5768 561.312 30.8056 562.09 48.0639 563.702C45.1658 561.136 43.5471 559.199 40.9844 556.262C79.2367 557.522 115.61 555.586 153.754 553.621C173.915 552.584 194.819 552.51 214.609 551.314Z" fill="black"></path>
<path d="M697.708 551.333C715.831 548.674 767.068 551.87 786.617 552.76C833.249 554.863 876.073 557.328 923.001 556.105C923.9 558.236 921.556 558.032 920.11 562.192C928.393 563.313 950.76 561.423 964 562.442C951.807 565.611 930.2 566.185 917.201 566.852C919.962 569.307 923.325 571.929 926.216 574.301C884.198 573.625 831.294 576.664 788.211 578.304C765.307 580.175 719.473 579.981 696.272 579.379C717.045 575.608 746.796 575.126 768.374 573.088C774.406 572.513 790.379 572.634 795.151 571.652C792.464 569.975 709.642 566.574 697.773 565.509C725.263 562.775 760.286 561.738 788.165 560.895C762.259 555.465 725.458 555.771 697.708 551.333Z" fill="black"></path>
<path d="M941.02 411.189L941.576 411.286L942.169 412.235C935.729 415.893 911.214 422.794 903.107 425.19C905.571 426.685 909.37 428.451 910.315 430.877C907.693 432.612 874.431 442.454 868.371 444.498L759.783 481.983C742.819 487.653 714.087 497.956 696.669 499.846C700.857 497.586 713.337 493.842 718.535 491.674C739.928 482.761 765 475.256 786.032 466.157C761.711 471.309 737.158 477.501 712.698 482.845C706.23 483.901 698.744 486.106 692.953 486.968C695.779 483.493 763.916 462.291 773.866 459.12C767.687 455.542 696.409 475.58 692.11 471.502C704.646 466.552 740.558 459.256 755.234 455.271C786.365 446.819 818.386 438.909 849.665 430.727C865.434 426.604 884.085 422.818 898.965 416.552C902.504 415.062 901.402 414.924 905.618 414.098L906.507 415.031L904.682 419.036L905.256 420.189C907.952 420.417 935.683 412.459 941.02 411.189Z" fill="black"></path>
<path d="M693 589.33C716.719 590.358 744.978 596.084 768.632 600.114C819.304 608.74 870.003 620.044 920.924 627.067L921.527 627.91C920.137 629.633 919.182 630.717 918.015 632.607C921.156 634.72 946.57 637.499 953.742 639.288C950.731 641.076 948.664 640.798 945.153 640.937C939.686 640.816 918.979 637.36 916.644 638.259C918.562 640.631 918.627 640.233 919.599 642.975C914.365 645.764 734.425 622.314 717.803 621.026C715.098 620.813 705.407 619.423 703.285 617.551C706.454 616.504 758.802 621.1 766.64 621.693C774.608 622.833 783.003 623.055 791.073 623.453C785.347 621.489 779.056 620.609 773.07 619.599C761.674 615.152 722.983 611.186 707.778 606.869L707.982 606.313C712.068 606.294 716.145 606.433 720.222 606.822C739.567 608.685 759.024 609.25 778.361 611.195C781.455 611.566 785.078 612.372 787.867 611.334C785.727 609.315 783.475 609.352 780.167 608.49C753.762 601.18 719.202 597.362 693 589.33Z" fill="black"></path>
<path d="M22.8879 411.199C35.9528 410.901 53.237 419.967 63.2675 420.787L63.9587 420.007C62.8654 417.955 62.4318 417.364 61.8277 415.146C66.1675 414.954 81.3782 421.753 87.0512 423.178C130.05 433.974 173.573 444.179 216.323 455.767C229.64 459.378 270.54 468.132 281.57 474.792L225.635 463.202C215.308 461.088 202.556 458.108 192.246 456.873C209.791 464.987 234.25 471.93 252.699 479.027C258.96 481.436 266.376 483.095 272.34 485.624L270.798 486.023C242.864 480.13 215.518 473.283 187.765 467.327C201.833 474.988 232.493 484.077 248.231 491.452C253.37 493.852 261.634 495.927 265.997 499.161C263.314 499.476 61.4849 433.594 57.2887 430.488C57.9789 427.892 60.2248 426.706 62.4753 424.953C52.317 421.017 31.5611 415.962 22.8879 411.199Z" fill="black"></path>
<path d="M268.612 629.754L269.767 630.411C260.903 635.859 226.739 647.144 215.366 652.574C211.413 654.464 203.203 656.558 199.935 659.171C205.946 660.208 249.574 646.987 262.38 647.645C254.758 650.183 200.148 669.362 197.465 671.586C204.476 671.428 209.551 669.029 215.626 668.213C233.308 665.823 252.966 659.347 270.014 656.484L270.797 657.197C255.319 663.256 242.595 666.11 227.025 670.678C201.038 678.303 175.717 684.418 149.399 690.811L59.6689 714.095C56.7605 712.288 61.1716 711.584 60.0756 707.961C51.0531 708.869 31.2803 715.262 19.1892 717.449C30.9681 710.49 45.8294 708.684 58.7544 703.468L58.7803 702.43L54.8296 700.234L54.7546 699.094C62.7699 695.379 76.7168 692.479 85.6994 689.699C146.85 670.789 206.897 646.625 268.612 629.754Z" fill="black"></path>
<path d="M684.973 430.581C705.774 420.052 727.843 411.687 749.403 402.701C796.823 382.929 840.221 364.472 886.399 341.886C888.029 344.858 883.962 347.279 886.324 349.312C896.479 346.889 911.22 336.956 926.489 332.81C911.878 343.957 897.1 347.639 882.516 356.2C887.371 357.189 892.412 358.121 897.202 359.373C873.687 368.805 853.896 379.485 831.317 390.901C789.531 412.029 749.098 434.365 706.459 453.7L706.2 451.456C729.733 437.407 757.13 424.202 779.58 409.892C757.733 417.357 737.442 427.468 715.252 433.709C709.73 435.26 707.043 437.72 700.39 438.601L699.362 438.009C723.961 425.487 750.265 413.053 775.225 400.503C753.758 405.506 731.457 415.06 710.462 422.057C703.05 424.527 692.33 429.173 684.973 430.581Z" fill="black"></path>
<path d="M40.6655 334.106C53.8147 334.847 68.5964 347.16 80.5095 348.691L80.9784 347.766L79.0753 342.246L79.8907 341.832C134.578 369.711 192.695 390.055 248.722 415.08C257.425 418.968 266.676 422.611 275.084 426.997L274.982 427.601C270.32 427.281 265.694 424.625 261.138 423.185C237.437 415.699 213.896 404.821 190.112 397.965C212.579 413.003 246.6 425.882 269.406 440.046C267.458 440.364 263.809 438.633 261.598 437.831C236.707 428.525 211.042 419.342 186.835 408.51C193.627 414.073 201.409 416.891 208.255 421.511C225.562 433.188 252.185 443.717 267.999 456.145L267.155 456.71C259.255 451.722 250.862 449.45 242.722 445.403C202.273 425.287 162.259 404.568 122.252 383.57C106.496 375.3 88.3081 365.954 71.7048 359.68L85.7759 356.165C76.6339 352.487 47.3559 340.01 40.6655 334.106Z" fill="black"></path>
<path d="M768.335 106.902C769.28 112.898 753.529 132.383 749.453 140.422C751.343 143.95 753.585 140.425 756.04 143.66C754.252 147.815 741.966 166.946 739.604 170.41C732.006 181.562 678.565 281.592 671.996 284.631C671.041 279.568 685.838 250.924 689.192 244.415C685.421 247.882 677.647 260.044 673.83 264.988C667.419 273.29 662.091 278.793 654.855 286.276C660.284 271.119 674.108 247.556 682.15 232.2C676.61 238.291 671.486 245.342 666.52 251.961C659.173 261.25 653.206 268.312 646.303 278.065C637.242 290.883 621.269 318.861 610.178 328.602C623.14 305.121 641.485 278.635 656.439 256.412C685.532 213.175 714.05 172.885 740.567 127.959C742.078 131.738 743.467 136.056 744.811 139.938C752.955 128.803 758.468 117.347 768.335 106.902Z" fill="black"></path>
<path d="M890.448 251.677L891.106 252.153C889.836 256.627 864.978 273.112 858.168 280.067C863.347 279.76 866.247 280.25 871.334 280.852C813.889 318.841 761.013 364.776 705.774 405.977C703.874 407.392 698.065 412.015 696.073 412.038C698.908 408.279 705.7 402.653 709.443 399.361C720.691 389.55 732.022 379.83 743.437 370.203C749.589 364.982 758.02 358.581 763.014 352.447C745.735 363.576 729.113 374.436 711.074 384.263C705.57 387.812 699.863 391.826 693.85 394.247C709.193 380.462 737.97 358.514 755.102 344.974C749.728 344.512 698 378.721 692.682 377.752C725.546 352.937 766.044 329.328 800.353 306.033C813.195 297.263 825.98 288.401 838.702 279.449C842.352 276.853 854.434 267.651 857.788 266.131C859.011 267.666 858.316 269.52 858.14 272.145L858.927 272.763C864.033 270.31 883.314 256.206 890.448 251.677Z" fill="black"></path>
<path d="M103.453 845.003C99.8405 843.474 98.9223 843.909 97.6826 841.26C98.0579 840.592 98.5007 839.694 99.1548 839.277C145.898 809.823 189.483 775.143 235.202 744.142C248.724 734.979 268.479 720.108 282.675 713.316C269.287 725.306 231.042 753.185 222.509 763.339C238.122 754.75 260.557 741.909 276.531 735.145C260.089 749.173 233.916 764.877 220.04 777.274L220.14 777.904C229.523 774.504 278.155 745.865 281.159 746.282C276.037 751.193 249.422 767.963 242.109 772.484L149.737 828.409C137.32 836.071 120.301 845.596 109.425 854.435L107.344 854.407C105.943 851.674 107.094 850.932 106.472 848.208L103.485 847.069L103.453 845.003Z" fill="black"></path>
<path d="M692.972 627.984C703.692 628.651 909.259 695.37 911.251 697.288C909.546 699.91 909.694 698.835 909.546 701.587C918.57 705.636 933.783 707.915 948.154 714.215C935.525 712.899 915.457 706.071 906.507 706.09L906.043 707.118L908.925 710.5L908.656 711.445C901.809 710.759 885.808 705.673 878.016 703.699L814.133 687.846C799.42 682.964 704.303 661.218 701.551 656.993C707.203 656.956 712.716 659.013 718.164 659.615C736.787 661.672 760.302 670.483 778.489 671.039C765.666 667.092 752.084 662.006 739.233 657.762C728.828 654.325 715.227 650.081 705.267 646.014L704.961 645.013C730.783 650.322 748.396 653.565 774.283 660.218C763.091 653.074 707.435 633.534 692.972 627.984Z" fill="black"></path>
<path d="M189.184 108.64C194.785 110.404 208.924 135.178 215.865 141.885L218.428 128.786C233.508 156.006 254.162 184.262 272.176 209.556C292.492 237.918 312.292 266.646 331.568 295.725C331.082 295.366 330.601 294.999 330.11 294.647C318.822 286.545 290.969 247.913 279.975 234.658C283.194 240.661 286.527 246.602 289.972 252.478C296.034 263.676 300.194 269.403 301.757 282.185C295.198 275.469 280.289 254.465 273.414 245.541L271.836 245.694L272.545 244.564L271.089 243.56C276.947 258.306 285.912 270.676 291.386 287.475L291.874 288.997C281.663 278.185 251.62 225.25 241.88 208.324C228.957 185.868 214.92 166.613 201.586 145.346L202.226 144.307C204.955 144.293 207.144 144.607 209.479 143.322C209.754 137.234 193.092 120.643 189.184 108.64Z" fill="black"></path>
<path d="M109.925 274.358C110.687 271.753 110.789 270.223 110.953 267.556L111.68 266.723C138.951 287.694 172.96 308.903 201.877 327.742C227.236 344.572 252.391 361.709 277.332 379.15C264.204 374.987 217.705 346.173 204.054 337.74C210.201 344.074 216.808 348.218 223.424 353.698C238.622 366.288 259.415 379.935 273.107 393.674C258.661 384.576 243.859 375.785 229.224 366.975C224.209 363.956 209.866 354.645 205.005 352.719L253.589 394.132C258.306 398.106 274.323 411.004 277.55 415.082C237.133 389.515 194.964 353.264 156.316 324.438C138.862 311.42 116.096 291.306 97.0891 281.19L108.079 278.276L109.925 274.358Z" fill="black"></path>
<path d="M690.466 713.752C695.728 714.66 721.791 733.051 727.795 737.063C755.192 755.482 782.404 774.189 809.412 793.173C822.383 802.142 835.429 810.999 848.53 819.764C854.404 823.739 864.994 830.53 870.053 835.015L870.127 836.442L865.809 838.73L865.698 840.194C874.963 848.727 886.712 852.999 898.479 864.293C887.935 859.957 871.424 849.154 860.76 842.909C862.168 846.142 862.474 846.865 863.234 850.275L862.493 851.081C834.66 833.968 809.644 818.152 781.098 801.762C770.545 795.749 691.892 750.322 689.91 745.967C699.24 749.784 759.64 783.093 763.79 783.463C762.753 781.471 710.83 746.977 704.614 739.555C707.171 739.833 752.579 764.507 758.963 767.212L759.816 767.564C754.368 763.654 749.337 759.161 744.037 755.038C726.266 741.195 707.949 727.955 690.466 713.752Z" fill="black"></path>
<path d="M497.447 912.981L498.42 914.186C499.124 920.94 498.402 933.059 498.318 940.444L497.142 1001.41L496.28 1059.64C496.132 1072.01 496.428 1086.82 494.807 1098.87L486.579 1091.41C486.116 1107.53 488.025 1117.57 484.643 1133.5C483.29 1121.3 483.92 1105.7 481.9 1094.87C479.037 1093.14 479.871 1096.45 475.313 1096.04C474.173 1087.26 474.738 1055.73 474.646 1045.44C473.219 1002.51 471.579 953.776 471.968 911.388C475.526 920.421 477.824 957.399 478.871 969.101C481.558 955.99 484.43 925.128 485.94 910.897C488.636 926.101 489.905 940.11 491.573 955.296C493.241 941.713 494.779 926.231 497.447 912.981Z" fill="black"></path>
<path d="M550.647 908.21C554.075 919.18 556.558 937.191 558.42 948.856L567.973 1009.02C570.465 1024.74 579.656 1074.58 579.591 1088.48L570.53 1084.49C572.633 1098.43 575.755 1111.53 576.459 1125.57C572.401 1114.34 567.917 1096.14 566.953 1084.03L559.838 1090.92C551.796 1031.25 531.134 968.776 525.445 909.822C528.948 917.827 535.35 939.758 537.926 948.921C538.908 952.738 539.473 956.074 541.502 959.428C542.271 956.361 541.066 950.58 540.575 947.188C540.788 934.81 539.612 923.192 539.853 911.045C542.178 921.542 545.319 930.381 548.645 940.573C550.489 947.087 551.934 951.645 554.325 957.973L551.897 941.12C551.295 930.15 550.545 919.189 550.647 908.21Z" fill="black"></path>
<path d="M444.323 909.516C446.146 920.616 437.791 953.461 435.215 966.312C430.074 992.245 425.162 1018.22 420.48 1044.24C417.936 1060.32 415.084 1076.35 411.926 1092.31C409.66 1089.77 407.088 1086.16 404.992 1083.38C401.159 1096.93 401.613 1107.96 395.733 1122.46C395.952 1108.06 399.39 1098.29 400.658 1085C398.534 1082.68 397.642 1086.7 392.39 1086.26C392.273 1081.74 399.123 1046.95 400.202 1038.76C405.69 997.119 411.082 955.194 417.626 913.704L418.813 914.871C420.452 929.158 417.546 946.494 417.432 961.392C422.999 946.772 428.351 922.487 433.386 910.155C432.126 925.276 433.371 939.007 430.846 954.193C435.61 940.054 440.038 923.933 444.323 909.516Z" fill="black"></path>
<path d="M845.438 173.53L846.615 174.175C845.169 178.822 818.717 205.65 813.297 211.308L828.548 210.851C820.116 219.489 812.102 225.866 803.318 235.483L746.838 298.226C735.488 310.718 724.027 323.878 711.648 335.294C718.486 322.028 736.6 300.972 746.736 288.487C741.853 291.016 723.397 308.973 714.724 314.802C712.77 316.247 713.835 315.883 711.565 316.025C712.584 311.463 739.268 278.553 743.993 271.65C732.05 282.417 713.65 299.823 700.919 308.163C707.062 296.399 723.248 282.313 732.819 272.444C759.021 245.42 786.576 220.037 811.453 191.696C811.935 196.653 812.194 202.124 812.528 207.136C823.109 195.56 834.088 184.351 845.438 173.53Z" fill="black"></path>
<path d="M118.211 173.514C123.217 175.542 145.748 198.876 152.721 204.942L153.486 193.309C157.833 197.378 173.751 213.35 176.608 216.836C184.948 227.014 262.903 296.789 262.845 302.915C251.325 300.69 226.259 271.207 221.279 271.532C233.493 285.109 243.223 297.44 254.571 311.712L255.391 313.409L254.984 314.504C249.482 315.179 229.3 296.384 224.404 292.111C231.945 302.242 252.588 325.747 257.106 334.748C245.996 327.571 231.219 309.967 221.651 299.985C193.346 270.454 168.529 237.925 136.997 211.751C142.174 211.601 147.654 211.232 152.854 210.97C142.113 200.281 126.287 185.566 118.211 173.514Z" fill="black"></path>
<path d="M279.853 768.574C280.469 769.019 280.124 768.667 280.348 769.964C264.17 788.235 245.997 805.06 229.505 823.683C244.653 815.373 258.785 801.632 276.893 791.913C265.746 803.893 254.659 814.437 242.984 825.851C240 828.77 231.882 835.978 230.042 838.499C230.101 838.508 279.407 804.319 284.5 801.345C260.964 823.702 223.328 852.387 197.238 873.53C189.811 879.58 153.982 910.369 148.077 913.12L147.336 909.859L146.011 909.081C141.973 910.758 117.423 932.383 110.799 937.191C120.239 925.508 132.633 914.492 143.67 904.105L133.838 901.131C149.157 891.421 176.355 863.338 190.26 850.395C218.721 823.897 249.679 792.877 279.853 768.574Z" fill="black"></path>
<path d="M692.632 770.297C701.332 773.726 832.091 893.219 833.027 896.934C830.155 898.203 830.109 897.675 828.552 899.908C829.979 905.31 853.364 924.174 860.712 933.041C849.343 927.491 836.548 914.918 826.384 906.422L825.133 906.588L824.485 909.766L823.401 910.295C806.529 897.536 789.536 882.944 772.507 869.769C740.894 845.753 718.861 828.659 688.694 802.818C698.311 806.876 735.326 833.857 747.102 841.528C736.78 830.03 706.075 805.005 699.275 793.729C702.823 796.888 738.411 821.441 742.756 823.554C740.931 820.311 732.602 812.584 729.674 809.406C718.398 797.176 703.629 783.973 693.271 771.113L692.632 770.297Z" fill="black"></path>
<path d="M608.844 911.74C613.514 914.492 638.215 986.677 641.939 997.1C647.628 1013.05 659.284 1039.75 663.74 1055.62L662.795 1056.77C660.525 1056.66 658.264 1056.51 656.013 1056.3C654.067 1059.23 664.639 1083.67 666.205 1092.81C657.718 1080.23 656.541 1069.35 650.389 1060.27L648.86 1060.15L645.506 1064.86L644.209 1064.66C641.837 1060.85 636.269 1043.91 634.147 1038.18C624.465 1011.67 611.994 984.963 601.191 958.853C594.418 942.519 587.21 928.658 583.179 911.341C590.879 923.053 597.021 935.144 604.434 947.04C601.07 933.819 598.967 923.729 596.512 910.304C604.841 923.507 608.937 933.328 616.136 946.836C613.31 934.995 611.132 923.692 608.844 911.74Z" fill="black"></path>
<path d="M390.04 908.228C385.936 927.574 364.588 972.779 355.727 994.237C346.54 1016.48 336.617 1044.14 327.303 1065.76C325.978 1063.06 324.846 1059.39 322.645 1058.4L321.928 1058.58C320.384 1057.21 320.91 1057.8 319.997 1055.83L318.541 1054.16C314.403 1054.41 311.845 1055.76 308.024 1057.31C321.754 1026.84 332.437 992.356 344.03 960.901C350.404 943.612 355.254 926.351 363.741 909.831C361.086 924.878 357.961 943.056 352.187 957.074L352.43 958.27C353.706 957.445 373.818 916.78 376.063 911.971C373.947 930.039 372.736 935.125 366.889 952.359C374.914 939.072 381.432 922.756 390.04 908.228Z" fill="black"></path>
<path d="M689.338 831.355C697.704 835.839 788.476 950.672 792.997 960.873C790.18 962.133 785.955 961.753 782.722 961.753C792.608 972.547 803.856 985.148 810.693 997.99C800.252 989.086 789.726 975.836 781.425 964.894C779.766 969.128 780.313 969.721 777.292 972.214C773.429 971.065 770.39 965.561 767.712 961.883C746.838 936.126 725.685 917.735 710.453 887.623C717.81 893.747 728.242 905.541 735.395 912.815C724.397 894.757 706.525 875.68 694.035 856.343C703.958 863.83 716.633 875.078 725.037 884.232C716.624 866.767 695.601 844.984 689.338 831.355Z" fill="black"></path>
<path d="M177.776 961.67C200.574 934.069 220.929 906.468 242.846 878.274C251.551 867.072 271.076 841.537 281.894 832.902C280.783 836.84 268.234 851.423 265.066 855.797C255.767 868.657 248.328 882.369 239.672 895.572C245.082 890.458 250.263 884.843 255.629 879.534C262.123 873.104 270.58 866.035 276.5 859.41C268.849 872.233 262.097 880.85 252.853 892.505C248.29 898.259 240.073 908.488 237.026 914.807C243.587 907.672 247.128 904.504 254.538 898.361C250.309 909.702 232.385 928.714 224.112 939.322C220.265 944.251 196.128 974.929 194.15 976.087C190.722 971.834 193.967 970.963 189.927 968.841C189.562 966.979 189.736 966.164 189.78 964.236L177.776 961.67Z" fill="black"></path>
<path d="M272.285 956.213C272.789 956.63 273.494 957.612 273.937 958.168C273.591 959.465 273.273 960.781 272.982 962.096L275.044 962.624C277.865 961.661 281.273 959.993 283.714 961.874C283.505 964.681 283.4 966.127 283.491 968.98C284.991 968.536 291.397 960.984 293.205 959.085C289.814 968.165 261.875 1018.9 256.376 1025.42L255.029 1025.3C254.491 1022.83 254.085 1021.17 253.351 1018.71L252.022 1018.72C248.408 1022.11 246.538 1026.8 244.255 1031.31C239.771 1039.31 236.353 1045.6 230.059 1052.31C234.893 1040.41 244.554 1024.43 247.826 1014.93C245.19 1014.06 241.343 1014.91 238.418 1015.29C245.929 1000.4 263.378 969.434 272.285 956.213Z" fill="black"></path>
<path d="M700.209 956.167C704.323 959.595 731.09 1005.87 731.785 1010.7C730.201 1011.57 729.701 1011.69 727.996 1012.17L726.254 1012.66C726.161 1013.13 726.069 1013.6 725.976 1014.06C732.137 1025.34 740.356 1039.57 744.914 1051C739.114 1045 736.547 1040.97 732.452 1033.88C727.968 1026.43 723.91 1019.81 720.065 1011.97C718.471 1015.93 716.711 1019.95 715.043 1023.88C709.326 1007.45 687.609 979.459 681.549 962.189L682.226 961.142C687.118 961.336 684.523 962.958 689.786 964.598C691.231 961.068 691.055 959.891 694.595 959.122L696.744 961.383C699.144 960.067 698.783 959.317 700.209 956.167Z" fill="black"></path>
<path d="M551.152 184.654C553.737 189.621 556.776 192.481 560.565 196.517C561.056 200.092 561.649 204.227 562.501 207.705C563.669 212.472 566.161 215.122 566.458 220.065C563.169 225.789 561.408 224.07 557.137 227.142C558.221 226.362 552.226 231.933 552.541 231.641C543.915 229.915 547.751 226.289 542.396 223.761C539.533 224.526 539.514 224.681 536.614 224.497L535.039 222.684C534.715 217.721 542.137 195.91 545.963 191.866C547.844 189.875 549.502 187.177 551.152 184.654ZM546.936 212.331C548.011 208.322 549.039 200.15 549.03 195.956L547.167 194.542C545.138 198.77 541.08 209.807 546.936 212.331Z" fill="black"></path>
<path d="M547.164 194.542L549.026 195.956C549.036 200.15 548.007 208.322 546.932 212.331C541.077 209.807 545.135 198.77 547.164 194.542Z" fill="black"></path>
<path d="M680.978 166.155C682.276 174.259 621.144 288.557 612.546 300.821C612.388 295.503 675.141 173.052 680.978 166.155Z" fill="black"></path>
<path d="M273.114 164.478C280.962 173.507 295.921 201.076 302.477 213.128C315.844 237.698 332.364 265.378 344.431 290.342L342.193 290.611C325.391 261.342 308.904 231.892 292.737 202.268C287.303 192.229 277.627 176.079 273.8 166.219L273.114 164.478Z" fill="black"></path>
<path d="M458.474 914.779L459.59 916.437C459.601 929.992 456.162 958.64 454.873 972.946C453.559 987.529 452.201 1021.43 449.277 1033.3L447.943 1032.22C447.096 1025.85 448.876 1004.34 449.549 997.035C451.957 970.898 452.975 940.295 458.474 914.779Z" fill="black"></path>
<path d="M511.77 915.483C514.966 919.208 524.268 1025.66 521.989 1032.12C518.422 1023.25 510.667 926.953 511.77 915.483Z" fill="black"></path>
<path d="M402.942 916.604C403.984 922.728 377.457 1013.85 372.967 1024.29C372.568 1023.4 371.964 1022.2 372.106 1021.58C375.809 1005.38 396.568 925.536 402.942 916.604Z" fill="black"></path>
<path d="M566.965 916.428C572.265 922.163 596.039 1009.81 598.698 1024.09L597.698 1023.74C593.417 1019.51 568.883 928.463 566.965 916.428Z" fill="black"></path>
<path d="M738.146 676.052C744.252 676.246 837.377 711.602 842.927 715.809C832.846 715.818 749.709 682.741 738.146 676.052Z" fill="black"></path>
<path d="M140.672 344.222C147.546 344.87 231.972 395.118 239.516 401.777C230.082 399.303 150.387 351.659 140.672 344.222Z" fill="black"></path>
<path d="M116.908 408.201C129.051 408.527 210.219 441.508 224.922 448.526C220.711 448.839 121.413 411.735 116.908 408.201Z" fill="black"></path>
<path d="M237.244 337.402C220.009 324.237 202.966 309.2 186.267 295.268C178.071 288.43 164.025 277.477 157.747 269.661C162.323 269.105 230.161 329.48 239.154 336.503L237.244 337.402Z" fill="black"></path>
<path d="M847.014 408.468L847.07 409.574C843.762 413.9 755.622 444.988 742.54 449.922L742.475 449.203C747.284 444.966 836.174 411.662 847.014 408.468Z" fill="black"></path>
<path d="M212.325 216.012C217.984 217.365 271.565 283.346 273.776 290.571C266.834 285.496 217.798 224.973 212.325 216.012Z" fill="black"></path>
<path d="M822.302 346.121L822.997 347.42C816.956 354.55 745.67 393.686 734.199 399.329L733.681 398.628C738.749 395.225 744.743 391.482 750.071 388.48C774.086 374.942 797.907 358.76 822.302 346.121Z" fill="black"></path>
<path d="M219.709 682.63C220.292 682.936 219.988 682.676 220.31 683.649L128.462 719.422C127.791 718.718 128.143 719.209 127.802 717.708C139.515 709.49 202.388 688.439 219.709 682.63Z" fill="black"></path>
<path d="M245.732 779.72L246.34 780.628C242.049 784.51 237.022 788.513 232.403 792.043C210.186 809.017 188.463 827.853 165.517 843.761L164.848 843.029C166.193 837.943 235.204 787.234 245.732 779.72Z" fill="black"></path>
<path d="M723.033 777.682C730.491 780.165 803.028 835.626 808.504 842.029C801.741 840.88 732.279 785.909 723.033 777.682Z" fill="black"></path>
<path d="M842.439 474.367L843.718 474.659L843.236 475.918C835.833 479.002 818.489 481.835 810.308 483.493C791.925 487.209 772.95 491.869 754.346 494.009L753.354 493.963C759.655 489.886 831.488 475.845 842.439 474.367Z" fill="black"></path>
<path d="M794.306 282.137L795.121 283.522C791.869 288.882 734.629 335.293 726.049 341.534L725.595 340.341C739.706 325.903 757.44 312.737 772.709 299.429C779.37 293.623 787.199 287.254 794.306 282.137Z" fill="black"></path>
<path d="M740.324 227.177C741.417 228.112 740.861 227.471 741.658 229.344C737.803 235.395 729.956 244.818 725.323 250.692C714.501 264.596 703.365 278.245 691.913 291.627C690.968 290.633 691.338 291.292 691.283 289.46C703.578 271.734 717.735 255.042 730.836 237.908C733.819 234.008 736.756 230.541 740.324 227.177Z" fill="black"></path>
<path d="M217.915 738.481L216.854 741.334C212.815 742.771 204.494 748.339 200.321 750.544C185.805 758.225 152.008 780.841 137.371 784.436C150.289 774.309 202.414 745.985 217.915 738.481Z" fill="black"></path>
<path d="M765.779 587.458C775.878 588.032 849.286 591.72 853.474 594.703C851.074 596.529 852.473 595.954 848.906 595.778C826.216 594.917 803.303 592.563 780.659 590.794C774.312 590.293 767.132 589.654 760.933 588.403L760.989 587.838L765.779 587.458Z" fill="black"></path>
<path d="M208.543 636.508L209.706 636.221L210.199 636.888C204.782 638.898 196.511 640.177 190.352 641.687C166.482 647.32 142.507 652.49 118.439 657.206L116.815 657.197L116.293 656.067C120.567 652.527 198.183 637.953 208.543 636.508Z" fill="black"></path>
<path d="M713.731 836.849C721.079 839.434 770.796 892.357 775.16 900.381C769.851 898.491 720.291 844.975 713.731 836.849Z" fill="black"></path>
<path d="M752.769 634.386C761.089 633.858 847.959 652.592 852.74 656.289C841.724 655.835 761.895 637.851 752.769 634.386Z" fill="black"></path>
<path d="M208.622 587.504C209.765 587.365 209.015 587.375 210.817 588.005C203.055 591.424 132.805 594.435 118.326 596.167L116.321 596.13L115.381 595.092C119.568 592.443 198.338 587.912 208.622 587.504Z" fill="black"></path>
<path d="M114.23 534.6C125.62 533.183 192.811 539.02 204.524 541.299C196.051 542.624 121.731 538.473 115.062 536.398L114.23 534.6Z" fill="black"></path>
<path d="M814.014 536.472C817.637 535.749 831.442 535.304 834.972 536.749C827.764 539.844 787.516 541.373 777.556 541.651C769.069 542.235 763.111 542.512 754.643 542.29L755.505 542.151C772.108 539.307 796.485 538.065 814.014 536.472Z" fill="black"></path>
<path d="M134.302 477.003C143.254 476.012 203.639 489.293 211.216 493.249C203.399 492.999 140.805 480.556 134.302 477.003Z" fill="black"></path>
<path d="M738.11 729.345C742.521 729.503 786.224 752.462 789.838 757.613C780.591 755.64 747.755 735.979 738.555 730.364L738.11 729.345Z" fill="black"></path>
<path d="M71.7402 249.394C84.5447 256.024 97.4317 266.348 109.925 274.358L108.079 278.276C101.865 271.46 83.029 261.676 71.7402 249.394Z" fill="black"></path>
<path d="M189.779 964.236C189.734 966.164 189.561 966.979 189.926 968.841C186.7 973.122 168.233 997.156 164.667 997.869C168.573 989.253 183.074 971.556 189.779 964.236Z" fill="black"></path>
<path d="M261.202 832.652C260.933 836.442 228.244 868.86 223.505 873.308C222.427 868.277 255.452 837.887 261.202 832.652Z" fill="black"></path>
</svg>