<?xml version="1.0" encoding="UTF-8"?>
<svg id="Layer_1" xmlns="http://www.w3.org/2000/svg" version="1.1" viewBox="0 0 964 1134">
  <!-- Generator: Adobe Illustrator 29.5.1, SVG Export Plug-In . SVG Version: 2.1.0 Build 141)  -->
  <defs>
    <style>
      .st0 {
        fill: #fff;
      }
    </style>
  </defs>
  <path class="st0" d="M482.74,308c-23.73-16.5,18.55-31.87,5.77.71,2.86.22,18.11.59,21.63-.38,22.82-6.33,40.74,16.16,21.52,32.45-7.27,6.17-27.19.58-37.47-2.04-1.12,1.95-5.68,8.07-6.07,9.01,5.24,1.05,32.36.81,39.26.89,37.89.41,76.72-1.73,114.52-.57-11.97-7.77-17.45-18.01-13.55-32.4,2.63-9.43,8.95-17.41,17.54-22.11,9.51-5.16,20.82-5.68,31.09-2.29,22.87,6.68,38.16,33.57,28.75,56.37-11.01,26.67-20.09,8.3-29.19,3.97l-1.33.99c-1.09,7.85-.26,30.31-.28,39.4l.14,98.98.21,233.44c.5,34.83.79,69.66.85,104.48.23,22.76,1.09,45.84.54,68.59,2.87-.78,5.73-1.61,8.56-2.51l2.47-1.27c27.82-9.97,28.07,23.57,18.65,40.2-1.31,2.31-2.72,4.55-4.24,6.73-4.6,5.49-7.8,7.34-13.44,11.63-16.79,6.19-31.12,6.85-45.74-5-16.37-13.28-17.6-28.92-4.52-44.55-20.22,1.02-46.16.33-66.52.23l-93.37-.03-89.86.33c-19.68.1-41.05.68-60.58-.48,3,2.3,5.89,4.41,8.07,7.52,10.39,15.29.59,32.32-13.57,40.83-33.71,20.25-73.91-9.7-62.4-47.79,2.42-8.01,8.69-15.72,17.85-11.24,1.91.94,1.72.91,3.9,1.09,3.61-5.24,1.15-6.3-2.16-10.28l.38-1.14c3.85-.62,5.83.19,8.34,3.14.26,4.18.09,8,2.92,10.74l1.52-1.05c2.21-4.22,2.71-7.11,2.58-11.89-.52-18.24-.38-36.59-.41-54.83l-.31-135.68-1.2-276.54c-.16-16.35.46-32.56.15-48.98-11.17-.13-22.13-3.28-28.72-12.57-13.8-19.48-4.42-44.47,13.48-57.06,24.84-17.48,67.01,1.03,60.96,33.44-1.71,9.14-7.67,13.24-14.83,17.81,30.54.71,62.84-.86,93.86.15,9.99.32,52.99.93,60.81-.07-1.86-4.03-3.47-4.81-5.44-10.45-8.15,2.02-16.2,4.16-24.45,5.65-23.71,4.29-28.2-32.15-4.99-34.97,12.24-1.48,24.51.4,36.91-.5l1.45-.11h-.04ZM630.27,855.18c.84-47.08.18-95.94-.03-143.07l-.53-216.82c0-14.46-1.42-107.24,1.37-113.2-3.05-2.13-108.01-.59-121.64-.76l-1.45.89-.24,3.7-1.83.09c-6.05-6.31,1.15-19.45-7.06-22.01.73,8.25,1.48,13.14-.23,21.31-3.53,3.17-7.69,7.99-12.06,3.99-1.95-5.12-.71-9.59-2.92-12.18l-1.23.39c-1.71,5.34-2.99,14.74-9.93,13.45-7.01-6.63-4.48-20.41-7.55-24.64-2.23,5.67-2.15,9.45-3.38,15.24-44.43-.98-91.04-.06-135.75-.23l1.1,320.63c.06,53.11,1.24,110.08.33,162.86,3.31-3.17,7.1-7.02,10.55-9.92h83.52c68.9.12,140.32,1.54,208.97.29h0ZM299.84,894.43c84.92,1.91,175.44.26,260.8.3h65.59c11.86-.02,31.12-.65,42.12.78,1.08-53.65-.39-108.9-.57-162.67l.14-239.46c-.13-45.85-1.06-96.02.12-141.76-31.42,1.34-68.08-.32-100.39.31-21.4.41-64.45,1.89-84.66-.11,21.09,23.06.42,18.4,4.42,34.82l1.33,1.06c11.76-2.16,7.4-21.54,6.5-30.06,47.08-.58,94.15-.74,141.23-.49l27.31.23c-1.12,57.43-.02,118.44-.01,176.19l.96,356.51c-26.81.81-56.03,0-83.12-.02l-177.99-.14c-32.42-.15-66.95-1.26-99.19-.72l-.61-367.02-.27-106.45c-.05-13.07-.92-45.58.78-57.61l111.93-.15c15.27-.04,38.62.71,53.09-.42l.17,1.33c1.05,8.92-3.09,24.61,7.5,26.97,3.43-4.7-2.09-14.16-4.65-18.52,3-7.07,4.57-8.7,9.66-14.38l-128.45-.41c-15.54-.03-38.93-1.14-53.42-.57-3.51,4.67-2.19,94.56-2.17,108.68l.68,196.58.64,163.44c.15,25.09-.67,48.41.52,73.75h0ZM310.41,317.5l.02,2.65c-2.52,3.11-4.25,6.71-6.17,10.25-5.12-.54-9.11-1.12-14.29-.69-.32,3.33,3.59,2.08,4.84,5.75-8.47,3.09-13.82-7.58-14.76-14.46-1.68-12.32,3.35-17.71,10.51-26.6-7.02,4.17-9.99,7.45-13.4,14.8l-3.16-1.18c-19.7,27.01,18.55,59.78,30.89,24.11,2.07,3.48,6.52,11.26,11.15,11.76,20.84,2.26,23.51-13.32,15.8-29.37-6.05-12.59-30.17-19.86-35.31-5.89,1.62,3.92,9.88,7.62,13.87,8.88h.01ZM298.88,912.68c-4.14,4.88-10.85,10.31-10.68,16.34,3.68,4.4,9.91,2.1,15.1,1.16-.25-8.13-.21-12.56.54-20.61-3.6-4.78-4.73-5.85-9.74-9.13l-12.52-1.21c-7.92,8.5-11.48,15.58-10.97,27.47.3,7.06.41,12.5,8.35,13.61-2.33-7.15,3.7-23.37,9.37-28.38l1.12.09c-.68,2.49-1.09,2.67-2.67,4.79l1.24.63,10.87-4.76h-.01ZM493.82,311.16c-.18,4.49-.93,11.79,1.18,15.48,2.83-2.97,1.57-4.19,4.57-4.43l.76,3.62,1.03.38.13-1.41c.17-1.75.03-1.07.42-2.38l1.1,1.83,1.65,1.02,2.05-8.05c2.17,4.44,2.92,9.05,5.83,14.64.84-8.28,1-13.84,6.33-20.51l-1.33-.83c-8.8.74-14.82.77-23.71.63h-.01ZM468.78,324.13c5.18-4.28,4.94,2.51,6.05-9.19.1-1.03.19-2.06.28-3.09l-20.63-.7c1.07,2.15,5.4,10.11,7.09,11.2,1-2.2,1.21-2.99,1.85-5.34h1.19c1.02,2.13,2.48,5.92,4.17,7.12ZM308.77,928.85l-.62.67c-4.6,4.85-6.67,4.5-9.87,9.95l.27,2.03c3.02,1.92,8.42,1.99,11.89,1.41,4.89-2.18,10.11-4.8,9.04-10.79-2.45-2.7-7.17-3.15-10.71-3.26h0ZM661.79,944.59c4.49-.91,7.29-1.19,11.35-3.37l1.05-1.8c-.32-.89-10.11-10.42-11.21-11.2-5.13,2.01-11.69,3.25-15.34,5.59l-.53,1.68c2.91,3.68,10.43,7.34,14.69,9.11h0ZM646.58,874.95c-3.95-.38-7.95-.22-11.92-.28-26.04-.35-52.1.56-78.13.34l-235.54-.87-11.98,11.81c12.1.58,27.91.17,40.21.18l77.12.08,235.25.08c-.73-44.5-.29-91.29-.38-135.98l-.33-268.13c-.02-39.49.76-80.52.09-119.87-1.93-2.34-2.14-1.6-6.27-2.13l-54.75.7c-9.01.06-32.08-.36-40.34,1.48,28.75,2.75,68.15-.97,95.74,1.67-1.84,3.39-7.6,11.28-10.05,14.9-.38,33.09-.43,66.18-.18,99.28l.13,197.57.13,121.92c.05,24.83-.59,52.76,1.21,77.23v.02ZM269.11,938.41c-.97-7.8-2.2-14.77-.9-22.6,1.41-8.46,15.62-17.55,2.98-23.39-3.23,3.05-6.07,5.78-6.59,10.4,1.86,1.24.88.71,2.95,1.59.11,8.29-6.84,23.92,1.57,33.99h-.01ZM449.29,320.08c.63,2.94.63,4.22,2.63,6.49,1.39-1.89.86-.83.92-3.55,1.22-7.4,1-9.38-5.58-12.84-.16.84-.42,2.67-.76,3.34-7.02,3.37-15.45,7.18-9.53,16.05,2.15,2.07,3.45,3.82,6.3,4.44,2.38-1.16,1.29-.38,2.8-3.19,2.01-2.48,2.55-7.4,3.22-10.73h0ZM686.12,916.37c5.77,9.7,1.38,19.35-2.84,28.77l.7.43c4.94-6.1,7.89-13.47,7.62-21.4-.29-8.59-7.8-13.48-8.73-17.41,2.81-2.04,2.57-1.98,6.01-2.14,6.23,2.07,8.57,8.17,11.53,13.93.18-4.81,0-4.81-1.35-9.4-.54-1.88-1.08-3.76-1.63-5.63,2.06-2.21,2.61-2.57,4.96-4.33l.3-1.98c-1.96-2.34-1.83-2.19-4.6-3.5-3.15,1.57-4.38,1.63-6.25,4.23l1.09,2.78c-9.53-3.07-7.26-2.54-17.38.02-6.05,5.6-7.96,9.83-3.97,18.04l-.23-.57c-2.69-1-4.13-3.37-5.98-5.6-.03,7.64-1.46,20.19,9.99,20.12,4.22-3.63,2.29-10.02,6.13-13.65,1.87.5.96.1,2.7,1.29l.27-.59c-3.11-4.33-4.04-5.32-7.99-8.91l1.18-.61c4.07,1.75,5.21,3,8.49,6.12h-.02ZM285.92,316.74c1.26,8.11,8.51,11.69,16.11,11.46,1.05-3.5,1.64-4.42.65-7.96-4.5-5.47-10.08-4.03-16.76-3.49h0ZM481.95,292.05c-2.74.74-4.38,3.55-3.67,6.31.71,2.75,3.51,4.42,6.27,3.73,2.8-.7,4.48-3.54,3.76-6.33-.72-2.79-3.58-4.45-6.37-3.71h.01ZM299.89,296.27c-2.61,1.58-4.42,2.35-6.17,4.85,5.4-.66,7.59-2.37,13.46-3.2,2.77.27,5.49.87,8.02-.06-4.83-2.49-10.14-2.04-15.31-1.6h0ZM484.79,358.84c1.28,3.47,2.15,9.1,5.66,10.07-1.06-4.75-1.28-7.33-5.66-10.07ZM630.92,327.09c1.45,5.26,2.74,9.97,7.55,13.22,4.04,2.71,9.04,3.58,13.75,2.37,23.5-5.8-3.24-40.51-10.35-14.55-.56,2.03,1.18,3.49,2.35,4.61,4.1.82,2.32,1.14,5.67-.16,2.67-3.77.71-5.43,2.24-9.32,3.01,2.24,4.01,3.97,3.63,7.73-5.76,10.49-17.96,3.99-21.91-5.69.35-3.99,1.72-13.55,1.26-16.42-2.09,6.35-3.92,11.41-4.2,18.2h.01ZM659.41,317.34c6.36-4.5,8.41-3.63,14.43-6.75,3.19-6.59-9.3-10.81-14.84-10.52-10.63,2.18-24.87,10.08-19.65,22.97,3.62-3.59,5.87-6.45,10.79-7.95,3.09.77,6.17,1.52,9.27,2.25h0ZM292.92,944.62c6.89,4.06,13.15,7.98,21.19,4.13-11.92.06-12.27-2.56-21.19-4.13ZM654.21,294.49l-1.41,1.24c6.22,1.26,9.27-.28,15.31,1.77l1.02-.12c-5.6-4.09-7.86-3.26-14.92-2.89h0ZM479.95,311.26c-3.96,4.01-3.41,24.33-.41,29.58,2.37,2,2.83,1.84,5.84,2.49,2.28-1.93,3.94-3.32,4.09-6.49.3-6.61,1.83-19.44-.75-25.23-3.14-1.21-5.38-.66-8.76-.35h0ZM310.03,924.14c1.11-4.2,1.89-9.94,6-11.93,10.74-5.17,13.56,8.26,13.19,15.58-3.37,7.26-9,13.8-14.15,19.96,6.71,2.83,18.95-12.29,20.65-18.47,4.21-15.34-4.63-26.48-20.55-25.47-5.07,5.35-7.71,7.12-7.88,15.13-.19,9.35,9.94,10.73,15.67,5.95.97-3.28,1.1-3.17.34-6.7-1.93-2.46-.71-1.7-3.83-2.29-5.01,1.6-5.97,3.9-9.45,8.24h0ZM661.52,912.13c-5.37-5.32-7.77-8.5-16-7.19-6.43,3.84-9.87,5.72-11.98,13.5-3.34,12.33,6.01,24.25,17.16,28.17-11.77-10-15.41-15.19-11.38-31.07,5.7-7.57,17.86-8.2,16.87,3.08l-1.5.63c-2.61-1.09-6-2.93-8.59-2.54-2.67,3.21-2.58,10.22,1.45,11.32,12.08,3.31,14.16-6.39,13.97-15.91h0ZM268.15,343.08c1.01,2.44.47,3.34-.24,5.9l-.26.9c1.56,4.64,6.72,7,11.36,6.74l.99-1.38c-1.18-8.04-4.99-9.69-10.67-15.26l-.49-1.08c-2.43-5.42-3.33-8.79-4.94-14.5-1.19,5.9,1.41,13.54,4.25,18.67h0ZM679.77,297.43c3.82,7.15,8.4,15.54,6.09,23.83-1.51,5.41-6.89,9.67-12.38,10.3l-1.48-.85c-.79-3.23-.93-1.75-.04-4.6,3.48-3.06,4.36-2.81,5.5-6.52-3.93-5.6-14.62-2.64-14.54,4.52.05,4.27,5.84,8.74,4.9,10.54l-3.27-.45-.72,1.07c3.48,14.61,17.22,9.92,22.25,15.61-.11,4.83-.68,3.08,1.67,7.08,4.6,2.37,9.43-2.81,8.86-7.48l-1.02.37c-4.03,1.16-2.44,1.52-5.35.3-.51-4.28,6.65-13.76,8.19-18.41,2.01-6.09.3-19.54-3.95-24.22-2.78,5.49,9.09,28.68-7.41,33.48-2.69.78-5.99,1.49-8.63.46-.23-1.86.92-4.42,2.34-5.34,11.79-7.65,12.43-33.73-1-39.7h-.01Z"/>
  <path class="st0" d="M550.15,392.04c19.6-1.4,55.38-.34,75.89-.41-.51,54.66.66,111.55.7,166.49l.23,294.08-212.13-.11c-19.98-.64-52.85-.96-72.54-.38l-1.77-459.4c31.53.63,64.2,0,95.82.05,37.93.4,75.86.29,113.79-.33h.01ZM621.37,849.11l1.96-.45c2.45-5.57.71-336.5.6-370.93l-.35-49.72c-.13-9.28-.85-24.99.37-33.73l-181.32.19c-32.23.09-67.4,1.01-99.34.15l1.27,357.25c.07,12.68-.92,90.38.78,95.9,5.26,3.32,247.38.3,276.04,1.34h-.01Z"/>
  <path class="st0" d="M394.37,399.42c5.41-.37,17.55.2,23.51.23l49.59.13,150.99-.51c-1.38,13.44-.54,38.51-.4,52.77l.33,80.04.76,311.52c-11.46.65-25.44.45-37.11.57-76.23-1.69-156.81-.12-233.39-.41l-.7-444.03,46.41-.32h0ZM354.35,405.06l.97,303.31.06,87.22c.01,10.13.58,35.48-.56,44.76,15.17.43,30.77-.37,46.1-.25l149.71.75c20.33.05,45.1.79,65.01.03l-.59-280.76-.26-98.45c-.05-18.33-.51-38.7.13-56.84-14.14.59-27.3.02-41.29.13-24.87.75-51.52.93-76.4.36-47.17-1.07-95.91,1.69-142.88-.25h0Z"/>
  <path class="st0" d="M380.45,630.69c16.49-.1,32.97-.08,49.46.05,4.12,3.14,6.22,5.79,9.64,9.63,1.51,19.56.91,43.9.86,63.82-2.9,2.99-6.88,6.26-10.07,9.06-16.8.13-33.6.06-50.39-.22-4.64-4.04-6.02-5.22-9.84-10.14v-61.47c3.14-4.06,6.64-7.16,10.35-10.72h-.01ZM373.02,642.23l-.07,61.21c6.43-3.5,10-7.64,15.41-12.51l24.12-.2c2.95.04,5.58.51,7.91-1.05.37-13.01-.53-27.36.61-39.97,2.31-2.71,9.68-10.5,10.63-12.84-3.66-5.57-41.38-3.41-49.92-3.35-4.42,3.04-5.45,4.62-8.69,8.71h0Z"/>
  <path class="st0" d="M547.36,734.67c15.26,1.06,28.3-1.32,44.7.8,3.69,3.55,6.01,6.62,9.18,10.58,1.15,16.83.45,43.35.34,60.88l-1.01,1.15c-3.17,3.6-6.81,8.51-11.56,8.82-15.78.37-32.07.12-47.89.06-3.11-2.72-6.56-6.15-9.61-9.03-.17-21.2-.21-42.4-.15-63.6,5.96-6.37,7.37-8.9,16-9.65h0ZM534.1,745.46c-.01,19.65-.58,43.49.17,62.84,4.61-4.23,10.4-9.87,15.09-13.8l25.75-.07c3.06-.07,4.1.45,6.15-.98,1.67-12.3-.6-27.4,1.06-40.74,2.78-2.72,9.92-9.03,10.57-12.18-5.6-4.44-40.97-2.34-50.76-2.47-2.56,2.3-5.69,4.96-8.02,7.41h-.01Z"/>
  <path class="st0" d="M460.57,630.69c16.38-.18,32.76-.15,49.13.07,4.98,3.78,6.24,5.25,10.36,9.88,1.81,15.53.63,47.05.18,63.22-2.78,3.3-5.99,6.2-9.12,9.18-16.84.24-33.68.19-50.52-.13-3.08-2.29-6.87-5.99-9.78-8.66-.53-19.72-.48-44.22.11-63.86,3.15-4.06,5.85-6.28,9.63-9.7h.01ZM453.99,641.16c-.25,16.5-1.16,47.51.02,63.07,4.98-4.33,9.87-8.77,14.65-13.3l25.85-.14c3.24-.12,4.05.44,6.24-1.12,1.89-8.37.54-30.91.85-40.84,3.17-3.2,8.29-7.74,10.1-11.6-2.8-5.95-43.45-3.8-50.47-3.77-2.25,2.35-5.2,5.27-7.23,7.71h0Z"/>
  <path class="st0" d="M461.24,734.68c15.37-.3,34.84-.64,50,.56,4.35,4.1,5.42,5.2,9.01,10.07.2,20.67.64,41.72-.06,62.35-3.72,4.09-5.23,5.65-9.62,9.22-16.57.2-33.4.58-49.94-.04l-10.11-8.91c-.23-21.39-.17-42.79.18-64.17,3.78-4.08,5.85-6.07,10.53-9.07h0ZM453.64,745.22c-.08,19.91-.69,43.55.02,63.16,5.01-4.63,10.05-9.22,15.15-13.76,8.26-.09,16.51-.11,24.77-.06,3.19-.07,5.04.52,7.15-.99,1.44-11.12.51-29.26.99-41.1,3.23-3.25,8.18-7.64,10.17-11.53-2.38-4.47-41.91-3.44-49.47-3.72-4.18,3.13-5.29,4.12-8.78,7.99h0Z"/>
  <path class="st0" d="M381.65,734.48c16.01.09,32.01.32,48.02.69,3.82,3.31,6.48,6.23,9.91,9.9.92,15.99,1.39,48.1.39,63.35l-9.5,8.46c-16.85.36-33.7.35-50.54-.01l-9.89-9.47c-.22-20.9-.15-41.81.19-62.72,3.65-3.97,6.99-7.1,11.42-10.2h0ZM372.9,745.31v62.2c3.57-3.06,11.98-10.61,15.55-12.93l27.3-.11,3.67-.4c2.54-4.31.72-32.51,1.55-40.84,2.79-2.89,9.72-9.29,10.28-12.58-4.77-4.42-40.49-3.24-49.35-3.33-3.57,2.89-5.81,4.61-9,8h0Z"/>
  <path class="st0" d="M379.86,528.66c12.91-.95,36.49-.07,50.12.07,4.15,4.03,6.55,6.26,9.66,11.25.64,19.89.44,41.96.24,61.87-3,2.97-6.8,6.07-10.05,8.85-16.5.59-33.02.46-49.52-.39-3.38-2.76-7.12-6.65-10.29-9.77-.81-19.72-.32-42.16.12-61.98,2.91-3.15,6.66-6.79,9.72-9.9h0ZM388.08,588.01c8.1-.2,16.2-.26,24.31-.2,2.75.02,5.65.45,7.84-.94,1.27-11.57-.36-27.24.36-39.88,2.84-2.86,10.03-9.33,10.77-12.51-4.45-4.86-41.58-3.12-50.11-3.08-3.35,2.89-5.6,4.6-8.33,8.14,0,11.13-.85,51.22.37,58.7l1.26,1.04c4.9-2.53,9.09-7.66,13.54-11.28h0Z"/>
  <path class="st0" d="M540.99,426.07c16.64,0,33.28.21,49.91.62,3.52,3.19,6.84,6.69,10.17,10.09.6,20.85.39,40.94.42,61.77-3.97,4.48-5.19,5.71-9.9,9.51-15.54.64-33.71.2-49.44.2-3.73-2.42-7.51-5.94-10.91-8.89l-.07-63.74c3.05-3.4,6.48-6.44,9.83-9.56h0ZM534.03,436.37v62.25c5.59-3.85,10.06-8.43,14.95-13.11,8.39-.22,16.8-.31,25.2-.24,3.33-.09,5.03.5,7.2-1.09.43-12.18-.57-28.53.64-39.69,3.79-4.36,7.01-7.73,11.08-11.82-3.05-5.05-42.6-3.83-50.35-3.91-3.93,2.67-5.36,4.21-8.73,7.62h0Z"/>
  <path class="st0" d="M541.1,528.7c13.84-.95,35.96-.12,50.08.07,4.13,3.94,6.14,6.45,9.71,10.87.53,20,.51,40.67.76,60.74-2.91,3.28-6.76,6.78-9.95,9.87-16.05.59-33.7.65-49.75.71-3.3-2.57-7.55-6.76-10.71-9.68.14-21.13-.29-42.54.15-63.6,3.07-3.46,6.21-5.97,9.71-8.97h0ZM534.01,539.29c.01,6.86-.56,58.18,1.07,60.4,3.83-1.33,10.96-8.66,14.32-11.82l25.71-.13,5.51-.27c1.61-3.91.43-32.56,1.59-40.96,2.66-2.59,10.18-9.16,10.78-11.93-4.73-5.14-41.93-3.07-50.8-3.03l-8.18,7.74h0Z"/>
  <path class="st0" d="M460.43,528.62c16.88-.2,33.76-.18,50.65.02,4.5,4.48,5.58,5.88,9.14,11.11.43,19.09,1.33,42.56.1,61.35-3.83,4.19-5.46,5.68-9.76,9.27-13.55.7-36.93.86-50.06,0-3.21-2.56-6.94-6.29-9.99-9.16l.19-63.35c3.98-4.56,4.97-5.46,9.74-9.25h0ZM468.8,587.84c8.45,0,17.29-.15,25.7.04,3.14-.08,4.53.45,6.74-.98,1.02-11.54.07-27.71.33-39.69l.58-.77c3.13-4.08,7.75-7.92,9.67-11.63-2.33-5.49-43.78-3.4-50.67-3.36l-7.6,7.84c0,11.54-.77,49.83.57,59.17l1,.86c3.92-1.76,9.97-8.12,13.68-11.47h0Z"/>
  <path class="st0" d="M388.48,426.27c13.73.38,27.23-.16,41.17.39,4.63,4.1,5.87,5.22,9.69,10.22,1.28,18.96.61,43.18.49,62.53-.79.86-1.6,1.69-2.42,2.53-5.72,5.75-6.93,6.32-14.93,6.39l-42.4-.09c-4.4-3.47-6.5-5.81-10.25-9.83.48-20.1.14-41.21-.03-61.38,6.73-7.56,8.07-10.76,18.69-10.76h-.01ZM381.38,429.26c-3.86,3.18-5.45,4.33-8.46,8.42-.03,10.84-.74,50.71.43,59.46,2.95-.44,3.3-1.07,5.69-2.88l8.87-8.51c10.25-.9,22.32-.48,32.74-.39-.36-13.09-.75-27.73-.17-40.82,3.48-3.39,8.17-7.32,10.26-11.5-.46-4.04-3.64-3.87-7.43-4.03-14.06.46-27.87.33-41.94.25h.01Z"/>
  <path class="st0" d="M461.98,426.06c15.7-.18,32.75.45,48.54.74,3.46,3.17,6.43,6.47,9.62,9.9,1.16,18.11.41,43.38.23,61.96-3.34,4.01-5.93,7.24-10.8,9.14-11.35.6-39.29.95-49.86-.56l-8.87-7.57c-.24-21.04-.25-42.08-.03-63.13,3.36-4.49,6.22-7.83,11.18-10.5v.02ZM453.39,436.65c.2,20.66.27,41.32.21,61.98,5.79-4.54,8.96-7.4,14.22-12.55,8.06-1.21,19.24-.89,27.61-.74,3.47-.16,3.61.45,5.72-1.33,1.18-11.77-.17-27.32.2-39.77,3.08-3.08,8.27-7.77,10.27-11.35-2.55-5.41-41.6-3.71-49.4-4.2l-8.83,7.96h0Z"/>
  <path class="st0" d="M541.46,630.51c16.36.02,33.57-.25,49.86.13,6.44,5.74,10.47,10.28,10.34,19.88-.23,16.51.67,36.77-.22,52.98-3.5,3.91-5.39,5.94-9.48,9.45-16.72.32-33.46.4-50.19.21-4.95-3.37-6.58-5.45-10.5-9.79l3.14.24c2.89-1.4,12.17-10.06,15.11-12.67,10.53-.18,21.39-.08,31.96-.11-.05-13.74-.26-27.67.28-41.39,2.84-3.41,10.22-9.7,10.83-13.11-5.48-4.98-40.43-2.89-50.06-2.76-2.83,1.88-5.98,4.64-8.64,6.84l.29,31.08-2.85.61c-.05-4.11-.09-8.81-.19-12.9-.37-15.1-1.91-19.53,10.34-28.7h-.02Z"/>
  <path class="st0" d="M531.32,672.11l2.85-.61c-.07,10.02-.47,22.28.24,32.11l-3.14-.24c.55-8.04.07-22.79.05-31.26h0Z"/>
  <path class="st0" d="M276.08,332.49c3.87.77,9.63,5,13.11,7.36l.02,1.79c-5.03,1.03-7.79,1.54-11.9-1.81-2.03-4.03-1.49-2.46-1.23-7.34h0Z"/>
  <path class="st0" d="M282.06,903.53c2.6.41,3.74.26,5.66,1.96-.88,2.87-2.29,3.18-5.09,5.49l-1.88,3.97-1.2.26c-.98-4.8.21-7.61,2.51-11.69h0Z"/>
  <path class="st0" d="M479.95,311.26c3.38-.31,5.62-.86,8.76.35,2.59,5.79,1.06,18.62.75,25.23-.15,3.17-1.81,4.56-4.09,6.49-3-.65-3.46-.49-5.84-2.49-3-5.25-3.56-25.57.41-29.58h0Z"/>
  <path class="st0" d="M483.25,322.16l2.3.83c3.78,3.64,3.83,12.74,1.14,17.16-2.72-.53-2.72-.39-5.04-1.82-2.72-5.1-.09-10.42,1.6-16.17h0Z"/>
  <path class="st0" d="M655.35,364.04c-27.59-2.64-66.99,1.08-95.74-1.67,8.26-1.83,31.33-1.42,40.34-1.48l54.75-.7.65,3.85h0Z"/>
  <path class="st0" d="M271.18,892.43c12.65,5.84-1.57,14.93-2.98,23.39-1.3,7.83-.07,14.8.9,22.6-8.4-10.07-1.45-25.7-1.57-33.99-2.07-.88-1.08-.35-2.95-1.59.52-4.61,3.36-7.35,6.59-10.4h.01Z"/>
  <path class="st0" d="M323.08,317.51c4.97,4.22,9.17,9.74,4.19,16.07-1.52,1.97-3.83,3.18-6.32,3.3-7.62.32-13.17-8.25-5.42-14.56,1.51.65-.77,6.17,2.1,9.22,3.24,1.02,1.65.99,4.95.08,4.85-4.79,2.68-7.96-.92-12.45l1.42-1.65h0Z"/>
  <path class="st0" d="M299.9,296.27c5.18-.45,10.48-.89,15.31,1.6-2.53.93-5.25.33-8.03.06-5.87.82-8.06,2.54-13.45,3.2,1.75-2.51,3.55-3.28,6.17-4.85h0Z"/>
  <path class="st0" d="M446.5,313.52c.34-.67.6-2.49.76-3.34,2.75,4.33,3.56,5.22,4.83,9.99l.46,1.69c.1.39.19.77.29,1.16-.06,2.72.46,1.66-.92,3.55-1.99-2.27-1.99-3.55-2.63-6.49l-2.79-6.57h0Z"/>
  <path class="st0" d="M436.97,329.57l.56-5.83c.62.22,4.23,5.01,8.54,7.07-1.51,2.81-.41,2.03-2.8,3.19-2.85-.61-4.15-2.37-6.3-4.44h0Z"/>
  <path class="st0" d="M274,308.01l3.16,1.18c-.4,1.62-2.67,14.56-2.71,15.87l-.55.02c-.61-7.27.09-10.19.09-17.07h0Z"/>
  <path class="st0" d="M630.92,327.09c.28-6.79,2.1-11.85,4.2-18.2.46,2.87-.91,12.43-1.26,16.42l-2.94,1.79h0Z"/>
  <path class="st0" d="M310.41,317.5c5.18-2.37,7.41-2.4,12.67,0l-1.42,1.65c-4.66-1.15-6.53-.71-11.23.99l-.02-2.65h0Z"/>
  <path class="st0" d="M268.15,343.08c-2.84-5.14-5.44-12.78-4.25-18.67,1.61,5.71,2.51,9.07,4.94,14.5l.49,1.08-1.19,3.1h.01Z"/>
  <path class="st0" d="M292.92,944.62c8.92,1.58,9.26,4.2,21.19,4.13-8.04,3.84-14.3-.07-21.19-4.13Z"/>
  <path class="st0" d="M654.21,294.49c7.06-.37,9.32-1.2,14.92,2.89l-1.02.12c-6.04-2.05-9.09-.52-15.31-1.77l1.41-1.24h0Z"/>
  <path class="st0" d="M447.26,310.18c6.58,3.46,6.79,5.44,5.58,12.84-.1-.39-.19-.77-.29-1.16l-.46-1.69c-1.27-4.78-2.09-5.66-4.83-9.99Z"/>
  <path class="st0" d="M484.79,358.84c4.38,2.74,4.6,5.32,5.66,10.07-3.51-.97-4.38-6.6-5.66-10.07Z"/>
  <path class="st0" d="M467.84,61.43c-12.99-17.54-18.4-36.73,5.35-47.27,1.31-1.08,6.31-1.58,7.81-1.58h3.5c.5,0,5.41.76,5.29,1.12.28.05.56.1.83.15l1.39.28c10.74,2.05,16.54,8.65,17.26,19.94.74,11.52-3.54,18.8-10.84,27.15-3.94.34-7.2.22-10.61,2.07-2.23,2.65-2.28,6.22-2.79,9.76,6.46-.95,14.66,1.95,17.44.73-.93-.77-5.81-2.9-7.6-3.86l.15-1.46c8.73-5.23,14.61,6.87,10.12,13.53-3.46,2.35-6.69.56-11.13,1.59l-.73,1.7c4.82,15.11,28.6,6.96,27.96-.82-3.96-1.87-3.73,1.55-8.23-.1l-.36-2.74c4.2-10.46,9.25-6.05,15.46-6.32.5-2.8-.32-7.21-.7-10.17-8.29-5.4-11.87-7.44-13.65-18.05-3.46-20.55,7.67-28.71,25.11-31.95l-.71-12.85,1.01-.81c3.17.95,5.96,4.1,8.77,6.5,2.14-.83,2.5-3.1,3.86-5.88h1.19l1.74,2.56c.07,1.98.11,2.67.37,4.66,3.46.95,7.07-.2,10.67-.92-3.81,5.79-5.52,7.3-10.46,12.11,2.05,3.7,4.33,7.11,6.62,10.66l15.32.06,1.44-12.32.87-.67c4.11,1.76,2.97,5.76,6.79,7.11,2.02-1.8,2.36-2.26,4.79-3.55l1.12.81.17,4.17c4.43,4.06,1.06-.86,6.34,1.97-.88,3.25-6.56,8.64-9.15,11.43,5.63,8.71,4.79,21.48-1.99,29.52-6.4,7.58-11.91,7.95-21.11,8.62-5.67,13.99-2.49,13.44-12.33,26.75,13.01,13.9,1.4,9.1-.8,18.35,2.55,2.1,5.35,3.83,6.28,6.86-.95,3.57-1.06,2.65-3.97,5.64-5.12,5.25,4.33,6.46,4.31,12.53,0,4.18-3.75,6.78-6.98,9.5.14,4.19,1.08,8.96-2.37,11.77l-1.35-1.07c-1.53-3.94-.83-6.74-.42-11-5.9,1.34-26.31,3.61-28.66,5.58-1.57,5.06,1.27,5.98,1.11,9.94-.1,2.72-2.21,1.02-.81,6.87,2.19.73,3.25.84,4.88,2.43-4.92,4.33-3.76,4.28-7.2,9.06l-1.37-.56c-.32-2.79-.16-2.98-1.37-5.45-2.25-.61-2.37-.66-4.44-1.76l.17-1.78c2.83-1.01,1.95-.38,4.08-2.3-.21-6.66.85-9.52.29-16.08l-.11-1.2c-10.35.39-20.72.52-31.08.4-.35,7.9,3.27,16.9-.52,21.76-.26,4.7,4.42,9.31,7.49,13.02.86,4.9,1.07,9.67,1.4,14.63,2.55,2.96,4.96,5.41,5.55,9.22l-1.08,1.23c-3.42.41-5.41.28-8.14,2.34-2.84,5.7-6.76,8.85-12.2,1.85-4.22-5.43-5.17-2.38-10.95-4.29l-.36-1.48c1.82-4.35,2.85-5.09,6.09-8.7.06-1.96.26-10.86.84-12.14,2.7-5.87,8.23-8.49,8.24-16.09-2.84-4.08-3.28-3.58-2.68-7.39l3.19-1.35.22-1.7-2.59-2.09c.34-2.67.58-4.58.66-7.3-2.96-2.27-25.45-3.29-29.87-.18-1.6,3.51-1.22,1.66-.8,5.79,4.58,6.11-1.19,4.95.65,10.47,1.19,3.57,1.37-2.43,3.63,3.02l-4.75,7.65-1.4.12c-.81-1.77-1.39-3.58-1.95-5.45-1.91-.76-3.08-1.32-4.91-2.26l.38-1.3,5.07-2.04.68-1.86c-.53-3.52-.49-2.5-3.61-5.61l.14-1.5c2.21-.37,1.47,0,3.25-1.23.15-3.49.26-3.26-1.53-6.24-5.51-4.3-19.5-4.39-27.77-5.6-.94,8.46-.72,13.45.71,21.73.52,3-2.28,3.35-2.49,7.45,2.15,3.67,5.15,5.88,8.35,8.73.6,5.84,1.23,11.68,1.91,17.51,2.47,3.07,6.17,5.45,3.61,9.09-3.36.69-5.21.8-8.12,2.68-2.59,4.54-2.28,5.74-7.49,5.88-7.74-2.97-.58-7.25-13.71-7.62l-1.21-1.42c4.13-12.34,4.67-13.48,6.49-25.88,2.69-2.83,7.84-7.74,8.05-11.64-7.43-9.24,1.29-7.28,1.86-14.53l-2.48-2.25c-1.23-2.87.02-7.23.58-10.53-10.44-6.69-11.55-10.95-.55-18.13-3.19-2.7-5.59-3.67-7.14-7.67,1-3.29,1.21-2.53,4.75-5.07,1.47-3.05,1.29-1.49.42-4.85-2.58-2.39-4.66-3.8-5.82-7.08.14-3.16,3.04-6.17,5.06-8.86-.14-4.43-3.77-3.24-5.36-8.77.69-2.42,1.05-2.42.79-4.66-2.48.1-3.22.27-5.66-.26,2.98-8.31,2.75-6.39-1.57-14.37-22.04-2.02-30.98-16.53-22.72-37.24-3.27-2.16-12.22-6.83-13.45-7.94,1.6-2.48,3.72-1.16,7.7-3.62-.23-2.1-.39-3.99-.53-6.09l1.26-.81c1.84.87,2.77,1.24,4.7,1.89,2.3-2.59,4.27-5.44,7.52-6.12,4.82,3.23,1.1,9.67,3.7,14.06l2.52-.07c1.4.28,5.03.91,6.2,1.29-9.41,4.27-14.66,5.91-19.04,15.56.21,5.08.07,5.78,1.79,10.43l.73-.41c-.03-3.72-.2-4.91-.83-8.6,3.29,1.22,7.79,9.07,10.34,12.74-.94-2.92-2.18-5.44-1.58-8.34,3.05,1.29,5.31,6.06,7.85,8.92-2.86-7.51-4.24-11.78-6.2-19.56,1.74,2.79,4.73,8.5,7.14,9.92l.31-1.44,3.38-.54c.12-5.4-1.57-6.51-.43-12.18,1.89,1.51,1.05.84,1.8,4.16l1.17.49c.52-3.63-.68-4.55.39-9.13l.87-1.26c2.01-4.39,4.7-9.04,7.02-13.31-3.91-2.52-7.58-5.65-11.21-8.57,4.12.03,7.72.02,11.83-.19,2.22-2.49-.34-4.9,1.9-8.77,3.25,1.6,3.45,2.8,6.09,5.98,3.68-3.84,5.3-5.14,9.49-8.39l-.94,14.04c26.7.36,34.72,23.57,21.68,44.07-5.76,3.32-8.18,4.03-14.46,6.15l4.68,8.39c5.35.75,11.23,1.88,14.13,6.79-.47,4.27-3.75,4.64-6.31,9.63l1.11,2.06c23.76,11.8,37.07-14.94,21.19-20.07-2.96.31-2.82.15-5.06,2.05,2.04,3.04,6.09,1.21,10.35,5.01-.07,4.59-4.8,6.45-8.84,6.57-9.06-4.32-6.9-15.18,2.15-17.26,3.52-.81,10.1,4.18,13.14,6.2l.25-11.2c-4.59-.14-8.17-.76-12.67-1.43h0ZM519.81,133.28c-10.23-3.33-17.1-3.07-26.15-5.5,4.4-.02,14.76.2,18.53-.62l.1-1.2-.92-.6c.14-1.55.32-1.47.99-2.97-3.76-3.24-8.84-4.53-13.59-5.56,6.68-2.46,22.13-1.37,30.3-1.36-16.33-4.13-81.55-8.91-93.47,2.44,2.3.39,2.26.22,4.55-.43,3.16,1.81,4.31,2.69,7.19,4.97l1.93-2.51,1.55-.04c1.36,2.32.92,1.05.6,4.11-4.22,7.22-15.35,9.78-22.97,11.79l-2.88.75c10.33.41,22.43-2.13,32.98-2.57,19.63-.81,41.68-1.64,61.26-.69h0ZM479.59,149.95l.59,1.64-1.27,1.04-4.76-.64-.9.98c2.42,2.84,10.08,4.07,13.69,4.18,10.83.21,53.76-.3,59.92-5.71l-.51-1.28c-12.92-6.25-57.68-5.9-72.38-1.81.96,1.27,3.48,1.22,5.61,1.59h.01ZM526.67,45.75c.89-2.96,1.4-6.26,3.61-8.14,1.62,2.42,1.16,5.43,1.08,8.57l.31,1.92c1.96-2.62,4.34-13.31,5.58-17.17.69,6.81.5,11.37.31,18.25,2.71-7.57,6.91-16.13,7.86-23.55,4.91-1.79,3.25,2.72,5.35-.87-3.94-4.82-13.58-4.95-19.36-4.57-5.32,2.34-9.17,4.06-11.4,9.77-1.58,4.06-3.52,13.18-1.15,17.08,2.25-2.68,3.01-12.24,5.1-17.83l2.72,16.54h0ZM434.61,86.49c1.3-3.63,2.73-5.68,2.07-9.02-2.64-1.53-6.17-.96-9.36-.84.87,3.77,3.46,8.51,6.37,10.92l.93-1.06h-.01ZM572.54,52.76c4.06-3.39,3.97-3.98,5.91-9.05,1.78-.4,2.78-.55,4.59-.77l.19-1.91c-3.99-4.65-13.65-6.53-19.51-7.38,1.17,4.44,1.4,5.86,3.46,9.85-.32,3.51-.9,4.9-1.98,8.3,2.77-.17,4.63-5.48,9.16-7.07.5,2.69-.86,5.32-1.83,8.03h.01ZM478.88,195.82c-2.6,4.85-3.4,8.02-2.7,13.52l1.93,2.5c3.14-3.54,3.46-12.49.77-16.01h0ZM410.09,213.04c1.44-2.04,2.08-17.31,1.11-18.23-3.78,3.91-6.06,14.8-1.11,18.23ZM418.85,76.21c3.9-1.91,7.48-3.23,10.41-6.34l-.39-1.19c-8.45-1.84-13.86-1.84-17.99-9.47-.47-.88-.7-.9-1.56-1.52l.18,1.29c.83,6.15,1.34,7.7-2.42,12.74-.96,1.26-1.95,2.49-2.99,3.69l.07,1.79c2.34,1.26,3.23,1.16,5.87,1.49l.5,1.25c-1.67,1.58-2.08,1.85-4.01,3.13l.5,1.17c3.51-.17,5.18-.95,7.4.64-.22,6.23-3.91,4.1-2.46,10.07,3.74,3.8,9.77,4.31,14.19,1.33,1.3-3.01,2.18-4.25,1.81-7.51-2.89-.8-3.06-.37-6.21.2-3.23-1.46-2.11-.33-3.67-3.27-.04-3.63.3-5.85.77-9.48h0ZM463.89,44.68c.48-5.19.75-11.93,2.75-16.61,1.96,1.79,5.45,17.38,6.47,21.13-.14-5.02-1.83-9.74,1.05-13.83l1.49.33,2.12,4.05c2.18.02,1.38-7.42,5.73-10.89,3.33,3.62,2.53,15.28,2.44,20.23,1.32-4.72,4.55-24.86,6.91-27.16l4.45.56-.42.28.29-1.08c-5.27-8-28.05-5.96-33.51,5.19-1.94,7.52-1.54,10.19.24,17.79h0ZM434.97,37.32l-2.7-6.79.62-.37,3.18,2.19.88-.75c-1.05-4.62-3.6-5.77-2.59-7.79,2.47.54,4.05.95,6.52,1.7l.21-1.2c-10.73-10.82-46.28,1.26-29.98,18l.66.1-.77-3.34.84-.35c2.95,2.72,3.26,3.05,5.46,6.37.67-2.83.49-3.41.5-6.31l.92-.35c2.67,2.47,2.81,8.92,3.22,12.68.4-3.93.67-12.78,2.86-15.08,2,1.83,1.9,1.77,3.24,4.15.26-2.41.02-4.61-.14-7.02l.93-.23c2.64,3.25,2.68,3.94,4.08,8.01.04,3.28,0,3.2.97,6.32,1.41-2.98,1.07-6.55,1.09-9.94h0ZM479.23,101.96c-14.91.79-56.32,2.58-67.39,8.96,5.17-.15,10.25-.99,15.35-1.85,20.46-3.46,41.02-4.04,61.76-3.98,21.45.33,42.94,1.44,63.89,6.57-15.07-7.17-57.09-11.29-73.6-9.7h-.01ZM555.61,61.5c-10.2,9.47-12.83,5.07-25.16,7.26l7.15,2.68c4.3,1.65,7.95,4.65,10.4,8.56.4,8.44-8.58,7.54-8.73,14.34.63,1.15,1.53,2.94,2.21,3.98,4.06.84,5.12,1.42,8.89.21,4.02-4.72-.89-7.77.56-14.02l1.03-.64,3.58,1.45,1.54-.72c-1.21-5.02-3.75-.07-2.93-4.9l3.84-.64c-.61-4.86-4.14-1.4-1.58-9.09,1.03-3.09.93-4.27.57-7.35l-1.35-1.11h-.02Z"/>
  <path class="st0" d="M479.23,101.96c16.51-1.6,58.54,2.53,73.6,9.7-20.95-5.13-42.44-6.24-63.89-6.57-20.74-.06-41.29.52-61.75,3.98-5.09.86-10.17,1.7-15.35,1.85,11.07-6.38,52.48-8.17,67.39-8.96h0Z"/>
  <path class="st0" d="M483.53,130.89c-5.57-3.56-10.18-5.79-6.49-13.05,7.14-5.82,11.11-.85,16.55,4.05l.63,1.64c-3.13,2.9-7.03,5.08-10.69,7.35h0Z"/>
  <path class="st0" d="M479.59,149.95c2.75-.48,2.82-.8,5.25.39,1.18,2.6.9,2.73.67,5.67l1.45,1.14c-3.61-.12-11.28-1.34-13.69-4.18l.9-.98,4.76.64,1.27-1.04-.59-1.64h-.02Z"/>
  <path class="st0" d="M493.6,121.9c6.56,0,12.24.02,18.77.48-.68,1.5-.85,1.43-.99,2.97l-17.15-1.81-.63-1.65h0Z"/>
  <path class="st0" d="M463.64,26.88l2.99,1.18c-2,4.68-2.27,11.42-2.75,16.61-1.78-7.61-2.18-10.27-.24-17.79Z"/>
  <path class="st0" d="M434.97,37.32c-.01,3.39.32,6.96-1.09,9.94-.98-3.12-.93-3.03-.97-6.32l2.06-3.63h0Z"/>
  <path class="st0" d="M676.88,65.99c2.64,7.42-14.14,32.1-11.87,37.47,2.83.14,5.42.15,8.25.15l1.1,1.12c-4.13,9.91-8.77,19.93-12.93,29.99-15.28,37-27.76,76.17-42.27,113.15-5.62,14.35-23.35,65.3-30.24,75.72l-.48-.54c1.18-5.88,2.61-10.46,4.49-16.15,7.06-21.43,12.98-43.3,21.24-64.3-7.33,7.49-35.69,75.11-39.25,76.5-.03-.55,4.59-17.54,5.1-19.54,7.48-20.64,17.21-45.69,23.4-66.33l-27.34,51.09c-5.56,10.48-13.64,27.62-20.45,36.91-.56-2.3,10.14-23.87,12.06-28.35,28.39-66.04,63.02-133.06,85.32-201.37,2.17,3.54,4.49,8.4,6.44,12.17,6.15-11.57,10.41-26.87,17.42-37.7h.01Z"/>
  <path class="st0" d="M274.52,62.48c8.84,10.38,14.71,27.57,19.98,40.58,1.98-4.06,4.02-8.52,6.35-12.35,4.57,19.1,14.51,38.47,22.81,56.49,10.02,22.17,20.3,44.22,30.83,66.15,14.83,31.29,28.22,62.88,43.77,93.89h-3.1c-13.31-21.19-23.33-44.38-36.03-65.58,9.19,25.11,17.76,52.97,27.09,77.21-8.08-11.52-30.89-58.83-38.22-73.74,5.75,19.68,13.35,39.62,19.76,59.12,1.6,4.87,8.74,23.76,9.07,27.45-6.51-9.61-15.25-32.86-20.04-44.51l-33.46-81.95c-10.5-25.23-21.18-50.38-32.06-75.45-3.61-8.19-8.53-15.98-11.89-24.01,2.33-1.9,7.1-1.24,10.05-.95.84.08,1.67.18,2.5.28-4.8-9.4-14.76-32.76-17.39-42.61l-.02-.02Z"/>
  <path class="st0" d="M274.19,670.59c-.12.5-.25,1-.37,1.5-20.1,12.85-55.21,30.73-73.88,42.5,15.74-4.44,33.43-12.48,49.26-17.5,5.76-1.83,10.75-4.5,16.94-6.09-12.46,12.49-53.96,26.4-70.99,38.23,14.33-5.74,29.18-10.65,43.7-15.93,12.53-4.56,22.3-9.09,35.63-11.55v.58l-.58-.63-.23,1.14c-11.95,5.98-26.78,11.7-39.28,17.07l-64.77,28.47c-29.61,12.6-58.99,26.13-88.35,38.67l-.96-.65c.75-2.26,1.53-3.85,1.26-6.2-2.98-.4-39.7,16.45-47.09,18.81,11.48-9.67,31.99-16.16,43.51-23.25-1.09-1.65-5.35-3.22-7.52-4.25,23.01-10.02,46.27-23.9,68.86-35.22,43.92-21.97,89.8-46.44,134.88-65.71h-.02Z"/>
  <path class="st0" d="M2.63,488.51c10.49,0,20.59,1.3,30.95,2.57,4.12.51,15.62,3.51,17.8,2.83-.61-2.52-3.52-5.31-5.37-7.41,54.54,7.37,110.58,10.15,165.25,17.03,19.51,2.46,48.99,4.98,67.3,9.71-25.24-.27-52.09-3.99-77.52-4.15-4.21-.02-13.95-.41-17.7.3,7.54,2.63,15.7,2.9,23.35,4.75,17.38,4.2,38.38,6.42,55.1,12.27-21.3-1.05-42.55-2.87-63.72-5.47-6.01-.61-13.94-1.78-19.77-.91l-.03.21c4.82,1.47,7.39,1.74,12.32,2.43,16.37,4.27,33.39,7.48,49.87,11.36,4.46,1.05,17.96,3.58,21.53,5.29-11.39,3.86-133.74-22.99-154.64-24.89-8.86-.81-27.38-5.54-37.71-6.78-5.84-.7-18.45-1.7-24.07-2.7l-.53-1.13c2.16-2.32,6.41-3.99,9.39-5.43-18.3-3.95-32.05-4.41-51.78-9.88h-.02Z"/>
  <path class="st0" d="M267.82,589.25c2.85-.35,3.11-.79,5.5.23-6.96,4.04-78.5,18.89-90.98,21.83,26.28.38,59.21-5.75,84.53-5.15-19.74,4.83-40.04,8.28-60.05,11.8-6.85,1.21-13.02,2.43-19.52,4.89,22.03-1.85,44.25-2.92,66.29-4.86,5.03-.44,10.83-.89,15.83-.59-8,5-96.12,13.39-111.01,15.01-36.28,4.16-75.53,9.26-111.69,12.62l-.85-.72c1.93-2.35,2.07-1.99,2.88-4.71-.96-.3-40.97,4.65-48.75,4.37,15.41-3.99,35.38-7.29,51.13-9.21-2.87-1.62-4.95-2.86-7.68-4.71.77-.99,204.16-38.17,224.36-40.81h.01Z"/>
  <path class="st0" d="M920.66,486.18l-5.33,7.19c15.67-2.02,32.35-5.05,47.96-4.66-18.49,5.33-33.58,5.42-49.77,9.69,4.46,1.94,7.89,3.38,12.16,5.78-54.76,6.05-109.11,19.63-163.72,27.51-21.31,3.07-42.65,7.88-64.16,9.06l-.32-.37c31.4-8.52,69.57-13.79,101.34-22.09-29.64,2.18-68.54,8.43-97.85,7.66,23.61-4.35,47.18-8.91,70.71-13.69,6.49-.72,11.82-2.01,18.18-3.45-4.03-.38-12.95.07-17.42.2-9.04.17-79.62,4.33-80.23,3.85,12.57-3.94,56.73-8.14,71.7-9.76,52.44-5.68,104.34-9.9,156.76-16.94v.02Z"/>
  <path class="st0" d="M690.48,666.58c6.53,1.13,54.59,25.21,63.93,29.74l93.68,45.84c5.23,2.56,45.72,21.14,46.62,23.96-1.78,1.1-3.08,1.97-4.78,3.2,1.63,3.72,26.33,12.44,31.56,15.47,4.21,2.46,7.06,4.1,11.4,7.15-10.34-2.97-39.4-15.91-44.46-16.67l-.81.84.93,4.37-.83,1.05c-2.41-.52-27.68-11.77-31.62-13.42-22.72-9.39-45.5-18.6-68.35-27.66-13.97-5.84-89.84-35.88-96.37-41.65,2.55-.93,73.55,25.69,83.63,29.08l1.14-.57c-22.37-12.7-50.62-23.77-73.92-37.86,2.6-.66,65.62,22.77,73.08,25.56-19.37-12.52-43.07-23.26-63-35.49-7.04-4.32-15.18-8.03-21.84-12.97v.03Z"/>
  <path class="st0" d="M214.61,551.31c8.02-1.42,48.31-.89,56.33.81-26.73,2.93-55.58,3.91-82.01,7.44,13.38,2.15,60.96,3.88,69.33,6.56-23.44,3.28-50.85,1.66-72.9,4.41l-.34,1.07c3.94.94,12.18.47,16.86,1.08,19.01,2.46,51.15,2.3,68.74,7.02-21.44.38-42.89.12-64.32-.79-42.7.17-88.52-4.6-131.61-4.83-4.79-.03-27.27,1.08-29.84-1.1,1.56-2.4,2.14-2.39,2.18-4.81-10.01-2.45-30.2-1.9-43.85-4.44,17.4-2.42,27.63-1.64,44.89-.03-2.9-2.57-4.52-4.5-7.08-7.44,38.25,1.26,74.63-.68,112.77-2.64,20.16-1.04,41.07-1.11,60.85-2.31h0Z"/>
  <path class="st0" d="M697.71,551.33c18.12-2.66,69.36.54,88.91,1.43,46.63,2.1,89.46,4.57,136.38,3.34.9,2.13-1.44,1.93-2.89,6.09,8.28,1.12,30.65-.77,43.89.25-12.19,3.17-33.8,3.74-46.8,4.41,2.76,2.46,6.12,5.08,9.02,7.45-42.02-.68-94.92,2.36-138.01,4-22.9,1.87-68.74,1.68-91.94,1.08,20.77-3.77,50.52-4.25,72.1-6.29,6.03-.58,22.01-.45,26.78-1.44-2.69-1.68-85.51-5.08-97.38-6.14,27.49-2.73,62.51-3.77,90.39-4.61-25.91-5.43-62.71-5.12-90.46-9.56h.01Z"/>
  <path class="st0" d="M941.02,411.19l.56.1.59.95c-6.44,3.66-30.96,10.56-39.06,12.96,2.46,1.49,6.26,3.26,7.21,5.69-2.62,1.73-35.88,11.58-41.94,13.62l-108.59,37.49c-16.96,5.67-45.7,15.97-63.11,17.86,4.19-2.26,16.67-6,21.87-8.17,21.39-8.91,46.47-16.42,67.5-25.52-24.32,5.15-48.87,11.34-73.33,16.69-6.47,1.06-13.95,3.26-19.74,4.12,2.83-3.47,70.96-24.68,80.91-27.85-6.18-3.58-77.46,16.46-81.76,12.38,12.54-4.95,48.45-12.25,63.12-16.23,31.13-8.45,63.15-16.36,94.43-24.54,15.77-4.12,34.42-7.91,49.3-14.17,3.54-1.49,2.44-1.63,6.65-2.45l.89.93-1.83,4.01.57,1.15c2.7.23,30.43-7.73,35.76-9v-.02Z"/>
  <path class="st0" d="M693,589.33c23.72,1.03,51.98,6.75,75.63,10.78,50.67,8.63,101.37,19.93,152.29,26.95l.6.84c-1.39,1.72-2.34,2.81-3.51,4.7,3.14,2.11,28.55,4.89,35.73,6.68-3.01,1.79-5.08,1.51-8.59,1.65-5.47-.12-26.17-3.58-28.51-2.68,1.92,2.37,1.98,1.97,2.96,4.72-5.23,2.79-185.17-20.66-201.8-21.95-2.7-.21-12.4-1.6-14.52-3.47,3.17-1.05,55.52,3.55,63.36,4.14,7.97,1.14,16.36,1.36,24.43,1.76-5.73-1.96-12.02-2.84-18-3.85-11.4-4.45-50.09-8.41-65.29-12.73l.2-.56c4.09-.02,8.16.12,12.24.51,19.35,1.86,38.8,2.43,58.14,4.37,3.09.37,6.72,1.18,9.51.14-2.14-2.02-4.39-1.98-7.7-2.84-26.4-7.31-60.96-11.13-87.17-19.16h0Z"/>
  <path class="st0" d="M22.89,411.2c13.06-.3,30.35,8.77,40.38,9.59l.69-.78c-1.09-2.05-1.53-2.64-2.13-4.86,4.34-.19,19.55,6.61,25.22,8.03,43,10.8,86.52,21,129.27,32.59,13.32,3.61,54.22,12.36,65.25,19.02l-55.94-11.59c-10.33-2.11-23.08-5.09-33.39-6.33,17.54,8.11,42,15.06,60.45,22.15,6.26,2.41,13.68,4.07,19.64,6.6l-1.54.4c-27.93-5.89-55.28-12.74-83.03-18.7,14.07,7.66,44.73,16.75,60.47,24.12,5.14,2.4,13.4,4.48,17.77,7.71-2.68.32-204.51-65.57-208.71-68.67.69-2.6,2.94-3.78,5.19-5.54-10.16-3.94-30.91-8.99-39.59-13.75h0Z"/>
  <path class="st0" d="M268.61,629.75l1.15.66c-8.86,5.45-43.03,16.73-54.4,22.16-3.95,1.89-12.16,3.98-15.43,6.6,6.01,1.04,49.64-12.18,62.45-11.53-7.62,2.54-62.23,21.72-64.92,23.94,7.01-.16,12.09-2.56,18.16-3.37,17.68-2.39,37.34-8.87,54.39-11.73l.78.71c-15.48,6.06-28.2,8.91-43.77,13.48-25.99,7.62-51.31,13.74-77.63,20.13l-89.73,23.28c-2.91-1.81,1.5-2.51.41-6.13-9.02.91-28.8,7.3-40.89,9.49,11.78-6.96,26.64-8.76,39.57-13.98l.03-1.04-3.95-2.2-.08-1.14c8.02-3.71,21.96-6.61,30.94-9.4,61.15-18.91,121.2-43.07,182.91-59.94h0Z"/>
  <path class="st0" d="M684.97,430.58c20.8-10.53,42.87-18.89,64.43-27.88,47.42-19.77,90.82-38.23,137-60.82,1.63,2.97-2.44,5.39-.08,7.43,10.16-2.42,24.9-12.36,40.17-16.5-14.61,11.15-29.39,14.83-43.97,23.39,4.85.99,9.9,1.92,14.69,3.17-23.52,9.43-43.31,20.11-65.89,31.53-41.79,21.13-82.22,43.46-124.86,62.8l-.26-2.24c23.53-14.05,50.93-27.25,73.38-41.56-21.85,7.46-42.14,17.58-64.33,23.82-5.52,1.55-8.21,4.01-14.86,4.89l-1.03-.59c24.6-12.52,50.9-24.96,75.86-37.51-21.47,5-43.77,14.56-64.76,21.55-7.41,2.47-18.13,7.12-25.49,8.52h0Z"/>
  <path class="st0" d="M40.67,334.11c13.15.74,27.93,13.05,39.84,14.59l.47-.93-1.9-5.52.82-.41c54.69,27.88,112.8,48.22,168.83,73.25,8.7,3.89,17.95,7.53,26.36,11.92l-.1.6c-4.66-.32-9.29-2.98-13.84-4.42-23.7-7.49-47.24-18.36-71.03-25.22,22.47,15.04,56.49,27.92,79.29,42.08-1.95.32-5.6-1.41-7.81-2.21-24.89-9.31-50.56-18.49-74.76-29.32,6.79,5.56,14.57,8.38,21.42,13,17.31,11.68,43.93,22.21,59.74,34.63l-.84.57c-7.9-4.99-16.29-7.26-24.43-11.31-40.45-20.12-80.46-40.84-120.47-61.83-15.76-8.27-33.94-17.62-50.55-23.89l14.07-3.51c-9.14-3.68-38.42-16.15-45.11-22.06h0Z"/>
  <path class="st0" d="M768.34,106.9c.95,6-14.81,25.48-18.88,33.52,1.89,3.53,4.13,0,6.59,3.24-1.79,4.15-14.07,23.29-16.44,26.75-7.6,11.15-61.04,111.18-67.61,114.22-.95-5.06,13.84-33.71,17.2-40.22-3.77,3.47-11.55,15.63-15.36,20.57-6.41,8.3-11.74,13.8-18.98,21.29,5.43-15.16,19.25-38.72,27.3-54.08-5.54,6.09-10.66,13.14-15.63,19.76-7.35,9.29-13.31,16.35-20.22,26.1-9.06,12.82-25.03,40.8-36.12,50.54,12.96-23.48,31.31-49.97,46.26-72.19,29.09-43.24,57.61-83.53,84.13-128.45,1.51,3.78,2.9,8.1,4.24,11.98,8.14-11.14,13.66-22.59,23.52-33.04h0Z"/>
  <path class="st0" d="M890.45,251.68l.66.48c-1.27,4.47-26.13,20.96-32.94,27.91,5.18-.31,8.08.18,13.17.79-57.45,37.99-110.32,83.92-165.56,125.12-1.9,1.42-7.71,6.04-9.7,6.06,2.84-3.76,9.63-9.38,13.37-12.68,11.25-9.81,22.58-19.53,33.99-29.16,6.15-5.22,14.58-11.62,19.58-17.76-17.28,11.13-33.9,21.99-51.94,31.82-5.5,3.55-11.21,7.56-17.22,9.98,15.34-13.79,44.12-35.73,61.25-49.27-5.37-.46-57.1,33.75-62.42,32.78,32.86-24.82,73.36-48.42,107.67-71.72,12.84-8.77,25.63-17.63,38.35-26.58,3.65-2.6,15.73-11.8,19.09-13.32,1.22,1.53.53,3.39.35,6.01l.79.62c5.11-2.45,24.39-16.56,31.52-21.09h0Z"/>
  <path class="st0" d="M103.45,845c-3.61-1.53-4.53-1.09-5.77-3.74.38-.67.82-1.57,1.47-1.98,46.74-29.45,90.33-64.13,136.05-95.13,13.52-9.16,33.28-24.03,47.47-30.83-13.39,11.99-51.63,39.87-60.17,50.02,15.61-8.59,38.05-21.43,54.02-28.19-16.44,14.03-42.62,29.73-56.49,42.13l.1.63c9.38-3.4,58.01-32.04,61.02-31.62-5.12,4.91-31.74,21.68-39.05,26.2l-92.37,55.92c-12.42,7.66-29.44,17.19-40.31,26.03l-2.08-.03c-1.4-2.73-.25-3.47-.87-6.2l-2.99-1.14-.03-2.07h0Z"/>
  <path class="st0" d="M692.97,627.98c10.72.67,216.29,67.39,218.28,69.3-1.7,2.62-1.56,1.55-1.7,4.3,9.02,4.05,24.24,6.33,38.61,12.63-12.63-1.32-32.7-8.14-41.65-8.12l-.46,1.03,2.88,3.38-.27.95c-6.85-.69-22.85-5.77-30.64-7.75l-63.88-15.85c-14.71-4.88-109.83-26.63-112.58-30.85,5.65-.04,11.16,2.02,16.61,2.62,18.62,2.06,42.14,10.87,60.33,11.42-12.82-3.95-26.41-9.03-39.26-13.28-10.4-3.44-24.01-7.68-33.97-11.75l-.31-1c25.82,5.31,43.43,8.55,69.32,15.21-11.19-7.14-66.85-26.68-81.31-32.23h0Z"/>
  <path class="st0" d="M189.18,108.64c5.6,1.76,19.74,26.54,26.68,33.24l2.56-13.1c15.08,27.22,35.73,55.48,53.75,80.77,20.32,28.36,40.12,57.09,59.39,86.17-.49-.36-.97-.73-1.46-1.08-11.29-8.1-39.14-46.73-50.13-59.99,3.22,6,6.55,11.94,10,17.82,6.06,11.2,10.22,16.93,11.79,29.71-6.56-6.72-21.47-27.72-28.34-36.64l-1.58.15.71-1.13-1.46-1c5.86,14.75,14.82,27.12,20.3,43.92l.49,1.52c-10.21-10.81-40.25-63.75-49.99-80.67-12.92-22.46-26.96-41.71-40.29-62.98l.64-1.04c2.73,0,4.92.3,7.25-.99.27-6.09-16.39-22.68-20.29-34.68h-.02Z"/>
  <path class="st0" d="M109.93,274.36c.76-2.61.86-4.14,1.03-6.8l.73-.83c27.27,20.97,61.28,42.18,90.2,61.02,25.36,16.83,50.51,33.97,75.46,51.41-13.13-4.16-59.63-32.98-73.28-41.41,6.15,6.33,12.75,10.48,19.37,15.96,15.2,12.59,35.99,26.24,49.68,39.98-14.45-9.1-29.25-17.89-43.88-26.7-5.01-3.02-19.36-12.33-24.22-14.26l48.58,41.41c4.72,3.97,20.73,16.87,23.96,20.95-40.42-25.57-82.59-61.82-121.23-90.64-17.45-13.02-40.22-33.13-59.23-43.25l10.99-2.91,1.85-3.92h0Z"/>
  <path class="st0" d="M690.47,713.75c5.26.91,31.33,19.3,37.33,23.31,27.4,18.42,54.61,37.13,81.62,56.11,12.97,8.97,26.02,17.83,39.12,26.59,5.87,3.98,16.46,10.77,21.52,15.25l.07,1.43-4.32,2.29-.11,1.46c9.27,8.53,21.01,12.81,32.78,24.1-10.54-4.34-27.05-15.14-37.72-21.38,1.41,3.23,1.71,3.96,2.47,7.37l-.74.81c-27.83-17.11-52.85-32.93-81.39-49.32-10.55-6.01-89.21-51.44-91.19-55.8,9.33,3.82,69.73,37.13,73.88,37.5-1.04-1.99-52.96-36.49-59.18-43.91,2.56.28,47.96,24.95,54.35,27.66l.85.35c-5.45-3.91-10.48-8.4-15.78-12.53-17.77-13.84-36.09-27.08-53.57-41.29h.01Z"/>
  <path class="st0" d="M497.45,912.98l.97,1.2c.7,6.75-.02,18.87-.1,26.26l-1.18,60.97-.86,58.23c-.15,12.37.15,27.18-1.47,39.23l-8.23-7.46c-.46,16.12,1.45,26.16-1.94,42.09-1.35-12.2-.72-27.8-2.74-38.63-2.86-1.73-2.03,1.58-6.59,1.17-1.14-8.78-.57-40.31-.67-50.6-1.43-42.93-3.07-91.66-2.68-134.05,3.56,9.03,5.86,46.01,6.9,57.71,2.69-13.11,5.56-43.97,7.07-58.2,2.7,15.2,3.96,29.21,5.63,44.4,1.67-13.58,3.21-29.07,5.87-42.32h.02Z"/>
  <path class="st0" d="M550.65,908.21c3.43,10.97,5.91,28.98,7.77,40.65l9.55,60.16c2.49,15.72,11.68,65.56,11.62,79.46l-9.06-3.99c2.1,13.94,5.22,27.04,5.93,41.08-4.06-11.23-8.54-29.43-9.51-41.54l-7.11,6.89c-8.04-59.67-28.7-122.14-34.39-181.1,3.5,8.01,9.9,29.94,12.48,39.1.98,3.82,1.55,7.15,3.58,10.51.77-3.07-.44-8.85-.93-12.24.21-12.38-.96-24-.72-36.14,2.32,10.5,5.47,19.34,8.79,29.53,1.84,6.51,3.29,11.07,5.68,17.4l-2.43-16.85c-.6-10.97-1.35-21.93-1.25-32.91h0Z"/>
  <path class="st0" d="M444.32,909.52c1.82,11.1-6.53,43.95-9.11,56.8-5.14,25.93-10.05,51.91-14.73,77.93-2.54,16.08-5.4,32.11-8.55,48.07-2.27-2.54-4.84-6.15-6.93-8.93-3.83,13.55-3.38,24.58-9.26,39.08.22-14.4,3.66-24.17,4.92-37.46-2.12-2.32-3.02,1.7-8.27,1.26-.12-4.52,6.73-39.31,7.81-47.5,5.49-41.64,10.88-83.57,17.42-125.06l1.19,1.17c1.64,14.29-1.27,31.62-1.38,46.52,5.57-14.62,10.92-38.91,15.95-51.24-1.26,15.12-.01,28.85-2.54,44.04,4.76-14.14,9.19-30.26,13.48-44.68h0Z"/>
  <path class="st0" d="M845.44,173.53l1.18.65c-1.45,4.65-27.9,31.47-33.32,37.13l15.25-.46c-8.43,8.64-16.45,15.01-25.23,24.63l-56.48,62.74c-11.35,12.49-22.81,25.65-35.19,37.07,6.84-13.27,24.95-34.32,35.09-46.81-4.88,2.53-23.34,20.49-32.01,26.32-1.95,1.45-.89,1.08-3.16,1.22,1.02-4.56,27.7-37.47,32.43-44.38-11.94,10.77-30.34,28.17-43.07,36.51,6.14-11.76,22.33-25.85,31.9-35.72,26.2-27.02,53.76-52.41,78.63-80.75.48,4.96.74,10.43,1.08,15.44,10.58-11.58,21.56-22.79,32.91-33.61v.02Z"/>
  <path class="st0" d="M118.21,173.51c5.01,2.03,27.54,25.36,34.51,31.43l.76-11.63c4.35,4.07,20.27,20.04,23.12,23.53,8.34,10.18,86.3,79.95,86.24,86.08-11.52-2.23-36.59-31.71-41.57-31.38,12.21,13.58,21.94,25.91,33.29,40.18l.82,1.7-.41,1.1c-5.5.67-25.68-18.12-30.58-22.39,7.54,10.13,28.18,33.64,32.7,42.64-11.11-7.18-25.89-24.78-35.45-34.76-28.31-29.53-53.12-62.06-84.65-88.23,5.18-.15,10.66-.52,15.86-.78-10.74-10.69-26.57-25.4-34.64-37.46v-.03Z"/>
  <path class="st0" d="M279.85,768.57c.62.45.27.09.49,1.39-16.18,18.27-34.35,35.1-50.84,53.72,15.15-8.31,29.28-22.05,47.39-31.77-11.15,11.98-22.23,22.52-33.91,33.94-2.98,2.92-11.1,10.13-12.94,12.65.06,0,49.37-34.18,54.46-37.15-23.54,22.36-61.17,51.04-87.26,72.19-7.43,6.05-43.26,36.84-49.16,39.59l-.74-3.26-1.32-.78c-4.04,1.68-28.59,23.3-35.21,28.11,9.44-11.68,21.83-22.7,32.87-33.09l-9.83-2.97c15.32-9.71,42.52-37.79,56.42-50.74,28.46-26.5,59.42-57.52,89.59-81.82h0Z"/>
  <path class="st0" d="M692.63,770.3c8.7,3.43,139.46,122.92,140.39,126.64-2.87,1.27-2.92.74-4.47,2.97,1.43,5.4,24.81,24.27,32.16,33.13-11.37-5.55-24.16-18.12-34.33-26.62l-1.25.17-.65,3.18-1.08.53c-16.87-12.76-33.86-27.35-50.89-40.53-31.61-24.02-53.65-41.11-83.81-66.95,9.62,4.06,46.63,31.04,58.41,38.71-10.32-11.5-41.03-36.52-47.83-47.8,3.55,3.16,39.14,27.71,43.48,29.83-1.82-3.24-10.15-10.97-13.08-14.15-11.28-12.23-26.04-25.43-36.4-38.29l-.64-.82h0Z"/>
  <path class="st0" d="M608.84,911.74c4.67,2.75,29.37,74.94,33.1,85.36,5.69,15.95,17.34,42.65,21.8,58.52l-.95,1.15c-2.27-.11-4.53-.26-6.78-.47-1.95,2.93,8.63,27.37,10.19,36.51-8.49-12.58-9.66-23.46-15.82-32.54l-1.53-.12-3.35,4.71-1.3-.2c-2.37-3.81-7.94-20.75-10.06-26.48-9.68-26.51-22.15-53.22-32.96-79.33-6.77-16.33-13.98-30.2-18.01-47.51,7.7,11.71,13.84,23.8,21.26,35.7-3.36-13.22-5.47-23.31-7.92-36.74,8.33,13.2,12.42,23.02,19.62,36.53-2.83-11.84-5-23.14-7.29-35.1h0Z"/>
  <path class="st0" d="M390.04,908.23c-4.1,19.35-25.45,64.55-34.31,86.01-9.19,22.24-19.11,49.9-28.42,71.52-1.33-2.7-2.46-6.37-4.66-7.36l-.72.18c-1.54-1.37-1.02-.78-1.93-2.75l-1.46-1.67c-4.14.25-6.7,1.6-10.52,3.15,13.73-30.47,24.41-64.95,36.01-96.41,6.37-17.29,11.22-34.55,19.71-51.07-2.65,15.05-5.78,33.23-11.55,47.24l.24,1.2c1.28-.83,21.39-41.49,23.63-46.3-2.12,18.07-3.33,23.15-9.17,40.39,8.02-13.29,14.54-29.6,23.15-44.13h0Z"/>
  <path class="st0" d="M689.34,831.35c8.37,4.48,99.14,119.32,103.66,129.52-2.82,1.26-7.04.88-10.28.88,9.89,10.79,21.13,23.4,27.97,36.24-10.44-8.9-20.97-22.15-29.27-33.1-1.66,4.23-1.11,4.83-4.13,7.32-3.86-1.15-6.9-6.65-9.58-10.33-20.87-25.76-42.03-44.15-57.26-74.26,7.36,6.12,17.79,17.92,24.94,25.19-11-18.06-28.87-37.14-41.36-56.47,9.92,7.49,22.6,18.73,31,27.89-8.41-17.46-29.44-39.25-35.7-52.88h.01Z"/>
  <path class="st0" d="M177.78,961.67c22.8-27.6,43.15-55.2,65.07-83.4,8.71-11.2,28.23-36.74,39.05-45.37-1.11,3.94-13.66,18.52-16.83,22.9-9.3,12.86-16.74,26.57-25.39,39.78,5.41-5.11,10.59-10.73,15.96-16.04,6.49-6.43,14.95-13.5,20.87-20.12-7.65,12.82-14.4,21.44-23.65,33.1-4.56,5.75-12.78,15.98-15.83,22.3,6.56-7.14,10.1-10.3,17.51-16.45-4.23,11.34-22.15,30.35-30.43,40.96-3.85,4.93-27.98,35.61-29.96,36.76-3.43-4.25-.18-5.12-4.22-7.25-.37-1.86-.19-2.68-.15-4.6l-12-2.57h0Z"/>
  <path class="st0" d="M272.29,956.21c.5.42,1.21,1.4,1.65,1.96-.35,1.3-.66,2.61-.96,3.93l2.06.53c2.82-.96,6.23-2.63,8.67-.75-.21,2.81-.31,4.25-.22,7.11,1.5-.44,7.91-8,9.71-9.89-3.39,9.08-31.33,59.82-36.83,66.34l-1.35-.12c-.54-2.47-.94-4.13-1.68-6.59h-1.33c-3.61,3.4-5.48,8.09-7.77,12.6-4.48,8-7.9,14.29-14.2,21,4.83-11.9,14.49-27.88,17.77-37.38-2.64-.87-6.48-.02-9.41.36,7.51-14.89,24.96-45.86,33.87-59.08l.02-.02Z"/>
  <path class="st0" d="M700.21,956.17c4.11,3.43,30.88,49.7,31.58,54.53-1.58.87-2.08.99-3.79,1.47l-1.74.49c-.09.47-.19.94-.28,1.4,6.16,11.28,14.38,25.51,18.94,36.94-5.8-6-8.37-10.03-12.46-17.12-4.48-7.45-8.54-14.07-12.39-21.91-1.59,3.96-3.35,7.98-5.02,11.91-5.72-16.43-27.43-44.42-33.49-61.69l.68-1.05c4.89.19,2.3,1.82,7.56,3.46,1.45-3.53,1.27-4.71,4.81-5.48l2.15,2.26c2.4-1.32,2.04-2.07,3.46-5.22h-.01Z"/>
  <path class="st0" d="M551.15,184.65c2.59,4.97,5.62,7.83,9.41,11.86.49,3.57,1.08,7.71,1.94,11.19,1.17,4.77,3.66,7.42,3.96,12.36-3.29,5.72-5.05,4.01-9.32,7.08,1.08-.78-4.91,4.79-4.6,4.5-8.63-1.73-4.79-5.35-10.15-7.88-2.86.76-2.88.92-5.78.74l-1.58-1.81c-.32-4.96,7.1-26.77,10.92-30.82,1.88-1.99,3.54-4.69,5.19-7.21h.01ZM546.94,212.33c1.08-4.01,2.1-12.18,2.09-16.38l-1.86-1.41c-2.03,4.23-6.09,15.26-.23,17.79h0Z"/>
  <path class="st0" d="M547.16,194.54l1.86,1.41c.01,4.19-1.02,12.37-2.09,16.38-5.85-2.52-1.8-13.56.23-17.79h0Z"/>
  <path class="st0" d="M680.98,166.15c1.3,8.1-59.83,122.4-68.43,134.67-.16-5.32,62.59-127.77,68.43-134.67h0Z"/>
  <path class="st0" d="M273.11,164.48c7.85,9.03,22.81,36.6,29.36,48.65,13.37,24.57,29.89,52.25,41.95,77.21l-2.24.27c-16.8-29.27-33.29-58.72-49.46-88.34-5.43-10.04-15.11-26.19-18.94-36.05l-.69-1.74h.02Z"/>
  <path class="st0" d="M458.47,914.78l1.12,1.66c.01,13.55-3.43,42.2-4.72,56.51-1.31,14.58-2.67,48.48-5.6,60.35l-1.33-1.08c-.85-6.37.93-27.88,1.61-35.18,2.41-26.14,3.43-56.74,8.92-82.26h0Z"/>
  <path class="st0" d="M511.77,915.48c3.2,3.73,12.5,110.18,10.22,116.64-3.57-8.87-11.32-105.17-10.22-116.64Z"/>
  <path class="st0" d="M402.94,916.6c1.04,6.12-25.48,97.25-29.97,107.69-.4-.89-1-2.09-.86-2.71,3.7-16.2,24.46-96.04,30.84-104.98h-.01Z"/>
  <path class="st0" d="M566.97,916.43c5.3,5.74,29.07,93.38,31.73,107.66l-1-.35c-4.28-4.23-28.82-95.28-30.73-107.31Z"/>
  <path class="st0" d="M738.15,676.05c6.11.19,99.23,35.55,104.78,39.76-10.08,0-93.22-33.07-104.78-39.76Z"/>
  <path class="st0" d="M140.67,344.22c6.87.65,91.3,50.9,98.84,57.56-9.43-2.47-89.13-50.12-98.84-57.56Z"/>
  <path class="st0" d="M116.91,408.2c12.14.33,93.31,33.31,108.01,40.33-4.21.31-103.51-36.79-108.01-40.33Z"/>
  <path class="st0" d="M237.24,337.4c-17.24-13.17-34.28-28.2-50.98-42.13-8.2-6.84-22.24-17.79-28.52-25.61,4.58-.56,72.41,59.82,81.41,66.84l-1.91.9h0Z"/>
  <path class="st0" d="M847.01,408.47l.06,1.11c-3.31,4.33-91.45,35.41-104.53,40.35l-.07-.72c4.81-4.24,93.7-37.54,104.54-40.74Z"/>
  <path class="st0" d="M212.32,216.01c5.66,1.35,59.24,67.33,61.45,74.56-6.94-5.08-55.98-65.6-61.45-74.56h0Z"/>
  <path class="st0" d="M822.3,346.12l.7,1.3c-6.04,7.13-77.33,46.27-88.8,51.91l-.52-.7c5.07-3.4,11.06-7.15,16.39-10.15,24.02-13.54,47.84-29.72,72.23-42.36Z"/>
  <path class="st0" d="M219.71,682.63c.58.31.28.05.6,1.02l-91.85,35.77c-.67-.7-.32-.21-.66-1.71,11.71-8.22,74.59-29.27,91.91-35.08h0Z"/>
  <path class="st0" d="M245.73,779.72l.61.91c-4.29,3.88-9.32,7.89-13.94,11.42-22.22,16.97-43.94,35.81-66.89,51.72l-.67-.73c1.34-5.09,70.36-55.79,80.88-63.31h0Z"/>
  <path class="st0" d="M723.03,777.68c7.46,2.48,79.99,57.94,85.47,64.35-6.76-1.15-76.23-56.12-85.47-64.35Z"/>
  <path class="st0" d="M842.44,474.37l1.28.29-.48,1.26c-7.4,3.08-24.75,5.92-32.93,7.58-18.38,3.72-37.36,8.38-55.96,10.52l-.99-.05c6.3-4.08,78.13-18.12,89.09-19.6h-.01Z"/>
  <path class="st0" d="M794.31,282.14l.81,1.39c-3.25,5.36-60.49,51.77-69.07,58.01l-.45-1.19c14.11-14.44,31.85-27.6,47.11-40.91,6.66-5.81,14.49-12.17,21.6-17.29h0Z"/>
  <path class="st0" d="M740.32,227.18c1.09.93.54.29,1.33,2.17-3.86,6.05-11.7,15.47-16.34,21.35-10.82,13.9-21.96,27.55-33.41,40.94-.95-.99-.58-.34-.63-2.17,12.29-17.73,26.45-34.42,39.55-51.55,2.98-3.9,5.92-7.37,9.49-10.73h.01Z"/>
  <path class="st0" d="M217.91,738.48l-1.06,2.85c-4.04,1.44-12.36,7.01-16.53,9.21-14.52,7.68-48.31,30.3-62.95,33.89,12.92-10.13,65.04-38.45,80.54-45.95Z"/>
  <path class="st0" d="M765.78,587.46c10.1.57,83.51,4.26,87.7,7.24-2.4,1.83-1,1.25-4.57,1.08-22.69-.86-45.6-3.22-68.25-4.98-6.35-.5-13.53-1.14-19.73-2.39l.06-.57,4.79-.38Z"/>
  <path class="st0" d="M208.54,636.51l1.16-.29.49.67c-5.42,2.01-13.69,3.29-19.85,4.8-23.87,5.63-47.85,10.8-71.91,15.52h-1.62l-.52-1.14c4.27-3.54,81.89-18.11,92.25-19.56Z"/>
  <path class="st0" d="M713.73,836.85c7.35,2.59,57.07,55.51,61.43,63.53-5.31-1.89-54.87-55.41-61.43-63.53Z"/>
  <path class="st0" d="M752.77,634.39c8.32-.53,95.19,18.21,99.97,21.9-11.02-.45-90.84-18.44-99.97-21.9Z"/>
  <path class="st0" d="M208.62,587.5c1.14-.14.39-.13,2.2.5-7.76,3.42-78.01,6.43-92.49,8.16l-2-.04-.94-1.04c4.19-2.65,82.96-7.18,93.24-7.59h0Z"/>
  <path class="st0" d="M114.23,534.6c11.39-1.42,78.58,4.42,90.29,6.7-8.47,1.33-82.79-2.83-89.46-4.9l-.83-1.8Z"/>
  <path class="st0" d="M814.01,536.47c3.62-.72,17.43-1.17,20.96.28-7.21,3.09-47.46,4.62-57.42,4.9-8.49.58-14.45.86-22.91.64l.86-.14c16.6-2.84,40.98-4.09,58.51-5.68h0Z"/>
  <path class="st0" d="M134.3,477c8.95-.99,69.34,12.29,76.91,16.25-7.82-.25-70.41-12.69-76.91-16.25Z"/>
  <path class="st0" d="M738.11,729.34c4.41.16,48.11,23.12,51.73,28.27-9.25-1.97-42.08-21.63-51.28-27.25l-.45-1.02h0Z"/>
  <path class="st0" d="M71.74,249.39c12.8,6.63,25.69,16.95,38.18,24.96l-1.85,3.92c-6.21-6.82-25.05-16.6-36.34-28.88h.01Z"/>
  <path class="st0" d="M189.78,964.24c-.05,1.93-.22,2.74.15,4.6-3.23,4.28-21.69,28.32-25.26,29.03,3.91-8.62,18.41-26.31,25.11-33.63Z"/>
  <path class="st0" d="M261.2,832.65c-.27,3.79-32.96,36.21-37.7,40.66-1.08-5.03,31.95-35.42,37.7-40.66Z"/>
</svg>